<?xml version="1.0" encoding="UTF-8" standalone="no"?><svg xmlns="http://www.w3.org/2000/svg" xmlns:xlink="http://www.w3.org/1999/xlink" contentScriptType="application/ecmascript" contentStyleType="text/css" height="342px" preserveAspectRatio="none" style="width:835px;height:342px;background:#FFFFFF;" version="1.1" viewBox="0 0 835 342" width="835px" zoomAndPan="magnify"><defs><filter height="300%" id="f1i94f4e0tzth6" width="300%" x="-1" y="-1"><feGaussianBlur result="blurOut" stdDeviation="2.0"/><feColorMatrix in="blurOut" result="blurOut2" type="matrix" values="0 0 0 0 0 0 0 0 0 0 0 0 0 0 0 0 0 0 .4 0"/><feOffset dx="4.0" dy="4.0" in="blurOut2" result="blurOut3"/><feBlend in="SourceGraphic" in2="blurOut3" mode="normal"/></filter></defs><g><!--MD5=[54bb6d7a037149ef75f792f06aa0aa50]
cluster Common--><polygon fill="#FFFFFF" filter="url(#f1i94f4e0tzth6)" points="244,41.95,311,41.95,318,65.5594,600,65.5594,600,210.95,244,210.95,244,41.95" style="stroke:#000000;stroke-width:1.5;"/><line style="stroke:#000000;stroke-width:1.5;" x1="244" x2="318" y1="65.5594" y2="65.5594"/><text fill="#000000" font-family="sans-serif" font-size="14" font-weight="bold" lengthAdjust="spacing" textLength="61" x="248" y="58.4832">Common</text><!--MD5=[406b65fecc21e832f7a9b6ebadc6dce1]
cluster Client--><polygon fill="#FFFFFF" filter="url(#f1i94f4e0tzth6)" points="16,69.45,63,69.45,70,93.0594,220,93.0594,220,335.95,16,335.95,16,69.45" style="stroke:#000000;stroke-width:1.5;"/><line style="stroke:#000000;stroke-width:1.5;" x1="16" x2="70" y1="93.0594" y2="93.0594"/><text fill="#000000" font-family="sans-serif" font-size="14" font-weight="bold" lengthAdjust="spacing" textLength="41" x="20" y="85.9832">Client</text><!--MD5=[979da56a7f83e2393dc758167ae295d0]
cluster Server--><polygon fill="#FFFFFF" filter="url(#f1i94f4e0tzth6)" points="624,69.45,678,69.45,685,93.0594,818,93.0594,818,335.95,624,335.95,624,69.45" style="stroke:#000000;stroke-width:1.5;"/><line style="stroke:#000000;stroke-width:1.5;" x1="624" x2="685" y1="93.0594" y2="93.0594"/><text fill="#000000" font-family="sans-serif" font-size="14" font-weight="bold" lengthAdjust="spacing" textLength="48" x="628" y="85.9832">Server</text><!--MD5=[521817ab83e81da341a3f4b5e91bae41]
class Command--><rect codeLine="37" fill="#FEFECE" filter="url(#f1i94f4e0tzth6)" height="117.1797" id="Command" style="stroke:#A80036;stroke-width:1.5;" width="138" x="260" y="77.95"/><ellipse cx="296.15" cy="93.95" fill="#ADD1B2" rx="11" ry="11" style="stroke:#A80036;stroke-width:1.0;"/><path d="M298.9156,89.825 Q299.0719,89.6062 299.2594,89.4969 Q299.4469,89.3875 299.6656,89.3875 Q300.0406,89.3875 300.275,89.6453 Q300.5094,89.9031 300.5094,90.5125 L300.5094,91.9656 Q300.5094,92.575 300.275,92.8406 Q300.0406,93.1062 299.6656,93.1062 Q299.3219,93.1062 299.1188,92.9031 Q298.9156,92.7156 298.8063,92.2 Q298.7594,91.8406 298.5719,91.6531 Q298.2438,91.2781 297.6344,91.0594 Q297.025,90.8406 296.4,90.8406 Q295.6344,90.8406 295.0016,91.1687 Q294.3688,91.4969 293.8766,92.2469 Q293.3844,92.9969 293.3844,94.0281 L293.3844,95.1219 Q293.3844,96.3562 294.275,97.1766 Q295.1656,97.9969 296.7594,97.9969 Q297.6969,97.9969 298.3531,97.7469 Q298.7438,97.5906 299.1656,97.1531 Q299.4313,96.8875 299.5797,96.8094 Q299.7281,96.7312 299.9313,96.7312 Q300.2594,96.7312 300.5172,96.9891 Q300.775,97.2469 300.775,97.5906 Q300.775,97.9344 300.4313,98.3406 Q299.9313,98.9187 299.1344,99.2469 Q298.0563,99.7 296.7594,99.7 Q295.2438,99.7 294.0406,99.075 Q293.0563,98.575 292.3688,97.5047 Q291.6813,96.4344 291.6813,95.1531 L291.6813,93.9969 Q291.6813,92.6687 292.2984,91.5203 Q292.9156,90.3719 294.0094,89.7547 Q295.1031,89.1375 296.3375,89.1375 Q297.0719,89.1375 297.7203,89.3016 Q298.3688,89.4656 298.9156,89.825 Z " fill="#000000"/><text fill="#000000" font-family="sans-serif" font-size="12" lengthAdjust="spacing" textLength="59" x="314.85" y="98.8602">Command</text><line style="stroke:#A80036;stroke-width:1.5;" x1="261" x2="397" y1="109.95" y2="109.95"/><ellipse cx="271" cy="120.95" rx="3" ry="3" style="stroke:#038048;stroke-width:1.0;fill:none;"/><text fill="#000000" font-family="sans-serif" font-size="11" lengthAdjust="spacing" textLength="39" x="280" y="125.3689">Id : Guid</text><ellipse cx="271" cy="134.7859" rx="3" ry="3" style="stroke:#038048;stroke-width:1.0;fill:none;"/><text fill="#000000" font-family="sans-serif" font-size="11" lengthAdjust="spacing" textLength="52" x="280" y="139.2049">Type: Guid</text><ellipse cx="271" cy="148.6219" rx="3" ry="3" style="stroke:#038048;stroke-width:1.0;fill:none;"/><text fill="#000000" font-family="sans-serif" font-size="11" lengthAdjust="spacing" textLength="83" x="280" y="153.0408">Result: Argument</text><ellipse cx="271" cy="162.4578" rx="3" ry="3" style="stroke:#038048;stroke-width:1.0;fill:none;"/><text fill="#000000" font-family="sans-serif" font-size="11" lengthAdjust="spacing" textLength="112" x="280" y="166.8768">Arguments: Argument[]</text><line style="stroke:#A80036;stroke-width:1.5;" x1="261" x2="397" y1="173.2938" y2="173.2938"/><ellipse cx="271" cy="184.2938" fill="#84BE84" rx="3" ry="3" style="stroke:#038048;stroke-width:1.0;"/><text fill="#000000" font-family="sans-serif" font-size="11" lengthAdjust="spacing" textLength="103" x="280" y="188.7127">execute() : Command</text><!--MD5=[ef7aeb3cbdbc76daa05bef4975edfba0]
class Argument--><rect codeLine="44" fill="#FEFECE" filter="url(#f1i94f4e0tzth6)" height="75.6719" id="Argument" style="stroke:#A80036;stroke-width:1.5;" width="86" x="498" y="98.45"/><ellipse cx="513.45" cy="114.45" fill="#ADD1B2" rx="11" ry="11" style="stroke:#A80036;stroke-width:1.0;"/><path d="M516.2156,110.325 Q516.3719,110.1062 516.5594,109.9969 Q516.7469,109.8875 516.9656,109.8875 Q517.3406,109.8875 517.575,110.1453 Q517.8094,110.4031 517.8094,111.0125 L517.8094,112.4656 Q517.8094,113.075 517.575,113.3406 Q517.3406,113.6062 516.9656,113.6062 Q516.6219,113.6062 516.4188,113.4031 Q516.2156,113.2156 516.1063,112.7 Q516.0594,112.3406 515.8719,112.1531 Q515.5438,111.7781 514.9344,111.5594 Q514.325,111.3406 513.7,111.3406 Q512.9344,111.3406 512.3016,111.6687 Q511.6688,111.9969 511.1766,112.7469 Q510.6844,113.4969 510.6844,114.5281 L510.6844,115.6219 Q510.6844,116.8562 511.575,117.6766 Q512.4656,118.4969 514.0594,118.4969 Q514.9969,118.4969 515.6531,118.2469 Q516.0438,118.0906 516.4656,117.6531 Q516.7313,117.3875 516.8797,117.3094 Q517.0281,117.2312 517.2313,117.2312 Q517.5594,117.2312 517.8172,117.4891 Q518.075,117.7469 518.075,118.0906 Q518.075,118.4344 517.7313,118.8406 Q517.2313,119.4187 516.4344,119.7469 Q515.3563,120.2 514.0594,120.2 Q512.5438,120.2 511.3406,119.575 Q510.3563,119.075 509.6688,118.0047 Q508.9813,116.9344 508.9813,115.6531 L508.9813,114.4969 Q508.9813,113.1687 509.5984,112.0203 Q510.2156,110.8719 511.3094,110.2547 Q512.4031,109.6375 513.6375,109.6375 Q514.3719,109.6375 515.0203,109.8016 Q515.6688,109.9656 516.2156,110.325 Z " fill="#000000"/><text fill="#000000" font-family="sans-serif" font-size="12" lengthAdjust="spacing" textLength="53" x="527.55" y="119.3602">Argument</text><line style="stroke:#A80036;stroke-width:1.5;" x1="499" x2="583" y1="130.45" y2="130.45"/><ellipse cx="509" cy="141.45" rx="3" ry="3" style="stroke:#038048;stroke-width:1.0;fill:none;"/><text fill="#000000" font-family="sans-serif" font-size="11" lengthAdjust="spacing" textLength="60" x="518" y="145.8689">Name: string</text><ellipse cx="509" cy="155.2859" rx="3" ry="3" style="stroke:#038048;stroke-width:1.0;fill:none;"/><text fill="#000000" font-family="sans-serif" font-size="11" lengthAdjust="spacing" textLength="52" x="518" y="159.7049">Type: Guid</text><line style="stroke:#A80036;stroke-width:1.5;" x1="499" x2="583" y1="166.1219" y2="166.1219"/><!--MD5=[b1669a555842caa466f4ccfe0797fbce]
class ExecuteWrapper--><rect codeLine="26" fill="#FEFECE" filter="url(#f1i94f4e0tzth6)" height="61.8359" id="ExecuteWrapper" style="stroke:#A80036;stroke-width:1.5;" width="122" x="75" y="105.45"/><ellipse cx="90" cy="121.45" fill="#ADD1B2" rx="11" ry="11" style="stroke:#A80036;stroke-width:1.0;"/><path d="M92.7656,117.325 Q92.9219,117.1062 93.1094,116.9969 Q93.2969,116.8875 93.5156,116.8875 Q93.8906,116.8875 94.125,117.1453 Q94.3594,117.4031 94.3594,118.0125 L94.3594,119.4656 Q94.3594,120.075 94.125,120.3406 Q93.8906,120.6062 93.5156,120.6062 Q93.1719,120.6062 92.9688,120.4031 Q92.7656,120.2156 92.6563,119.7 Q92.6094,119.3406 92.4219,119.1531 Q92.0938,118.7781 91.4844,118.5594 Q90.875,118.3406 90.25,118.3406 Q89.4844,118.3406 88.8516,118.6687 Q88.2188,118.9969 87.7266,119.7469 Q87.2344,120.4969 87.2344,121.5281 L87.2344,122.6219 Q87.2344,123.8562 88.125,124.6766 Q89.0156,125.4969 90.6094,125.4969 Q91.5469,125.4969 92.2031,125.2469 Q92.5938,125.0906 93.0156,124.6531 Q93.2813,124.3875 93.4297,124.3094 Q93.5781,124.2312 93.7813,124.2312 Q94.1094,124.2312 94.3672,124.4891 Q94.625,124.7469 94.625,125.0906 Q94.625,125.4344 94.2813,125.8406 Q93.7813,126.4187 92.9844,126.7469 Q91.9063,127.2 90.6094,127.2 Q89.0938,127.2 87.8906,126.575 Q86.9063,126.075 86.2188,125.0047 Q85.5313,123.9344 85.5313,122.6531 L85.5313,121.4969 Q85.5313,120.1687 86.1484,119.0203 Q86.7656,117.8719 87.8594,117.2547 Q88.9531,116.6375 90.1875,116.6375 Q90.9219,116.6375 91.5703,116.8016 Q92.2188,116.9656 92.7656,117.325 Z " fill="#000000"/><text fill="#000000" font-family="sans-serif" font-size="12" lengthAdjust="spacing" textLength="90" x="104" y="126.3602">ExecuteWrapper</text><line style="stroke:#A80036;stroke-width:1.5;" x1="76" x2="196" y1="137.45" y2="137.45"/><text fill="#000000" font-family="sans-serif" font-size="11" lengthAdjust="spacing" textLength="74" x="81" y="152.8689">Cmd: Command</text><line style="stroke:#A80036;stroke-width:1.5;" x1="76" x2="196" y1="159.2859" y2="159.2859"/><!--MD5=[442874cbda4c59883e66961e29ccfd8d]
class ConcreteExecuteWrapper--><rect codeLine="31" fill="#FEFECE" filter="url(#f1i94f4e0tzth6)" height="61.8359" id="ConcreteExecuteWrapper" style="stroke:#A80036;stroke-width:1.5;" width="172" x="32" y="257.95"/><ellipse cx="47" cy="273.95" fill="#ADD1B2" rx="11" ry="11" style="stroke:#A80036;stroke-width:1.0;"/><path d="M49.7656,269.825 Q49.9219,269.6063 50.1094,269.4969 Q50.2969,269.3875 50.5156,269.3875 Q50.8906,269.3875 51.125,269.6453 Q51.3594,269.9031 51.3594,270.5125 L51.3594,271.9656 Q51.3594,272.575 51.125,272.8406 Q50.8906,273.1063 50.5156,273.1063 Q50.1719,273.1063 49.9688,272.9031 Q49.7656,272.7156 49.6563,272.2 Q49.6094,271.8406 49.4219,271.6531 Q49.0938,271.2781 48.4844,271.0594 Q47.875,270.8406 47.25,270.8406 Q46.4844,270.8406 45.8516,271.1688 Q45.2188,271.4969 44.7266,272.2469 Q44.2344,272.9969 44.2344,274.0281 L44.2344,275.1219 Q44.2344,276.3563 45.125,277.1766 Q46.0156,277.9969 47.6094,277.9969 Q48.5469,277.9969 49.2031,277.7469 Q49.5938,277.5906 50.0156,277.1531 Q50.2813,276.8875 50.4297,276.8094 Q50.5781,276.7313 50.7813,276.7313 Q51.1094,276.7313 51.3672,276.9891 Q51.625,277.2469 51.625,277.5906 Q51.625,277.9344 51.2813,278.3406 Q50.7813,278.9188 49.9844,279.2469 Q48.9063,279.7 47.6094,279.7 Q46.0938,279.7 44.8906,279.075 Q43.9063,278.575 43.2188,277.5047 Q42.5313,276.4344 42.5313,275.1531 L42.5313,273.9969 Q42.5313,272.6688 43.1484,271.5203 Q43.7656,270.3719 44.8594,269.7547 Q45.9531,269.1375 47.1875,269.1375 Q47.9219,269.1375 48.5703,269.3016 Q49.2188,269.4656 49.7656,269.825 Z " fill="#000000"/><text fill="#000000" font-family="sans-serif" font-size="12" lengthAdjust="spacing" textLength="140" x="61" y="278.8602">ConcreteExecuteWrapper</text><line style="stroke:#A80036;stroke-width:1.5;" x1="33" x2="203" y1="289.95" y2="289.95"/><text fill="#000000" font-family="sans-serif" font-size="11" lengthAdjust="spacing" textLength="97" x="38" y="305.3689">ConcreteArguments</text><line style="stroke:#A80036;stroke-width:1.5;" x1="33" x2="203" y1="311.7859" y2="311.7859"/><!--MD5=[1730e8e1b3ab0f4c203fccda3ff50a91]
class ActionWrapper--><rect codeLine="52" fill="#FEFECE" filter="url(#f1i94f4e0tzth6)" height="61.8359" id="ActionWrapper" style="stroke:#A80036;stroke-width:1.5;" width="112" x="652" y="105.45"/><ellipse cx="667" cy="121.45" fill="#ADD1B2" rx="11" ry="11" style="stroke:#A80036;stroke-width:1.0;"/><path d="M669.7656,117.325 Q669.9219,117.1062 670.1094,116.9969 Q670.2969,116.8875 670.5156,116.8875 Q670.8906,116.8875 671.125,117.1453 Q671.3594,117.4031 671.3594,118.0125 L671.3594,119.4656 Q671.3594,120.075 671.125,120.3406 Q670.8906,120.6062 670.5156,120.6062 Q670.1719,120.6062 669.9688,120.4031 Q669.7656,120.2156 669.6563,119.7 Q669.6094,119.3406 669.4219,119.1531 Q669.0938,118.7781 668.4844,118.5594 Q667.875,118.3406 667.25,118.3406 Q666.4844,118.3406 665.8516,118.6687 Q665.2188,118.9969 664.7266,119.7469 Q664.2344,120.4969 664.2344,121.5281 L664.2344,122.6219 Q664.2344,123.8562 665.125,124.6766 Q666.0156,125.4969 667.6094,125.4969 Q668.5469,125.4969 669.2031,125.2469 Q669.5938,125.0906 670.0156,124.6531 Q670.2813,124.3875 670.4297,124.3094 Q670.5781,124.2312 670.7813,124.2312 Q671.1094,124.2312 671.3672,124.4891 Q671.625,124.7469 671.625,125.0906 Q671.625,125.4344 671.2813,125.8406 Q670.7813,126.4187 669.9844,126.7469 Q668.9063,127.2 667.6094,127.2 Q666.0938,127.2 664.8906,126.575 Q663.9063,126.075 663.2188,125.0047 Q662.5313,123.9344 662.5313,122.6531 L662.5313,121.4969 Q662.5313,120.1687 663.1484,119.0203 Q663.7656,117.8719 664.8594,117.2547 Q665.9531,116.6375 667.1875,116.6375 Q667.9219,116.6375 668.5703,116.8016 Q669.2188,116.9656 669.7656,117.325 Z " fill="#000000"/><text fill="#000000" font-family="sans-serif" font-size="12" lengthAdjust="spacing" textLength="80" x="681" y="126.3602">ActionWrapper</text><line style="stroke:#A80036;stroke-width:1.5;" x1="653" x2="763" y1="137.45" y2="137.45"/><text fill="#000000" font-family="sans-serif" font-size="11" lengthAdjust="spacing" textLength="74" x="658" y="152.8689">Cmd: Command</text><line style="stroke:#A80036;stroke-width:1.5;" x1="653" x2="763" y1="159.2859" y2="159.2859"/><!--MD5=[91114ac045ddfc177d1cf734a05ae16a]
class ConcreteActionWrapper--><rect codeLine="57" fill="#FEFECE" filter="url(#f1i94f4e0tzth6)" height="61.8359" id="ConcreteActionWrapper" style="stroke:#A80036;stroke-width:1.5;" width="162" x="640" y="257.95"/><ellipse cx="655" cy="273.95" fill="#ADD1B2" rx="11" ry="11" style="stroke:#A80036;stroke-width:1.0;"/><path d="M657.7656,269.825 Q657.9219,269.6063 658.1094,269.4969 Q658.2969,269.3875 658.5156,269.3875 Q658.8906,269.3875 659.125,269.6453 Q659.3594,269.9031 659.3594,270.5125 L659.3594,271.9656 Q659.3594,272.575 659.125,272.8406 Q658.8906,273.1063 658.5156,273.1063 Q658.1719,273.1063 657.9688,272.9031 Q657.7656,272.7156 657.6563,272.2 Q657.6094,271.8406 657.4219,271.6531 Q657.0938,271.2781 656.4844,271.0594 Q655.875,270.8406 655.25,270.8406 Q654.4844,270.8406 653.8516,271.1688 Q653.2188,271.4969 652.7266,272.2469 Q652.2344,272.9969 652.2344,274.0281 L652.2344,275.1219 Q652.2344,276.3563 653.125,277.1766 Q654.0156,277.9969 655.6094,277.9969 Q656.5469,277.9969 657.2031,277.7469 Q657.5938,277.5906 658.0156,277.1531 Q658.2813,276.8875 658.4297,276.8094 Q658.5781,276.7313 658.7813,276.7313 Q659.1094,276.7313 659.3672,276.9891 Q659.625,277.2469 659.625,277.5906 Q659.625,277.9344 659.2813,278.3406 Q658.7813,278.9188 657.9844,279.2469 Q656.9063,279.7 655.6094,279.7 Q654.0938,279.7 652.8906,279.075 Q651.9063,278.575 651.2188,277.5047 Q650.5313,276.4344 650.5313,275.1531 L650.5313,273.9969 Q650.5313,272.6688 651.1484,271.5203 Q651.7656,270.3719 652.8594,269.7547 Q653.9531,269.1375 655.1875,269.1375 Q655.9219,269.1375 656.5703,269.3016 Q657.2188,269.4656 657.7656,269.825 Z " fill="#000000"/><text fill="#000000" font-family="sans-serif" font-size="12" lengthAdjust="spacing" textLength="130" x="669" y="278.8602">ConcreteActionWrapper</text><line style="stroke:#A80036;stroke-width:1.5;" x1="641" x2="801" y1="289.95" y2="289.95"/><text fill="#000000" font-family="sans-serif" font-size="11" lengthAdjust="spacing" textLength="97" x="646" y="305.3689">ConcreteArguments</text><line style="stroke:#A80036;stroke-width:1.5;" x1="641" x2="801" y1="311.7859" y2="311.7859"/><!--MD5=[26812a7de65654b205275ae2c32c104f]
link ExecuteWrapper to Command--><path codeLine="29" d="M202.47,136.45 C219.83,136.45 237.19,136.45 254.55,136.45 " fill="none" id="ExecuteWrapper-Command" style="stroke:#A80036;stroke-width:1.0;"/><polygon fill="#A80036" points="259.94,136.45,250.94,132.45,254.94,136.45,250.94,140.45,259.94,136.45" style="stroke:#A80036;stroke-width:1.0;"/><polygon fill="#A80036" points="197.07,136.45,206.07,140.45,202.07,136.45,206.07,132.45,197.07,136.45" style="stroke:#A80036;stroke-width:1.0;"/><text fill="#000000" font-family="sans-serif" font-size="13" lengthAdjust="spacing" textLength="7" x="204.9395" y="133.0015">1</text><text fill="#000000" font-family="sans-serif" font-size="13" lengthAdjust="spacing" textLength="7" x="245.0038" y="133.0795">1</text><!--MD5=[7f3503013f847114608a31f4f65d7edf]
link ExecuteWrapper to ConcreteExecuteWrapper--><path codeLine="34" d="M132.4,167.54 C129.46,192.15 125.29,226.98 122.2,252.86 " fill="none" id="ExecuteWrapper-to-ConcreteExecuteWrapper" style="stroke:#A80036;stroke-width:1.0;"/><polygon fill="#A80036" points="121.59,257.91,126.6184,249.4415,122.1767,252.9445,118.6737,248.5028,121.59,257.91" style="stroke:#A80036;stroke-width:1.0;"/><!--MD5=[8490bf03c0d6db2635f55bcaa357cbbe]
link Command to Argument--><path codeLine="48" d="M410.12,136.45 C410.12,136.45 462.36,136.45 484.83,136.45 " fill="none" id="Command-Argument" style="stroke:#A80036;stroke-width:1.0;"/><polygon fill="#A80036" points="497.92,136.45,488.9244,132.4401,492.92,136.4445,488.9156,140.4401,497.92,136.45" style="stroke:#A80036;stroke-width:1.0;"/><line style="stroke:#A80036;stroke-width:1.0;" x1="492.92" x2="484.915" y1="136.4445" y2="136.45"/><polygon fill="#A80036" points="398.12,136.45,404.12,140.45,410.12,136.45,404.12,132.45,398.12,136.45" style="stroke:#A80036;stroke-width:1.0;"/><text fill="#000000" font-family="sans-serif" font-size="13" lengthAdjust="spacing" textLength="63" x="416.5" y="129.9451">Arguments</text><text fill="#000000" font-family="sans-serif" font-size="13" lengthAdjust="spacing" textLength="7" x="406.0628" y="133.0795">1</text><text fill="#000000" font-family="sans-serif" font-size="13" lengthAdjust="spacing" textLength="5" x="485.0859" y="132.6285">*</text><!--MD5=[8490bf03c0d6db2635f55bcaa357cbbe]
link Command to Argument--><path codeLine="49" d="M410.2172,156.6801 C410.2172,156.6801 449.29,160 467.5,157.45 C473.27,156.64 479.23,155.49 485.14,154.14 " fill="none" id="Command-Argument-1" style="stroke:#A80036;stroke-width:1.0;"/><polygon fill="#A80036" points="497.9,150.92,488.1941,149.2481,493.0525,152.1456,490.1551,157.0041,497.9,150.92" style="stroke:#A80036;stroke-width:1.0;"/><line style="stroke:#A80036;stroke-width:1.0;" x1="493.0525" x2="485.295" y1="152.1456" y2="154.1"/><polygon fill="#A80036" points="398.35,154.9,403.6903,159.7458,410.2172,156.6801,404.877,151.8343,398.35,154.9" style="stroke:#A80036;stroke-width:1.0;"/><text fill="#000000" font-family="sans-serif" font-size="13" lengthAdjust="spacing" textLength="37" x="429.5" y="153.9451">Result</text><text fill="#000000" font-family="sans-serif" font-size="13" lengthAdjust="spacing" textLength="7" x="405.8627" y="153.4816">1</text><text fill="#000000" font-family="sans-serif" font-size="13" lengthAdjust="spacing" textLength="7" x="482.8906" y="168.3356">1</text><!--MD5=[347945a619f226a12c631843389623f8]
link ActionWrapper to Command--><path codeLine="55" d="M683.35,101.3 C660.87,72.69 624.79,34.59 582.5,18.95 C547.49,6 534.13,7.81 498.5,18.95 C462.18,30.31 426.81,52.48 397.85,74.54 " fill="none" id="ActionWrapper-Command" style="stroke:#A80036;stroke-width:1.0;"/><polygon fill="#A80036" points="393.63,77.79,403.1976,75.4531,397.5867,74.7332,398.3067,69.1223,393.63,77.79" style="stroke:#A80036;stroke-width:1.0;"/><polygon fill="#A80036" points="686.56,105.44,684.2231,95.8724,683.5032,101.4833,677.8923,100.7633,686.56,105.44" style="stroke:#A80036;stroke-width:1.0;"/><text fill="#000000" font-family="sans-serif" font-size="13" lengthAdjust="spacing" textLength="7" x="674.1044" y="94.4581">1</text><text fill="#000000" font-family="sans-serif" font-size="13" lengthAdjust="spacing" textLength="7" x="394.0802" y="67.1714">1</text><!--MD5=[3231926abc8da0b284a59ad8ee23593d]
link ActionWrapper to ConcreteActionWrapper--><path codeLine="60" d="M710.6,167.54 C712.73,192.15 715.73,226.98 717.97,252.86 " fill="none" id="ActionWrapper-to-ConcreteActionWrapper" style="stroke:#A80036;stroke-width:1.0;"/><polygon fill="#A80036" points="718.41,257.91,721.6245,248.6005,717.9818,252.9284,713.6539,249.2856,718.41,257.91" style="stroke:#A80036;stroke-width:1.0;"/><!--MD5=[08e1324b7cc91f23155dc2d2fb96d231]
@startuml CommandDetail

package Common {
	class Command
	class Argument
}

package Client {
	class ExecuteWrapper{
		Cmd: Command
	}
	ExecuteWrapper "1" <-> "1" Command

	class ConcreteExecuteWrapper{
		ConcreteArguments
	}
	ExecuteWrapper - -> ConcreteExecuteWrapper
}

class Command {
	+ Id : Guid
	+ Type: Guid
	+ Result: Argument
	+ Arguments: Argument[]
	+ execute() : Command
}
class Argument{
	+ Name: string
	+ Type: Guid
}
Command "1" *-> "*" Argument : Arguments
Command "1" *-> "1" Argument : Result

package Server {
	class ActionWrapper{
		Cmd: Command
	}
	ActionWrapper "1" <-> "1" Command

	class ConcreteActionWrapper{
		ConcreteArguments
	}
	ActionWrapper - -> ConcreteActionWrapper
}

@enduml

PlantUML version 1.2021.10(Mon Aug 30 15:43:48 CEST 2021)
(GPL source distribution)
Java Runtime: Java(TM) SE Runtime Environment
JVM: Java HotSpot(TM) Client VM
Default Encoding: Cp1252
Language: de
Country: CH
--></g></svg>