<?xml version="1.0" encoding="UTF-8" standalone="no"?><svg xmlns="http://www.w3.org/2000/svg" xmlns:xlink="http://www.w3.org/1999/xlink" contentScriptType="application/ecmascript" contentStyleType="text/css" height="329px" preserveAspectRatio="none" style="width:763px;height:329px;background:#FFFFFF;" version="1.1" viewBox="0 0 763 329" width="763px" zoomAndPan="magnify"><defs><filter height="300%" id="fh5nolfnoey4a" width="300%" x="-1" y="-1"><feGaussianBlur result="blurOut" stdDeviation="2.0"/><feColorMatrix in="blurOut" result="blurOut2" type="matrix" values="0 0 0 0 0 0 0 0 0 0 0 0 0 0 0 0 0 0 .4 0"/><feOffset dx="4.0" dy="4.0" in="blurOut2" result="blurOut3"/><feBlend in="SourceGraphic" in2="blurOut3" mode="normal"/></filter></defs><g><line style="stroke:#A80036;stroke-width:1.0;stroke-dasharray:5.0,5.0;" x1="49" x2="49" y1="41.6094" y2="284.7188"/><line style="stroke:#A80036;stroke-width:1.0;stroke-dasharray:5.0,5.0;" x1="304.5" x2="304.5" y1="41.6094" y2="284.7188"/><line style="stroke:#A80036;stroke-width:1.0;stroke-dasharray:5.0,5.0;" x1="451.5" x2="451.5" y1="41.6094" y2="284.7188"/><line style="stroke:#A80036;stroke-width:1.0;stroke-dasharray:5.0,5.0;" x1="576.5" x2="576.5" y1="41.6094" y2="284.7188"/><line style="stroke:#A80036;stroke-width:1.0;stroke-dasharray:5.0,5.0;" x1="707" x2="707" y1="41.6094" y2="284.7188"/><rect fill="#FEFECE" filter="url(#fh5nolfnoey4a)" height="31.6094" style="stroke:#A80036;stroke-width:1.5;" width="84" x="5" y="5"/><text fill="#000000" font-family="sans-serif" font-size="14" lengthAdjust="spacing" textLength="70" x="12" y="26.5332">Wrapper.ts</text><rect fill="#FEFECE" filter="url(#fh5nolfnoey4a)" height="31.6094" style="stroke:#A80036;stroke-width:1.5;" width="84" x="5" y="283.7188"/><text fill="#000000" font-family="sans-serif" font-size="14" lengthAdjust="spacing" textLength="70" x="12" y="305.252">Wrapper.ts</text><rect fill="#FEFECE" filter="url(#fh5nolfnoey4a)" height="31.6094" style="stroke:#A80036;stroke-width:1.5;" width="125" x="240.5" y="5"/><text fill="#000000" font-family="sans-serif" font-size="14" lengthAdjust="spacing" textLength="111" x="247.5" y="26.5332">CommandService</text><rect fill="#FEFECE" filter="url(#fh5nolfnoey4a)" height="31.6094" style="stroke:#A80036;stroke-width:1.5;" width="125" x="240.5" y="283.7188"/><text fill="#000000" font-family="sans-serif" font-size="14" lengthAdjust="spacing" textLength="111" x="247.5" y="305.252">CommandService</text><rect fill="#FEFECE" filter="url(#fh5nolfnoey4a)" height="31.6094" style="stroke:#A80036;stroke-width:1.5;" width="140" x="379.5" y="5"/><text fill="#000000" font-family="sans-serif" font-size="14" lengthAdjust="spacing" textLength="126" x="386.5" y="26.5332">CommandController</text><rect fill="#FEFECE" filter="url(#fh5nolfnoey4a)" height="31.6094" style="stroke:#A80036;stroke-width:1.5;" width="140" x="379.5" y="283.7188"/><text fill="#000000" font-family="sans-serif" font-size="14" lengthAdjust="spacing" textLength="126" x="386.5" y="305.252">CommandController</text><rect fill="#FEFECE" filter="url(#fh5nolfnoey4a)" height="31.6094" style="stroke:#A80036;stroke-width:1.5;" width="82" x="533.5" y="5"/><text fill="#000000" font-family="sans-serif" font-size="14" lengthAdjust="spacing" textLength="68" x="540.5" y="26.5332">Dispatcher</text><rect fill="#FEFECE" filter="url(#fh5nolfnoey4a)" height="31.6094" style="stroke:#A80036;stroke-width:1.5;" width="82" x="533.5" y="283.7188"/><text fill="#000000" font-family="sans-serif" font-size="14" lengthAdjust="spacing" textLength="68" x="540.5" y="305.252">Dispatcher</text><rect fill="#FEFECE" filter="url(#fh5nolfnoey4a)" height="31.6094" style="stroke:#A80036;stroke-width:1.5;" width="87" x="662" y="5"/><text fill="#000000" font-family="sans-serif" font-size="14" lengthAdjust="spacing" textLength="73" x="669" y="26.5332">Wrapper.cs</text><rect fill="#FEFECE" filter="url(#fh5nolfnoey4a)" height="31.6094" style="stroke:#A80036;stroke-width:1.5;" width="87" x="662" y="283.7188"/><text fill="#000000" font-family="sans-serif" font-size="14" lengthAdjust="spacing" textLength="73" x="669" y="305.252">Wrapper.cs</text><line style="stroke:#A80036;stroke-width:1.0;" x1="49" x2="91" y1="73.9609" y2="73.9609"/><line style="stroke:#A80036;stroke-width:1.0;" x1="91" x2="91" y1="73.9609" y2="86.9609"/><line style="stroke:#A80036;stroke-width:1.0;" x1="50" x2="91" y1="86.9609" y2="86.9609"/><polygon fill="#A80036" points="60,82.9609,50,86.9609,60,90.9609,56,86.9609" style="stroke:#A80036;stroke-width:1.0;"/><text fill="#000000" font-family="sans-serif" font-size="13" lengthAdjust="spacing" textLength="131" x="56" y="69.1045">execute(arguments ...)</text><polygon fill="#A80036" points="293,113.3125,303,117.3125,293,121.3125,297,117.3125" style="stroke:#A80036;stroke-width:1.0;"/><line style="stroke:#A80036;stroke-width:1.0;" x1="49" x2="299" y1="117.3125" y2="117.3125"/><text fill="#000000" font-family="sans-serif" font-size="13" lengthAdjust="spacing" textLength="232" x="56" y="112.4561">executeCommand(DTO: CommandDTO)</text><polygon fill="#A80036" points="439.5,143.6641,449.5,147.6641,439.5,151.6641,443.5,147.6641" style="stroke:#A80036;stroke-width:1.0;"/><line style="stroke:#A80036;stroke-width:1.0;" x1="305" x2="445.5" y1="147.6641" y2="147.6641"/><text fill="#000000" font-family="sans-serif" font-size="13" lengthAdjust="spacing" textLength="49" x="312" y="142.8076">httpPost</text><polygon fill="#A80036" points="564.5,174.0156,574.5,178.0156,564.5,182.0156,568.5,178.0156" style="stroke:#A80036;stroke-width:1.0;"/><line style="stroke:#A80036;stroke-width:1.0;" x1="451.5" x2="570.5" y1="178.0156" y2="178.0156"/><text fill="#000000" font-family="sans-serif" font-size="13" lengthAdjust="spacing" textLength="51" x="458.5" y="173.1592">Dispatch</text><polygon fill="#A80036" points="695.5,204.3672,705.5,208.3672,695.5,212.3672,699.5,208.3672" style="stroke:#A80036;stroke-width:1.0;"/><line style="stroke:#A80036;stroke-width:1.0;" x1="576.5" x2="701.5" y1="208.3672" y2="208.3672"/><text fill="#000000" font-family="sans-serif" font-size="13" lengthAdjust="spacing" textLength="107" x="583.5" y="203.5107">ExecuteCommand</text><polygon fill="#A80036" points="587.5,218.3672,577.5,222.3672,587.5,226.3672,583.5,222.3672" style="stroke:#A80036;stroke-width:1.0;"/><line style="stroke:#A80036;stroke-width:1.0;stroke-dasharray:2.0,2.0;" x1="581.5" x2="706.5" y1="222.3672" y2="222.3672"/><polygon fill="#A80036" points="462.5,232.3672,452.5,236.3672,462.5,240.3672,458.5,236.3672" style="stroke:#A80036;stroke-width:1.0;"/><line style="stroke:#A80036;stroke-width:1.0;stroke-dasharray:2.0,2.0;" x1="456.5" x2="575.5" y1="236.3672" y2="236.3672"/><polygon fill="#A80036" points="316,262.7188,306,266.7188,316,270.7188,312,266.7188" style="stroke:#A80036;stroke-width:1.0;"/><line style="stroke:#A80036;stroke-width:1.0;stroke-dasharray:2.0,2.0;" x1="310" x2="450.5" y1="266.7188" y2="266.7188"/><text fill="#000000" font-family="sans-serif" font-size="13" lengthAdjust="spacing" textLength="80" x="322" y="261.8623">httpResponse</text><!--MD5=[78db373521d2bfc1842cca39282e691c]
@startuml CommandSequence
Wrapper.ts->Wrapper.ts : execute(arguments ...)
Wrapper.ts->CommandService: executeCommand(DTO: CommandDTO)
CommandService->CommandController : httpPost
CommandController->Dispatcher : Dispatch
Dispatcher->Wrapper.cs : ExecuteCommand
Wrapper.cs- ->Dispatcher
Dispatcher- ->CommandController
CommandController- ->CommandService: httpResponse
@enduml

PlantUML version 1.2021.10(Mon Aug 30 15:43:48 CEST 2021)
(GPL source distribution)
Java Runtime: Java(TM) SE Runtime Environment
JVM: Java HotSpot(TM) Client VM
Default Encoding: Cp1252
Language: de
Country: CH
--></g></svg>