<?xml version="1.0" encoding="UTF-8" standalone="no"?><svg xmlns="http://www.w3.org/2000/svg" xmlns:xlink="http://www.w3.org/1999/xlink" contentScriptType="application/ecmascript" contentStyleType="text/css" height="110px" preserveAspectRatio="none" style="width:569px;height:110px;background:#FFFFFF;" version="1.1" viewBox="0 0 569 110" width="569px" zoomAndPan="magnify"><defs><filter height="300%" id="f13g5urqkxalfp" width="300%" x="-1" y="-1"><feGaussianBlur result="blurOut" stdDeviation="2.0"/><feColorMatrix in="blurOut" result="blurOut2" type="matrix" values="0 0 0 0 0 0 0 0 0 0 0 0 0 0 0 0 0 0 .4 0"/><feOffset dx="4.0" dy="4.0" in="blurOut2" result="blurOut3"/><feBlend in="SourceGraphic" in2="blurOut3" mode="normal"/></filter></defs><g><!--MD5=[9899c005d95a57f56bcefca9b0eefbb6]
class Caller--><rect codeLine="1" fill="#FEFECE" filter="url(#f13g5urqkxalfp)" height="48" id="Caller" style="stroke:#A80036;stroke-width:1.5;" width="65" x="7" y="28"/><ellipse cx="22" cy="44" fill="#ADD1B2" rx="11" ry="11" style="stroke:#A80036;stroke-width:1.0;"/><path d="M24.7656,39.875 Q24.9219,39.6563 25.1094,39.5469 Q25.2969,39.4375 25.5156,39.4375 Q25.8906,39.4375 26.125,39.6953 Q26.3594,39.9531 26.3594,40.5625 L26.3594,42.0156 Q26.3594,42.625 26.125,42.8906 Q25.8906,43.1563 25.5156,43.1563 Q25.1719,43.1563 24.9688,42.9531 Q24.7656,42.7656 24.6563,42.25 Q24.6094,41.8906 24.4219,41.7031 Q24.0938,41.3281 23.4844,41.1094 Q22.875,40.8906 22.25,40.8906 Q21.4844,40.8906 20.8516,41.2188 Q20.2188,41.5469 19.7266,42.2969 Q19.2344,43.0469 19.2344,44.0781 L19.2344,45.1719 Q19.2344,46.4063 20.125,47.2266 Q21.0156,48.0469 22.6094,48.0469 Q23.5469,48.0469 24.2031,47.7969 Q24.5938,47.6406 25.0156,47.2031 Q25.2813,46.9375 25.4297,46.8594 Q25.5781,46.7813 25.7813,46.7813 Q26.1094,46.7813 26.3672,47.0391 Q26.625,47.2969 26.625,47.6406 Q26.625,47.9844 26.2813,48.3906 Q25.7813,48.9688 24.9844,49.2969 Q23.9063,49.75 22.6094,49.75 Q21.0938,49.75 19.8906,49.125 Q18.9063,48.625 18.2188,47.5547 Q17.5313,46.4844 17.5313,45.2031 L17.5313,44.0469 Q17.5313,42.7188 18.1484,41.5703 Q18.7656,40.4219 19.8594,39.8047 Q20.9531,39.1875 22.1875,39.1875 Q22.9219,39.1875 23.5703,39.3516 Q24.2188,39.5156 24.7656,39.875 Z " fill="#000000"/><text fill="#000000" font-family="sans-serif" font-size="12" lengthAdjust="spacing" textLength="33" x="36" y="48.9102">Caller</text><line style="stroke:#A80036;stroke-width:1.5;" x1="8" x2="71" y1="60" y2="60"/><line style="stroke:#A80036;stroke-width:1.5;" x1="8" x2="71" y1="68" y2="68"/><!--MD5=[521817ab83e81da341a3f4b5e91bae41]
class Command--><rect codeLine="3" fill="#FEFECE" filter="url(#f13g5urqkxalfp)" height="89.5078" id="Command" style="stroke:#A80036;stroke-width:1.5;" width="129" x="163" y="7"/><ellipse cx="195.1" cy="23" fill="#ADD1B2" rx="11" ry="11" style="stroke:#A80036;stroke-width:1.0;"/><path d="M197.8656,18.875 Q198.0219,18.6563 198.2094,18.5469 Q198.3969,18.4375 198.6156,18.4375 Q198.9906,18.4375 199.225,18.6953 Q199.4594,18.9531 199.4594,19.5625 L199.4594,21.0156 Q199.4594,21.625 199.225,21.8906 Q198.9906,22.1563 198.6156,22.1563 Q198.2719,22.1563 198.0688,21.9531 Q197.8656,21.7656 197.7563,21.25 Q197.7094,20.8906 197.5219,20.7031 Q197.1938,20.3281 196.5844,20.1094 Q195.975,19.8906 195.35,19.8906 Q194.5844,19.8906 193.9516,20.2188 Q193.3188,20.5469 192.8266,21.2969 Q192.3344,22.0469 192.3344,23.0781 L192.3344,24.1719 Q192.3344,25.4063 193.225,26.2266 Q194.1156,27.0469 195.7094,27.0469 Q196.6469,27.0469 197.3031,26.7969 Q197.6938,26.6406 198.1156,26.2031 Q198.3813,25.9375 198.5297,25.8594 Q198.6781,25.7813 198.8813,25.7813 Q199.2094,25.7813 199.4672,26.0391 Q199.725,26.2969 199.725,26.6406 Q199.725,26.9844 199.3813,27.3906 Q198.8813,27.9688 198.0844,28.2969 Q197.0063,28.75 195.7094,28.75 Q194.1938,28.75 192.9906,28.125 Q192.0063,27.625 191.3188,26.5547 Q190.6313,25.4844 190.6313,24.2031 L190.6313,23.0469 Q190.6313,21.7188 191.2484,20.5703 Q191.8656,19.4219 192.9594,18.8047 Q194.0531,18.1875 195.2875,18.1875 Q196.0219,18.1875 196.6703,18.3516 Q197.3188,18.5156 197.8656,18.875 Z " fill="#000000"/><text fill="#000000" font-family="sans-serif" font-size="12" lengthAdjust="spacing" textLength="59" x="212.9" y="27.9102">Command</text><line style="stroke:#A80036;stroke-width:1.5;" x1="164" x2="291" y1="39" y2="39"/><ellipse cx="174" cy="50" rx="3" ry="3" style="stroke:#038048;stroke-width:1.0;fill:none;"/><text fill="#000000" font-family="sans-serif" font-size="11" lengthAdjust="spacing" textLength="39" x="183" y="54.4189">Id : Guid</text><ellipse cx="174" cy="63.8359" rx="3" ry="3" style="stroke:#038048;stroke-width:1.0;fill:none;"/><text fill="#000000" font-family="sans-serif" font-size="11" lengthAdjust="spacing" textLength="52" x="183" y="68.2549">Type: Guid</text><line style="stroke:#A80036;stroke-width:1.5;" x1="164" x2="291" y1="74.6719" y2="74.6719"/><ellipse cx="174" cy="85.6719" fill="#84BE84" rx="3" ry="3" style="stroke:#038048;stroke-width:1.0;"/><text fill="#000000" font-family="sans-serif" font-size="11" lengthAdjust="spacing" textLength="103" x="183" y="90.0908">execute() : Command</text><!--MD5=[bcee973e2623bef0127252815a37a6e8]
class Receiver--><rect codeLine="8" fill="#FEFECE" filter="url(#f13g5urqkxalfp)" height="75.6719" id="Receiver" style="stroke:#A80036;stroke-width:1.5;" width="184" x="371.5" y="14"/><ellipse cx="435.25" cy="30" fill="#ADD1B2" rx="11" ry="11" style="stroke:#A80036;stroke-width:1.0;"/><path d="M438.0156,25.875 Q438.1719,25.6563 438.3594,25.5469 Q438.5469,25.4375 438.7656,25.4375 Q439.1406,25.4375 439.375,25.6953 Q439.6094,25.9531 439.6094,26.5625 L439.6094,28.0156 Q439.6094,28.625 439.375,28.8906 Q439.1406,29.1563 438.7656,29.1563 Q438.4219,29.1563 438.2188,28.9531 Q438.0156,28.7656 437.9063,28.25 Q437.8594,27.8906 437.6719,27.7031 Q437.3438,27.3281 436.7344,27.1094 Q436.125,26.8906 435.5,26.8906 Q434.7344,26.8906 434.1016,27.2188 Q433.4688,27.5469 432.9766,28.2969 Q432.4844,29.0469 432.4844,30.0781 L432.4844,31.1719 Q432.4844,32.4063 433.375,33.2266 Q434.2656,34.0469 435.8594,34.0469 Q436.7969,34.0469 437.4531,33.7969 Q437.8438,33.6406 438.2656,33.2031 Q438.5313,32.9375 438.6797,32.8594 Q438.8281,32.7813 439.0313,32.7813 Q439.3594,32.7813 439.6172,33.0391 Q439.875,33.2969 439.875,33.6406 Q439.875,33.9844 439.5313,34.3906 Q439.0313,34.9688 438.2344,35.2969 Q437.1563,35.75 435.8594,35.75 Q434.3438,35.75 433.1406,35.125 Q432.1563,34.625 431.4688,33.5547 Q430.7813,32.4844 430.7813,31.2031 L430.7813,30.0469 Q430.7813,28.7188 431.3984,27.5703 Q432.0156,26.4219 433.1094,25.8047 Q434.2031,25.1875 435.4375,25.1875 Q436.1719,25.1875 436.8203,25.3516 Q437.4688,25.5156 438.0156,25.875 Z " fill="#000000"/><text fill="#000000" font-family="sans-serif" font-size="12" lengthAdjust="spacing" textLength="48" x="455.75" y="34.9102">Receiver</text><line style="stroke:#A80036;stroke-width:1.5;" x1="372.5" x2="554.5" y1="46" y2="46"/><ellipse cx="382.5" cy="57" rx="3" ry="3" style="stroke:#038048;stroke-width:1.0;fill:none;"/><text fill="#000000" font-family="sans-serif" font-size="11" lengthAdjust="spacing" textLength="52" x="391.5" y="61.4189">Type: Guid</text><line style="stroke:#A80036;stroke-width:1.5;" x1="372.5" x2="554.5" y1="67.8359" y2="67.8359"/><ellipse cx="382.5" cy="78.8359" fill="#84BE84" rx="3" ry="3" style="stroke:#038048;stroke-width:1.0;"/><text fill="#000000" font-family="sans-serif" font-size="11" lengthAdjust="spacing" textLength="158" x="391.5" y="83.2549">action(cmd: Comand) : Command</text><!--MD5=[2f6de3e70f0e79cea0661a282b438371]
link Caller to Command--><path codeLine="13" d="M84.25,52 C84.25,52 127.81,52 149.74,52 " fill="none" id="Caller-Command" style="stroke:#A80036;stroke-width:1.0;"/><polygon fill="#A80036" points="162.83,52,153.83,48,157.83,52,153.83,56,162.83,52" style="stroke:#A80036;stroke-width:1.0;"/><line style="stroke:#A80036;stroke-width:1.0;" x1="157.83" x2="149.83" y1="52" y2="52"/><polygon fill="#A80036" points="72.25,52,78.25,56,84.25,52,78.25,48,72.25,52" style="stroke:#A80036;stroke-width:1.0;"/><text fill="#000000" font-family="sans-serif" font-size="13" lengthAdjust="spacing" textLength="54" x="90.5" y="45.4951">execute()</text><!--MD5=[aeb13b6231cf3248d0cdc9d544e734dc]
link Command to Receiver--><path codeLine="14" d="M292.3,52 C315.1,52 341.26,52 366.15,52 " fill="none" id="Command-to-Receiver" style="stroke:#A80036;stroke-width:1.0;"/><polygon fill="#A80036" points="371.44,52,362.44,48,366.44,52,362.44,56,371.44,52" style="stroke:#A80036;stroke-width:1.0;"/><text fill="#000000" font-family="sans-serif" font-size="13" lengthAdjust="spacing" textLength="43" x="310.25" y="45.4951">action()</text><!--MD5=[81c8e3c380da945a3fafa5831392fa6b]
@startuml CommandPrinciple
class Caller

class Command {
	+ Id : Guid
	+ Type: Guid
	+ execute() : Command
}
class Receiver{
	+ Type: Guid
	+ action(cmd: Comand) : Command
}

Caller *->  Command : execute()
Command -> Receiver : action()

@enduml

PlantUML version 1.2021.10(Mon Aug 30 15:43:48 CEST 2021)
(GPL source distribution)
Java Runtime: Java(TM) SE Runtime Environment
JVM: Java HotSpot(TM) Client VM
Default Encoding: Cp1252
Language: de
Country: CH
--></g></svg>