<?xml version="1.0" encoding="UTF-8" standalone="no"?><svg xmlns="http://www.w3.org/2000/svg" xmlns:xlink="http://www.w3.org/1999/xlink" contentScriptType="application/ecmascript" contentStyleType="text/css" height="450px" preserveAspectRatio="none" style="width:501px;height:450px;background:#FFFFFF;" version="1.1" viewBox="0 0 501 450" width="501px" zoomAndPan="magnify"><defs><filter height="300%" id="f138vc8uqjuj4x" width="300%" x="-1" y="-1"><feGaussianBlur result="blurOut" stdDeviation="2.0"/><feColorMatrix in="blurOut" result="blurOut2" type="matrix" values="0 0 0 0 0 0 0 0 0 0 0 0 0 0 0 0 0 0 .4 0"/><feOffset dx="4.0" dy="4.0" in="blurOut2" result="blurOut3"/><feBlend in="SourceGraphic" in2="blurOut3" mode="normal"/></filter></defs><g><text fill="#888888" font-family="sans-serif" font-size="10" lengthAdjust="spacing" textLength="41" x="447.8106" y="10.3809">overview</text><text fill="#000000" font-family="sans-serif" font-size="18" lengthAdjust="spacing" textLength="180" x="154.4053" y="31.2637">wEBcMD system parts</text><!--MD5=[979da56a7f83e2393dc758167ae295d0]
cluster Server--><path d="M33.9075,275.3625 C39.7022,266.6511 46.212,266.3452 52.4331,274.9052 C57.062,266.3029 64.6883,266.5429 70.3816,273.6925 C74.2198,264.6853 82.4163,263.9774 87.9624,271.9212 C92.1029,263.5376 98.1545,260.6079 105.1507,268.9944 C109.1738,259.4377 117.071,259.2302 122.1769,267.9877 C126.935,259.5302 136.7292,256.9384 142.236,267.1849 C146.9381,258.4175 153.455,259.1187 159.3131,265.9166 C165.8296,257.5929 172.1938,259.7104 177.1457,267.6338 C184.3247,259.5873 190.8134,258.8075 196.2189,269.4443 C203.0116,261.6159 209.1024,261.7757 214.3239,271.1025 C219.4537,262.6326 228.8547,261.6432 233.9137,271.1796 C239.762,262.2961 245.2832,264.0708 250.4739,271.8338 C257.0071,264.7472 262.7254,266.4429 267.386,273.9969 C278.2257,263.6978 288.595,265.7323 291.8106,281.2188 C292.9798,281.4344 293.1675,282.4137 292.5367,283.2674 C306.5702,287.6295 309.3101,297.9298 297.4778,307.5542 C306.9743,313.6113 309.4013,319.6411 299.9665,328.0023 C313.7466,332.3704 313.3505,342.9346 303.9126,351.2447 C313.0826,361.1502 313.422,368.5777 300.1027,374.854 C310.8763,381.3755 309.251,392.2071 298.6264,397.3226 C307.8718,413.328 302.4201,423.0533 284.8106,426.2188 C286.1184,425.1445 287.7435,425.2714 288.0489,427.2738 C284.194,438.2448 276.1145,438.0603 269.3871,430.1064 C262.7297,440.1044 256.6178,441.2637 248.9294,431.1554 C243.2488,437.0751 238.2501,438.519 233.5692,430.0856 C228.0435,437.5054 221.2289,438.8661 215.8847,429.8899 C211.6074,438.073 203.0109,439.3552 196.9682,432.0454 C191.4327,441.5356 183.7586,441.2549 178.4912,431.7841 C172.9155,441.4385 165.7597,441.0742 159.0418,433.04 C155.2871,440.1984 147.9873,440.7313 143.7063,433.6049 C136.5713,443.6772 128.5246,440.4238 123.8116,431.1182 C117.0065,438.0039 111.433,438.4721 105.6236,429.9434 C99.2238,439.3271 92.1282,438.0059 86.6838,428.9615 C81.8286,435.4795 76.1275,437.7362 70.8595,429.4014 C66.1811,437.7394 57.95,436.414 53.3231,429.3426 C38.7035,440.9082 29.5332,435.5268 24.8106,419.2188 C25.5612,418.1987 26.6126,418.3096 26.9727,419.5864 C14.9733,414.6361 15.7594,407.2946 23.3448,398.9081 C9.8355,394.1569 9.6296,384.6557 19.7134,376.1413 C8.2444,370.284 7.4793,360.6837 17.6191,352.8808 C6,345.4179 7.4729,334.7644 19.5115,329.1912 C10.7385,320.1292 12.1616,312.5376 23.3388,306.9012 C8.8372,293.3546 13.679,279.3064 31.8106,274.2188 C32.887,273.6983 33.78,274.1432 33.9075,275.3625 " fill="#FFFFFF" filter="url(#f138vc8uqjuj4x)" style="stroke:#000000;stroke-width:1.5;"/><text fill="#000000" font-family="sans-serif" font-size="14" font-weight="bold" lengthAdjust="spacing" textLength="48" x="134.3106" y="293.752">Server</text><!--MD5=[476b81a424141b51077d5e19c3be349b]
cluster Docker container--><polygon fill="#FFFFFF" filter="url(#f138vc8uqjuj4x)" points="40.8106,310.2188,167.8106,310.2188,174.8106,333.8281,275.8106,333.8281,275.8106,410.2188,40.8106,410.2188,40.8106,310.2188" style="stroke:#000000;stroke-width:1.5;"/><line style="stroke:#000000;stroke-width:1.5;" x1="40.8106" x2="174.8106" y1="333.8281" y2="333.8281"/><text fill="#000000" font-family="sans-serif" font-size="14" font-weight="bold" lengthAdjust="spacing" textLength="121" x="44.8106" y="326.752">Docker container</text><!--MD5=[8699c0c8e953ee53654a072cc875bfb4]
cluster Browser--><polygon fill="#FFFFFF" filter="url(#f138vc8uqjuj4x)" points="225.8106,51.2188,235.8106,41.2188,484.8106,41.2188,484.8106,136.2188,474.8106,146.2188,225.8106,146.2188,225.8106,51.2188" style="stroke:#000000;stroke-width:1.5;"/><line style="stroke:#000000;stroke-width:1.5;" x1="474.8106" x2="484.8106" y1="51.2188" y2="41.2188"/><line style="stroke:#000000;stroke-width:1.5;" x1="225.8106" x2="474.8106" y1="51.2188" y2="51.2188"/><line style="stroke:#000000;stroke-width:1.5;" x1="474.8106" x2="474.8106" y1="51.2188" y2="146.2188"/><text fill="#000000" font-family="sans-serif" font-size="14" font-weight="bold" lengthAdjust="spacing" textLength="59" x="321.8106" y="68.752">Browser</text><!--MD5=[59de7a460668b8e01cb8837b8cc5fd82]
entity rests--><ellipse cx="250.8106" cy="370.2188" fill="#FEFECE" filter="url(#f138vc8uqjuj4x)" rx="8" ry="8" style="stroke:#A80036;stroke-width:1.5;"/><text fill="#000000" font-family="sans-serif" font-size="14" lengthAdjust="spacing" textLength="62" x="219.8106" y="401.752">REST-Api</text><!--MD5=[4e8ecd94af36cce41665c9f079adf9fd]
entity backend--><rect fill="#FEFECE" filter="url(#f138vc8uqjuj4x)" height="47.6094" style="stroke:#A80036;stroke-width:1.5;" width="149" x="57.3106" y="346.2188"/><rect fill="#FEFECE" height="10" style="stroke:#A80036;stroke-width:1.5;" width="15" x="186.3106" y="351.2188"/><rect fill="#FEFECE" height="2" style="stroke:#A80036;stroke-width:1.5;" width="4" x="184.3106" y="353.2188"/><rect fill="#FEFECE" height="2" style="stroke:#A80036;stroke-width:1.5;" width="4" x="184.3106" y="357.2188"/><text fill="#000000" font-family="sans-serif" font-size="14" lengthAdjust="spacing" textLength="109" x="72.3106" y="380.752">Backend (dotnet)</text><!--MD5=[75a5517c64eca447647be773d41af838]
entity restc--><ellipse cx="250.8106" cy="106.2188" fill="#FEFECE" filter="url(#f138vc8uqjuj4x)" rx="8" ry="8" style="stroke:#A80036;stroke-width:1.5;"/><text fill="#000000" font-family="sans-serif" font-size="14" lengthAdjust="spacing" textLength="62" x="219.8106" y="137.752">REST-Api</text><!--MD5=[b1e3d2dcb3697de9e6328d1cb436cbc4]
entity frontend--><rect fill="#FEFECE" filter="url(#f138vc8uqjuj4x)" height="47.6094" style="stroke:#A80036;stroke-width:1.5;" width="173" x="295.3106" y="82.2188"/><rect fill="#FEFECE" height="10" style="stroke:#A80036;stroke-width:1.5;" width="15" x="448.3106" y="87.2188"/><rect fill="#FEFECE" height="2" style="stroke:#A80036;stroke-width:1.5;" width="4" x="446.3106" y="89.2188"/><rect fill="#FEFECE" height="2" style="stroke:#A80036;stroke-width:1.5;" width="4" x="446.3106" y="93.2188"/><text fill="#000000" font-family="sans-serif" font-size="14" lengthAdjust="spacing" textLength="133" x="310.3106" y="116.752">Frontend (typescript)</text><!--MD5=[93a731d9655d31a24a7a13887cfdd628]
entity https--><ellipse cx="250.8106" cy="220.2188" fill="#FEFECE" filter="url(#f138vc8uqjuj4x)" rx="8" ry="8" style="stroke:#A80036;stroke-width:1.5;"/><text fill="#000000" font-family="sans-serif" font-size="14" lengthAdjust="spacing" textLength="31" x="235.3106" y="251.752">https</text><!--MD5=[f78c3adc0b73acf5893e8ec844534f5d]
link https to rests--><path d="M250.8106,229.5988 C250.8106,254.1188 250.8106,325.8888 250.8106,355.8388 " fill="none" id="https-to-rests" style="stroke:#A80036;stroke-width:1.0;stroke-dasharray:7.0,7.0;"/><polygon fill="#A80036" points="250.8106,360.9288,254.8106,351.9288,250.8106,355.9288,246.8106,351.9288,250.8106,360.9288" style="stroke:#A80036;stroke-width:1.0;"/><!--MD5=[8d45f5408524737026eb0a7b32a86bcf]
link backend to rests--><path d="M206.6506,370.2188 C218.2606,370.2188 229.8806,370.2188 241.4906,370.2188 " fill="none" id="backend-rests" style="stroke:#A80036;stroke-width:1.0;"/><!--MD5=[2a06e0688a6ed1cf38819e67b0547710]
link restc to https--><path d="M250.8106,115.2688 C250.8106,134.3087 250.8106,182.2487 250.8106,205.7788 " fill="none" id="restc-to-https" style="stroke:#A80036;stroke-width:1.0;stroke-dasharray:7.0,7.0;"/><polygon fill="#A80036" points="250.8106,210.9388,254.8106,201.9388,250.8106,205.9388,246.8106,201.9388,250.8106,210.9388" style="stroke:#A80036;stroke-width:1.0;"/><!--MD5=[b7bfad82c8c4a49fd49c4966dfacb1dd]
link restc to frontend--><path d="M260.0206,106.2188 C271.7606,106.2188 283.4906,106.2188 295.2306,106.2188 " fill="none" id="restc-frontend" style="stroke:#A80036;stroke-width:1.0;"/><!--MD5=[81e23fe6c51082ed0251abda38ebc23d]
@startuml SystemOverview
header overview
title wEBcMD system parts
cloud Server {
	package "Docker container"{
		() "REST-Api" as rests
		[Backend (dotnet)] as backend
	}
}
node Browser {
	() "REST-Api" as restc
	[Frontend (typescript)] as frontend
}
https ..> rests
backend - rests
restc ..> https
restc - frontend
@enduml

PlantUML version 1.2021.10(Mon Aug 30 15:43:48 CEST 2021)
(GPL source distribution)
Java Runtime: Java(TM) SE Runtime Environment
JVM: Java HotSpot(TM) Client VM
Default Encoding: Cp1252
Language: de
Country: CH
--></g></svg>