<?xml version="1.0" encoding="UTF-8" standalone="no"?><svg xmlns="http://www.w3.org/2000/svg" xmlns:xlink="http://www.w3.org/1999/xlink" contentScriptType="application/ecmascript" contentStyleType="text/css" height="479px" preserveAspectRatio="none" style="width:1379px;height:479px;background:#FFFFFF;" version="1.1" viewBox="0 0 1379 479" width="1379px" zoomAndPan="magnify"><defs><filter height="300%" id="fgpytjxc9v7za" width="300%" x="-1" y="-1"><feGaussianBlur result="blurOut" stdDeviation="2.0"/><feColorMatrix in="blurOut" result="blurOut2" type="matrix" values="0 0 0 0 0 0 0 0 0 0 0 0 0 0 0 0 0 0 .4 0"/><feOffset dx="4.0" dy="4.0" in="blurOut2" result="blurOut3"/><feBlend in="SourceGraphic" in2="blurOut3" mode="normal"/></filter></defs><g><!--MD5=[a5d4fcdae0bd58dbfa0890c54d6b74e5]
class AdressDTO--><rect codeLine="1" fill="#FEFECE" filter="url(#fgpytjxc9v7za)" height="48" id="AdressDTO" style="stroke:#A80036;stroke-width:1.5;" width="96" x="853.5" y="309"/><ellipse cx="868.5" cy="325" fill="#ADD1B2" rx="11" ry="11" style="stroke:#A80036;stroke-width:1.0;"/><path d="M871.2656,320.875 Q871.4219,320.6563 871.6094,320.5469 Q871.7969,320.4375 872.0156,320.4375 Q872.3906,320.4375 872.625,320.6953 Q872.8594,320.9531 872.8594,321.5625 L872.8594,323.0156 Q872.8594,323.625 872.625,323.8906 Q872.3906,324.1563 872.0156,324.1563 Q871.6719,324.1563 871.4688,323.9531 Q871.2656,323.7656 871.1563,323.25 Q871.1094,322.8906 870.9219,322.7031 Q870.5938,322.3281 869.9844,322.1094 Q869.375,321.8906 868.75,321.8906 Q867.9844,321.8906 867.3516,322.2188 Q866.7188,322.5469 866.2266,323.2969 Q865.7344,324.0469 865.7344,325.0781 L865.7344,326.1719 Q865.7344,327.4063 866.625,328.2266 Q867.5156,329.0469 869.1094,329.0469 Q870.0469,329.0469 870.7031,328.7969 Q871.0938,328.6406 871.5156,328.2031 Q871.7813,327.9375 871.9297,327.8594 Q872.0781,327.7813 872.2813,327.7813 Q872.6094,327.7813 872.8672,328.0391 Q873.125,328.2969 873.125,328.6406 Q873.125,328.9844 872.7813,329.3906 Q872.2813,329.9688 871.4844,330.2969 Q870.4063,330.75 869.1094,330.75 Q867.5938,330.75 866.3906,330.125 Q865.4063,329.625 864.7188,328.5547 Q864.0313,327.4844 864.0313,326.2031 L864.0313,325.0469 Q864.0313,323.7188 864.6484,322.5703 Q865.2656,321.4219 866.3594,320.8047 Q867.4531,320.1875 868.6875,320.1875 Q869.4219,320.1875 870.0703,320.3516 Q870.7188,320.5156 871.2656,320.875 Z " fill="#000000"/><text fill="#000000" font-family="sans-serif" font-size="12" lengthAdjust="spacing" textLength="64" x="882.5" y="329.9102">AdressDTO</text><line style="stroke:#A80036;stroke-width:1.5;" x1="854.5" x2="948.5" y1="341" y2="341"/><line style="stroke:#A80036;stroke-width:1.5;" x1="854.5" x2="948.5" y1="349" y2="349"/><!--MD5=[b322aadbb9d3c478d9706c2cbb9a3ac5]
class FindAdressesWrapper--><rect codeLine="3" fill="#FEFECE" filter="url(#fgpytjxc9v7za)" height="111.5313" id="FindAdressesWrapper" style="stroke:#A80036;stroke-width:1.5;" width="283" x="961" y="137"/><ellipse cx="1036.25" cy="157.0938" fill="#ADD1B2" rx="11" ry="11" style="stroke:#A80036;stroke-width:1.0;"/><path d="M1039.0156,152.9688 Q1039.1719,152.75 1039.3594,152.6406 Q1039.5469,152.5313 1039.7656,152.5313 Q1040.1406,152.5313 1040.375,152.7891 Q1040.6094,153.0469 1040.6094,153.6563 L1040.6094,155.1094 Q1040.6094,155.7188 1040.375,155.9844 Q1040.1406,156.25 1039.7656,156.25 Q1039.4219,156.25 1039.2188,156.0469 Q1039.0156,155.8594 1038.9063,155.3438 Q1038.8594,154.9844 1038.6719,154.7969 Q1038.3438,154.4219 1037.7344,154.2031 Q1037.125,153.9844 1036.5,153.9844 Q1035.7344,153.9844 1035.1016,154.3125 Q1034.4688,154.6406 1033.9766,155.3906 Q1033.4844,156.1406 1033.4844,157.1719 L1033.4844,158.2656 Q1033.4844,159.5 1034.375,160.3203 Q1035.2656,161.1406 1036.8594,161.1406 Q1037.7969,161.1406 1038.4531,160.8906 Q1038.8438,160.7344 1039.2656,160.2969 Q1039.5313,160.0313 1039.6797,159.9531 Q1039.8281,159.875 1040.0313,159.875 Q1040.3594,159.875 1040.6172,160.1328 Q1040.875,160.3906 1040.875,160.7344 Q1040.875,161.0781 1040.5313,161.4844 Q1040.0313,162.0625 1039.2344,162.3906 Q1038.1563,162.8438 1036.8594,162.8438 Q1035.3438,162.8438 1034.1406,162.2188 Q1033.1563,161.7188 1032.4688,160.6484 Q1031.7813,159.5781 1031.7813,158.2969 L1031.7813,157.1406 Q1031.7813,155.8125 1032.3984,154.6641 Q1033.0156,153.5156 1034.1094,152.8984 Q1035.2031,152.2813 1036.4375,152.2813 Q1037.1719,152.2813 1037.8203,152.4453 Q1038.4688,152.6094 1039.0156,152.9688 Z " fill="#000000"/><text fill="#000000" font-family="sans-serif" font-size="12" font-style="italic" lengthAdjust="spacing" textLength="48" x="1094.75" y="154.457">«partial»</text><text fill="#000000" font-family="sans-serif" font-size="12" lengthAdjust="spacing" textLength="124" x="1056.75" y="169.5508">FindAdressesWrapper</text><line style="stroke:#A80036;stroke-width:1.5;" x1="962" x2="1243" y1="177.1875" y2="177.1875"/><line style="stroke:#A80036;stroke-width:1.5;" x1="962" x2="1243" y1="185.1875" y2="185.1875"/><ellipse cx="972" cy="196.1875" fill="#84BE84" rx="3" ry="3" style="stroke:#038048;stroke-width:1.0;"/><text fill="#000000" font-family="sans-serif" font-size="11" lengthAdjust="spacing" textLength="204" x="981" y="200.6064">FindAdressesWrapper(dto:CommandDTO)</text><ellipse cx="972" cy="210.0234" fill="#84BE84" rx="3" ry="3" style="stroke:#038048;stroke-width:1.0;"/><text fill="#000000" font-family="sans-serif" font-size="11" lengthAdjust="spacing" text-decoration="underline" textLength="161" x="981" y="214.4424">IsForMe(dto:CommandDTO) : bool</text><ellipse cx="972" cy="223.8594" fill="#84BE84" rx="3" ry="3" style="stroke:#038048;stroke-width:1.0;"/><text fill="#000000" font-family="sans-serif" font-size="11" lengthAdjust="spacing" text-decoration="underline" textLength="257" x="981" y="228.2783">ExecuteCommand(dto:CommandDTO) : CommandDTO</text><ellipse cx="972" cy="237.6953" fill="#84BE84" rx="3" ry="3" style="stroke:#038048;stroke-width:1.0;"/><text fill="#000000" font-family="sans-serif" font-size="11" lengthAdjust="spacing" textLength="215" x="981" y="242.1143">«partial» ExecuteCommand() : CommandDTO</text><!--MD5=[6e19dd62a802d136f77541c9a65b5007]
class GetAdressWrapper--><rect codeLine="9" fill="#FEFECE" filter="url(#fgpytjxc9v7za)" height="111.5313" id="GetAdressWrapper" style="stroke:#A80036;stroke-width:1.5;" width="283" x="325" y="137"/><ellipse cx="409.75" cy="157.0938" fill="#ADD1B2" rx="11" ry="11" style="stroke:#A80036;stroke-width:1.0;"/><path d="M412.5156,152.9688 Q412.6719,152.75 412.8594,152.6406 Q413.0469,152.5313 413.2656,152.5313 Q413.6406,152.5313 413.875,152.7891 Q414.1094,153.0469 414.1094,153.6563 L414.1094,155.1094 Q414.1094,155.7188 413.875,155.9844 Q413.6406,156.25 413.2656,156.25 Q412.9219,156.25 412.7188,156.0469 Q412.5156,155.8594 412.4063,155.3438 Q412.3594,154.9844 412.1719,154.7969 Q411.8438,154.4219 411.2344,154.2031 Q410.625,153.9844 410,153.9844 Q409.2344,153.9844 408.6016,154.3125 Q407.9688,154.6406 407.4766,155.3906 Q406.9844,156.1406 406.9844,157.1719 L406.9844,158.2656 Q406.9844,159.5 407.875,160.3203 Q408.7656,161.1406 410.3594,161.1406 Q411.2969,161.1406 411.9531,160.8906 Q412.3438,160.7344 412.7656,160.2969 Q413.0313,160.0313 413.1797,159.9531 Q413.3281,159.875 413.5313,159.875 Q413.8594,159.875 414.1172,160.1328 Q414.375,160.3906 414.375,160.7344 Q414.375,161.0781 414.0313,161.4844 Q413.5313,162.0625 412.7344,162.3906 Q411.6563,162.8438 410.3594,162.8438 Q408.8438,162.8438 407.6406,162.2188 Q406.6563,161.7188 405.9688,160.6484 Q405.2813,159.5781 405.2813,158.2969 L405.2813,157.1406 Q405.2813,155.8125 405.8984,154.6641 Q406.5156,153.5156 407.6094,152.8984 Q408.7031,152.2813 409.9375,152.2813 Q410.6719,152.2813 411.3203,152.4453 Q411.9688,152.6094 412.5156,152.9688 Z " fill="#000000"/><text fill="#000000" font-family="sans-serif" font-size="12" font-style="italic" lengthAdjust="spacing" textLength="48" x="458.75" y="154.457">«partial»</text><text fill="#000000" font-family="sans-serif" font-size="12" lengthAdjust="spacing" textLength="105" x="430.25" y="169.5508">GetAdressWrapper</text><line style="stroke:#A80036;stroke-width:1.5;" x1="326" x2="607" y1="177.1875" y2="177.1875"/><line style="stroke:#A80036;stroke-width:1.5;" x1="326" x2="607" y1="185.1875" y2="185.1875"/><ellipse cx="336" cy="196.1875" fill="#84BE84" rx="3" ry="3" style="stroke:#038048;stroke-width:1.0;"/><text fill="#000000" font-family="sans-serif" font-size="11" lengthAdjust="spacing" textLength="189" x="345" y="200.6064">GetAdressWrapper(dto:CommandDTO)</text><ellipse cx="336" cy="210.0234" fill="#84BE84" rx="3" ry="3" style="stroke:#038048;stroke-width:1.0;"/><text fill="#000000" font-family="sans-serif" font-size="11" lengthAdjust="spacing" text-decoration="underline" textLength="161" x="345" y="214.4424">IsForMe(dto:CommandDTO) : bool</text><ellipse cx="336" cy="223.8594" fill="#84BE84" rx="3" ry="3" style="stroke:#038048;stroke-width:1.0;"/><text fill="#000000" font-family="sans-serif" font-size="11" lengthAdjust="spacing" text-decoration="underline" textLength="257" x="345" y="228.2783">ExecuteCommand(dto:CommandDTO) : CommandDTO</text><ellipse cx="336" cy="237.6953" fill="#84BE84" rx="3" ry="3" style="stroke:#038048;stroke-width:1.0;"/><text fill="#000000" font-family="sans-serif" font-size="11" lengthAdjust="spacing" textLength="215" x="345" y="242.1143">«partial» ExecuteCommand() : CommandDTO</text><!--MD5=[d7ea2e2e46638f75b2cef309ef62bd52]
class SetAdressWrapper--><rect codeLine="15" fill="#FEFECE" filter="url(#fgpytjxc9v7za)" height="111.5313" id="SetAdressWrapper" style="stroke:#A80036;stroke-width:1.5;" width="283" x="643" y="137"/><ellipse cx="728.25" cy="157.0938" fill="#ADD1B2" rx="11" ry="11" style="stroke:#A80036;stroke-width:1.0;"/><path d="M731.0156,152.9688 Q731.1719,152.75 731.3594,152.6406 Q731.5469,152.5313 731.7656,152.5313 Q732.1406,152.5313 732.375,152.7891 Q732.6094,153.0469 732.6094,153.6563 L732.6094,155.1094 Q732.6094,155.7188 732.375,155.9844 Q732.1406,156.25 731.7656,156.25 Q731.4219,156.25 731.2188,156.0469 Q731.0156,155.8594 730.9063,155.3438 Q730.8594,154.9844 730.6719,154.7969 Q730.3438,154.4219 729.7344,154.2031 Q729.125,153.9844 728.5,153.9844 Q727.7344,153.9844 727.1016,154.3125 Q726.4688,154.6406 725.9766,155.3906 Q725.4844,156.1406 725.4844,157.1719 L725.4844,158.2656 Q725.4844,159.5 726.375,160.3203 Q727.2656,161.1406 728.8594,161.1406 Q729.7969,161.1406 730.4531,160.8906 Q730.8438,160.7344 731.2656,160.2969 Q731.5313,160.0313 731.6797,159.9531 Q731.8281,159.875 732.0313,159.875 Q732.3594,159.875 732.6172,160.1328 Q732.875,160.3906 732.875,160.7344 Q732.875,161.0781 732.5313,161.4844 Q732.0313,162.0625 731.2344,162.3906 Q730.1563,162.8438 728.8594,162.8438 Q727.3438,162.8438 726.1406,162.2188 Q725.1563,161.7188 724.4688,160.6484 Q723.7813,159.5781 723.7813,158.2969 L723.7813,157.1406 Q723.7813,155.8125 724.3984,154.6641 Q725.0156,153.5156 726.1094,152.8984 Q727.2031,152.2813 728.4375,152.2813 Q729.1719,152.2813 729.8203,152.4453 Q730.4688,152.6094 731.0156,152.9688 Z " fill="#000000"/><text fill="#000000" font-family="sans-serif" font-size="12" font-style="italic" lengthAdjust="spacing" textLength="48" x="776.75" y="154.457">«partial»</text><text fill="#000000" font-family="sans-serif" font-size="12" lengthAdjust="spacing" textLength="104" x="748.75" y="169.5508">SetAdressWrapper</text><line style="stroke:#A80036;stroke-width:1.5;" x1="644" x2="925" y1="177.1875" y2="177.1875"/><line style="stroke:#A80036;stroke-width:1.5;" x1="644" x2="925" y1="185.1875" y2="185.1875"/><ellipse cx="654" cy="196.1875" fill="#84BE84" rx="3" ry="3" style="stroke:#038048;stroke-width:1.0;"/><text fill="#000000" font-family="sans-serif" font-size="11" lengthAdjust="spacing" textLength="188" x="663" y="200.6064">SetAdressWrapper(dto:CommandDTO)</text><ellipse cx="654" cy="210.0234" fill="#84BE84" rx="3" ry="3" style="stroke:#038048;stroke-width:1.0;"/><text fill="#000000" font-family="sans-serif" font-size="11" lengthAdjust="spacing" text-decoration="underline" textLength="161" x="663" y="214.4424">IsForMe(dto:CommandDTO) : bool</text><ellipse cx="654" cy="223.8594" fill="#84BE84" rx="3" ry="3" style="stroke:#038048;stroke-width:1.0;"/><text fill="#000000" font-family="sans-serif" font-size="11" lengthAdjust="spacing" text-decoration="underline" textLength="257" x="663" y="228.2783">ExecuteCommand(dto:CommandDTO) : CommandDTO</text><ellipse cx="654" cy="237.6953" fill="#84BE84" rx="3" ry="3" style="stroke:#038048;stroke-width:1.0;"/><text fill="#000000" font-family="sans-serif" font-size="11" lengthAdjust="spacing" textLength="215" x="663" y="242.1143">«partial» ExecuteCommand() : CommandDTO</text><!--MD5=[e9948f5ac33029c6d753e81ae40d62cf]
class DeleteAdressWrapper--><rect codeLine="21" fill="#FEFECE" filter="url(#fgpytjxc9v7za)" height="111.5313" id="DeleteAdressWrapper" style="stroke:#A80036;stroke-width:1.5;" width="283" x="7" y="137"/><ellipse cx="83.25" cy="157.0938" fill="#ADD1B2" rx="11" ry="11" style="stroke:#A80036;stroke-width:1.0;"/><path d="M86.0156,152.9688 Q86.1719,152.75 86.3594,152.6406 Q86.5469,152.5313 86.7656,152.5313 Q87.1406,152.5313 87.375,152.7891 Q87.6094,153.0469 87.6094,153.6563 L87.6094,155.1094 Q87.6094,155.7188 87.375,155.9844 Q87.1406,156.25 86.7656,156.25 Q86.4219,156.25 86.2188,156.0469 Q86.0156,155.8594 85.9063,155.3438 Q85.8594,154.9844 85.6719,154.7969 Q85.3438,154.4219 84.7344,154.2031 Q84.125,153.9844 83.5,153.9844 Q82.7344,153.9844 82.1016,154.3125 Q81.4688,154.6406 80.9766,155.3906 Q80.4844,156.1406 80.4844,157.1719 L80.4844,158.2656 Q80.4844,159.5 81.375,160.3203 Q82.2656,161.1406 83.8594,161.1406 Q84.7969,161.1406 85.4531,160.8906 Q85.8438,160.7344 86.2656,160.2969 Q86.5313,160.0313 86.6797,159.9531 Q86.8281,159.875 87.0313,159.875 Q87.3594,159.875 87.6172,160.1328 Q87.875,160.3906 87.875,160.7344 Q87.875,161.0781 87.5313,161.4844 Q87.0313,162.0625 86.2344,162.3906 Q85.1563,162.8438 83.8594,162.8438 Q82.3438,162.8438 81.1406,162.2188 Q80.1563,161.7188 79.4688,160.6484 Q78.7813,159.5781 78.7813,158.2969 L78.7813,157.1406 Q78.7813,155.8125 79.3984,154.6641 Q80.0156,153.5156 81.1094,152.8984 Q82.2031,152.2813 83.4375,152.2813 Q84.1719,152.2813 84.8203,152.4453 Q85.4688,152.6094 86.0156,152.9688 Z " fill="#000000"/><text fill="#000000" font-family="sans-serif" font-size="12" font-style="italic" lengthAdjust="spacing" textLength="48" x="140.75" y="154.457">«partial»</text><text fill="#000000" font-family="sans-serif" font-size="12" lengthAdjust="spacing" textLength="122" x="103.75" y="169.5508">DeleteAdressWrapper</text><line style="stroke:#A80036;stroke-width:1.5;" x1="8" x2="289" y1="177.1875" y2="177.1875"/><line style="stroke:#A80036;stroke-width:1.5;" x1="8" x2="289" y1="185.1875" y2="185.1875"/><ellipse cx="18" cy="196.1875" fill="#84BE84" rx="3" ry="3" style="stroke:#038048;stroke-width:1.0;"/><text fill="#000000" font-family="sans-serif" font-size="11" lengthAdjust="spacing" textLength="202" x="27" y="200.6064">DeleteAdressWrapper(dto:CommandDTO)</text><ellipse cx="18" cy="210.0234" fill="#84BE84" rx="3" ry="3" style="stroke:#038048;stroke-width:1.0;"/><text fill="#000000" font-family="sans-serif" font-size="11" lengthAdjust="spacing" text-decoration="underline" textLength="161" x="27" y="214.4424">IsForMe(dto:CommandDTO) : bool</text><ellipse cx="18" cy="223.8594" fill="#84BE84" rx="3" ry="3" style="stroke:#038048;stroke-width:1.0;"/><text fill="#000000" font-family="sans-serif" font-size="11" lengthAdjust="spacing" text-decoration="underline" textLength="257" x="27" y="228.2783">ExecuteCommand(dto:CommandDTO) : CommandDTO</text><ellipse cx="18" cy="237.6953" fill="#84BE84" rx="3" ry="3" style="stroke:#038048;stroke-width:1.0;"/><text fill="#000000" font-family="sans-serif" font-size="11" lengthAdjust="spacing" textLength="215" x="27" y="242.1143">«partial» ExecuteCommand() : CommandDTO</text><!--MD5=[9445adbca05695301a39cf2527b3960a]
class AdressTypesDispatcher--><rect codeLine="27" fill="#FEFECE" filter="url(#fgpytjxc9v7za)" height="70.0234" id="AdressTypesDispatcher" style="stroke:#A80036;stroke-width:1.5;" width="239" x="730" y="7"/><ellipse cx="779.25" cy="27.0938" fill="#ADD1B2" rx="11" ry="11" style="stroke:#A80036;stroke-width:1.0;"/><path d="M782.0156,22.9688 Q782.1719,22.75 782.3594,22.6406 Q782.5469,22.5313 782.7656,22.5313 Q783.1406,22.5313 783.375,22.7891 Q783.6094,23.0469 783.6094,23.6563 L783.6094,25.1094 Q783.6094,25.7188 783.375,25.9844 Q783.1406,26.25 782.7656,26.25 Q782.4219,26.25 782.2188,26.0469 Q782.0156,25.8594 781.9063,25.3438 Q781.8594,24.9844 781.6719,24.7969 Q781.3438,24.4219 780.7344,24.2031 Q780.125,23.9844 779.5,23.9844 Q778.7344,23.9844 778.1016,24.3125 Q777.4688,24.6406 776.9766,25.3906 Q776.4844,26.1406 776.4844,27.1719 L776.4844,28.2656 Q776.4844,29.5 777.375,30.3203 Q778.2656,31.1406 779.8594,31.1406 Q780.7969,31.1406 781.4531,30.8906 Q781.8438,30.7344 782.2656,30.2969 Q782.5313,30.0313 782.6797,29.9531 Q782.8281,29.875 783.0313,29.875 Q783.3594,29.875 783.6172,30.1328 Q783.875,30.3906 783.875,30.7344 Q783.875,31.0781 783.5313,31.4844 Q783.0313,32.0625 782.2344,32.3906 Q781.1563,32.8438 779.8594,32.8438 Q778.3438,32.8438 777.1406,32.2188 Q776.1563,31.7188 775.4688,30.6484 Q774.7813,29.5781 774.7813,28.2969 L774.7813,27.1406 Q774.7813,25.8125 775.3984,24.6641 Q776.0156,23.5156 777.1094,22.8984 Q778.2031,22.2813 779.4375,22.2813 Q780.1719,22.2813 780.8203,22.4453 Q781.4688,22.6094 782.0156,22.9688 Z " fill="#000000"/><text fill="#000000" font-family="sans-serif" font-size="12" font-style="italic" lengthAdjust="spacing" textLength="42" x="844.75" y="24.457">«static»</text><text fill="#000000" font-family="sans-serif" font-size="12" lengthAdjust="spacing" textLength="132" x="799.75" y="39.5508">AdressTypesDispatcher</text><line style="stroke:#A80036;stroke-width:1.5;" x1="731" x2="968" y1="47.1875" y2="47.1875"/><line style="stroke:#A80036;stroke-width:1.5;" x1="731" x2="968" y1="55.1875" y2="55.1875"/><ellipse cx="741" cy="66.1875" fill="#84BE84" rx="3" ry="3" style="stroke:#038048;stroke-width:1.0;"/><text fill="#000000" font-family="sans-serif" font-size="11" lengthAdjust="spacing" text-decoration="underline" textLength="213" x="750" y="70.6064">Dispatch(dto:CommandDTO) : CommandDTO</text><!--MD5=[e644022de7dea015dd09463c37421447]
class List`1--><rect codeLine="30" fill="#FEFECE" filter="url(#fgpytjxc9v7za)" height="48" id="List`1" style="stroke:#A80036;stroke-width:1.5;" width="74" x="984.5" y="309"/><ellipse cx="999.5" cy="325" fill="#ADD1B2" rx="11" ry="11" style="stroke:#A80036;stroke-width:1.0;"/><path d="M1002.2656,320.875 Q1002.4219,320.6563 1002.6094,320.5469 Q1002.7969,320.4375 1003.0156,320.4375 Q1003.3906,320.4375 1003.625,320.6953 Q1003.8594,320.9531 1003.8594,321.5625 L1003.8594,323.0156 Q1003.8594,323.625 1003.625,323.8906 Q1003.3906,324.1563 1003.0156,324.1563 Q1002.6719,324.1563 1002.4688,323.9531 Q1002.2656,323.7656 1002.1563,323.25 Q1002.1094,322.8906 1001.9219,322.7031 Q1001.5938,322.3281 1000.9844,322.1094 Q1000.375,321.8906 999.75,321.8906 Q998.9844,321.8906 998.3516,322.2188 Q997.7188,322.5469 997.2266,323.2969 Q996.7344,324.0469 996.7344,325.0781 L996.7344,326.1719 Q996.7344,327.4063 997.625,328.2266 Q998.5156,329.0469 1000.1094,329.0469 Q1001.0469,329.0469 1001.7031,328.7969 Q1002.0938,328.6406 1002.5156,328.2031 Q1002.7813,327.9375 1002.9297,327.8594 Q1003.0781,327.7813 1003.2813,327.7813 Q1003.6094,327.7813 1003.8672,328.0391 Q1004.125,328.2969 1004.125,328.6406 Q1004.125,328.9844 1003.7813,329.3906 Q1003.2813,329.9688 1002.4844,330.2969 Q1001.4063,330.75 1000.1094,330.75 Q998.5938,330.75 997.3906,330.125 Q996.4063,329.625 995.7188,328.5547 Q995.0313,327.4844 995.0313,326.2031 L995.0313,325.0469 Q995.0313,323.7188 995.6484,322.5703 Q996.2656,321.4219 997.3594,320.8047 Q998.4531,320.1875 999.6875,320.1875 Q1000.4219,320.1875 1001.0703,320.3516 Q1001.7188,320.5156 1002.2656,320.875 Z " fill="#000000"/><text fill="#000000" font-family="sans-serif" font-size="12" lengthAdjust="spacing" textLength="31" x="1013.5" y="329.9102">List`1</text><rect fill="#FFFFFF" height="17.0938" style="stroke:#000000;stroke-width:1.0;stroke-dasharray:2.0,2.0;" width="9" x="1052.5" y="306"/><text fill="#000000" font-family="sans-serif" font-size="12" font-style="italic" lengthAdjust="spacing" textLength="7" x="1053.5" y="319.457">T</text><line style="stroke:#A80036;stroke-width:1.5;" x1="985.5" x2="1057.5" y1="341" y2="341"/><line style="stroke:#A80036;stroke-width:1.5;" x1="985.5" x2="1057.5" y1="349" y2="349"/><!--MD5=[6b1d3384926f1bc892ee196bbd0d7fce]
class BaseDTO--><rect fill="#FEFECE" filter="url(#fgpytjxc9v7za)" height="48" id="BaseDTO" style="stroke:#A80036;stroke-width:1.5;" width="86" x="1279.5" y="169"/><ellipse cx="1294.5" cy="185" fill="#ADD1B2" rx="11" ry="11" style="stroke:#A80036;stroke-width:1.0;"/><path d="M1297.2656,180.875 Q1297.4219,180.6563 1297.6094,180.5469 Q1297.7969,180.4375 1298.0156,180.4375 Q1298.3906,180.4375 1298.625,180.6953 Q1298.8594,180.9531 1298.8594,181.5625 L1298.8594,183.0156 Q1298.8594,183.625 1298.625,183.8906 Q1298.3906,184.1563 1298.0156,184.1563 Q1297.6719,184.1563 1297.4688,183.9531 Q1297.2656,183.7656 1297.1563,183.25 Q1297.1094,182.8906 1296.9219,182.7031 Q1296.5938,182.3281 1295.9844,182.1094 Q1295.375,181.8906 1294.75,181.8906 Q1293.9844,181.8906 1293.3516,182.2188 Q1292.7188,182.5469 1292.2266,183.2969 Q1291.7344,184.0469 1291.7344,185.0781 L1291.7344,186.1719 Q1291.7344,187.4063 1292.625,188.2266 Q1293.5156,189.0469 1295.1094,189.0469 Q1296.0469,189.0469 1296.7031,188.7969 Q1297.0938,188.6406 1297.5156,188.2031 Q1297.7813,187.9375 1297.9297,187.8594 Q1298.0781,187.7813 1298.2813,187.7813 Q1298.6094,187.7813 1298.8672,188.0391 Q1299.125,188.2969 1299.125,188.6406 Q1299.125,188.9844 1298.7813,189.3906 Q1298.2813,189.9688 1297.4844,190.2969 Q1296.4063,190.75 1295.1094,190.75 Q1293.5938,190.75 1292.3906,190.125 Q1291.4063,189.625 1290.7188,188.5547 Q1290.0313,187.4844 1290.0313,186.2031 L1290.0313,185.0469 Q1290.0313,183.7188 1290.6484,182.5703 Q1291.2656,181.4219 1292.3594,180.8047 Q1293.4531,180.1875 1294.6875,180.1875 Q1295.4219,180.1875 1296.0703,180.3516 Q1296.7188,180.5156 1297.2656,180.875 Z " fill="#000000"/><text fill="#000000" font-family="sans-serif" font-size="12" lengthAdjust="spacing" textLength="54" x="1308.5" y="189.9102">BaseDTO</text><line style="stroke:#A80036;stroke-width:1.5;" x1="1280.5" x2="1364.5" y1="201" y2="201"/><line style="stroke:#A80036;stroke-width:1.5;" x1="1280.5" x2="1364.5" y1="209" y2="209"/><!--MD5=[b9f3d2915b6b8d0c143f32ccec3f745e]
class Guid--><rect fill="#FEFECE" filter="url(#fgpytjxc9v7za)" height="48" id="Guid" style="stroke:#A80036;stroke-width:1.5;" width="58" x="555.5" y="417"/><ellipse cx="570.5" cy="433" fill="#ADD1B2" rx="11" ry="11" style="stroke:#A80036;stroke-width:1.0;"/><path d="M573.2656,428.875 Q573.4219,428.6563 573.6094,428.5469 Q573.7969,428.4375 574.0156,428.4375 Q574.3906,428.4375 574.625,428.6953 Q574.8594,428.9531 574.8594,429.5625 L574.8594,431.0156 Q574.8594,431.625 574.625,431.8906 Q574.3906,432.1563 574.0156,432.1563 Q573.6719,432.1563 573.4688,431.9531 Q573.2656,431.7656 573.1563,431.25 Q573.1094,430.8906 572.9219,430.7031 Q572.5938,430.3281 571.9844,430.1094 Q571.375,429.8906 570.75,429.8906 Q569.9844,429.8906 569.3516,430.2188 Q568.7188,430.5469 568.2266,431.2969 Q567.7344,432.0469 567.7344,433.0781 L567.7344,434.1719 Q567.7344,435.4063 568.625,436.2266 Q569.5156,437.0469 571.1094,437.0469 Q572.0469,437.0469 572.7031,436.7969 Q573.0938,436.6406 573.5156,436.2031 Q573.7813,435.9375 573.9297,435.8594 Q574.0781,435.7813 574.2813,435.7813 Q574.6094,435.7813 574.8672,436.0391 Q575.125,436.2969 575.125,436.6406 Q575.125,436.9844 574.7813,437.3906 Q574.2813,437.9688 573.4844,438.2969 Q572.4063,438.75 571.1094,438.75 Q569.5938,438.75 568.3906,438.125 Q567.4063,437.625 566.7188,436.5547 Q566.0313,435.4844 566.0313,434.2031 L566.0313,433.0469 Q566.0313,431.7188 566.6484,430.5703 Q567.2656,429.4219 568.3594,428.8047 Q569.4531,428.1875 570.6875,428.1875 Q571.4219,428.1875 572.0703,428.3516 Q572.7188,428.5156 573.2656,428.875 Z " fill="#000000"/><text fill="#000000" font-family="sans-serif" font-size="12" lengthAdjust="spacing" textLength="26" x="584.5" y="437.9102">Guid</text><line style="stroke:#A80036;stroke-width:1.5;" x1="556.5" x2="612.5" y1="449" y2="449"/><line style="stroke:#A80036;stroke-width:1.5;" x1="556.5" x2="612.5" y1="457" y2="457"/><!--MD5=[9df70cf33be424c1b8543b3f439cae89]
class String--><rect fill="#FEFECE" filter="url(#fgpytjxc9v7za)" height="48" id="String" style="stroke:#A80036;stroke-width:1.5;" width="64" x="869.5" y="417"/><ellipse cx="884.5" cy="433" fill="#ADD1B2" rx="11" ry="11" style="stroke:#A80036;stroke-width:1.0;"/><path d="M887.2656,428.875 Q887.4219,428.6563 887.6094,428.5469 Q887.7969,428.4375 888.0156,428.4375 Q888.3906,428.4375 888.625,428.6953 Q888.8594,428.9531 888.8594,429.5625 L888.8594,431.0156 Q888.8594,431.625 888.625,431.8906 Q888.3906,432.1563 888.0156,432.1563 Q887.6719,432.1563 887.4688,431.9531 Q887.2656,431.7656 887.1563,431.25 Q887.1094,430.8906 886.9219,430.7031 Q886.5938,430.3281 885.9844,430.1094 Q885.375,429.8906 884.75,429.8906 Q883.9844,429.8906 883.3516,430.2188 Q882.7188,430.5469 882.2266,431.2969 Q881.7344,432.0469 881.7344,433.0781 L881.7344,434.1719 Q881.7344,435.4063 882.625,436.2266 Q883.5156,437.0469 885.1094,437.0469 Q886.0469,437.0469 886.7031,436.7969 Q887.0938,436.6406 887.5156,436.2031 Q887.7813,435.9375 887.9297,435.8594 Q888.0781,435.7813 888.2813,435.7813 Q888.6094,435.7813 888.8672,436.0391 Q889.125,436.2969 889.125,436.6406 Q889.125,436.9844 888.7813,437.3906 Q888.2813,437.9688 887.4844,438.2969 Q886.4063,438.75 885.1094,438.75 Q883.5938,438.75 882.3906,438.125 Q881.4063,437.625 880.7188,436.5547 Q880.0313,435.4844 880.0313,434.2031 L880.0313,433.0469 Q880.0313,431.7188 880.6484,430.5703 Q881.2656,429.4219 882.3594,428.8047 Q883.4531,428.1875 884.6875,428.1875 Q885.4219,428.1875 886.0703,428.3516 Q886.7188,428.5156 887.2656,428.875 Z " fill="#000000"/><text fill="#000000" font-family="sans-serif" font-size="12" lengthAdjust="spacing" textLength="32" x="898.5" y="437.9102">String</text><line style="stroke:#A80036;stroke-width:1.5;" x1="870.5" x2="932.5" y1="449" y2="449"/><line style="stroke:#A80036;stroke-width:1.5;" x1="870.5" x2="932.5" y1="457" y2="457"/><!--MD5=[fe6b2754769bc87cf156126798433078]
class CommandWrapper--><rect fill="#FEFECE" filter="url(#fgpytjxc9v7za)" height="48" id="CommandWrapper" style="stroke:#A80036;stroke-width:1.5;" width="138" x="556.5" y="18"/><ellipse cx="571.5" cy="34" fill="#ADD1B2" rx="11" ry="11" style="stroke:#A80036;stroke-width:1.0;"/><path d="M574.2656,29.875 Q574.4219,29.6563 574.6094,29.5469 Q574.7969,29.4375 575.0156,29.4375 Q575.3906,29.4375 575.625,29.6953 Q575.8594,29.9531 575.8594,30.5625 L575.8594,32.0156 Q575.8594,32.625 575.625,32.8906 Q575.3906,33.1563 575.0156,33.1563 Q574.6719,33.1563 574.4688,32.9531 Q574.2656,32.7656 574.1563,32.25 Q574.1094,31.8906 573.9219,31.7031 Q573.5938,31.3281 572.9844,31.1094 Q572.375,30.8906 571.75,30.8906 Q570.9844,30.8906 570.3516,31.2188 Q569.7188,31.5469 569.2266,32.2969 Q568.7344,33.0469 568.7344,34.0781 L568.7344,35.1719 Q568.7344,36.4063 569.625,37.2266 Q570.5156,38.0469 572.1094,38.0469 Q573.0469,38.0469 573.7031,37.7969 Q574.0938,37.6406 574.5156,37.2031 Q574.7813,36.9375 574.9297,36.8594 Q575.0781,36.7813 575.2813,36.7813 Q575.6094,36.7813 575.8672,37.0391 Q576.125,37.2969 576.125,37.6406 Q576.125,37.9844 575.7813,38.3906 Q575.2813,38.9688 574.4844,39.2969 Q573.4063,39.75 572.1094,39.75 Q570.5938,39.75 569.3906,39.125 Q568.4063,38.625 567.7188,37.5547 Q567.0313,36.4844 567.0313,35.2031 L567.0313,34.0469 Q567.0313,32.7188 567.6484,31.5703 Q568.2656,30.4219 569.3594,29.8047 Q570.4531,29.1875 571.6875,29.1875 Q572.4219,29.1875 573.0703,29.3516 Q573.7188,29.5156 574.2656,29.875 Z " fill="#000000"/><text fill="#000000" font-family="sans-serif" font-size="12" lengthAdjust="spacing" textLength="106" x="585.5" y="38.9102">CommandWrapper</text><line style="stroke:#A80036;stroke-width:1.5;" x1="557.5" x2="693.5" y1="50" y2="50"/><line style="stroke:#A80036;stroke-width:1.5;" x1="557.5" x2="693.5" y1="58" y2="58"/><!--MD5=[f5d54f60ec6d089d1cb017027d5a65a8]
class CommandDTO--><rect fill="#FEFECE" filter="url(#fgpytjxc9v7za)" height="48" id="CommandDTO" style="stroke:#A80036;stroke-width:1.5;" width="116" x="526.5" y="309"/><ellipse cx="541.5" cy="325" fill="#ADD1B2" rx="11" ry="11" style="stroke:#A80036;stroke-width:1.0;"/><path d="M544.2656,320.875 Q544.4219,320.6563 544.6094,320.5469 Q544.7969,320.4375 545.0156,320.4375 Q545.3906,320.4375 545.625,320.6953 Q545.8594,320.9531 545.8594,321.5625 L545.8594,323.0156 Q545.8594,323.625 545.625,323.8906 Q545.3906,324.1563 545.0156,324.1563 Q544.6719,324.1563 544.4688,323.9531 Q544.2656,323.7656 544.1563,323.25 Q544.1094,322.8906 543.9219,322.7031 Q543.5938,322.3281 542.9844,322.1094 Q542.375,321.8906 541.75,321.8906 Q540.9844,321.8906 540.3516,322.2188 Q539.7188,322.5469 539.2266,323.2969 Q538.7344,324.0469 538.7344,325.0781 L538.7344,326.1719 Q538.7344,327.4063 539.625,328.2266 Q540.5156,329.0469 542.1094,329.0469 Q543.0469,329.0469 543.7031,328.7969 Q544.0938,328.6406 544.5156,328.2031 Q544.7813,327.9375 544.9297,327.8594 Q545.0781,327.7813 545.2813,327.7813 Q545.6094,327.7813 545.8672,328.0391 Q546.125,328.2969 546.125,328.6406 Q546.125,328.9844 545.7813,329.3906 Q545.2813,329.9688 544.4844,330.2969 Q543.4063,330.75 542.1094,330.75 Q540.5938,330.75 539.3906,330.125 Q538.4063,329.625 537.7188,328.5547 Q537.0313,327.4844 537.0313,326.2031 L537.0313,325.0469 Q537.0313,323.7188 537.6484,322.5703 Q538.2656,321.4219 539.3594,320.8047 Q540.4531,320.1875 541.6875,320.1875 Q542.4219,320.1875 543.0703,320.3516 Q543.7188,320.5156 544.2656,320.875 Z " fill="#000000"/><text fill="#000000" font-family="sans-serif" font-size="12" lengthAdjust="spacing" textLength="84" x="555.5" y="329.9102">CommandDTO</text><line style="stroke:#A80036;stroke-width:1.5;" x1="527.5" x2="641.5" y1="341" y2="341"/><line style="stroke:#A80036;stroke-width:1.5;" x1="527.5" x2="641.5" y1="349" y2="349"/><!--MD5=[78563b2dced031dcc99154e54e28d438]
reverse link BaseDTO to AdressDTO--><path codeLine="32" d="M1287.73,231 C1279.69,237.86 1270.77,244.32 1261.5,249 C1142.45,309.1 1096.09,273.64 967.5,309 C961.65,310.61 955.57,312.47 949.57,314.41 " fill="none" id="BaseDTO-backto-AdressDTO" style="stroke:#A80036;stroke-width:1.0;"/><polygon fill="none" points="1282.98,225.86,1302.35,217.27,1292.56,236.06,1282.98,225.86" style="stroke:#A80036;stroke-width:1.0;"/><!--MD5=[fbaf78f1916dfdbf30330f0660ca3284]
link AdressDTO to Guid--><path codeLine="33" d="M853.35,350.1 C788.63,371.74 675.15,409.69 618.57,428.61 " fill="none" id="AdressDTO-to-Guid" style="stroke:#A80036;stroke-width:1.0;"/><polygon fill="#A80036" points="613.61,430.27,623.4139,431.2098,618.352,428.6846,620.8772,423.6226,613.61,430.27" style="stroke:#A80036;stroke-width:1.0;"/><text fill="#000000" font-family="sans-serif" font-size="13" lengthAdjust="spacing" textLength="38" x="621.5782" y="443.3421">TypeId</text><!--MD5=[b2555b513fccde1a3f7f8fb3f3fcdb23]
link AdressDTO to String--><path codeLine="34" d="M853.13,343.97 C809.13,365.93 812.92,417.86 864.5,434.66 " fill="none" id="AdressDTO-to-String" style="stroke:#A80036;stroke-width:1.0;"/><polygon fill="#A80036" points="869.3,436.08,861.8149,429.6789,864.5077,434.6537,859.5329,437.3465,869.3,436.08" style="stroke:#A80036;stroke-width:1.0;"/><text fill="#000000" font-family="sans-serif" font-size="13" lengthAdjust="spacing" textLength="41" x="820.5597" y="431.7033">Name1</text><!--MD5=[b2555b513fccde1a3f7f8fb3f3fcdb23]
link AdressDTO to String--><path codeLine="35" d="M857.33,357 C843.98,378.35 846.67,409.38 865.42,426.82 " fill="none" id="AdressDTO-to-String-1" style="stroke:#A80036;stroke-width:1.0;"/><polygon fill="#A80036" points="869.38,430.12,865.0235,421.287,865.5377,426.9205,859.9043,427.4347,869.38,430.12" style="stroke:#A80036;stroke-width:1.0;"/><text fill="#000000" font-family="sans-serif" font-size="13" lengthAdjust="spacing" textLength="41" x="820.6514" y="443.2179">Name2</text><!--MD5=[b2555b513fccde1a3f7f8fb3f3fcdb23]
link AdressDTO to String--><path codeLine="36" d="M879.42,357 C874.41,373 873.92,394.45 877.93,411.53 " fill="none" id="AdressDTO-to-String-2" style="stroke:#A80036;stroke-width:1.0;"/><polygon fill="#A80036" points="879.32,416.68,880.8355,406.9484,878.0165,411.8529,873.1121,409.034,879.32,416.68" style="stroke:#A80036;stroke-width:1.0;"/><text fill="#000000" font-family="sans-serif" font-size="13" lengthAdjust="spacing" textLength="48" x="820.0636" y="406.34">Adress1</text><!--MD5=[b2555b513fccde1a3f7f8fb3f3fcdb23]
link AdressDTO to String--><path codeLine="37" d="M901.5,357 C901.5,373 901.5,394.45 901.5,411.53 " fill="none" id="AdressDTO-to-String-3" style="stroke:#A80036;stroke-width:1.0;"/><polygon fill="#A80036" points="901.5,416.68,905.5,407.68,901.5,411.68,897.5,407.68,901.5,416.68" style="stroke:#A80036;stroke-width:1.0;"/><text fill="#000000" font-family="sans-serif" font-size="13" lengthAdjust="spacing" textLength="48" x="907.35" y="406.34">Adress2</text><!--MD5=[b2555b513fccde1a3f7f8fb3f3fcdb23]
link AdressDTO to String--><path codeLine="38" d="M923.58,357 C928.59,373 929.08,394.45 925.07,411.53 " fill="none" id="AdressDTO-to-String-4" style="stroke:#A80036;stroke-width:1.0;"/><polygon fill="#A80036" points="923.68,416.68,929.8879,409.034,924.9835,411.8529,922.1645,406.9484,923.68,416.68" style="stroke:#A80036;stroke-width:1.0;"/><text fill="#000000" font-family="sans-serif" font-size="13" lengthAdjust="spacing" textLength="80" x="941.1681" y="425.6346">Housenumber</text><!--MD5=[b2555b513fccde1a3f7f8fb3f3fcdb23]
link AdressDTO to String--><path codeLine="39" d="M945.67,357 C959.02,378.35 956.33,409.38 937.58,426.82 " fill="none" id="AdressDTO-to-String-5" style="stroke:#A80036;stroke-width:1.0;"/><polygon fill="#A80036" points="933.62,430.12,943.0957,427.4347,937.4623,426.9205,937.9765,421.287,933.62,430.12" style="stroke:#A80036;stroke-width:1.0;"/><text fill="#000000" font-family="sans-serif" font-size="13" lengthAdjust="spacing" textLength="23" x="941.3898" y="443.1334">City</text><!--MD5=[b2555b513fccde1a3f7f8fb3f3fcdb23]
link AdressDTO to String--><path codeLine="40" d="M949.87,343.97 C993.87,365.93 990.08,417.86 938.5,434.66 " fill="none" id="AdressDTO-to-String-6" style="stroke:#A80036;stroke-width:1.0;"/><polygon fill="#A80036" points="933.7,436.08,943.4671,437.3465,938.4923,434.6537,941.1851,429.6789,933.7,436.08" style="stroke:#A80036;stroke-width:1.0;"/><text fill="#000000" font-family="sans-serif" font-size="13" lengthAdjust="spacing" textLength="55" x="941.3491" y="449.9923">Postcode</text><!--MD5=[bc3fa4595b76ff57a3597bc204395357]
reverse link CommandWrapper to FindAdressesWrapper--><path codeLine="41" d="M700.57,72.97 C704.59,74.38 708.58,75.73 712.5,77 C813.41,109.7 841.96,106.3 943.5,137 C949.23,138.73 955.06,140.54 960.95,142.4 " fill="none" id="CommandWrapper-backto-FindAdressesWrapper" style="stroke:#A80036;stroke-width:1.0;"/><polygon fill="none" points="698.16,79.55,681.78,66.11,702.96,66.4,698.16,79.55" style="stroke:#A80036;stroke-width:1.0;"/><!--MD5=[606431aec55ec72d298e7cd6b8ef7e35]
link FindAdressesWrapper to Guid--><path codeLine="42" d="M970.09,249.04 C927.18,267.47 879.55,288.53 836.5,309 C757.12,346.73 666.11,395.43 618.15,421.53 " fill="none" id="FindAdressesWrapper-to-Guid" style="stroke:#A80036;stroke-width:1.0;"/><polygon fill="#A80036" points="613.64,423.98,623.4574,423.1931,618.0322,421.5908,619.6346,416.1656,613.64,423.98" style="stroke:#A80036;stroke-width:1.0;"/><text fill="#000000" font-family="sans-serif" font-size="13" lengthAdjust="spacing" textLength="38" x="621.6132" y="417.3603">TypeId</text><!--MD5=[cce213057d432eb82882cbbb94d45eda]
link FindAdressesWrapper to CommandDTO--><path codeLine="43" d="M960.57,243.93 C954.82,245.69 949.11,247.38 943.5,249 C841.14,278.45 720.06,304.7 647.92,319.46 " fill="none" id="FindAdressesWrapper-to-CommandDTO" style="stroke:#A80036;stroke-width:1.0;"/><polygon fill="#A80036" points="642.81,320.5,652.4281,322.6196,647.709,319.5002,650.8284,314.7811,642.81,320.5" style="stroke:#A80036;stroke-width:1.0;"/><text fill="#000000" font-family="sans-serif" font-size="13" lengthAdjust="spacing" textLength="27" x="650.6642" y="315.7722">Cmd</text><!--MD5=[27cf3143032e106437423afc79db652f]
link FindAdressesWrapper to String--><path codeLine="44" d="M1106.1,249.22 C1105.52,283.37 1099.44,326.38 1076.5,357 C1043.12,401.55 979.72,423.19 939.09,432.92 " fill="none" id="FindAdressesWrapper-to-String" style="stroke:#A80036;stroke-width:1.0;"/><polygon fill="#A80036" points="933.76,434.16,943.4306,436.0255,938.631,433.0315,941.625,428.232,933.76,434.16" style="stroke:#A80036;stroke-width:1.0;"/><text fill="#000000" font-family="sans-serif" font-size="13" lengthAdjust="spacing" textLength="66" x="941.3057" y="429.9596">SearchText</text><!--MD5=[5a6bab8df4ee897455db558573a747c0]
link FindAdressesWrapper to List`1--><path codeLine="45" d="M1070.02,249.33 C1058.92,268.25 1046.98,288.6 1037.72,304.37 " fill="none" id="FindAdressesWrapper-to-List`1" style="stroke:#A80036;stroke-width:1.0;"/><polygon fill="#A80036" points="1035.18,308.69,1043.1959,302.9676,1037.7188,304.3825,1036.3039,298.9055,1035.18,308.69" style="stroke:#A80036;stroke-width:1.0;"/><text fill="#000000" font-family="sans-serif" font-size="13" lengthAdjust="spacing" textLength="120" x="934.0605" y="297.9507">Result&lt;AdressDTO&gt;</text><!--MD5=[abc28d54e4e35ca537f3987bc7e15e70]
reverse link CommandWrapper to GetAdressWrapper--><path codeLine="46" d="M586.03,79.99 C567.76,97.11 545.67,117.81 525.48,136.73 " fill="none" id="CommandWrapper-backto-GetAdressWrapper" style="stroke:#A80036;stroke-width:1.0;"/><polygon fill="none" points="581.28,74.85,600.66,66.28,590.85,85.06,581.28,74.85" style="stroke:#A80036;stroke-width:1.0;"/><!--MD5=[4fecfaffadcdb8f999294a6fae315043]
link GetAdressWrapper to Guid--><path codeLine="47" d="M459.55,249.28 C463.58,282.03 474.38,323.54 492.5,357 C506.63,383.1 530.62,407.61 551.27,423.14 " fill="none" id="GetAdressWrapper-to-Guid" style="stroke:#A80036;stroke-width:1.0;"/><polygon fill="#A80036" points="555.35,426.12,550.4618,417.5699,551.3193,423.1613,545.7279,424.0189,555.35,426.12" style="stroke:#A80036;stroke-width:1.0;"/><text fill="#000000" font-family="sans-serif" font-size="13" lengthAdjust="spacing" textLength="38" x="509.3752" y="419.8547">TypeId</text><!--MD5=[4fecfaffadcdb8f999294a6fae315043]
link GetAdressWrapper to Guid--><path codeLine="49" d="M489.97,249.28 C498.58,282.03 509.38,323.54 527.5,357 C538.74,377.76 556.22,397.52 569.55,412.55 " fill="none" id="GetAdressWrapper-to-Guid-1" style="stroke:#A80036;stroke-width:1.0;"/><polygon fill="#A80036" points="573.19,416.66,570.2182,407.2702,569.8753,412.9167,564.2288,412.5738,573.19,416.66" style="stroke:#A80036;stroke-width:1.0;"/><text fill="#000000" font-family="sans-serif" font-size="13" lengthAdjust="spacing" textLength="10" x="559.2144" y="406.3151">Id</text><!--MD5=[f7ec91347518850ce83f09c4f315327d]
link GetAdressWrapper to CommandDTO--><path codeLine="48" d="M513.82,249.33 C530.13,268.41 547.68,288.95 561.22,304.77 " fill="none" id="GetAdressWrapper-to-CommandDTO" style="stroke:#A80036;stroke-width:1.0;"/><polygon fill="#A80036" points="564.57,308.69,561.7704,299.2474,561.3243,304.8867,555.6851,304.4406,564.57,308.69" style="stroke:#A80036;stroke-width:1.0;"/><text fill="#000000" font-family="sans-serif" font-size="13" lengthAdjust="spacing" textLength="27" x="529.0036" y="297.9507">Cmd</text><!--MD5=[abb75d88c1b5c30140cab650c6b382a7]
link GetAdressWrapper to AdressDTO--><path codeLine="50" d="M608.14,243.32 C614,245.26 619.8,247.16 625.5,249 C702.68,273.94 792.79,300.58 848.5,316.76 " fill="none" id="GetAdressWrapper-to-AdressDTO" style="stroke:#A80036;stroke-width:1.0;"/><polygon fill="#A80036" points="853.45,318.2,845.93,311.84,848.65,316.8,843.69,319.52,853.45,318.2" style="stroke:#A80036;stroke-width:1.0;"/><text fill="#000000" font-family="sans-serif" font-size="13" lengthAdjust="spacing" textLength="37" x="808.3392" y="312.9378">Result</text><!--MD5=[9cbca43eb24129da06ce5f221e81d34d]
reverse link CommandWrapper to SetAdressWrapper--><path codeLine="51" d="M664.97,79.99 C683.24,97.11 705.33,117.81 725.52,136.73 " fill="none" id="CommandWrapper-backto-SetAdressWrapper" style="stroke:#A80036;stroke-width:1.0;"/><polygon fill="none" points="660.15,85.06,650.34,66.28,669.72,74.85,660.15,85.06" style="stroke:#A80036;stroke-width:1.0;"/><!--MD5=[ab67425edc20ab324a0e79a72355eade]
link SetAdressWrapper to Guid--><path codeLine="52" d="M729.51,249.3 C703.68,281.32 672.68,322.07 643.5,357 C627.45,376.22 608.43,396.99 595.56,412.95 " fill="none" id="SetAdressWrapper-to-Guid" style="stroke:#A80036;stroke-width:1.0;"/><polygon fill="#A80036" points="592.43,416.9,601.1636,412.3476,595.543,412.9873,594.9033,407.3667,592.43,416.9" style="stroke:#A80036;stroke-width:1.0;"/><text fill="#000000" font-family="sans-serif" font-size="13" lengthAdjust="spacing" textLength="38" x="599.3308" y="406.2145">TypeId</text><!--MD5=[ab67425edc20ab324a0e79a72355eade]
link SetAdressWrapper to Guid--><path codeLine="54" d="M760.13,249.3 C738.68,281.32 707.68,322.07 678.5,357 C659.87,379.31 637.23,403.71 618,420.25 " fill="none" id="SetAdressWrapper-to-Guid-1" style="stroke:#A80036;stroke-width:1.0;"/><polygon fill="#A80036" points="613.7,423.86,623.1648,421.1366,617.5294,420.645,618.0209,415.0096,613.7,423.86" style="stroke:#A80036;stroke-width:1.0;"/><text fill="#000000" font-family="sans-serif" font-size="13" lengthAdjust="spacing" textLength="10" x="621.6088" y="435.2821">Id</text><!--MD5=[64be510668cf52f4c15ed6243423dac0]
link SetAdressWrapper to CommandDTO--><path codeLine="53" d="M704.59,249.14 C676.12,268.78 645.37,290 622.12,306.04 " fill="none" id="SetAdressWrapper-to-CommandDTO" style="stroke:#A80036;stroke-width:1.0;"/><polygon fill="#A80036" points="617.87,308.97,627.5482,307.1446,621.9835,306.1277,623.0005,300.563,617.87,308.97" style="stroke:#A80036;stroke-width:1.0;"/><text fill="#000000" font-family="sans-serif" font-size="13" lengthAdjust="spacing" textLength="27" x="595.9617" y="298.3025">Cmd</text><!--MD5=[94a885cca7ba0d929ad0698c9a0e22a6]
link SetAdressWrapper to AdressDTO--><path codeLine="55" d="M818.89,249.33 C834.43,268.41 852.55,288.95 868.03,304.77 " fill="none" id="SetAdressWrapper-to-AdressDTO" style="stroke:#A80036;stroke-width:1.0;"/><polygon fill="#A80036" points="871.9,308.69,868.4202,299.4764,868.386,305.1331,862.7292,305.0988,871.9,308.69" style="stroke:#A80036;stroke-width:1.0;"/><text fill="#000000" font-family="sans-serif" font-size="13" lengthAdjust="spacing" textLength="41" x="869.5681" y="297.9507">Adress</text><!--MD5=[94a885cca7ba0d929ad0698c9a0e22a6]
link SetAdressWrapper to AdressDTO--><path codeLine="56" d="M844.68,249.33 C861.38,268.25 877.9,288.6 889.13,304.37 " fill="none" id="SetAdressWrapper-to-AdressDTO-1" style="stroke:#A80036;stroke-width:1.0;"/><polygon fill="#A80036" points="892.16,308.69,890.2576,299.0266,889.285,304.5992,883.7124,303.6266,892.16,308.69" style="stroke:#A80036;stroke-width:1.0;"/><text fill="#000000" font-family="sans-serif" font-size="13" lengthAdjust="spacing" textLength="37" x="848.026" y="297.9507">Result</text><!--MD5=[9b08d2a45fc0a2255361495ba25c3e76]
reverse link CommandWrapper to DeleteAdressWrapper--><path codeLine="57" d="M536.91,68.01 C472.94,86.36 384.59,112.29 307.5,137 C301.8,138.83 295.99,140.72 290.13,142.64 " fill="none" id="CommandWrapper-backto-DeleteAdressWrapper" style="stroke:#A80036;stroke-width:1.0;"/><polygon fill="none" points="535.21,61.22,556.37,62.45,539.06,74.68,535.21,61.22" style="stroke:#A80036;stroke-width:1.0;"/><!--MD5=[7ec9028265da5144379fbe690513b73e]
link DeleteAdressWrapper to Guid--><path codeLine="58" d="M235.24,249.05 C331.94,305.62 483.13,390.14 550.55,424.57 " fill="none" id="DeleteAdressWrapper-to-Guid" style="stroke:#A80036;stroke-width:1.0;"/><polygon fill="#A80036" points="555.26,426.96,549.0574,419.3096,550.8051,424.6897,545.425,426.4374,555.26,426.96" style="stroke:#A80036;stroke-width:1.0;"/><text fill="#000000" font-family="sans-serif" font-size="13" lengthAdjust="spacing" textLength="38" x="509.5718" y="439.5205">TypeId</text><!--MD5=[7ec9028265da5144379fbe690513b73e]
link DeleteAdressWrapper to Guid--><path codeLine="60" d="M257.55,249.05 C353.95,301.47 488.36,377.89 550.73,416.21 " fill="none" id="DeleteAdressWrapper-to-Guid-1" style="stroke:#A80036;stroke-width:1.0;"/><polygon fill="#A80036" points="555.09,418.91,549.5336,410.7782,550.8356,416.2831,545.3307,417.5852,555.09,418.91" style="stroke:#A80036;stroke-width:1.0;"/><text fill="#000000" font-family="sans-serif" font-size="13" lengthAdjust="spacing" textLength="10" x="546.6991" y="406.1221">Id</text><!--MD5=[68babcd854570148b1daf17688fbb69c]
link DeleteAdressWrapper to CommandDTO--><path codeLine="59" d="M290.14,243.33 C296,245.26 301.8,247.16 307.5,249 C380.55,272.57 465.14,297.59 521.43,313.92 " fill="none" id="DeleteAdressWrapper-to-CommandDTO" style="stroke:#A80036;stroke-width:1.0;"/><polygon fill="#A80036" points="526.45,315.37,518.93,309.01,521.65,313.97,516.69,316.69,526.45,315.37" style="stroke:#A80036;stroke-width:1.0;"/><text fill="#000000" font-family="sans-serif" font-size="13" lengthAdjust="spacing" textLength="27" x="491.6242" y="310.0811">Cmd</text><!--MD5=[136bec06811b5527b422fe58fcd88141]
link DeleteAdressWrapper to AdressDTO--><path codeLine="61" d="M290.26,244.56 C296.06,246.15 301.82,247.63 307.5,249 C410.1,273.67 722.6,311.3 848.3,325.91 " fill="none" id="DeleteAdressWrapper-to-AdressDTO" style="stroke:#A80036;stroke-width:1.0;"/><polygon fill="#A80036" points="853.42,326.5,844.9356,321.4984,848.4527,325.929,844.0221,329.4461,853.42,326.5" style="stroke:#A80036;stroke-width:1.0;"/><text fill="#000000" font-family="sans-serif" font-size="13" lengthAdjust="spacing" textLength="37" x="808.3056" y="340.1994">Result</text><!--MD5=[c55bb5d80e1e6db69706bc894799f755]
@startuml
class AdressDTO {
}
class FindAdressesWrapper <<partial>> {
    + FindAdressesWrapper(dto:CommandDTO)
    + {static} IsForMe(dto:CommandDTO) : bool
    + {static} ExecuteCommand(dto:CommandDTO) : CommandDTO
    + <<partial>> ExecuteCommand() : CommandDTO
}
class GetAdressWrapper <<partial>> {
    + GetAdressWrapper(dto:CommandDTO)
    + {static} IsForMe(dto:CommandDTO) : bool
    + {static} ExecuteCommand(dto:CommandDTO) : CommandDTO
    + <<partial>> ExecuteCommand() : CommandDTO
}
class SetAdressWrapper <<partial>> {
    + SetAdressWrapper(dto:CommandDTO)
    + {static} IsForMe(dto:CommandDTO) : bool
    + {static} ExecuteCommand(dto:CommandDTO) : CommandDTO
    + <<partial>> ExecuteCommand() : CommandDTO
}
class DeleteAdressWrapper <<partial>> {
    + DeleteAdressWrapper(dto:CommandDTO)
    + {static} IsForMe(dto:CommandDTO) : bool
    + {static} ExecuteCommand(dto:CommandDTO) : CommandDTO
    + <<partial>> ExecuteCommand() : CommandDTO
}
class AdressTypesDispatcher <<static>> {
    + {static} Dispatch(dto:CommandDTO) : CommandDTO
}
class "List`1"<T> {
}
BaseDTO <|- - AdressDTO
AdressDTO - -> "TypeId" Guid
AdressDTO - -> "Name1" String
AdressDTO - -> "Name2" String
AdressDTO - -> "Adress1" String
AdressDTO - -> "Adress2" String
AdressDTO - -> "Housenumber" String
AdressDTO - -> "City" String
AdressDTO - -> "Postcode" String
CommandWrapper <|- - FindAdressesWrapper
FindAdressesWrapper - -> "TypeId" Guid
FindAdressesWrapper - -> "Cmd" CommandDTO
FindAdressesWrapper - -> "SearchText" String
FindAdressesWrapper - -> "Result<AdressDTO>" "List`1"
CommandWrapper <|- - GetAdressWrapper
GetAdressWrapper - -> "TypeId" Guid
GetAdressWrapper - -> "Cmd" CommandDTO
GetAdressWrapper - -> "Id" Guid
GetAdressWrapper - -> "Result" AdressDTO
CommandWrapper <|- - SetAdressWrapper
SetAdressWrapper - -> "TypeId" Guid
SetAdressWrapper - -> "Cmd" CommandDTO
SetAdressWrapper - -> "Id" Guid
SetAdressWrapper - -> "Adress" AdressDTO
SetAdressWrapper - -> "Result" AdressDTO
CommandWrapper <|- - DeleteAdressWrapper
DeleteAdressWrapper - -> "TypeId" Guid
DeleteAdressWrapper - -> "Cmd" CommandDTO
DeleteAdressWrapper - -> "Id" Guid
DeleteAdressWrapper - -> "Result" AdressDTO
@enduml

PlantUML version 1.2021.10(Mon Aug 30 15:43:48 CEST 2021)
(GPL source distribution)
Java Runtime: Java(TM) SE Runtime Environment
JVM: Java HotSpot(TM) Client VM
Default Encoding: Cp1252
Language: de
Country: CH
--></g></svg>