<?xml version="1.0" encoding="UTF-8" standalone="no"?><svg xmlns="http://www.w3.org/2000/svg" xmlns:xlink="http://www.w3.org/1999/xlink" contentScriptType="application/ecmascript" contentStyleType="text/css" height="508px" preserveAspectRatio="none" style="width:1469px;height:508px;background:#FFFFFF;" version="1.1" viewBox="0 0 1469 508" width="1469px" zoomAndPan="magnify"><defs><filter height="300%" id="f101fhba04qhn1" width="300%" x="-1" y="-1"><feGaussianBlur result="blurOut" stdDeviation="2.0"/><feColorMatrix in="blurOut" result="blurOut2" type="matrix" values="0 0 0 0 0 0 0 0 0 0 0 0 0 0 0 0 0 0 .4 0"/><feOffset dx="4.0" dy="4.0" in="blurOut2" result="blurOut3"/><feBlend in="SourceGraphic" in2="blurOut3" mode="normal"/></filter></defs><g><!--MD5=[a5d4fcdae0bd58dbfa0890c54d6b74e5]
class AdressDTO--><rect codeLine="1" fill="#FEFECE" filter="url(#f101fhba04qhn1)" height="48" id="AdressDTO" style="stroke:#A80036;stroke-width:1.5;" width="96" x="863.5" y="338"/><ellipse cx="878.5" cy="354" fill="#ADD1B2" rx="11" ry="11" style="stroke:#A80036;stroke-width:1.0;"/><path d="M881.2656,349.875 Q881.4219,349.6563 881.6094,349.5469 Q881.7969,349.4375 882.0156,349.4375 Q882.3906,349.4375 882.625,349.6953 Q882.8594,349.9531 882.8594,350.5625 L882.8594,352.0156 Q882.8594,352.625 882.625,352.8906 Q882.3906,353.1563 882.0156,353.1563 Q881.6719,353.1563 881.4688,352.9531 Q881.2656,352.7656 881.1563,352.25 Q881.1094,351.8906 880.9219,351.7031 Q880.5938,351.3281 879.9844,351.1094 Q879.375,350.8906 878.75,350.8906 Q877.9844,350.8906 877.3516,351.2188 Q876.7188,351.5469 876.2266,352.2969 Q875.7344,353.0469 875.7344,354.0781 L875.7344,355.1719 Q875.7344,356.4063 876.625,357.2266 Q877.5156,358.0469 879.1094,358.0469 Q880.0469,358.0469 880.7031,357.7969 Q881.0938,357.6406 881.5156,357.2031 Q881.7813,356.9375 881.9297,356.8594 Q882.0781,356.7813 882.2813,356.7813 Q882.6094,356.7813 882.8672,357.0391 Q883.125,357.2969 883.125,357.6406 Q883.125,357.9844 882.7813,358.3906 Q882.2813,358.9688 881.4844,359.2969 Q880.4063,359.75 879.1094,359.75 Q877.5938,359.75 876.3906,359.125 Q875.4063,358.625 874.7188,357.5547 Q874.0313,356.4844 874.0313,355.2031 L874.0313,354.0469 Q874.0313,352.7188 874.6484,351.5703 Q875.2656,350.4219 876.3594,349.8047 Q877.4531,349.1875 878.6875,349.1875 Q879.4219,349.1875 880.0703,349.3516 Q880.7188,349.5156 881.2656,349.875 Z " fill="#000000"/><text fill="#000000" font-family="sans-serif" font-size="12" lengthAdjust="spacing" textLength="64" x="892.5" y="358.9102">AdressDTO</text><line style="stroke:#A80036;stroke-width:1.5;" x1="864.5" x2="958.5" y1="370" y2="370"/><line style="stroke:#A80036;stroke-width:1.5;" x1="864.5" x2="958.5" y1="378" y2="378"/><!--MD5=[b322aadbb9d3c478d9706c2cbb9a3ac5]
class FindAdressesWrapper--><rect codeLine="3" fill="#FEFECE" filter="url(#f101fhba04qhn1)" height="111.5313" id="FindAdressesWrapper" style="stroke:#A80036;stroke-width:1.5;" width="327" x="1007" y="166"/><ellipse cx="1104.25" cy="186.0938" fill="#ADD1B2" rx="11" ry="11" style="stroke:#A80036;stroke-width:1.0;"/><path d="M1107.0156,181.9688 Q1107.1719,181.75 1107.3594,181.6406 Q1107.5469,181.5313 1107.7656,181.5313 Q1108.1406,181.5313 1108.375,181.7891 Q1108.6094,182.0469 1108.6094,182.6563 L1108.6094,184.1094 Q1108.6094,184.7188 1108.375,184.9844 Q1108.1406,185.25 1107.7656,185.25 Q1107.4219,185.25 1107.2188,185.0469 Q1107.0156,184.8594 1106.9063,184.3438 Q1106.8594,183.9844 1106.6719,183.7969 Q1106.3438,183.4219 1105.7344,183.2031 Q1105.125,182.9844 1104.5,182.9844 Q1103.7344,182.9844 1103.1016,183.3125 Q1102.4688,183.6406 1101.9766,184.3906 Q1101.4844,185.1406 1101.4844,186.1719 L1101.4844,187.2656 Q1101.4844,188.5 1102.375,189.3203 Q1103.2656,190.1406 1104.8594,190.1406 Q1105.7969,190.1406 1106.4531,189.8906 Q1106.8438,189.7344 1107.2656,189.2969 Q1107.5313,189.0313 1107.6797,188.9531 Q1107.8281,188.875 1108.0313,188.875 Q1108.3594,188.875 1108.6172,189.1328 Q1108.875,189.3906 1108.875,189.7344 Q1108.875,190.0781 1108.5313,190.4844 Q1108.0313,191.0625 1107.2344,191.3906 Q1106.1563,191.8438 1104.8594,191.8438 Q1103.3438,191.8438 1102.1406,191.2188 Q1101.1563,190.7188 1100.4688,189.6484 Q1099.7813,188.5781 1099.7813,187.2969 L1099.7813,186.1406 Q1099.7813,184.8125 1100.3984,183.6641 Q1101.0156,182.5156 1102.1094,181.8984 Q1103.2031,181.2813 1104.4375,181.2813 Q1105.1719,181.2813 1105.8203,181.4453 Q1106.4688,181.6094 1107.0156,181.9688 Z " fill="#000000"/><text fill="#000000" font-family="sans-serif" font-size="12" font-style="italic" lengthAdjust="spacing" textLength="48" x="1162.75" y="183.457">«partial»</text><text fill="#000000" font-family="sans-serif" font-size="12" lengthAdjust="spacing" textLength="124" x="1124.75" y="198.5508">FindAdressesWrapper</text><line style="stroke:#A80036;stroke-width:1.5;" x1="1008" x2="1333" y1="206.1875" y2="206.1875"/><line style="stroke:#A80036;stroke-width:1.5;" x1="1008" x2="1333" y1="214.1875" y2="214.1875"/><ellipse cx="1018" cy="225.1875" fill="#84BE84" rx="3" ry="3" style="stroke:#038048;stroke-width:1.0;"/><text fill="#000000" font-family="sans-serif" font-size="11" lengthAdjust="spacing" textLength="204" x="1027" y="229.6064">FindAdressesWrapper(dto:CommandDTO)</text><ellipse cx="1018" cy="239.0234" fill="#84BE84" rx="3" ry="3" style="stroke:#038048;stroke-width:1.0;"/><text fill="#000000" font-family="sans-serif" font-size="11" lengthAdjust="spacing" text-decoration="underline" textLength="161" x="1027" y="243.4424">IsForMe(dto:CommandDTO) : bool</text><ellipse cx="1018" cy="252.8594" fill="#84BE84" rx="3" ry="3" style="stroke:#038048;stroke-width:1.0;"/><text fill="#000000" font-family="sans-serif" font-size="11" lengthAdjust="spacing" text-decoration="underline" textLength="257" x="1027" y="257.2783">ExecuteCommand(dto:CommandDTO) : CommandDTO</text><ellipse cx="1018" cy="266.6953" fill="#84BE84" rx="3" ry="3" style="stroke:#038048;stroke-width:1.0;"/><text fill="#000000" font-family="sans-serif" font-size="11" lengthAdjust="spacing" textLength="301" x="1027" y="271.1143">«partial» FindAdresses(searchText:String) : List&lt;AdressDTO&gt;</text><!--MD5=[6e19dd62a802d136f77541c9a65b5007]
class GetAdressWrapper--><rect codeLine="9" fill="#FEFECE" filter="url(#f101fhba04qhn1)" height="111.5313" id="GetAdressWrapper" style="stroke:#A80036;stroke-width:1.5;" width="283" x="325" y="166"/><ellipse cx="409.75" cy="186.0938" fill="#ADD1B2" rx="11" ry="11" style="stroke:#A80036;stroke-width:1.0;"/><path d="M412.5156,181.9688 Q412.6719,181.75 412.8594,181.6406 Q413.0469,181.5313 413.2656,181.5313 Q413.6406,181.5313 413.875,181.7891 Q414.1094,182.0469 414.1094,182.6563 L414.1094,184.1094 Q414.1094,184.7188 413.875,184.9844 Q413.6406,185.25 413.2656,185.25 Q412.9219,185.25 412.7188,185.0469 Q412.5156,184.8594 412.4063,184.3438 Q412.3594,183.9844 412.1719,183.7969 Q411.8438,183.4219 411.2344,183.2031 Q410.625,182.9844 410,182.9844 Q409.2344,182.9844 408.6016,183.3125 Q407.9688,183.6406 407.4766,184.3906 Q406.9844,185.1406 406.9844,186.1719 L406.9844,187.2656 Q406.9844,188.5 407.875,189.3203 Q408.7656,190.1406 410.3594,190.1406 Q411.2969,190.1406 411.9531,189.8906 Q412.3438,189.7344 412.7656,189.2969 Q413.0313,189.0313 413.1797,188.9531 Q413.3281,188.875 413.5313,188.875 Q413.8594,188.875 414.1172,189.1328 Q414.375,189.3906 414.375,189.7344 Q414.375,190.0781 414.0313,190.4844 Q413.5313,191.0625 412.7344,191.3906 Q411.6563,191.8438 410.3594,191.8438 Q408.8438,191.8438 407.6406,191.2188 Q406.6563,190.7188 405.9688,189.6484 Q405.2813,188.5781 405.2813,187.2969 L405.2813,186.1406 Q405.2813,184.8125 405.8984,183.6641 Q406.5156,182.5156 407.6094,181.8984 Q408.7031,181.2813 409.9375,181.2813 Q410.6719,181.2813 411.3203,181.4453 Q411.9688,181.6094 412.5156,181.9688 Z " fill="#000000"/><text fill="#000000" font-family="sans-serif" font-size="12" font-style="italic" lengthAdjust="spacing" textLength="48" x="458.75" y="183.457">«partial»</text><text fill="#000000" font-family="sans-serif" font-size="12" lengthAdjust="spacing" textLength="105" x="430.25" y="198.5508">GetAdressWrapper</text><line style="stroke:#A80036;stroke-width:1.5;" x1="326" x2="607" y1="206.1875" y2="206.1875"/><line style="stroke:#A80036;stroke-width:1.5;" x1="326" x2="607" y1="214.1875" y2="214.1875"/><ellipse cx="336" cy="225.1875" fill="#84BE84" rx="3" ry="3" style="stroke:#038048;stroke-width:1.0;"/><text fill="#000000" font-family="sans-serif" font-size="11" lengthAdjust="spacing" textLength="189" x="345" y="229.6064">GetAdressWrapper(dto:CommandDTO)</text><ellipse cx="336" cy="239.0234" fill="#84BE84" rx="3" ry="3" style="stroke:#038048;stroke-width:1.0;"/><text fill="#000000" font-family="sans-serif" font-size="11" lengthAdjust="spacing" text-decoration="underline" textLength="161" x="345" y="243.4424">IsForMe(dto:CommandDTO) : bool</text><ellipse cx="336" cy="252.8594" fill="#84BE84" rx="3" ry="3" style="stroke:#038048;stroke-width:1.0;"/><text fill="#000000" font-family="sans-serif" font-size="11" lengthAdjust="spacing" text-decoration="underline" textLength="257" x="345" y="257.2783">ExecuteCommand(dto:CommandDTO) : CommandDTO</text><ellipse cx="336" cy="266.6953" fill="#84BE84" rx="3" ry="3" style="stroke:#038048;stroke-width:1.0;"/><text fill="#000000" font-family="sans-serif" font-size="11" lengthAdjust="spacing" textLength="204" x="345" y="271.1143">«partial» GetAdress(id:Guid) : AdressDTO</text><!--MD5=[d7ea2e2e46638f75b2cef309ef62bd52]
class SetAdressWrapper--><rect codeLine="15" fill="#FEFECE" filter="url(#f101fhba04qhn1)" height="111.5313" id="SetAdressWrapper" style="stroke:#A80036;stroke-width:1.5;" width="329" x="643" y="166"/><ellipse cx="751.25" cy="186.0938" fill="#ADD1B2" rx="11" ry="11" style="stroke:#A80036;stroke-width:1.0;"/><path d="M754.0156,181.9688 Q754.1719,181.75 754.3594,181.6406 Q754.5469,181.5313 754.7656,181.5313 Q755.1406,181.5313 755.375,181.7891 Q755.6094,182.0469 755.6094,182.6563 L755.6094,184.1094 Q755.6094,184.7188 755.375,184.9844 Q755.1406,185.25 754.7656,185.25 Q754.4219,185.25 754.2188,185.0469 Q754.0156,184.8594 753.9063,184.3438 Q753.8594,183.9844 753.6719,183.7969 Q753.3438,183.4219 752.7344,183.2031 Q752.125,182.9844 751.5,182.9844 Q750.7344,182.9844 750.1016,183.3125 Q749.4688,183.6406 748.9766,184.3906 Q748.4844,185.1406 748.4844,186.1719 L748.4844,187.2656 Q748.4844,188.5 749.375,189.3203 Q750.2656,190.1406 751.8594,190.1406 Q752.7969,190.1406 753.4531,189.8906 Q753.8438,189.7344 754.2656,189.2969 Q754.5313,189.0313 754.6797,188.9531 Q754.8281,188.875 755.0313,188.875 Q755.3594,188.875 755.6172,189.1328 Q755.875,189.3906 755.875,189.7344 Q755.875,190.0781 755.5313,190.4844 Q755.0313,191.0625 754.2344,191.3906 Q753.1563,191.8438 751.8594,191.8438 Q750.3438,191.8438 749.1406,191.2188 Q748.1563,190.7188 747.4688,189.6484 Q746.7813,188.5781 746.7813,187.2969 L746.7813,186.1406 Q746.7813,184.8125 747.3984,183.6641 Q748.0156,182.5156 749.1094,181.8984 Q750.2031,181.2813 751.4375,181.2813 Q752.1719,181.2813 752.8203,181.4453 Q753.4688,181.6094 754.0156,181.9688 Z " fill="#000000"/><text fill="#000000" font-family="sans-serif" font-size="12" font-style="italic" lengthAdjust="spacing" textLength="48" x="799.75" y="183.457">«partial»</text><text fill="#000000" font-family="sans-serif" font-size="12" lengthAdjust="spacing" textLength="104" x="771.75" y="198.5508">SetAdressWrapper</text><line style="stroke:#A80036;stroke-width:1.5;" x1="644" x2="971" y1="206.1875" y2="206.1875"/><line style="stroke:#A80036;stroke-width:1.5;" x1="644" x2="971" y1="214.1875" y2="214.1875"/><ellipse cx="654" cy="225.1875" fill="#84BE84" rx="3" ry="3" style="stroke:#038048;stroke-width:1.0;"/><text fill="#000000" font-family="sans-serif" font-size="11" lengthAdjust="spacing" textLength="188" x="663" y="229.6064">SetAdressWrapper(dto:CommandDTO)</text><ellipse cx="654" cy="239.0234" fill="#84BE84" rx="3" ry="3" style="stroke:#038048;stroke-width:1.0;"/><text fill="#000000" font-family="sans-serif" font-size="11" lengthAdjust="spacing" text-decoration="underline" textLength="161" x="663" y="243.4424">IsForMe(dto:CommandDTO) : bool</text><ellipse cx="654" cy="252.8594" fill="#84BE84" rx="3" ry="3" style="stroke:#038048;stroke-width:1.0;"/><text fill="#000000" font-family="sans-serif" font-size="11" lengthAdjust="spacing" text-decoration="underline" textLength="257" x="663" y="257.2783">ExecuteCommand(dto:CommandDTO) : CommandDTO</text><ellipse cx="654" cy="266.6953" fill="#84BE84" rx="3" ry="3" style="stroke:#038048;stroke-width:1.0;"/><text fill="#000000" font-family="sans-serif" font-size="11" lengthAdjust="spacing" textLength="303" x="663" y="271.1143">«partial» SetAdress(id:Guid, adress:AdressDTO) : AdressDTO</text><!--MD5=[e9948f5ac33029c6d753e81ae40d62cf]
class DeleteAdressWrapper--><rect codeLine="21" fill="#FEFECE" filter="url(#f101fhba04qhn1)" height="111.5313" id="DeleteAdressWrapper" style="stroke:#A80036;stroke-width:1.5;" width="283" x="7" y="166"/><ellipse cx="83.25" cy="186.0938" fill="#ADD1B2" rx="11" ry="11" style="stroke:#A80036;stroke-width:1.0;"/><path d="M86.0156,181.9688 Q86.1719,181.75 86.3594,181.6406 Q86.5469,181.5313 86.7656,181.5313 Q87.1406,181.5313 87.375,181.7891 Q87.6094,182.0469 87.6094,182.6563 L87.6094,184.1094 Q87.6094,184.7188 87.375,184.9844 Q87.1406,185.25 86.7656,185.25 Q86.4219,185.25 86.2188,185.0469 Q86.0156,184.8594 85.9063,184.3438 Q85.8594,183.9844 85.6719,183.7969 Q85.3438,183.4219 84.7344,183.2031 Q84.125,182.9844 83.5,182.9844 Q82.7344,182.9844 82.1016,183.3125 Q81.4688,183.6406 80.9766,184.3906 Q80.4844,185.1406 80.4844,186.1719 L80.4844,187.2656 Q80.4844,188.5 81.375,189.3203 Q82.2656,190.1406 83.8594,190.1406 Q84.7969,190.1406 85.4531,189.8906 Q85.8438,189.7344 86.2656,189.2969 Q86.5313,189.0313 86.6797,188.9531 Q86.8281,188.875 87.0313,188.875 Q87.3594,188.875 87.6172,189.1328 Q87.875,189.3906 87.875,189.7344 Q87.875,190.0781 87.5313,190.4844 Q87.0313,191.0625 86.2344,191.3906 Q85.1563,191.8438 83.8594,191.8438 Q82.3438,191.8438 81.1406,191.2188 Q80.1563,190.7188 79.4688,189.6484 Q78.7813,188.5781 78.7813,187.2969 L78.7813,186.1406 Q78.7813,184.8125 79.3984,183.6641 Q80.0156,182.5156 81.1094,181.8984 Q82.2031,181.2813 83.4375,181.2813 Q84.1719,181.2813 84.8203,181.4453 Q85.4688,181.6094 86.0156,181.9688 Z " fill="#000000"/><text fill="#000000" font-family="sans-serif" font-size="12" font-style="italic" lengthAdjust="spacing" textLength="48" x="140.75" y="183.457">«partial»</text><text fill="#000000" font-family="sans-serif" font-size="12" lengthAdjust="spacing" textLength="122" x="103.75" y="198.5508">DeleteAdressWrapper</text><line style="stroke:#A80036;stroke-width:1.5;" x1="8" x2="289" y1="206.1875" y2="206.1875"/><line style="stroke:#A80036;stroke-width:1.5;" x1="8" x2="289" y1="214.1875" y2="214.1875"/><ellipse cx="18" cy="225.1875" fill="#84BE84" rx="3" ry="3" style="stroke:#038048;stroke-width:1.0;"/><text fill="#000000" font-family="sans-serif" font-size="11" lengthAdjust="spacing" textLength="202" x="27" y="229.6064">DeleteAdressWrapper(dto:CommandDTO)</text><ellipse cx="18" cy="239.0234" fill="#84BE84" rx="3" ry="3" style="stroke:#038048;stroke-width:1.0;"/><text fill="#000000" font-family="sans-serif" font-size="11" lengthAdjust="spacing" text-decoration="underline" textLength="161" x="27" y="243.4424">IsForMe(dto:CommandDTO) : bool</text><ellipse cx="18" cy="252.8594" fill="#84BE84" rx="3" ry="3" style="stroke:#038048;stroke-width:1.0;"/><text fill="#000000" font-family="sans-serif" font-size="11" lengthAdjust="spacing" text-decoration="underline" textLength="257" x="27" y="257.2783">ExecuteCommand(dto:CommandDTO) : CommandDTO</text><ellipse cx="18" cy="266.6953" fill="#84BE84" rx="3" ry="3" style="stroke:#038048;stroke-width:1.0;"/><text fill="#000000" font-family="sans-serif" font-size="11" lengthAdjust="spacing" textLength="217" x="27" y="271.1143">«partial» DeleteAdress(id:Guid) : AdressDTO</text><!--MD5=[74e3a5dd212718f404fd448678a33d07]
class AdressTypes--><rect codeLine="30" fill="#FEFECE" filter="url(#f101fhba04qhn1)" height="98.9531" id="AdressTypes" style="stroke:#A80036;stroke-width:1.5;" width="310" x="740.5" y="7"/><ellipse cx="855.25" cy="34.6406" fill="#ADD1B2" rx="11" ry="11" style="stroke:#A80036;stroke-width:1.0;"/><path d="M858.0156,30.5156 Q858.1719,30.2969 858.3594,30.1875 Q858.5469,30.0781 858.7656,30.0781 Q859.1406,30.0781 859.375,30.3359 Q859.6094,30.5938 859.6094,31.2031 L859.6094,32.6563 Q859.6094,33.2656 859.375,33.5313 Q859.1406,33.7969 858.7656,33.7969 Q858.4219,33.7969 858.2188,33.5938 Q858.0156,33.4063 857.9063,32.8906 Q857.8594,32.5313 857.6719,32.3438 Q857.3438,31.9688 856.7344,31.75 Q856.125,31.5313 855.5,31.5313 Q854.7344,31.5313 854.1016,31.8594 Q853.4688,32.1875 852.9766,32.9375 Q852.4844,33.6875 852.4844,34.7188 L852.4844,35.8125 Q852.4844,37.0469 853.375,37.8672 Q854.2656,38.6875 855.8594,38.6875 Q856.7969,38.6875 857.4531,38.4375 Q857.8438,38.2813 858.2656,37.8438 Q858.5313,37.5781 858.6797,37.5 Q858.8281,37.4219 859.0313,37.4219 Q859.3594,37.4219 859.6172,37.6797 Q859.875,37.9375 859.875,38.2813 Q859.875,38.625 859.5313,39.0313 Q859.0313,39.6094 858.2344,39.9375 Q857.1563,40.3906 855.8594,40.3906 Q854.3438,40.3906 853.1406,39.7656 Q852.1563,39.2656 851.4688,38.1953 Q850.7813,37.125 850.7813,35.8438 L850.7813,34.6875 Q850.7813,33.3594 851.3984,32.2109 Q852.0156,31.0625 853.1094,30.4453 Q854.2031,29.8281 855.4375,29.8281 Q856.1719,29.8281 856.8203,29.9922 Q857.4688,30.1563 858.0156,30.5156 Z " fill="#000000"/><text fill="#000000" font-family="sans-serif" font-size="12" font-style="italic" lengthAdjust="spacing" textLength="42" x="890.75" y="24.457">«static»</text><text fill="#000000" font-family="sans-serif" font-size="12" font-style="italic" lengthAdjust="spacing" textLength="48" x="887.75" y="39.5508">«partial»</text><text fill="#000000" font-family="sans-serif" font-size="12" lengthAdjust="spacing" textLength="72" x="875.75" y="54.6445">AdressTypes</text><line style="stroke:#A80036;stroke-width:1.5;" x1="741.5" x2="1049.5" y1="62.2813" y2="62.2813"/><line style="stroke:#A80036;stroke-width:1.5;" x1="741.5" x2="1049.5" y1="70.2813" y2="70.2813"/><ellipse cx="751.5" cy="81.2813" fill="#84BE84" rx="3" ry="3" style="stroke:#038048;stroke-width:1.0;"/><text fill="#000000" font-family="sans-serif" font-size="11" lengthAdjust="spacing" text-decoration="underline" textLength="213" x="760.5" y="85.7002">Dispatch(dto:CommandDTO) : CommandDTO</text><ellipse cx="751.5" cy="95.1172" fill="#84BE84" rx="3" ry="3" style="stroke:#038048;stroke-width:1.0;"/><text fill="#000000" font-family="sans-serif" font-size="11" lengthAdjust="spacing" text-decoration="underline" textLength="284" x="760.5" y="99.5361">GetTypes(commandTypes:List&lt;CommandTypeDTO&gt;) : void</text><!--MD5=[e644022de7dea015dd09463c37421447]
class List`1--><rect codeLine="33" fill="#FEFECE" filter="url(#f101fhba04qhn1)" height="48" id="List`1" style="stroke:#A80036;stroke-width:1.5;" width="74" x="1043.5" y="338"/><ellipse cx="1058.5" cy="354" fill="#ADD1B2" rx="11" ry="11" style="stroke:#A80036;stroke-width:1.0;"/><path d="M1061.2656,349.875 Q1061.4219,349.6563 1061.6094,349.5469 Q1061.7969,349.4375 1062.0156,349.4375 Q1062.3906,349.4375 1062.625,349.6953 Q1062.8594,349.9531 1062.8594,350.5625 L1062.8594,352.0156 Q1062.8594,352.625 1062.625,352.8906 Q1062.3906,353.1563 1062.0156,353.1563 Q1061.6719,353.1563 1061.4688,352.9531 Q1061.2656,352.7656 1061.1563,352.25 Q1061.1094,351.8906 1060.9219,351.7031 Q1060.5938,351.3281 1059.9844,351.1094 Q1059.375,350.8906 1058.75,350.8906 Q1057.9844,350.8906 1057.3516,351.2188 Q1056.7188,351.5469 1056.2266,352.2969 Q1055.7344,353.0469 1055.7344,354.0781 L1055.7344,355.1719 Q1055.7344,356.4063 1056.625,357.2266 Q1057.5156,358.0469 1059.1094,358.0469 Q1060.0469,358.0469 1060.7031,357.7969 Q1061.0938,357.6406 1061.5156,357.2031 Q1061.7813,356.9375 1061.9297,356.8594 Q1062.0781,356.7813 1062.2813,356.7813 Q1062.6094,356.7813 1062.8672,357.0391 Q1063.125,357.2969 1063.125,357.6406 Q1063.125,357.9844 1062.7813,358.3906 Q1062.2813,358.9688 1061.4844,359.2969 Q1060.4063,359.75 1059.1094,359.75 Q1057.5938,359.75 1056.3906,359.125 Q1055.4063,358.625 1054.7188,357.5547 Q1054.0313,356.4844 1054.0313,355.2031 L1054.0313,354.0469 Q1054.0313,352.7188 1054.6484,351.5703 Q1055.2656,350.4219 1056.3594,349.8047 Q1057.4531,349.1875 1058.6875,349.1875 Q1059.4219,349.1875 1060.0703,349.3516 Q1060.7188,349.5156 1061.2656,349.875 Z " fill="#000000"/><text fill="#000000" font-family="sans-serif" font-size="12" lengthAdjust="spacing" textLength="31" x="1072.5" y="358.9102">List`1</text><rect fill="#FFFFFF" height="17.0938" style="stroke:#000000;stroke-width:1.0;stroke-dasharray:2.0,2.0;" width="9" x="1111.5" y="335"/><text fill="#000000" font-family="sans-serif" font-size="12" font-style="italic" lengthAdjust="spacing" textLength="7" x="1112.5" y="348.457">T</text><line style="stroke:#A80036;stroke-width:1.5;" x1="1044.5" x2="1116.5" y1="370" y2="370"/><line style="stroke:#A80036;stroke-width:1.5;" x1="1044.5" x2="1116.5" y1="378" y2="378"/><!--MD5=[6b1d3384926f1bc892ee196bbd0d7fce]
class BaseDTO--><rect fill="#FEFECE" filter="url(#f101fhba04qhn1)" height="48" id="BaseDTO" style="stroke:#A80036;stroke-width:1.5;" width="86" x="1369.5" y="198"/><ellipse cx="1384.5" cy="214" fill="#ADD1B2" rx="11" ry="11" style="stroke:#A80036;stroke-width:1.0;"/><path d="M1387.2656,209.875 Q1387.4219,209.6563 1387.6094,209.5469 Q1387.7969,209.4375 1388.0156,209.4375 Q1388.3906,209.4375 1388.625,209.6953 Q1388.8594,209.9531 1388.8594,210.5625 L1388.8594,212.0156 Q1388.8594,212.625 1388.625,212.8906 Q1388.3906,213.1563 1388.0156,213.1563 Q1387.6719,213.1563 1387.4688,212.9531 Q1387.2656,212.7656 1387.1563,212.25 Q1387.1094,211.8906 1386.9219,211.7031 Q1386.5938,211.3281 1385.9844,211.1094 Q1385.375,210.8906 1384.75,210.8906 Q1383.9844,210.8906 1383.3516,211.2188 Q1382.7188,211.5469 1382.2266,212.2969 Q1381.7344,213.0469 1381.7344,214.0781 L1381.7344,215.1719 Q1381.7344,216.4063 1382.625,217.2266 Q1383.5156,218.0469 1385.1094,218.0469 Q1386.0469,218.0469 1386.7031,217.7969 Q1387.0938,217.6406 1387.5156,217.2031 Q1387.7813,216.9375 1387.9297,216.8594 Q1388.0781,216.7813 1388.2813,216.7813 Q1388.6094,216.7813 1388.8672,217.0391 Q1389.125,217.2969 1389.125,217.6406 Q1389.125,217.9844 1388.7813,218.3906 Q1388.2813,218.9688 1387.4844,219.2969 Q1386.4063,219.75 1385.1094,219.75 Q1383.5938,219.75 1382.3906,219.125 Q1381.4063,218.625 1380.7188,217.5547 Q1380.0313,216.4844 1380.0313,215.2031 L1380.0313,214.0469 Q1380.0313,212.7188 1380.6484,211.5703 Q1381.2656,210.4219 1382.3594,209.8047 Q1383.4531,209.1875 1384.6875,209.1875 Q1385.4219,209.1875 1386.0703,209.3516 Q1386.7188,209.5156 1387.2656,209.875 Z " fill="#000000"/><text fill="#000000" font-family="sans-serif" font-size="12" lengthAdjust="spacing" textLength="54" x="1398.5" y="218.9102">BaseDTO</text><line style="stroke:#A80036;stroke-width:1.5;" x1="1370.5" x2="1454.5" y1="230" y2="230"/><line style="stroke:#A80036;stroke-width:1.5;" x1="1370.5" x2="1454.5" y1="238" y2="238"/><!--MD5=[b9f3d2915b6b8d0c143f32ccec3f745e]
class Guid--><rect fill="#FEFECE" filter="url(#f101fhba04qhn1)" height="48" id="Guid" style="stroke:#A80036;stroke-width:1.5;" width="58" x="565.5" y="446"/><ellipse cx="580.5" cy="462" fill="#ADD1B2" rx="11" ry="11" style="stroke:#A80036;stroke-width:1.0;"/><path d="M583.2656,457.875 Q583.4219,457.6563 583.6094,457.5469 Q583.7969,457.4375 584.0156,457.4375 Q584.3906,457.4375 584.625,457.6953 Q584.8594,457.9531 584.8594,458.5625 L584.8594,460.0156 Q584.8594,460.625 584.625,460.8906 Q584.3906,461.1563 584.0156,461.1563 Q583.6719,461.1563 583.4688,460.9531 Q583.2656,460.7656 583.1563,460.25 Q583.1094,459.8906 582.9219,459.7031 Q582.5938,459.3281 581.9844,459.1094 Q581.375,458.8906 580.75,458.8906 Q579.9844,458.8906 579.3516,459.2188 Q578.7188,459.5469 578.2266,460.2969 Q577.7344,461.0469 577.7344,462.0781 L577.7344,463.1719 Q577.7344,464.4063 578.625,465.2266 Q579.5156,466.0469 581.1094,466.0469 Q582.0469,466.0469 582.7031,465.7969 Q583.0938,465.6406 583.5156,465.2031 Q583.7813,464.9375 583.9297,464.8594 Q584.0781,464.7813 584.2813,464.7813 Q584.6094,464.7813 584.8672,465.0391 Q585.125,465.2969 585.125,465.6406 Q585.125,465.9844 584.7813,466.3906 Q584.2813,466.9688 583.4844,467.2969 Q582.4063,467.75 581.1094,467.75 Q579.5938,467.75 578.3906,467.125 Q577.4063,466.625 576.7188,465.5547 Q576.0313,464.4844 576.0313,463.2031 L576.0313,462.0469 Q576.0313,460.7188 576.6484,459.5703 Q577.2656,458.4219 578.3594,457.8047 Q579.4531,457.1875 580.6875,457.1875 Q581.4219,457.1875 582.0703,457.3516 Q582.7188,457.5156 583.2656,457.875 Z " fill="#000000"/><text fill="#000000" font-family="sans-serif" font-size="12" lengthAdjust="spacing" textLength="26" x="594.5" y="466.9102">Guid</text><line style="stroke:#A80036;stroke-width:1.5;" x1="566.5" x2="622.5" y1="478" y2="478"/><line style="stroke:#A80036;stroke-width:1.5;" x1="566.5" x2="622.5" y1="486" y2="486"/><!--MD5=[9df70cf33be424c1b8543b3f439cae89]
class String--><rect fill="#FEFECE" filter="url(#f101fhba04qhn1)" height="48" id="String" style="stroke:#A80036;stroke-width:1.5;" width="64" x="879.5" y="446"/><ellipse cx="894.5" cy="462" fill="#ADD1B2" rx="11" ry="11" style="stroke:#A80036;stroke-width:1.0;"/><path d="M897.2656,457.875 Q897.4219,457.6563 897.6094,457.5469 Q897.7969,457.4375 898.0156,457.4375 Q898.3906,457.4375 898.625,457.6953 Q898.8594,457.9531 898.8594,458.5625 L898.8594,460.0156 Q898.8594,460.625 898.625,460.8906 Q898.3906,461.1563 898.0156,461.1563 Q897.6719,461.1563 897.4688,460.9531 Q897.2656,460.7656 897.1563,460.25 Q897.1094,459.8906 896.9219,459.7031 Q896.5938,459.3281 895.9844,459.1094 Q895.375,458.8906 894.75,458.8906 Q893.9844,458.8906 893.3516,459.2188 Q892.7188,459.5469 892.2266,460.2969 Q891.7344,461.0469 891.7344,462.0781 L891.7344,463.1719 Q891.7344,464.4063 892.625,465.2266 Q893.5156,466.0469 895.1094,466.0469 Q896.0469,466.0469 896.7031,465.7969 Q897.0938,465.6406 897.5156,465.2031 Q897.7813,464.9375 897.9297,464.8594 Q898.0781,464.7813 898.2813,464.7813 Q898.6094,464.7813 898.8672,465.0391 Q899.125,465.2969 899.125,465.6406 Q899.125,465.9844 898.7813,466.3906 Q898.2813,466.9688 897.4844,467.2969 Q896.4063,467.75 895.1094,467.75 Q893.5938,467.75 892.3906,467.125 Q891.4063,466.625 890.7188,465.5547 Q890.0313,464.4844 890.0313,463.2031 L890.0313,462.0469 Q890.0313,460.7188 890.6484,459.5703 Q891.2656,458.4219 892.3594,457.8047 Q893.4531,457.1875 894.6875,457.1875 Q895.4219,457.1875 896.0703,457.3516 Q896.7188,457.5156 897.2656,457.875 Z " fill="#000000"/><text fill="#000000" font-family="sans-serif" font-size="12" lengthAdjust="spacing" textLength="32" x="908.5" y="466.9102">String</text><line style="stroke:#A80036;stroke-width:1.5;" x1="880.5" x2="942.5" y1="478" y2="478"/><line style="stroke:#A80036;stroke-width:1.5;" x1="880.5" x2="942.5" y1="486" y2="486"/><!--MD5=[fe6b2754769bc87cf156126798433078]
class CommandWrapper--><rect fill="#FEFECE" filter="url(#f101fhba04qhn1)" height="48" id="CommandWrapper" style="stroke:#A80036;stroke-width:1.5;" width="138" x="567.5" y="32.5"/><ellipse cx="582.5" cy="48.5" fill="#ADD1B2" rx="11" ry="11" style="stroke:#A80036;stroke-width:1.0;"/><path d="M585.2656,44.375 Q585.4219,44.1563 585.6094,44.0469 Q585.7969,43.9375 586.0156,43.9375 Q586.3906,43.9375 586.625,44.1953 Q586.8594,44.4531 586.8594,45.0625 L586.8594,46.5156 Q586.8594,47.125 586.625,47.3906 Q586.3906,47.6563 586.0156,47.6563 Q585.6719,47.6563 585.4688,47.4531 Q585.2656,47.2656 585.1563,46.75 Q585.1094,46.3906 584.9219,46.2031 Q584.5938,45.8281 583.9844,45.6094 Q583.375,45.3906 582.75,45.3906 Q581.9844,45.3906 581.3516,45.7188 Q580.7188,46.0469 580.2266,46.7969 Q579.7344,47.5469 579.7344,48.5781 L579.7344,49.6719 Q579.7344,50.9063 580.625,51.7266 Q581.5156,52.5469 583.1094,52.5469 Q584.0469,52.5469 584.7031,52.2969 Q585.0938,52.1406 585.5156,51.7031 Q585.7813,51.4375 585.9297,51.3594 Q586.0781,51.2813 586.2813,51.2813 Q586.6094,51.2813 586.8672,51.5391 Q587.125,51.7969 587.125,52.1406 Q587.125,52.4844 586.7813,52.8906 Q586.2813,53.4688 585.4844,53.7969 Q584.4063,54.25 583.1094,54.25 Q581.5938,54.25 580.3906,53.625 Q579.4063,53.125 578.7188,52.0547 Q578.0313,50.9844 578.0313,49.7031 L578.0313,48.5469 Q578.0313,47.2188 578.6484,46.0703 Q579.2656,44.9219 580.3594,44.3047 Q581.4531,43.6875 582.6875,43.6875 Q583.4219,43.6875 584.0703,43.8516 Q584.7188,44.0156 585.2656,44.375 Z " fill="#000000"/><text fill="#000000" font-family="sans-serif" font-size="12" lengthAdjust="spacing" textLength="106" x="596.5" y="53.4102">CommandWrapper</text><line style="stroke:#A80036;stroke-width:1.5;" x1="568.5" x2="704.5" y1="64.5" y2="64.5"/><line style="stroke:#A80036;stroke-width:1.5;" x1="568.5" x2="704.5" y1="72.5" y2="72.5"/><!--MD5=[f5d54f60ec6d089d1cb017027d5a65a8]
class CommandDTO--><rect fill="#FEFECE" filter="url(#f101fhba04qhn1)" height="48" id="CommandDTO" style="stroke:#A80036;stroke-width:1.5;" width="116" x="536.5" y="338"/><ellipse cx="551.5" cy="354" fill="#ADD1B2" rx="11" ry="11" style="stroke:#A80036;stroke-width:1.0;"/><path d="M554.2656,349.875 Q554.4219,349.6563 554.6094,349.5469 Q554.7969,349.4375 555.0156,349.4375 Q555.3906,349.4375 555.625,349.6953 Q555.8594,349.9531 555.8594,350.5625 L555.8594,352.0156 Q555.8594,352.625 555.625,352.8906 Q555.3906,353.1563 555.0156,353.1563 Q554.6719,353.1563 554.4688,352.9531 Q554.2656,352.7656 554.1563,352.25 Q554.1094,351.8906 553.9219,351.7031 Q553.5938,351.3281 552.9844,351.1094 Q552.375,350.8906 551.75,350.8906 Q550.9844,350.8906 550.3516,351.2188 Q549.7188,351.5469 549.2266,352.2969 Q548.7344,353.0469 548.7344,354.0781 L548.7344,355.1719 Q548.7344,356.4063 549.625,357.2266 Q550.5156,358.0469 552.1094,358.0469 Q553.0469,358.0469 553.7031,357.7969 Q554.0938,357.6406 554.5156,357.2031 Q554.7813,356.9375 554.9297,356.8594 Q555.0781,356.7813 555.2813,356.7813 Q555.6094,356.7813 555.8672,357.0391 Q556.125,357.2969 556.125,357.6406 Q556.125,357.9844 555.7813,358.3906 Q555.2813,358.9688 554.4844,359.2969 Q553.4063,359.75 552.1094,359.75 Q550.5938,359.75 549.3906,359.125 Q548.4063,358.625 547.7188,357.5547 Q547.0313,356.4844 547.0313,355.2031 L547.0313,354.0469 Q547.0313,352.7188 547.6484,351.5703 Q548.2656,350.4219 549.3594,349.8047 Q550.4531,349.1875 551.6875,349.1875 Q552.4219,349.1875 553.0703,349.3516 Q553.7188,349.5156 554.2656,349.875 Z " fill="#000000"/><text fill="#000000" font-family="sans-serif" font-size="12" lengthAdjust="spacing" textLength="84" x="565.5" y="358.9102">CommandDTO</text><line style="stroke:#A80036;stroke-width:1.5;" x1="537.5" x2="651.5" y1="370" y2="370"/><line style="stroke:#A80036;stroke-width:1.5;" x1="537.5" x2="651.5" y1="378" y2="378"/><!--MD5=[78563b2dced031dcc99154e54e28d438]
reverse link BaseDTO to AdressDTO--><path codeLine="35" d="M1377.99,259.97 C1369.9,266.88 1360.89,273.37 1351.5,278 C1219.76,342.96 1170.74,310.26 1026.5,338 C1004.51,342.23 980.18,347.07 959.59,351.22 " fill="none" id="BaseDTO-backto-AdressDTO" style="stroke:#A80036;stroke-width:1.0;"/><polygon fill="none" points="1373.33,254.74,1392.68,246.11,1382.94,264.92,1373.33,254.74" style="stroke:#A80036;stroke-width:1.0;"/><!--MD5=[fbaf78f1916dfdbf30330f0660ca3284]
link AdressDTO to Guid--><path codeLine="36" d="M863.35,379.1 C798.63,400.74 685.15,438.69 628.57,457.61 " fill="none" id="AdressDTO-to-Guid" style="stroke:#A80036;stroke-width:1.0;"/><polygon fill="#A80036" points="623.61,459.27,633.4139,460.2098,628.352,457.6846,630.8772,452.6226,623.61,459.27" style="stroke:#A80036;stroke-width:1.0;"/><text fill="#000000" font-family="sans-serif" font-size="13" lengthAdjust="spacing" textLength="38" x="631.5782" y="472.3421">TypeId</text><!--MD5=[b2555b513fccde1a3f7f8fb3f3fcdb23]
link AdressDTO to String--><path codeLine="37" d="M863.13,372.97 C819.13,394.93 822.92,446.86 874.5,463.66 " fill="none" id="AdressDTO-to-String" style="stroke:#A80036;stroke-width:1.0;"/><polygon fill="#A80036" points="879.3,465.08,871.8149,458.6789,874.5077,463.6537,869.5329,466.3465,879.3,465.08" style="stroke:#A80036;stroke-width:1.0;"/><text fill="#000000" font-family="sans-serif" font-size="13" lengthAdjust="spacing" textLength="41" x="830.5597" y="460.7033">Name1</text><!--MD5=[b2555b513fccde1a3f7f8fb3f3fcdb23]
link AdressDTO to String--><path codeLine="38" d="M867.33,386 C853.98,407.35 856.67,438.38 875.42,455.82 " fill="none" id="AdressDTO-to-String-1" style="stroke:#A80036;stroke-width:1.0;"/><polygon fill="#A80036" points="879.38,459.12,875.0235,450.287,875.5377,455.9205,869.9043,456.4347,879.38,459.12" style="stroke:#A80036;stroke-width:1.0;"/><text fill="#000000" font-family="sans-serif" font-size="13" lengthAdjust="spacing" textLength="41" x="830.6514" y="472.2179">Name2</text><!--MD5=[b2555b513fccde1a3f7f8fb3f3fcdb23]
link AdressDTO to String--><path codeLine="39" d="M889.42,386 C884.41,402 883.92,423.45 887.93,440.53 " fill="none" id="AdressDTO-to-String-2" style="stroke:#A80036;stroke-width:1.0;"/><polygon fill="#A80036" points="889.32,445.68,890.8355,435.9484,888.0165,440.8529,883.1121,438.034,889.32,445.68" style="stroke:#A80036;stroke-width:1.0;"/><text fill="#000000" font-family="sans-serif" font-size="13" lengthAdjust="spacing" textLength="48" x="830.0636" y="435.34">Adress1</text><!--MD5=[b2555b513fccde1a3f7f8fb3f3fcdb23]
link AdressDTO to String--><path codeLine="40" d="M911.5,386 C911.5,402 911.5,423.45 911.5,440.53 " fill="none" id="AdressDTO-to-String-3" style="stroke:#A80036;stroke-width:1.0;"/><polygon fill="#A80036" points="911.5,445.68,915.5,436.68,911.5,440.68,907.5,436.68,911.5,445.68" style="stroke:#A80036;stroke-width:1.0;"/><text fill="#000000" font-family="sans-serif" font-size="13" lengthAdjust="spacing" textLength="48" x="917.35" y="435.34">Adress2</text><!--MD5=[b2555b513fccde1a3f7f8fb3f3fcdb23]
link AdressDTO to String--><path codeLine="41" d="M933.58,386 C938.59,402 939.08,423.45 935.07,440.53 " fill="none" id="AdressDTO-to-String-4" style="stroke:#A80036;stroke-width:1.0;"/><polygon fill="#A80036" points="933.68,445.68,939.8879,438.034,934.9835,440.8529,932.1645,435.9484,933.68,445.68" style="stroke:#A80036;stroke-width:1.0;"/><text fill="#000000" font-family="sans-serif" font-size="13" lengthAdjust="spacing" textLength="80" x="951.1681" y="454.6346">Housenumber</text><!--MD5=[b2555b513fccde1a3f7f8fb3f3fcdb23]
link AdressDTO to String--><path codeLine="42" d="M955.67,386 C969.02,407.35 966.33,438.38 947.58,455.82 " fill="none" id="AdressDTO-to-String-5" style="stroke:#A80036;stroke-width:1.0;"/><polygon fill="#A80036" points="943.62,459.12,953.0957,456.4347,947.4623,455.9205,947.9765,450.287,943.62,459.12" style="stroke:#A80036;stroke-width:1.0;"/><text fill="#000000" font-family="sans-serif" font-size="13" lengthAdjust="spacing" textLength="23" x="951.3898" y="472.1334">City</text><!--MD5=[b2555b513fccde1a3f7f8fb3f3fcdb23]
link AdressDTO to String--><path codeLine="43" d="M959.87,372.97 C1003.87,394.93 1000.08,446.86 948.5,463.66 " fill="none" id="AdressDTO-to-String-6" style="stroke:#A80036;stroke-width:1.0;"/><polygon fill="#A80036" points="943.7,465.08,953.4671,466.3465,948.4923,463.6537,951.1851,458.6789,943.7,465.08" style="stroke:#A80036;stroke-width:1.0;"/><text fill="#000000" font-family="sans-serif" font-size="13" lengthAdjust="spacing" textLength="55" x="951.3491" y="478.9923">Postcode</text><!--MD5=[bc3fa4595b76ff57a3597bc204395357]
reverse link CommandWrapper to FindAdressesWrapper--><path codeLine="44" d="M690.41,90.67 C701.12,96.36 712.46,101.78 723.5,106 C836.7,149.28 872.33,135.03 989.5,166 C995.22,167.51 1001.02,169.08 1006.88,170.69 " fill="none" id="CommandWrapper-backto-FindAdressesWrapper" style="stroke:#A80036;stroke-width:1.0;"/><polygon fill="none" points="686.65,96.58,672.62,80.7,693.49,84.37,686.65,96.58" style="stroke:#A80036;stroke-width:1.0;"/><!--MD5=[606431aec55ec72d298e7cd6b8ef7e35]
link FindAdressesWrapper to Guid--><path codeLine="45" d="M1006.87,276.13 C955,294.29 897.81,315.68 846.5,338 C766.12,372.96 675.86,422.53 628.2,449.57 " fill="none" id="FindAdressesWrapper-to-Guid" style="stroke:#A80036;stroke-width:1.0;"/><polygon fill="#A80036" points="623.72,452.11,633.5205,451.1351,628.0656,449.637,629.5637,444.1821,623.72,452.11" style="stroke:#A80036;stroke-width:1.0;"/><text fill="#000000" font-family="sans-serif" font-size="13" lengthAdjust="spacing" textLength="38" x="631.4051" y="445.5069">TypeId</text><!--MD5=[cce213057d432eb82882cbbb94d45eda]
link FindAdressesWrapper to CommandDTO--><path codeLine="46" d="M1006.91,273.41 C1001.04,275 995.23,276.53 989.5,278 C873.43,307.77 736.19,334.8 657.84,349.47 " fill="none" id="FindAdressesWrapper-to-CommandDTO" style="stroke:#A80036;stroke-width:1.0;"/><polygon fill="#A80036" points="652.77,350.42,662.3498,352.7063,657.6857,349.5055,660.8865,344.8413,652.77,350.42" style="stroke:#A80036;stroke-width:1.0;"/><text fill="#000000" font-family="sans-serif" font-size="13" lengthAdjust="spacing" textLength="27" x="660.6198" y="345.7928">Cmd</text><!--MD5=[27cf3143032e106437423afc79db652f]
link FindAdressesWrapper to String--><path codeLine="47" d="M1171.58,278.03 C1169.41,312.75 1161.08,356.46 1135.5,386 C1087.46,441.47 998.84,459.91 948.66,466.01 " fill="none" id="FindAdressesWrapper-to-String" style="stroke:#A80036;stroke-width:1.0;"/><polygon fill="#A80036" points="943.63,466.6,953.0279,469.5461,948.5973,466.029,952.1144,461.5984,943.63,466.6" style="stroke:#A80036;stroke-width:1.0;"/><text fill="#000000" font-family="sans-serif" font-size="13" lengthAdjust="spacing" textLength="66" x="951.5677" y="480.6772">SearchText</text><!--MD5=[5a6bab8df4ee897455db558573a747c0]
link FindAdressesWrapper to List`1--><path codeLine="48" d="M1134.41,278.33 C1122.07,297.25 1108.81,317.6 1098.52,333.37 " fill="none" id="FindAdressesWrapper-to-List`1" style="stroke:#A80036;stroke-width:1.0;"/><polygon fill="#A80036" points="1095.7,337.69,1103.9657,332.3349,1098.4305,333.5014,1097.2639,327.9661,1095.7,337.69" style="stroke:#A80036;stroke-width:1.0;"/><text fill="#000000" font-family="sans-serif" font-size="13" lengthAdjust="spacing" textLength="120" x="964.22" y="326.9507">Result&lt;AdressDTO&gt;</text><!--MD5=[abc28d54e4e35ca537f3987bc7e15e70]
reverse link CommandWrapper to GetAdressWrapper--><path codeLine="49" d="M598.06,94.47 C576.12,115.57 548.2,142.42 523.73,165.96 " fill="none" id="CommandWrapper-backto-GetAdressWrapper" style="stroke:#A80036;stroke-width:1.0;"/><polygon fill="none" points="593.24,89.4,612.5,80.58,602.94,99.49,593.24,89.4" style="stroke:#A80036;stroke-width:1.0;"/><!--MD5=[4fecfaffadcdb8f999294a6fae315043]
link GetAdressWrapper to Guid--><path codeLine="50" d="M463.52,278.26 C469.76,311.01 483.12,352.52 502.5,386 C517.27,411.53 540.91,435.98 561.25,451.65 " fill="none" id="GetAdressWrapper-to-Guid" style="stroke:#A80036;stroke-width:1.0;"/><polygon fill="#A80036" points="565.27,454.66,560.47,446.06,561.27,451.66,555.67,452.46,565.27,454.66" style="stroke:#A80036;stroke-width:1.0;"/><text fill="#000000" font-family="sans-serif" font-size="13" lengthAdjust="spacing" textLength="38" x="519.5833" y="448.4633">TypeId</text><!--MD5=[4fecfaffadcdb8f999294a6fae315043]
link GetAdressWrapper to Guid--><path codeLine="52" d="M493.94,278.26 C504.76,311.01 518.12,352.52 537.5,386 C549.41,406.59 567.1,426.48 580.33,441.62 " fill="none" id="GetAdressWrapper-to-Guid-1" style="stroke:#A80036;stroke-width:1.0;"/><polygon fill="#A80036" points="583.93,445.76,581.034,436.3465,580.6456,441.99,575.0021,441.6016,583.93,445.76" style="stroke:#A80036;stroke-width:1.0;"/><text fill="#000000" font-family="sans-serif" font-size="13" lengthAdjust="spacing" textLength="10" x="569.9402" y="435.0387">Id</text><!--MD5=[f7ec91347518850ce83f09c4f315327d]
link GetAdressWrapper to CommandDTO--><path codeLine="51" d="M517.82,278.33 C535.52,297.41 554.57,317.95 569.25,333.77 " fill="none" id="GetAdressWrapper-to-CommandDTO" style="stroke:#A80036;stroke-width:1.0;"/><polygon fill="#A80036" points="572.88,337.69,569.6815,328.375,569.4756,334.0281,563.8224,333.8221,572.88,337.69" style="stroke:#A80036;stroke-width:1.0;"/><text fill="#000000" font-family="sans-serif" font-size="13" lengthAdjust="spacing" textLength="27" x="536.8805" y="326.9507">Cmd</text><!--MD5=[abb75d88c1b5c30140cab650c6b382a7]
link GetAdressWrapper to AdressDTO--><path codeLine="53" d="M608.12,272.39 C613.98,274.31 619.79,276.19 625.5,278 C706.21,303.65 800.73,330.46 858.34,346.44 " fill="none" id="GetAdressWrapper-to-AdressDTO" style="stroke:#A80036;stroke-width:1.0;"/><polygon fill="#A80036" points="863.46,347.86,855.8484,341.6099,858.6402,346.5299,853.7202,349.3217,863.46,347.86" style="stroke:#A80036;stroke-width:1.0;"/><text fill="#000000" font-family="sans-serif" font-size="13" lengthAdjust="spacing" textLength="37" x="818.3504" y="342.6782">Result</text><!--MD5=[9cbca43eb24129da06ce5f221e81d34d]
reverse link CommandWrapper to SetAdressWrapper--><path codeLine="54" d="M675.17,94.47 C697.24,115.57 725.32,142.42 749.93,165.96 " fill="none" id="CommandWrapper-backto-SetAdressWrapper" style="stroke:#A80036;stroke-width:1.0;"/><polygon fill="none" points="670.26,99.46,660.64,80.58,679.93,89.34,670.26,99.46" style="stroke:#A80036;stroke-width:1.0;"/><!--MD5=[ab67425edc20ab324a0e79a72355eade]
link SetAdressWrapper to Guid--><path codeLine="55" d="M747.19,278.2 C718.69,310 684.58,350.57 653.5,386 C636.87,404.95 617.69,425.89 604.94,442 " fill="none" id="SetAdressWrapper-to-Guid" style="stroke:#A80036;stroke-width:1.0;"/><polygon fill="#A80036" points="601.84,445.98,610.5264,441.3381,604.9127,442.0355,604.2152,436.4219,601.84,445.98" style="stroke:#A80036;stroke-width:1.0;"/><text fill="#000000" font-family="sans-serif" font-size="13" lengthAdjust="spacing" textLength="38" x="608.5896" y="435.315">TypeId</text><!--MD5=[ab67425edc20ab324a0e79a72355eade]
link SetAdressWrapper to Guid--><path codeLine="57" d="M777.87,278.2 C753.69,310 719.58,350.57 688.5,386 C669.45,407.71 647.06,432.02 628.07,448.69 " fill="none" id="SetAdressWrapper-to-Guid-1" style="stroke:#A80036;stroke-width:1.0;"/><polygon fill="#A80036" points="623.83,452.34,633.2665,449.5199,627.6263,449.086,628.0601,443.4459,623.83,452.34" style="stroke:#A80036;stroke-width:1.0;"/><text fill="#000000" font-family="sans-serif" font-size="13" lengthAdjust="spacing" textLength="10" x="631.3397" y="463.7604">Id</text><!--MD5=[64be510668cf52f4c15ed6243423dac0]
link SetAdressWrapper to CommandDTO--><path codeLine="56" d="M722.4,278.14 C691.95,297.87 659.06,319.17 634.26,335.24 " fill="none" id="SetAdressWrapper-to-CommandDTO" style="stroke:#A80036;stroke-width:1.0;"/><polygon fill="#A80036" points="630.04,337.97,639.7639,336.4061,634.2286,335.2395,635.3951,329.7043,630.04,337.97" style="stroke:#A80036;stroke-width:1.0;"/><text fill="#000000" font-family="sans-serif" font-size="13" lengthAdjust="spacing" textLength="27" x="608.6877" y="327.3025">Cmd</text><!--MD5=[94a885cca7ba0d929ad0698c9a0e22a6]
link SetAdressWrapper to AdressDTO--><path codeLine="58" d="M836.68,278.33 C850.42,297.41 866.6,317.95 880.59,333.77 " fill="none" id="SetAdressWrapper-to-AdressDTO" style="stroke:#A80036;stroke-width:1.0;"/><polygon fill="#A80036" points="884.1,337.69,881.0903,328.3123,880.7702,333.9601,875.1224,333.6399,884.1,337.69" style="stroke:#A80036;stroke-width:1.0;"/><text fill="#000000" font-family="sans-serif" font-size="13" lengthAdjust="spacing" textLength="41" x="882.3319" y="326.9507">Adress</text><!--MD5=[94a885cca7ba0d929ad0698c9a0e22a6]
link SetAdressWrapper to AdressDTO--><path codeLine="59" d="M862.46,278.33 C877.39,297.25 891.98,317.6 901.73,333.37 " fill="none" id="SetAdressWrapper-to-AdressDTO-1" style="stroke:#A80036;stroke-width:1.0;"/><polygon fill="#A80036" points="904.35,337.69,903.1111,327.9194,901.7607,333.4127,896.2674,332.0622,904.35,337.69" style="stroke:#A80036;stroke-width:1.0;"/><text fill="#000000" font-family="sans-serif" font-size="13" lengthAdjust="spacing" textLength="37" x="860.7772" y="326.9507">Result</text><!--MD5=[9b08d2a45fc0a2255361495ba25c3e76]
reverse link CommandWrapper to DeleteAdressWrapper--><path codeLine="60" d="M548.15,86.25 C481.85,107.92 388.88,138.51 307.5,166 C301.83,167.92 296.04,169.88 290.2,171.87 " fill="none" id="CommandWrapper-backto-DeleteAdressWrapper" style="stroke:#A80036;stroke-width:1.0;"/><polygon fill="none" points="546.22,79.52,567.4,79.97,550.56,92.83,546.22,79.52" style="stroke:#A80036;stroke-width:1.0;"/><!--MD5=[7ec9028265da5144379fbe690513b73e]
link DeleteAdressWrapper to Guid--><path codeLine="61" d="M237.48,278.05 C336.72,334.76 491.86,419.55 560.43,453.82 " fill="none" id="DeleteAdressWrapper-to-Guid" style="stroke:#A80036;stroke-width:1.0;"/><polygon fill="#A80036" points="565.22,456.2,558.9493,448.6054,560.745,453.9697,555.3807,455.7654,565.22,456.2" style="stroke:#A80036;stroke-width:1.0;"/><text fill="#000000" font-family="sans-serif" font-size="13" lengthAdjust="spacing" textLength="38" x="519.5254" y="468.7988">TypeId</text><!--MD5=[7ec9028265da5144379fbe690513b73e]
link DeleteAdressWrapper to Guid--><path codeLine="63" d="M259.78,278.05 C358.84,330.75 497.29,407.7 560.77,445.82 " fill="none" id="DeleteAdressWrapper-to-Guid-1" style="stroke:#A80036;stroke-width:1.0;"/><polygon fill="#A80036" points="565.21,448.49,559.5703,440.4157,560.9288,445.907,555.4375,447.2656,565.21,448.49" style="stroke:#A80036;stroke-width:1.0;"/><text fill="#000000" font-family="sans-serif" font-size="13" lengthAdjust="spacing" textLength="10" x="556.2531" y="435.1681">Id</text><!--MD5=[68babcd854570148b1daf17688fbb69c]
link DeleteAdressWrapper to CommandDTO--><path codeLine="62" d="M290.11,272.4 C295.98,274.32 301.79,276.19 307.5,278 C384.08,302.3 473.06,327.58 531.4,343.76 " fill="none" id="DeleteAdressWrapper-to-CommandDTO" style="stroke:#A80036;stroke-width:1.0;"/><polygon fill="#A80036" points="536.24,345.1,528.6284,338.8499,531.4202,343.7699,526.5002,346.5617,536.24,345.1" style="stroke:#A80036;stroke-width:1.0;"/><text fill="#000000" font-family="sans-serif" font-size="13" lengthAdjust="spacing" textLength="27" x="501.3913" y="339.8909">Cmd</text><!--MD5=[136bec06811b5527b422fe58fcd88141]
link DeleteAdressWrapper to AdressDTO--><path codeLine="64" d="M290.25,273.58 C296.05,275.16 301.82,276.64 307.5,278 C411.95,302.99 730.36,340.52 857.87,355 " fill="none" id="DeleteAdressWrapper-to-AdressDTO" style="stroke:#A80036;stroke-width:1.0;"/><polygon fill="#A80036" points="863.06,355.59,854.5631,350.6098,858.0913,355.0316,853.6696,358.5598,863.06,355.59" style="stroke:#A80036;stroke-width:1.0;"/><text fill="#000000" font-family="sans-serif" font-size="13" lengthAdjust="spacing" textLength="37" x="818.3201" y="369.2893">Result</text><!--MD5=[3462df36ac875b1fd8743aaa327320a6]
@startuml
class AdressDTO {
}
class FindAdressesWrapper <<partial>> {
    + FindAdressesWrapper(dto:CommandDTO)
    + {static} IsForMe(dto:CommandDTO) : bool
    + {static} ExecuteCommand(dto:CommandDTO) : CommandDTO
    + <<partial>> FindAdresses(searchText:String) : List<AdressDTO>
}
class GetAdressWrapper <<partial>> {
    + GetAdressWrapper(dto:CommandDTO)
    + {static} IsForMe(dto:CommandDTO) : bool
    + {static} ExecuteCommand(dto:CommandDTO) : CommandDTO
    + <<partial>> GetAdress(id:Guid) : AdressDTO
}
class SetAdressWrapper <<partial>> {
    + SetAdressWrapper(dto:CommandDTO)
    + {static} IsForMe(dto:CommandDTO) : bool
    + {static} ExecuteCommand(dto:CommandDTO) : CommandDTO
    + <<partial>> SetAdress(id:Guid, adress:AdressDTO) : AdressDTO
}
class DeleteAdressWrapper <<partial>> {
    + DeleteAdressWrapper(dto:CommandDTO)
    + {static} IsForMe(dto:CommandDTO) : bool
    + {static} ExecuteCommand(dto:CommandDTO) : CommandDTO
    + <<partial>> DeleteAdress(id:Guid) : AdressDTO
}
class AdressTypes <<static>> <<partial>> {
    + {static} Dispatch(dto:CommandDTO) : CommandDTO
}
class AdressTypes <<static>> <<partial>> {
    + {static} GetTypes(commandTypes:List<CommandTypeDTO>) : void
}
class "List`1"<T> {
}
BaseDTO <|- - AdressDTO
AdressDTO - -> "TypeId" Guid
AdressDTO - -> "Name1" String
AdressDTO - -> "Name2" String
AdressDTO - -> "Adress1" String
AdressDTO - -> "Adress2" String
AdressDTO - -> "Housenumber" String
AdressDTO - -> "City" String
AdressDTO - -> "Postcode" String
CommandWrapper <|- - FindAdressesWrapper
FindAdressesWrapper - -> "TypeId" Guid
FindAdressesWrapper - -> "Cmd" CommandDTO
FindAdressesWrapper - -> "SearchText" String
FindAdressesWrapper - -> "Result<AdressDTO>" "List`1"
CommandWrapper <|- - GetAdressWrapper
GetAdressWrapper - -> "TypeId" Guid
GetAdressWrapper - -> "Cmd" CommandDTO
GetAdressWrapper - -> "Id" Guid
GetAdressWrapper - -> "Result" AdressDTO
CommandWrapper <|- - SetAdressWrapper
SetAdressWrapper - -> "TypeId" Guid
SetAdressWrapper - -> "Cmd" CommandDTO
SetAdressWrapper - -> "Id" Guid
SetAdressWrapper - -> "Adress" AdressDTO
SetAdressWrapper - -> "Result" AdressDTO
CommandWrapper <|- - DeleteAdressWrapper
DeleteAdressWrapper - -> "TypeId" Guid
DeleteAdressWrapper - -> "Cmd" CommandDTO
DeleteAdressWrapper - -> "Id" Guid
DeleteAdressWrapper - -> "Result" AdressDTO
@enduml

PlantUML version 1.2021.10(Mon Aug 30 15:43:48 CEST 2021)
(GPL source distribution)
Java Runtime: Java(TM) SE Runtime Environment
JVM: Java HotSpot(TM) Client VM
Default Encoding: Cp1252
Language: de
Country: CH
--></g></svg>