<?xml version="1.0" encoding="UTF-8" standalone="no"?><svg xmlns="http://www.w3.org/2000/svg" xmlns:xlink="http://www.w3.org/1999/xlink" contentScriptType="application/ecmascript" contentStyleType="text/css" height="479px" preserveAspectRatio="none" style="width:1061px;height:479px;background:#FFFFFF;" version="1.1" viewBox="0 0 1061 479" width="1061px" zoomAndPan="magnify"><defs><filter height="300%" id="fx9bw6lhlf0if" width="300%" x="-1" y="-1"><feGaussianBlur result="blurOut" stdDeviation="2.0"/><feColorMatrix in="blurOut" result="blurOut2" type="matrix" values="0 0 0 0 0 0 0 0 0 0 0 0 0 0 0 0 0 0 .4 0"/><feOffset dx="4.0" dy="4.0" in="blurOut2" result="blurOut3"/><feBlend in="SourceGraphic" in2="blurOut3" mode="normal"/></filter></defs><g><!--MD5=[a5d4fcdae0bd58dbfa0890c54d6b74e5]
class AdressDTO--><rect codeLine="1" fill="#FEFECE" filter="url(#fx9bw6lhlf0if)" height="48" id="AdressDTO" style="stroke:#A80036;stroke-width:1.5;" width="96" x="736.5" y="309"/><ellipse cx="751.5" cy="325" fill="#ADD1B2" rx="11" ry="11" style="stroke:#A80036;stroke-width:1.0;"/><path d="M754.2656,320.875 Q754.4219,320.6563 754.6094,320.5469 Q754.7969,320.4375 755.0156,320.4375 Q755.3906,320.4375 755.625,320.6953 Q755.8594,320.9531 755.8594,321.5625 L755.8594,323.0156 Q755.8594,323.625 755.625,323.8906 Q755.3906,324.1563 755.0156,324.1563 Q754.6719,324.1563 754.4688,323.9531 Q754.2656,323.7656 754.1563,323.25 Q754.1094,322.8906 753.9219,322.7031 Q753.5938,322.3281 752.9844,322.1094 Q752.375,321.8906 751.75,321.8906 Q750.9844,321.8906 750.3516,322.2188 Q749.7188,322.5469 749.2266,323.2969 Q748.7344,324.0469 748.7344,325.0781 L748.7344,326.1719 Q748.7344,327.4063 749.625,328.2266 Q750.5156,329.0469 752.1094,329.0469 Q753.0469,329.0469 753.7031,328.7969 Q754.0938,328.6406 754.5156,328.2031 Q754.7813,327.9375 754.9297,327.8594 Q755.0781,327.7813 755.2813,327.7813 Q755.6094,327.7813 755.8672,328.0391 Q756.125,328.2969 756.125,328.6406 Q756.125,328.9844 755.7813,329.3906 Q755.2813,329.9688 754.4844,330.2969 Q753.4063,330.75 752.1094,330.75 Q750.5938,330.75 749.3906,330.125 Q748.4063,329.625 747.7188,328.5547 Q747.0313,327.4844 747.0313,326.2031 L747.0313,325.0469 Q747.0313,323.7188 747.6484,322.5703 Q748.2656,321.4219 749.3594,320.8047 Q750.4531,320.1875 751.6875,320.1875 Q752.4219,320.1875 753.0703,320.3516 Q753.7188,320.5156 754.2656,320.875 Z " fill="#000000"/><text fill="#000000" font-family="sans-serif" font-size="12" lengthAdjust="spacing" textLength="64" x="765.5" y="329.9102">AdressDTO</text><line style="stroke:#A80036;stroke-width:1.5;" x1="737.5" x2="831.5" y1="341" y2="341"/><line style="stroke:#A80036;stroke-width:1.5;" x1="737.5" x2="831.5" y1="349" y2="349"/><!--MD5=[52e7282596a0d0be74e41adb7f2f525a]
class FindAdresses--><rect codeLine="3" fill="#FEFECE" filter="url(#fx9bw6lhlf0if)" height="111.5313" id="FindAdresses" style="stroke:#A80036;stroke-width:1.5;" width="283" x="7" y="137"/><ellipse cx="105.75" cy="157.0938" fill="#ADD1B2" rx="11" ry="11" style="stroke:#A80036;stroke-width:1.0;"/><path d="M108.5156,152.9688 Q108.6719,152.75 108.8594,152.6406 Q109.0469,152.5313 109.2656,152.5313 Q109.6406,152.5313 109.875,152.7891 Q110.1094,153.0469 110.1094,153.6563 L110.1094,155.1094 Q110.1094,155.7188 109.875,155.9844 Q109.6406,156.25 109.2656,156.25 Q108.9219,156.25 108.7188,156.0469 Q108.5156,155.8594 108.4063,155.3438 Q108.3594,154.9844 108.1719,154.7969 Q107.8438,154.4219 107.2344,154.2031 Q106.625,153.9844 106,153.9844 Q105.2344,153.9844 104.6016,154.3125 Q103.9688,154.6406 103.4766,155.3906 Q102.9844,156.1406 102.9844,157.1719 L102.9844,158.2656 Q102.9844,159.5 103.875,160.3203 Q104.7656,161.1406 106.3594,161.1406 Q107.2969,161.1406 107.9531,160.8906 Q108.3438,160.7344 108.7656,160.2969 Q109.0313,160.0313 109.1797,159.9531 Q109.3281,159.875 109.5313,159.875 Q109.8594,159.875 110.1172,160.1328 Q110.375,160.3906 110.375,160.7344 Q110.375,161.0781 110.0313,161.4844 Q109.5313,162.0625 108.7344,162.3906 Q107.6563,162.8438 106.3594,162.8438 Q104.8438,162.8438 103.6406,162.2188 Q102.6563,161.7188 101.9688,160.6484 Q101.2813,159.5781 101.2813,158.2969 L101.2813,157.1406 Q101.2813,155.8125 101.8984,154.6641 Q102.5156,153.5156 103.6094,152.8984 Q104.7031,152.2813 105.9375,152.2813 Q106.6719,152.2813 107.3203,152.4453 Q107.9688,152.6094 108.5156,152.9688 Z " fill="#000000"/><text fill="#000000" font-family="sans-serif" font-size="12" font-style="italic" lengthAdjust="spacing" textLength="48" x="140.75" y="154.457">«partial»</text><text fill="#000000" font-family="sans-serif" font-size="12" lengthAdjust="spacing" textLength="77" x="126.25" y="169.5508">FindAdresses</text><line style="stroke:#A80036;stroke-width:1.5;" x1="8" x2="289" y1="177.1875" y2="177.1875"/><line style="stroke:#A80036;stroke-width:1.5;" x1="8" x2="289" y1="185.1875" y2="185.1875"/><ellipse cx="18" cy="196.1875" fill="#84BE84" rx="3" ry="3" style="stroke:#038048;stroke-width:1.0;"/><text fill="#000000" font-family="sans-serif" font-size="11" lengthAdjust="spacing" textLength="162" x="27" y="200.6064">FindAdresses(dto:CommandDTO)</text><ellipse cx="18" cy="210.0234" fill="#84BE84" rx="3" ry="3" style="stroke:#038048;stroke-width:1.0;"/><text fill="#000000" font-family="sans-serif" font-size="11" lengthAdjust="spacing" text-decoration="underline" textLength="161" x="27" y="214.4424">IsForMe(dto:CommandDTO) : bool</text><ellipse cx="18" cy="223.8594" fill="#84BE84" rx="3" ry="3" style="stroke:#038048;stroke-width:1.0;"/><text fill="#000000" font-family="sans-serif" font-size="11" lengthAdjust="spacing" text-decoration="underline" textLength="257" x="27" y="228.2783">ExecuteCommand(dto:CommandDTO) : CommandDTO</text><ellipse cx="18" cy="237.6953" fill="#84BE84" rx="3" ry="3" style="stroke:#038048;stroke-width:1.0;"/><text fill="#000000" font-family="sans-serif" font-size="11" lengthAdjust="spacing" textLength="215" x="27" y="242.1143">«partial» ExecuteCommand() : CommandDTO</text><!--MD5=[e13a488fb3eda69cf7c1bc4ca3586afc]
class GetAdress--><rect codeLine="9" fill="#FEFECE" filter="url(#fx9bw6lhlf0if)" height="111.5313" id="GetAdress" style="stroke:#A80036;stroke-width:1.5;" width="283" x="325" y="137"/><ellipse cx="433.25" cy="157.0938" fill="#ADD1B2" rx="11" ry="11" style="stroke:#A80036;stroke-width:1.0;"/><path d="M436.0156,152.9688 Q436.1719,152.75 436.3594,152.6406 Q436.5469,152.5313 436.7656,152.5313 Q437.1406,152.5313 437.375,152.7891 Q437.6094,153.0469 437.6094,153.6563 L437.6094,155.1094 Q437.6094,155.7188 437.375,155.9844 Q437.1406,156.25 436.7656,156.25 Q436.4219,156.25 436.2188,156.0469 Q436.0156,155.8594 435.9063,155.3438 Q435.8594,154.9844 435.6719,154.7969 Q435.3438,154.4219 434.7344,154.2031 Q434.125,153.9844 433.5,153.9844 Q432.7344,153.9844 432.1016,154.3125 Q431.4688,154.6406 430.9766,155.3906 Q430.4844,156.1406 430.4844,157.1719 L430.4844,158.2656 Q430.4844,159.5 431.375,160.3203 Q432.2656,161.1406 433.8594,161.1406 Q434.7969,161.1406 435.4531,160.8906 Q435.8438,160.7344 436.2656,160.2969 Q436.5313,160.0313 436.6797,159.9531 Q436.8281,159.875 437.0313,159.875 Q437.3594,159.875 437.6172,160.1328 Q437.875,160.3906 437.875,160.7344 Q437.875,161.0781 437.5313,161.4844 Q437.0313,162.0625 436.2344,162.3906 Q435.1563,162.8438 433.8594,162.8438 Q432.3438,162.8438 431.1406,162.2188 Q430.1563,161.7188 429.4688,160.6484 Q428.7813,159.5781 428.7813,158.2969 L428.7813,157.1406 Q428.7813,155.8125 429.3984,154.6641 Q430.0156,153.5156 431.1094,152.8984 Q432.2031,152.2813 433.4375,152.2813 Q434.1719,152.2813 434.8203,152.4453 Q435.4688,152.6094 436.0156,152.9688 Z " fill="#000000"/><text fill="#000000" font-family="sans-serif" font-size="12" font-style="italic" lengthAdjust="spacing" textLength="48" x="458.75" y="154.457">«partial»</text><text fill="#000000" font-family="sans-serif" font-size="12" lengthAdjust="spacing" textLength="58" x="453.75" y="169.5508">GetAdress</text><line style="stroke:#A80036;stroke-width:1.5;" x1="326" x2="607" y1="177.1875" y2="177.1875"/><line style="stroke:#A80036;stroke-width:1.5;" x1="326" x2="607" y1="185.1875" y2="185.1875"/><ellipse cx="336" cy="196.1875" fill="#84BE84" rx="3" ry="3" style="stroke:#038048;stroke-width:1.0;"/><text fill="#000000" font-family="sans-serif" font-size="11" lengthAdjust="spacing" textLength="147" x="345" y="200.6064">GetAdress(dto:CommandDTO)</text><ellipse cx="336" cy="210.0234" fill="#84BE84" rx="3" ry="3" style="stroke:#038048;stroke-width:1.0;"/><text fill="#000000" font-family="sans-serif" font-size="11" lengthAdjust="spacing" text-decoration="underline" textLength="161" x="345" y="214.4424">IsForMe(dto:CommandDTO) : bool</text><ellipse cx="336" cy="223.8594" fill="#84BE84" rx="3" ry="3" style="stroke:#038048;stroke-width:1.0;"/><text fill="#000000" font-family="sans-serif" font-size="11" lengthAdjust="spacing" text-decoration="underline" textLength="257" x="345" y="228.2783">ExecuteCommand(dto:CommandDTO) : CommandDTO</text><ellipse cx="336" cy="237.6953" fill="#84BE84" rx="3" ry="3" style="stroke:#038048;stroke-width:1.0;"/><text fill="#000000" font-family="sans-serif" font-size="11" lengthAdjust="spacing" textLength="215" x="345" y="242.1143">«partial» ExecuteCommand() : CommandDTO</text><!--MD5=[5612b83e7a8dad6225856d806bf84e08]
class SetAdress--><rect codeLine="15" fill="#FEFECE" filter="url(#fx9bw6lhlf0if)" height="111.5313" id="SetAdress" style="stroke:#A80036;stroke-width:1.5;" width="283" x="643" y="137"/><ellipse cx="751.75" cy="157.0938" fill="#ADD1B2" rx="11" ry="11" style="stroke:#A80036;stroke-width:1.0;"/><path d="M754.5156,152.9688 Q754.6719,152.75 754.8594,152.6406 Q755.0469,152.5313 755.2656,152.5313 Q755.6406,152.5313 755.875,152.7891 Q756.1094,153.0469 756.1094,153.6563 L756.1094,155.1094 Q756.1094,155.7188 755.875,155.9844 Q755.6406,156.25 755.2656,156.25 Q754.9219,156.25 754.7188,156.0469 Q754.5156,155.8594 754.4063,155.3438 Q754.3594,154.9844 754.1719,154.7969 Q753.8438,154.4219 753.2344,154.2031 Q752.625,153.9844 752,153.9844 Q751.2344,153.9844 750.6016,154.3125 Q749.9688,154.6406 749.4766,155.3906 Q748.9844,156.1406 748.9844,157.1719 L748.9844,158.2656 Q748.9844,159.5 749.875,160.3203 Q750.7656,161.1406 752.3594,161.1406 Q753.2969,161.1406 753.9531,160.8906 Q754.3438,160.7344 754.7656,160.2969 Q755.0313,160.0313 755.1797,159.9531 Q755.3281,159.875 755.5313,159.875 Q755.8594,159.875 756.1172,160.1328 Q756.375,160.3906 756.375,160.7344 Q756.375,161.0781 756.0313,161.4844 Q755.5313,162.0625 754.7344,162.3906 Q753.6563,162.8438 752.3594,162.8438 Q750.8438,162.8438 749.6406,162.2188 Q748.6563,161.7188 747.9688,160.6484 Q747.2813,159.5781 747.2813,158.2969 L747.2813,157.1406 Q747.2813,155.8125 747.8984,154.6641 Q748.5156,153.5156 749.6094,152.8984 Q750.7031,152.2813 751.9375,152.2813 Q752.6719,152.2813 753.3203,152.4453 Q753.9688,152.6094 754.5156,152.9688 Z " fill="#000000"/><text fill="#000000" font-family="sans-serif" font-size="12" font-style="italic" lengthAdjust="spacing" textLength="48" x="776.75" y="154.457">«partial»</text><text fill="#000000" font-family="sans-serif" font-size="12" lengthAdjust="spacing" textLength="57" x="772.25" y="169.5508">SetAdress</text><line style="stroke:#A80036;stroke-width:1.5;" x1="644" x2="925" y1="177.1875" y2="177.1875"/><line style="stroke:#A80036;stroke-width:1.5;" x1="644" x2="925" y1="185.1875" y2="185.1875"/><ellipse cx="654" cy="196.1875" fill="#84BE84" rx="3" ry="3" style="stroke:#038048;stroke-width:1.0;"/><text fill="#000000" font-family="sans-serif" font-size="11" lengthAdjust="spacing" textLength="146" x="663" y="200.6064">SetAdress(dto:CommandDTO)</text><ellipse cx="654" cy="210.0234" fill="#84BE84" rx="3" ry="3" style="stroke:#038048;stroke-width:1.0;"/><text fill="#000000" font-family="sans-serif" font-size="11" lengthAdjust="spacing" text-decoration="underline" textLength="161" x="663" y="214.4424">IsForMe(dto:CommandDTO) : bool</text><ellipse cx="654" cy="223.8594" fill="#84BE84" rx="3" ry="3" style="stroke:#038048;stroke-width:1.0;"/><text fill="#000000" font-family="sans-serif" font-size="11" lengthAdjust="spacing" text-decoration="underline" textLength="257" x="663" y="228.2783">ExecuteCommand(dto:CommandDTO) : CommandDTO</text><ellipse cx="654" cy="237.6953" fill="#84BE84" rx="3" ry="3" style="stroke:#038048;stroke-width:1.0;"/><text fill="#000000" font-family="sans-serif" font-size="11" lengthAdjust="spacing" textLength="215" x="663" y="242.1143">«partial» ExecuteCommand() : CommandDTO</text><!--MD5=[9445adbca05695301a39cf2527b3960a]
class AdressTypesDispatcher--><rect codeLine="21" fill="#FEFECE" filter="url(#fx9bw6lhlf0if)" height="70.0234" id="AdressTypesDispatcher" style="stroke:#A80036;stroke-width:1.5;" width="239" x="571" y="7"/><ellipse cx="620.25" cy="27.0938" fill="#ADD1B2" rx="11" ry="11" style="stroke:#A80036;stroke-width:1.0;"/><path d="M623.0156,22.9688 Q623.1719,22.75 623.3594,22.6406 Q623.5469,22.5313 623.7656,22.5313 Q624.1406,22.5313 624.375,22.7891 Q624.6094,23.0469 624.6094,23.6563 L624.6094,25.1094 Q624.6094,25.7188 624.375,25.9844 Q624.1406,26.25 623.7656,26.25 Q623.4219,26.25 623.2188,26.0469 Q623.0156,25.8594 622.9063,25.3438 Q622.8594,24.9844 622.6719,24.7969 Q622.3438,24.4219 621.7344,24.2031 Q621.125,23.9844 620.5,23.9844 Q619.7344,23.9844 619.1016,24.3125 Q618.4688,24.6406 617.9766,25.3906 Q617.4844,26.1406 617.4844,27.1719 L617.4844,28.2656 Q617.4844,29.5 618.375,30.3203 Q619.2656,31.1406 620.8594,31.1406 Q621.7969,31.1406 622.4531,30.8906 Q622.8438,30.7344 623.2656,30.2969 Q623.5313,30.0313 623.6797,29.9531 Q623.8281,29.875 624.0313,29.875 Q624.3594,29.875 624.6172,30.1328 Q624.875,30.3906 624.875,30.7344 Q624.875,31.0781 624.5313,31.4844 Q624.0313,32.0625 623.2344,32.3906 Q622.1563,32.8438 620.8594,32.8438 Q619.3438,32.8438 618.1406,32.2188 Q617.1563,31.7188 616.4688,30.6484 Q615.7813,29.5781 615.7813,28.2969 L615.7813,27.1406 Q615.7813,25.8125 616.3984,24.6641 Q617.0156,23.5156 618.1094,22.8984 Q619.2031,22.2813 620.4375,22.2813 Q621.1719,22.2813 621.8203,22.4453 Q622.4688,22.6094 623.0156,22.9688 Z " fill="#000000"/><text fill="#000000" font-family="sans-serif" font-size="12" font-style="italic" lengthAdjust="spacing" textLength="42" x="685.75" y="24.457">«static»</text><text fill="#000000" font-family="sans-serif" font-size="12" lengthAdjust="spacing" textLength="132" x="640.75" y="39.5508">AdressTypesDispatcher</text><line style="stroke:#A80036;stroke-width:1.5;" x1="572" x2="809" y1="47.1875" y2="47.1875"/><line style="stroke:#A80036;stroke-width:1.5;" x1="572" x2="809" y1="55.1875" y2="55.1875"/><ellipse cx="582" cy="66.1875" fill="#84BE84" rx="3" ry="3" style="stroke:#038048;stroke-width:1.0;"/><text fill="#000000" font-family="sans-serif" font-size="11" lengthAdjust="spacing" text-decoration="underline" textLength="213" x="591" y="70.6064">Dispatch(dto:CommandDTO) : CommandDTO</text><!--MD5=[e644022de7dea015dd09463c37421447]
class List`1--><rect codeLine="24" fill="#FEFECE" filter="url(#fx9bw6lhlf0if)" height="48" id="List`1" style="stroke:#A80036;stroke-width:1.5;" width="74" x="111.5" y="309"/><ellipse cx="126.5" cy="325" fill="#ADD1B2" rx="11" ry="11" style="stroke:#A80036;stroke-width:1.0;"/><path d="M129.2656,320.875 Q129.4219,320.6563 129.6094,320.5469 Q129.7969,320.4375 130.0156,320.4375 Q130.3906,320.4375 130.625,320.6953 Q130.8594,320.9531 130.8594,321.5625 L130.8594,323.0156 Q130.8594,323.625 130.625,323.8906 Q130.3906,324.1563 130.0156,324.1563 Q129.6719,324.1563 129.4688,323.9531 Q129.2656,323.7656 129.1563,323.25 Q129.1094,322.8906 128.9219,322.7031 Q128.5938,322.3281 127.9844,322.1094 Q127.375,321.8906 126.75,321.8906 Q125.9844,321.8906 125.3516,322.2188 Q124.7188,322.5469 124.2266,323.2969 Q123.7344,324.0469 123.7344,325.0781 L123.7344,326.1719 Q123.7344,327.4063 124.625,328.2266 Q125.5156,329.0469 127.1094,329.0469 Q128.0469,329.0469 128.7031,328.7969 Q129.0938,328.6406 129.5156,328.2031 Q129.7813,327.9375 129.9297,327.8594 Q130.0781,327.7813 130.2813,327.7813 Q130.6094,327.7813 130.8672,328.0391 Q131.125,328.2969 131.125,328.6406 Q131.125,328.9844 130.7813,329.3906 Q130.2813,329.9688 129.4844,330.2969 Q128.4063,330.75 127.1094,330.75 Q125.5938,330.75 124.3906,330.125 Q123.4063,329.625 122.7188,328.5547 Q122.0313,327.4844 122.0313,326.2031 L122.0313,325.0469 Q122.0313,323.7188 122.6484,322.5703 Q123.2656,321.4219 124.3594,320.8047 Q125.4531,320.1875 126.6875,320.1875 Q127.4219,320.1875 128.0703,320.3516 Q128.7188,320.5156 129.2656,320.875 Z " fill="#000000"/><text fill="#000000" font-family="sans-serif" font-size="12" lengthAdjust="spacing" textLength="31" x="140.5" y="329.9102">List`1</text><rect fill="#FFFFFF" height="17.0938" style="stroke:#000000;stroke-width:1.0;stroke-dasharray:2.0,2.0;" width="9" x="179.5" y="306"/><text fill="#000000" font-family="sans-serif" font-size="12" font-style="italic" lengthAdjust="spacing" textLength="7" x="180.5" y="319.457">T</text><line style="stroke:#A80036;stroke-width:1.5;" x1="112.5" x2="184.5" y1="341" y2="341"/><line style="stroke:#A80036;stroke-width:1.5;" x1="112.5" x2="184.5" y1="349" y2="349"/><!--MD5=[6b1d3384926f1bc892ee196bbd0d7fce]
class BaseDTO--><rect fill="#FEFECE" filter="url(#fx9bw6lhlf0if)" height="48" id="BaseDTO" style="stroke:#A80036;stroke-width:1.5;" width="86" x="961.5" y="169"/><ellipse cx="976.5" cy="185" fill="#ADD1B2" rx="11" ry="11" style="stroke:#A80036;stroke-width:1.0;"/><path d="M979.2656,180.875 Q979.4219,180.6563 979.6094,180.5469 Q979.7969,180.4375 980.0156,180.4375 Q980.3906,180.4375 980.625,180.6953 Q980.8594,180.9531 980.8594,181.5625 L980.8594,183.0156 Q980.8594,183.625 980.625,183.8906 Q980.3906,184.1563 980.0156,184.1563 Q979.6719,184.1563 979.4688,183.9531 Q979.2656,183.7656 979.1563,183.25 Q979.1094,182.8906 978.9219,182.7031 Q978.5938,182.3281 977.9844,182.1094 Q977.375,181.8906 976.75,181.8906 Q975.9844,181.8906 975.3516,182.2188 Q974.7188,182.5469 974.2266,183.2969 Q973.7344,184.0469 973.7344,185.0781 L973.7344,186.1719 Q973.7344,187.4063 974.625,188.2266 Q975.5156,189.0469 977.1094,189.0469 Q978.0469,189.0469 978.7031,188.7969 Q979.0938,188.6406 979.5156,188.2031 Q979.7813,187.9375 979.9297,187.8594 Q980.0781,187.7813 980.2813,187.7813 Q980.6094,187.7813 980.8672,188.0391 Q981.125,188.2969 981.125,188.6406 Q981.125,188.9844 980.7813,189.3906 Q980.2813,189.9688 979.4844,190.2969 Q978.4063,190.75 977.1094,190.75 Q975.5938,190.75 974.3906,190.125 Q973.4063,189.625 972.7188,188.5547 Q972.0313,187.4844 972.0313,186.2031 L972.0313,185.0469 Q972.0313,183.7188 972.6484,182.5703 Q973.2656,181.4219 974.3594,180.8047 Q975.4531,180.1875 976.6875,180.1875 Q977.4219,180.1875 978.0703,180.3516 Q978.7188,180.5156 979.2656,180.875 Z " fill="#000000"/><text fill="#000000" font-family="sans-serif" font-size="12" lengthAdjust="spacing" textLength="54" x="990.5" y="189.9102">BaseDTO</text><line style="stroke:#A80036;stroke-width:1.5;" x1="962.5" x2="1046.5" y1="201" y2="201"/><line style="stroke:#A80036;stroke-width:1.5;" x1="962.5" x2="1046.5" y1="209" y2="209"/><!--MD5=[b9f3d2915b6b8d0c143f32ccec3f745e]
class Guid--><rect fill="#FEFECE" filter="url(#fx9bw6lhlf0if)" height="48" id="Guid" style="stroke:#A80036;stroke-width:1.5;" width="58" x="585.5" y="417"/><ellipse cx="600.5" cy="433" fill="#ADD1B2" rx="11" ry="11" style="stroke:#A80036;stroke-width:1.0;"/><path d="M603.2656,428.875 Q603.4219,428.6563 603.6094,428.5469 Q603.7969,428.4375 604.0156,428.4375 Q604.3906,428.4375 604.625,428.6953 Q604.8594,428.9531 604.8594,429.5625 L604.8594,431.0156 Q604.8594,431.625 604.625,431.8906 Q604.3906,432.1563 604.0156,432.1563 Q603.6719,432.1563 603.4688,431.9531 Q603.2656,431.7656 603.1563,431.25 Q603.1094,430.8906 602.9219,430.7031 Q602.5938,430.3281 601.9844,430.1094 Q601.375,429.8906 600.75,429.8906 Q599.9844,429.8906 599.3516,430.2188 Q598.7188,430.5469 598.2266,431.2969 Q597.7344,432.0469 597.7344,433.0781 L597.7344,434.1719 Q597.7344,435.4063 598.625,436.2266 Q599.5156,437.0469 601.1094,437.0469 Q602.0469,437.0469 602.7031,436.7969 Q603.0938,436.6406 603.5156,436.2031 Q603.7813,435.9375 603.9297,435.8594 Q604.0781,435.7813 604.2813,435.7813 Q604.6094,435.7813 604.8672,436.0391 Q605.125,436.2969 605.125,436.6406 Q605.125,436.9844 604.7813,437.3906 Q604.2813,437.9688 603.4844,438.2969 Q602.4063,438.75 601.1094,438.75 Q599.5938,438.75 598.3906,438.125 Q597.4063,437.625 596.7188,436.5547 Q596.0313,435.4844 596.0313,434.2031 L596.0313,433.0469 Q596.0313,431.7188 596.6484,430.5703 Q597.2656,429.4219 598.3594,428.8047 Q599.4531,428.1875 600.6875,428.1875 Q601.4219,428.1875 602.0703,428.3516 Q602.7188,428.5156 603.2656,428.875 Z " fill="#000000"/><text fill="#000000" font-family="sans-serif" font-size="12" lengthAdjust="spacing" textLength="26" x="614.5" y="437.9102">Guid</text><line style="stroke:#A80036;stroke-width:1.5;" x1="586.5" x2="642.5" y1="449" y2="449"/><line style="stroke:#A80036;stroke-width:1.5;" x1="586.5" x2="642.5" y1="457" y2="457"/><!--MD5=[9df70cf33be424c1b8543b3f439cae89]
class String--><rect fill="#FEFECE" filter="url(#fx9bw6lhlf0if)" height="48" id="String" style="stroke:#A80036;stroke-width:1.5;" width="64" x="752.5" y="417"/><ellipse cx="767.5" cy="433" fill="#ADD1B2" rx="11" ry="11" style="stroke:#A80036;stroke-width:1.0;"/><path d="M770.2656,428.875 Q770.4219,428.6563 770.6094,428.5469 Q770.7969,428.4375 771.0156,428.4375 Q771.3906,428.4375 771.625,428.6953 Q771.8594,428.9531 771.8594,429.5625 L771.8594,431.0156 Q771.8594,431.625 771.625,431.8906 Q771.3906,432.1563 771.0156,432.1563 Q770.6719,432.1563 770.4688,431.9531 Q770.2656,431.7656 770.1563,431.25 Q770.1094,430.8906 769.9219,430.7031 Q769.5938,430.3281 768.9844,430.1094 Q768.375,429.8906 767.75,429.8906 Q766.9844,429.8906 766.3516,430.2188 Q765.7188,430.5469 765.2266,431.2969 Q764.7344,432.0469 764.7344,433.0781 L764.7344,434.1719 Q764.7344,435.4063 765.625,436.2266 Q766.5156,437.0469 768.1094,437.0469 Q769.0469,437.0469 769.7031,436.7969 Q770.0938,436.6406 770.5156,436.2031 Q770.7813,435.9375 770.9297,435.8594 Q771.0781,435.7813 771.2813,435.7813 Q771.6094,435.7813 771.8672,436.0391 Q772.125,436.2969 772.125,436.6406 Q772.125,436.9844 771.7813,437.3906 Q771.2813,437.9688 770.4844,438.2969 Q769.4063,438.75 768.1094,438.75 Q766.5938,438.75 765.3906,438.125 Q764.4063,437.625 763.7188,436.5547 Q763.0313,435.4844 763.0313,434.2031 L763.0313,433.0469 Q763.0313,431.7188 763.6484,430.5703 Q764.2656,429.4219 765.3594,428.8047 Q766.4531,428.1875 767.6875,428.1875 Q768.4219,428.1875 769.0703,428.3516 Q769.7188,428.5156 770.2656,428.875 Z " fill="#000000"/><text fill="#000000" font-family="sans-serif" font-size="12" lengthAdjust="spacing" textLength="32" x="781.5" y="437.9102">String</text><line style="stroke:#A80036;stroke-width:1.5;" x1="753.5" x2="815.5" y1="449" y2="449"/><line style="stroke:#A80036;stroke-width:1.5;" x1="753.5" x2="815.5" y1="457" y2="457"/><!--MD5=[fe6b2754769bc87cf156126798433078]
class CommandWrapper--><rect fill="#FEFECE" filter="url(#fx9bw6lhlf0if)" height="48" id="CommandWrapper" style="stroke:#A80036;stroke-width:1.5;" width="138" x="397.5" y="18"/><ellipse cx="412.5" cy="34" fill="#ADD1B2" rx="11" ry="11" style="stroke:#A80036;stroke-width:1.0;"/><path d="M415.2656,29.875 Q415.4219,29.6563 415.6094,29.5469 Q415.7969,29.4375 416.0156,29.4375 Q416.3906,29.4375 416.625,29.6953 Q416.8594,29.9531 416.8594,30.5625 L416.8594,32.0156 Q416.8594,32.625 416.625,32.8906 Q416.3906,33.1563 416.0156,33.1563 Q415.6719,33.1563 415.4688,32.9531 Q415.2656,32.7656 415.1563,32.25 Q415.1094,31.8906 414.9219,31.7031 Q414.5938,31.3281 413.9844,31.1094 Q413.375,30.8906 412.75,30.8906 Q411.9844,30.8906 411.3516,31.2188 Q410.7188,31.5469 410.2266,32.2969 Q409.7344,33.0469 409.7344,34.0781 L409.7344,35.1719 Q409.7344,36.4063 410.625,37.2266 Q411.5156,38.0469 413.1094,38.0469 Q414.0469,38.0469 414.7031,37.7969 Q415.0938,37.6406 415.5156,37.2031 Q415.7813,36.9375 415.9297,36.8594 Q416.0781,36.7813 416.2813,36.7813 Q416.6094,36.7813 416.8672,37.0391 Q417.125,37.2969 417.125,37.6406 Q417.125,37.9844 416.7813,38.3906 Q416.2813,38.9688 415.4844,39.2969 Q414.4063,39.75 413.1094,39.75 Q411.5938,39.75 410.3906,39.125 Q409.4063,38.625 408.7188,37.5547 Q408.0313,36.4844 408.0313,35.2031 L408.0313,34.0469 Q408.0313,32.7188 408.6484,31.5703 Q409.2656,30.4219 410.3594,29.8047 Q411.4531,29.1875 412.6875,29.1875 Q413.4219,29.1875 414.0703,29.3516 Q414.7188,29.5156 415.2656,29.875 Z " fill="#000000"/><text fill="#000000" font-family="sans-serif" font-size="12" lengthAdjust="spacing" textLength="106" x="426.5" y="38.9102">CommandWrapper</text><line style="stroke:#A80036;stroke-width:1.5;" x1="398.5" x2="534.5" y1="50" y2="50"/><line style="stroke:#A80036;stroke-width:1.5;" x1="398.5" x2="534.5" y1="58" y2="58"/><!--MD5=[f5d54f60ec6d089d1cb017027d5a65a8]
class CommandDTO--><rect fill="#FEFECE" filter="url(#fx9bw6lhlf0if)" height="48" id="CommandDTO" style="stroke:#A80036;stroke-width:1.5;" width="116" x="375.5" y="309"/><ellipse cx="390.5" cy="325" fill="#ADD1B2" rx="11" ry="11" style="stroke:#A80036;stroke-width:1.0;"/><path d="M393.2656,320.875 Q393.4219,320.6563 393.6094,320.5469 Q393.7969,320.4375 394.0156,320.4375 Q394.3906,320.4375 394.625,320.6953 Q394.8594,320.9531 394.8594,321.5625 L394.8594,323.0156 Q394.8594,323.625 394.625,323.8906 Q394.3906,324.1563 394.0156,324.1563 Q393.6719,324.1563 393.4688,323.9531 Q393.2656,323.7656 393.1563,323.25 Q393.1094,322.8906 392.9219,322.7031 Q392.5938,322.3281 391.9844,322.1094 Q391.375,321.8906 390.75,321.8906 Q389.9844,321.8906 389.3516,322.2188 Q388.7188,322.5469 388.2266,323.2969 Q387.7344,324.0469 387.7344,325.0781 L387.7344,326.1719 Q387.7344,327.4063 388.625,328.2266 Q389.5156,329.0469 391.1094,329.0469 Q392.0469,329.0469 392.7031,328.7969 Q393.0938,328.6406 393.5156,328.2031 Q393.7813,327.9375 393.9297,327.8594 Q394.0781,327.7813 394.2813,327.7813 Q394.6094,327.7813 394.8672,328.0391 Q395.125,328.2969 395.125,328.6406 Q395.125,328.9844 394.7813,329.3906 Q394.2813,329.9688 393.4844,330.2969 Q392.4063,330.75 391.1094,330.75 Q389.5938,330.75 388.3906,330.125 Q387.4063,329.625 386.7188,328.5547 Q386.0313,327.4844 386.0313,326.2031 L386.0313,325.0469 Q386.0313,323.7188 386.6484,322.5703 Q387.2656,321.4219 388.3594,320.8047 Q389.4531,320.1875 390.6875,320.1875 Q391.4219,320.1875 392.0703,320.3516 Q392.7188,320.5156 393.2656,320.875 Z " fill="#000000"/><text fill="#000000" font-family="sans-serif" font-size="12" lengthAdjust="spacing" textLength="84" x="404.5" y="329.9102">CommandDTO</text><line style="stroke:#A80036;stroke-width:1.5;" x1="376.5" x2="490.5" y1="341" y2="341"/><line style="stroke:#A80036;stroke-width:1.5;" x1="376.5" x2="490.5" y1="349" y2="349"/><!--MD5=[78563b2dced031dcc99154e54e28d438]
reverse link BaseDTO to AdressDTO--><path codeLine="26" d="M966.8,230.64 C959.35,237.11 951.39,243.52 943.5,249 C908.34,273.44 865.08,295.57 832.57,310.82 " fill="none" id="BaseDTO-backto-AdressDTO" style="stroke:#A80036;stroke-width:1.0;"/><polygon fill="none" points="962.12,225.44,981.62,217.16,971.54,235.8,962.12,225.44" style="stroke:#A80036;stroke-width:1.0;"/><!--MD5=[fbaf78f1916dfdbf30330f0660ca3284]
link AdressDTO to Guid--><path codeLine="27" d="M747.61,357 C718.04,375.44 676.89,401.1 648.2,418.99 " fill="none" id="AdressDTO-to-Guid" style="stroke:#A80036;stroke-width:1.0;"/><polygon fill="#A80036" points="643.7,421.79,653.4541,420.4268,647.944,419.1464,649.2243,413.6364,643.7,421.79" style="stroke:#A80036;stroke-width:1.0;"/><text fill="#000000" font-family="sans-serif" font-size="13" lengthAdjust="spacing" textLength="38" x="651.3819" y="414.9765">TypeId</text><!--MD5=[b2555b513fccde1a3f7f8fb3f3fcdb23]
link AdressDTO to String--><path codeLine="28" d="M736.13,343.97 C692.13,365.93 695.92,417.86 747.5,434.66 " fill="none" id="AdressDTO-to-String" style="stroke:#A80036;stroke-width:1.0;"/><polygon fill="#A80036" points="752.3,436.08,744.8149,429.6789,747.5077,434.6537,742.5329,437.3465,752.3,436.08" style="stroke:#A80036;stroke-width:1.0;"/><text fill="#000000" font-family="sans-serif" font-size="13" lengthAdjust="spacing" textLength="41" x="703.5597" y="450.0533">Name1</text><!--MD5=[b2555b513fccde1a3f7f8fb3f3fcdb23]
link AdressDTO to String--><path codeLine="29" d="M740.33,357 C726.98,378.35 729.67,409.38 748.42,426.82 " fill="none" id="AdressDTO-to-String-1" style="stroke:#A80036;stroke-width:1.0;"/><polygon fill="#A80036" points="752.38,430.12,748.0235,421.287,748.5377,426.9205,742.9043,427.4347,752.38,430.12" style="stroke:#A80036;stroke-width:1.0;"/><text fill="#000000" font-family="sans-serif" font-size="13" lengthAdjust="spacing" textLength="41" x="703.6514" y="424.8679">Name2</text><!--MD5=[b2555b513fccde1a3f7f8fb3f3fcdb23]
link AdressDTO to String--><path codeLine="30" d="M762.42,357 C757.41,373 756.92,394.45 760.93,411.53 " fill="none" id="AdressDTO-to-String-2" style="stroke:#A80036;stroke-width:1.0;"/><polygon fill="#A80036" points="762.32,416.68,763.8355,406.9484,761.0165,411.8529,756.1121,409.034,762.32,416.68" style="stroke:#A80036;stroke-width:1.0;"/><text fill="#000000" font-family="sans-serif" font-size="13" lengthAdjust="spacing" textLength="48" x="762.7636" y="406.34">Adress1</text><!--MD5=[b2555b513fccde1a3f7f8fb3f3fcdb23]
link AdressDTO to String--><path codeLine="31" d="M784.5,357 C784.5,373 784.5,394.45 784.5,411.53 " fill="none" id="AdressDTO-to-String-3" style="stroke:#A80036;stroke-width:1.0;"/><polygon fill="#A80036" points="784.5,416.68,788.5,407.68,784.5,411.68,780.5,407.68,784.5,416.68" style="stroke:#A80036;stroke-width:1.0;"/><text fill="#000000" font-family="sans-serif" font-size="13" lengthAdjust="spacing" textLength="48" x="730.65" y="406.34">Adress2</text><!--MD5=[b2555b513fccde1a3f7f8fb3f3fcdb23]
link AdressDTO to String--><path codeLine="32" d="M806.58,357 C811.59,373 812.08,394.45 808.07,411.53 " fill="none" id="AdressDTO-to-String-4" style="stroke:#A80036;stroke-width:1.0;"/><polygon fill="#A80036" points="806.68,416.68,812.8879,409.034,807.9835,411.8529,805.1645,406.9484,806.68,416.68" style="stroke:#A80036;stroke-width:1.0;"/><text fill="#000000" font-family="sans-serif" font-size="13" lengthAdjust="spacing" textLength="80" x="821.8364" y="406.34">Housenumber</text><!--MD5=[b2555b513fccde1a3f7f8fb3f3fcdb23]
link AdressDTO to String--><path codeLine="33" d="M828.67,357 C842.02,378.35 839.33,409.38 820.58,426.82 " fill="none" id="AdressDTO-to-String-5" style="stroke:#A80036;stroke-width:1.0;"/><polygon fill="#A80036" points="816.62,430.12,826.0957,427.4347,820.4623,426.9205,820.9765,421.287,816.62,430.12" style="stroke:#A80036;stroke-width:1.0;"/><text fill="#000000" font-family="sans-serif" font-size="13" lengthAdjust="spacing" textLength="23" x="824.3898" y="443.1334">City</text><!--MD5=[b2555b513fccde1a3f7f8fb3f3fcdb23]
link AdressDTO to String--><path codeLine="34" d="M832.87,343.97 C876.87,365.93 873.08,417.86 821.5,434.66 " fill="none" id="AdressDTO-to-String-6" style="stroke:#A80036;stroke-width:1.0;"/><polygon fill="#A80036" points="816.7,436.08,826.4671,437.3465,821.4923,434.6537,824.1851,429.6789,816.7,436.08" style="stroke:#A80036;stroke-width:1.0;"/><text fill="#000000" font-family="sans-serif" font-size="13" lengthAdjust="spacing" textLength="55" x="824.3491" y="431.9423">Postcode</text><!--MD5=[7c8d1df2a42c3b4e3116e71ce809b588]
reverse link CommandWrapper to FindAdresses--><path codeLine="35" d="M398.88,74.68 C360.28,92.77 310.8,115.96 266.03,136.93 " fill="none" id="CommandWrapper-backto-FindAdresses" style="stroke:#A80036;stroke-width:1.0;"/><polygon fill="none" points="396.08,68.26,417.16,66.12,402.02,80.94,396.08,68.26" style="stroke:#A80036;stroke-width:1.0;"/><!--MD5=[e187aae528dfd0e676953b6de9aafea5]
link FindAdresses to Guid--><path codeLine="36" d="M184.66,249.38 C210.81,285.17 249.22,329.95 293.5,357 C386.91,414.06 518.66,432.15 580.25,437.68 " fill="none" id="FindAdresses-to-Guid" style="stroke:#A80036;stroke-width:1.0;"/><polygon fill="#A80036" points="585.28,438.11,576.6568,433.3518,580.2985,437.6806,575.9697,441.3222,585.28,438.11" style="stroke:#A80036;stroke-width:1.0;"/><text fill="#000000" font-family="sans-serif" font-size="13" lengthAdjust="spacing" textLength="38" x="539.5949" y="433.8975">TypeId</text><!--MD5=[069b9e7084b24b7673a955ca2189498a]
link FindAdresses to CommandDTO--><path codeLine="37" d="M262.37,249.14 C303.45,269.03 347.84,290.52 381.12,306.64 " fill="none" id="FindAdresses-to-CommandDTO" style="stroke:#A80036;stroke-width:1.0;"/><polygon fill="#A80036" points="385.95,308.97,379.602,301.4398,381.4525,306.7855,376.1068,308.6359,385.95,308.97" style="stroke:#A80036;stroke-width:1.0;"/><text fill="#000000" font-family="sans-serif" font-size="13" lengthAdjust="spacing" textLength="27" x="343.3059" y="298.3025">Cmd</text><!--MD5=[d65e62f8b87ab352dddf0d1b29176523]
link FindAdresses to String--><path codeLine="38" d="M216.14,249.04 C271.26,293.46 342.51,349.74 358.5,357 C367.45,361.06 645,413.68 747.2,432.97 " fill="none" id="FindAdresses-to-String" style="stroke:#A80036;stroke-width:1.0;"/><polygon fill="#A80036" points="752.22,433.92,744.1192,428.3185,747.3069,432.9917,742.6338,436.1794,752.22,433.92" style="stroke:#A80036;stroke-width:1.0;"/><text fill="#000000" font-family="sans-serif" font-size="13" lengthAdjust="spacing" textLength="66" x="678.672" y="429.6918">SearchText</text><!--MD5=[96c8e41dddf12d0fc1381f70183024a4]
link FindAdresses to List`1--><path codeLine="39" d="M148.5,249.33 C148.5,267.93 148.5,287.9 148.5,303.56 " fill="none" id="FindAdresses-to-List`1" style="stroke:#A80036;stroke-width:1.0;"/><polygon fill="#A80036" points="148.5,308.69,152.5,299.69,148.5,303.69,144.5,299.69,148.5,308.69" style="stroke:#A80036;stroke-width:1.0;"/><text fill="#000000" font-family="sans-serif" font-size="13" lengthAdjust="spacing" textLength="120" x="13.125" y="297.9507">Result&lt;AdressDTO&gt;</text><!--MD5=[2a35218a08f90bcccbf607bfbb9e9a4c]
reverse link CommandWrapper to GetAdress--><path codeLine="40" d="M466.5,86.33 C466.5,102.08 466.5,120.09 466.5,136.73 " fill="none" id="CommandWrapper-backto-GetAdress" style="stroke:#A80036;stroke-width:1.0;"/><polygon fill="none" points="459.5,86.28,466.5,66.28,473.5,86.28,459.5,86.28" style="stroke:#A80036;stroke-width:1.0;"/><!--MD5=[9e359c2a3b697cbf2773394e832a2801]
link GetAdress to Guid--><path codeLine="41" d="M488.87,249.21 C516.26,300.05 561.2,373.37 589.68,412.67 " fill="none" id="GetAdress-to-Guid" style="stroke:#A80036;stroke-width:1.0;"/><polygon fill="#A80036" points="592.72,416.83,590.6189,407.2079,589.7613,412.7993,584.1699,411.9418,592.72,416.83" style="stroke:#A80036;stroke-width:1.0;"/><text fill="#000000" font-family="sans-serif" font-size="13" lengthAdjust="spacing" textLength="38" x="544.2701" y="406.1266">TypeId</text><!--MD5=[9e359c2a3b697cbf2773394e832a2801]
link GetAdress to Guid--><path codeLine="43" d="M511.2,249.21 C545.03,299.85 588.06,372.78 606.7,412.19 " fill="none" id="GetAdress-to-Guid-1" style="stroke:#A80036;stroke-width:1.0;"/><polygon fill="#A80036" points="608.85,416.83,608.6789,406.9826,606.7403,412.2969,601.426,410.3582,608.85,416.83" style="stroke:#A80036;stroke-width:1.0;"/><text fill="#000000" font-family="sans-serif" font-size="13" lengthAdjust="spacing" textLength="10" x="596.1209" y="406.1266">Id</text><!--MD5=[ab9d71b1cb814c3f12905731567b9912]
link GetAdress to CommandDTO--><path codeLine="42" d="M453.27,249.33 C448.82,267.93 444.05,287.9 440.3,303.56 " fill="none" id="GetAdress-to-CommandDTO" style="stroke:#A80036;stroke-width:1.0;"/><polygon fill="#A80036" points="439.07,308.69,445.0634,300.8747,440.239,303.8286,437.2851,299.0042,439.07,308.69" style="stroke:#A80036;stroke-width:1.0;"/><text fill="#000000" font-family="sans-serif" font-size="13" lengthAdjust="spacing" textLength="27" x="410.0379" y="297.9507">Cmd</text><!--MD5=[320d96e379c8cc12904cb5534a749e6f]
link GetAdress to AdressDTO--><path codeLine="44" d="M593.55,249.14 C641.57,269.97 693.63,292.57 731.25,308.89 " fill="none" id="GetAdress-to-AdressDTO" style="stroke:#A80036;stroke-width:1.0;"/><polygon fill="#A80036" points="736.23,311.05,729.5605,303.8031,731.6417,309.0632,726.3816,311.1443,736.23,311.05" style="stroke:#A80036;stroke-width:1.0;"/><text fill="#000000" font-family="sans-serif" font-size="13" lengthAdjust="spacing" textLength="37" x="691.5097" y="305.1025">Result</text><!--MD5=[c3c728e73b8a9d103caadd39ec0772b9]
reverse link CommandWrapper to SetAdress--><path codeLine="45" d="M534.12,74.68 C572.72,92.77 622.2,115.96 666.97,136.93 " fill="none" id="CommandWrapper-backto-SetAdress" style="stroke:#A80036;stroke-width:1.0;"/><polygon fill="none" points="530.98,80.94,515.84,66.12,536.92,68.26,530.98,80.94" style="stroke:#A80036;stroke-width:1.0;"/><!--MD5=[29a617733f0895b8822a619a862d6253]
link SetAdress to Guid--><path codeLine="46" d="M735.51,249.21 C697.33,299.85 647.73,372.78 625.28,412.19 " fill="none" id="SetAdress-to-Guid" style="stroke:#A80036;stroke-width:1.0;"/><polygon fill="#A80036" points="622.68,416.83,630.5704,410.9358,625.1252,412.4687,623.5923,407.0235,622.68,416.83" style="stroke:#A80036;stroke-width:1.0;"/><text fill="#000000" font-family="sans-serif" font-size="13" lengthAdjust="spacing" textLength="38" x="629.6449" y="406.1266">TypeId</text><!--MD5=[29a617733f0895b8822a619a862d6253]
link SetAdress to Guid--><path codeLine="48" d="M757.83,249.21 C726.08,300.05 674.54,373.37 642.26,412.67 " fill="none" id="SetAdress-to-Guid-1" style="stroke:#A80036;stroke-width:1.0;"/><polygon fill="#A80036" points="638.81,416.83,647.643,412.4735,642.0095,412.9877,641.4953,407.3543,638.81,416.83" style="stroke:#A80036;stroke-width:1.0;"/><text fill="#000000" font-family="sans-serif" font-size="13" lengthAdjust="spacing" textLength="10" x="651.6331" y="423.3276">Id</text><!--MD5=[0a5c696b50acc773ed377aa35825b43f]
link SetAdress to CommandDTO--><path codeLine="47" d="M644.51,249.04 C593.19,269.22 537.63,291.06 496.41,307.27 " fill="none" id="SetAdress-to-CommandDTO" style="stroke:#A80036;stroke-width:1.0;"/><polygon fill="#A80036" points="491.71,309.11,501.5497,309.5337,496.3622,307.2778,498.6181,302.0902,491.71,309.11" style="stroke:#A80036;stroke-width:1.0;"/><text fill="#000000" font-family="sans-serif" font-size="13" lengthAdjust="spacing" textLength="27" x="499.5533" y="303.1364">Cmd</text><!--MD5=[38358ab967c44292a7e3ae1eec2a34b2]
link SetAdress to AdressDTO--><path codeLine="49" d="M771.97,249.33 C771.36,267.93 772.02,287.9 773.95,303.56 " fill="none" id="SetAdress-to-AdressDTO" style="stroke:#A80036;stroke-width:1.0;"/><polygon fill="#A80036" points="774.66,308.69,777.3853,299.2257,773.9729,303.7374,769.4612,300.325,774.66,308.69" style="stroke:#A80036;stroke-width:1.0;"/><text fill="#000000" font-family="sans-serif" font-size="13" lengthAdjust="spacing" textLength="41" x="777.3916" y="297.9507">Adress</text><!--MD5=[38358ab967c44292a7e3ae1eec2a34b2]
link SetAdress to AdressDTO--><path codeLine="50" d="M797.76,249.33 C798.42,267.93 797.72,287.9 795.67,303.56 " fill="none" id="SetAdress-to-AdressDTO-1" style="stroke:#A80036;stroke-width:1.0;"/><polygon fill="#A80036" points="794.92,308.69,800.1897,300.3695,795.6491,303.7434,792.2752,299.2029,794.92,308.69" style="stroke:#A80036;stroke-width:1.0;"/><text fill="#000000" font-family="sans-serif" font-size="13" lengthAdjust="spacing" textLength="37" x="755.8495" y="297.9507">Result</text><!--MD5=[9c754707439f49b22bc48df0ce400d73]
@startuml
class AdressDTO {
}
class FindAdresses <<partial>> {
    + FindAdresses(dto:CommandDTO)
    + {static} IsForMe(dto:CommandDTO) : bool
    + {static} ExecuteCommand(dto:CommandDTO) : CommandDTO
    + <<partial>> ExecuteCommand() : CommandDTO
}
class GetAdress <<partial>> {
    + GetAdress(dto:CommandDTO)
    + {static} IsForMe(dto:CommandDTO) : bool
    + {static} ExecuteCommand(dto:CommandDTO) : CommandDTO
    + <<partial>> ExecuteCommand() : CommandDTO
}
class SetAdress <<partial>> {
    + SetAdress(dto:CommandDTO)
    + {static} IsForMe(dto:CommandDTO) : bool
    + {static} ExecuteCommand(dto:CommandDTO) : CommandDTO
    + <<partial>> ExecuteCommand() : CommandDTO
}
class AdressTypesDispatcher <<static>> {
    + {static} Dispatch(dto:CommandDTO) : CommandDTO
}
class "List`1"<T> {
}
BaseDTO <|- - AdressDTO
AdressDTO - -> "TypeId" Guid
AdressDTO - -> "Name1" String
AdressDTO - -> "Name2" String
AdressDTO - -> "Adress1" String
AdressDTO - -> "Adress2" String
AdressDTO - -> "Housenumber" String
AdressDTO - -> "City" String
AdressDTO - -> "Postcode" String
CommandWrapper <|- - FindAdresses
FindAdresses - -> "TypeId" Guid
FindAdresses - -> "Cmd" CommandDTO
FindAdresses - -> "SearchText" String
FindAdresses - -> "Result<AdressDTO>" "List`1"
CommandWrapper <|- - GetAdress
GetAdress - -> "TypeId" Guid
GetAdress - -> "Cmd" CommandDTO
GetAdress - -> "Id" Guid
GetAdress - -> "Result" AdressDTO
CommandWrapper <|- - SetAdress
SetAdress - -> "TypeId" Guid
SetAdress - -> "Cmd" CommandDTO
SetAdress - -> "Id" Guid
SetAdress - -> "Adress" AdressDTO
SetAdress - -> "Result" AdressDTO
@enduml

PlantUML version 1.2021.10(Mon Aug 30 15:43:48 CEST 2021)
(GPL source distribution)
Java Runtime: Java(TM) SE Runtime Environment
JVM: Java HotSpot(TM) Client VM
Default Encoding: Cp1252
Language: de
Country: CH
--></g></svg>