<?xml version="1.0" encoding="UTF-8" standalone="no"?><svg xmlns="http://www.w3.org/2000/svg" xmlns:xlink="http://www.w3.org/1999/xlink" contentScriptType="application/ecmascript" contentStyleType="text/css" height="232px" preserveAspectRatio="none" style="width:676px;height:232px;background:#FFFFFF;" version="1.1" viewBox="0 0 676 232" width="676px" zoomAndPan="magnify"><defs><filter height="300%" id="f1gfyddbd69dtk" width="300%" x="-1" y="-1"><feGaussianBlur result="blurOut" stdDeviation="2.0"/><feColorMatrix in="blurOut" result="blurOut2" type="matrix" values="0 0 0 0 0 0 0 0 0 0 0 0 0 0 0 0 0 0 .4 0"/><feOffset dx="4.0" dy="4.0" in="blurOut2" result="blurOut3"/><feBlend in="SourceGraphic" in2="blurOut3" mode="normal"/></filter></defs><g><!--MD5=[2e5eef0b4d63f4248e617bf3425bfdf1]
class ObjectWrapper--><rect codeLine="1" fill="#FEFECE" filter="url(#f1gfyddbd69dtk)" height="61.8359" id="ObjectWrapper" style="stroke:#A80036;stroke-width:1.5;" width="177" x="7" y="27.5"/><ellipse cx="50.35" cy="43.5" fill="#ADD1B2" rx="11" ry="11" style="stroke:#A80036;stroke-width:1.0;"/><path d="M53.1156,39.375 Q53.2719,39.1563 53.4594,39.0469 Q53.6469,38.9375 53.8656,38.9375 Q54.2406,38.9375 54.475,39.1953 Q54.7094,39.4531 54.7094,40.0625 L54.7094,41.5156 Q54.7094,42.125 54.475,42.3906 Q54.2406,42.6563 53.8656,42.6563 Q53.5219,42.6563 53.3188,42.4531 Q53.1156,42.2656 53.0063,41.75 Q52.9594,41.3906 52.7719,41.2031 Q52.4438,40.8281 51.8344,40.6094 Q51.225,40.3906 50.6,40.3906 Q49.8344,40.3906 49.2016,40.7188 Q48.5688,41.0469 48.0766,41.7969 Q47.5844,42.5469 47.5844,43.5781 L47.5844,44.6719 Q47.5844,45.9063 48.475,46.7266 Q49.3656,47.5469 50.9594,47.5469 Q51.8969,47.5469 52.5531,47.2969 Q52.9438,47.1406 53.3656,46.7031 Q53.6313,46.4375 53.7797,46.3594 Q53.9281,46.2813 54.1313,46.2813 Q54.4594,46.2813 54.7172,46.5391 Q54.975,46.7969 54.975,47.1406 Q54.975,47.4844 54.6313,47.8906 Q54.1313,48.4688 53.3344,48.7969 Q52.2563,49.25 50.9594,49.25 Q49.4438,49.25 48.2406,48.625 Q47.2563,48.125 46.5688,47.0547 Q45.8813,45.9844 45.8813,44.7031 L45.8813,43.5469 Q45.8813,42.2188 46.4984,41.0703 Q47.1156,39.9219 48.2094,39.3047 Q49.3031,38.6875 50.5375,38.6875 Q51.2719,38.6875 51.9203,38.8516 Q52.5688,39.0156 53.1156,39.375 Z " fill="#000000"/><text fill="#000000" font-family="sans-serif" font-size="12" lengthAdjust="spacing" textLength="82" x="70.65" y="48.4102">ObjectWrapper</text><line style="stroke:#A80036;stroke-width:1.5;" x1="8" x2="183" y1="59.5" y2="59.5"/><line style="stroke:#A80036;stroke-width:1.5;" x1="8" x2="183" y1="67.5" y2="67.5"/><ellipse cx="18" cy="78.5" fill="#84BE84" rx="3" ry="3" style="stroke:#038048;stroke-width:1.0;"/><text fill="#000000" font-family="sans-serif" font-size="11" lengthAdjust="spacing" textLength="151" x="27" y="82.9189">ObjectWrapper(dto:ObjectDTO)</text><!--MD5=[fe6b2754769bc87cf156126798433078]
class CommandWrapper--><rect codeLine="4" fill="#FEFECE" filter="url(#f1gfyddbd69dtk)" height="103.3438" id="CommandWrapper" style="stroke:#A80036;stroke-width:1.5;" width="443" x="219" y="7"/><ellipse cx="383.25" cy="23" fill="#ADD1B2" rx="11" ry="11" style="stroke:#A80036;stroke-width:1.0;"/><path d="M386.0156,18.875 Q386.1719,18.6563 386.3594,18.5469 Q386.5469,18.4375 386.7656,18.4375 Q387.1406,18.4375 387.375,18.6953 Q387.6094,18.9531 387.6094,19.5625 L387.6094,21.0156 Q387.6094,21.625 387.375,21.8906 Q387.1406,22.1563 386.7656,22.1563 Q386.4219,22.1563 386.2188,21.9531 Q386.0156,21.7656 385.9063,21.25 Q385.8594,20.8906 385.6719,20.7031 Q385.3438,20.3281 384.7344,20.1094 Q384.125,19.8906 383.5,19.8906 Q382.7344,19.8906 382.1016,20.2188 Q381.4688,20.5469 380.9766,21.2969 Q380.4844,22.0469 380.4844,23.0781 L380.4844,24.1719 Q380.4844,25.4063 381.375,26.2266 Q382.2656,27.0469 383.8594,27.0469 Q384.7969,27.0469 385.4531,26.7969 Q385.8438,26.6406 386.2656,26.2031 Q386.5313,25.9375 386.6797,25.8594 Q386.8281,25.7813 387.0313,25.7813 Q387.3594,25.7813 387.6172,26.0391 Q387.875,26.2969 387.875,26.6406 Q387.875,26.9844 387.5313,27.3906 Q387.0313,27.9688 386.2344,28.2969 Q385.1563,28.75 383.8594,28.75 Q382.3438,28.75 381.1406,28.125 Q380.1563,27.625 379.4688,26.5547 Q378.7813,25.4844 378.7813,24.2031 L378.7813,23.0469 Q378.7813,21.7188 379.3984,20.5703 Q380.0156,19.4219 381.1094,18.8047 Q382.2031,18.1875 383.4375,18.1875 Q384.1719,18.1875 384.8203,18.3516 Q385.4688,18.5156 386.0156,18.875 Z " fill="#000000"/><text fill="#000000" font-family="sans-serif" font-size="12" lengthAdjust="spacing" textLength="106" x="403.75" y="27.9102">CommandWrapper</text><line style="stroke:#A80036;stroke-width:1.5;" x1="220" x2="661" y1="39" y2="39"/><line style="stroke:#A80036;stroke-width:1.5;" x1="220" x2="661" y1="47" y2="47"/><ellipse cx="230" cy="58" fill="#84BE84" rx="3" ry="3" style="stroke:#038048;stroke-width:1.0;"/><text fill="#000000" font-family="sans-serif" font-size="11" lengthAdjust="spacing" textLength="183" x="239" y="62.4189">CommandWrapper(dto:CommandDTO)</text><polygon fill="#FFFF44" points="230,66.8359,234,70.8359,230,74.8359,226,70.8359" style="stroke:#B38D22;stroke-width:1.0;"/><text fill="#000000" font-family="sans-serif" font-size="11" lengthAdjust="spacing" textLength="385" x="239" y="76.2549">Get(cmd:CommandDTO, name:string, target:(Func&lt;T&gt; get, Action&lt;T&gt; set)) : void</text><polygon fill="#FFFF44" points="230,80.6719,234,84.6719,230,88.6719,226,84.6719" style="stroke:#B38D22;stroke-width:1.0;"/><text fill="#000000" font-family="sans-serif" font-size="11" lengthAdjust="spacing" textLength="417" x="239" y="90.0908">Get(cmd:CommandDTO, name:string, target:(Func&lt;Guid&gt; get, Action&lt;Guid&gt; set)) : void</text><polygon fill="#FFFF44" points="230,94.5078,234,98.5078,230,102.5078,226,98.5078" style="stroke:#B38D22;stroke-width:1.0;"/><text fill="#000000" font-family="sans-serif" font-size="11" lengthAdjust="spacing" textLength="247" x="239" y="103.9268">Set(cmd:CommandDTO, name:string, value:T) : void</text><!--MD5=[a86c46b503d2a734898010b41f2fcc93]
class ObjectDTO--><rect fill="#FEFECE" filter="url(#f1gfyddbd69dtk)" height="48" id="ObjectDTO" style="stroke:#A80036;stroke-width:1.5;" width="92" x="49.5" y="170"/><ellipse cx="64.5" cy="186" fill="#ADD1B2" rx="11" ry="11" style="stroke:#A80036;stroke-width:1.0;"/><path d="M67.2656,181.875 Q67.4219,181.6563 67.6094,181.5469 Q67.7969,181.4375 68.0156,181.4375 Q68.3906,181.4375 68.625,181.6953 Q68.8594,181.9531 68.8594,182.5625 L68.8594,184.0156 Q68.8594,184.625 68.625,184.8906 Q68.3906,185.1563 68.0156,185.1563 Q67.6719,185.1563 67.4688,184.9531 Q67.2656,184.7656 67.1563,184.25 Q67.1094,183.8906 66.9219,183.7031 Q66.5938,183.3281 65.9844,183.1094 Q65.375,182.8906 64.75,182.8906 Q63.9844,182.8906 63.3516,183.2188 Q62.7188,183.5469 62.2266,184.2969 Q61.7344,185.0469 61.7344,186.0781 L61.7344,187.1719 Q61.7344,188.4063 62.625,189.2266 Q63.5156,190.0469 65.1094,190.0469 Q66.0469,190.0469 66.7031,189.7969 Q67.0938,189.6406 67.5156,189.2031 Q67.7813,188.9375 67.9297,188.8594 Q68.0781,188.7813 68.2813,188.7813 Q68.6094,188.7813 68.8672,189.0391 Q69.125,189.2969 69.125,189.6406 Q69.125,189.9844 68.7813,190.3906 Q68.2813,190.9688 67.4844,191.2969 Q66.4063,191.75 65.1094,191.75 Q63.5938,191.75 62.3906,191.125 Q61.4063,190.625 60.7188,189.5547 Q60.0313,188.4844 60.0313,187.2031 L60.0313,186.0469 Q60.0313,184.7188 60.6484,183.5703 Q61.2656,182.4219 62.3594,181.8047 Q63.4531,181.1875 64.6875,181.1875 Q65.4219,181.1875 66.0703,181.3516 Q66.7188,181.5156 67.2656,181.875 Z " fill="#000000"/><text fill="#000000" font-family="sans-serif" font-size="12" lengthAdjust="spacing" textLength="60" x="78.5" y="190.9102">ObjectDTO</text><line style="stroke:#A80036;stroke-width:1.5;" x1="50.5" x2="140.5" y1="202" y2="202"/><line style="stroke:#A80036;stroke-width:1.5;" x1="50.5" x2="140.5" y1="210" y2="210"/><!--MD5=[f5d54f60ec6d089d1cb017027d5a65a8]
class CommandDTO--><rect fill="#FEFECE" filter="url(#f1gfyddbd69dtk)" height="48" id="CommandDTO" style="stroke:#A80036;stroke-width:1.5;" width="116" x="382.5" y="170"/><ellipse cx="397.5" cy="186" fill="#ADD1B2" rx="11" ry="11" style="stroke:#A80036;stroke-width:1.0;"/><path d="M400.2656,181.875 Q400.4219,181.6563 400.6094,181.5469 Q400.7969,181.4375 401.0156,181.4375 Q401.3906,181.4375 401.625,181.6953 Q401.8594,181.9531 401.8594,182.5625 L401.8594,184.0156 Q401.8594,184.625 401.625,184.8906 Q401.3906,185.1563 401.0156,185.1563 Q400.6719,185.1563 400.4688,184.9531 Q400.2656,184.7656 400.1563,184.25 Q400.1094,183.8906 399.9219,183.7031 Q399.5938,183.3281 398.9844,183.1094 Q398.375,182.8906 397.75,182.8906 Q396.9844,182.8906 396.3516,183.2188 Q395.7188,183.5469 395.2266,184.2969 Q394.7344,185.0469 394.7344,186.0781 L394.7344,187.1719 Q394.7344,188.4063 395.625,189.2266 Q396.5156,190.0469 398.1094,190.0469 Q399.0469,190.0469 399.7031,189.7969 Q400.0938,189.6406 400.5156,189.2031 Q400.7813,188.9375 400.9297,188.8594 Q401.0781,188.7813 401.2813,188.7813 Q401.6094,188.7813 401.8672,189.0391 Q402.125,189.2969 402.125,189.6406 Q402.125,189.9844 401.7813,190.3906 Q401.2813,190.9688 400.4844,191.2969 Q399.4063,191.75 398.1094,191.75 Q396.5938,191.75 395.3906,191.125 Q394.4063,190.625 393.7188,189.5547 Q393.0313,188.4844 393.0313,187.2031 L393.0313,186.0469 Q393.0313,184.7188 393.6484,183.5703 Q394.2656,182.4219 395.3594,181.8047 Q396.4531,181.1875 397.6875,181.1875 Q398.4219,181.1875 399.0703,181.3516 Q399.7188,181.5156 400.2656,181.875 Z " fill="#000000"/><text fill="#000000" font-family="sans-serif" font-size="12" lengthAdjust="spacing" textLength="84" x="411.5" y="190.9102">CommandDTO</text><line style="stroke:#A80036;stroke-width:1.5;" x1="383.5" x2="497.5" y1="202" y2="202"/><line style="stroke:#A80036;stroke-width:1.5;" x1="383.5" x2="497.5" y1="210" y2="210"/><!--MD5=[219bd3936f376d031e8c298317b20e94]
link ObjectWrapper to ObjectDTO--><path codeLine="10" d="M95.5,89.79 C95.5,112.3 95.5,142.78 95.5,164.78 " fill="none" id="ObjectWrapper-to-ObjectDTO" style="stroke:#A80036;stroke-width:1.0;"/><polygon fill="#A80036" points="95.5,169.89,99.5,160.89,95.5,164.89,91.5,160.89,95.5,169.89" style="stroke:#A80036;stroke-width:1.0;"/><text fill="#000000" font-family="sans-serif" font-size="13" lengthAdjust="spacing" textLength="25" x="67.2969" y="159.202">_dto</text><!--MD5=[67880a3a229e4f21214e7372b1fe529c]
link CommandWrapper to CommandDTO--><path codeLine="11" d="M440.5,110.35 C440.5,128.76 440.5,148.87 440.5,164.65 " fill="none" id="CommandWrapper-to-CommandDTO" style="stroke:#A80036;stroke-width:1.0;"/><polygon fill="#A80036" points="440.5,169.83,444.5,160.83,440.5,164.83,436.5,160.83,440.5,169.83" style="stroke:#A80036;stroke-width:1.0;"/><text fill="#000000" font-family="sans-serif" font-size="13" lengthAdjust="spacing" textLength="27" x="410.0406" y="159.1266">Cmd</text><!--MD5=[4d8c68a3733d66729f490c169d55ac4e]
@startuml
class ObjectWrapper {
    + ObjectWrapper(dto:ObjectDTO)
}
class CommandWrapper {
    + CommandWrapper(dto:CommandDTO)
    # Get(cmd:CommandDTO, name:string, target:(Func<T> get, Action<T> set)) : void
    # Get(cmd:CommandDTO, name:string, target:(Func<Guid> get, Action<Guid> set)) : void
    # Set(cmd:CommandDTO, name:string, value:T) : void
}
ObjectWrapper - -> "_dto" ObjectDTO
CommandWrapper - -> "Cmd" CommandDTO
@enduml

PlantUML version 1.2021.10(Mon Aug 30 09:43:48 EDT 2021)
(GPL source distribution)
Java Runtime: Java(TM) SE Runtime Environment
JVM: Java HotSpot(TM) Client VM
Default Encoding: Cp1252
Language: en
Country: US
--></g></svg>