<?xml version="1.0" encoding="UTF-8" standalone="no"?><svg xmlns="http://www.w3.org/2000/svg" xmlns:xlink="http://www.w3.org/1999/xlink" contentScriptType="application/ecmascript" contentStyleType="text/css" height="582px" preserveAspectRatio="none" style="width:655px;height:582px;background:#FFFFFF;" version="1.1" viewBox="0 0 655 582" width="655px" zoomAndPan="magnify"><defs><filter height="300%" id="f1mc7u9z59k3rf" width="300%" x="-1" y="-1"><feGaussianBlur result="blurOut" stdDeviation="2.0"/><feColorMatrix in="blurOut" result="blurOut2" type="matrix" values="0 0 0 0 0 0 0 0 0 0 0 0 0 0 0 0 0 0 .4 0"/><feOffset dx="4.0" dy="4.0" in="blurOut2" result="blurOut3"/><feBlend in="SourceGraphic" in2="blurOut3" mode="normal"/></filter></defs><g><!--MD5=[6b1d3384926f1bc892ee196bbd0d7fce]
class BaseDTO--><rect codeLine="1" fill="#FEFECE" filter="url(#f1mc7u9z59k3rf)" height="111.5313" id="BaseDTO" style="stroke:#A80036;stroke-width:1.5;" width="439" x="9" y="7"/><ellipse cx="197.25" cy="27.0938" fill="#ADD1B2" rx="11" ry="11" style="stroke:#A80036;stroke-width:1.0;"/><path d="M200.0156,22.9688 Q200.1719,22.75 200.3594,22.6406 Q200.5469,22.5313 200.7656,22.5313 Q201.1406,22.5313 201.375,22.7891 Q201.6094,23.0469 201.6094,23.6563 L201.6094,25.1094 Q201.6094,25.7188 201.375,25.9844 Q201.1406,26.25 200.7656,26.25 Q200.4219,26.25 200.2188,26.0469 Q200.0156,25.8594 199.9063,25.3438 Q199.8594,24.9844 199.6719,24.7969 Q199.3438,24.4219 198.7344,24.2031 Q198.125,23.9844 197.5,23.9844 Q196.7344,23.9844 196.1016,24.3125 Q195.4688,24.6406 194.9766,25.3906 Q194.4844,26.1406 194.4844,27.1719 L194.4844,28.2656 Q194.4844,29.5 195.375,30.3203 Q196.2656,31.1406 197.8594,31.1406 Q198.7969,31.1406 199.4531,30.8906 Q199.8438,30.7344 200.2656,30.2969 Q200.5313,30.0313 200.6797,29.9531 Q200.8281,29.875 201.0313,29.875 Q201.3594,29.875 201.6172,30.1328 Q201.875,30.3906 201.875,30.7344 Q201.875,31.0781 201.5313,31.4844 Q201.0313,32.0625 200.2344,32.3906 Q199.1563,32.8438 197.8594,32.8438 Q196.3438,32.8438 195.1406,32.2188 Q194.1563,31.7188 193.4688,30.6484 Q192.7813,29.5781 192.7813,28.2969 L192.7813,27.1406 Q192.7813,25.8125 193.3984,24.6641 Q194.0156,23.5156 195.1094,22.8984 Q196.2031,22.2813 197.4375,22.2813 Q198.1719,22.2813 198.8203,22.4453 Q199.4688,22.6094 200.0156,22.9688 Z " fill="#000000"/><text fill="#000000" font-family="sans-serif" font-size="12" font-style="italic" lengthAdjust="spacing" textLength="48" x="220.75" y="24.457">«partial»</text><text fill="#000000" font-family="sans-serif" font-size="12" lengthAdjust="spacing" textLength="54" x="217.75" y="39.5508">BaseDTO</text><line style="stroke:#A80036;stroke-width:1.5;" x1="10" x2="447" y1="47.1875" y2="47.1875"/><line style="stroke:#A80036;stroke-width:1.5;" x1="10" x2="447" y1="55.1875" y2="55.1875"/><polygon fill="#FFFF44" points="20,61.1875,24,65.1875,20,69.1875,16,65.1875" style="stroke:#B38D22;stroke-width:1.0;"/><text fill="#000000" font-family="sans-serif" font-size="11" lengthAdjust="spacing" textLength="323" x="29" y="70.6064">StringFromPropertyList(list:List&lt;PropertyDTO&gt;, name:string) : string</text><polygon fill="#FFFF44" points="20,75.0234,24,79.0234,20,83.0234,16,79.0234" style="stroke:#B38D22;stroke-width:1.0;"/><text fill="#000000" font-family="sans-serif" font-size="11" lengthAdjust="spacing" textLength="390" x="29" y="84.4424">StringToPropertyList(list:List&lt;PropertyDTO&gt;, name:string, newValue:string) : void</text><polygon fill="#FFFF44" points="20,88.8594,24,92.8594,20,96.8594,16,92.8594" style="stroke:#B38D22;stroke-width:1.0;"/><text fill="#000000" font-family="sans-serif" font-size="11" lengthAdjust="spacing" textLength="346" x="29" y="98.2783">BooleanFromPropertyList(list:List&lt;PropertyDTO&gt;, name:string) : Boolean</text><polygon fill="#FFFF44" points="20,102.6953,24,106.6953,20,110.6953,16,106.6953" style="stroke:#B38D22;stroke-width:1.0;"/><text fill="#000000" font-family="sans-serif" font-size="11" lengthAdjust="spacing" textLength="413" x="29" y="112.1143">BooleanToPropertyList(list:List&lt;PropertyDTO&gt;, name:string, newValue:Boolean) : void</text><!--MD5=[23b6773f51aa56bb6c9a60bafc81a5c0]
class ValueDTO--><rect codeLine="7" fill="#FEFECE" filter="url(#f1mc7u9z59k3rf)" height="131.0156" id="ValueDTO" style="stroke:#A80036;stroke-width:1.5;" width="177" x="379" y="179"/><ellipse cx="435.25" cy="195" fill="#ADD1B2" rx="11" ry="11" style="stroke:#A80036;stroke-width:1.0;"/><path d="M438.0156,190.875 Q438.1719,190.6563 438.3594,190.5469 Q438.5469,190.4375 438.7656,190.4375 Q439.1406,190.4375 439.375,190.6953 Q439.6094,190.9531 439.6094,191.5625 L439.6094,193.0156 Q439.6094,193.625 439.375,193.8906 Q439.1406,194.1563 438.7656,194.1563 Q438.4219,194.1563 438.2188,193.9531 Q438.0156,193.7656 437.9063,193.25 Q437.8594,192.8906 437.6719,192.7031 Q437.3438,192.3281 436.7344,192.1094 Q436.125,191.8906 435.5,191.8906 Q434.7344,191.8906 434.1016,192.2188 Q433.4688,192.5469 432.9766,193.2969 Q432.4844,194.0469 432.4844,195.0781 L432.4844,196.1719 Q432.4844,197.4063 433.375,198.2266 Q434.2656,199.0469 435.8594,199.0469 Q436.7969,199.0469 437.4531,198.7969 Q437.8438,198.6406 438.2656,198.2031 Q438.5313,197.9375 438.6797,197.8594 Q438.8281,197.7813 439.0313,197.7813 Q439.3594,197.7813 439.6172,198.0391 Q439.875,198.2969 439.875,198.6406 Q439.875,198.9844 439.5313,199.3906 Q439.0313,199.9688 438.2344,200.2969 Q437.1563,200.75 435.8594,200.75 Q434.3438,200.75 433.1406,200.125 Q432.1563,199.625 431.4688,198.5547 Q430.7813,197.4844 430.7813,196.2031 L430.7813,195.0469 Q430.7813,193.7188 431.3984,192.5703 Q432.0156,191.4219 433.1094,190.8047 Q434.2031,190.1875 435.4375,190.1875 Q436.1719,190.1875 436.8203,190.3516 Q437.4688,190.5156 438.0156,190.875 Z " fill="#000000"/><text fill="#000000" font-family="sans-serif" font-size="12" lengthAdjust="spacing" textLength="56" x="455.75" y="199.9102">ValueDTO</text><line style="stroke:#A80036;stroke-width:1.5;" x1="380" x2="555" y1="211" y2="211"/><ellipse cx="390" cy="222" rx="3" ry="3" style="stroke:#038048;stroke-width:1.0;fill:none;"/><text fill="#000000" font-family="sans-serif" font-size="11" lengthAdjust="spacing" textLength="119" x="399" y="226.4189">Int32Value : Int32? «get»</text><ellipse cx="390" cy="235.8359" rx="3" ry="3" style="stroke:#038048;stroke-width:1.0;fill:none;"/><text fill="#000000" font-family="sans-serif" font-size="11" lengthAdjust="spacing" textLength="119" x="399" y="240.2549">Int64Value : Int64? «get»</text><ellipse cx="390" cy="249.6719" rx="3" ry="3" style="stroke:#038048;stroke-width:1.0;fill:none;"/><text fill="#000000" font-family="sans-serif" font-size="11" lengthAdjust="spacing" textLength="139" x="399" y="254.0908">DoubleValue : Double? «get»</text><ellipse cx="390" cy="263.5078" rx="3" ry="3" style="stroke:#038048;stroke-width:1.0;fill:none;"/><text fill="#000000" font-family="sans-serif" font-size="11" lengthAdjust="spacing" textLength="151" x="399" y="267.9268">BooleanValue : Boolean? «get»</text><line style="stroke:#A80036;stroke-width:1.5;" x1="380" x2="555" y1="274.3438" y2="274.3438"/><ellipse cx="390" cy="285.3438" fill="#84BE84" rx="3" ry="3" style="stroke:#038048;stroke-width:1.0;"/><text fill="#000000" font-family="sans-serif" font-size="11" lengthAdjust="spacing" text-decoration="underline" textLength="149" x="399" y="289.7627">Create(v:T) : ValueImplDTO&lt;T&gt;</text><ellipse cx="390" cy="299.1797" fill="#84BE84" rx="3" ry="3" style="stroke:#038048;stroke-width:1.0;"/><text fill="#000000" font-family="sans-serif" font-size="11" lengthAdjust="spacing" textLength="139" x="399" y="303.5986">«override» ToString() : string</text><!--MD5=[bacf0755c07c84446be5cd94dba314d9]
class ArgumentDTO--><rect codeLine="15" fill="#FEFECE" filter="url(#f1mc7u9z59k3rf)" height="48" id="ArgumentDTO" style="stroke:#A80036;stroke-width:1.5;" width="110" x="483.5" y="39"/><ellipse cx="498.5" cy="55" fill="#ADD1B2" rx="11" ry="11" style="stroke:#A80036;stroke-width:1.0;"/><path d="M501.2656,50.875 Q501.4219,50.6563 501.6094,50.5469 Q501.7969,50.4375 502.0156,50.4375 Q502.3906,50.4375 502.625,50.6953 Q502.8594,50.9531 502.8594,51.5625 L502.8594,53.0156 Q502.8594,53.625 502.625,53.8906 Q502.3906,54.1563 502.0156,54.1563 Q501.6719,54.1563 501.4688,53.9531 Q501.2656,53.7656 501.1563,53.25 Q501.1094,52.8906 500.9219,52.7031 Q500.5938,52.3281 499.9844,52.1094 Q499.375,51.8906 498.75,51.8906 Q497.9844,51.8906 497.3516,52.2188 Q496.7188,52.5469 496.2266,53.2969 Q495.7344,54.0469 495.7344,55.0781 L495.7344,56.1719 Q495.7344,57.4063 496.625,58.2266 Q497.5156,59.0469 499.1094,59.0469 Q500.0469,59.0469 500.7031,58.7969 Q501.0938,58.6406 501.5156,58.2031 Q501.7813,57.9375 501.9297,57.8594 Q502.0781,57.7813 502.2813,57.7813 Q502.6094,57.7813 502.8672,58.0391 Q503.125,58.2969 503.125,58.6406 Q503.125,58.9844 502.7813,59.3906 Q502.2813,59.9688 501.4844,60.2969 Q500.4063,60.75 499.1094,60.75 Q497.5938,60.75 496.3906,60.125 Q495.4063,59.625 494.7188,58.5547 Q494.0313,57.4844 494.0313,56.2031 L494.0313,55.0469 Q494.0313,53.7188 494.6484,52.5703 Q495.2656,51.4219 496.3594,50.8047 Q497.4531,50.1875 498.6875,50.1875 Q499.4219,50.1875 500.0703,50.3516 Q500.7188,50.5156 501.2656,50.875 Z " fill="#000000"/><text fill="#000000" font-family="sans-serif" font-size="12" lengthAdjust="spacing" textLength="78" x="512.5" y="59.9102">ArgumentDTO</text><line style="stroke:#A80036;stroke-width:1.5;" x1="484.5" x2="592.5" y1="71" y2="71"/><line style="stroke:#A80036;stroke-width:1.5;" x1="484.5" x2="592.5" y1="79" y2="79"/><!--MD5=[4f4fa34473ffd49925a80fb5889ddefc]
class ValueImplDTO`1--><rect codeLine="17" fill="#FEFECE" filter="url(#f1mc7u9z59k3rf)" height="89.5078" id="ValueImplDTO`1" style="stroke:#A80036;stroke-width:1.5;" width="202" x="241.5" y="370"/><ellipse cx="287.25" cy="386" fill="#ADD1B2" rx="11" ry="11" style="stroke:#A80036;stroke-width:1.0;"/><path d="M290.0156,381.875 Q290.1719,381.6563 290.3594,381.5469 Q290.5469,381.4375 290.7656,381.4375 Q291.1406,381.4375 291.375,381.6953 Q291.6094,381.9531 291.6094,382.5625 L291.6094,384.0156 Q291.6094,384.625 291.375,384.8906 Q291.1406,385.1563 290.7656,385.1563 Q290.4219,385.1563 290.2188,384.9531 Q290.0156,384.7656 289.9063,384.25 Q289.8594,383.8906 289.6719,383.7031 Q289.3438,383.3281 288.7344,383.1094 Q288.125,382.8906 287.5,382.8906 Q286.7344,382.8906 286.1016,383.2188 Q285.4688,383.5469 284.9766,384.2969 Q284.4844,385.0469 284.4844,386.0781 L284.4844,387.1719 Q284.4844,388.4063 285.375,389.2266 Q286.2656,390.0469 287.8594,390.0469 Q288.7969,390.0469 289.4531,389.7969 Q289.8438,389.6406 290.2656,389.2031 Q290.5313,388.9375 290.6797,388.8594 Q290.8281,388.7813 291.0313,388.7813 Q291.3594,388.7813 291.6172,389.0391 Q291.875,389.2969 291.875,389.6406 Q291.875,389.9844 291.5313,390.3906 Q291.0313,390.9688 290.2344,391.2969 Q289.1563,391.75 287.8594,391.75 Q286.3438,391.75 285.1406,391.125 Q284.1563,390.625 283.4688,389.5547 Q282.7813,388.4844 282.7813,387.2031 L282.7813,386.0469 Q282.7813,384.7188 283.3984,383.5703 Q284.0156,382.4219 285.1094,381.8047 Q286.2031,381.1875 287.4375,381.1875 Q288.1719,381.1875 288.8203,381.3516 Q289.4688,381.5156 290.0156,381.875 Z " fill="#000000"/><text fill="#000000" font-family="sans-serif" font-size="12" lengthAdjust="spacing" textLength="91" x="307.75" y="390.9102">ValueImplDTO`1</text><rect fill="#FFFFFF" height="17.0938" style="stroke:#000000;stroke-width:1.0;stroke-dasharray:2.0,2.0;" width="9" x="437.5" y="367"/><text fill="#000000" font-family="sans-serif" font-size="12" font-style="italic" lengthAdjust="spacing" textLength="7" x="438.5" y="380.457">T</text><line style="stroke:#A80036;stroke-width:1.5;" x1="242.5" x2="442.5" y1="402" y2="402"/><ellipse cx="252.5" cy="413" rx="3" ry="3" style="stroke:#038048;stroke-width:1.0;fill:none;"/><text fill="#000000" font-family="sans-serif" font-size="11" lengthAdjust="spacing" textLength="103" x="261.5" y="417.4189">Value : T «get» «set»</text><ellipse cx="252.5" cy="426.8359" rx="3" ry="3" style="stroke:#038048;stroke-width:1.0;fill:none;"/><text fill="#000000" font-family="sans-serif" font-size="11" lengthAdjust="spacing" textLength="176" x="261.5" y="431.2549">«override» ObjectType : string «get»</text><line style="stroke:#A80036;stroke-width:1.5;" x1="242.5" x2="442.5" y1="437.6719" y2="437.6719"/><ellipse cx="252.5" cy="448.6719" fill="#84BE84" rx="3" ry="3" style="stroke:#038048;stroke-width:1.0;"/><text fill="#000000" font-family="sans-serif" font-size="11" lengthAdjust="spacing" textLength="90" x="261.5" y="453.0908">ValueImplDTO(v:T)</text><!--MD5=[9df70cf33be424c1b8543b3f439cae89]
class String--><rect fill="#FEFECE" filter="url(#f1mc7u9z59k3rf)" height="48" id="String" style="stroke:#A80036;stroke-width:1.5;" width="64" x="549.5" y="391"/><ellipse cx="564.5" cy="407" fill="#ADD1B2" rx="11" ry="11" style="stroke:#A80036;stroke-width:1.0;"/><path d="M567.2656,402.875 Q567.4219,402.6563 567.6094,402.5469 Q567.7969,402.4375 568.0156,402.4375 Q568.3906,402.4375 568.625,402.6953 Q568.8594,402.9531 568.8594,403.5625 L568.8594,405.0156 Q568.8594,405.625 568.625,405.8906 Q568.3906,406.1563 568.0156,406.1563 Q567.6719,406.1563 567.4688,405.9531 Q567.2656,405.7656 567.1563,405.25 Q567.1094,404.8906 566.9219,404.7031 Q566.5938,404.3281 565.9844,404.1094 Q565.375,403.8906 564.75,403.8906 Q563.9844,403.8906 563.3516,404.2188 Q562.7188,404.5469 562.2266,405.2969 Q561.7344,406.0469 561.7344,407.0781 L561.7344,408.1719 Q561.7344,409.4063 562.625,410.2266 Q563.5156,411.0469 565.1094,411.0469 Q566.0469,411.0469 566.7031,410.7969 Q567.0938,410.6406 567.5156,410.2031 Q567.7813,409.9375 567.9297,409.8594 Q568.0781,409.7813 568.2813,409.7813 Q568.6094,409.7813 568.8672,410.0391 Q569.125,410.2969 569.125,410.6406 Q569.125,410.9844 568.7813,411.3906 Q568.2813,411.9688 567.4844,412.2969 Q566.4063,412.75 565.1094,412.75 Q563.5938,412.75 562.3906,412.125 Q561.4063,411.625 560.7188,410.5547 Q560.0313,409.4844 560.0313,408.2031 L560.0313,407.0469 Q560.0313,405.7188 560.6484,404.5703 Q561.2656,403.4219 562.3594,402.8047 Q563.4531,402.1875 564.6875,402.1875 Q565.4219,402.1875 566.0703,402.3516 Q566.7188,402.5156 567.2656,402.875 Z " fill="#000000"/><text fill="#000000" font-family="sans-serif" font-size="12" lengthAdjust="spacing" textLength="32" x="578.5" y="411.9102">String</text><line style="stroke:#A80036;stroke-width:1.5;" x1="550.5" x2="612.5" y1="423" y2="423"/><line style="stroke:#A80036;stroke-width:1.5;" x1="550.5" x2="612.5" y1="431" y2="431"/><!--MD5=[767cd6a570be8fd3cb87989bc4c5b2a9]
class JsonDocument--><rect fill="#FEFECE" filter="url(#f1mc7u9z59k3rf)" height="48" id="JsonDocument" style="stroke:#A80036;stroke-width:1.5;" width="116" x="361.5" y="520"/><ellipse cx="376.5" cy="536" fill="#ADD1B2" rx="11" ry="11" style="stroke:#A80036;stroke-width:1.0;"/><path d="M379.2656,531.875 Q379.4219,531.6563 379.6094,531.5469 Q379.7969,531.4375 380.0156,531.4375 Q380.3906,531.4375 380.625,531.6953 Q380.8594,531.9531 380.8594,532.5625 L380.8594,534.0156 Q380.8594,534.625 380.625,534.8906 Q380.3906,535.1563 380.0156,535.1563 Q379.6719,535.1563 379.4688,534.9531 Q379.2656,534.7656 379.1563,534.25 Q379.1094,533.8906 378.9219,533.7031 Q378.5938,533.3281 377.9844,533.1094 Q377.375,532.8906 376.75,532.8906 Q375.9844,532.8906 375.3516,533.2188 Q374.7188,533.5469 374.2266,534.2969 Q373.7344,535.0469 373.7344,536.0781 L373.7344,537.1719 Q373.7344,538.4063 374.625,539.2266 Q375.5156,540.0469 377.1094,540.0469 Q378.0469,540.0469 378.7031,539.7969 Q379.0938,539.6406 379.5156,539.2031 Q379.7813,538.9375 379.9297,538.8594 Q380.0781,538.7813 380.2813,538.7813 Q380.6094,538.7813 380.8672,539.0391 Q381.125,539.2969 381.125,539.6406 Q381.125,539.9844 380.7813,540.3906 Q380.2813,540.9688 379.4844,541.2969 Q378.4063,541.75 377.1094,541.75 Q375.5938,541.75 374.3906,541.125 Q373.4063,540.625 372.7188,539.5547 Q372.0313,538.4844 372.0313,537.2031 L372.0313,536.0469 Q372.0313,534.7188 372.6484,533.5703 Q373.2656,532.4219 374.3594,531.8047 Q375.4531,531.1875 376.6875,531.1875 Q377.4219,531.1875 378.0703,531.3516 Q378.7188,531.5156 379.2656,531.875 Z " fill="#000000"/><text fill="#000000" font-family="sans-serif" font-size="12" lengthAdjust="spacing" textLength="84" x="390.5" y="540.9102">JsonDocument</text><line style="stroke:#A80036;stroke-width:1.5;" x1="362.5" x2="476.5" y1="552" y2="552"/><line style="stroke:#A80036;stroke-width:1.5;" x1="362.5" x2="476.5" y1="560" y2="560"/><!--MD5=[7e2b46783648191d8842632942be4f84]
link ValueDTO to String--><path codeLine="22" d="M498.81,310.16 C515.96,336.79 536.77,366.18 553.48,386.87 " fill="none" id="ValueDTO-to-String" style="stroke:#A80036;stroke-width:1.0;"/><polygon fill="#A80036" points="556.76,390.89,554.151,381.393,553.5915,387.0221,547.9624,386.4626,556.76,390.89" style="stroke:#A80036;stroke-width:1.0;"/><text fill="#000000" font-family="sans-serif" font-size="13" lengthAdjust="spacing" textLength="67" x="474.836" y="380.202">StringValue</text><!--MD5=[7e2b46783648191d8842632942be4f84]
link ValueDTO to String--><path codeLine="23" d="M524.42,310.16 C543.19,336.57 561.93,365.69 573.1,386.35 " fill="none" id="ValueDTO-to-String-1" style="stroke:#A80036;stroke-width:1.0;"/><polygon fill="#A80036" points="575.5,390.89,574.8139,381.0651,573.156,386.4735,567.7475,384.8155,575.5,390.89" style="stroke:#A80036;stroke-width:1.0;"/><text fill="#000000" font-family="sans-serif" font-size="13" lengthAdjust="spacing" textLength="66" x="582.4188" y="380.202">ObjectType</text><!--MD5=[bcf96833aa35e42ea35ad81b8a9358dd]
link ValueDTO to JsonDocument--><path codeLine="24" d="M472.99,310.33 C474.86,353.42 473.95,410.89 461.5,460 C456.57,479.44 446.55,499.54 437.53,515.1 " fill="none" id="ValueDTO-to-JsonDocument" style="stroke:#A80036;stroke-width:1.0;"/><polygon fill="#A80036" points="434.77,519.77,442.7942,514.0593,437.3151,515.4662,435.9081,509.9871,434.77,519.77" style="stroke:#A80036;stroke-width:1.0;"/><text fill="#000000" font-family="sans-serif" font-size="13" lengthAdjust="spacing" textLength="71" x="447.7798" y="509.0512">ObjectValue</text><!--MD5=[db286b8dc200190494878cbb4b812529]
link ArgumentDTO to String--><path codeLine="25" d="M547.58,87.36 C556.03,110.29 568.09,146.47 573.5,179 C585.75,252.72 584.57,341.17 582.91,385.59 " fill="none" id="ArgumentDTO-to-String" style="stroke:#A80036;stroke-width:1.0;"/><polygon fill="#A80036" points="582.7,390.79,587.0565,381.9571,582.8998,385.794,579.0629,381.6373,582.7,390.79" style="stroke:#A80036;stroke-width:1.0;"/><text fill="#000000" font-family="sans-serif" font-size="13" lengthAdjust="spacing" textLength="34" x="544.6513" y="380.0763">Name</text><!--MD5=[31b495657268ef94a44862dc8123a7ce]
link ArgumentDTO to ValueDTO--><path codeLine="26" d="M529.36,87.1 C520.69,109.03 507.2,143.12 495.03,173.89 " fill="none" id="ArgumentDTO-to-ValueDTO" style="stroke:#A80036;stroke-width:1.0;"/><polygon fill="#A80036" points="493.09,178.8,500.1282,171.9106,494.9346,174.1527,492.6925,168.9592,493.09,178.8" style="stroke:#A80036;stroke-width:1.0;"/><text fill="#000000" font-family="sans-serif" font-size="13" lengthAdjust="spacing" textLength="33" x="461.0842" y="168.2526">Value</text><!--MD5=[43d49d7b262a8bed35133ae671a7ff17]
reverse link ValueDTO to ValueImplDTO`1--><path codeLine="27" d="M397.69,322.48 C385.45,338.72 373.57,355.33 363.88,369.86 " fill="none" id="ValueDTO-backto-ValueImplDTO`1" style="stroke:#A80036;stroke-width:1.0;"/><ellipse cx="402.2378" cy="316.5205" fill="#FFFFFF" rx="8" ry="8" style="stroke:#A80036;stroke-width:1.0;"/><line style="stroke:#A80036;stroke-width:1.0;" x1="397.3855" x2="407.09" y1="322.881" y2="310.16"/><line style="stroke:#A80036;stroke-width:1.0;" x1="395.8773" x2="408.5982" y1="311.6682" y2="321.3727"/><!--MD5=[43d49d7b262a8bed35133ae671a7ff17]
reverse link ValueDTO to ValueImplDTO`1--><path codeLine="28" d="M420.69,326.78 C409.75,341.63 398.16,356.61 387.28,369.86 " fill="none" id="ValueDTO-backto-ValueImplDTO`1-1" style="stroke:#A80036;stroke-width:1.0;"/><polygon fill="none" points="415.31,322.28,432.7,310.16,426.66,330.48,415.31,322.28" style="stroke:#A80036;stroke-width:1.0;"/><!--MD5=[ad1c671b45d6f7a2fc452121f9528084]
link ValueImplDTO`1 to JsonDocument--><path codeLine="29" d="M369.21,460.06 C380.33,478.4 392.9,499.13 402.69,515.27 " fill="none" id="ValueImplDTO`1-to-JsonDocument" style="stroke:#A80036;stroke-width:1.0;"/><polygon fill="#A80036" points="405.37,519.7,404.1311,509.9294,402.7807,515.4227,397.2874,514.0722,405.37,519.7" style="stroke:#A80036;stroke-width:1.0;"/><text fill="#000000" font-family="sans-serif" font-size="13" lengthAdjust="spacing" textLength="71" x="321.6523" y="508.9633">ObjectValue</text><!--MD5=[ae50ecc318a4327a9370fb840039516f]
@startuml
class BaseDTO <<partial>> {
    # StringFromPropertyList(list:List<PropertyDTO>, name:string) : string
    # StringToPropertyList(list:List<PropertyDTO>, name:string, newValue:string) : void
    # BooleanFromPropertyList(list:List<PropertyDTO>, name:string) : Boolean
    # BooleanToPropertyList(list:List<PropertyDTO>, name:string, newValue:Boolean) : void
}
class ValueDTO {
    + {static} Create(v:T) : ValueImplDTO<T>
    + Int32Value : Int32? <<get>>
    + Int64Value : Int64? <<get>>
    + DoubleValue : Double? <<get>>
    + BooleanValue : Boolean? <<get>>
    + <<override>> ToString() : string
}
class ArgumentDTO {
}
class "ValueImplDTO`1"<T> {
    + ValueImplDTO(v:T)
    + Value : T <<get>> <<set>>
    + <<override>> ObjectType : string <<get>>
}
ValueDTO - -> "StringValue" String
ValueDTO - -> "ObjectType" String
ValueDTO - -> "ObjectValue" JsonDocument
ArgumentDTO - -> "Name" String
ArgumentDTO - -> "Value" ValueDTO
ValueDTO +- - "ValueImplDTO`1"
ValueDTO <|- - "ValueImplDTO`1"
"ValueImplDTO`1" - -> "ObjectValue" JsonDocument
@enduml

PlantUML version 1.2021.10(Mon Aug 30 09:43:48 EDT 2021)
(GPL source distribution)
Java Runtime: Java(TM) SE Runtime Environment
JVM: Java HotSpot(TM) Client VM
Default Encoding: Cp1252
Language: en
Country: US
--></g></svg>