<?xml version="1.0" encoding="UTF-8" standalone="no"?><svg xmlns="http://www.w3.org/2000/svg" xmlns:xlink="http://www.w3.org/1999/xlink" contentScriptType="application/ecmascript" contentStyleType="text/css" height="132px" preserveAspectRatio="none" style="width:460px;height:132px;background:#FFFFFF;" version="1.1" viewBox="0 0 460 132" width="460px" zoomAndPan="magnify"><defs><filter height="300%" id="ftryukskc3itb" width="300%" x="-1" y="-1"><feGaussianBlur result="blurOut" stdDeviation="2.0"/><feColorMatrix in="blurOut" result="blurOut2" type="matrix" values="0 0 0 0 0 0 0 0 0 0 0 0 0 0 0 0 0 0 .4 0"/><feOffset dx="4.0" dy="4.0" in="blurOut2" result="blurOut3"/><feBlend in="SourceGraphic" in2="blurOut3" mode="normal"/></filter></defs><g><!--MD5=[6b1d3384926f1bc892ee196bbd0d7fce]
class BaseDTO--><rect codeLine="1" fill="#FEFECE" filter="url(#ftryukskc3itb)" height="111.5313" id="BaseDTO" style="stroke:#A80036;stroke-width:1.5;" width="439" x="7" y="7"/><ellipse cx="195.25" cy="27.0938" fill="#ADD1B2" rx="11" ry="11" style="stroke:#A80036;stroke-width:1.0;"/><path d="M198.0156,22.9688 Q198.1719,22.75 198.3594,22.6406 Q198.5469,22.5313 198.7656,22.5313 Q199.1406,22.5313 199.375,22.7891 Q199.6094,23.0469 199.6094,23.6563 L199.6094,25.1094 Q199.6094,25.7188 199.375,25.9844 Q199.1406,26.25 198.7656,26.25 Q198.4219,26.25 198.2188,26.0469 Q198.0156,25.8594 197.9063,25.3438 Q197.8594,24.9844 197.6719,24.7969 Q197.3438,24.4219 196.7344,24.2031 Q196.125,23.9844 195.5,23.9844 Q194.7344,23.9844 194.1016,24.3125 Q193.4688,24.6406 192.9766,25.3906 Q192.4844,26.1406 192.4844,27.1719 L192.4844,28.2656 Q192.4844,29.5 193.375,30.3203 Q194.2656,31.1406 195.8594,31.1406 Q196.7969,31.1406 197.4531,30.8906 Q197.8438,30.7344 198.2656,30.2969 Q198.5313,30.0313 198.6797,29.9531 Q198.8281,29.875 199.0313,29.875 Q199.3594,29.875 199.6172,30.1328 Q199.875,30.3906 199.875,30.7344 Q199.875,31.0781 199.5313,31.4844 Q199.0313,32.0625 198.2344,32.3906 Q197.1563,32.8438 195.8594,32.8438 Q194.3438,32.8438 193.1406,32.2188 Q192.1563,31.7188 191.4688,30.6484 Q190.7813,29.5781 190.7813,28.2969 L190.7813,27.1406 Q190.7813,25.8125 191.3984,24.6641 Q192.0156,23.5156 193.1094,22.8984 Q194.2031,22.2813 195.4375,22.2813 Q196.1719,22.2813 196.8203,22.4453 Q197.4688,22.6094 198.0156,22.9688 Z " fill="#000000"/><text fill="#000000" font-family="sans-serif" font-size="12" font-style="italic" lengthAdjust="spacing" textLength="48" x="218.75" y="24.457">«partial»</text><text fill="#000000" font-family="sans-serif" font-size="12" lengthAdjust="spacing" textLength="54" x="215.75" y="39.5508">BaseDTO</text><line style="stroke:#A80036;stroke-width:1.5;" x1="8" x2="445" y1="47.1875" y2="47.1875"/><line style="stroke:#A80036;stroke-width:1.5;" x1="8" x2="445" y1="55.1875" y2="55.1875"/><polygon fill="#FFFF44" points="18,61.1875,22,65.1875,18,69.1875,14,65.1875" style="stroke:#B38D22;stroke-width:1.0;"/><text fill="#000000" font-family="sans-serif" font-size="11" lengthAdjust="spacing" textLength="323" x="27" y="70.6064">StringFromPropertyList(list:List&lt;PropertyDTO&gt;, name:string) : string</text><polygon fill="#FFFF44" points="18,75.0234,22,79.0234,18,83.0234,14,79.0234" style="stroke:#B38D22;stroke-width:1.0;"/><text fill="#000000" font-family="sans-serif" font-size="11" lengthAdjust="spacing" textLength="390" x="27" y="84.4424">StringToPropertyList(list:List&lt;PropertyDTO&gt;, name:string, newValue:string) : void</text><polygon fill="#FFFF44" points="18,88.8594,22,92.8594,18,96.8594,14,92.8594" style="stroke:#B38D22;stroke-width:1.0;"/><text fill="#000000" font-family="sans-serif" font-size="11" lengthAdjust="spacing" textLength="346" x="27" y="98.2783">BooleanFromPropertyList(list:List&lt;PropertyDTO&gt;, name:string) : Boolean</text><polygon fill="#FFFF44" points="18,102.6953,22,106.6953,18,110.6953,14,106.6953" style="stroke:#B38D22;stroke-width:1.0;"/><text fill="#000000" font-family="sans-serif" font-size="11" lengthAdjust="spacing" textLength="413" x="27" y="112.1143">BooleanToPropertyList(list:List&lt;PropertyDTO&gt;, name:string, newValue:Boolean) : void</text><!--MD5=[0f3147508f62f560639d0906840bfe79]
@startuml
class BaseDTO <<partial>> {
    # StringFromPropertyList(list:List<PropertyDTO>, name:string) : string
    # StringToPropertyList(list:List<PropertyDTO>, name:string, newValue:string) : void
    # BooleanFromPropertyList(list:List<PropertyDTO>, name:string) : Boolean
    # BooleanToPropertyList(list:List<PropertyDTO>, name:string, newValue:Boolean) : void
}
@enduml

PlantUML version 1.2021.10(Mon Aug 30 15:43:48 CEST 2021)
(GPL source distribution)
Java Runtime: Java(TM) SE Runtime Environment
JVM: Java HotSpot(TM) Client VM
Default Encoding: Cp1252
Language: de
Country: CH
--></g></svg>