<?xml version="1.0" encoding="UTF-8" standalone="no"?><svg xmlns="http://www.w3.org/2000/svg" xmlns:xlink="http://www.w3.org/1999/xlink" contentScriptType="application/ecmascript" contentStyleType="text/css" height="336px" preserveAspectRatio="none" style="width:717px;height:336px;background:#FFFFFF;" version="1.1" viewBox="0 0 717 336" width="717px" zoomAndPan="magnify"><defs><filter height="300%" id="f1jheptr7ys86x" width="300%" x="-1" y="-1"><feGaussianBlur result="blurOut" stdDeviation="2.0"/><feColorMatrix in="blurOut" result="blurOut2" type="matrix" values="0 0 0 0 0 0 0 0 0 0 0 0 0 0 0 0 0 0 .4 0"/><feOffset dx="4.0" dy="4.0" in="blurOut2" result="blurOut3"/><feBlend in="SourceGraphic" in2="blurOut3" mode="normal"/></filter></defs><g><!--MD5=[6b1d3384926f1bc892ee196bbd0d7fce]
class BaseDTO--><rect codeLine="1" fill="#FEFECE" filter="url(#f1jheptr7ys86x)" height="56.1875" id="BaseDTO" style="stroke:#A80036;stroke-width:1.5;" width="86" x="272" y="28.5"/><ellipse cx="287" cy="48.5938" fill="#ADD1B2" rx="11" ry="11" style="stroke:#A80036;stroke-width:1.0;"/><path d="M289.7656,44.4688 Q289.9219,44.25 290.1094,44.1406 Q290.2969,44.0313 290.5156,44.0313 Q290.8906,44.0313 291.125,44.2891 Q291.3594,44.5469 291.3594,45.1563 L291.3594,46.6094 Q291.3594,47.2188 291.125,47.4844 Q290.8906,47.75 290.5156,47.75 Q290.1719,47.75 289.9688,47.5469 Q289.7656,47.3594 289.6563,46.8438 Q289.6094,46.4844 289.4219,46.2969 Q289.0938,45.9219 288.4844,45.7031 Q287.875,45.4844 287.25,45.4844 Q286.4844,45.4844 285.8516,45.8125 Q285.2188,46.1406 284.7266,46.8906 Q284.2344,47.6406 284.2344,48.6719 L284.2344,49.7656 Q284.2344,51 285.125,51.8203 Q286.0156,52.6406 287.6094,52.6406 Q288.5469,52.6406 289.2031,52.3906 Q289.5938,52.2344 290.0156,51.7969 Q290.2813,51.5313 290.4297,51.4531 Q290.5781,51.375 290.7813,51.375 Q291.1094,51.375 291.3672,51.6328 Q291.625,51.8906 291.625,52.2344 Q291.625,52.5781 291.2813,52.9844 Q290.7813,53.5625 289.9844,53.8906 Q288.9063,54.3438 287.6094,54.3438 Q286.0938,54.3438 284.8906,53.7188 Q283.9063,53.2188 283.2188,52.1484 Q282.5313,51.0781 282.5313,49.7969 L282.5313,48.6406 Q282.5313,47.3125 283.1484,46.1641 Q283.7656,45.0156 284.8594,44.3984 Q285.9531,43.7813 287.1875,43.7813 Q287.9219,43.7813 288.5703,43.9453 Q289.2188,44.1094 289.7656,44.4688 Z " fill="#000000"/><text fill="#000000" font-family="sans-serif" font-size="12" font-style="italic" lengthAdjust="spacing" textLength="48" x="304" y="45.957">«partial»</text><text fill="#000000" font-family="sans-serif" font-size="12" lengthAdjust="spacing" textLength="54" x="301" y="61.0508">BaseDTO</text><line style="stroke:#A80036;stroke-width:1.5;" x1="273" x2="357" y1="68.6875" y2="68.6875"/><line style="stroke:#A80036;stroke-width:1.5;" x1="273" x2="357" y1="76.6875" y2="76.6875"/><!--MD5=[a8c0967d7b66f43265179b07355379df]
class PropertyDTO--><rect codeLine="3" fill="#FEFECE" filter="url(#f1jheptr7ys86x)" height="48" id="PropertyDTO" style="stroke:#A80036;stroke-width:1.5;" width="102" x="7" y="166"/><ellipse cx="22" cy="182" fill="#ADD1B2" rx="11" ry="11" style="stroke:#A80036;stroke-width:1.0;"/><path d="M24.7656,177.875 Q24.9219,177.6563 25.1094,177.5469 Q25.2969,177.4375 25.5156,177.4375 Q25.8906,177.4375 26.125,177.6953 Q26.3594,177.9531 26.3594,178.5625 L26.3594,180.0156 Q26.3594,180.625 26.125,180.8906 Q25.8906,181.1563 25.5156,181.1563 Q25.1719,181.1563 24.9688,180.9531 Q24.7656,180.7656 24.6563,180.25 Q24.6094,179.8906 24.4219,179.7031 Q24.0938,179.3281 23.4844,179.1094 Q22.875,178.8906 22.25,178.8906 Q21.4844,178.8906 20.8516,179.2188 Q20.2188,179.5469 19.7266,180.2969 Q19.2344,181.0469 19.2344,182.0781 L19.2344,183.1719 Q19.2344,184.4063 20.125,185.2266 Q21.0156,186.0469 22.6094,186.0469 Q23.5469,186.0469 24.2031,185.7969 Q24.5938,185.6406 25.0156,185.2031 Q25.2813,184.9375 25.4297,184.8594 Q25.5781,184.7813 25.7813,184.7813 Q26.1094,184.7813 26.3672,185.0391 Q26.625,185.2969 26.625,185.6406 Q26.625,185.9844 26.2813,186.3906 Q25.7813,186.9688 24.9844,187.2969 Q23.9063,187.75 22.6094,187.75 Q21.0938,187.75 19.8906,187.125 Q18.9063,186.625 18.2188,185.5547 Q17.5313,184.4844 17.5313,183.2031 L17.5313,182.0469 Q17.5313,180.7188 18.1484,179.5703 Q18.7656,178.4219 19.8594,177.8047 Q20.9531,177.1875 22.1875,177.1875 Q22.9219,177.1875 23.5703,177.3516 Q24.2188,177.5156 24.7656,177.875 Z " fill="#000000"/><text fill="#000000" font-family="sans-serif" font-size="12" lengthAdjust="spacing" textLength="70" x="36" y="186.9102">PropertyDTO</text><line style="stroke:#A80036;stroke-width:1.5;" x1="8" x2="108" y1="198" y2="198"/><line style="stroke:#A80036;stroke-width:1.5;" x1="8" x2="108" y1="206" y2="206"/><!--MD5=[a86c46b503d2a734898010b41f2fcc93]
class ObjectDTO--><rect codeLine="5" fill="#FEFECE" filter="url(#f1jheptr7ys86x)" height="48" id="ObjectDTO" style="stroke:#A80036;stroke-width:1.5;" width="92" x="402" y="166"/><ellipse cx="417" cy="182" fill="#ADD1B2" rx="11" ry="11" style="stroke:#A80036;stroke-width:1.0;"/><path d="M419.7656,177.875 Q419.9219,177.6563 420.1094,177.5469 Q420.2969,177.4375 420.5156,177.4375 Q420.8906,177.4375 421.125,177.6953 Q421.3594,177.9531 421.3594,178.5625 L421.3594,180.0156 Q421.3594,180.625 421.125,180.8906 Q420.8906,181.1563 420.5156,181.1563 Q420.1719,181.1563 419.9688,180.9531 Q419.7656,180.7656 419.6563,180.25 Q419.6094,179.8906 419.4219,179.7031 Q419.0938,179.3281 418.4844,179.1094 Q417.875,178.8906 417.25,178.8906 Q416.4844,178.8906 415.8516,179.2188 Q415.2188,179.5469 414.7266,180.2969 Q414.2344,181.0469 414.2344,182.0781 L414.2344,183.1719 Q414.2344,184.4063 415.125,185.2266 Q416.0156,186.0469 417.6094,186.0469 Q418.5469,186.0469 419.2031,185.7969 Q419.5938,185.6406 420.0156,185.2031 Q420.2813,184.9375 420.4297,184.8594 Q420.5781,184.7813 420.7813,184.7813 Q421.1094,184.7813 421.3672,185.0391 Q421.625,185.2969 421.625,185.6406 Q421.625,185.9844 421.2813,186.3906 Q420.7813,186.9688 419.9844,187.2969 Q418.9063,187.75 417.6094,187.75 Q416.0938,187.75 414.8906,187.125 Q413.9063,186.625 413.2188,185.5547 Q412.5313,184.4844 412.5313,183.2031 L412.5313,182.0469 Q412.5313,180.7188 413.1484,179.5703 Q413.7656,178.4219 414.8594,177.8047 Q415.9531,177.1875 417.1875,177.1875 Q417.9219,177.1875 418.5703,177.3516 Q419.2188,177.5156 419.7656,177.875 Z " fill="#000000"/><text fill="#000000" font-family="sans-serif" font-size="12" lengthAdjust="spacing" textLength="60" x="431" y="186.9102">ObjectDTO</text><line style="stroke:#A80036;stroke-width:1.5;" x1="403" x2="493" y1="198" y2="198"/><line style="stroke:#A80036;stroke-width:1.5;" x1="403" x2="493" y1="206" y2="206"/><!--MD5=[ab65f1b894babecd782f1df810423109]
class TypeDTO--><rect codeLine="7" fill="#FEFECE" filter="url(#f1jheptr7ys86x)" height="48" id="TypeDTO" style="stroke:#A80036;stroke-width:1.5;" width="83" x="144.5" y="166"/><ellipse cx="159.5" cy="182" fill="#ADD1B2" rx="11" ry="11" style="stroke:#A80036;stroke-width:1.0;"/><path d="M162.2656,177.875 Q162.4219,177.6563 162.6094,177.5469 Q162.7969,177.4375 163.0156,177.4375 Q163.3906,177.4375 163.625,177.6953 Q163.8594,177.9531 163.8594,178.5625 L163.8594,180.0156 Q163.8594,180.625 163.625,180.8906 Q163.3906,181.1563 163.0156,181.1563 Q162.6719,181.1563 162.4688,180.9531 Q162.2656,180.7656 162.1563,180.25 Q162.1094,179.8906 161.9219,179.7031 Q161.5938,179.3281 160.9844,179.1094 Q160.375,178.8906 159.75,178.8906 Q158.9844,178.8906 158.3516,179.2188 Q157.7188,179.5469 157.2266,180.2969 Q156.7344,181.0469 156.7344,182.0781 L156.7344,183.1719 Q156.7344,184.4063 157.625,185.2266 Q158.5156,186.0469 160.1094,186.0469 Q161.0469,186.0469 161.7031,185.7969 Q162.0938,185.6406 162.5156,185.2031 Q162.7813,184.9375 162.9297,184.8594 Q163.0781,184.7813 163.2813,184.7813 Q163.6094,184.7813 163.8672,185.0391 Q164.125,185.2969 164.125,185.6406 Q164.125,185.9844 163.7813,186.3906 Q163.2813,186.9688 162.4844,187.2969 Q161.4063,187.75 160.1094,187.75 Q158.5938,187.75 157.3906,187.125 Q156.4063,186.625 155.7188,185.5547 Q155.0313,184.4844 155.0313,183.2031 L155.0313,182.0469 Q155.0313,180.7188 155.6484,179.5703 Q156.2656,178.4219 157.3594,177.8047 Q158.4531,177.1875 159.6875,177.1875 Q160.4219,177.1875 161.0703,177.3516 Q161.7188,177.5156 162.2656,177.875 Z " fill="#000000"/><text fill="#000000" font-family="sans-serif" font-size="12" lengthAdjust="spacing" textLength="51" x="173.5" y="186.9102">TypeDTO</text><line style="stroke:#A80036;stroke-width:1.5;" x1="145.5" x2="226.5" y1="198" y2="198"/><line style="stroke:#A80036;stroke-width:1.5;" x1="145.5" x2="226.5" y1="206" y2="206"/><!--MD5=[09cff4ae5ea761e2f405592d475a08d1]
class BaseTypes--><rect codeLine="12" fill="#FEFECE" filter="url(#f1jheptr7ys86x)" height="98.9531" id="BaseTypes" style="stroke:#A80036;stroke-width:1.5;" width="310" x="393" y="7"/><ellipse cx="512.75" cy="34.6406" fill="#ADD1B2" rx="11" ry="11" style="stroke:#A80036;stroke-width:1.0;"/><path d="M515.5156,30.5156 Q515.6719,30.2969 515.8594,30.1875 Q516.0469,30.0781 516.2656,30.0781 Q516.6406,30.0781 516.875,30.3359 Q517.1094,30.5938 517.1094,31.2031 L517.1094,32.6563 Q517.1094,33.2656 516.875,33.5313 Q516.6406,33.7969 516.2656,33.7969 Q515.9219,33.7969 515.7188,33.5938 Q515.5156,33.4063 515.4063,32.8906 Q515.3594,32.5313 515.1719,32.3438 Q514.8438,31.9688 514.2344,31.75 Q513.625,31.5313 513,31.5313 Q512.2344,31.5313 511.6016,31.8594 Q510.9688,32.1875 510.4766,32.9375 Q509.9844,33.6875 509.9844,34.7188 L509.9844,35.8125 Q509.9844,37.0469 510.875,37.8672 Q511.7656,38.6875 513.3594,38.6875 Q514.2969,38.6875 514.9531,38.4375 Q515.3438,38.2813 515.7656,37.8438 Q516.0313,37.5781 516.1797,37.5 Q516.3281,37.4219 516.5313,37.4219 Q516.8594,37.4219 517.1172,37.6797 Q517.375,37.9375 517.375,38.2813 Q517.375,38.625 517.0313,39.0313 Q516.5313,39.6094 515.7344,39.9375 Q514.6563,40.3906 513.3594,40.3906 Q511.8438,40.3906 510.6406,39.7656 Q509.6563,39.2656 508.9688,38.1953 Q508.2813,37.125 508.2813,35.8438 L508.2813,34.6875 Q508.2813,33.3594 508.8984,32.2109 Q509.5156,31.0625 510.6094,30.4453 Q511.7031,29.8281 512.9375,29.8281 Q513.6719,29.8281 514.3203,29.9922 Q514.9688,30.1563 515.5156,30.5156 Z " fill="#000000"/><text fill="#000000" font-family="sans-serif" font-size="12" font-style="italic" lengthAdjust="spacing" textLength="42" x="543.25" y="24.457">«static»</text><text fill="#000000" font-family="sans-serif" font-size="12" font-style="italic" lengthAdjust="spacing" textLength="48" x="540.25" y="39.5508">«partial»</text><text fill="#000000" font-family="sans-serif" font-size="12" lengthAdjust="spacing" textLength="62" x="533.25" y="54.6445">BaseTypes</text><line style="stroke:#A80036;stroke-width:1.5;" x1="394" x2="702" y1="62.2813" y2="62.2813"/><line style="stroke:#A80036;stroke-width:1.5;" x1="394" x2="702" y1="70.2813" y2="70.2813"/><ellipse cx="404" cy="81.2813" fill="#84BE84" rx="3" ry="3" style="stroke:#038048;stroke-width:1.0;"/><text fill="#000000" font-family="sans-serif" font-size="11" lengthAdjust="spacing" text-decoration="underline" textLength="213" x="413" y="85.7002">Dispatch(dto:CommandDTO) : CommandDTO</text><ellipse cx="404" cy="95.1172" fill="#84BE84" rx="3" ry="3" style="stroke:#038048;stroke-width:1.0;"/><text fill="#000000" font-family="sans-serif" font-size="11" lengthAdjust="spacing" text-decoration="underline" textLength="284" x="413" y="99.5361">GetTypes(commandTypes:List&lt;CommandTypeDTO&gt;) : void</text><!--MD5=[e644022de7dea015dd09463c37421447]
class List`1--><rect codeLine="15" fill="#FEFECE" filter="url(#f1jheptr7ys86x)" height="48" id="List`1" style="stroke:#A80036;stroke-width:1.5;" width="74" x="411" y="274"/><ellipse cx="426" cy="290" fill="#ADD1B2" rx="11" ry="11" style="stroke:#A80036;stroke-width:1.0;"/><path d="M428.7656,285.875 Q428.9219,285.6563 429.1094,285.5469 Q429.2969,285.4375 429.5156,285.4375 Q429.8906,285.4375 430.125,285.6953 Q430.3594,285.9531 430.3594,286.5625 L430.3594,288.0156 Q430.3594,288.625 430.125,288.8906 Q429.8906,289.1563 429.5156,289.1563 Q429.1719,289.1563 428.9688,288.9531 Q428.7656,288.7656 428.6563,288.25 Q428.6094,287.8906 428.4219,287.7031 Q428.0938,287.3281 427.4844,287.1094 Q426.875,286.8906 426.25,286.8906 Q425.4844,286.8906 424.8516,287.2188 Q424.2188,287.5469 423.7266,288.2969 Q423.2344,289.0469 423.2344,290.0781 L423.2344,291.1719 Q423.2344,292.4063 424.125,293.2266 Q425.0156,294.0469 426.6094,294.0469 Q427.5469,294.0469 428.2031,293.7969 Q428.5938,293.6406 429.0156,293.2031 Q429.2813,292.9375 429.4297,292.8594 Q429.5781,292.7813 429.7813,292.7813 Q430.1094,292.7813 430.3672,293.0391 Q430.625,293.2969 430.625,293.6406 Q430.625,293.9844 430.2813,294.3906 Q429.7813,294.9688 428.9844,295.2969 Q427.9063,295.75 426.6094,295.75 Q425.0938,295.75 423.8906,295.125 Q422.9063,294.625 422.2188,293.5547 Q421.5313,292.4844 421.5313,291.2031 L421.5313,290.0469 Q421.5313,288.7188 422.1484,287.5703 Q422.7656,286.4219 423.8594,285.8047 Q424.9531,285.1875 426.1875,285.1875 Q426.9219,285.1875 427.5703,285.3516 Q428.2188,285.5156 428.7656,285.875 Z " fill="#000000"/><text fill="#000000" font-family="sans-serif" font-size="12" lengthAdjust="spacing" textLength="31" x="440" y="294.9102">List`1</text><rect fill="#FFFFFF" height="17.0938" style="stroke:#000000;stroke-width:1.0;stroke-dasharray:2.0,2.0;" width="9" x="479" y="271"/><text fill="#000000" font-family="sans-serif" font-size="12" font-style="italic" lengthAdjust="spacing" textLength="7" x="480" y="284.457">T</text><line style="stroke:#A80036;stroke-width:1.5;" x1="412" x2="484" y1="306" y2="306"/><line style="stroke:#A80036;stroke-width:1.5;" x1="412" x2="484" y1="314" y2="314"/><!--MD5=[b9f3d2915b6b8d0c143f32ccec3f745e]
class Guid--><rect fill="#FEFECE" filter="url(#f1jheptr7ys86x)" height="48" id="Guid" style="stroke:#A80036;stroke-width:1.5;" width="58" x="286" y="274"/><ellipse cx="301" cy="290" fill="#ADD1B2" rx="11" ry="11" style="stroke:#A80036;stroke-width:1.0;"/><path d="M303.7656,285.875 Q303.9219,285.6563 304.1094,285.5469 Q304.2969,285.4375 304.5156,285.4375 Q304.8906,285.4375 305.125,285.6953 Q305.3594,285.9531 305.3594,286.5625 L305.3594,288.0156 Q305.3594,288.625 305.125,288.8906 Q304.8906,289.1563 304.5156,289.1563 Q304.1719,289.1563 303.9688,288.9531 Q303.7656,288.7656 303.6563,288.25 Q303.6094,287.8906 303.4219,287.7031 Q303.0938,287.3281 302.4844,287.1094 Q301.875,286.8906 301.25,286.8906 Q300.4844,286.8906 299.8516,287.2188 Q299.2188,287.5469 298.7266,288.2969 Q298.2344,289.0469 298.2344,290.0781 L298.2344,291.1719 Q298.2344,292.4063 299.125,293.2266 Q300.0156,294.0469 301.6094,294.0469 Q302.5469,294.0469 303.2031,293.7969 Q303.5938,293.6406 304.0156,293.2031 Q304.2813,292.9375 304.4297,292.8594 Q304.5781,292.7813 304.7813,292.7813 Q305.1094,292.7813 305.3672,293.0391 Q305.625,293.2969 305.625,293.6406 Q305.625,293.9844 305.2813,294.3906 Q304.7813,294.9688 303.9844,295.2969 Q302.9063,295.75 301.6094,295.75 Q300.0938,295.75 298.8906,295.125 Q297.9063,294.625 297.2188,293.5547 Q296.5313,292.4844 296.5313,291.2031 L296.5313,290.0469 Q296.5313,288.7188 297.1484,287.5703 Q297.7656,286.4219 298.8594,285.8047 Q299.9531,285.1875 301.1875,285.1875 Q301.9219,285.1875 302.5703,285.3516 Q303.2188,285.5156 303.7656,285.875 Z " fill="#000000"/><text fill="#000000" font-family="sans-serif" font-size="12" lengthAdjust="spacing" textLength="26" x="315" y="294.9102">Guid</text><line style="stroke:#A80036;stroke-width:1.5;" x1="287" x2="343" y1="306" y2="306"/><line style="stroke:#A80036;stroke-width:1.5;" x1="287" x2="343" y1="314" y2="314"/><!--MD5=[9df70cf33be424c1b8543b3f439cae89]
class String--><rect fill="#FEFECE" filter="url(#f1jheptr7ys86x)" height="48" id="String" style="stroke:#A80036;stroke-width:1.5;" width="64" x="26" y="274"/><ellipse cx="41" cy="290" fill="#ADD1B2" rx="11" ry="11" style="stroke:#A80036;stroke-width:1.0;"/><path d="M43.7656,285.875 Q43.9219,285.6563 44.1094,285.5469 Q44.2969,285.4375 44.5156,285.4375 Q44.8906,285.4375 45.125,285.6953 Q45.3594,285.9531 45.3594,286.5625 L45.3594,288.0156 Q45.3594,288.625 45.125,288.8906 Q44.8906,289.1563 44.5156,289.1563 Q44.1719,289.1563 43.9688,288.9531 Q43.7656,288.7656 43.6563,288.25 Q43.6094,287.8906 43.4219,287.7031 Q43.0938,287.3281 42.4844,287.1094 Q41.875,286.8906 41.25,286.8906 Q40.4844,286.8906 39.8516,287.2188 Q39.2188,287.5469 38.7266,288.2969 Q38.2344,289.0469 38.2344,290.0781 L38.2344,291.1719 Q38.2344,292.4063 39.125,293.2266 Q40.0156,294.0469 41.6094,294.0469 Q42.5469,294.0469 43.2031,293.7969 Q43.5938,293.6406 44.0156,293.2031 Q44.2813,292.9375 44.4297,292.8594 Q44.5781,292.7813 44.7813,292.7813 Q45.1094,292.7813 45.3672,293.0391 Q45.625,293.2969 45.625,293.6406 Q45.625,293.9844 45.2813,294.3906 Q44.7813,294.9688 43.9844,295.2969 Q42.9063,295.75 41.6094,295.75 Q40.0938,295.75 38.8906,295.125 Q37.9063,294.625 37.2188,293.5547 Q36.5313,292.4844 36.5313,291.2031 L36.5313,290.0469 Q36.5313,288.7188 37.1484,287.5703 Q37.7656,286.4219 38.8594,285.8047 Q39.9531,285.1875 41.1875,285.1875 Q41.9219,285.1875 42.5703,285.3516 Q43.2188,285.5156 43.7656,285.875 Z " fill="#000000"/><text fill="#000000" font-family="sans-serif" font-size="12" lengthAdjust="spacing" textLength="32" x="55" y="294.9102">String</text><line style="stroke:#A80036;stroke-width:1.5;" x1="27" x2="89" y1="306" y2="306"/><line style="stroke:#A80036;stroke-width:1.5;" x1="27" x2="89" y1="314" y2="314"/><!--MD5=[be3a97b884d7bb8890e18b1f911f5268]
link BaseDTO to Guid--><path codeLine="17" d="M297.64,84.51 C285.86,130.31 285.79,222.73 297.42,269.12 " fill="none" id="BaseDTO-to-Guid" style="stroke:#A80036;stroke-width:1.0;"/><polygon fill="#A80036" points="298.74,274,300.2555,264.2684,297.4365,269.1729,292.5321,266.354,298.74,274" style="stroke:#A80036;stroke-width:1.0;"/><text fill="#000000" font-family="sans-serif" font-size="13" lengthAdjust="spacing" textLength="38" x="299.4421" y="263.3402">TypeId</text><!--MD5=[be3a97b884d7bb8890e18b1f911f5268]
link BaseDTO to Guid--><path codeLine="18" d="M315,84.51 C315,130.21 315,222.36 315,268.83 " fill="none" id="BaseDTO-to-Guid-1" style="stroke:#A80036;stroke-width:1.0;"/><polygon fill="#A80036" points="315,274,319,265,315,269,311,265,315,274" style="stroke:#A80036;stroke-width:1.0;"/><text fill="#000000" font-family="sans-serif" font-size="13" lengthAdjust="spacing" textLength="10" x="303.7188" y="263.3402">Id</text><!--MD5=[be3a97b884d7bb8890e18b1f911f5268]
link BaseDTO to Guid--><path codeLine="19" d="M332.36,84.51 C344.14,130.31 344.21,222.73 332.58,269.12 " fill="none" id="BaseDTO-to-Guid-2" style="stroke:#A80036;stroke-width:1.0;"/><polygon fill="#A80036" points="331.26,274,337.4679,266.354,332.5635,269.1729,329.7445,264.2684,331.26,274" style="stroke:#A80036;stroke-width:1.0;"/><text fill="#000000" font-family="sans-serif" font-size="13" lengthAdjust="spacing" textLength="28" x="339.0141" y="263.3402">Type</text><!--MD5=[2cc8b6df816638932ff19f7ae8e08ba0]
link PropertyDTO to Guid--><path codeLine="20" d="M109.08,212.07 C160.21,233.16 237.41,265 281.31,283.11 " fill="none" id="PropertyDTO-to-Guid" style="stroke:#A80036;stroke-width:1.0;"/><polygon fill="#A80036" points="285.98,285.03,279.1809,277.9045,281.3566,283.1263,276.1349,285.302,285.98,285.03" style="stroke:#A80036;stroke-width:1.0;"/><text fill="#000000" font-family="sans-serif" font-size="13" lengthAdjust="spacing" textLength="38" x="240.0267" y="279.0811">TypeId</text><!--MD5=[d5f4c30c7cb8eb2847647aca0481e46f]
link PropertyDTO to String--><path codeLine="21" d="M47.27,214 C44.84,230 44.6,251.45 46.55,268.53 " fill="none" id="PropertyDTO-to-String" style="stroke:#A80036;stroke-width:1.0;"/><polygon fill="#A80036" points="47.23,273.68,50.0126,264.2324,46.5729,268.7234,42.082,265.2837,47.23,273.68" style="stroke:#A80036;stroke-width:1.0;"/><text fill="#000000" font-family="sans-serif" font-size="13" lengthAdjust="spacing" textLength="34" x="6.4611" y="263.34">Name</text><!--MD5=[d5f4c30c7cb8eb2847647aca0481e46f]
link PropertyDTO to String--><path codeLine="22" d="M69.36,214 C71.93,230 72.19,251.45 70.12,268.53 " fill="none" id="PropertyDTO-to-String-1" style="stroke:#A80036;stroke-width:1.0;"/><polygon fill="#A80036" points="69.41,273.68,74.6055,265.313,70.0951,268.7272,66.6809,264.2168,69.41,273.68" style="stroke:#A80036;stroke-width:1.0;"/><text fill="#000000" font-family="sans-serif" font-size="13" lengthAdjust="spacing" textLength="33" x="76.2131" y="263.34">Value</text><!--MD5=[3920cdde0ef99465ed1599e18a1d09e5]
reverse link BaseDTO to ObjectDTO--><path codeLine="23" d="M356.82,98.85 C379.14,120.91 405.77,147.25 424.48,165.74 " fill="none" id="BaseDTO-backto-ObjectDTO" style="stroke:#A80036;stroke-width:1.0;"/><polygon fill="none" points="351.86,103.79,342.56,84.75,361.7,93.83,351.86,103.79" style="stroke:#A80036;stroke-width:1.0;"/><!--MD5=[ae4b2e8b4ef91d484150733ac744b15c]
link ObjectDTO to Guid--><path codeLine="24" d="M419.14,214 C398.28,230.62 370.06,253.12 348.26,270.5 " fill="none" id="ObjectDTO-to-Guid" style="stroke:#A80036;stroke-width:1.0;"/><polygon fill="#A80036" points="344.26,273.68,353.7933,271.2067,348.1727,270.567,348.8124,264.9464,344.26,273.68" style="stroke:#A80036;stroke-width:1.0;"/><text fill="#000000" font-family="sans-serif" font-size="13" lengthAdjust="spacing" textLength="38" x="351.9514" y="284.6021">TypeId</text><!--MD5=[044e50fa495cf138e42c0a7a2d101165]
link ObjectDTO to List`1--><path codeLine="25" d="M448,214 C448,230 448,251.45 448,268.53 " fill="none" id="ObjectDTO-to-List`1" style="stroke:#A80036;stroke-width:1.0;"/><polygon fill="#A80036" points="448,273.68,452,264.68,448,268.68,444,264.68,448,273.68" style="stroke:#A80036;stroke-width:1.0;"/><text fill="#000000" font-family="sans-serif" font-size="13" lengthAdjust="spacing" textLength="150" x="466.2813" y="263.34">Properties&lt;PropertyDTO&gt;</text><!--MD5=[d40922a5f4b5f53a84548686e17be8ce]
reverse link BaseDTO to TypeDTO--><path codeLine="26" d="M274.13,99.16 C252.55,121.16 226.87,147.34 208.81,165.74 " fill="none" id="BaseDTO-backto-TypeDTO" style="stroke:#A80036;stroke-width:1.0;"/><polygon fill="none" points="269.27,94.12,288.27,84.75,279.26,103.93,269.27,94.12" style="stroke:#A80036;stroke-width:1.0;"/><!--MD5=[5c447c056dfaa167e42a9155323e8f7a]
link TypeDTO to Guid--><path codeLine="27" d="M213.99,214 C234.22,230.62 261.6,253.12 282.74,270.5 " fill="none" id="TypeDTO-to-Guid" style="stroke:#A80036;stroke-width:1.0;"/><polygon fill="#A80036" points="286.62,273.68,282.212,264.8726,282.7591,270.503,277.1288,271.05,286.62,273.68" style="stroke:#A80036;stroke-width:1.0;"/><text fill="#000000" font-family="sans-serif" font-size="13" lengthAdjust="spacing" textLength="38" x="239.8843" y="265.2485">TypeId</text><!--MD5=[c780402505a0518ff3b2755aa637898f]
link TypeDTO to String--><path codeLine="28" d="M158.23,214 C138.24,230.55 111.21,252.93 90.27,270.28 " fill="none" id="TypeDTO-to-String" style="stroke:#A80036;stroke-width:1.0;"/><polygon fill="#A80036" points="86.16,273.68,95.6464,271.0328,90.0151,270.496,90.552,264.8646,86.16,273.68" style="stroke:#A80036;stroke-width:1.0;"/><text fill="#000000" font-family="sans-serif" font-size="13" lengthAdjust="spacing" textLength="34" x="97.7323" y="283.0382">Name</text><!--MD5=[c0e33c2deb8c603de59824b67c76df07]
@startuml
class BaseDTO <<partial>> {
}
class PropertyDTO {
}
class ObjectDTO {
}
class TypeDTO {
}
class BaseTypes <<static>> <<partial>> {
    + {static} Dispatch(dto:CommandDTO) : CommandDTO
}
class BaseTypes <<static>> <<partial>> {
    + {static} GetTypes(commandTypes:List<CommandTypeDTO>) : void
}
class "List`1"<T> {
}
BaseDTO - -> "TypeId" Guid
BaseDTO - -> "Id" Guid
BaseDTO - -> "Type" Guid
PropertyDTO - -> "TypeId" Guid
PropertyDTO - -> "Name" String
PropertyDTO - -> "Value" String
BaseDTO <|- - ObjectDTO
ObjectDTO - -> "TypeId" Guid
ObjectDTO - -> "Properties<PropertyDTO>" "List`1"
BaseDTO <|- - TypeDTO
TypeDTO - -> "TypeId" Guid
TypeDTO - -> "Name" String
@enduml

PlantUML version 1.2021.10(Mon Aug 30 15:43:48 CEST 2021)
(GPL source distribution)
Java Runtime: Java(TM) SE Runtime Environment
JVM: Java HotSpot(TM) Client VM
Default Encoding: Cp1252
Language: de
Country: CH
--></g></svg>