<?xml version="1.0" encoding="UTF-8" standalone="no"?><svg xmlns="http://www.w3.org/2000/svg" xmlns:xlink="http://www.w3.org/1999/xlink" contentScriptType="application/ecmascript" contentStyleType="text/css" height="582px" preserveAspectRatio="none" style="width:637px;height:582px;background:#FFFFFF;" version="1.1" viewBox="0 0 637 582" width="637px" zoomAndPan="magnify"><defs><filter height="300%" id="fv3nblt9drwmm" width="300%" x="-1" y="-1"><feGaussianBlur result="blurOut" stdDeviation="2.0"/><feColorMatrix in="blurOut" result="blurOut2" type="matrix" values="0 0 0 0 0 0 0 0 0 0 0 0 0 0 0 0 0 0 .4 0"/><feOffset dx="4.0" dy="4.0" in="blurOut2" result="blurOut3"/><feBlend in="SourceGraphic" in2="blurOut3" mode="normal"/></filter></defs><g><!--MD5=[6b1d3384926f1bc892ee196bbd0d7fce]
class BaseDTO--><rect codeLine="1" fill="#FEFECE" filter="url(#fv3nblt9drwmm)" height="111.5313" id="BaseDTO" style="stroke:#A80036;stroke-width:1.5;" width="439" x="9" y="7"/><ellipse cx="197.25" cy="27.0938" fill="#ADD1B2" rx="11" ry="11" style="stroke:#A80036;stroke-width:1.0;"/><path d="M200.0156,22.9688 Q200.1719,22.75 200.3594,22.6406 Q200.5469,22.5313 200.7656,22.5313 Q201.1406,22.5313 201.375,22.7969 Q201.6094,23.0469 201.6094,23.6563 L201.6094,25.1094 Q201.6094,25.7188 201.375,25.9844 Q201.1406,26.25 200.7656,26.25 Q200.4219,26.25 200.2188,26.0469 Q200.0156,25.8594 199.9063,25.3438 Q199.8594,24.9844 199.6719,24.7969 Q199.3438,24.4219 198.7344,24.2031 Q198.125,23.9844 197.5,23.9844 Q196.7344,23.9844 196.0938,24.3125 Q195.4688,24.6406 194.9688,25.3906 Q194.4844,26.1406 194.4844,27.1719 L194.4844,28.2656 Q194.4844,29.5 195.375,30.3281 Q196.2656,31.1406 197.8594,31.1406 Q198.7969,31.1406 199.4531,30.8906 Q199.8438,30.7344 200.2656,30.2969 Q200.5313,30.0313 200.6719,29.9531 Q200.8281,29.875 201.0313,29.875 Q201.3594,29.875 201.6094,30.1406 Q201.875,30.3906 201.875,30.7344 Q201.875,31.0781 201.5313,31.4844 Q201.0313,32.0625 200.2344,32.3906 Q199.1563,32.8438 197.8594,32.8438 Q196.3438,32.8438 195.1406,32.2188 Q194.1563,31.7188 193.4688,30.6563 Q192.7813,29.5781 192.7813,28.2969 L192.7813,27.1406 Q192.7813,25.8125 193.3906,24.6719 Q194.0156,23.5156 195.1094,22.9063 Q196.2031,22.2813 197.4375,22.2813 Q198.1719,22.2813 198.8125,22.4531 Q199.4688,22.6094 200.0156,22.9688 Z " fill="#000000"/><text fill="#000000" font-family="sans-serif" font-size="12" font-style="italic" lengthAdjust="spacing" textLength="48" x="220.75" y="24.457">«partial»</text><text fill="#000000" font-family="sans-serif" font-size="12" lengthAdjust="spacing" textLength="54" x="217.75" y="39.5508">BaseDTO</text><line style="stroke:#A80036;stroke-width:1.5;" x1="10" x2="447" y1="47.1875" y2="47.1875"/><line style="stroke:#A80036;stroke-width:1.5;" x1="10" x2="447" y1="55.1875" y2="55.1875"/><polygon fill="#FFFF44" points="20,61.1875,24,65.1875,20,69.1875,16,65.1875" style="stroke:#B38D22;stroke-width:1.0;"/><text fill="#000000" font-family="sans-serif" font-size="11" lengthAdjust="spacing" textLength="323" x="29" y="70.6064">StringFromPropertyList(list:List&lt;PropertyDTO&gt;, name:string) : string</text><polygon fill="#FFFF44" points="20,75.0234,24,79.0234,20,83.0234,16,79.0234" style="stroke:#B38D22;stroke-width:1.0;"/><text fill="#000000" font-family="sans-serif" font-size="11" lengthAdjust="spacing" textLength="390" x="29" y="84.4424">StringToPropertyList(list:List&lt;PropertyDTO&gt;, name:string, newValue:string) : void</text><polygon fill="#FFFF44" points="20,88.8594,24,92.8594,20,96.8594,16,92.8594" style="stroke:#B38D22;stroke-width:1.0;"/><text fill="#000000" font-family="sans-serif" font-size="11" lengthAdjust="spacing" textLength="346" x="29" y="98.2783">BooleanFromPropertyList(list:List&lt;PropertyDTO&gt;, name:string) : Boolean</text><polygon fill="#FFFF44" points="20,102.6953,24,106.6953,20,110.6953,16,106.6953" style="stroke:#B38D22;stroke-width:1.0;"/><text fill="#000000" font-family="sans-serif" font-size="11" lengthAdjust="spacing" textLength="413" x="29" y="112.1143">BooleanToPropertyList(list:List&lt;PropertyDTO&gt;, name:string, newValue:Boolean) : void</text><!--MD5=[23b6773f51aa56bb6c9a60bafc81a5c0]
class ValueDTO--><rect codeLine="7" fill="#FEFECE" filter="url(#fv3nblt9drwmm)" height="131.0156" id="ValueDTO" style="stroke:#A80036;stroke-width:1.5;" width="177" x="361" y="179"/><ellipse cx="417.25" cy="195" fill="#ADD1B2" rx="11" ry="11" style="stroke:#A80036;stroke-width:1.0;"/><path d="M420.0156,190.875 Q420.1719,190.6563 420.3594,190.5469 Q420.5469,190.4375 420.7656,190.4375 Q421.1406,190.4375 421.375,190.7031 Q421.6094,190.9531 421.6094,191.5625 L421.6094,193.0156 Q421.6094,193.625 421.375,193.8906 Q421.1406,194.1563 420.7656,194.1563 Q420.4219,194.1563 420.2188,193.9531 Q420.0156,193.7656 419.9063,193.25 Q419.8594,192.8906 419.6719,192.7031 Q419.3438,192.3281 418.7344,192.1094 Q418.125,191.8906 417.5,191.8906 Q416.7344,191.8906 416.0938,192.2188 Q415.4688,192.5469 414.9688,193.2969 Q414.4844,194.0469 414.4844,195.0781 L414.4844,196.1719 Q414.4844,197.4063 415.375,198.2344 Q416.2656,199.0469 417.8594,199.0469 Q418.7969,199.0469 419.4531,198.7969 Q419.8438,198.6406 420.2656,198.2031 Q420.5313,197.9375 420.6719,197.8594 Q420.8281,197.7813 421.0313,197.7813 Q421.3594,197.7813 421.6094,198.0469 Q421.875,198.2969 421.875,198.6406 Q421.875,198.9844 421.5313,199.3906 Q421.0313,199.9688 420.2344,200.2969 Q419.1563,200.75 417.8594,200.75 Q416.3438,200.75 415.1406,200.125 Q414.1563,199.625 413.4688,198.5625 Q412.7813,197.4844 412.7813,196.2031 L412.7813,195.0469 Q412.7813,193.7188 413.3906,192.5781 Q414.0156,191.4219 415.1094,190.8125 Q416.2031,190.1875 417.4375,190.1875 Q418.1719,190.1875 418.8125,190.3594 Q419.4688,190.5156 420.0156,190.875 Z " fill="#000000"/><text fill="#000000" font-family="sans-serif" font-size="12" lengthAdjust="spacing" textLength="56" x="437.75" y="199.9102">ValueDTO</text><line style="stroke:#A80036;stroke-width:1.5;" x1="362" x2="537" y1="211" y2="211"/><ellipse cx="372" cy="222" rx="3" ry="3" style="stroke:#038048;stroke-width:1.0;fill:none;"/><text fill="#000000" font-family="sans-serif" font-size="11" lengthAdjust="spacing" textLength="119" x="381" y="226.4189">Int32Value : Int32? «get»</text><ellipse cx="372" cy="235.8359" rx="3" ry="3" style="stroke:#038048;stroke-width:1.0;fill:none;"/><text fill="#000000" font-family="sans-serif" font-size="11" lengthAdjust="spacing" textLength="119" x="381" y="240.2549">Int64Value : Int64? «get»</text><ellipse cx="372" cy="249.6719" rx="3" ry="3" style="stroke:#038048;stroke-width:1.0;fill:none;"/><text fill="#000000" font-family="sans-serif" font-size="11" lengthAdjust="spacing" textLength="139" x="381" y="254.0908">DoubleValue : Double? «get»</text><ellipse cx="372" cy="263.5078" rx="3" ry="3" style="stroke:#038048;stroke-width:1.0;fill:none;"/><text fill="#000000" font-family="sans-serif" font-size="11" lengthAdjust="spacing" textLength="151" x="381" y="267.9268">BooleanValue : Boolean? «get»</text><line style="stroke:#A80036;stroke-width:1.5;" x1="362" x2="537" y1="274.3438" y2="274.3438"/><ellipse cx="372" cy="285.3438" fill="#84BE84" rx="3" ry="3" style="stroke:#038048;stroke-width:1.0;"/><text fill="#000000" font-family="sans-serif" font-size="11" lengthAdjust="spacing" text-decoration="underline" textLength="149" x="381" y="289.7627">Create(v:T) : ValueImplDTO&lt;T&gt;</text><ellipse cx="372" cy="299.1797" fill="#84BE84" rx="3" ry="3" style="stroke:#038048;stroke-width:1.0;"/><text fill="#000000" font-family="sans-serif" font-size="11" lengthAdjust="spacing" textLength="139" x="381" y="303.5986">«override» ToString() : string</text><!--MD5=[37890c743432347d2b5fe49c2166de73]
class ArgDTO--><rect codeLine="15" fill="#FEFECE" filter="url(#fv3nblt9drwmm)" height="48" id="ArgDTO" style="stroke:#A80036;stroke-width:1.5;" width="75" x="483" y="39"/><ellipse cx="498" cy="55" fill="#ADD1B2" rx="11" ry="11" style="stroke:#A80036;stroke-width:1.0;"/><path d="M500.7656,50.875 Q500.9219,50.6563 501.1094,50.5469 Q501.2969,50.4375 501.5156,50.4375 Q501.8906,50.4375 502.125,50.7031 Q502.3594,50.9531 502.3594,51.5625 L502.3594,53.0156 Q502.3594,53.625 502.125,53.8906 Q501.8906,54.1563 501.5156,54.1563 Q501.1719,54.1563 500.9688,53.9531 Q500.7656,53.7656 500.6563,53.25 Q500.6094,52.8906 500.4219,52.7031 Q500.0938,52.3281 499.4844,52.1094 Q498.875,51.8906 498.25,51.8906 Q497.4844,51.8906 496.8438,52.2188 Q496.2188,52.5469 495.7188,53.2969 Q495.2344,54.0469 495.2344,55.0781 L495.2344,56.1719 Q495.2344,57.4063 496.125,58.2344 Q497.0156,59.0469 498.6094,59.0469 Q499.5469,59.0469 500.2031,58.7969 Q500.5938,58.6406 501.0156,58.2031 Q501.2813,57.9375 501.4219,57.8594 Q501.5781,57.7813 501.7813,57.7813 Q502.1094,57.7813 502.3594,58.0469 Q502.625,58.2969 502.625,58.6406 Q502.625,58.9844 502.2813,59.3906 Q501.7813,59.9688 500.9844,60.2969 Q499.9063,60.75 498.6094,60.75 Q497.0938,60.75 495.8906,60.125 Q494.9063,59.625 494.2188,58.5625 Q493.5313,57.4844 493.5313,56.2031 L493.5313,55.0469 Q493.5313,53.7188 494.1406,52.5781 Q494.7656,51.4219 495.8594,50.8125 Q496.9531,50.1875 498.1875,50.1875 Q498.9219,50.1875 499.5625,50.3594 Q500.2188,50.5156 500.7656,50.875 Z " fill="#000000"/><text fill="#000000" font-family="sans-serif" font-size="12" lengthAdjust="spacing" textLength="43" x="512" y="59.9102">ArgDTO</text><line style="stroke:#A80036;stroke-width:1.5;" x1="484" x2="557" y1="71" y2="71"/><line style="stroke:#A80036;stroke-width:1.5;" x1="484" x2="557" y1="79" y2="79"/><!--MD5=[4f4fa34473ffd49925a80fb5889ddefc]
class ValueImplDTO`1--><rect codeLine="17" fill="#FEFECE" filter="url(#fv3nblt9drwmm)" height="89.5078" id="ValueImplDTO`1" style="stroke:#A80036;stroke-width:1.5;" width="202" x="223.5" y="370"/><ellipse cx="269.25" cy="386" fill="#ADD1B2" rx="11" ry="11" style="stroke:#A80036;stroke-width:1.0;"/><path d="M272.0156,381.875 Q272.1719,381.6563 272.3594,381.5469 Q272.5469,381.4375 272.7656,381.4375 Q273.1406,381.4375 273.375,381.7031 Q273.6094,381.9531 273.6094,382.5625 L273.6094,384.0156 Q273.6094,384.625 273.375,384.8906 Q273.1406,385.1563 272.7656,385.1563 Q272.4219,385.1563 272.2188,384.9531 Q272.0156,384.7656 271.9063,384.25 Q271.8594,383.8906 271.6719,383.7031 Q271.3438,383.3281 270.7344,383.1094 Q270.125,382.8906 269.5,382.8906 Q268.7344,382.8906 268.0938,383.2188 Q267.4688,383.5469 266.9688,384.2969 Q266.4844,385.0469 266.4844,386.0781 L266.4844,387.1719 Q266.4844,388.4063 267.375,389.2344 Q268.2656,390.0469 269.8594,390.0469 Q270.7969,390.0469 271.4531,389.7969 Q271.8438,389.6406 272.2656,389.2031 Q272.5313,388.9375 272.6719,388.8594 Q272.8281,388.7813 273.0313,388.7813 Q273.3594,388.7813 273.6094,389.0469 Q273.875,389.2969 273.875,389.6406 Q273.875,389.9844 273.5313,390.3906 Q273.0313,390.9688 272.2344,391.2969 Q271.1563,391.75 269.8594,391.75 Q268.3438,391.75 267.1406,391.125 Q266.1563,390.625 265.4688,389.5625 Q264.7813,388.4844 264.7813,387.2031 L264.7813,386.0469 Q264.7813,384.7188 265.3906,383.5781 Q266.0156,382.4219 267.1094,381.8125 Q268.2031,381.1875 269.4375,381.1875 Q270.1719,381.1875 270.8125,381.3594 Q271.4688,381.5156 272.0156,381.875 Z " fill="#000000"/><text fill="#000000" font-family="sans-serif" font-size="12" lengthAdjust="spacing" textLength="91" x="289.75" y="390.9102">ValueImplDTO`1</text><rect fill="#FFFFFF" height="17.0938" style="stroke:#000000;stroke-width:1.0;stroke-dasharray:2.0,2.0;" width="9" x="419.5" y="367"/><text fill="#000000" font-family="sans-serif" font-size="12" font-style="italic" lengthAdjust="spacing" textLength="7" x="420.5" y="380.457">T</text><line style="stroke:#A80036;stroke-width:1.5;" x1="224.5" x2="424.5" y1="402" y2="402"/><ellipse cx="234.5" cy="413" rx="3" ry="3" style="stroke:#038048;stroke-width:1.0;fill:none;"/><text fill="#000000" font-family="sans-serif" font-size="11" lengthAdjust="spacing" textLength="103" x="243.5" y="417.4189">Value : T «get» «set»</text><ellipse cx="234.5" cy="426.8359" rx="3" ry="3" style="stroke:#038048;stroke-width:1.0;fill:none;"/><text fill="#000000" font-family="sans-serif" font-size="11" lengthAdjust="spacing" textLength="176" x="243.5" y="431.2549">«override» ObjectType : string «get»</text><line style="stroke:#A80036;stroke-width:1.5;" x1="224.5" x2="424.5" y1="437.6719" y2="437.6719"/><ellipse cx="234.5" cy="448.6719" fill="#84BE84" rx="3" ry="3" style="stroke:#038048;stroke-width:1.0;"/><text fill="#000000" font-family="sans-serif" font-size="11" lengthAdjust="spacing" textLength="90" x="243.5" y="453.0908">ValueImplDTO(v:T)</text><!--MD5=[9df70cf33be424c1b8543b3f439cae89]
class String--><rect fill="#FEFECE" filter="url(#fv3nblt9drwmm)" height="48" id="String" style="stroke:#A80036;stroke-width:1.5;" width="64" x="531.5" y="391"/><ellipse cx="546.5" cy="407" fill="#ADD1B2" rx="11" ry="11" style="stroke:#A80036;stroke-width:1.0;"/><path d="M549.2656,402.875 Q549.4219,402.6563 549.6094,402.5469 Q549.7969,402.4375 550.0156,402.4375 Q550.3906,402.4375 550.625,402.7031 Q550.8594,402.9531 550.8594,403.5625 L550.8594,405.0156 Q550.8594,405.625 550.625,405.8906 Q550.3906,406.1563 550.0156,406.1563 Q549.6719,406.1563 549.4688,405.9531 Q549.2656,405.7656 549.1563,405.25 Q549.1094,404.8906 548.9219,404.7031 Q548.5938,404.3281 547.9844,404.1094 Q547.375,403.8906 546.75,403.8906 Q545.9844,403.8906 545.3438,404.2188 Q544.7188,404.5469 544.2188,405.2969 Q543.7344,406.0469 543.7344,407.0781 L543.7344,408.1719 Q543.7344,409.4063 544.625,410.2344 Q545.5156,411.0469 547.1094,411.0469 Q548.0469,411.0469 548.7031,410.7969 Q549.0938,410.6406 549.5156,410.2031 Q549.7813,409.9375 549.9219,409.8594 Q550.0781,409.7813 550.2813,409.7813 Q550.6094,409.7813 550.8594,410.0469 Q551.125,410.2969 551.125,410.6406 Q551.125,410.9844 550.7813,411.3906 Q550.2813,411.9688 549.4844,412.2969 Q548.4063,412.75 547.1094,412.75 Q545.5938,412.75 544.3906,412.125 Q543.4063,411.625 542.7188,410.5625 Q542.0313,409.4844 542.0313,408.2031 L542.0313,407.0469 Q542.0313,405.7188 542.6406,404.5781 Q543.2656,403.4219 544.3594,402.8125 Q545.4531,402.1875 546.6875,402.1875 Q547.4219,402.1875 548.0625,402.3594 Q548.7188,402.5156 549.2656,402.875 Z " fill="#000000"/><text fill="#000000" font-family="sans-serif" font-size="12" lengthAdjust="spacing" textLength="32" x="560.5" y="411.9102">String</text><line style="stroke:#A80036;stroke-width:1.5;" x1="532.5" x2="594.5" y1="423" y2="423"/><line style="stroke:#A80036;stroke-width:1.5;" x1="532.5" x2="594.5" y1="431" y2="431"/><!--MD5=[767cd6a570be8fd3cb87989bc4c5b2a9]
class JsonDocument--><rect fill="#FEFECE" filter="url(#fv3nblt9drwmm)" height="48" id="JsonDocument" style="stroke:#A80036;stroke-width:1.5;" width="116" x="343.5" y="520"/><ellipse cx="358.5" cy="536" fill="#ADD1B2" rx="11" ry="11" style="stroke:#A80036;stroke-width:1.0;"/><path d="M361.2656,531.875 Q361.4219,531.6563 361.6094,531.5469 Q361.7969,531.4375 362.0156,531.4375 Q362.3906,531.4375 362.625,531.7031 Q362.8594,531.9531 362.8594,532.5625 L362.8594,534.0156 Q362.8594,534.625 362.625,534.8906 Q362.3906,535.1563 362.0156,535.1563 Q361.6719,535.1563 361.4688,534.9531 Q361.2656,534.7656 361.1563,534.25 Q361.1094,533.8906 360.9219,533.7031 Q360.5938,533.3281 359.9844,533.1094 Q359.375,532.8906 358.75,532.8906 Q357.9844,532.8906 357.3438,533.2188 Q356.7188,533.5469 356.2188,534.2969 Q355.7344,535.0469 355.7344,536.0781 L355.7344,537.1719 Q355.7344,538.4063 356.625,539.2344 Q357.5156,540.0469 359.1094,540.0469 Q360.0469,540.0469 360.7031,539.7969 Q361.0938,539.6406 361.5156,539.2031 Q361.7813,538.9375 361.9219,538.8594 Q362.0781,538.7813 362.2813,538.7813 Q362.6094,538.7813 362.8594,539.0469 Q363.125,539.2969 363.125,539.6406 Q363.125,539.9844 362.7813,540.3906 Q362.2813,540.9688 361.4844,541.2969 Q360.4063,541.75 359.1094,541.75 Q357.5938,541.75 356.3906,541.125 Q355.4063,540.625 354.7188,539.5625 Q354.0313,538.4844 354.0313,537.2031 L354.0313,536.0469 Q354.0313,534.7188 354.6406,533.5781 Q355.2656,532.4219 356.3594,531.8125 Q357.4531,531.1875 358.6875,531.1875 Q359.4219,531.1875 360.0625,531.3594 Q360.7188,531.5156 361.2656,531.875 Z " fill="#000000"/><text fill="#000000" font-family="sans-serif" font-size="12" lengthAdjust="spacing" textLength="84" x="372.5" y="540.9102">JsonDocument</text><line style="stroke:#A80036;stroke-width:1.5;" x1="344.5" x2="458.5" y1="552" y2="552"/><line style="stroke:#A80036;stroke-width:1.5;" x1="344.5" x2="458.5" y1="560" y2="560"/><!--MD5=[7e2b46783648191d8842632942be4f84]
link ValueDTO to String--><path codeLine="22" d="M480.81,310.16 C497.96,336.79 518.77,366.18 535.48,386.87 " fill="none" id="ValueDTO-to-String" style="stroke:#A80036;stroke-width:1.0;"/><polygon fill="#A80036" points="538.76,390.89,536.151,381.393,535.5915,387.0221,529.9624,386.4626,538.76,390.89" style="stroke:#A80036;stroke-width:1.0;"/><text fill="#000000" font-family="sans-serif" font-size="13" lengthAdjust="spacing" textLength="67" x="456.836" y="380.202">StringValue</text><!--MD5=[7e2b46783648191d8842632942be4f84]
link ValueDTO to String--><path codeLine="23" d="M506.42,310.16 C525.19,336.57 543.93,365.69 555.1,386.35 " fill="none" id="ValueDTO-to-String-1" style="stroke:#A80036;stroke-width:1.0;"/><polygon fill="#A80036" points="557.5,390.89,556.8139,381.0651,555.156,386.4735,549.7475,384.8155,557.5,390.89" style="stroke:#A80036;stroke-width:1.0;"/><text fill="#000000" font-family="sans-serif" font-size="13" lengthAdjust="spacing" textLength="66" x="564.4188" y="380.202">ObjectType</text><!--MD5=[bcf96833aa35e42ea35ad81b8a9358dd]
link ValueDTO to JsonDocument--><path codeLine="24" d="M454.99,310.33 C456.86,353.42 455.95,410.89 443.5,460 C438.57,479.44 428.55,499.54 419.53,515.1 " fill="none" id="ValueDTO-to-JsonDocument" style="stroke:#A80036;stroke-width:1.0;"/><polygon fill="#A80036" points="416.77,519.77,424.7942,514.0593,419.3151,515.4662,417.9081,509.9871,416.77,519.77" style="stroke:#A80036;stroke-width:1.0;"/><text fill="#000000" font-family="sans-serif" font-size="13" lengthAdjust="spacing" textLength="71" x="429.7798" y="509.0512">ObjectValue</text><!--MD5=[fc7514a18cba48e90b7701adf7a74550]
link ArgDTO to String--><path codeLine="25" d="M529.58,87.36 C538.03,110.29 550.09,146.47 555.5,179 C567.75,252.72 566.57,341.17 564.91,385.59 " fill="none" id="ArgDTO-to-String" style="stroke:#A80036;stroke-width:1.0;"/><polygon fill="#A80036" points="564.7,390.79,569.0565,381.9571,564.8998,385.794,561.0629,381.6373,564.7,390.79" style="stroke:#A80036;stroke-width:1.0;"/><text fill="#000000" font-family="sans-serif" font-size="13" lengthAdjust="spacing" textLength="34" x="526.6513" y="380.0763">Name</text><!--MD5=[86a83479cf0e220fe0e258d630330e5f]
link ArgDTO to ValueDTO--><path codeLine="26" d="M511.36,87.1 C502.69,109.03 489.2,143.12 477.03,173.89 " fill="none" id="ArgDTO-to-ValueDTO" style="stroke:#A80036;stroke-width:1.0;"/><polygon fill="#A80036" points="475.09,178.8,482.1282,171.9106,476.9346,174.1527,474.6925,168.9592,475.09,178.8" style="stroke:#A80036;stroke-width:1.0;"/><text fill="#000000" font-family="sans-serif" font-size="13" lengthAdjust="spacing" textLength="33" x="443.0842" y="168.2526">Value</text><!--MD5=[43d49d7b262a8bed35133ae671a7ff17]
reverse link ValueDTO to ValueImplDTO`1--><path codeLine="27" d="M379.69,322.48 C367.45,338.72 355.57,355.33 345.88,369.86 " fill="none" id="ValueDTO-backto-ValueImplDTO`1" style="stroke:#A80036;stroke-width:1.0;"/><ellipse cx="384.2378" cy="316.5205" fill="#FFFFFF" rx="8" ry="8" style="stroke:#A80036;stroke-width:1.0;"/><line style="stroke:#A80036;stroke-width:1.0;" x1="379.3855" x2="389.09" y1="322.881" y2="310.16"/><line style="stroke:#A80036;stroke-width:1.0;" x1="377.8773" x2="390.5982" y1="311.6682" y2="321.3727"/><!--MD5=[43d49d7b262a8bed35133ae671a7ff17]
reverse link ValueDTO to ValueImplDTO`1--><path codeLine="28" d="M402.69,326.78 C391.75,341.63 380.16,356.61 369.28,369.86 " fill="none" id="ValueDTO-backto-ValueImplDTO`1-1" style="stroke:#A80036;stroke-width:1.0;"/><polygon fill="none" points="397.31,322.28,414.7,310.16,408.66,330.48,397.31,322.28" style="stroke:#A80036;stroke-width:1.0;"/><!--MD5=[ad1c671b45d6f7a2fc452121f9528084]
link ValueImplDTO`1 to JsonDocument--><path codeLine="29" d="M351.21,460.06 C362.33,478.4 374.9,499.13 384.69,515.27 " fill="none" id="ValueImplDTO`1-to-JsonDocument" style="stroke:#A80036;stroke-width:1.0;"/><polygon fill="#A80036" points="387.37,519.7,386.1311,509.9294,384.7807,515.4227,379.2874,514.0722,387.37,519.7" style="stroke:#A80036;stroke-width:1.0;"/><text fill="#000000" font-family="sans-serif" font-size="13" lengthAdjust="spacing" textLength="71" x="303.6523" y="508.9633">ObjectValue</text><!--MD5=[72e5b6b9cc00098f899725970cc3d018]
@startuml
class BaseDTO <<partial>> {
    # StringFromPropertyList(list:List<PropertyDTO>, name:string) : string
    # StringToPropertyList(list:List<PropertyDTO>, name:string, newValue:string) : void
    # BooleanFromPropertyList(list:List<PropertyDTO>, name:string) : Boolean
    # BooleanToPropertyList(list:List<PropertyDTO>, name:string, newValue:Boolean) : void
}
class ValueDTO {
    + {static} Create(v:T) : ValueImplDTO<T>
    + Int32Value : Int32? <<get>>
    + Int64Value : Int64? <<get>>
    + DoubleValue : Double? <<get>>
    + BooleanValue : Boolean? <<get>>
    + <<override>> ToString() : string
}
class ArgDTO {
}
class "ValueImplDTO`1"<T> {
    + ValueImplDTO(v:T)
    + Value : T <<get>> <<set>>
    + <<override>> ObjectType : string <<get>>
}
ValueDTO - -> "StringValue" String
ValueDTO - -> "ObjectType" String
ValueDTO - -> "ObjectValue" JsonDocument
ArgDTO - -> "Name" String
ArgDTO - -> "Value" ValueDTO
ValueDTO +- - "ValueImplDTO`1"
ValueDTO <|- - "ValueImplDTO`1"
"ValueImplDTO`1" - -> "ObjectValue" JsonDocument
@enduml

PlantUML version 1.2021.10(Mon Aug 30 15:43:48 CEST 2021)
(GPL source distribution)
Java Runtime: Java(TM) SE Runtime Environment
JVM: Java HotSpot(TM) 64-Bit Server VM
Default Encoding: Cp1252
Language: de
Country: CH
--></g></svg>