<?xml version="1.0" encoding="UTF-8" standalone="no"?><svg xmlns="http://www.w3.org/2000/svg" xmlns:xlink="http://www.w3.org/1999/xlink" contentScriptType="application/ecmascript" contentStyleType="text/css" height="307px" preserveAspectRatio="none" style="width:757px;height:307px;background:#FFFFFF;" version="1.1" viewBox="0 0 757 307" width="757px" zoomAndPan="magnify"><defs><filter height="300%" id="fe3j4fyszz6uo" width="300%" x="-1" y="-1"><feGaussianBlur result="blurOut" stdDeviation="2.0"/><feColorMatrix in="blurOut" result="blurOut2" type="matrix" values="0 0 0 0 0 0 0 0 0 0 0 0 0 0 0 0 0 0 .4 0"/><feOffset dx="4.0" dy="4.0" in="blurOut2" result="blurOut3"/><feBlend in="SourceGraphic" in2="blurOut3" mode="normal"/></filter></defs><g><!--MD5=[6b1d3384926f1bc892ee196bbd0d7fce]
class BaseDTO--><rect codeLine="1" fill="#FEFECE" filter="url(#fe3j4fyszz6uo)" height="56.1875" id="BaseDTO" style="stroke:#A80036;stroke-width:1.5;" width="86" x="383.2813" y="14"/><ellipse cx="398.2813" cy="34.0938" fill="#ADD1B2" rx="11" ry="11" style="stroke:#A80036;stroke-width:1.0;"/><path d="M401.0469,29.9688 Q401.2031,29.75 401.3906,29.6406 Q401.5781,29.5313 401.7969,29.5313 Q402.1719,29.5313 402.4063,29.7891 Q402.6406,30.0469 402.6406,30.6563 L402.6406,32.1094 Q402.6406,32.7188 402.4063,32.9844 Q402.1719,33.25 401.7969,33.25 Q401.4531,33.25 401.25,33.0469 Q401.0469,32.8594 400.9375,32.3438 Q400.8906,31.9844 400.7031,31.7969 Q400.375,31.4219 399.7656,31.2031 Q399.1563,30.9844 398.5313,30.9844 Q397.7656,30.9844 397.1328,31.3125 Q396.5,31.6406 396.0078,32.3906 Q395.5156,33.1406 395.5156,34.1719 L395.5156,35.2656 Q395.5156,36.5 396.4063,37.3203 Q397.2969,38.1406 398.8906,38.1406 Q399.8281,38.1406 400.4844,37.8906 Q400.875,37.7344 401.2969,37.2969 Q401.5625,37.0313 401.7109,36.9531 Q401.8594,36.875 402.0625,36.875 Q402.3906,36.875 402.6484,37.1328 Q402.9063,37.3906 402.9063,37.7344 Q402.9063,38.0781 402.5625,38.4844 Q402.0625,39.0625 401.2656,39.3906 Q400.1875,39.8438 398.8906,39.8438 Q397.375,39.8438 396.1719,39.2188 Q395.1875,38.7188 394.5,37.6484 Q393.8125,36.5781 393.8125,35.2969 L393.8125,34.1406 Q393.8125,32.8125 394.4297,31.6641 Q395.0469,30.5156 396.1406,29.8984 Q397.2344,29.2813 398.4688,29.2813 Q399.2031,29.2813 399.8516,29.4453 Q400.5,29.6094 401.0469,29.9688 Z " fill="#000000"/><text fill="#000000" font-family="sans-serif" font-size="12" font-style="italic" lengthAdjust="spacing" textLength="48" x="415.2813" y="31.457">«partial»</text><text fill="#000000" font-family="sans-serif" font-size="12" lengthAdjust="spacing" textLength="54" x="412.2813" y="46.5508">BaseDTO</text><line style="stroke:#A80036;stroke-width:1.5;" x1="384.2813" x2="468.2813" y1="54.1875" y2="54.1875"/><line style="stroke:#A80036;stroke-width:1.5;" x1="384.2813" x2="468.2813" y1="62.1875" y2="62.1875"/><!--MD5=[a8c0967d7b66f43265179b07355379df]
class PropertyDTO--><rect codeLine="3" fill="#FEFECE" filter="url(#fe3j4fyszz6uo)" height="48" id="PropertyDTO" style="stroke:#A80036;stroke-width:1.5;" width="102" x="513.2813" y="137"/><ellipse cx="528.2813" cy="153" fill="#ADD1B2" rx="11" ry="11" style="stroke:#A80036;stroke-width:1.0;"/><path d="M531.0469,148.875 Q531.2031,148.6563 531.3906,148.5469 Q531.5781,148.4375 531.7969,148.4375 Q532.1719,148.4375 532.4063,148.6953 Q532.6406,148.9531 532.6406,149.5625 L532.6406,151.0156 Q532.6406,151.625 532.4063,151.8906 Q532.1719,152.1563 531.7969,152.1563 Q531.4531,152.1563 531.25,151.9531 Q531.0469,151.7656 530.9375,151.25 Q530.8906,150.8906 530.7031,150.7031 Q530.375,150.3281 529.7656,150.1094 Q529.1563,149.8906 528.5313,149.8906 Q527.7656,149.8906 527.1328,150.2188 Q526.5,150.5469 526.0078,151.2969 Q525.5156,152.0469 525.5156,153.0781 L525.5156,154.1719 Q525.5156,155.4063 526.4063,156.2266 Q527.2969,157.0469 528.8906,157.0469 Q529.8281,157.0469 530.4844,156.7969 Q530.875,156.6406 531.2969,156.2031 Q531.5625,155.9375 531.7109,155.8594 Q531.8594,155.7813 532.0625,155.7813 Q532.3906,155.7813 532.6484,156.0391 Q532.9063,156.2969 532.9063,156.6406 Q532.9063,156.9844 532.5625,157.3906 Q532.0625,157.9688 531.2656,158.2969 Q530.1875,158.75 528.8906,158.75 Q527.375,158.75 526.1719,158.125 Q525.1875,157.625 524.5,156.5547 Q523.8125,155.4844 523.8125,154.2031 L523.8125,153.0469 Q523.8125,151.7188 524.4297,150.5703 Q525.0469,149.4219 526.1406,148.8047 Q527.2344,148.1875 528.4688,148.1875 Q529.2031,148.1875 529.8516,148.3516 Q530.5,148.5156 531.0469,148.875 Z " fill="#000000"/><text fill="#000000" font-family="sans-serif" font-size="12" lengthAdjust="spacing" textLength="70" x="542.2813" y="157.9102">PropertyDTO</text><line style="stroke:#A80036;stroke-width:1.5;" x1="514.2813" x2="614.2813" y1="169" y2="169"/><line style="stroke:#A80036;stroke-width:1.5;" x1="514.2813" x2="614.2813" y1="177" y2="177"/><!--MD5=[a86c46b503d2a734898010b41f2fcc93]
class ObjectDTO--><rect codeLine="5" fill="#FEFECE" filter="url(#fe3j4fyszz6uo)" height="48" id="ObjectDTO" style="stroke:#A80036;stroke-width:1.5;" width="92" x="128.2813" y="137"/><ellipse cx="143.2813" cy="153" fill="#ADD1B2" rx="11" ry="11" style="stroke:#A80036;stroke-width:1.0;"/><path d="M146.0469,148.875 Q146.2031,148.6563 146.3906,148.5469 Q146.5781,148.4375 146.7969,148.4375 Q147.1719,148.4375 147.4063,148.6953 Q147.6406,148.9531 147.6406,149.5625 L147.6406,151.0156 Q147.6406,151.625 147.4063,151.8906 Q147.1719,152.1563 146.7969,152.1563 Q146.4531,152.1563 146.25,151.9531 Q146.0469,151.7656 145.9375,151.25 Q145.8906,150.8906 145.7031,150.7031 Q145.375,150.3281 144.7656,150.1094 Q144.1563,149.8906 143.5313,149.8906 Q142.7656,149.8906 142.1328,150.2188 Q141.5,150.5469 141.0078,151.2969 Q140.5156,152.0469 140.5156,153.0781 L140.5156,154.1719 Q140.5156,155.4063 141.4063,156.2266 Q142.2969,157.0469 143.8906,157.0469 Q144.8281,157.0469 145.4844,156.7969 Q145.875,156.6406 146.2969,156.2031 Q146.5625,155.9375 146.7109,155.8594 Q146.8594,155.7813 147.0625,155.7813 Q147.3906,155.7813 147.6484,156.0391 Q147.9063,156.2969 147.9063,156.6406 Q147.9063,156.9844 147.5625,157.3906 Q147.0625,157.9688 146.2656,158.2969 Q145.1875,158.75 143.8906,158.75 Q142.375,158.75 141.1719,158.125 Q140.1875,157.625 139.5,156.5547 Q138.8125,155.4844 138.8125,154.2031 L138.8125,153.0469 Q138.8125,151.7188 139.4297,150.5703 Q140.0469,149.4219 141.1406,148.8047 Q142.2344,148.1875 143.4688,148.1875 Q144.2031,148.1875 144.8516,148.3516 Q145.5,148.5156 146.0469,148.875 Z " fill="#000000"/><text fill="#000000" font-family="sans-serif" font-size="12" lengthAdjust="spacing" textLength="60" x="157.2813" y="157.9102">ObjectDTO</text><line style="stroke:#A80036;stroke-width:1.5;" x1="129.2813" x2="219.2813" y1="169" y2="169"/><line style="stroke:#A80036;stroke-width:1.5;" x1="129.2813" x2="219.2813" y1="177" y2="177"/><!--MD5=[ab65f1b894babecd782f1df810423109]
class TypeDTO--><rect codeLine="7" fill="#FEFECE" filter="url(#fe3j4fyszz6uo)" height="48" id="TypeDTO" style="stroke:#A80036;stroke-width:1.5;" width="83" x="255.7813" y="137"/><ellipse cx="270.7813" cy="153" fill="#ADD1B2" rx="11" ry="11" style="stroke:#A80036;stroke-width:1.0;"/><path d="M273.5469,148.875 Q273.7031,148.6563 273.8906,148.5469 Q274.0781,148.4375 274.2969,148.4375 Q274.6719,148.4375 274.9063,148.6953 Q275.1406,148.9531 275.1406,149.5625 L275.1406,151.0156 Q275.1406,151.625 274.9063,151.8906 Q274.6719,152.1563 274.2969,152.1563 Q273.9531,152.1563 273.75,151.9531 Q273.5469,151.7656 273.4375,151.25 Q273.3906,150.8906 273.2031,150.7031 Q272.875,150.3281 272.2656,150.1094 Q271.6563,149.8906 271.0313,149.8906 Q270.2656,149.8906 269.6328,150.2188 Q269,150.5469 268.5078,151.2969 Q268.0156,152.0469 268.0156,153.0781 L268.0156,154.1719 Q268.0156,155.4063 268.9063,156.2266 Q269.7969,157.0469 271.3906,157.0469 Q272.3281,157.0469 272.9844,156.7969 Q273.375,156.6406 273.7969,156.2031 Q274.0625,155.9375 274.2109,155.8594 Q274.3594,155.7813 274.5625,155.7813 Q274.8906,155.7813 275.1484,156.0391 Q275.4063,156.2969 275.4063,156.6406 Q275.4063,156.9844 275.0625,157.3906 Q274.5625,157.9688 273.7656,158.2969 Q272.6875,158.75 271.3906,158.75 Q269.875,158.75 268.6719,158.125 Q267.6875,157.625 267,156.5547 Q266.3125,155.4844 266.3125,154.2031 L266.3125,153.0469 Q266.3125,151.7188 266.9297,150.5703 Q267.5469,149.4219 268.6406,148.8047 Q269.7344,148.1875 270.9688,148.1875 Q271.7031,148.1875 272.3516,148.3516 Q273,148.5156 273.5469,148.875 Z " fill="#000000"/><text fill="#000000" font-family="sans-serif" font-size="12" lengthAdjust="spacing" textLength="51" x="284.7813" y="157.9102">TypeDTO</text><line style="stroke:#A80036;stroke-width:1.5;" x1="256.7813" x2="337.7813" y1="169" y2="169"/><line style="stroke:#A80036;stroke-width:1.5;" x1="256.7813" x2="337.7813" y1="177" y2="177"/><!--MD5=[c1f063b1d619a33d7306ce784b596c98]
class BaseTypesDispatcher--><rect codeLine="9" fill="#FEFECE" filter="url(#fe3j4fyszz6uo)" height="70.0234" id="BaseTypesDispatcher" style="stroke:#A80036;stroke-width:1.5;" width="239" x="504.7813" y="7"/><ellipse cx="559.0313" cy="27.0938" fill="#ADD1B2" rx="11" ry="11" style="stroke:#A80036;stroke-width:1.0;"/><path d="M561.7969,22.9688 Q561.9531,22.75 562.1406,22.6406 Q562.3281,22.5313 562.5469,22.5313 Q562.9219,22.5313 563.1563,22.7891 Q563.3906,23.0469 563.3906,23.6563 L563.3906,25.1094 Q563.3906,25.7188 563.1563,25.9844 Q562.9219,26.25 562.5469,26.25 Q562.2031,26.25 562,26.0469 Q561.7969,25.8594 561.6875,25.3438 Q561.6406,24.9844 561.4531,24.7969 Q561.125,24.4219 560.5156,24.2031 Q559.9063,23.9844 559.2813,23.9844 Q558.5156,23.9844 557.8828,24.3125 Q557.25,24.6406 556.7578,25.3906 Q556.2656,26.1406 556.2656,27.1719 L556.2656,28.2656 Q556.2656,29.5 557.1563,30.3203 Q558.0469,31.1406 559.6406,31.1406 Q560.5781,31.1406 561.2344,30.8906 Q561.625,30.7344 562.0469,30.2969 Q562.3125,30.0313 562.4609,29.9531 Q562.6094,29.875 562.8125,29.875 Q563.1406,29.875 563.3984,30.1328 Q563.6563,30.3906 563.6563,30.7344 Q563.6563,31.0781 563.3125,31.4844 Q562.8125,32.0625 562.0156,32.3906 Q560.9375,32.8438 559.6406,32.8438 Q558.125,32.8438 556.9219,32.2188 Q555.9375,31.7188 555.25,30.6484 Q554.5625,29.5781 554.5625,28.2969 L554.5625,27.1406 Q554.5625,25.8125 555.1797,24.6641 Q555.7969,23.5156 556.8906,22.8984 Q557.9844,22.2813 559.2188,22.2813 Q559.9531,22.2813 560.6016,22.4453 Q561.25,22.6094 561.7969,22.9688 Z " fill="#000000"/><text fill="#000000" font-family="sans-serif" font-size="12" font-style="italic" lengthAdjust="spacing" textLength="42" x="619.5313" y="24.457">«static»</text><text fill="#000000" font-family="sans-serif" font-size="12" lengthAdjust="spacing" textLength="122" x="579.5313" y="39.5508">BaseTypesDispatcher</text><line style="stroke:#A80036;stroke-width:1.5;" x1="505.7813" x2="742.7813" y1="47.1875" y2="47.1875"/><line style="stroke:#A80036;stroke-width:1.5;" x1="505.7813" x2="742.7813" y1="55.1875" y2="55.1875"/><ellipse cx="515.7813" cy="66.1875" fill="#84BE84" rx="3" ry="3" style="stroke:#038048;stroke-width:1.0;"/><text fill="#000000" font-family="sans-serif" font-size="11" lengthAdjust="spacing" text-decoration="underline" textLength="213" x="524.7813" y="70.6064">Dispatch(dto:CommandDTO) : CommandDTO</text><!--MD5=[e644022de7dea015dd09463c37421447]
class List`1--><rect codeLine="12" fill="#FEFECE" filter="url(#fe3j4fyszz6uo)" height="48" id="List`1" style="stroke:#A80036;stroke-width:1.5;" width="74" x="137.2813" y="245"/><ellipse cx="152.2813" cy="261" fill="#ADD1B2" rx="11" ry="11" style="stroke:#A80036;stroke-width:1.0;"/><path d="M155.0469,256.875 Q155.2031,256.6563 155.3906,256.5469 Q155.5781,256.4375 155.7969,256.4375 Q156.1719,256.4375 156.4063,256.6953 Q156.6406,256.9531 156.6406,257.5625 L156.6406,259.0156 Q156.6406,259.625 156.4063,259.8906 Q156.1719,260.1563 155.7969,260.1563 Q155.4531,260.1563 155.25,259.9531 Q155.0469,259.7656 154.9375,259.25 Q154.8906,258.8906 154.7031,258.7031 Q154.375,258.3281 153.7656,258.1094 Q153.1563,257.8906 152.5313,257.8906 Q151.7656,257.8906 151.1328,258.2188 Q150.5,258.5469 150.0078,259.2969 Q149.5156,260.0469 149.5156,261.0781 L149.5156,262.1719 Q149.5156,263.4063 150.4063,264.2266 Q151.2969,265.0469 152.8906,265.0469 Q153.8281,265.0469 154.4844,264.7969 Q154.875,264.6406 155.2969,264.2031 Q155.5625,263.9375 155.7109,263.8594 Q155.8594,263.7813 156.0625,263.7813 Q156.3906,263.7813 156.6484,264.0391 Q156.9063,264.2969 156.9063,264.6406 Q156.9063,264.9844 156.5625,265.3906 Q156.0625,265.9688 155.2656,266.2969 Q154.1875,266.75 152.8906,266.75 Q151.375,266.75 150.1719,266.125 Q149.1875,265.625 148.5,264.5547 Q147.8125,263.4844 147.8125,262.2031 L147.8125,261.0469 Q147.8125,259.7188 148.4297,258.5703 Q149.0469,257.4219 150.1406,256.8047 Q151.2344,256.1875 152.4688,256.1875 Q153.2031,256.1875 153.8516,256.3516 Q154.5,256.5156 155.0469,256.875 Z " fill="#000000"/><text fill="#000000" font-family="sans-serif" font-size="12" lengthAdjust="spacing" textLength="31" x="166.2813" y="265.9102">List`1</text><rect fill="#FFFFFF" height="17.0938" style="stroke:#000000;stroke-width:1.0;stroke-dasharray:2.0,2.0;" width="9" x="205.2813" y="242"/><text fill="#000000" font-family="sans-serif" font-size="12" font-style="italic" lengthAdjust="spacing" textLength="7" x="206.2813" y="255.457">T</text><line style="stroke:#A80036;stroke-width:1.5;" x1="138.2813" x2="210.2813" y1="277" y2="277"/><line style="stroke:#A80036;stroke-width:1.5;" x1="138.2813" x2="210.2813" y1="285" y2="285"/><!--MD5=[b9f3d2915b6b8d0c143f32ccec3f745e]
class Guid--><rect fill="#FEFECE" filter="url(#fe3j4fyszz6uo)" height="48" id="Guid" style="stroke:#A80036;stroke-width:1.5;" width="58" x="397.2813" y="245"/><ellipse cx="412.2813" cy="261" fill="#ADD1B2" rx="11" ry="11" style="stroke:#A80036;stroke-width:1.0;"/><path d="M415.0469,256.875 Q415.2031,256.6563 415.3906,256.5469 Q415.5781,256.4375 415.7969,256.4375 Q416.1719,256.4375 416.4063,256.6953 Q416.6406,256.9531 416.6406,257.5625 L416.6406,259.0156 Q416.6406,259.625 416.4063,259.8906 Q416.1719,260.1563 415.7969,260.1563 Q415.4531,260.1563 415.25,259.9531 Q415.0469,259.7656 414.9375,259.25 Q414.8906,258.8906 414.7031,258.7031 Q414.375,258.3281 413.7656,258.1094 Q413.1563,257.8906 412.5313,257.8906 Q411.7656,257.8906 411.1328,258.2188 Q410.5,258.5469 410.0078,259.2969 Q409.5156,260.0469 409.5156,261.0781 L409.5156,262.1719 Q409.5156,263.4063 410.4063,264.2266 Q411.2969,265.0469 412.8906,265.0469 Q413.8281,265.0469 414.4844,264.7969 Q414.875,264.6406 415.2969,264.2031 Q415.5625,263.9375 415.7109,263.8594 Q415.8594,263.7813 416.0625,263.7813 Q416.3906,263.7813 416.6484,264.0391 Q416.9063,264.2969 416.9063,264.6406 Q416.9063,264.9844 416.5625,265.3906 Q416.0625,265.9688 415.2656,266.2969 Q414.1875,266.75 412.8906,266.75 Q411.375,266.75 410.1719,266.125 Q409.1875,265.625 408.5,264.5547 Q407.8125,263.4844 407.8125,262.2031 L407.8125,261.0469 Q407.8125,259.7188 408.4297,258.5703 Q409.0469,257.4219 410.1406,256.8047 Q411.2344,256.1875 412.4688,256.1875 Q413.2031,256.1875 413.8516,256.3516 Q414.5,256.5156 415.0469,256.875 Z " fill="#000000"/><text fill="#000000" font-family="sans-serif" font-size="12" lengthAdjust="spacing" textLength="26" x="426.2813" y="265.9102">Guid</text><line style="stroke:#A80036;stroke-width:1.5;" x1="398.2813" x2="454.2813" y1="277" y2="277"/><line style="stroke:#A80036;stroke-width:1.5;" x1="398.2813" x2="454.2813" y1="285" y2="285"/><!--MD5=[9df70cf33be424c1b8543b3f439cae89]
class String--><rect fill="#FEFECE" filter="url(#fe3j4fyszz6uo)" height="48" id="String" style="stroke:#A80036;stroke-width:1.5;" width="64" x="532.2813" y="245"/><ellipse cx="547.2813" cy="261" fill="#ADD1B2" rx="11" ry="11" style="stroke:#A80036;stroke-width:1.0;"/><path d="M550.0469,256.875 Q550.2031,256.6563 550.3906,256.5469 Q550.5781,256.4375 550.7969,256.4375 Q551.1719,256.4375 551.4063,256.6953 Q551.6406,256.9531 551.6406,257.5625 L551.6406,259.0156 Q551.6406,259.625 551.4063,259.8906 Q551.1719,260.1563 550.7969,260.1563 Q550.4531,260.1563 550.25,259.9531 Q550.0469,259.7656 549.9375,259.25 Q549.8906,258.8906 549.7031,258.7031 Q549.375,258.3281 548.7656,258.1094 Q548.1563,257.8906 547.5313,257.8906 Q546.7656,257.8906 546.1328,258.2188 Q545.5,258.5469 545.0078,259.2969 Q544.5156,260.0469 544.5156,261.0781 L544.5156,262.1719 Q544.5156,263.4063 545.4063,264.2266 Q546.2969,265.0469 547.8906,265.0469 Q548.8281,265.0469 549.4844,264.7969 Q549.875,264.6406 550.2969,264.2031 Q550.5625,263.9375 550.7109,263.8594 Q550.8594,263.7813 551.0625,263.7813 Q551.3906,263.7813 551.6484,264.0391 Q551.9063,264.2969 551.9063,264.6406 Q551.9063,264.9844 551.5625,265.3906 Q551.0625,265.9688 550.2656,266.2969 Q549.1875,266.75 547.8906,266.75 Q546.375,266.75 545.1719,266.125 Q544.1875,265.625 543.5,264.5547 Q542.8125,263.4844 542.8125,262.2031 L542.8125,261.0469 Q542.8125,259.7188 543.4297,258.5703 Q544.0469,257.4219 545.1406,256.8047 Q546.2344,256.1875 547.4688,256.1875 Q548.2031,256.1875 548.8516,256.3516 Q549.5,256.5156 550.0469,256.875 Z " fill="#000000"/><text fill="#000000" font-family="sans-serif" font-size="12" lengthAdjust="spacing" textLength="32" x="561.2813" y="265.9102">String</text><line style="stroke:#A80036;stroke-width:1.5;" x1="533.2813" x2="595.2813" y1="277" y2="277"/><line style="stroke:#A80036;stroke-width:1.5;" x1="533.2813" x2="595.2813" y1="285" y2="285"/><!--MD5=[be3a97b884d7bb8890e18b1f911f5268]
link BaseDTO to Guid--><path codeLine="14" d="M408.4513,70.14 C397.3013,113.13 397.2213,196.47 408.2313,240 " fill="none" id="BaseDTO-to-Guid" style="stroke:#A80036;stroke-width:1.0;"/><polygon fill="#A80036" points="409.5513,244.85,411.0471,235.1154,408.2381,240.0255,403.328,237.2165,409.5513,244.85" style="stroke:#A80036;stroke-width:1.0;"/><text fill="#000000" font-family="sans-serif" font-size="13" lengthAdjust="spacing" textLength="38" x="410.1329" y="234.1517">TypeId</text><!--MD5=[be3a97b884d7bb8890e18b1f911f5268]
link BaseDTO to Guid--><path codeLine="15" d="M426.2813,70.14 C426.2813,113.04 426.2813,196.13 426.2813,239.73 " fill="none" id="BaseDTO-to-Guid-1" style="stroke:#A80036;stroke-width:1.0;"/><polygon fill="#A80036" points="426.2813,244.85,430.2813,235.85,426.2813,239.85,422.2813,235.85,426.2813,244.85" style="stroke:#A80036;stroke-width:1.0;"/><text fill="#000000" font-family="sans-serif" font-size="13" lengthAdjust="spacing" textLength="10" x="415" y="234.1517">Id</text><!--MD5=[be3a97b884d7bb8890e18b1f911f5268]
link BaseDTO to Guid--><path codeLine="16" d="M444.1113,70.14 C455.2613,113.13 455.3413,196.47 444.3313,240 " fill="none" id="BaseDTO-to-Guid-2" style="stroke:#A80036;stroke-width:1.0;"/><polygon fill="#A80036" points="443.0113,244.85,449.2345,237.2165,444.3244,240.0255,441.5154,235.1154,443.0113,244.85" style="stroke:#A80036;stroke-width:1.0;"/><text fill="#000000" font-family="sans-serif" font-size="13" lengthAdjust="spacing" textLength="28" x="450.8858" y="234.1517">Type</text><!--MD5=[2cc8b6df816638932ff19f7ae8e08ba0]
link PropertyDTO to Guid--><path codeLine="17" d="M534.3413,185 C512.4013,201.85 482.6013,224.74 459.8513,242.21 " fill="none" id="PropertyDTO-to-Guid" style="stroke:#A80036;stroke-width:1.0;"/><polygon fill="#A80036" points="455.6913,245.41,465.2681,243.1114,459.6602,242.369,460.4026,236.7611,455.6913,245.41" style="stroke:#A80036;stroke-width:1.0;"/><text fill="#000000" font-family="sans-serif" font-size="13" lengthAdjust="spacing" textLength="38" x="463.4066" y="256.4485">TypeId</text><!--MD5=[d5f4c30c7cb8eb2847647aca0481e46f]
link PropertyDTO to String--><path codeLine="18" d="M553.5513,185 C551.1213,201 550.8813,222.45 552.8313,239.53 " fill="none" id="PropertyDTO-to-String" style="stroke:#A80036;stroke-width:1.0;"/><polygon fill="#A80036" points="553.5113,244.68,556.2938,235.2324,552.8542,239.7234,548.3632,236.2837,553.5113,244.68" style="stroke:#A80036;stroke-width:1.0;"/><text fill="#000000" font-family="sans-serif" font-size="13" lengthAdjust="spacing" textLength="34" x="512.7423" y="234.34">Name</text><!--MD5=[d5f4c30c7cb8eb2847647aca0481e46f]
link PropertyDTO to String--><path codeLine="19" d="M575.6413,185 C578.2113,201 578.4713,222.45 576.4013,239.53 " fill="none" id="PropertyDTO-to-String-1" style="stroke:#A80036;stroke-width:1.0;"/><polygon fill="#A80036" points="575.6913,244.68,580.8867,236.313,576.3764,239.7272,572.9622,235.2168,575.6913,244.68" style="stroke:#A80036;stroke-width:1.0;"/><text fill="#000000" font-family="sans-serif" font-size="13" lengthAdjust="spacing" textLength="33" x="582.4943" y="234.34">Value</text><!--MD5=[3920cdde0ef99465ed1599e18a1d09e5]
reverse link BaseDTO to ObjectDTO--><path codeLine="20" d="M364.8713,71.51 C320.3513,92.18 261.1013,119.69 220.5513,138.52 " fill="none" id="BaseDTO-backto-ObjectDTO" style="stroke:#A80036;stroke-width:1.0;"/><polygon fill="none" points="362.1613,65.05,383.2513,62.98,368.0513,77.75,362.1613,65.05" style="stroke:#A80036;stroke-width:1.0;"/><!--MD5=[ae4b2e8b4ef91d484150733ac744b15c]
link ObjectDTO to Guid--><path codeLine="21" d="M220.5013,181.44 C270.2713,202.38 348.2413,235.17 392.5413,253.81 " fill="none" id="ObjectDTO-to-Guid" style="stroke:#A80036;stroke-width:1.0;"/><polygon fill="#A80036" points="397.2513,255.79,390.5167,248.6035,392.6452,253.8446,387.4041,255.9731,397.2513,255.79" style="stroke:#A80036;stroke-width:1.0;"/><text fill="#000000" font-family="sans-serif" font-size="13" lengthAdjust="spacing" textLength="38" x="351.2963" y="249.8013">TypeId</text><!--MD5=[044e50fa495cf138e42c0a7a2d101165]
link ObjectDTO to List`1--><path codeLine="22" d="M174.2813,185 C174.2813,201 174.2813,222.45 174.2813,239.53 " fill="none" id="ObjectDTO-to-List`1" style="stroke:#A80036;stroke-width:1.0;"/><polygon fill="#A80036" points="174.2813,244.68,178.2813,235.68,174.2813,239.68,170.2813,235.68,174.2813,244.68" style="stroke:#A80036;stroke-width:1.0;"/><text fill="#000000" font-family="sans-serif" font-size="13" lengthAdjust="spacing" textLength="150" x="6" y="234.34">Properties&lt;PropertyDTO&gt;</text><!--MD5=[d40922a5f4b5f53a84548686e17be8ce]
reverse link BaseDTO to TypeDTO--><path codeLine="23" d="M381.3413,83.76 C361.7013,101.57 339.3913,121.81 322.6913,136.95 " fill="none" id="BaseDTO-backto-TypeDTO" style="stroke:#A80036;stroke-width:1.0;"/><polygon fill="none" points="376.8413,78.39,396.3613,70.14,386.2513,88.76,376.8413,78.39" style="stroke:#A80036;stroke-width:1.0;"/><!--MD5=[5c447c056dfaa167e42a9155323e8f7a]
link TypeDTO to Guid--><path codeLine="24" d="M325.2713,185 C345.5013,201.62 372.8813,224.12 394.0213,241.5 " fill="none" id="TypeDTO-to-Guid" style="stroke:#A80036;stroke-width:1.0;"/><polygon fill="#A80036" points="397.9013,244.68,393.4933,235.8726,394.0404,241.503,388.41,242.05,397.9013,244.68" style="stroke:#A80036;stroke-width:1.0;"/><text fill="#000000" font-family="sans-serif" font-size="13" lengthAdjust="spacing" textLength="38" x="351.1656" y="236.2485">TypeId</text><!--MD5=[c9919f31f06b2554eaba711c2d3b190d]
@startuml
class BaseDTO <<partial>> {
}
class PropertyDTO {
}
class ObjectDTO {
}
class TypeDTO {
}
class BaseTypesDispatcher <<static>> {
    + {static} Dispatch(dto:CommandDTO) : CommandDTO
}
class "List`1"<T> {
}
BaseDTO - -> "TypeId" Guid
BaseDTO - -> "Id" Guid
BaseDTO - -> "Type" Guid
PropertyDTO - -> "TypeId" Guid
PropertyDTO - -> "Name" String
PropertyDTO - -> "Value" String
BaseDTO <|- - ObjectDTO
ObjectDTO - -> "TypeId" Guid
ObjectDTO - -> "Properties<PropertyDTO>" "List`1"
BaseDTO <|- - TypeDTO
TypeDTO - -> "TypeId" Guid
@enduml

PlantUML version 1.2021.10(Mon Aug 30 15:43:48 CEST 2021)
(GPL source distribution)
Java Runtime: Java(TM) SE Runtime Environment
JVM: Java HotSpot(TM) Client VM
Default Encoding: Cp1252
Language: de
Country: CH
--></g></svg>