<?xml version="1.0" encoding="UTF-8" standalone="no"?><svg xmlns="http://www.w3.org/2000/svg" xmlns:xlink="http://www.w3.org/1999/xlink" contentScriptType="application/ecmascript" contentStyleType="text/css" height="336px" preserveAspectRatio="none" style="width:828px;height:336px;background:#FFFFFF;" version="1.1" viewBox="0 0 828 336" width="828px" zoomAndPan="magnify"><defs><filter height="300%" id="fl1a2zgosvlxi" width="300%" x="-1" y="-1"><feGaussianBlur result="blurOut" stdDeviation="2.0"/><feColorMatrix in="blurOut" result="blurOut2" type="matrix" values="0 0 0 0 0 0 0 0 0 0 0 0 0 0 0 0 0 0 .4 0"/><feOffset dx="4.0" dy="4.0" in="blurOut2" result="blurOut3"/><feBlend in="SourceGraphic" in2="blurOut3" mode="normal"/></filter></defs><g><!--MD5=[6b1d3384926f1bc892ee196bbd0d7fce]
class BaseDTO--><rect codeLine="1" fill="#FEFECE" filter="url(#fl1a2zgosvlxi)" height="56.1875" id="BaseDTO" style="stroke:#A80036;stroke-width:1.5;" width="86" x="383.2813" y="28.5"/><ellipse cx="398.2813" cy="48.5938" fill="#ADD1B2" rx="11" ry="11" style="stroke:#A80036;stroke-width:1.0;"/><path d="M401.0469,44.4688 Q401.2031,44.25 401.3906,44.1406 Q401.5781,44.0313 401.7969,44.0313 Q402.1719,44.0313 402.4063,44.2891 Q402.6406,44.5469 402.6406,45.1563 L402.6406,46.6094 Q402.6406,47.2188 402.4063,47.4844 Q402.1719,47.75 401.7969,47.75 Q401.4531,47.75 401.25,47.5469 Q401.0469,47.3594 400.9375,46.8438 Q400.8906,46.4844 400.7031,46.2969 Q400.375,45.9219 399.7656,45.7031 Q399.1563,45.4844 398.5313,45.4844 Q397.7656,45.4844 397.1328,45.8125 Q396.5,46.1406 396.0078,46.8906 Q395.5156,47.6406 395.5156,48.6719 L395.5156,49.7656 Q395.5156,51 396.4063,51.8203 Q397.2969,52.6406 398.8906,52.6406 Q399.8281,52.6406 400.4844,52.3906 Q400.875,52.2344 401.2969,51.7969 Q401.5625,51.5313 401.7109,51.4531 Q401.8594,51.375 402.0625,51.375 Q402.3906,51.375 402.6484,51.6328 Q402.9063,51.8906 402.9063,52.2344 Q402.9063,52.5781 402.5625,52.9844 Q402.0625,53.5625 401.2656,53.8906 Q400.1875,54.3438 398.8906,54.3438 Q397.375,54.3438 396.1719,53.7188 Q395.1875,53.2188 394.5,52.1484 Q393.8125,51.0781 393.8125,49.7969 L393.8125,48.6406 Q393.8125,47.3125 394.4297,46.1641 Q395.0469,45.0156 396.1406,44.3984 Q397.2344,43.7813 398.4688,43.7813 Q399.2031,43.7813 399.8516,43.9453 Q400.5,44.1094 401.0469,44.4688 Z " fill="#000000"/><text fill="#000000" font-family="sans-serif" font-size="12" font-style="italic" lengthAdjust="spacing" textLength="48" x="415.2813" y="45.957">«partial»</text><text fill="#000000" font-family="sans-serif" font-size="12" lengthAdjust="spacing" textLength="54" x="412.2813" y="61.0508">BaseDTO</text><line style="stroke:#A80036;stroke-width:1.5;" x1="384.2813" x2="468.2813" y1="68.6875" y2="68.6875"/><line style="stroke:#A80036;stroke-width:1.5;" x1="384.2813" x2="468.2813" y1="76.6875" y2="76.6875"/><!--MD5=[a8c0967d7b66f43265179b07355379df]
class PropertyDTO--><rect codeLine="3" fill="#FEFECE" filter="url(#fl1a2zgosvlxi)" height="48" id="PropertyDTO" style="stroke:#A80036;stroke-width:1.5;" width="102" x="513.2813" y="166"/><ellipse cx="528.2813" cy="182" fill="#ADD1B2" rx="11" ry="11" style="stroke:#A80036;stroke-width:1.0;"/><path d="M531.0469,177.875 Q531.2031,177.6563 531.3906,177.5469 Q531.5781,177.4375 531.7969,177.4375 Q532.1719,177.4375 532.4063,177.6953 Q532.6406,177.9531 532.6406,178.5625 L532.6406,180.0156 Q532.6406,180.625 532.4063,180.8906 Q532.1719,181.1563 531.7969,181.1563 Q531.4531,181.1563 531.25,180.9531 Q531.0469,180.7656 530.9375,180.25 Q530.8906,179.8906 530.7031,179.7031 Q530.375,179.3281 529.7656,179.1094 Q529.1563,178.8906 528.5313,178.8906 Q527.7656,178.8906 527.1328,179.2188 Q526.5,179.5469 526.0078,180.2969 Q525.5156,181.0469 525.5156,182.0781 L525.5156,183.1719 Q525.5156,184.4063 526.4063,185.2266 Q527.2969,186.0469 528.8906,186.0469 Q529.8281,186.0469 530.4844,185.7969 Q530.875,185.6406 531.2969,185.2031 Q531.5625,184.9375 531.7109,184.8594 Q531.8594,184.7813 532.0625,184.7813 Q532.3906,184.7813 532.6484,185.0391 Q532.9063,185.2969 532.9063,185.6406 Q532.9063,185.9844 532.5625,186.3906 Q532.0625,186.9688 531.2656,187.2969 Q530.1875,187.75 528.8906,187.75 Q527.375,187.75 526.1719,187.125 Q525.1875,186.625 524.5,185.5547 Q523.8125,184.4844 523.8125,183.2031 L523.8125,182.0469 Q523.8125,180.7188 524.4297,179.5703 Q525.0469,178.4219 526.1406,177.8047 Q527.2344,177.1875 528.4688,177.1875 Q529.2031,177.1875 529.8516,177.3516 Q530.5,177.5156 531.0469,177.875 Z " fill="#000000"/><text fill="#000000" font-family="sans-serif" font-size="12" lengthAdjust="spacing" textLength="70" x="542.2813" y="186.9102">PropertyDTO</text><line style="stroke:#A80036;stroke-width:1.5;" x1="514.2813" x2="614.2813" y1="198" y2="198"/><line style="stroke:#A80036;stroke-width:1.5;" x1="514.2813" x2="614.2813" y1="206" y2="206"/><!--MD5=[a86c46b503d2a734898010b41f2fcc93]
class ObjectDTO--><rect codeLine="5" fill="#FEFECE" filter="url(#fl1a2zgosvlxi)" height="48" id="ObjectDTO" style="stroke:#A80036;stroke-width:1.5;" width="92" x="128.2813" y="166"/><ellipse cx="143.2813" cy="182" fill="#ADD1B2" rx="11" ry="11" style="stroke:#A80036;stroke-width:1.0;"/><path d="M146.0469,177.875 Q146.2031,177.6563 146.3906,177.5469 Q146.5781,177.4375 146.7969,177.4375 Q147.1719,177.4375 147.4063,177.6953 Q147.6406,177.9531 147.6406,178.5625 L147.6406,180.0156 Q147.6406,180.625 147.4063,180.8906 Q147.1719,181.1563 146.7969,181.1563 Q146.4531,181.1563 146.25,180.9531 Q146.0469,180.7656 145.9375,180.25 Q145.8906,179.8906 145.7031,179.7031 Q145.375,179.3281 144.7656,179.1094 Q144.1563,178.8906 143.5313,178.8906 Q142.7656,178.8906 142.1328,179.2188 Q141.5,179.5469 141.0078,180.2969 Q140.5156,181.0469 140.5156,182.0781 L140.5156,183.1719 Q140.5156,184.4063 141.4063,185.2266 Q142.2969,186.0469 143.8906,186.0469 Q144.8281,186.0469 145.4844,185.7969 Q145.875,185.6406 146.2969,185.2031 Q146.5625,184.9375 146.7109,184.8594 Q146.8594,184.7813 147.0625,184.7813 Q147.3906,184.7813 147.6484,185.0391 Q147.9063,185.2969 147.9063,185.6406 Q147.9063,185.9844 147.5625,186.3906 Q147.0625,186.9688 146.2656,187.2969 Q145.1875,187.75 143.8906,187.75 Q142.375,187.75 141.1719,187.125 Q140.1875,186.625 139.5,185.5547 Q138.8125,184.4844 138.8125,183.2031 L138.8125,182.0469 Q138.8125,180.7188 139.4297,179.5703 Q140.0469,178.4219 141.1406,177.8047 Q142.2344,177.1875 143.4688,177.1875 Q144.2031,177.1875 144.8516,177.3516 Q145.5,177.5156 146.0469,177.875 Z " fill="#000000"/><text fill="#000000" font-family="sans-serif" font-size="12" lengthAdjust="spacing" textLength="60" x="157.2813" y="186.9102">ObjectDTO</text><line style="stroke:#A80036;stroke-width:1.5;" x1="129.2813" x2="219.2813" y1="198" y2="198"/><line style="stroke:#A80036;stroke-width:1.5;" x1="129.2813" x2="219.2813" y1="206" y2="206"/><!--MD5=[ab65f1b894babecd782f1df810423109]
class TypeDTO--><rect codeLine="7" fill="#FEFECE" filter="url(#fl1a2zgosvlxi)" height="48" id="TypeDTO" style="stroke:#A80036;stroke-width:1.5;" width="83" x="255.7813" y="166"/><ellipse cx="270.7813" cy="182" fill="#ADD1B2" rx="11" ry="11" style="stroke:#A80036;stroke-width:1.0;"/><path d="M273.5469,177.875 Q273.7031,177.6563 273.8906,177.5469 Q274.0781,177.4375 274.2969,177.4375 Q274.6719,177.4375 274.9063,177.6953 Q275.1406,177.9531 275.1406,178.5625 L275.1406,180.0156 Q275.1406,180.625 274.9063,180.8906 Q274.6719,181.1563 274.2969,181.1563 Q273.9531,181.1563 273.75,180.9531 Q273.5469,180.7656 273.4375,180.25 Q273.3906,179.8906 273.2031,179.7031 Q272.875,179.3281 272.2656,179.1094 Q271.6563,178.8906 271.0313,178.8906 Q270.2656,178.8906 269.6328,179.2188 Q269,179.5469 268.5078,180.2969 Q268.0156,181.0469 268.0156,182.0781 L268.0156,183.1719 Q268.0156,184.4063 268.9063,185.2266 Q269.7969,186.0469 271.3906,186.0469 Q272.3281,186.0469 272.9844,185.7969 Q273.375,185.6406 273.7969,185.2031 Q274.0625,184.9375 274.2109,184.8594 Q274.3594,184.7813 274.5625,184.7813 Q274.8906,184.7813 275.1484,185.0391 Q275.4063,185.2969 275.4063,185.6406 Q275.4063,185.9844 275.0625,186.3906 Q274.5625,186.9688 273.7656,187.2969 Q272.6875,187.75 271.3906,187.75 Q269.875,187.75 268.6719,187.125 Q267.6875,186.625 267,185.5547 Q266.3125,184.4844 266.3125,183.2031 L266.3125,182.0469 Q266.3125,180.7188 266.9297,179.5703 Q267.5469,178.4219 268.6406,177.8047 Q269.7344,177.1875 270.9688,177.1875 Q271.7031,177.1875 272.3516,177.3516 Q273,177.5156 273.5469,177.875 Z " fill="#000000"/><text fill="#000000" font-family="sans-serif" font-size="12" lengthAdjust="spacing" textLength="51" x="284.7813" y="186.9102">TypeDTO</text><line style="stroke:#A80036;stroke-width:1.5;" x1="256.7813" x2="337.7813" y1="198" y2="198"/><line style="stroke:#A80036;stroke-width:1.5;" x1="256.7813" x2="337.7813" y1="206" y2="206"/><!--MD5=[09cff4ae5ea761e2f405592d475a08d1]
class BaseTypes--><rect codeLine="12" fill="#FEFECE" filter="url(#fl1a2zgosvlxi)" height="98.9531" id="BaseTypes" style="stroke:#A80036;stroke-width:1.5;" width="310" x="504.2813" y="7"/><ellipse cx="624.0313" cy="34.6406" fill="#ADD1B2" rx="11" ry="11" style="stroke:#A80036;stroke-width:1.0;"/><path d="M626.7969,30.5156 Q626.9531,30.2969 627.1406,30.1875 Q627.3281,30.0781 627.5469,30.0781 Q627.9219,30.0781 628.1563,30.3359 Q628.3906,30.5938 628.3906,31.2031 L628.3906,32.6563 Q628.3906,33.2656 628.1563,33.5313 Q627.9219,33.7969 627.5469,33.7969 Q627.2031,33.7969 627,33.5938 Q626.7969,33.4063 626.6875,32.8906 Q626.6406,32.5313 626.4531,32.3438 Q626.125,31.9688 625.5156,31.75 Q624.9063,31.5313 624.2813,31.5313 Q623.5156,31.5313 622.8828,31.8594 Q622.25,32.1875 621.7578,32.9375 Q621.2656,33.6875 621.2656,34.7188 L621.2656,35.8125 Q621.2656,37.0469 622.1563,37.8672 Q623.0469,38.6875 624.6406,38.6875 Q625.5781,38.6875 626.2344,38.4375 Q626.625,38.2813 627.0469,37.8438 Q627.3125,37.5781 627.4609,37.5 Q627.6094,37.4219 627.8125,37.4219 Q628.1406,37.4219 628.3984,37.6797 Q628.6563,37.9375 628.6563,38.2813 Q628.6563,38.625 628.3125,39.0313 Q627.8125,39.6094 627.0156,39.9375 Q625.9375,40.3906 624.6406,40.3906 Q623.125,40.3906 621.9219,39.7656 Q620.9375,39.2656 620.25,38.1953 Q619.5625,37.125 619.5625,35.8438 L619.5625,34.6875 Q619.5625,33.3594 620.1797,32.2109 Q620.7969,31.0625 621.8906,30.4453 Q622.9844,29.8281 624.2188,29.8281 Q624.9531,29.8281 625.6016,29.9922 Q626.25,30.1563 626.7969,30.5156 Z " fill="#000000"/><text fill="#000000" font-family="sans-serif" font-size="12" font-style="italic" lengthAdjust="spacing" textLength="42" x="654.5313" y="24.457">«static»</text><text fill="#000000" font-family="sans-serif" font-size="12" font-style="italic" lengthAdjust="spacing" textLength="48" x="651.5313" y="39.5508">«partial»</text><text fill="#000000" font-family="sans-serif" font-size="12" lengthAdjust="spacing" textLength="62" x="644.5313" y="54.6445">BaseTypes</text><line style="stroke:#A80036;stroke-width:1.5;" x1="505.2813" x2="813.2813" y1="62.2813" y2="62.2813"/><line style="stroke:#A80036;stroke-width:1.5;" x1="505.2813" x2="813.2813" y1="70.2813" y2="70.2813"/><ellipse cx="515.2813" cy="81.2813" fill="#84BE84" rx="3" ry="3" style="stroke:#038048;stroke-width:1.0;"/><text fill="#000000" font-family="sans-serif" font-size="11" lengthAdjust="spacing" text-decoration="underline" textLength="213" x="524.2813" y="85.7002">Dispatch(dto:CommandDTO) : CommandDTO</text><ellipse cx="515.2813" cy="95.1172" fill="#84BE84" rx="3" ry="3" style="stroke:#038048;stroke-width:1.0;"/><text fill="#000000" font-family="sans-serif" font-size="11" lengthAdjust="spacing" text-decoration="underline" textLength="284" x="524.2813" y="99.5361">GetTypes(commandTypes:List&lt;CommandTypeDTO&gt;) : void</text><!--MD5=[e644022de7dea015dd09463c37421447]
class List`1--><rect codeLine="15" fill="#FEFECE" filter="url(#fl1a2zgosvlxi)" height="48" id="List`1" style="stroke:#A80036;stroke-width:1.5;" width="74" x="137.2813" y="274"/><ellipse cx="152.2813" cy="290" fill="#ADD1B2" rx="11" ry="11" style="stroke:#A80036;stroke-width:1.0;"/><path d="M155.0469,285.875 Q155.2031,285.6563 155.3906,285.5469 Q155.5781,285.4375 155.7969,285.4375 Q156.1719,285.4375 156.4063,285.6953 Q156.6406,285.9531 156.6406,286.5625 L156.6406,288.0156 Q156.6406,288.625 156.4063,288.8906 Q156.1719,289.1563 155.7969,289.1563 Q155.4531,289.1563 155.25,288.9531 Q155.0469,288.7656 154.9375,288.25 Q154.8906,287.8906 154.7031,287.7031 Q154.375,287.3281 153.7656,287.1094 Q153.1563,286.8906 152.5313,286.8906 Q151.7656,286.8906 151.1328,287.2188 Q150.5,287.5469 150.0078,288.2969 Q149.5156,289.0469 149.5156,290.0781 L149.5156,291.1719 Q149.5156,292.4063 150.4063,293.2266 Q151.2969,294.0469 152.8906,294.0469 Q153.8281,294.0469 154.4844,293.7969 Q154.875,293.6406 155.2969,293.2031 Q155.5625,292.9375 155.7109,292.8594 Q155.8594,292.7813 156.0625,292.7813 Q156.3906,292.7813 156.6484,293.0391 Q156.9063,293.2969 156.9063,293.6406 Q156.9063,293.9844 156.5625,294.3906 Q156.0625,294.9688 155.2656,295.2969 Q154.1875,295.75 152.8906,295.75 Q151.375,295.75 150.1719,295.125 Q149.1875,294.625 148.5,293.5547 Q147.8125,292.4844 147.8125,291.2031 L147.8125,290.0469 Q147.8125,288.7188 148.4297,287.5703 Q149.0469,286.4219 150.1406,285.8047 Q151.2344,285.1875 152.4688,285.1875 Q153.2031,285.1875 153.8516,285.3516 Q154.5,285.5156 155.0469,285.875 Z " fill="#000000"/><text fill="#000000" font-family="sans-serif" font-size="12" lengthAdjust="spacing" textLength="31" x="166.2813" y="294.9102">List`1</text><rect fill="#FFFFFF" height="17.0938" style="stroke:#000000;stroke-width:1.0;stroke-dasharray:2.0,2.0;" width="9" x="205.2813" y="271"/><text fill="#000000" font-family="sans-serif" font-size="12" font-style="italic" lengthAdjust="spacing" textLength="7" x="206.2813" y="284.457">T</text><line style="stroke:#A80036;stroke-width:1.5;" x1="138.2813" x2="210.2813" y1="306" y2="306"/><line style="stroke:#A80036;stroke-width:1.5;" x1="138.2813" x2="210.2813" y1="314" y2="314"/><!--MD5=[b9f3d2915b6b8d0c143f32ccec3f745e]
class Guid--><rect fill="#FEFECE" filter="url(#fl1a2zgosvlxi)" height="48" id="Guid" style="stroke:#A80036;stroke-width:1.5;" width="58" x="397.2813" y="274"/><ellipse cx="412.2813" cy="290" fill="#ADD1B2" rx="11" ry="11" style="stroke:#A80036;stroke-width:1.0;"/><path d="M415.0469,285.875 Q415.2031,285.6563 415.3906,285.5469 Q415.5781,285.4375 415.7969,285.4375 Q416.1719,285.4375 416.4063,285.6953 Q416.6406,285.9531 416.6406,286.5625 L416.6406,288.0156 Q416.6406,288.625 416.4063,288.8906 Q416.1719,289.1563 415.7969,289.1563 Q415.4531,289.1563 415.25,288.9531 Q415.0469,288.7656 414.9375,288.25 Q414.8906,287.8906 414.7031,287.7031 Q414.375,287.3281 413.7656,287.1094 Q413.1563,286.8906 412.5313,286.8906 Q411.7656,286.8906 411.1328,287.2188 Q410.5,287.5469 410.0078,288.2969 Q409.5156,289.0469 409.5156,290.0781 L409.5156,291.1719 Q409.5156,292.4063 410.4063,293.2266 Q411.2969,294.0469 412.8906,294.0469 Q413.8281,294.0469 414.4844,293.7969 Q414.875,293.6406 415.2969,293.2031 Q415.5625,292.9375 415.7109,292.8594 Q415.8594,292.7813 416.0625,292.7813 Q416.3906,292.7813 416.6484,293.0391 Q416.9063,293.2969 416.9063,293.6406 Q416.9063,293.9844 416.5625,294.3906 Q416.0625,294.9688 415.2656,295.2969 Q414.1875,295.75 412.8906,295.75 Q411.375,295.75 410.1719,295.125 Q409.1875,294.625 408.5,293.5547 Q407.8125,292.4844 407.8125,291.2031 L407.8125,290.0469 Q407.8125,288.7188 408.4297,287.5703 Q409.0469,286.4219 410.1406,285.8047 Q411.2344,285.1875 412.4688,285.1875 Q413.2031,285.1875 413.8516,285.3516 Q414.5,285.5156 415.0469,285.875 Z " fill="#000000"/><text fill="#000000" font-family="sans-serif" font-size="12" lengthAdjust="spacing" textLength="26" x="426.2813" y="294.9102">Guid</text><line style="stroke:#A80036;stroke-width:1.5;" x1="398.2813" x2="454.2813" y1="306" y2="306"/><line style="stroke:#A80036;stroke-width:1.5;" x1="398.2813" x2="454.2813" y1="314" y2="314"/><!--MD5=[9df70cf33be424c1b8543b3f439cae89]
class String--><rect fill="#FEFECE" filter="url(#fl1a2zgosvlxi)" height="48" id="String" style="stroke:#A80036;stroke-width:1.5;" width="64" x="511.2813" y="274"/><ellipse cx="526.2813" cy="290" fill="#ADD1B2" rx="11" ry="11" style="stroke:#A80036;stroke-width:1.0;"/><path d="M529.0469,285.875 Q529.2031,285.6563 529.3906,285.5469 Q529.5781,285.4375 529.7969,285.4375 Q530.1719,285.4375 530.4063,285.6953 Q530.6406,285.9531 530.6406,286.5625 L530.6406,288.0156 Q530.6406,288.625 530.4063,288.8906 Q530.1719,289.1563 529.7969,289.1563 Q529.4531,289.1563 529.25,288.9531 Q529.0469,288.7656 528.9375,288.25 Q528.8906,287.8906 528.7031,287.7031 Q528.375,287.3281 527.7656,287.1094 Q527.1563,286.8906 526.5313,286.8906 Q525.7656,286.8906 525.1328,287.2188 Q524.5,287.5469 524.0078,288.2969 Q523.5156,289.0469 523.5156,290.0781 L523.5156,291.1719 Q523.5156,292.4063 524.4063,293.2266 Q525.2969,294.0469 526.8906,294.0469 Q527.8281,294.0469 528.4844,293.7969 Q528.875,293.6406 529.2969,293.2031 Q529.5625,292.9375 529.7109,292.8594 Q529.8594,292.7813 530.0625,292.7813 Q530.3906,292.7813 530.6484,293.0391 Q530.9063,293.2969 530.9063,293.6406 Q530.9063,293.9844 530.5625,294.3906 Q530.0625,294.9688 529.2656,295.2969 Q528.1875,295.75 526.8906,295.75 Q525.375,295.75 524.1719,295.125 Q523.1875,294.625 522.5,293.5547 Q521.8125,292.4844 521.8125,291.2031 L521.8125,290.0469 Q521.8125,288.7188 522.4297,287.5703 Q523.0469,286.4219 524.1406,285.8047 Q525.2344,285.1875 526.4688,285.1875 Q527.2031,285.1875 527.8516,285.3516 Q528.5,285.5156 529.0469,285.875 Z " fill="#000000"/><text fill="#000000" font-family="sans-serif" font-size="12" lengthAdjust="spacing" textLength="32" x="540.2813" y="294.9102">String</text><line style="stroke:#A80036;stroke-width:1.5;" x1="512.2813" x2="574.2813" y1="306" y2="306"/><line style="stroke:#A80036;stroke-width:1.5;" x1="512.2813" x2="574.2813" y1="314" y2="314"/><!--MD5=[23b6773f51aa56bb6c9a60bafc81a5c0]
class ValueDTO--><rect fill="#FEFECE" filter="url(#fl1a2zgosvlxi)" height="48" id="ValueDTO" style="stroke:#A80036;stroke-width:1.5;" width="88" x="610.2813" y="274"/><ellipse cx="625.2813" cy="290" fill="#ADD1B2" rx="11" ry="11" style="stroke:#A80036;stroke-width:1.0;"/><path d="M628.0469,285.875 Q628.2031,285.6563 628.3906,285.5469 Q628.5781,285.4375 628.7969,285.4375 Q629.1719,285.4375 629.4063,285.6953 Q629.6406,285.9531 629.6406,286.5625 L629.6406,288.0156 Q629.6406,288.625 629.4063,288.8906 Q629.1719,289.1563 628.7969,289.1563 Q628.4531,289.1563 628.25,288.9531 Q628.0469,288.7656 627.9375,288.25 Q627.8906,287.8906 627.7031,287.7031 Q627.375,287.3281 626.7656,287.1094 Q626.1563,286.8906 625.5313,286.8906 Q624.7656,286.8906 624.1328,287.2188 Q623.5,287.5469 623.0078,288.2969 Q622.5156,289.0469 622.5156,290.0781 L622.5156,291.1719 Q622.5156,292.4063 623.4063,293.2266 Q624.2969,294.0469 625.8906,294.0469 Q626.8281,294.0469 627.4844,293.7969 Q627.875,293.6406 628.2969,293.2031 Q628.5625,292.9375 628.7109,292.8594 Q628.8594,292.7813 629.0625,292.7813 Q629.3906,292.7813 629.6484,293.0391 Q629.9063,293.2969 629.9063,293.6406 Q629.9063,293.9844 629.5625,294.3906 Q629.0625,294.9688 628.2656,295.2969 Q627.1875,295.75 625.8906,295.75 Q624.375,295.75 623.1719,295.125 Q622.1875,294.625 621.5,293.5547 Q620.8125,292.4844 620.8125,291.2031 L620.8125,290.0469 Q620.8125,288.7188 621.4297,287.5703 Q622.0469,286.4219 623.1406,285.8047 Q624.2344,285.1875 625.4688,285.1875 Q626.2031,285.1875 626.8516,285.3516 Q627.5,285.5156 628.0469,285.875 Z " fill="#000000"/><text fill="#000000" font-family="sans-serif" font-size="12" lengthAdjust="spacing" textLength="56" x="639.2813" y="294.9102">ValueDTO</text><line style="stroke:#A80036;stroke-width:1.5;" x1="611.2813" x2="697.2813" y1="306" y2="306"/><line style="stroke:#A80036;stroke-width:1.5;" x1="611.2813" x2="697.2813" y1="314" y2="314"/><!--MD5=[be3a97b884d7bb8890e18b1f911f5268]
link BaseDTO to Guid--><path codeLine="17" d="M408.9213,84.51 C397.1413,130.31 397.0713,222.73 408.7013,269.12 " fill="none" id="BaseDTO-to-Guid" style="stroke:#A80036;stroke-width:1.0;"/><polygon fill="#A80036" points="410.0213,274,411.5367,264.2684,408.7178,269.1729,403.8133,266.354,410.0213,274" style="stroke:#A80036;stroke-width:1.0;"/><text fill="#000000" font-family="sans-serif" font-size="13" lengthAdjust="spacing" textLength="38" x="410.7234" y="263.3402">TypeId</text><!--MD5=[be3a97b884d7bb8890e18b1f911f5268]
link BaseDTO to Guid--><path codeLine="18" d="M426.2813,84.51 C426.2813,130.21 426.2813,222.36 426.2813,268.83 " fill="none" id="BaseDTO-to-Guid-1" style="stroke:#A80036;stroke-width:1.0;"/><polygon fill="#A80036" points="426.2813,274,430.2813,265,426.2813,269,422.2813,265,426.2813,274" style="stroke:#A80036;stroke-width:1.0;"/><text fill="#000000" font-family="sans-serif" font-size="13" lengthAdjust="spacing" textLength="10" x="415" y="263.3402">Id</text><!--MD5=[be3a97b884d7bb8890e18b1f911f5268]
link BaseDTO to Guid--><path codeLine="19" d="M443.6413,84.51 C455.4213,130.31 455.4913,222.73 443.8613,269.12 " fill="none" id="BaseDTO-to-Guid-2" style="stroke:#A80036;stroke-width:1.0;"/><polygon fill="#A80036" points="442.5413,274,448.7492,266.354,443.8447,269.1729,441.0258,264.2684,442.5413,274" style="stroke:#A80036;stroke-width:1.0;"/><text fill="#000000" font-family="sans-serif" font-size="13" lengthAdjust="spacing" textLength="28" x="450.2954" y="263.3402">Type</text><!--MD5=[2cc8b6df816638932ff19f7ae8e08ba0]
link PropertyDTO to Guid--><path codeLine="20" d="M534.3413,214 C512.4013,230.85 482.6013,253.74 459.8513,271.21 " fill="none" id="PropertyDTO-to-Guid" style="stroke:#A80036;stroke-width:1.0;"/><polygon fill="#A80036" points="455.6913,274.41,465.2681,272.1114,459.6602,271.369,460.4026,265.7611,455.6913,274.41" style="stroke:#A80036;stroke-width:1.0;"/><text fill="#000000" font-family="sans-serif" font-size="13" lengthAdjust="spacing" textLength="38" x="463.4066" y="285.4485">TypeId</text><!--MD5=[d5f4c30c7cb8eb2847647aca0481e46f]
link PropertyDTO to String--><path codeLine="21" d="M559.7213,214 C556.5513,230 552.3013,251.45 548.9213,268.53 " fill="none" id="PropertyDTO-to-String" style="stroke:#A80036;stroke-width:1.0;"/><polygon fill="#A80036" points="547.9013,273.68,553.5751,265.6297,548.8736,268.7755,545.7278,264.074,547.9013,273.68" style="stroke:#A80036;stroke-width:1.0;"/><text fill="#000000" font-family="sans-serif" font-size="13" lengthAdjust="spacing" textLength="34" x="510.8836" y="263.34">Name</text><!--MD5=[27ef94481b60aa7b3f11772915ae663e]
link PropertyDTO to ValueDTO--><path codeLine="22" d="M583.8113,214 C597.7513,230.42 616.5513,252.56 631.2213,269.84 " fill="none" id="PropertyDTO-to-ValueDTO" style="stroke:#A80036;stroke-width:1.0;"/><polygon fill="#A80036" points="634.4813,273.68,631.6991,264.2323,631.2426,269.8707,625.6042,269.4141,634.4813,273.68" style="stroke:#A80036;stroke-width:1.0;"/><text fill="#000000" font-family="sans-serif" font-size="13" lengthAdjust="spacing" textLength="33" x="592.6331" y="263.34">Value</text><!--MD5=[3920cdde0ef99465ed1599e18a1d09e5]
reverse link BaseDTO to ObjectDTO--><path codeLine="23" d="M365.4713,89.23 C320.1113,112.9 259.1713,144.7 218.4113,165.97 " fill="none" id="BaseDTO-backto-ObjectDTO" style="stroke:#A80036;stroke-width:1.0;"/><polygon fill="none" points="362.2813,83,383.2513,79.96,368.7513,95.41,362.2813,83" style="stroke:#A80036;stroke-width:1.0;"/><!--MD5=[ae4b2e8b4ef91d484150733ac744b15c]
link ObjectDTO to Guid--><path codeLine="24" d="M220.5013,210.44 C270.2713,231.38 348.2413,264.17 392.5413,282.81 " fill="none" id="ObjectDTO-to-Guid" style="stroke:#A80036;stroke-width:1.0;"/><polygon fill="#A80036" points="397.2513,284.79,390.5167,277.6035,392.6452,282.8446,387.4041,284.9731,397.2513,284.79" style="stroke:#A80036;stroke-width:1.0;"/><text fill="#000000" font-family="sans-serif" font-size="13" lengthAdjust="spacing" textLength="38" x="351.2963" y="278.8013">TypeId</text><!--MD5=[044e50fa495cf138e42c0a7a2d101165]
link ObjectDTO to List`1--><path codeLine="25" d="M174.2813,214 C174.2813,230 174.2813,251.45 174.2813,268.53 " fill="none" id="ObjectDTO-to-List`1" style="stroke:#A80036;stroke-width:1.0;"/><polygon fill="#A80036" points="174.2813,273.68,178.2813,264.68,174.2813,268.68,170.2813,264.68,174.2813,273.68" style="stroke:#A80036;stroke-width:1.0;"/><text fill="#000000" font-family="sans-serif" font-size="13" lengthAdjust="spacing" textLength="150" x="6" y="263.34">Properties&lt;PropertyDTO&gt;</text><!--MD5=[d40922a5f4b5f53a84548686e17be8ce]
reverse link BaseDTO to TypeDTO--><path codeLine="26" d="M385.4113,99.16 C363.8313,121.16 338.1513,147.34 320.0913,165.74 " fill="none" id="BaseDTO-backto-TypeDTO" style="stroke:#A80036;stroke-width:1.0;"/><polygon fill="none" points="380.5513,94.12,399.5513,84.75,390.5413,103.93,380.5513,94.12" style="stroke:#A80036;stroke-width:1.0;"/><!--MD5=[5c447c056dfaa167e42a9155323e8f7a]
link TypeDTO to Guid--><path codeLine="27" d="M325.2713,214 C345.5013,230.62 372.8813,253.12 394.0213,270.5 " fill="none" id="TypeDTO-to-Guid" style="stroke:#A80036;stroke-width:1.0;"/><polygon fill="#A80036" points="397.9013,273.68,393.4933,264.8726,394.0404,270.503,388.41,271.05,397.9013,273.68" style="stroke:#A80036;stroke-width:1.0;"/><text fill="#000000" font-family="sans-serif" font-size="13" lengthAdjust="spacing" textLength="38" x="351.1656" y="265.2485">TypeId</text><!--MD5=[7ae18a96212008ba33fbcaeea51bebb4]
@startuml
class BaseDTO <<partial>> {
}
class PropertyDTO {
}
class ObjectDTO {
}
class TypeDTO {
}
class BaseTypes <<static>> <<partial>> {
    + {static} Dispatch(dto:CommandDTO) : CommandDTO
}
class BaseTypes <<static>> <<partial>> {
    + {static} GetTypes(commandTypes:List<CommandTypeDTO>) : void
}
class "List`1"<T> {
}
BaseDTO - -> "TypeId" Guid
BaseDTO - -> "Id" Guid
BaseDTO - -> "Type" Guid
PropertyDTO - -> "TypeId" Guid
PropertyDTO - -> "Name" String
PropertyDTO - -> "Value" ValueDTO
BaseDTO <|- - ObjectDTO
ObjectDTO - -> "TypeId" Guid
ObjectDTO - -> "Properties<PropertyDTO>" "List`1"
BaseDTO <|- - TypeDTO
TypeDTO - -> "TypeId" Guid
@enduml

PlantUML version 1.2021.10(Mon Aug 30 09:43:48 EDT 2021)
(GPL source distribution)
Java Runtime: Java(TM) SE Runtime Environment
JVM: Java HotSpot(TM) Client VM
Default Encoding: Cp1252
Language: en
Country: US
--></g></svg>