<?xml version="1.0" encoding="UTF-8" standalone="no"?><svg xmlns="http://www.w3.org/2000/svg" xmlns:xlink="http://www.w3.org/1999/xlink" contentScriptType="application/ecmascript" contentStyleType="text/css" height="479px" preserveAspectRatio="none" style="width:718px;height:479px;background:#FFFFFF;" version="1.1" viewBox="0 0 718 479" width="718px" zoomAndPan="magnify"><defs><filter height="300%" id="f1pmgxs3h98im4" width="300%" x="-1" y="-1"><feGaussianBlur result="blurOut" stdDeviation="2.0"/><feColorMatrix in="blurOut" result="blurOut2" type="matrix" values="0 0 0 0 0 0 0 0 0 0 0 0 0 0 0 0 0 0 .4 0"/><feOffset dx="4.0" dy="4.0" in="blurOut2" result="blurOut3"/><feBlend in="SourceGraphic" in2="blurOut3" mode="normal"/></filter></defs><g><!--MD5=[f5d54f60ec6d089d1cb017027d5a65a8]
class CommandDTO--><rect codeLine="1" fill="#FEFECE" filter="url(#f1pmgxs3h98im4)" height="48" id="CommandDTO" style="stroke:#A80036;stroke-width:1.5;" width="116" x="7" y="309"/><ellipse cx="22" cy="325" fill="#ADD1B2" rx="11" ry="11" style="stroke:#A80036;stroke-width:1.0;"/><path d="M24.7656,320.875 Q24.9219,320.6563 25.1094,320.5469 Q25.2969,320.4375 25.5156,320.4375 Q25.8906,320.4375 26.125,320.6953 Q26.3594,320.9531 26.3594,321.5625 L26.3594,323.0156 Q26.3594,323.625 26.125,323.8906 Q25.8906,324.1563 25.5156,324.1563 Q25.1719,324.1563 24.9688,323.9531 Q24.7656,323.7656 24.6563,323.25 Q24.6094,322.8906 24.4219,322.7031 Q24.0938,322.3281 23.4844,322.1094 Q22.875,321.8906 22.25,321.8906 Q21.4844,321.8906 20.8516,322.2188 Q20.2188,322.5469 19.7266,323.2969 Q19.2344,324.0469 19.2344,325.0781 L19.2344,326.1719 Q19.2344,327.4063 20.125,328.2266 Q21.0156,329.0469 22.6094,329.0469 Q23.5469,329.0469 24.2031,328.7969 Q24.5938,328.6406 25.0156,328.2031 Q25.2813,327.9375 25.4297,327.8594 Q25.5781,327.7813 25.7813,327.7813 Q26.1094,327.7813 26.3672,328.0391 Q26.625,328.2969 26.625,328.6406 Q26.625,328.9844 26.2813,329.3906 Q25.7813,329.9688 24.9844,330.2969 Q23.9063,330.75 22.6094,330.75 Q21.0938,330.75 19.8906,330.125 Q18.9063,329.625 18.2188,328.5547 Q17.5313,327.4844 17.5313,326.2031 L17.5313,325.0469 Q17.5313,323.7188 18.1484,322.5703 Q18.7656,321.4219 19.8594,320.8047 Q20.9531,320.1875 22.1875,320.1875 Q22.9219,320.1875 23.5703,320.3516 Q24.2188,320.5156 24.7656,320.875 Z " fill="#000000"/><text fill="#000000" font-family="sans-serif" font-size="12" lengthAdjust="spacing" textLength="84" x="36" y="329.9102">CommandDTO</text><line style="stroke:#A80036;stroke-width:1.5;" x1="8" x2="122" y1="341" y2="341"/><line style="stroke:#A80036;stroke-width:1.5;" x1="8" x2="122" y1="349" y2="349"/><!--MD5=[2f720059ec7752b7edd24ab483589f66]
class SampleCommandWrapper--><rect codeLine="3" fill="#FEFECE" filter="url(#f1pmgxs3h98im4)" height="111.5313" id="SampleCommandWrapper" style="stroke:#A80036;stroke-width:1.5;" width="363" x="179.5" y="137"/><ellipse cx="282.25" cy="157.0938" fill="#ADD1B2" rx="11" ry="11" style="stroke:#A80036;stroke-width:1.0;"/><path d="M285.0156,152.9688 Q285.1719,152.75 285.3594,152.6406 Q285.5469,152.5313 285.7656,152.5313 Q286.1406,152.5313 286.375,152.7891 Q286.6094,153.0469 286.6094,153.6563 L286.6094,155.1094 Q286.6094,155.7188 286.375,155.9844 Q286.1406,156.25 285.7656,156.25 Q285.4219,156.25 285.2188,156.0469 Q285.0156,155.8594 284.9063,155.3438 Q284.8594,154.9844 284.6719,154.7969 Q284.3438,154.4219 283.7344,154.2031 Q283.125,153.9844 282.5,153.9844 Q281.7344,153.9844 281.1016,154.3125 Q280.4688,154.6406 279.9766,155.3906 Q279.4844,156.1406 279.4844,157.1719 L279.4844,158.2656 Q279.4844,159.5 280.375,160.3203 Q281.2656,161.1406 282.8594,161.1406 Q283.7969,161.1406 284.4531,160.8906 Q284.8438,160.7344 285.2656,160.2969 Q285.5313,160.0313 285.6797,159.9531 Q285.8281,159.875 286.0313,159.875 Q286.3594,159.875 286.6172,160.1328 Q286.875,160.3906 286.875,160.7344 Q286.875,161.0781 286.5313,161.4844 Q286.0313,162.0625 285.2344,162.3906 Q284.1563,162.8438 282.8594,162.8438 Q281.3438,162.8438 280.1406,162.2188 Q279.1563,161.7188 278.4688,160.6484 Q277.7813,159.5781 277.7813,158.2969 L277.7813,157.1406 Q277.7813,155.8125 278.3984,154.6641 Q279.0156,153.5156 280.1094,152.8984 Q281.2031,152.2813 282.4375,152.2813 Q283.1719,152.2813 283.8203,152.4453 Q284.4688,152.6094 285.0156,152.9688 Z " fill="#000000"/><text fill="#000000" font-family="sans-serif" font-size="12" font-style="italic" lengthAdjust="spacing" textLength="48" x="353.25" y="154.457">«partial»</text><text fill="#000000" font-family="sans-serif" font-size="12" lengthAdjust="spacing" textLength="149" x="302.75" y="169.5508">SampleCommandWrapper</text><line style="stroke:#A80036;stroke-width:1.5;" x1="180.5" x2="541.5" y1="177.1875" y2="177.1875"/><line style="stroke:#A80036;stroke-width:1.5;" x1="180.5" x2="541.5" y1="185.1875" y2="185.1875"/><ellipse cx="190.5" cy="196.1875" fill="#84BE84" rx="3" ry="3" style="stroke:#038048;stroke-width:1.0;"/><text fill="#000000" font-family="sans-serif" font-size="11" lengthAdjust="spacing" textLength="218" x="199.5" y="200.6064">SampleCommandWrapper(dto:CommandDTO)</text><ellipse cx="190.5" cy="210.0234" fill="#84BE84" rx="3" ry="3" style="stroke:#038048;stroke-width:1.0;"/><text fill="#000000" font-family="sans-serif" font-size="11" lengthAdjust="spacing" text-decoration="underline" textLength="161" x="199.5" y="214.4424">IsForMe(dto:CommandDTO) : bool</text><ellipse cx="190.5" cy="223.8594" fill="#84BE84" rx="3" ry="3" style="stroke:#038048;stroke-width:1.0;"/><text fill="#000000" font-family="sans-serif" font-size="11" lengthAdjust="spacing" text-decoration="underline" textLength="257" x="199.5" y="228.2783">ExecuteCommand(dto:CommandDTO) : CommandDTO</text><ellipse cx="190.5" cy="237.6953" fill="#84BE84" rx="3" ry="3" style="stroke:#038048;stroke-width:1.0;"/><text fill="#000000" font-family="sans-serif" font-size="11" lengthAdjust="spacing" textLength="337" x="199.5" y="242.1143">«partial» SampleCommand(firstOne:String, secondOne:Boolean) : void</text><!--MD5=[ba03fc88c0e35b013a46564b4a2ab72f]
class CommandTypesDispatcher--><rect codeLine="9" fill="#FEFECE" filter="url(#f1pmgxs3h98im4)" height="70.0234" id="CommandTypesDispatcher" style="stroke:#A80036;stroke-width:1.5;" width="239" x="465.5" y="7"/><ellipse cx="505.25" cy="27.0938" fill="#ADD1B2" rx="11" ry="11" style="stroke:#A80036;stroke-width:1.0;"/><path d="M508.0156,22.9688 Q508.1719,22.75 508.3594,22.6406 Q508.5469,22.5313 508.7656,22.5313 Q509.1406,22.5313 509.375,22.7891 Q509.6094,23.0469 509.6094,23.6563 L509.6094,25.1094 Q509.6094,25.7188 509.375,25.9844 Q509.1406,26.25 508.7656,26.25 Q508.4219,26.25 508.2188,26.0469 Q508.0156,25.8594 507.9063,25.3438 Q507.8594,24.9844 507.6719,24.7969 Q507.3438,24.4219 506.7344,24.2031 Q506.125,23.9844 505.5,23.9844 Q504.7344,23.9844 504.1016,24.3125 Q503.4688,24.6406 502.9766,25.3906 Q502.4844,26.1406 502.4844,27.1719 L502.4844,28.2656 Q502.4844,29.5 503.375,30.3203 Q504.2656,31.1406 505.8594,31.1406 Q506.7969,31.1406 507.4531,30.8906 Q507.8438,30.7344 508.2656,30.2969 Q508.5313,30.0313 508.6797,29.9531 Q508.8281,29.875 509.0313,29.875 Q509.3594,29.875 509.6172,30.1328 Q509.875,30.3906 509.875,30.7344 Q509.875,31.0781 509.5313,31.4844 Q509.0313,32.0625 508.2344,32.3906 Q507.1563,32.8438 505.8594,32.8438 Q504.3438,32.8438 503.1406,32.2188 Q502.1563,31.7188 501.4688,30.6484 Q500.7813,29.5781 500.7813,28.2969 L500.7813,27.1406 Q500.7813,25.8125 501.3984,24.6641 Q502.0156,23.5156 503.1094,22.8984 Q504.2031,22.2813 505.4375,22.2813 Q506.1719,22.2813 506.8203,22.4453 Q507.4688,22.6094 508.0156,22.9688 Z " fill="#000000"/><text fill="#000000" font-family="sans-serif" font-size="12" font-style="italic" lengthAdjust="spacing" textLength="42" x="579.75" y="24.457">«static»</text><text fill="#000000" font-family="sans-serif" font-size="12" lengthAdjust="spacing" textLength="152" x="524.75" y="39.5508">CommandTypesDispatcher</text><line style="stroke:#A80036;stroke-width:1.5;" x1="466.5" x2="703.5" y1="47.1875" y2="47.1875"/><line style="stroke:#A80036;stroke-width:1.5;" x1="466.5" x2="703.5" y1="55.1875" y2="55.1875"/><ellipse cx="476.5" cy="66.1875" fill="#84BE84" rx="3" ry="3" style="stroke:#038048;stroke-width:1.0;"/><text fill="#000000" font-family="sans-serif" font-size="11" lengthAdjust="spacing" text-decoration="underline" textLength="213" x="485.5" y="70.6064">Dispatch(dto:CommandDTO) : CommandDTO</text><!--MD5=[e644022de7dea015dd09463c37421447]
class List`1--><rect codeLine="12" fill="#FEFECE" filter="url(#f1pmgxs3h98im4)" height="48" id="List`1" style="stroke:#A80036;stroke-width:1.5;" width="74" x="158" y="309"/><ellipse cx="173" cy="325" fill="#ADD1B2" rx="11" ry="11" style="stroke:#A80036;stroke-width:1.0;"/><path d="M175.7656,320.875 Q175.9219,320.6563 176.1094,320.5469 Q176.2969,320.4375 176.5156,320.4375 Q176.8906,320.4375 177.125,320.6953 Q177.3594,320.9531 177.3594,321.5625 L177.3594,323.0156 Q177.3594,323.625 177.125,323.8906 Q176.8906,324.1563 176.5156,324.1563 Q176.1719,324.1563 175.9688,323.9531 Q175.7656,323.7656 175.6563,323.25 Q175.6094,322.8906 175.4219,322.7031 Q175.0938,322.3281 174.4844,322.1094 Q173.875,321.8906 173.25,321.8906 Q172.4844,321.8906 171.8516,322.2188 Q171.2188,322.5469 170.7266,323.2969 Q170.2344,324.0469 170.2344,325.0781 L170.2344,326.1719 Q170.2344,327.4063 171.125,328.2266 Q172.0156,329.0469 173.6094,329.0469 Q174.5469,329.0469 175.2031,328.7969 Q175.5938,328.6406 176.0156,328.2031 Q176.2813,327.9375 176.4297,327.8594 Q176.5781,327.7813 176.7813,327.7813 Q177.1094,327.7813 177.3672,328.0391 Q177.625,328.2969 177.625,328.6406 Q177.625,328.9844 177.2813,329.3906 Q176.7813,329.9688 175.9844,330.2969 Q174.9063,330.75 173.6094,330.75 Q172.0938,330.75 170.8906,330.125 Q169.9063,329.625 169.2188,328.5547 Q168.5313,327.4844 168.5313,326.2031 L168.5313,325.0469 Q168.5313,323.7188 169.1484,322.5703 Q169.7656,321.4219 170.8594,320.8047 Q171.9531,320.1875 173.1875,320.1875 Q173.9219,320.1875 174.5703,320.3516 Q175.2188,320.5156 175.7656,320.875 Z " fill="#000000"/><text fill="#000000" font-family="sans-serif" font-size="12" lengthAdjust="spacing" textLength="31" x="187" y="329.9102">List`1</text><rect fill="#FFFFFF" height="17.0938" style="stroke:#000000;stroke-width:1.0;stroke-dasharray:2.0,2.0;" width="9" x="226" y="306"/><text fill="#000000" font-family="sans-serif" font-size="12" font-style="italic" lengthAdjust="spacing" textLength="7" x="227" y="319.457">T</text><line style="stroke:#A80036;stroke-width:1.5;" x1="159" x2="231" y1="341" y2="341"/><line style="stroke:#A80036;stroke-width:1.5;" x1="159" x2="231" y1="349" y2="349"/><!--MD5=[6b1d3384926f1bc892ee196bbd0d7fce]
class BaseDTO--><rect fill="#FEFECE" filter="url(#f1pmgxs3h98im4)" height="48" id="BaseDTO" style="stroke:#A80036;stroke-width:1.5;" width="86" x="22" y="169"/><ellipse cx="37" cy="185" fill="#ADD1B2" rx="11" ry="11" style="stroke:#A80036;stroke-width:1.0;"/><path d="M39.7656,180.875 Q39.9219,180.6563 40.1094,180.5469 Q40.2969,180.4375 40.5156,180.4375 Q40.8906,180.4375 41.125,180.6953 Q41.3594,180.9531 41.3594,181.5625 L41.3594,183.0156 Q41.3594,183.625 41.125,183.8906 Q40.8906,184.1563 40.5156,184.1563 Q40.1719,184.1563 39.9688,183.9531 Q39.7656,183.7656 39.6563,183.25 Q39.6094,182.8906 39.4219,182.7031 Q39.0938,182.3281 38.4844,182.1094 Q37.875,181.8906 37.25,181.8906 Q36.4844,181.8906 35.8516,182.2188 Q35.2188,182.5469 34.7266,183.2969 Q34.2344,184.0469 34.2344,185.0781 L34.2344,186.1719 Q34.2344,187.4063 35.125,188.2266 Q36.0156,189.0469 37.6094,189.0469 Q38.5469,189.0469 39.2031,188.7969 Q39.5938,188.6406 40.0156,188.2031 Q40.2813,187.9375 40.4297,187.8594 Q40.5781,187.7813 40.7813,187.7813 Q41.1094,187.7813 41.3672,188.0391 Q41.625,188.2969 41.625,188.6406 Q41.625,188.9844 41.2813,189.3906 Q40.7813,189.9688 39.9844,190.2969 Q38.9063,190.75 37.6094,190.75 Q36.0938,190.75 34.8906,190.125 Q33.9063,189.625 33.2188,188.5547 Q32.5313,187.4844 32.5313,186.2031 L32.5313,185.0469 Q32.5313,183.7188 33.1484,182.5703 Q33.7656,181.4219 34.8594,180.8047 Q35.9531,180.1875 37.1875,180.1875 Q37.9219,180.1875 38.5703,180.3516 Q39.2188,180.5156 39.7656,180.875 Z " fill="#000000"/><text fill="#000000" font-family="sans-serif" font-size="12" lengthAdjust="spacing" textLength="54" x="51" y="189.9102">BaseDTO</text><line style="stroke:#A80036;stroke-width:1.5;" x1="23" x2="107" y1="201" y2="201"/><line style="stroke:#A80036;stroke-width:1.5;" x1="23" x2="107" y1="209" y2="209"/><!--MD5=[b9f3d2915b6b8d0c143f32ccec3f745e]
class Guid--><rect fill="#FEFECE" filter="url(#f1pmgxs3h98im4)" height="48" id="Guid" style="stroke:#A80036;stroke-width:1.5;" width="58" x="202" y="417"/><ellipse cx="217" cy="433" fill="#ADD1B2" rx="11" ry="11" style="stroke:#A80036;stroke-width:1.0;"/><path d="M219.7656,428.875 Q219.9219,428.6563 220.1094,428.5469 Q220.2969,428.4375 220.5156,428.4375 Q220.8906,428.4375 221.125,428.6953 Q221.3594,428.9531 221.3594,429.5625 L221.3594,431.0156 Q221.3594,431.625 221.125,431.8906 Q220.8906,432.1563 220.5156,432.1563 Q220.1719,432.1563 219.9688,431.9531 Q219.7656,431.7656 219.6563,431.25 Q219.6094,430.8906 219.4219,430.7031 Q219.0938,430.3281 218.4844,430.1094 Q217.875,429.8906 217.25,429.8906 Q216.4844,429.8906 215.8516,430.2188 Q215.2188,430.5469 214.7266,431.2969 Q214.2344,432.0469 214.2344,433.0781 L214.2344,434.1719 Q214.2344,435.4063 215.125,436.2266 Q216.0156,437.0469 217.6094,437.0469 Q218.5469,437.0469 219.2031,436.7969 Q219.5938,436.6406 220.0156,436.2031 Q220.2813,435.9375 220.4297,435.8594 Q220.5781,435.7813 220.7813,435.7813 Q221.1094,435.7813 221.3672,436.0391 Q221.625,436.2969 221.625,436.6406 Q221.625,436.9844 221.2813,437.3906 Q220.7813,437.9688 219.9844,438.2969 Q218.9063,438.75 217.6094,438.75 Q216.0938,438.75 214.8906,438.125 Q213.9063,437.625 213.2188,436.5547 Q212.5313,435.4844 212.5313,434.2031 L212.5313,433.0469 Q212.5313,431.7188 213.1484,430.5703 Q213.7656,429.4219 214.8594,428.8047 Q215.9531,428.1875 217.1875,428.1875 Q217.9219,428.1875 218.5703,428.3516 Q219.2188,428.5156 219.7656,428.875 Z " fill="#000000"/><text fill="#000000" font-family="sans-serif" font-size="12" lengthAdjust="spacing" textLength="26" x="231" y="437.9102">Guid</text><line style="stroke:#A80036;stroke-width:1.5;" x1="203" x2="259" y1="449" y2="449"/><line style="stroke:#A80036;stroke-width:1.5;" x1="203" x2="259" y1="457" y2="457"/><!--MD5=[31d9d567a1d652152733c83e75189006]
class Boolean--><rect fill="#FEFECE" filter="url(#f1pmgxs3h98im4)" height="48" id="Boolean" style="stroke:#A80036;stroke-width:1.5;" width="78" x="267" y="309"/><ellipse cx="282" cy="325" fill="#ADD1B2" rx="11" ry="11" style="stroke:#A80036;stroke-width:1.0;"/><path d="M284.7656,320.875 Q284.9219,320.6563 285.1094,320.5469 Q285.2969,320.4375 285.5156,320.4375 Q285.8906,320.4375 286.125,320.6953 Q286.3594,320.9531 286.3594,321.5625 L286.3594,323.0156 Q286.3594,323.625 286.125,323.8906 Q285.8906,324.1563 285.5156,324.1563 Q285.1719,324.1563 284.9688,323.9531 Q284.7656,323.7656 284.6563,323.25 Q284.6094,322.8906 284.4219,322.7031 Q284.0938,322.3281 283.4844,322.1094 Q282.875,321.8906 282.25,321.8906 Q281.4844,321.8906 280.8516,322.2188 Q280.2188,322.5469 279.7266,323.2969 Q279.2344,324.0469 279.2344,325.0781 L279.2344,326.1719 Q279.2344,327.4063 280.125,328.2266 Q281.0156,329.0469 282.6094,329.0469 Q283.5469,329.0469 284.2031,328.7969 Q284.5938,328.6406 285.0156,328.2031 Q285.2813,327.9375 285.4297,327.8594 Q285.5781,327.7813 285.7813,327.7813 Q286.1094,327.7813 286.3672,328.0391 Q286.625,328.2969 286.625,328.6406 Q286.625,328.9844 286.2813,329.3906 Q285.7813,329.9688 284.9844,330.2969 Q283.9063,330.75 282.6094,330.75 Q281.0938,330.75 279.8906,330.125 Q278.9063,329.625 278.2188,328.5547 Q277.5313,327.4844 277.5313,326.2031 L277.5313,325.0469 Q277.5313,323.7188 278.1484,322.5703 Q278.7656,321.4219 279.8594,320.8047 Q280.9531,320.1875 282.1875,320.1875 Q282.9219,320.1875 283.5703,320.3516 Q284.2188,320.5156 284.7656,320.875 Z " fill="#000000"/><text fill="#000000" font-family="sans-serif" font-size="12" lengthAdjust="spacing" textLength="46" x="296" y="329.9102">Boolean</text><line style="stroke:#A80036;stroke-width:1.5;" x1="268" x2="344" y1="341" y2="341"/><line style="stroke:#A80036;stroke-width:1.5;" x1="268" x2="344" y1="349" y2="349"/><!--MD5=[fe6b2754769bc87cf156126798433078]
class CommandWrapper--><rect fill="#FEFECE" filter="url(#f1pmgxs3h98im4)" height="48" id="CommandWrapper" style="stroke:#A80036;stroke-width:1.5;" width="138" x="292" y="18"/><ellipse cx="307" cy="34" fill="#ADD1B2" rx="11" ry="11" style="stroke:#A80036;stroke-width:1.0;"/><path d="M309.7656,29.875 Q309.9219,29.6563 310.1094,29.5469 Q310.2969,29.4375 310.5156,29.4375 Q310.8906,29.4375 311.125,29.6953 Q311.3594,29.9531 311.3594,30.5625 L311.3594,32.0156 Q311.3594,32.625 311.125,32.8906 Q310.8906,33.1563 310.5156,33.1563 Q310.1719,33.1563 309.9688,32.9531 Q309.7656,32.7656 309.6563,32.25 Q309.6094,31.8906 309.4219,31.7031 Q309.0938,31.3281 308.4844,31.1094 Q307.875,30.8906 307.25,30.8906 Q306.4844,30.8906 305.8516,31.2188 Q305.2188,31.5469 304.7266,32.2969 Q304.2344,33.0469 304.2344,34.0781 L304.2344,35.1719 Q304.2344,36.4063 305.125,37.2266 Q306.0156,38.0469 307.6094,38.0469 Q308.5469,38.0469 309.2031,37.7969 Q309.5938,37.6406 310.0156,37.2031 Q310.2813,36.9375 310.4297,36.8594 Q310.5781,36.7813 310.7813,36.7813 Q311.1094,36.7813 311.3672,37.0391 Q311.625,37.2969 311.625,37.6406 Q311.625,37.9844 311.2813,38.3906 Q310.7813,38.9688 309.9844,39.2969 Q308.9063,39.75 307.6094,39.75 Q306.0938,39.75 304.8906,39.125 Q303.9063,38.625 303.2188,37.5547 Q302.5313,36.4844 302.5313,35.2031 L302.5313,34.0469 Q302.5313,32.7188 303.1484,31.5703 Q303.7656,30.4219 304.8594,29.8047 Q305.9531,29.1875 307.1875,29.1875 Q307.9219,29.1875 308.5703,29.3516 Q309.2188,29.5156 309.7656,29.875 Z " fill="#000000"/><text fill="#000000" font-family="sans-serif" font-size="12" lengthAdjust="spacing" textLength="106" x="321" y="38.9102">CommandWrapper</text><line style="stroke:#A80036;stroke-width:1.5;" x1="293" x2="429" y1="50" y2="50"/><line style="stroke:#A80036;stroke-width:1.5;" x1="293" x2="429" y1="58" y2="58"/><!--MD5=[9df70cf33be424c1b8543b3f439cae89]
class String--><rect fill="#FEFECE" filter="url(#f1pmgxs3h98im4)" height="48" id="String" style="stroke:#A80036;stroke-width:1.5;" width="64" x="451" y="309"/><ellipse cx="466" cy="325" fill="#ADD1B2" rx="11" ry="11" style="stroke:#A80036;stroke-width:1.0;"/><path d="M468.7656,320.875 Q468.9219,320.6563 469.1094,320.5469 Q469.2969,320.4375 469.5156,320.4375 Q469.8906,320.4375 470.125,320.6953 Q470.3594,320.9531 470.3594,321.5625 L470.3594,323.0156 Q470.3594,323.625 470.125,323.8906 Q469.8906,324.1563 469.5156,324.1563 Q469.1719,324.1563 468.9688,323.9531 Q468.7656,323.7656 468.6563,323.25 Q468.6094,322.8906 468.4219,322.7031 Q468.0938,322.3281 467.4844,322.1094 Q466.875,321.8906 466.25,321.8906 Q465.4844,321.8906 464.8516,322.2188 Q464.2188,322.5469 463.7266,323.2969 Q463.2344,324.0469 463.2344,325.0781 L463.2344,326.1719 Q463.2344,327.4063 464.125,328.2266 Q465.0156,329.0469 466.6094,329.0469 Q467.5469,329.0469 468.2031,328.7969 Q468.5938,328.6406 469.0156,328.2031 Q469.2813,327.9375 469.4297,327.8594 Q469.5781,327.7813 469.7813,327.7813 Q470.1094,327.7813 470.3672,328.0391 Q470.625,328.2969 470.625,328.6406 Q470.625,328.9844 470.2813,329.3906 Q469.7813,329.9688 468.9844,330.2969 Q467.9063,330.75 466.6094,330.75 Q465.0938,330.75 463.8906,330.125 Q462.9063,329.625 462.2188,328.5547 Q461.5313,327.4844 461.5313,326.2031 L461.5313,325.0469 Q461.5313,323.7188 462.1484,322.5703 Q462.7656,321.4219 463.8594,320.8047 Q464.9531,320.1875 466.1875,320.1875 Q466.9219,320.1875 467.5703,320.3516 Q468.2188,320.5156 468.7656,320.875 Z " fill="#000000"/><text fill="#000000" font-family="sans-serif" font-size="12" lengthAdjust="spacing" textLength="32" x="480" y="329.9102">String</text><line style="stroke:#A80036;stroke-width:1.5;" x1="452" x2="514" y1="341" y2="341"/><line style="stroke:#A80036;stroke-width:1.5;" x1="452" x2="514" y1="349" y2="349"/><!--MD5=[9714f00bbee80ca7b140c29ae529c8eb]
reverse link BaseDTO to CommandDTO--><path codeLine="14" d="M65,237.13 C65,260.84 65,289.3 65,308.83 " fill="none" id="BaseDTO-backto-CommandDTO" style="stroke:#A80036;stroke-width:1.0;"/><polygon fill="none" points="58,237.1,65,217.1,72,237.1,58,237.1" style="stroke:#A80036;stroke-width:1.0;"/><!--MD5=[748fc960db8404b389e3e2dd41b16478]
link CommandDTO to Guid--><path codeLine="15" d="M101.02,357 C129.71,375.32 169.57,400.78 197.57,418.65 " fill="none" id="CommandDTO-to-Guid" style="stroke:#A80036;stroke-width:1.0;"/><polygon fill="#A80036" points="201.95,421.45,196.5099,413.2399,197.7335,418.7628,192.2105,419.9864,201.95,421.45" style="stroke:#A80036;stroke-width:1.0;"/><text fill="#000000" font-family="sans-serif" font-size="13" lengthAdjust="spacing" textLength="38" x="155.9917" y="414.4113">TypeId</text><!--MD5=[7643b4e9f5d3ec841d55a0a29d6a7102]
link CommandDTO to Boolean--><path codeLine="16" d="M106.5869,302.4696 C106.5869,302.4696 140.05,283.72 157.5,279 C189.25,270.41 200.22,268.85 231.5,279 C245.43,283.52 258.94,291.73 270.55,300.4 " fill="none" id="CommandDTO-Boolean" style="stroke:#A80036;stroke-width:1.0;"/><polygon fill="#A80036" points="281.04,308.76,276.4915,300.0244,277.1287,305.6452,271.5079,306.2825,281.04,308.76" style="stroke:#A80036;stroke-width:1.0;"/><line style="stroke:#A80036;stroke-width:1.0;" x1="277.1287" x2="270.865" y1="305.6452" y2="300.66"/><polygon fill="#FFFFFF" points="96.5,308.97,103.7102,309.0821,106.5869,302.4696,99.3766,302.3575,96.5,308.97" style="stroke:#A80036;stroke-width:1.0;"/><text fill="#000000" font-family="sans-serif" font-size="13" lengthAdjust="spacing" textLength="58" x="237.6565" y="298.0387">Response</text><!--MD5=[4578dd9431dc4b19b962c6ee8c717b6c]
link CommandDTO to List`1--><path codeLine="17" d="M135.15,332.9868 C135.15,332.9868 141.86,333 144.69,333 " fill="none" id="CommandDTO-List`1" style="stroke:#A80036;stroke-width:1.0;"/><polygon fill="#A80036" points="157.95,333,148.95,329,152.95,333,148.95,337,157.95,333" style="stroke:#A80036;stroke-width:1.0;"/><line style="stroke:#A80036;stroke-width:1.0;" x1="152.95" x2="144.95" y1="333" y2="333"/><polygon fill="#FFFFFF" points="123.15,333,129.1544,336.9934,135.15,332.9868,129.1456,328.9934,123.15,333" style="stroke:#A80036;stroke-width:1.0;"/><text fill="#000000" font-family="sans-serif" font-size="13" lengthAdjust="spacing" textLength="154" x="68.9649" y="298.1041">Arguments&lt;PropertyDTO&gt;</text><!--MD5=[1dcbafcc1a6e0f16ed85ca39a22f8e0c]
reverse link CommandWrapper to SampleCommandWrapper--><path codeLine="18" d="M361,86.33 C361,102.08 361,120.09 361,136.73 " fill="none" id="CommandWrapper-backto-SampleCommandWrapper" style="stroke:#A80036;stroke-width:1.0;"/><polygon fill="none" points="354,86.28,361,66.28,368,86.28,354,86.28" style="stroke:#A80036;stroke-width:1.0;"/><!--MD5=[6158de49482057db5420d29be73619ed]
link SampleCommandWrapper to Guid--><path codeLine="19" d="M374.73,249.04 C379.98,282.31 381,324.43 363,357 C342.31,394.45 296.86,417.29 265.1,429.29 " fill="none" id="SampleCommandWrapper-to-Guid" style="stroke:#A80036;stroke-width:1.0;"/><polygon fill="#A80036" points="260.13,431.13,269.9592,431.7513,264.8181,429.3916,267.1778,424.2504,260.13,431.13" style="stroke:#A80036;stroke-width:1.0;"/><text fill="#000000" font-family="sans-serif" font-size="13" lengthAdjust="spacing" textLength="38" x="268.1015" y="425.6945">TypeId</text><!--MD5=[ec91f5bc263fb467e5451ee323227901]
link SampleCommandWrapper to CommandDTO--><path codeLine="20" d="M242.74,249.14 C199.89,269.11 153.58,290.7 118.98,306.83 " fill="none" id="SampleCommandWrapper-to-CommandDTO" style="stroke:#A80036;stroke-width:1.0;"/><polygon fill="#A80036" points="114.39,308.97,124.2372,308.7871,118.9206,306.8548,120.8528,301.5382,114.39,308.97" style="stroke:#A80036;stroke-width:1.0;"/><text fill="#000000" font-family="sans-serif" font-size="13" lengthAdjust="spacing" textLength="27" x="96.5868" y="298.3025">Cmd</text><!--MD5=[2bc87cbe907fab5bf33e2f1168f28590]
link SampleCommandWrapper to String--><path codeLine="21" d="M409.92,249.33 C426.79,268.41 444.94,288.95 458.93,304.77 " fill="none" id="SampleCommandWrapper-to-String" style="stroke:#A80036;stroke-width:1.0;"/><polygon fill="#A80036" points="462.4,308.69,459.4282,299.3002,459.0853,304.9467,453.4388,304.6038,462.4,308.69" style="stroke:#A80036;stroke-width:1.0;"/><text fill="#000000" font-family="sans-serif" font-size="13" lengthAdjust="spacing" textLength="50" x="400.715" y="297.9507">FirstOne</text><!--MD5=[261c833e76cba9e885fc18e8a9d80f94]
link SampleCommandWrapper to Boolean--><path codeLine="22" d="M338.95,249.33 C331.47,268.09 323.44,288.25 317.17,303.96 " fill="none" id="SampleCommandWrapper-to-Boolean" style="stroke:#A80036;stroke-width:1.0;"/><polygon fill="#A80036" points="315.29,308.69,322.3464,301.8193,317.147,304.0476,314.9186,298.8481,315.29,308.69" style="stroke:#A80036;stroke-width:1.0;"/><text fill="#000000" font-family="sans-serif" font-size="13" lengthAdjust="spacing" textLength="68" x="326.3831" y="297.9507">SecondOne</text><!--MD5=[b5ea921a111467ac7651627b15833b10]
@startuml
class CommandDTO {
}
class SampleCommandWrapper <<partial>> {
    + SampleCommandWrapper(dto:CommandDTO)
    + {static} IsForMe(dto:CommandDTO) : bool
    + {static} ExecuteCommand(dto:CommandDTO) : CommandDTO
    + <<partial>> SampleCommand(firstOne:String, secondOne:Boolean) : void
}
class CommandTypesDispatcher <<static>> {
    + {static} Dispatch(dto:CommandDTO) : CommandDTO
}
class "List`1"<T> {
}
BaseDTO <|- - CommandDTO
CommandDTO - -> "TypeId" Guid
CommandDTO o-> "Response" Boolean
CommandDTO o-> "Arguments<PropertyDTO>" "List`1"
CommandWrapper <|- - SampleCommandWrapper
SampleCommandWrapper - -> "TypeId" Guid
SampleCommandWrapper - -> "Cmd" CommandDTO
SampleCommandWrapper - -> "FirstOne" String
SampleCommandWrapper - -> "SecondOne" Boolean
@enduml

PlantUML version 1.2021.10(Mon Aug 30 15:43:48 CEST 2021)
(GPL source distribution)
Java Runtime: Java(TM) SE Runtime Environment
JVM: Java HotSpot(TM) Client VM
Default Encoding: Cp1252
Language: de
Country: CH
--></g></svg>