<?xml version="1.0" encoding="UTF-8" standalone="no"?><svg xmlns="http://www.w3.org/2000/svg" xmlns:xlink="http://www.w3.org/1999/xlink" contentScriptType="application/ecmascript" contentStyleType="text/css" height="508px" preserveAspectRatio="none" style="width:1465px;height:508px;background:#FFFFFF;" version="1.1" viewBox="0 0 1465 508" width="1465px" zoomAndPan="magnify"><defs><filter height="300%" id="f15renpp7danqo" width="300%" x="-1" y="-1"><feGaussianBlur result="blurOut" stdDeviation="2.0"/><feColorMatrix in="blurOut" result="blurOut2" type="matrix" values="0 0 0 0 0 0 0 0 0 0 0 0 0 0 0 0 0 0 .4 0"/><feOffset dx="4.0" dy="4.0" in="blurOut2" result="blurOut3"/><feBlend in="SourceGraphic" in2="blurOut3" mode="normal"/></filter></defs><g><!--MD5=[f5d54f60ec6d089d1cb017027d5a65a8]
class CommandDTO--><rect codeLine="1" fill="#FEFECE" filter="url(#f15renpp7danqo)" height="48" id="CommandDTO" style="stroke:#A80036;stroke-width:1.5;" width="116" x="338" y="338"/><ellipse cx="353" cy="354" fill="#ADD1B2" rx="11" ry="11" style="stroke:#A80036;stroke-width:1.0;"/><path d="M355.7656,349.875 Q355.9219,349.6563 356.1094,349.5469 Q356.2969,349.4375 356.5156,349.4375 Q356.8906,349.4375 357.125,349.6953 Q357.3594,349.9531 357.3594,350.5625 L357.3594,352.0156 Q357.3594,352.625 357.125,352.8906 Q356.8906,353.1563 356.5156,353.1563 Q356.1719,353.1563 355.9688,352.9531 Q355.7656,352.7656 355.6563,352.25 Q355.6094,351.8906 355.4219,351.7031 Q355.0938,351.3281 354.4844,351.1094 Q353.875,350.8906 353.25,350.8906 Q352.4844,350.8906 351.8516,351.2188 Q351.2188,351.5469 350.7266,352.2969 Q350.2344,353.0469 350.2344,354.0781 L350.2344,355.1719 Q350.2344,356.4063 351.125,357.2266 Q352.0156,358.0469 353.6094,358.0469 Q354.5469,358.0469 355.2031,357.7969 Q355.5938,357.6406 356.0156,357.2031 Q356.2813,356.9375 356.4297,356.8594 Q356.5781,356.7813 356.7813,356.7813 Q357.1094,356.7813 357.3672,357.0391 Q357.625,357.2969 357.625,357.6406 Q357.625,357.9844 357.2813,358.3906 Q356.7813,358.9688 355.9844,359.2969 Q354.9063,359.75 353.6094,359.75 Q352.0938,359.75 350.8906,359.125 Q349.9063,358.625 349.2188,357.5547 Q348.5313,356.4844 348.5313,355.2031 L348.5313,354.0469 Q348.5313,352.7188 349.1484,351.5703 Q349.7656,350.4219 350.8594,349.8047 Q351.9531,349.1875 353.1875,349.1875 Q353.9219,349.1875 354.5703,349.3516 Q355.2188,349.5156 355.7656,349.875 Z " fill="#000000"/><text fill="#000000" font-family="sans-serif" font-size="12" lengthAdjust="spacing" textLength="84" x="367" y="358.9102">CommandDTO</text><line style="stroke:#A80036;stroke-width:1.5;" x1="339" x2="453" y1="370" y2="370"/><line style="stroke:#A80036;stroke-width:1.5;" x1="339" x2="453" y1="378" y2="378"/><!--MD5=[c16293fdc2a349471a916198a6de1464]
class ParamDTO--><rect codeLine="3" fill="#FEFECE" filter="url(#f15renpp7danqo)" height="48" id="ParamDTO" style="stroke:#A80036;stroke-width:1.5;" width="94" x="864" y="198"/><ellipse cx="879" cy="214" fill="#ADD1B2" rx="11" ry="11" style="stroke:#A80036;stroke-width:1.0;"/><path d="M881.7656,209.875 Q881.9219,209.6563 882.1094,209.5469 Q882.2969,209.4375 882.5156,209.4375 Q882.8906,209.4375 883.125,209.6953 Q883.3594,209.9531 883.3594,210.5625 L883.3594,212.0156 Q883.3594,212.625 883.125,212.8906 Q882.8906,213.1563 882.5156,213.1563 Q882.1719,213.1563 881.9688,212.9531 Q881.7656,212.7656 881.6563,212.25 Q881.6094,211.8906 881.4219,211.7031 Q881.0938,211.3281 880.4844,211.1094 Q879.875,210.8906 879.25,210.8906 Q878.4844,210.8906 877.8516,211.2188 Q877.2188,211.5469 876.7266,212.2969 Q876.2344,213.0469 876.2344,214.0781 L876.2344,215.1719 Q876.2344,216.4063 877.125,217.2266 Q878.0156,218.0469 879.6094,218.0469 Q880.5469,218.0469 881.2031,217.7969 Q881.5938,217.6406 882.0156,217.2031 Q882.2813,216.9375 882.4297,216.8594 Q882.5781,216.7813 882.7813,216.7813 Q883.1094,216.7813 883.3672,217.0391 Q883.625,217.2969 883.625,217.6406 Q883.625,217.9844 883.2813,218.3906 Q882.7813,218.9688 881.9844,219.2969 Q880.9063,219.75 879.6094,219.75 Q878.0938,219.75 876.8906,219.125 Q875.9063,218.625 875.2188,217.5547 Q874.5313,216.4844 874.5313,215.2031 L874.5313,214.0469 Q874.5313,212.7188 875.1484,211.5703 Q875.7656,210.4219 876.8594,209.8047 Q877.9531,209.1875 879.1875,209.1875 Q879.9219,209.1875 880.5703,209.3516 Q881.2188,209.5156 881.7656,209.875 Z " fill="#000000"/><text fill="#000000" font-family="sans-serif" font-size="12" lengthAdjust="spacing" textLength="62" x="893" y="218.9102">ParamDTO</text><line style="stroke:#A80036;stroke-width:1.5;" x1="865" x2="957" y1="230" y2="230"/><line style="stroke:#A80036;stroke-width:1.5;" x1="865" x2="957" y1="238" y2="238"/><!--MD5=[4c1731f98dfecb78a08a63fd20d14398]
class CommandTypeDTO--><rect codeLine="5" fill="#FEFECE" filter="url(#f15renpp7danqo)" height="48" id="CommandTypeDTO" style="stroke:#A80036;stroke-width:1.5;" width="142" x="993" y="198"/><ellipse cx="1008" cy="214" fill="#ADD1B2" rx="11" ry="11" style="stroke:#A80036;stroke-width:1.0;"/><path d="M1010.7656,209.875 Q1010.9219,209.6563 1011.1094,209.5469 Q1011.2969,209.4375 1011.5156,209.4375 Q1011.8906,209.4375 1012.125,209.6953 Q1012.3594,209.9531 1012.3594,210.5625 L1012.3594,212.0156 Q1012.3594,212.625 1012.125,212.8906 Q1011.8906,213.1563 1011.5156,213.1563 Q1011.1719,213.1563 1010.9688,212.9531 Q1010.7656,212.7656 1010.6563,212.25 Q1010.6094,211.8906 1010.4219,211.7031 Q1010.0938,211.3281 1009.4844,211.1094 Q1008.875,210.8906 1008.25,210.8906 Q1007.4844,210.8906 1006.8516,211.2188 Q1006.2188,211.5469 1005.7266,212.2969 Q1005.2344,213.0469 1005.2344,214.0781 L1005.2344,215.1719 Q1005.2344,216.4063 1006.125,217.2266 Q1007.0156,218.0469 1008.6094,218.0469 Q1009.5469,218.0469 1010.2031,217.7969 Q1010.5938,217.6406 1011.0156,217.2031 Q1011.2813,216.9375 1011.4297,216.8594 Q1011.5781,216.7813 1011.7813,216.7813 Q1012.1094,216.7813 1012.3672,217.0391 Q1012.625,217.2969 1012.625,217.6406 Q1012.625,217.9844 1012.2813,218.3906 Q1011.7813,218.9688 1010.9844,219.2969 Q1009.9063,219.75 1008.6094,219.75 Q1007.0938,219.75 1005.8906,219.125 Q1004.9063,218.625 1004.2188,217.5547 Q1003.5313,216.4844 1003.5313,215.2031 L1003.5313,214.0469 Q1003.5313,212.7188 1004.1484,211.5703 Q1004.7656,210.4219 1005.8594,209.8047 Q1006.9531,209.1875 1008.1875,209.1875 Q1008.9219,209.1875 1009.5703,209.3516 Q1010.2188,209.5156 1010.7656,209.875 Z " fill="#000000"/><text fill="#000000" font-family="sans-serif" font-size="12" lengthAdjust="spacing" textLength="110" x="1022" y="218.9102">CommandTypeDTO</text><line style="stroke:#A80036;stroke-width:1.5;" x1="994" x2="1134" y1="230" y2="230"/><line style="stroke:#A80036;stroke-width:1.5;" x1="994" x2="1134" y1="238" y2="238"/><!--MD5=[91d68edee7398364e4f5fe67c8765a48]
class GetCommandTypesWrapper--><rect codeLine="7" fill="#FEFECE" filter="url(#f15renpp7danqo)" height="111.5313" id="GetCommandTypesWrapper" style="stroke:#A80036;stroke-width:1.5;" width="302" x="7" y="166"/><ellipse cx="74.75" cy="186.0938" fill="#ADD1B2" rx="11" ry="11" style="stroke:#A80036;stroke-width:1.0;"/><path d="M77.5156,181.9688 Q77.6719,181.75 77.8594,181.6406 Q78.0469,181.5313 78.2656,181.5313 Q78.6406,181.5313 78.875,181.7891 Q79.1094,182.0469 79.1094,182.6563 L79.1094,184.1094 Q79.1094,184.7188 78.875,184.9844 Q78.6406,185.25 78.2656,185.25 Q77.9219,185.25 77.7188,185.0469 Q77.5156,184.8594 77.4063,184.3438 Q77.3594,183.9844 77.1719,183.7969 Q76.8438,183.4219 76.2344,183.2031 Q75.625,182.9844 75,182.9844 Q74.2344,182.9844 73.6016,183.3125 Q72.9688,183.6406 72.4766,184.3906 Q71.9844,185.1406 71.9844,186.1719 L71.9844,187.2656 Q71.9844,188.5 72.875,189.3203 Q73.7656,190.1406 75.3594,190.1406 Q76.2969,190.1406 76.9531,189.8906 Q77.3438,189.7344 77.7656,189.2969 Q78.0313,189.0313 78.1797,188.9531 Q78.3281,188.875 78.5313,188.875 Q78.8594,188.875 79.1172,189.1328 Q79.375,189.3906 79.375,189.7344 Q79.375,190.0781 79.0313,190.4844 Q78.5313,191.0625 77.7344,191.3906 Q76.6563,191.8438 75.3594,191.8438 Q73.8438,191.8438 72.6406,191.2188 Q71.6563,190.7188 70.9688,189.6484 Q70.2813,188.5781 70.2813,187.2969 L70.2813,186.1406 Q70.2813,184.8125 70.8984,183.6641 Q71.5156,182.5156 72.6094,181.8984 Q73.7031,181.2813 74.9375,181.2813 Q75.6719,181.2813 76.3203,181.4453 Q76.9688,181.6094 77.5156,181.9688 Z " fill="#000000"/><text fill="#000000" font-family="sans-serif" font-size="12" font-style="italic" lengthAdjust="spacing" textLength="48" x="150.25" y="183.457">«partial»</text><text fill="#000000" font-family="sans-serif" font-size="12" lengthAdjust="spacing" textLength="158" x="95.25" y="198.5508">GetCommandTypesWrapper</text><line style="stroke:#A80036;stroke-width:1.5;" x1="8" x2="308" y1="206.1875" y2="206.1875"/><line style="stroke:#A80036;stroke-width:1.5;" x1="8" x2="308" y1="214.1875" y2="214.1875"/><ellipse cx="18" cy="225.1875" fill="#84BE84" rx="3" ry="3" style="stroke:#038048;stroke-width:1.0;"/><text fill="#000000" font-family="sans-serif" font-size="11" lengthAdjust="spacing" textLength="230" x="27" y="229.6064">GetCommandTypesWrapper(dto:CommandDTO)</text><ellipse cx="18" cy="239.0234" fill="#84BE84" rx="3" ry="3" style="stroke:#038048;stroke-width:1.0;"/><text fill="#000000" font-family="sans-serif" font-size="11" lengthAdjust="spacing" text-decoration="underline" textLength="161" x="27" y="243.4424">IsForMe(dto:CommandDTO) : bool</text><ellipse cx="18" cy="252.8594" fill="#84BE84" rx="3" ry="3" style="stroke:#038048;stroke-width:1.0;"/><text fill="#000000" font-family="sans-serif" font-size="11" lengthAdjust="spacing" text-decoration="underline" textLength="257" x="27" y="257.2783">ExecuteCommand(dto:CommandDTO) : CommandDTO</text><ellipse cx="18" cy="266.6953" fill="#84BE84" rx="3" ry="3" style="stroke:#038048;stroke-width:1.0;"/><text fill="#000000" font-family="sans-serif" font-size="11" lengthAdjust="spacing" textLength="276" x="27" y="271.1143">«partial» GetCommandTypes() : List&lt;CommandTypeDTO&gt;</text><!--MD5=[2f720059ec7752b7edd24ab483589f66]
class SampleCommandWrapper--><rect codeLine="13" fill="#FEFECE" filter="url(#f15renpp7danqo)" height="111.5313" id="SampleCommandWrapper" style="stroke:#A80036;stroke-width:1.5;" width="363" x="465.5" y="166"/><ellipse cx="568.25" cy="186.0938" fill="#ADD1B2" rx="11" ry="11" style="stroke:#A80036;stroke-width:1.0;"/><path d="M571.0156,181.9688 Q571.1719,181.75 571.3594,181.6406 Q571.5469,181.5313 571.7656,181.5313 Q572.1406,181.5313 572.375,181.7891 Q572.6094,182.0469 572.6094,182.6563 L572.6094,184.1094 Q572.6094,184.7188 572.375,184.9844 Q572.1406,185.25 571.7656,185.25 Q571.4219,185.25 571.2188,185.0469 Q571.0156,184.8594 570.9063,184.3438 Q570.8594,183.9844 570.6719,183.7969 Q570.3438,183.4219 569.7344,183.2031 Q569.125,182.9844 568.5,182.9844 Q567.7344,182.9844 567.1016,183.3125 Q566.4688,183.6406 565.9766,184.3906 Q565.4844,185.1406 565.4844,186.1719 L565.4844,187.2656 Q565.4844,188.5 566.375,189.3203 Q567.2656,190.1406 568.8594,190.1406 Q569.7969,190.1406 570.4531,189.8906 Q570.8438,189.7344 571.2656,189.2969 Q571.5313,189.0313 571.6797,188.9531 Q571.8281,188.875 572.0313,188.875 Q572.3594,188.875 572.6172,189.1328 Q572.875,189.3906 572.875,189.7344 Q572.875,190.0781 572.5313,190.4844 Q572.0313,191.0625 571.2344,191.3906 Q570.1563,191.8438 568.8594,191.8438 Q567.3438,191.8438 566.1406,191.2188 Q565.1563,190.7188 564.4688,189.6484 Q563.7813,188.5781 563.7813,187.2969 L563.7813,186.1406 Q563.7813,184.8125 564.3984,183.6641 Q565.0156,182.5156 566.1094,181.8984 Q567.2031,181.2813 568.4375,181.2813 Q569.1719,181.2813 569.8203,181.4453 Q570.4688,181.6094 571.0156,181.9688 Z " fill="#000000"/><text fill="#000000" font-family="sans-serif" font-size="12" font-style="italic" lengthAdjust="spacing" textLength="48" x="639.25" y="183.457">«partial»</text><text fill="#000000" font-family="sans-serif" font-size="12" lengthAdjust="spacing" textLength="149" x="588.75" y="198.5508">SampleCommandWrapper</text><line style="stroke:#A80036;stroke-width:1.5;" x1="466.5" x2="827.5" y1="206.1875" y2="206.1875"/><line style="stroke:#A80036;stroke-width:1.5;" x1="466.5" x2="827.5" y1="214.1875" y2="214.1875"/><ellipse cx="476.5" cy="225.1875" fill="#84BE84" rx="3" ry="3" style="stroke:#038048;stroke-width:1.0;"/><text fill="#000000" font-family="sans-serif" font-size="11" lengthAdjust="spacing" textLength="218" x="485.5" y="229.6064">SampleCommandWrapper(dto:CommandDTO)</text><ellipse cx="476.5" cy="239.0234" fill="#84BE84" rx="3" ry="3" style="stroke:#038048;stroke-width:1.0;"/><text fill="#000000" font-family="sans-serif" font-size="11" lengthAdjust="spacing" text-decoration="underline" textLength="161" x="485.5" y="243.4424">IsForMe(dto:CommandDTO) : bool</text><ellipse cx="476.5" cy="252.8594" fill="#84BE84" rx="3" ry="3" style="stroke:#038048;stroke-width:1.0;"/><text fill="#000000" font-family="sans-serif" font-size="11" lengthAdjust="spacing" text-decoration="underline" textLength="257" x="485.5" y="257.2783">ExecuteCommand(dto:CommandDTO) : CommandDTO</text><ellipse cx="476.5" cy="266.6953" fill="#84BE84" rx="3" ry="3" style="stroke:#038048;stroke-width:1.0;"/><text fill="#000000" font-family="sans-serif" font-size="11" lengthAdjust="spacing" textLength="337" x="485.5" y="271.1143">«partial» SampleCommand(firstOne:String, secondOne:Boolean) : void</text><!--MD5=[b3bff2e3418cbaf7e3eb76e79b8e0a56]
class CommandTypes--><rect codeLine="22" fill="#FEFECE" filter="url(#f15renpp7danqo)" height="98.9531" id="CommandTypes" style="stroke:#A80036;stroke-width:1.5;" width="310" x="1141" y="7"/><ellipse cx="1245.75" cy="34.6406" fill="#ADD1B2" rx="11" ry="11" style="stroke:#A80036;stroke-width:1.0;"/><path d="M1248.5156,30.5156 Q1248.6719,30.2969 1248.8594,30.1875 Q1249.0469,30.0781 1249.2656,30.0781 Q1249.6406,30.0781 1249.875,30.3359 Q1250.1094,30.5938 1250.1094,31.2031 L1250.1094,32.6563 Q1250.1094,33.2656 1249.875,33.5313 Q1249.6406,33.7969 1249.2656,33.7969 Q1248.9219,33.7969 1248.7188,33.5938 Q1248.5156,33.4063 1248.4063,32.8906 Q1248.3594,32.5313 1248.1719,32.3438 Q1247.8438,31.9688 1247.2344,31.75 Q1246.625,31.5313 1246,31.5313 Q1245.2344,31.5313 1244.6016,31.8594 Q1243.9688,32.1875 1243.4766,32.9375 Q1242.9844,33.6875 1242.9844,34.7188 L1242.9844,35.8125 Q1242.9844,37.0469 1243.875,37.8672 Q1244.7656,38.6875 1246.3594,38.6875 Q1247.2969,38.6875 1247.9531,38.4375 Q1248.3438,38.2813 1248.7656,37.8438 Q1249.0313,37.5781 1249.1797,37.5 Q1249.3281,37.4219 1249.5313,37.4219 Q1249.8594,37.4219 1250.1172,37.6797 Q1250.375,37.9375 1250.375,38.2813 Q1250.375,38.625 1250.0313,39.0313 Q1249.5313,39.6094 1248.7344,39.9375 Q1247.6563,40.3906 1246.3594,40.3906 Q1244.8438,40.3906 1243.6406,39.7656 Q1242.6563,39.2656 1241.9688,38.1953 Q1241.2813,37.125 1241.2813,35.8438 L1241.2813,34.6875 Q1241.2813,33.3594 1241.8984,32.2109 Q1242.5156,31.0625 1243.6094,30.4453 Q1244.7031,29.8281 1245.9375,29.8281 Q1246.6719,29.8281 1247.3203,29.9922 Q1247.9688,30.1563 1248.5156,30.5156 Z " fill="#000000"/><text fill="#000000" font-family="sans-serif" font-size="12" font-style="italic" lengthAdjust="spacing" textLength="42" x="1291.25" y="24.457">«static»</text><text fill="#000000" font-family="sans-serif" font-size="12" font-style="italic" lengthAdjust="spacing" textLength="48" x="1288.25" y="39.5508">«partial»</text><text fill="#000000" font-family="sans-serif" font-size="12" lengthAdjust="spacing" textLength="92" x="1266.25" y="54.6445">CommandTypes</text><line style="stroke:#A80036;stroke-width:1.5;" x1="1142" x2="1450" y1="62.2813" y2="62.2813"/><line style="stroke:#A80036;stroke-width:1.5;" x1="1142" x2="1450" y1="70.2813" y2="70.2813"/><ellipse cx="1152" cy="81.2813" fill="#84BE84" rx="3" ry="3" style="stroke:#038048;stroke-width:1.0;"/><text fill="#000000" font-family="sans-serif" font-size="11" lengthAdjust="spacing" text-decoration="underline" textLength="213" x="1161" y="85.7002">Dispatch(dto:CommandDTO) : CommandDTO</text><ellipse cx="1152" cy="95.1172" fill="#84BE84" rx="3" ry="3" style="stroke:#038048;stroke-width:1.0;"/><text fill="#000000" font-family="sans-serif" font-size="11" lengthAdjust="spacing" text-decoration="underline" textLength="284" x="1161" y="99.5361">GetTypes(commandTypes:List&lt;CommandTypeDTO&gt;) : void</text><!--MD5=[e644022de7dea015dd09463c37421447]
class List`1--><rect codeLine="25" fill="#FEFECE" filter="url(#f15renpp7danqo)" height="48" id="List`1" style="stroke:#A80036;stroke-width:1.5;" width="74" x="489" y="338"/><ellipse cx="504" cy="354" fill="#ADD1B2" rx="11" ry="11" style="stroke:#A80036;stroke-width:1.0;"/><path d="M506.7656,349.875 Q506.9219,349.6563 507.1094,349.5469 Q507.2969,349.4375 507.5156,349.4375 Q507.8906,349.4375 508.125,349.6953 Q508.3594,349.9531 508.3594,350.5625 L508.3594,352.0156 Q508.3594,352.625 508.125,352.8906 Q507.8906,353.1563 507.5156,353.1563 Q507.1719,353.1563 506.9688,352.9531 Q506.7656,352.7656 506.6563,352.25 Q506.6094,351.8906 506.4219,351.7031 Q506.0938,351.3281 505.4844,351.1094 Q504.875,350.8906 504.25,350.8906 Q503.4844,350.8906 502.8516,351.2188 Q502.2188,351.5469 501.7266,352.2969 Q501.2344,353.0469 501.2344,354.0781 L501.2344,355.1719 Q501.2344,356.4063 502.125,357.2266 Q503.0156,358.0469 504.6094,358.0469 Q505.5469,358.0469 506.2031,357.7969 Q506.5938,357.6406 507.0156,357.2031 Q507.2813,356.9375 507.4297,356.8594 Q507.5781,356.7813 507.7813,356.7813 Q508.1094,356.7813 508.3672,357.0391 Q508.625,357.2969 508.625,357.6406 Q508.625,357.9844 508.2813,358.3906 Q507.7813,358.9688 506.9844,359.2969 Q505.9063,359.75 504.6094,359.75 Q503.0938,359.75 501.8906,359.125 Q500.9063,358.625 500.2188,357.5547 Q499.5313,356.4844 499.5313,355.2031 L499.5313,354.0469 Q499.5313,352.7188 500.1484,351.5703 Q500.7656,350.4219 501.8594,349.8047 Q502.9531,349.1875 504.1875,349.1875 Q504.9219,349.1875 505.5703,349.3516 Q506.2188,349.5156 506.7656,349.875 Z " fill="#000000"/><text fill="#000000" font-family="sans-serif" font-size="12" lengthAdjust="spacing" textLength="31" x="518" y="358.9102">List`1</text><rect fill="#FFFFFF" height="17.0938" style="stroke:#000000;stroke-width:1.0;stroke-dasharray:2.0,2.0;" width="9" x="557" y="335"/><text fill="#000000" font-family="sans-serif" font-size="12" font-style="italic" lengthAdjust="spacing" textLength="7" x="558" y="348.457">T</text><line style="stroke:#A80036;stroke-width:1.5;" x1="490" x2="562" y1="370" y2="370"/><line style="stroke:#A80036;stroke-width:1.5;" x1="490" x2="562" y1="378" y2="378"/><!--MD5=[6b1d3384926f1bc892ee196bbd0d7fce]
class BaseDTO--><rect fill="#FEFECE" filter="url(#f15renpp7danqo)" height="48" id="BaseDTO" style="stroke:#A80036;stroke-width:1.5;" width="86" x="344" y="198"/><ellipse cx="359" cy="214" fill="#ADD1B2" rx="11" ry="11" style="stroke:#A80036;stroke-width:1.0;"/><path d="M361.7656,209.875 Q361.9219,209.6563 362.1094,209.5469 Q362.2969,209.4375 362.5156,209.4375 Q362.8906,209.4375 363.125,209.6953 Q363.3594,209.9531 363.3594,210.5625 L363.3594,212.0156 Q363.3594,212.625 363.125,212.8906 Q362.8906,213.1563 362.5156,213.1563 Q362.1719,213.1563 361.9688,212.9531 Q361.7656,212.7656 361.6563,212.25 Q361.6094,211.8906 361.4219,211.7031 Q361.0938,211.3281 360.4844,211.1094 Q359.875,210.8906 359.25,210.8906 Q358.4844,210.8906 357.8516,211.2188 Q357.2188,211.5469 356.7266,212.2969 Q356.2344,213.0469 356.2344,214.0781 L356.2344,215.1719 Q356.2344,216.4063 357.125,217.2266 Q358.0156,218.0469 359.6094,218.0469 Q360.5469,218.0469 361.2031,217.7969 Q361.5938,217.6406 362.0156,217.2031 Q362.2813,216.9375 362.4297,216.8594 Q362.5781,216.7813 362.7813,216.7813 Q363.1094,216.7813 363.3672,217.0391 Q363.625,217.2969 363.625,217.6406 Q363.625,217.9844 363.2813,218.3906 Q362.7813,218.9688 361.9844,219.2969 Q360.9063,219.75 359.6094,219.75 Q358.0938,219.75 356.8906,219.125 Q355.9063,218.625 355.2188,217.5547 Q354.5313,216.4844 354.5313,215.2031 L354.5313,214.0469 Q354.5313,212.7188 355.1484,211.5703 Q355.7656,210.4219 356.8594,209.8047 Q357.9531,209.1875 359.1875,209.1875 Q359.9219,209.1875 360.5703,209.3516 Q361.2188,209.5156 361.7656,209.875 Z " fill="#000000"/><text fill="#000000" font-family="sans-serif" font-size="12" lengthAdjust="spacing" textLength="54" x="373" y="218.9102">BaseDTO</text><line style="stroke:#A80036;stroke-width:1.5;" x1="345" x2="429" y1="230" y2="230"/><line style="stroke:#A80036;stroke-width:1.5;" x1="345" x2="429" y1="238" y2="238"/><!--MD5=[b9f3d2915b6b8d0c143f32ccec3f745e]
class Guid--><rect fill="#FEFECE" filter="url(#f15renpp7danqo)" height="48" id="Guid" style="stroke:#A80036;stroke-width:1.5;" width="58" x="587" y="446"/><ellipse cx="602" cy="462" fill="#ADD1B2" rx="11" ry="11" style="stroke:#A80036;stroke-width:1.0;"/><path d="M604.7656,457.875 Q604.9219,457.6563 605.1094,457.5469 Q605.2969,457.4375 605.5156,457.4375 Q605.8906,457.4375 606.125,457.6953 Q606.3594,457.9531 606.3594,458.5625 L606.3594,460.0156 Q606.3594,460.625 606.125,460.8906 Q605.8906,461.1563 605.5156,461.1563 Q605.1719,461.1563 604.9688,460.9531 Q604.7656,460.7656 604.6563,460.25 Q604.6094,459.8906 604.4219,459.7031 Q604.0938,459.3281 603.4844,459.1094 Q602.875,458.8906 602.25,458.8906 Q601.4844,458.8906 600.8516,459.2188 Q600.2188,459.5469 599.7266,460.2969 Q599.2344,461.0469 599.2344,462.0781 L599.2344,463.1719 Q599.2344,464.4063 600.125,465.2266 Q601.0156,466.0469 602.6094,466.0469 Q603.5469,466.0469 604.2031,465.7969 Q604.5938,465.6406 605.0156,465.2031 Q605.2813,464.9375 605.4297,464.8594 Q605.5781,464.7813 605.7813,464.7813 Q606.1094,464.7813 606.3672,465.0391 Q606.625,465.2969 606.625,465.6406 Q606.625,465.9844 606.2813,466.3906 Q605.7813,466.9688 604.9844,467.2969 Q603.9063,467.75 602.6094,467.75 Q601.0938,467.75 599.8906,467.125 Q598.9063,466.625 598.2188,465.5547 Q597.5313,464.4844 597.5313,463.2031 L597.5313,462.0469 Q597.5313,460.7188 598.1484,459.5703 Q598.7656,458.4219 599.8594,457.8047 Q600.9531,457.1875 602.1875,457.1875 Q602.9219,457.1875 603.5703,457.3516 Q604.2188,457.5156 604.7656,457.875 Z " fill="#000000"/><text fill="#000000" font-family="sans-serif" font-size="12" lengthAdjust="spacing" textLength="26" x="616" y="466.9102">Guid</text><line style="stroke:#A80036;stroke-width:1.5;" x1="588" x2="644" y1="478" y2="478"/><line style="stroke:#A80036;stroke-width:1.5;" x1="588" x2="644" y1="486" y2="486"/><!--MD5=[31d9d567a1d652152733c83e75189006]
class Boolean--><rect fill="#FEFECE" filter="url(#f15renpp7danqo)" height="48" id="Boolean" style="stroke:#A80036;stroke-width:1.5;" width="78" x="669" y="338"/><ellipse cx="684" cy="354" fill="#ADD1B2" rx="11" ry="11" style="stroke:#A80036;stroke-width:1.0;"/><path d="M686.7656,349.875 Q686.9219,349.6563 687.1094,349.5469 Q687.2969,349.4375 687.5156,349.4375 Q687.8906,349.4375 688.125,349.6953 Q688.3594,349.9531 688.3594,350.5625 L688.3594,352.0156 Q688.3594,352.625 688.125,352.8906 Q687.8906,353.1563 687.5156,353.1563 Q687.1719,353.1563 686.9688,352.9531 Q686.7656,352.7656 686.6563,352.25 Q686.6094,351.8906 686.4219,351.7031 Q686.0938,351.3281 685.4844,351.1094 Q684.875,350.8906 684.25,350.8906 Q683.4844,350.8906 682.8516,351.2188 Q682.2188,351.5469 681.7266,352.2969 Q681.2344,353.0469 681.2344,354.0781 L681.2344,355.1719 Q681.2344,356.4063 682.125,357.2266 Q683.0156,358.0469 684.6094,358.0469 Q685.5469,358.0469 686.2031,357.7969 Q686.5938,357.6406 687.0156,357.2031 Q687.2813,356.9375 687.4297,356.8594 Q687.5781,356.7813 687.7813,356.7813 Q688.1094,356.7813 688.3672,357.0391 Q688.625,357.2969 688.625,357.6406 Q688.625,357.9844 688.2813,358.3906 Q687.7813,358.9688 686.9844,359.2969 Q685.9063,359.75 684.6094,359.75 Q683.0938,359.75 681.8906,359.125 Q680.9063,358.625 680.2188,357.5547 Q679.5313,356.4844 679.5313,355.2031 L679.5313,354.0469 Q679.5313,352.7188 680.1484,351.5703 Q680.7656,350.4219 681.8594,349.8047 Q682.9531,349.1875 684.1875,349.1875 Q684.9219,349.1875 685.5703,349.3516 Q686.2188,349.5156 686.7656,349.875 Z " fill="#000000"/><text fill="#000000" font-family="sans-serif" font-size="12" lengthAdjust="spacing" textLength="46" x="698" y="358.9102">Boolean</text><line style="stroke:#A80036;stroke-width:1.5;" x1="670" x2="746" y1="370" y2="370"/><line style="stroke:#A80036;stroke-width:1.5;" x1="670" x2="746" y1="378" y2="378"/><!--MD5=[9df70cf33be424c1b8543b3f439cae89]
class String--><rect fill="#FEFECE" filter="url(#f15renpp7danqo)" height="48" id="String" style="stroke:#A80036;stroke-width:1.5;" width="64" x="879" y="338"/><ellipse cx="894" cy="354" fill="#ADD1B2" rx="11" ry="11" style="stroke:#A80036;stroke-width:1.0;"/><path d="M896.7656,349.875 Q896.9219,349.6563 897.1094,349.5469 Q897.2969,349.4375 897.5156,349.4375 Q897.8906,349.4375 898.125,349.6953 Q898.3594,349.9531 898.3594,350.5625 L898.3594,352.0156 Q898.3594,352.625 898.125,352.8906 Q897.8906,353.1563 897.5156,353.1563 Q897.1719,353.1563 896.9688,352.9531 Q896.7656,352.7656 896.6563,352.25 Q896.6094,351.8906 896.4219,351.7031 Q896.0938,351.3281 895.4844,351.1094 Q894.875,350.8906 894.25,350.8906 Q893.4844,350.8906 892.8516,351.2188 Q892.2188,351.5469 891.7266,352.2969 Q891.2344,353.0469 891.2344,354.0781 L891.2344,355.1719 Q891.2344,356.4063 892.125,357.2266 Q893.0156,358.0469 894.6094,358.0469 Q895.5469,358.0469 896.2031,357.7969 Q896.5938,357.6406 897.0156,357.2031 Q897.2813,356.9375 897.4297,356.8594 Q897.5781,356.7813 897.7813,356.7813 Q898.1094,356.7813 898.3672,357.0391 Q898.625,357.2969 898.625,357.6406 Q898.625,357.9844 898.2813,358.3906 Q897.7813,358.9688 896.9844,359.2969 Q895.9063,359.75 894.6094,359.75 Q893.0938,359.75 891.8906,359.125 Q890.9063,358.625 890.2188,357.5547 Q889.5313,356.4844 889.5313,355.2031 L889.5313,354.0469 Q889.5313,352.7188 890.1484,351.5703 Q890.7656,350.4219 891.8594,349.8047 Q892.9531,349.1875 894.1875,349.1875 Q894.9219,349.1875 895.5703,349.3516 Q896.2188,349.5156 896.7656,349.875 Z " fill="#000000"/><text fill="#000000" font-family="sans-serif" font-size="12" lengthAdjust="spacing" textLength="32" x="908" y="358.9102">String</text><line style="stroke:#A80036;stroke-width:1.5;" x1="880" x2="942" y1="370" y2="370"/><line style="stroke:#A80036;stroke-width:1.5;" x1="880" x2="942" y1="378" y2="378"/><!--MD5=[ab65f1b894babecd782f1df810423109]
class TypeDTO--><rect fill="#FEFECE" filter="url(#f15renpp7danqo)" height="48" id="TypeDTO" style="stroke:#A80036;stroke-width:1.5;" width="83" x="1022.5" y="32.5"/><ellipse cx="1037.5" cy="48.5" fill="#ADD1B2" rx="11" ry="11" style="stroke:#A80036;stroke-width:1.0;"/><path d="M1040.2656,44.375 Q1040.4219,44.1563 1040.6094,44.0469 Q1040.7969,43.9375 1041.0156,43.9375 Q1041.3906,43.9375 1041.625,44.1953 Q1041.8594,44.4531 1041.8594,45.0625 L1041.8594,46.5156 Q1041.8594,47.125 1041.625,47.3906 Q1041.3906,47.6563 1041.0156,47.6563 Q1040.6719,47.6563 1040.4688,47.4531 Q1040.2656,47.2656 1040.1563,46.75 Q1040.1094,46.3906 1039.9219,46.2031 Q1039.5938,45.8281 1038.9844,45.6094 Q1038.375,45.3906 1037.75,45.3906 Q1036.9844,45.3906 1036.3516,45.7188 Q1035.7188,46.0469 1035.2266,46.7969 Q1034.7344,47.5469 1034.7344,48.5781 L1034.7344,49.6719 Q1034.7344,50.9063 1035.625,51.7266 Q1036.5156,52.5469 1038.1094,52.5469 Q1039.0469,52.5469 1039.7031,52.2969 Q1040.0938,52.1406 1040.5156,51.7031 Q1040.7813,51.4375 1040.9297,51.3594 Q1041.0781,51.2813 1041.2813,51.2813 Q1041.6094,51.2813 1041.8672,51.5391 Q1042.125,51.7969 1042.125,52.1406 Q1042.125,52.4844 1041.7813,52.8906 Q1041.2813,53.4688 1040.4844,53.7969 Q1039.4063,54.25 1038.1094,54.25 Q1036.5938,54.25 1035.3906,53.625 Q1034.4063,53.125 1033.7188,52.0547 Q1033.0313,50.9844 1033.0313,49.7031 L1033.0313,48.5469 Q1033.0313,47.2188 1033.6484,46.0703 Q1034.2656,44.9219 1035.3594,44.3047 Q1036.4531,43.6875 1037.6875,43.6875 Q1038.4219,43.6875 1039.0703,43.8516 Q1039.7188,44.0156 1040.2656,44.375 Z " fill="#000000"/><text fill="#000000" font-family="sans-serif" font-size="12" lengthAdjust="spacing" textLength="51" x="1051.5" y="53.4102">TypeDTO</text><line style="stroke:#A80036;stroke-width:1.5;" x1="1023.5" x2="1104.5" y1="64.5" y2="64.5"/><line style="stroke:#A80036;stroke-width:1.5;" x1="1023.5" x2="1104.5" y1="72.5" y2="72.5"/><!--MD5=[fe6b2754769bc87cf156126798433078]
class CommandWrapper--><rect fill="#FEFECE" filter="url(#f15renpp7danqo)" height="48" id="CommandWrapper" style="stroke:#A80036;stroke-width:1.5;" width="138" x="334" y="32.5"/><ellipse cx="349" cy="48.5" fill="#ADD1B2" rx="11" ry="11" style="stroke:#A80036;stroke-width:1.0;"/><path d="M351.7656,44.375 Q351.9219,44.1563 352.1094,44.0469 Q352.2969,43.9375 352.5156,43.9375 Q352.8906,43.9375 353.125,44.1953 Q353.3594,44.4531 353.3594,45.0625 L353.3594,46.5156 Q353.3594,47.125 353.125,47.3906 Q352.8906,47.6563 352.5156,47.6563 Q352.1719,47.6563 351.9688,47.4531 Q351.7656,47.2656 351.6563,46.75 Q351.6094,46.3906 351.4219,46.2031 Q351.0938,45.8281 350.4844,45.6094 Q349.875,45.3906 349.25,45.3906 Q348.4844,45.3906 347.8516,45.7188 Q347.2188,46.0469 346.7266,46.7969 Q346.2344,47.5469 346.2344,48.5781 L346.2344,49.6719 Q346.2344,50.9063 347.125,51.7266 Q348.0156,52.5469 349.6094,52.5469 Q350.5469,52.5469 351.2031,52.2969 Q351.5938,52.1406 352.0156,51.7031 Q352.2813,51.4375 352.4297,51.3594 Q352.5781,51.2813 352.7813,51.2813 Q353.1094,51.2813 353.3672,51.5391 Q353.625,51.7969 353.625,52.1406 Q353.625,52.4844 353.2813,52.8906 Q352.7813,53.4688 351.9844,53.7969 Q350.9063,54.25 349.6094,54.25 Q348.0938,54.25 346.8906,53.625 Q345.9063,53.125 345.2188,52.0547 Q344.5313,50.9844 344.5313,49.7031 L344.5313,48.5469 Q344.5313,47.2188 345.1484,46.0703 Q345.7656,44.9219 346.8594,44.3047 Q347.9531,43.6875 349.1875,43.6875 Q349.9219,43.6875 350.5703,43.8516 Q351.2188,44.0156 351.7656,44.375 Z " fill="#000000"/><text fill="#000000" font-family="sans-serif" font-size="12" lengthAdjust="spacing" textLength="106" x="363" y="53.4102">CommandWrapper</text><line style="stroke:#A80036;stroke-width:1.5;" x1="335" x2="471" y1="64.5" y2="64.5"/><line style="stroke:#A80036;stroke-width:1.5;" x1="335" x2="471" y1="72.5" y2="72.5"/><!--MD5=[9714f00bbee80ca7b140c29ae529c8eb]
reverse link BaseDTO to CommandDTO--><path codeLine="27" d="M389.81,266.13 C391.36,289.84 393.22,318.3 394.49,337.83 " fill="none" id="BaseDTO-backto-CommandDTO" style="stroke:#A80036;stroke-width:1.0;"/><polygon fill="none" points="382.82,266.51,388.51,246.1,396.79,265.6,382.82,266.51" style="stroke:#A80036;stroke-width:1.0;"/><!--MD5=[748fc960db8404b389e3e2dd41b16478]
link CommandDTO to Guid--><path codeLine="28" d="M443.74,386 C485.46,406.1 545.01,434.8 582.04,452.64 " fill="none" id="CommandDTO-to-Guid" style="stroke:#A80036;stroke-width:1.0;"/><polygon fill="#A80036" points="586.89,454.97,580.5227,447.4562,582.3869,452.7971,577.046,454.6612,586.89,454.97" style="stroke:#A80036;stroke-width:1.0;"/><text fill="#000000" font-family="sans-serif" font-size="13" lengthAdjust="spacing" textLength="38" x="540.9218" y="448.6799">TypeId</text><!--MD5=[7643b4e9f5d3ec841d55a0a29d6a7102]
link CommandDTO to Boolean--><path codeLine="29" d="M437.9963,331.5156 C437.9963,331.5156 471.9,312.72 489.5,308 C547.45,292.47 566.95,291.01 624.5,308 C640.15,312.62 655.63,321.19 668.93,330.17 " fill="none" id="CommandDTO-Boolean" style="stroke:#A80036;stroke-width:1.0;"/><polygon fill="#A80036" points="679.54,337.72,674.5316,329.2397,675.468,334.8185,669.8892,335.7549,679.54,337.72" style="stroke:#A80036;stroke-width:1.0;"/><line style="stroke:#A80036;stroke-width:1.0;" x1="675.468" x2="668.95" y1="334.8185" y2="330.185"/><polygon fill="#FFFFFF" points="427.88,337.97,435.0896,338.1149,437.9963,331.5156,430.7867,331.3707,427.88,337.97" style="stroke:#A80036;stroke-width:1.0;"/><text fill="#000000" font-family="sans-serif" font-size="13" lengthAdjust="spacing" textLength="58" x="606.8159" y="326.9884">Response</text><!--MD5=[4578dd9431dc4b19b962c6ee8c717b6c]
link CommandDTO to List`1--><path codeLine="30" d="M466.14,362 C466.14,362 472.86,362 475.69,362 " fill="none" id="CommandDTO-List`1" style="stroke:#A80036;stroke-width:1.0;"/><polygon fill="#A80036" points="488.95,362,479.95,358,483.95,362,479.95,366,488.95,362" style="stroke:#A80036;stroke-width:1.0;"/><line style="stroke:#A80036;stroke-width:1.0;" x1="483.95" x2="475.95" y1="362" y2="362"/><polygon fill="#FFFFFF" points="454.14,362,460.14,366,466.14,362,460.14,358,454.14,362" style="stroke:#A80036;stroke-width:1.0;"/><text fill="#000000" font-family="sans-serif" font-size="13" lengthAdjust="spacing" textLength="154" x="529.4927" y="327.0491">Arguments&lt;PropertyDTO&gt;</text><!--MD5=[c9e3b19b1dc5b82c7a47f46230fcfb43]
link ParamDTO to Guid--><path codeLine="31" d="M894.16,246.28 C868.9,280.07 818.42,343.3 765,386 C728.99,414.78 681.68,439.25 650.13,454.01 " fill="none" id="ParamDTO-to-Guid" style="stroke:#A80036;stroke-width:1.0;"/><polygon fill="#A80036" points="645.2,456.29,655.0478,456.1444,649.7385,454.192,651.691,448.8828,645.2,456.29" style="stroke:#A80036;stroke-width:1.0;"/><text fill="#000000" font-family="sans-serif" font-size="13" lengthAdjust="spacing" textLength="38" x="652.8819" y="450.3531">TypeId</text><!--MD5=[44089499b489eea8db13d29875ae9aa9]
link ParamDTO to String--><path codeLine="32" d="M901.19,246.1 C897.52,269.98 897.28,307.29 900.49,332.87 " fill="none" id="ParamDTO-to-String" style="stroke:#A80036;stroke-width:1.0;"/><polygon fill="#A80036" points="901.18,337.83,903.9091,328.3668,900.4949,332.8772,895.9845,329.463,901.18,337.83" style="stroke:#A80036;stroke-width:1.0;"/><text fill="#000000" font-family="sans-serif" font-size="13" lengthAdjust="spacing" textLength="34" x="860.3074" y="327.1266">Name</text><!--MD5=[44089499b489eea8db13d29875ae9aa9]
link ParamDTO to String--><path codeLine="33" d="M921.38,246.1 C925.28,269.98 925.52,307.29 922.12,332.87 " fill="none" id="ParamDTO-to-String-1" style="stroke:#A80036;stroke-width:1.0;"/><polygon fill="#A80036" points="921.4,337.83,926.6461,329.4946,922.1151,332.8814,918.7283,328.3504,921.4,337.83" style="stroke:#A80036;stroke-width:1.0;"/><text fill="#000000" font-family="sans-serif" font-size="13" lengthAdjust="spacing" textLength="28" x="927.6525" y="327.1266">Type</text><!--MD5=[e1f4ca4f791e2b2a82d1f845c1c82932]
reverse link TypeDTO to CommandTypeDTO--><path codeLine="34" d="M1064,100.71 C1064,131.82 1064,172.59 1064,197.77 " fill="none" id="TypeDTO-backto-CommandTypeDTO" style="stroke:#A80036;stroke-width:1.0;"/><polygon fill="none" points="1057,100.58,1064,80.58,1071,100.58,1057,100.58" style="stroke:#A80036;stroke-width:1.0;"/><!--MD5=[a79d29c9ff7082447aa4f6af0486db68]
link CommandTypeDTO to Guid--><path codeLine="35" d="M1055.91,246.21 C1042.2,281.99 1010.93,350.23 961,386 C864.12,455.41 716.64,467.31 650.36,468.99 " fill="none" id="CommandTypeDTO-to-Guid" style="stroke:#A80036;stroke-width:1.0;"/><polygon fill="#A80036" points="645.35,469.1,654.4391,472.8933,650.3487,468.9857,654.2562,464.8954,645.35,469.1" style="stroke:#A80036;stroke-width:1.0;"/><text fill="#000000" font-family="sans-serif" font-size="13" lengthAdjust="spacing" textLength="38" x="653.0558" y="483.7547">TypeId</text><!--MD5=[f083892878dead250d5b63d19ef263f7]
link CommandTypeDTO to String--><path codeLine="36" d="M1028.58,246.1 C997.93,270.38 955.44,308.54 930.43,334.14 " fill="none" id="CommandTypeDTO-to-String" style="stroke:#A80036;stroke-width:1.0;"/><polygon fill="#A80036" points="926.87,337.83,936.0042,334.1467,930.3481,334.2379,930.2568,328.5818,926.87,337.83" style="stroke:#A80036;stroke-width:1.0;"/><text fill="#000000" font-family="sans-serif" font-size="13" lengthAdjust="spacing" textLength="34" x="951.1116" y="339.5294">Name</text><!--MD5=[f083892878dead250d5b63d19ef263f7]
link CommandTypeDTO to String--><path codeLine="37" d="M1048.77,246.1 C1024.75,271.51 979.74,312.11 947.34,337.63 " fill="none" id="CommandTypeDTO-to-String-1" style="stroke:#A80036;stroke-width:1.0;"/><polygon fill="#A80036" points="943.06,340.97,952.6128,338.5732,946.9975,337.8885,947.6823,332.2732,943.06,340.97" style="stroke:#A80036;stroke-width:1.0;"/><text fill="#000000" font-family="sans-serif" font-size="13" lengthAdjust="spacing" textLength="37" x="951.118" y="333.8665">Result</text><!--MD5=[b9350e40dd7f969cd3b72f068cd337d7]
link CommandTypeDTO to List`1--><path codeLine="38" d="M1033.35,246.17 C1017.09,257.39 996.32,270.11 976,278 C973.6,278.93 680.27,332.73 568.54,353.21 " fill="none" id="CommandTypeDTO-to-List`1" style="stroke:#A80036;stroke-width:1.0;"/><polygon fill="#A80036" points="563.36,354.16,572.9386,356.4513,568.2761,353.248,571.4794,348.5855,563.36,354.16" style="stroke:#A80036;stroke-width:1.0;"/><text fill="#000000" font-family="sans-serif" font-size="13" lengthAdjust="spacing" textLength="147" x="512.5606" y="368.0112">Parameters&lt;ParamDTO&gt;</text><!--MD5=[c8480226a8198f08e8457046de03728d]
reverse link CommandWrapper to GetCommandTypesWrapper--><path codeLine="39" d="M351.67,91.76 C319.49,113.23 277.28,141.4 240.48,165.96 " fill="none" id="CommandWrapper-backto-GetCommandTypesWrapper" style="stroke:#A80036;stroke-width:1.0;"/><polygon fill="none" points="347.9,85.86,368.42,80.58,355.67,97.5,347.9,85.86" style="stroke:#A80036;stroke-width:1.0;"/><!--MD5=[3686b2b3cc1b0ad9f2f6eea67cdeb87f]
link GetCommandTypesWrapper to Guid--><path codeLine="40" d="M200.24,278.37 C230.1,313.91 273.04,358.42 320,386 C406,436.5 524.16,457.5 581.71,465.16 " fill="none" id="GetCommandTypesWrapper-to-Guid" style="stroke:#A80036;stroke-width:1.0;"/><polygon fill="#A80036" points="586.75,465.82,578.3392,460.6958,581.7915,465.177,577.3103,468.6293,586.75,465.82" style="stroke:#A80036;stroke-width:1.0;"/><text fill="#000000" font-family="sans-serif" font-size="13" lengthAdjust="spacing" textLength="38" x="541.0602" y="479.9519">TypeId</text><!--MD5=[5a84e33169372f8cc9c1dd6cba28fc78]
link GetCommandTypesWrapper to CommandDTO--><path codeLine="41" d="M253.09,278.14 C287.26,297.95 324.17,319.35 351.92,335.44 " fill="none" id="GetCommandTypesWrapper-to-CommandDTO" style="stroke:#A80036;stroke-width:1.0;"/><polygon fill="#A80036" points="356.29,337.97,350.497,330.005,351.9603,335.4693,346.4959,336.9326,356.29,337.97" style="stroke:#A80036;stroke-width:1.0;"/><text fill="#000000" font-family="sans-serif" font-size="13" lengthAdjust="spacing" textLength="27" x="315.6549" y="327.3025">Cmd</text><!--MD5=[125737561bd39c69013ccf38734ca5b5]
link GetCommandTypesWrapper to List`1--><path codeLine="42" d="M309.13,276.56 C360.98,295.41 419.23,317.12 472,338 C475.95,339.56 480.05,341.23 484.13,342.92 " fill="none" id="GetCommandTypesWrapper-to-List`1" style="stroke:#A80036;stroke-width:1.0;"/><polygon fill="#A80036" points="488.92,344.91,482.1586,337.7487,484.3067,342.9819,479.0736,345.13,488.92,344.91" style="stroke:#A80036;stroke-width:1.0;"/><text fill="#000000" font-family="sans-serif" font-size="13" lengthAdjust="spacing" textLength="166" x="516.8773" y="327.0824">Result&lt;CommandTypeDTO&gt;</text><!--MD5=[1dcbafcc1a6e0f16ed85ca39a22f8e0c]
reverse link CommandWrapper to SampleCommandWrapper--><path codeLine="43" d="M454.12,91.76 C486.17,113.23 528.21,141.4 564.86,165.96 " fill="none" id="CommandWrapper-backto-SampleCommandWrapper" style="stroke:#A80036;stroke-width:1.0;"/><polygon fill="none" points="450.16,97.53,437.44,80.58,457.95,85.9,450.16,97.53" style="stroke:#A80036;stroke-width:1.0;"/><!--MD5=[6158de49482057db5420d29be73619ed]
link SampleCommandWrapper to Guid--><path codeLine="44" d="M640.04,278.21 C633.69,328.64 624.55,401.19 619.57,440.71 " fill="none" id="SampleCommandWrapper-to-Guid" style="stroke:#A80036;stroke-width:1.0;"/><polygon fill="#A80036" points="618.92,445.83,623.9964,437.3902,619.5349,440.868,616.0572,436.4064,618.92,445.83" style="stroke:#A80036;stroke-width:1.0;"/><text fill="#000000" font-family="sans-serif" font-size="13" lengthAdjust="spacing" textLength="38" x="576.7995" y="435.1266">TypeId</text><!--MD5=[ec91f5bc263fb467e5451ee323227901]
link SampleCommandWrapper to CommandDTO--><path codeLine="45" d="M546.72,278.14 C510.68,297.95 471.76,319.35 442.49,335.44 " fill="none" id="SampleCommandWrapper-to-CommandDTO" style="stroke:#A80036;stroke-width:1.0;"/><polygon fill="#A80036" points="437.88,337.97,447.6954,337.1585,442.2662,335.5697,443.8549,330.1406,437.88,337.97" style="stroke:#A80036;stroke-width:1.0;"/><text fill="#000000" font-family="sans-serif" font-size="13" lengthAdjust="spacing" textLength="27" x="418.1524" y="327.3025">Cmd</text><!--MD5=[2bc87cbe907fab5bf33e2f1168f28590]
link SampleCommandWrapper to String--><path codeLine="46" d="M752.48,278.14 C795.6,300.68 842.66,325.28 874.21,341.77 " fill="none" id="SampleCommandWrapper-to-String" style="stroke:#A80036;stroke-width:1.0;"/><polygon fill="#A80036" points="878.75,344.14,872.6159,336.4346,874.3156,341.8301,868.9201,343.5297,878.75,344.14" style="stroke:#A80036;stroke-width:1.0;"/><text fill="#000000" font-family="sans-serif" font-size="13" lengthAdjust="spacing" textLength="50" x="821.057" y="356.3338">FirstOne</text><!--MD5=[261c833e76cba9e885fc18e8a9d80f94]
link SampleCommandWrapper to Boolean--><path codeLine="47" d="M671.46,278.33 C679.75,297.09 688.66,317.25 695.61,332.96 " fill="none" id="SampleCommandWrapper-to-Boolean" style="stroke:#A80036;stroke-width:1.0;"/><polygon fill="#A80036" points="697.7,337.69,697.7057,327.8411,695.672,333.1198,690.3933,331.086,697.7,337.69" style="stroke:#A80036;stroke-width:1.0;"/><text fill="#000000" font-family="sans-serif" font-size="13" lengthAdjust="spacing" textLength="68" x="703.7731" y="326.9507">SecondOne</text><!--MD5=[77132368d75b5a58ff26f18f9d57a00c]
@startuml
class CommandDTO {
}
class ParamDTO {
}
class CommandTypeDTO {
}
class GetCommandTypesWrapper <<partial>> {
    + GetCommandTypesWrapper(dto:CommandDTO)
    + {static} IsForMe(dto:CommandDTO) : bool
    + {static} ExecuteCommand(dto:CommandDTO) : CommandDTO
    + <<partial>> GetCommandTypes() : List<CommandTypeDTO>
}
class SampleCommandWrapper <<partial>> {
    + SampleCommandWrapper(dto:CommandDTO)
    + {static} IsForMe(dto:CommandDTO) : bool
    + {static} ExecuteCommand(dto:CommandDTO) : CommandDTO
    + <<partial>> SampleCommand(firstOne:String, secondOne:Boolean) : void
}
class CommandTypes <<static>> <<partial>> {
    + {static} Dispatch(dto:CommandDTO) : CommandDTO
}
class CommandTypes <<static>> <<partial>> {
    + {static} GetTypes(commandTypes:List<CommandTypeDTO>) : void
}
class "List`1"<T> {
}
BaseDTO <|- - CommandDTO
CommandDTO - -> "TypeId" Guid
CommandDTO o-> "Response" Boolean
CommandDTO o-> "Arguments<PropertyDTO>" "List`1"
ParamDTO - -> "TypeId" Guid
ParamDTO - -> "Name" String
ParamDTO - -> "Type" String
TypeDTO <|- - CommandTypeDTO
CommandTypeDTO - -> "TypeId" Guid
CommandTypeDTO - -> "Name" String
CommandTypeDTO - -> "Result" String
CommandTypeDTO - -> "Parameters<ParamDTO>" "List`1"
CommandWrapper <|- - GetCommandTypesWrapper
GetCommandTypesWrapper - -> "TypeId" Guid
GetCommandTypesWrapper - -> "Cmd" CommandDTO
GetCommandTypesWrapper - -> "Result<CommandTypeDTO>" "List`1"
CommandWrapper <|- - SampleCommandWrapper
SampleCommandWrapper - -> "TypeId" Guid
SampleCommandWrapper - -> "Cmd" CommandDTO
SampleCommandWrapper - -> "FirstOne" String
SampleCommandWrapper - -> "SecondOne" Boolean
@enduml

PlantUML version 1.2021.10(Mon Aug 30 15:43:48 CEST 2021)
(GPL source distribution)
Java Runtime: Java(TM) SE Runtime Environment
JVM: Java HotSpot(TM) Client VM
Default Encoding: Cp1252
Language: de
Country: CH
--></g></svg>