<?xml version="1.0" encoding="UTF-8" standalone="no"?><svg xmlns="http://www.w3.org/2000/svg" xmlns:xlink="http://www.w3.org/1999/xlink" contentScriptType="application/ecmascript" contentStyleType="text/css" height="508px" preserveAspectRatio="none" style="width:1336px;height:508px;background:#FFFFFF;" version="1.1" viewBox="0 0 1336 508" width="1336px" zoomAndPan="magnify"><defs><filter height="300%" id="f1f2vkzu0xanpb" width="300%" x="-1" y="-1"><feGaussianBlur result="blurOut" stdDeviation="2.0"/><feColorMatrix in="blurOut" result="blurOut2" type="matrix" values="0 0 0 0 0 0 0 0 0 0 0 0 0 0 0 0 0 0 .4 0"/><feOffset dx="4.0" dy="4.0" in="blurOut2" result="blurOut3"/><feBlend in="SourceGraphic" in2="blurOut3" mode="normal"/></filter></defs><g><!--MD5=[f5d54f60ec6d089d1cb017027d5a65a8]
class CommandDTO--><rect codeLine="1" fill="#FEFECE" filter="url(#f1f2vkzu0xanpb)" height="48" id="CommandDTO" style="stroke:#A80036;stroke-width:1.5;" width="116" x="260" y="338"/><ellipse cx="275" cy="354" fill="#ADD1B2" rx="11" ry="11" style="stroke:#A80036;stroke-width:1.0;"/><path d="M277.7656,349.875 Q277.9219,349.6563 278.1094,349.5469 Q278.2969,349.4375 278.5156,349.4375 Q278.8906,349.4375 279.125,349.6953 Q279.3594,349.9531 279.3594,350.5625 L279.3594,352.0156 Q279.3594,352.625 279.125,352.8906 Q278.8906,353.1563 278.5156,353.1563 Q278.1719,353.1563 277.9688,352.9531 Q277.7656,352.7656 277.6563,352.25 Q277.6094,351.8906 277.4219,351.7031 Q277.0938,351.3281 276.4844,351.1094 Q275.875,350.8906 275.25,350.8906 Q274.4844,350.8906 273.8516,351.2188 Q273.2188,351.5469 272.7266,352.2969 Q272.2344,353.0469 272.2344,354.0781 L272.2344,355.1719 Q272.2344,356.4063 273.125,357.2266 Q274.0156,358.0469 275.6094,358.0469 Q276.5469,358.0469 277.2031,357.7969 Q277.5938,357.6406 278.0156,357.2031 Q278.2813,356.9375 278.4297,356.8594 Q278.5781,356.7813 278.7813,356.7813 Q279.1094,356.7813 279.3672,357.0391 Q279.625,357.2969 279.625,357.6406 Q279.625,357.9844 279.2813,358.3906 Q278.7813,358.9688 277.9844,359.2969 Q276.9063,359.75 275.6094,359.75 Q274.0938,359.75 272.8906,359.125 Q271.9063,358.625 271.2188,357.5547 Q270.5313,356.4844 270.5313,355.2031 L270.5313,354.0469 Q270.5313,352.7188 271.1484,351.5703 Q271.7656,350.4219 272.8594,349.8047 Q273.9531,349.1875 275.1875,349.1875 Q275.9219,349.1875 276.5703,349.3516 Q277.2188,349.5156 277.7656,349.875 Z " fill="#000000"/><text fill="#000000" font-family="sans-serif" font-size="12" lengthAdjust="spacing" textLength="84" x="289" y="358.9102">CommandDTO</text><line style="stroke:#A80036;stroke-width:1.5;" x1="261" x2="375" y1="370" y2="370"/><line style="stroke:#A80036;stroke-width:1.5;" x1="261" x2="375" y1="378" y2="378"/><!--MD5=[c16293fdc2a349471a916198a6de1464]
class ParamDTO--><rect codeLine="3" fill="#FEFECE" filter="url(#f1f2vkzu0xanpb)" height="48" id="ParamDTO" style="stroke:#A80036;stroke-width:1.5;" width="94" x="1041" y="198"/><ellipse cx="1056" cy="214" fill="#ADD1B2" rx="11" ry="11" style="stroke:#A80036;stroke-width:1.0;"/><path d="M1058.7656,209.875 Q1058.9219,209.6563 1059.1094,209.5469 Q1059.2969,209.4375 1059.5156,209.4375 Q1059.8906,209.4375 1060.125,209.6953 Q1060.3594,209.9531 1060.3594,210.5625 L1060.3594,212.0156 Q1060.3594,212.625 1060.125,212.8906 Q1059.8906,213.1563 1059.5156,213.1563 Q1059.1719,213.1563 1058.9688,212.9531 Q1058.7656,212.7656 1058.6563,212.25 Q1058.6094,211.8906 1058.4219,211.7031 Q1058.0938,211.3281 1057.4844,211.1094 Q1056.875,210.8906 1056.25,210.8906 Q1055.4844,210.8906 1054.8516,211.2188 Q1054.2188,211.5469 1053.7266,212.2969 Q1053.2344,213.0469 1053.2344,214.0781 L1053.2344,215.1719 Q1053.2344,216.4063 1054.125,217.2266 Q1055.0156,218.0469 1056.6094,218.0469 Q1057.5469,218.0469 1058.2031,217.7969 Q1058.5938,217.6406 1059.0156,217.2031 Q1059.2813,216.9375 1059.4297,216.8594 Q1059.5781,216.7813 1059.7813,216.7813 Q1060.1094,216.7813 1060.3672,217.0391 Q1060.625,217.2969 1060.625,217.6406 Q1060.625,217.9844 1060.2813,218.3906 Q1059.7813,218.9688 1058.9844,219.2969 Q1057.9063,219.75 1056.6094,219.75 Q1055.0938,219.75 1053.8906,219.125 Q1052.9063,218.625 1052.2188,217.5547 Q1051.5313,216.4844 1051.5313,215.2031 L1051.5313,214.0469 Q1051.5313,212.7188 1052.1484,211.5703 Q1052.7656,210.4219 1053.8594,209.8047 Q1054.9531,209.1875 1056.1875,209.1875 Q1056.9219,209.1875 1057.5703,209.3516 Q1058.2188,209.5156 1058.7656,209.875 Z " fill="#000000"/><text fill="#000000" font-family="sans-serif" font-size="12" lengthAdjust="spacing" textLength="62" x="1070" y="218.9102">ParamDTO</text><line style="stroke:#A80036;stroke-width:1.5;" x1="1042" x2="1134" y1="230" y2="230"/><line style="stroke:#A80036;stroke-width:1.5;" x1="1042" x2="1134" y1="238" y2="238"/><!--MD5=[4c1731f98dfecb78a08a63fd20d14398]
class CommandTypeDTO--><rect codeLine="5" fill="#FEFECE" filter="url(#f1f2vkzu0xanpb)" height="48" id="CommandTypeDTO" style="stroke:#A80036;stroke-width:1.5;" width="142" x="864" y="198"/><ellipse cx="879" cy="214" fill="#ADD1B2" rx="11" ry="11" style="stroke:#A80036;stroke-width:1.0;"/><path d="M881.7656,209.875 Q881.9219,209.6563 882.1094,209.5469 Q882.2969,209.4375 882.5156,209.4375 Q882.8906,209.4375 883.125,209.6953 Q883.3594,209.9531 883.3594,210.5625 L883.3594,212.0156 Q883.3594,212.625 883.125,212.8906 Q882.8906,213.1563 882.5156,213.1563 Q882.1719,213.1563 881.9688,212.9531 Q881.7656,212.7656 881.6563,212.25 Q881.6094,211.8906 881.4219,211.7031 Q881.0938,211.3281 880.4844,211.1094 Q879.875,210.8906 879.25,210.8906 Q878.4844,210.8906 877.8516,211.2188 Q877.2188,211.5469 876.7266,212.2969 Q876.2344,213.0469 876.2344,214.0781 L876.2344,215.1719 Q876.2344,216.4063 877.125,217.2266 Q878.0156,218.0469 879.6094,218.0469 Q880.5469,218.0469 881.2031,217.7969 Q881.5938,217.6406 882.0156,217.2031 Q882.2813,216.9375 882.4297,216.8594 Q882.5781,216.7813 882.7813,216.7813 Q883.1094,216.7813 883.3672,217.0391 Q883.625,217.2969 883.625,217.6406 Q883.625,217.9844 883.2813,218.3906 Q882.7813,218.9688 881.9844,219.2969 Q880.9063,219.75 879.6094,219.75 Q878.0938,219.75 876.8906,219.125 Q875.9063,218.625 875.2188,217.5547 Q874.5313,216.4844 874.5313,215.2031 L874.5313,214.0469 Q874.5313,212.7188 875.1484,211.5703 Q875.7656,210.4219 876.8594,209.8047 Q877.9531,209.1875 879.1875,209.1875 Q879.9219,209.1875 880.5703,209.3516 Q881.2188,209.5156 881.7656,209.875 Z " fill="#000000"/><text fill="#000000" font-family="sans-serif" font-size="12" lengthAdjust="spacing" textLength="110" x="893" y="218.9102">CommandTypeDTO</text><line style="stroke:#A80036;stroke-width:1.5;" x1="865" x2="1005" y1="230" y2="230"/><line style="stroke:#A80036;stroke-width:1.5;" x1="865" x2="1005" y1="238" y2="238"/><!--MD5=[91d68edee7398364e4f5fe67c8765a48]
class GetCommandTypesWrapper--><rect codeLine="7" fill="#FEFECE" filter="url(#f1f2vkzu0xanpb)" height="111.5313" id="GetCommandTypesWrapper" style="stroke:#A80036;stroke-width:1.5;" width="302" x="128" y="166"/><ellipse cx="195.75" cy="186.0938" fill="#ADD1B2" rx="11" ry="11" style="stroke:#A80036;stroke-width:1.0;"/><path d="M198.5156,181.9688 Q198.6719,181.75 198.8594,181.6406 Q199.0469,181.5313 199.2656,181.5313 Q199.6406,181.5313 199.875,181.7891 Q200.1094,182.0469 200.1094,182.6563 L200.1094,184.1094 Q200.1094,184.7188 199.875,184.9844 Q199.6406,185.25 199.2656,185.25 Q198.9219,185.25 198.7188,185.0469 Q198.5156,184.8594 198.4063,184.3438 Q198.3594,183.9844 198.1719,183.7969 Q197.8438,183.4219 197.2344,183.2031 Q196.625,182.9844 196,182.9844 Q195.2344,182.9844 194.6016,183.3125 Q193.9688,183.6406 193.4766,184.3906 Q192.9844,185.1406 192.9844,186.1719 L192.9844,187.2656 Q192.9844,188.5 193.875,189.3203 Q194.7656,190.1406 196.3594,190.1406 Q197.2969,190.1406 197.9531,189.8906 Q198.3438,189.7344 198.7656,189.2969 Q199.0313,189.0313 199.1797,188.9531 Q199.3281,188.875 199.5313,188.875 Q199.8594,188.875 200.1172,189.1328 Q200.375,189.3906 200.375,189.7344 Q200.375,190.0781 200.0313,190.4844 Q199.5313,191.0625 198.7344,191.3906 Q197.6563,191.8438 196.3594,191.8438 Q194.8438,191.8438 193.6406,191.2188 Q192.6563,190.7188 191.9688,189.6484 Q191.2813,188.5781 191.2813,187.2969 L191.2813,186.1406 Q191.2813,184.8125 191.8984,183.6641 Q192.5156,182.5156 193.6094,181.8984 Q194.7031,181.2813 195.9375,181.2813 Q196.6719,181.2813 197.3203,181.4453 Q197.9688,181.6094 198.5156,181.9688 Z " fill="#000000"/><text fill="#000000" font-family="sans-serif" font-size="12" font-style="italic" lengthAdjust="spacing" textLength="48" x="271.25" y="183.457">«partial»</text><text fill="#000000" font-family="sans-serif" font-size="12" lengthAdjust="spacing" textLength="158" x="216.25" y="198.5508">GetCommandTypesWrapper</text><line style="stroke:#A80036;stroke-width:1.5;" x1="129" x2="429" y1="206.1875" y2="206.1875"/><line style="stroke:#A80036;stroke-width:1.5;" x1="129" x2="429" y1="214.1875" y2="214.1875"/><ellipse cx="139" cy="225.1875" fill="#84BE84" rx="3" ry="3" style="stroke:#038048;stroke-width:1.0;"/><text fill="#000000" font-family="sans-serif" font-size="11" lengthAdjust="spacing" textLength="230" x="148" y="229.6064">GetCommandTypesWrapper(dto:CommandDTO)</text><ellipse cx="139" cy="239.0234" fill="#84BE84" rx="3" ry="3" style="stroke:#038048;stroke-width:1.0;"/><text fill="#000000" font-family="sans-serif" font-size="11" lengthAdjust="spacing" text-decoration="underline" textLength="161" x="148" y="243.4424">IsForMe(dto:CommandDTO) : bool</text><ellipse cx="139" cy="252.8594" fill="#84BE84" rx="3" ry="3" style="stroke:#038048;stroke-width:1.0;"/><text fill="#000000" font-family="sans-serif" font-size="11" lengthAdjust="spacing" text-decoration="underline" textLength="257" x="148" y="257.2783">ExecuteCommand(dto:CommandDTO) : CommandDTO</text><ellipse cx="139" cy="266.6953" fill="#84BE84" rx="3" ry="3" style="stroke:#038048;stroke-width:1.0;"/><text fill="#000000" font-family="sans-serif" font-size="11" lengthAdjust="spacing" textLength="276" x="148" y="271.1143">«partial» GetCommandTypes() : List&lt;CommandTypeDTO&gt;</text><!--MD5=[2f720059ec7752b7edd24ab483589f66]
class SampleCommandWrapper--><rect codeLine="13" fill="#FEFECE" filter="url(#f1f2vkzu0xanpb)" height="111.5313" id="SampleCommandWrapper" style="stroke:#A80036;stroke-width:1.5;" width="363" x="465.5" y="166"/><ellipse cx="568.25" cy="186.0938" fill="#ADD1B2" rx="11" ry="11" style="stroke:#A80036;stroke-width:1.0;"/><path d="M571.0156,181.9688 Q571.1719,181.75 571.3594,181.6406 Q571.5469,181.5313 571.7656,181.5313 Q572.1406,181.5313 572.375,181.7891 Q572.6094,182.0469 572.6094,182.6563 L572.6094,184.1094 Q572.6094,184.7188 572.375,184.9844 Q572.1406,185.25 571.7656,185.25 Q571.4219,185.25 571.2188,185.0469 Q571.0156,184.8594 570.9063,184.3438 Q570.8594,183.9844 570.6719,183.7969 Q570.3438,183.4219 569.7344,183.2031 Q569.125,182.9844 568.5,182.9844 Q567.7344,182.9844 567.1016,183.3125 Q566.4688,183.6406 565.9766,184.3906 Q565.4844,185.1406 565.4844,186.1719 L565.4844,187.2656 Q565.4844,188.5 566.375,189.3203 Q567.2656,190.1406 568.8594,190.1406 Q569.7969,190.1406 570.4531,189.8906 Q570.8438,189.7344 571.2656,189.2969 Q571.5313,189.0313 571.6797,188.9531 Q571.8281,188.875 572.0313,188.875 Q572.3594,188.875 572.6172,189.1328 Q572.875,189.3906 572.875,189.7344 Q572.875,190.0781 572.5313,190.4844 Q572.0313,191.0625 571.2344,191.3906 Q570.1563,191.8438 568.8594,191.8438 Q567.3438,191.8438 566.1406,191.2188 Q565.1563,190.7188 564.4688,189.6484 Q563.7813,188.5781 563.7813,187.2969 L563.7813,186.1406 Q563.7813,184.8125 564.3984,183.6641 Q565.0156,182.5156 566.1094,181.8984 Q567.2031,181.2813 568.4375,181.2813 Q569.1719,181.2813 569.8203,181.4453 Q570.4688,181.6094 571.0156,181.9688 Z " fill="#000000"/><text fill="#000000" font-family="sans-serif" font-size="12" font-style="italic" lengthAdjust="spacing" textLength="48" x="639.25" y="183.457">«partial»</text><text fill="#000000" font-family="sans-serif" font-size="12" lengthAdjust="spacing" textLength="149" x="588.75" y="198.5508">SampleCommandWrapper</text><line style="stroke:#A80036;stroke-width:1.5;" x1="466.5" x2="827.5" y1="206.1875" y2="206.1875"/><line style="stroke:#A80036;stroke-width:1.5;" x1="466.5" x2="827.5" y1="214.1875" y2="214.1875"/><ellipse cx="476.5" cy="225.1875" fill="#84BE84" rx="3" ry="3" style="stroke:#038048;stroke-width:1.0;"/><text fill="#000000" font-family="sans-serif" font-size="11" lengthAdjust="spacing" textLength="218" x="485.5" y="229.6064">SampleCommandWrapper(dto:CommandDTO)</text><ellipse cx="476.5" cy="239.0234" fill="#84BE84" rx="3" ry="3" style="stroke:#038048;stroke-width:1.0;"/><text fill="#000000" font-family="sans-serif" font-size="11" lengthAdjust="spacing" text-decoration="underline" textLength="161" x="485.5" y="243.4424">IsForMe(dto:CommandDTO) : bool</text><ellipse cx="476.5" cy="252.8594" fill="#84BE84" rx="3" ry="3" style="stroke:#038048;stroke-width:1.0;"/><text fill="#000000" font-family="sans-serif" font-size="11" lengthAdjust="spacing" text-decoration="underline" textLength="257" x="485.5" y="257.2783">ExecuteCommand(dto:CommandDTO) : CommandDTO</text><ellipse cx="476.5" cy="266.6953" fill="#84BE84" rx="3" ry="3" style="stroke:#038048;stroke-width:1.0;"/><text fill="#000000" font-family="sans-serif" font-size="11" lengthAdjust="spacing" textLength="337" x="485.5" y="271.1143">«partial» SampleCommand(firstOne:String, secondOne:Boolean) : void</text><!--MD5=[b3bff2e3418cbaf7e3eb76e79b8e0a56]
class CommandTypes--><rect codeLine="22" fill="#FEFECE" filter="url(#f1f2vkzu0xanpb)" height="98.9531" id="CommandTypes" style="stroke:#A80036;stroke-width:1.5;" width="310" x="1012" y="7"/><ellipse cx="1116.75" cy="34.6406" fill="#ADD1B2" rx="11" ry="11" style="stroke:#A80036;stroke-width:1.0;"/><path d="M1119.5156,30.5156 Q1119.6719,30.2969 1119.8594,30.1875 Q1120.0469,30.0781 1120.2656,30.0781 Q1120.6406,30.0781 1120.875,30.3359 Q1121.1094,30.5938 1121.1094,31.2031 L1121.1094,32.6563 Q1121.1094,33.2656 1120.875,33.5313 Q1120.6406,33.7969 1120.2656,33.7969 Q1119.9219,33.7969 1119.7188,33.5938 Q1119.5156,33.4063 1119.4063,32.8906 Q1119.3594,32.5313 1119.1719,32.3438 Q1118.8438,31.9688 1118.2344,31.75 Q1117.625,31.5313 1117,31.5313 Q1116.2344,31.5313 1115.6016,31.8594 Q1114.9688,32.1875 1114.4766,32.9375 Q1113.9844,33.6875 1113.9844,34.7188 L1113.9844,35.8125 Q1113.9844,37.0469 1114.875,37.8672 Q1115.7656,38.6875 1117.3594,38.6875 Q1118.2969,38.6875 1118.9531,38.4375 Q1119.3438,38.2813 1119.7656,37.8438 Q1120.0313,37.5781 1120.1797,37.5 Q1120.3281,37.4219 1120.5313,37.4219 Q1120.8594,37.4219 1121.1172,37.6797 Q1121.375,37.9375 1121.375,38.2813 Q1121.375,38.625 1121.0313,39.0313 Q1120.5313,39.6094 1119.7344,39.9375 Q1118.6563,40.3906 1117.3594,40.3906 Q1115.8438,40.3906 1114.6406,39.7656 Q1113.6563,39.2656 1112.9688,38.1953 Q1112.2813,37.125 1112.2813,35.8438 L1112.2813,34.6875 Q1112.2813,33.3594 1112.8984,32.2109 Q1113.5156,31.0625 1114.6094,30.4453 Q1115.7031,29.8281 1116.9375,29.8281 Q1117.6719,29.8281 1118.3203,29.9922 Q1118.9688,30.1563 1119.5156,30.5156 Z " fill="#000000"/><text fill="#000000" font-family="sans-serif" font-size="12" font-style="italic" lengthAdjust="spacing" textLength="42" x="1162.25" y="24.457">«static»</text><text fill="#000000" font-family="sans-serif" font-size="12" font-style="italic" lengthAdjust="spacing" textLength="48" x="1159.25" y="39.5508">«partial»</text><text fill="#000000" font-family="sans-serif" font-size="12" lengthAdjust="spacing" textLength="92" x="1137.25" y="54.6445">CommandTypes</text><line style="stroke:#A80036;stroke-width:1.5;" x1="1013" x2="1321" y1="62.2813" y2="62.2813"/><line style="stroke:#A80036;stroke-width:1.5;" x1="1013" x2="1321" y1="70.2813" y2="70.2813"/><ellipse cx="1023" cy="81.2813" fill="#84BE84" rx="3" ry="3" style="stroke:#038048;stroke-width:1.0;"/><text fill="#000000" font-family="sans-serif" font-size="11" lengthAdjust="spacing" text-decoration="underline" textLength="213" x="1032" y="85.7002">Dispatch(dto:CommandDTO) : CommandDTO</text><ellipse cx="1023" cy="95.1172" fill="#84BE84" rx="3" ry="3" style="stroke:#038048;stroke-width:1.0;"/><text fill="#000000" font-family="sans-serif" font-size="11" lengthAdjust="spacing" text-decoration="underline" textLength="284" x="1032" y="99.5361">GetTypes(commandTypes:List&lt;CommandTypeDTO&gt;) : void</text><!--MD5=[e644022de7dea015dd09463c37421447]
class List`1--><rect codeLine="25" fill="#FEFECE" filter="url(#f1f2vkzu0xanpb)" height="48" id="List`1" style="stroke:#A80036;stroke-width:1.5;" width="74" x="482" y="338"/><ellipse cx="497" cy="354" fill="#ADD1B2" rx="11" ry="11" style="stroke:#A80036;stroke-width:1.0;"/><path d="M499.7656,349.875 Q499.9219,349.6563 500.1094,349.5469 Q500.2969,349.4375 500.5156,349.4375 Q500.8906,349.4375 501.125,349.6953 Q501.3594,349.9531 501.3594,350.5625 L501.3594,352.0156 Q501.3594,352.625 501.125,352.8906 Q500.8906,353.1563 500.5156,353.1563 Q500.1719,353.1563 499.9688,352.9531 Q499.7656,352.7656 499.6563,352.25 Q499.6094,351.8906 499.4219,351.7031 Q499.0938,351.3281 498.4844,351.1094 Q497.875,350.8906 497.25,350.8906 Q496.4844,350.8906 495.8516,351.2188 Q495.2188,351.5469 494.7266,352.2969 Q494.2344,353.0469 494.2344,354.0781 L494.2344,355.1719 Q494.2344,356.4063 495.125,357.2266 Q496.0156,358.0469 497.6094,358.0469 Q498.5469,358.0469 499.2031,357.7969 Q499.5938,357.6406 500.0156,357.2031 Q500.2813,356.9375 500.4297,356.8594 Q500.5781,356.7813 500.7813,356.7813 Q501.1094,356.7813 501.3672,357.0391 Q501.625,357.2969 501.625,357.6406 Q501.625,357.9844 501.2813,358.3906 Q500.7813,358.9688 499.9844,359.2969 Q498.9063,359.75 497.6094,359.75 Q496.0938,359.75 494.8906,359.125 Q493.9063,358.625 493.2188,357.5547 Q492.5313,356.4844 492.5313,355.2031 L492.5313,354.0469 Q492.5313,352.7188 493.1484,351.5703 Q493.7656,350.4219 494.8594,349.8047 Q495.9531,349.1875 497.1875,349.1875 Q497.9219,349.1875 498.5703,349.3516 Q499.2188,349.5156 499.7656,349.875 Z " fill="#000000"/><text fill="#000000" font-family="sans-serif" font-size="12" lengthAdjust="spacing" textLength="31" x="511" y="358.9102">List`1</text><rect fill="#FFFFFF" height="17.0938" style="stroke:#000000;stroke-width:1.0;stroke-dasharray:2.0,2.0;" width="9" x="550" y="335"/><text fill="#000000" font-family="sans-serif" font-size="12" font-style="italic" lengthAdjust="spacing" textLength="7" x="551" y="348.457">T</text><line style="stroke:#A80036;stroke-width:1.5;" x1="483" x2="555" y1="370" y2="370"/><line style="stroke:#A80036;stroke-width:1.5;" x1="483" x2="555" y1="378" y2="378"/><!--MD5=[6b1d3384926f1bc892ee196bbd0d7fce]
class BaseDTO--><rect fill="#FEFECE" filter="url(#f1f2vkzu0xanpb)" height="48" id="BaseDTO" style="stroke:#A80036;stroke-width:1.5;" width="86" x="7" y="198"/><ellipse cx="22" cy="214" fill="#ADD1B2" rx="11" ry="11" style="stroke:#A80036;stroke-width:1.0;"/><path d="M24.7656,209.875 Q24.9219,209.6563 25.1094,209.5469 Q25.2969,209.4375 25.5156,209.4375 Q25.8906,209.4375 26.125,209.6953 Q26.3594,209.9531 26.3594,210.5625 L26.3594,212.0156 Q26.3594,212.625 26.125,212.8906 Q25.8906,213.1563 25.5156,213.1563 Q25.1719,213.1563 24.9688,212.9531 Q24.7656,212.7656 24.6563,212.25 Q24.6094,211.8906 24.4219,211.7031 Q24.0938,211.3281 23.4844,211.1094 Q22.875,210.8906 22.25,210.8906 Q21.4844,210.8906 20.8516,211.2188 Q20.2188,211.5469 19.7266,212.2969 Q19.2344,213.0469 19.2344,214.0781 L19.2344,215.1719 Q19.2344,216.4063 20.125,217.2266 Q21.0156,218.0469 22.6094,218.0469 Q23.5469,218.0469 24.2031,217.7969 Q24.5938,217.6406 25.0156,217.2031 Q25.2813,216.9375 25.4297,216.8594 Q25.5781,216.7813 25.7813,216.7813 Q26.1094,216.7813 26.3672,217.0391 Q26.625,217.2969 26.625,217.6406 Q26.625,217.9844 26.2813,218.3906 Q25.7813,218.9688 24.9844,219.2969 Q23.9063,219.75 22.6094,219.75 Q21.0938,219.75 19.8906,219.125 Q18.9063,218.625 18.2188,217.5547 Q17.5313,216.4844 17.5313,215.2031 L17.5313,214.0469 Q17.5313,212.7188 18.1484,211.5703 Q18.7656,210.4219 19.8594,209.8047 Q20.9531,209.1875 22.1875,209.1875 Q22.9219,209.1875 23.5703,209.3516 Q24.2188,209.5156 24.7656,209.875 Z " fill="#000000"/><text fill="#000000" font-family="sans-serif" font-size="12" lengthAdjust="spacing" textLength="54" x="36" y="218.9102">BaseDTO</text><line style="stroke:#A80036;stroke-width:1.5;" x1="8" x2="92" y1="230" y2="230"/><line style="stroke:#A80036;stroke-width:1.5;" x1="8" x2="92" y1="238" y2="238"/><!--MD5=[b9f3d2915b6b8d0c143f32ccec3f745e]
class Guid--><rect fill="#FEFECE" filter="url(#f1f2vkzu0xanpb)" height="48" id="Guid" style="stroke:#A80036;stroke-width:1.5;" width="58" x="580" y="446"/><ellipse cx="595" cy="462" fill="#ADD1B2" rx="11" ry="11" style="stroke:#A80036;stroke-width:1.0;"/><path d="M597.7656,457.875 Q597.9219,457.6563 598.1094,457.5469 Q598.2969,457.4375 598.5156,457.4375 Q598.8906,457.4375 599.125,457.6953 Q599.3594,457.9531 599.3594,458.5625 L599.3594,460.0156 Q599.3594,460.625 599.125,460.8906 Q598.8906,461.1563 598.5156,461.1563 Q598.1719,461.1563 597.9688,460.9531 Q597.7656,460.7656 597.6563,460.25 Q597.6094,459.8906 597.4219,459.7031 Q597.0938,459.3281 596.4844,459.1094 Q595.875,458.8906 595.25,458.8906 Q594.4844,458.8906 593.8516,459.2188 Q593.2188,459.5469 592.7266,460.2969 Q592.2344,461.0469 592.2344,462.0781 L592.2344,463.1719 Q592.2344,464.4063 593.125,465.2266 Q594.0156,466.0469 595.6094,466.0469 Q596.5469,466.0469 597.2031,465.7969 Q597.5938,465.6406 598.0156,465.2031 Q598.2813,464.9375 598.4297,464.8594 Q598.5781,464.7813 598.7813,464.7813 Q599.1094,464.7813 599.3672,465.0391 Q599.625,465.2969 599.625,465.6406 Q599.625,465.9844 599.2813,466.3906 Q598.7813,466.9688 597.9844,467.2969 Q596.9063,467.75 595.6094,467.75 Q594.0938,467.75 592.8906,467.125 Q591.9063,466.625 591.2188,465.5547 Q590.5313,464.4844 590.5313,463.2031 L590.5313,462.0469 Q590.5313,460.7188 591.1484,459.5703 Q591.7656,458.4219 592.8594,457.8047 Q593.9531,457.1875 595.1875,457.1875 Q595.9219,457.1875 596.5703,457.3516 Q597.2188,457.5156 597.7656,457.875 Z " fill="#000000"/><text fill="#000000" font-family="sans-serif" font-size="12" lengthAdjust="spacing" textLength="26" x="609" y="466.9102">Guid</text><line style="stroke:#A80036;stroke-width:1.5;" x1="581" x2="637" y1="478" y2="478"/><line style="stroke:#A80036;stroke-width:1.5;" x1="581" x2="637" y1="486" y2="486"/><!--MD5=[31d9d567a1d652152733c83e75189006]
class Boolean--><rect fill="#FEFECE" filter="url(#f1f2vkzu0xanpb)" height="48" id="Boolean" style="stroke:#A80036;stroke-width:1.5;" width="78" x="662" y="338"/><ellipse cx="677" cy="354" fill="#ADD1B2" rx="11" ry="11" style="stroke:#A80036;stroke-width:1.0;"/><path d="M679.7656,349.875 Q679.9219,349.6563 680.1094,349.5469 Q680.2969,349.4375 680.5156,349.4375 Q680.8906,349.4375 681.125,349.6953 Q681.3594,349.9531 681.3594,350.5625 L681.3594,352.0156 Q681.3594,352.625 681.125,352.8906 Q680.8906,353.1563 680.5156,353.1563 Q680.1719,353.1563 679.9688,352.9531 Q679.7656,352.7656 679.6563,352.25 Q679.6094,351.8906 679.4219,351.7031 Q679.0938,351.3281 678.4844,351.1094 Q677.875,350.8906 677.25,350.8906 Q676.4844,350.8906 675.8516,351.2188 Q675.2188,351.5469 674.7266,352.2969 Q674.2344,353.0469 674.2344,354.0781 L674.2344,355.1719 Q674.2344,356.4063 675.125,357.2266 Q676.0156,358.0469 677.6094,358.0469 Q678.5469,358.0469 679.2031,357.7969 Q679.5938,357.6406 680.0156,357.2031 Q680.2813,356.9375 680.4297,356.8594 Q680.5781,356.7813 680.7813,356.7813 Q681.1094,356.7813 681.3672,357.0391 Q681.625,357.2969 681.625,357.6406 Q681.625,357.9844 681.2813,358.3906 Q680.7813,358.9688 679.9844,359.2969 Q678.9063,359.75 677.6094,359.75 Q676.0938,359.75 674.8906,359.125 Q673.9063,358.625 673.2188,357.5547 Q672.5313,356.4844 672.5313,355.2031 L672.5313,354.0469 Q672.5313,352.7188 673.1484,351.5703 Q673.7656,350.4219 674.8594,349.8047 Q675.9531,349.1875 677.1875,349.1875 Q677.9219,349.1875 678.5703,349.3516 Q679.2188,349.5156 679.7656,349.875 Z " fill="#000000"/><text fill="#000000" font-family="sans-serif" font-size="12" lengthAdjust="spacing" textLength="46" x="691" y="358.9102">Boolean</text><line style="stroke:#A80036;stroke-width:1.5;" x1="663" x2="739" y1="370" y2="370"/><line style="stroke:#A80036;stroke-width:1.5;" x1="663" x2="739" y1="378" y2="378"/><!--MD5=[9df70cf33be424c1b8543b3f439cae89]
class String--><rect fill="#FEFECE" filter="url(#f1f2vkzu0xanpb)" height="48" id="String" style="stroke:#A80036;stroke-width:1.5;" width="64" x="920" y="338"/><ellipse cx="935" cy="354" fill="#ADD1B2" rx="11" ry="11" style="stroke:#A80036;stroke-width:1.0;"/><path d="M937.7656,349.875 Q937.9219,349.6563 938.1094,349.5469 Q938.2969,349.4375 938.5156,349.4375 Q938.8906,349.4375 939.125,349.6953 Q939.3594,349.9531 939.3594,350.5625 L939.3594,352.0156 Q939.3594,352.625 939.125,352.8906 Q938.8906,353.1563 938.5156,353.1563 Q938.1719,353.1563 937.9688,352.9531 Q937.7656,352.7656 937.6563,352.25 Q937.6094,351.8906 937.4219,351.7031 Q937.0938,351.3281 936.4844,351.1094 Q935.875,350.8906 935.25,350.8906 Q934.4844,350.8906 933.8516,351.2188 Q933.2188,351.5469 932.7266,352.2969 Q932.2344,353.0469 932.2344,354.0781 L932.2344,355.1719 Q932.2344,356.4063 933.125,357.2266 Q934.0156,358.0469 935.6094,358.0469 Q936.5469,358.0469 937.2031,357.7969 Q937.5938,357.6406 938.0156,357.2031 Q938.2813,356.9375 938.4297,356.8594 Q938.5781,356.7813 938.7813,356.7813 Q939.1094,356.7813 939.3672,357.0391 Q939.625,357.2969 939.625,357.6406 Q939.625,357.9844 939.2813,358.3906 Q938.7813,358.9688 937.9844,359.2969 Q936.9063,359.75 935.6094,359.75 Q934.0938,359.75 932.8906,359.125 Q931.9063,358.625 931.2188,357.5547 Q930.5313,356.4844 930.5313,355.2031 L930.5313,354.0469 Q930.5313,352.7188 931.1484,351.5703 Q931.7656,350.4219 932.8594,349.8047 Q933.9531,349.1875 935.1875,349.1875 Q935.9219,349.1875 936.5703,349.3516 Q937.2188,349.5156 937.7656,349.875 Z " fill="#000000"/><text fill="#000000" font-family="sans-serif" font-size="12" lengthAdjust="spacing" textLength="32" x="949" y="358.9102">String</text><line style="stroke:#A80036;stroke-width:1.5;" x1="921" x2="983" y1="370" y2="370"/><line style="stroke:#A80036;stroke-width:1.5;" x1="921" x2="983" y1="378" y2="378"/><!--MD5=[ab65f1b894babecd782f1df810423109]
class TypeDTO--><rect fill="#FEFECE" filter="url(#f1f2vkzu0xanpb)" height="48" id="TypeDTO" style="stroke:#A80036;stroke-width:1.5;" width="83" x="893.5" y="32.5"/><ellipse cx="908.5" cy="48.5" fill="#ADD1B2" rx="11" ry="11" style="stroke:#A80036;stroke-width:1.0;"/><path d="M911.2656,44.375 Q911.4219,44.1563 911.6094,44.0469 Q911.7969,43.9375 912.0156,43.9375 Q912.3906,43.9375 912.625,44.1953 Q912.8594,44.4531 912.8594,45.0625 L912.8594,46.5156 Q912.8594,47.125 912.625,47.3906 Q912.3906,47.6563 912.0156,47.6563 Q911.6719,47.6563 911.4688,47.4531 Q911.2656,47.2656 911.1563,46.75 Q911.1094,46.3906 910.9219,46.2031 Q910.5938,45.8281 909.9844,45.6094 Q909.375,45.3906 908.75,45.3906 Q907.9844,45.3906 907.3516,45.7188 Q906.7188,46.0469 906.2266,46.7969 Q905.7344,47.5469 905.7344,48.5781 L905.7344,49.6719 Q905.7344,50.9063 906.625,51.7266 Q907.5156,52.5469 909.1094,52.5469 Q910.0469,52.5469 910.7031,52.2969 Q911.0938,52.1406 911.5156,51.7031 Q911.7813,51.4375 911.9297,51.3594 Q912.0781,51.2813 912.2813,51.2813 Q912.6094,51.2813 912.8672,51.5391 Q913.125,51.7969 913.125,52.1406 Q913.125,52.4844 912.7813,52.8906 Q912.2813,53.4688 911.4844,53.7969 Q910.4063,54.25 909.1094,54.25 Q907.5938,54.25 906.3906,53.625 Q905.4063,53.125 904.7188,52.0547 Q904.0313,50.9844 904.0313,49.7031 L904.0313,48.5469 Q904.0313,47.2188 904.6484,46.0703 Q905.2656,44.9219 906.3594,44.3047 Q907.4531,43.6875 908.6875,43.6875 Q909.4219,43.6875 910.0703,43.8516 Q910.7188,44.0156 911.2656,44.375 Z " fill="#000000"/><text fill="#000000" font-family="sans-serif" font-size="12" lengthAdjust="spacing" textLength="51" x="922.5" y="53.4102">TypeDTO</text><line style="stroke:#A80036;stroke-width:1.5;" x1="894.5" x2="975.5" y1="64.5" y2="64.5"/><line style="stroke:#A80036;stroke-width:1.5;" x1="894.5" x2="975.5" y1="72.5" y2="72.5"/><!--MD5=[fe6b2754769bc87cf156126798433078]
class CommandWrapper--><rect fill="#FEFECE" filter="url(#f1f2vkzu0xanpb)" height="48" id="CommandWrapper" style="stroke:#A80036;stroke-width:1.5;" width="138" x="394" y="32.5"/><ellipse cx="409" cy="48.5" fill="#ADD1B2" rx="11" ry="11" style="stroke:#A80036;stroke-width:1.0;"/><path d="M411.7656,44.375 Q411.9219,44.1563 412.1094,44.0469 Q412.2969,43.9375 412.5156,43.9375 Q412.8906,43.9375 413.125,44.1953 Q413.3594,44.4531 413.3594,45.0625 L413.3594,46.5156 Q413.3594,47.125 413.125,47.3906 Q412.8906,47.6563 412.5156,47.6563 Q412.1719,47.6563 411.9688,47.4531 Q411.7656,47.2656 411.6563,46.75 Q411.6094,46.3906 411.4219,46.2031 Q411.0938,45.8281 410.4844,45.6094 Q409.875,45.3906 409.25,45.3906 Q408.4844,45.3906 407.8516,45.7188 Q407.2188,46.0469 406.7266,46.7969 Q406.2344,47.5469 406.2344,48.5781 L406.2344,49.6719 Q406.2344,50.9063 407.125,51.7266 Q408.0156,52.5469 409.6094,52.5469 Q410.5469,52.5469 411.2031,52.2969 Q411.5938,52.1406 412.0156,51.7031 Q412.2813,51.4375 412.4297,51.3594 Q412.5781,51.2813 412.7813,51.2813 Q413.1094,51.2813 413.3672,51.5391 Q413.625,51.7969 413.625,52.1406 Q413.625,52.4844 413.2813,52.8906 Q412.7813,53.4688 411.9844,53.7969 Q410.9063,54.25 409.6094,54.25 Q408.0938,54.25 406.8906,53.625 Q405.9063,53.125 405.2188,52.0547 Q404.5313,50.9844 404.5313,49.7031 L404.5313,48.5469 Q404.5313,47.2188 405.1484,46.0703 Q405.7656,44.9219 406.8594,44.3047 Q407.9531,43.6875 409.1875,43.6875 Q409.9219,43.6875 410.5703,43.8516 Q411.2188,44.0156 411.7656,44.375 Z " fill="#000000"/><text fill="#000000" font-family="sans-serif" font-size="12" lengthAdjust="spacing" textLength="106" x="423" y="53.4102">CommandWrapper</text><line style="stroke:#A80036;stroke-width:1.5;" x1="395" x2="531" y1="64.5" y2="64.5"/><line style="stroke:#A80036;stroke-width:1.5;" x1="395" x2="531" y1="72.5" y2="72.5"/><!--MD5=[9714f00bbee80ca7b140c29ae529c8eb]
reverse link BaseDTO to CommandDTO--><path codeLine="27" d="M86.2,259.99 C93.68,266.51 101.8,272.85 110,278 C157.08,307.57 216.47,330 259.72,344.05 " fill="none" id="BaseDTO-backto-CommandDTO" style="stroke:#A80036;stroke-width:1.0;"/><polygon fill="none" points="81.33,265.02,71.47,246.26,90.88,254.78,81.33,265.02" style="stroke:#A80036;stroke-width:1.0;"/><!--MD5=[748fc960db8404b389e3e2dd41b16478]
link CommandDTO to Guid--><path codeLine="28" d="M376.19,384.2 C435.68,405.87 526.08,438.79 574.88,456.57 " fill="none" id="CommandDTO-to-Guid" style="stroke:#A80036;stroke-width:1.0;"/><polygon fill="#A80036" points="579.76,458.35,572.6755,451.5082,575.0627,456.6367,569.9342,459.0239,579.76,458.35" style="stroke:#A80036;stroke-width:1.0;"/><text fill="#000000" font-family="sans-serif" font-size="13" lengthAdjust="spacing" textLength="38" x="534.0718" y="452.7414">TypeId</text><!--MD5=[7643b4e9f5d3ec841d55a0a29d6a7102]
link CommandDTO to Boolean--><path codeLine="29" d="M381.9186,333.5367 C381.9186,333.5367 538.33,284.63 617.5,308 C633.15,312.62 648.63,321.19 661.93,330.17 " fill="none" id="CommandDTO-Boolean" style="stroke:#A80036;stroke-width:1.0;"/><polygon fill="#A80036" points="672.54,337.72,667.5316,329.2397,668.468,334.8185,662.8892,335.7549,672.54,337.72" style="stroke:#A80036;stroke-width:1.0;"/><line style="stroke:#A80036;stroke-width:1.0;" x1="668.468" x2="661.95" y1="334.8185" y2="330.185"/><polygon fill="#FFFFFF" points="370.74,337.9,377.7838,339.4445,381.9186,333.5367,374.8749,331.9921,370.74,337.9" style="stroke:#A80036;stroke-width:1.0;"/><text fill="#000000" font-family="sans-serif" font-size="13" lengthAdjust="spacing" textLength="58" x="599.8159" y="326.9884">Response</text><!--MD5=[4578dd9431dc4b19b962c6ee8c717b6c]
link CommandDTO to List`1--><path codeLine="30" d="M388.1,362 C388.1,362 442.35,362 468.86,362 " fill="none" id="CommandDTO-List`1" style="stroke:#A80036;stroke-width:1.0;"/><polygon fill="#A80036" points="481.88,362,472.88,358,476.88,362,472.88,366,481.88,362" style="stroke:#A80036;stroke-width:1.0;"/><line style="stroke:#A80036;stroke-width:1.0;" x1="476.88" x2="468.88" y1="362" y2="362"/><polygon fill="#FFFFFF" points="376.1,362,382.1,366,388.1,362,382.1,358,376.1,362" style="stroke:#A80036;stroke-width:1.0;"/><text fill="#000000" font-family="sans-serif" font-size="13" lengthAdjust="spacing" textLength="154" x="320.127" y="340.7341">Arguments&lt;PropertyDTO&gt;</text><!--MD5=[c9e3b19b1dc5b82c7a47f46230fcfb43]
link ParamDTO to Guid--><path codeLine="31" d="M1082.57,246.01 C1072.86,281.84 1048.98,350.53 1002,386 C945.1,428.96 728.39,456.24 643.44,465.49 " fill="none" id="ParamDTO-to-Guid" style="stroke:#A80036;stroke-width:1.0;"/><polygon fill="#A80036" points="638.29,466.04,647.6625,469.066,643.262,465.5114,646.8167,461.1109,638.29,466.04" style="stroke:#A80036;stroke-width:1.0;"/><text fill="#000000" font-family="sans-serif" font-size="13" lengthAdjust="spacing" textLength="38" x="645.9862" y="461.657">TypeId</text><!--MD5=[44089499b489eea8db13d29875ae9aa9]
link ParamDTO to String--><path codeLine="32" d="M1055.43,246.1 C1027.88,270.28 990.29,308.22 968.39,333.83 " fill="none" id="ParamDTO-to-String" style="stroke:#A80036;stroke-width:1.0;"/><polygon fill="#A80036" points="965.02,337.83,973.8784,333.5254,968.242,334.0066,967.7608,328.3702,965.02,337.83" style="stroke:#A80036;stroke-width:1.0;"/><text fill="#000000" font-family="sans-serif" font-size="13" lengthAdjust="spacing" textLength="34" x="930.0001" y="327.1266">Name</text><!--MD5=[44089499b489eea8db13d29875ae9aa9]
link ParamDTO to String--><path codeLine="33" d="M1075.62,246.1 C1055.33,270.77 1017.02,309.78 988.03,335.38 " fill="none" id="ParamDTO-to-String-1" style="stroke:#A80036;stroke-width:1.0;"/><polygon fill="#A80036" points="984.18,338.74,993.5872,335.8238,987.9429,335.4475,988.3192,329.8032,984.18,338.74" style="stroke:#A80036;stroke-width:1.0;"/><text fill="#000000" font-family="sans-serif" font-size="13" lengthAdjust="spacing" textLength="28" x="992.1172" y="330.8925">Type</text><!--MD5=[e1f4ca4f791e2b2a82d1f845c1c82932]
reverse link TypeDTO to CommandTypeDTO--><path codeLine="34" d="M935,100.71 C935,131.82 935,172.59 935,197.77 " fill="none" id="TypeDTO-backto-CommandTypeDTO" style="stroke:#A80036;stroke-width:1.0;"/><polygon fill="none" points="928,100.58,935,80.58,942,100.58,928,100.58" style="stroke:#A80036;stroke-width:1.0;"/><!--MD5=[a79d29c9ff7082447aa4f6af0486db68]
link CommandTypeDTO to Guid--><path codeLine="35" d="M913.31,246.19 C881.33,279.6 818.76,342.05 758,386 C720.88,412.85 674.2,437.56 643.08,452.92 " fill="none" id="CommandTypeDTO-to-Guid" style="stroke:#A80036;stroke-width:1.0;"/><polygon fill="#A80036" points="638.22,455.3,648.0623,454.9406,642.7119,453.1039,644.5486,447.7536,638.22,455.3" style="stroke:#A80036;stroke-width:1.0;"/><text fill="#000000" font-family="sans-serif" font-size="13" lengthAdjust="spacing" textLength="38" x="645.9051" y="449.2053">TypeId</text><!--MD5=[f083892878dead250d5b63d19ef263f7]
link CommandTypeDTO to String--><path codeLine="36" d="M937.85,246.1 C940.78,269.88 945.35,306.98 948.5,332.55 " fill="none" id="CommandTypeDTO-to-String" style="stroke:#A80036;stroke-width:1.0;"/><polygon fill="#A80036" points="949.15,337.83,952.0128,328.4064,948.5351,332.868,944.0736,329.3902,949.15,337.83" style="stroke:#A80036;stroke-width:1.0;"/><text fill="#000000" font-family="sans-serif" font-size="13" lengthAdjust="spacing" textLength="37" x="953.1603" y="327.1266">Result</text><!--MD5=[b9350e40dd7f969cd3b72f068cd337d7]
link CommandTypeDTO to List`1--><path codeLine="37" d="M902.91,246.15 C886.53,257.08 865.9,269.56 846,278 C794.36,299.9 636.93,335.49 560.93,352.03 " fill="none" id="CommandTypeDTO-to-List`1" style="stroke:#A80036;stroke-width:1.0;"/><polygon fill="#A80036" points="556.04,353.09,565.6824,355.0962,560.9269,352.0326,563.9905,347.2771,556.04,353.09" style="stroke:#A80036;stroke-width:1.0;"/><text fill="#000000" font-family="sans-serif" font-size="13" lengthAdjust="spacing" textLength="147" x="505.5662" y="332.7403">Parameters&lt;ParamDTO&gt;</text><!--MD5=[c8480226a8198f08e8457046de03728d]
reverse link CommandWrapper to GetCommandTypesWrapper--><path codeLine="38" d="M422.08,93.86 C398.23,115.05 367.69,142.2 340.94,165.96 " fill="none" id="CommandWrapper-backto-GetCommandTypesWrapper" style="stroke:#A80036;stroke-width:1.0;"/><polygon fill="none" points="417.43,88.63,437.03,80.58,426.73,99.1,417.43,88.63" style="stroke:#A80036;stroke-width:1.0;"/><!--MD5=[3686b2b3cc1b0ad9f2f6eea67cdeb87f]
link GetCommandTypesWrapper to Guid--><path codeLine="39" d="M336.02,278.22 C371.63,311.35 419.26,353.26 465,386 C500.86,411.67 545.22,436.27 575.16,451.93 " fill="none" id="GetCommandTypesWrapper-to-Guid" style="stroke:#A80036;stroke-width:1.0;"/><polygon fill="#A80036" points="579.83,454.36,573.6959,446.6546,575.3956,452.0501,570.0001,453.7497,579.83,454.36" style="stroke:#A80036;stroke-width:1.0;"/><text fill="#000000" font-family="sans-serif" font-size="13" lengthAdjust="spacing" textLength="38" x="533.8518" y="466.6189">TypeId</text><!--MD5=[5a84e33169372f8cc9c1dd6cba28fc78]
link GetCommandTypesWrapper to CommandDTO--><path codeLine="40" d="M294.64,278.33 C299.89,296.93 305.54,316.9 309.96,332.56 " fill="none" id="GetCommandTypesWrapper-to-CommandDTO" style="stroke:#A80036;stroke-width:1.0;"/><polygon fill="#A80036" points="311.41,337.69,312.818,327.9423,310.0534,332.8776,305.1181,330.1129,311.41,337.69" style="stroke:#A80036;stroke-width:1.0;"/><text fill="#000000" font-family="sans-serif" font-size="13" lengthAdjust="spacing" textLength="27" x="279.2619" y="326.9507">Cmd</text><!--MD5=[125737561bd39c69013ccf38734ca5b5]
link GetCommandTypesWrapper to List`1--><path codeLine="41" d="M374.89,278.14 C410.58,298.66 449.24,320.89 477.53,337.15 " fill="none" id="GetCommandTypesWrapper-to-List`1" style="stroke:#A80036;stroke-width:1.0;"/><polygon fill="#A80036" points="481.98,339.71,476.156,331.7677,477.6405,337.2262,472.182,338.7108,481.98,339.71" style="stroke:#A80036;stroke-width:1.0;"/><text fill="#000000" font-family="sans-serif" font-size="13" lengthAdjust="spacing" textLength="166" x="342.659" y="327.1671">Result&lt;CommandTypeDTO&gt;</text><!--MD5=[1dcbafcc1a6e0f16ed85ca39a22f8e0c]
reverse link CommandWrapper to SampleCommandWrapper--><path codeLine="42" d="M503.92,93.86 C527.77,115.05 558.31,142.2 585.06,165.96 " fill="none" id="CommandWrapper-backto-SampleCommandWrapper" style="stroke:#A80036;stroke-width:1.0;"/><polygon fill="none" points="499.27,99.1,488.97,80.58,508.57,88.63,499.27,99.1" style="stroke:#A80036;stroke-width:1.0;"/><!--MD5=[6158de49482057db5420d29be73619ed]
link SampleCommandWrapper to Guid--><path codeLine="43" d="M638.47,278.21 C630.68,328.64 619.48,401.19 613.37,440.71 " fill="none" id="SampleCommandWrapper-to-Guid" style="stroke:#A80036;stroke-width:1.0;"/><polygon fill="#A80036" points="612.58,445.83,617.8966,437.5394,613.3371,440.8876,609.9888,436.3281,612.58,445.83" style="stroke:#A80036;stroke-width:1.0;"/><text fill="#000000" font-family="sans-serif" font-size="13" lengthAdjust="spacing" textLength="38" x="570.6286" y="435.1266">TypeId</text><!--MD5=[ec91f5bc263fb467e5451ee323227901]
link SampleCommandWrapper to CommandDTO--><path codeLine="44" d="M515.55,278.14 C467.74,298.19 416.04,319.88 377.53,336.03 " fill="none" id="SampleCommandWrapper-to-CommandDTO" style="stroke:#A80036;stroke-width:1.0;"/><polygon fill="#A80036" points="372.89,337.97,382.7366,338.1791,377.5011,336.0368,379.6435,330.8013,372.89,337.97" style="stroke:#A80036;stroke-width:1.0;"/><text fill="#000000" font-family="sans-serif" font-size="13" lengthAdjust="spacing" textLength="27" x="383.7897" y="348.9384">Cmd</text><!--MD5=[2bc87cbe907fab5bf33e2f1168f28590]
link SampleCommandWrapper to String--><path codeLine="45" d="M768.86,278.14 C821.26,301.85 878.7,327.83 915.02,344.27 " fill="none" id="SampleCommandWrapper-to-String" style="stroke:#A80036;stroke-width:1.0;"/><polygon fill="#A80036" points="919.78,346.42,913.2228,339.0713,915.2228,344.3628,909.9313,346.3629,919.78,346.42" style="stroke:#A80036;stroke-width:1.0;"/><text fill="#000000" font-family="sans-serif" font-size="13" lengthAdjust="spacing" textLength="50" x="862.0911" y="340.7702">FirstOne</text><!--MD5=[261c833e76cba9e885fc18e8a9d80f94]
link SampleCommandWrapper to Boolean--><path codeLine="46" d="M668.65,278.33 C675.99,297.09 683.88,317.25 690.03,332.96 " fill="none" id="SampleCommandWrapper-to-Boolean" style="stroke:#A80036;stroke-width:1.0;"/><polygon fill="#A80036" points="691.88,337.69,692.3402,327.8519,690.065,333.0311,684.8859,330.7559,691.88,337.69" style="stroke:#A80036;stroke-width:1.0;"/><text fill="#000000" font-family="sans-serif" font-size="13" lengthAdjust="spacing" textLength="68" x="698.2555" y="326.9507">SecondOne</text><!--MD5=[3fd0fafd23b25570d3999689428fcd29]
@startuml
class CommandDTO {
}
class ParamDTO {
}
class CommandTypeDTO {
}
class GetCommandTypesWrapper <<partial>> {
    + GetCommandTypesWrapper(dto:CommandDTO)
    + {static} IsForMe(dto:CommandDTO) : bool
    + {static} ExecuteCommand(dto:CommandDTO) : CommandDTO
    + <<partial>> GetCommandTypes() : List<CommandTypeDTO>
}
class SampleCommandWrapper <<partial>> {
    + SampleCommandWrapper(dto:CommandDTO)
    + {static} IsForMe(dto:CommandDTO) : bool
    + {static} ExecuteCommand(dto:CommandDTO) : CommandDTO
    + <<partial>> SampleCommand(firstOne:String, secondOne:Boolean) : void
}
class CommandTypes <<static>> <<partial>> {
    + {static} Dispatch(dto:CommandDTO) : CommandDTO
}
class CommandTypes <<static>> <<partial>> {
    + {static} GetTypes(commandTypes:List<CommandTypeDTO>) : void
}
class "List`1"<T> {
}
BaseDTO <|- - CommandDTO
CommandDTO - -> "TypeId" Guid
CommandDTO o-> "Response" Boolean
CommandDTO o-> "Arguments<PropertyDTO>" "List`1"
ParamDTO - -> "TypeId" Guid
ParamDTO - -> "Name" String
ParamDTO - -> "Type" String
TypeDTO <|- - CommandTypeDTO
CommandTypeDTO - -> "TypeId" Guid
CommandTypeDTO - -> "Result" String
CommandTypeDTO - -> "Parameters<ParamDTO>" "List`1"
CommandWrapper <|- - GetCommandTypesWrapper
GetCommandTypesWrapper - -> "TypeId" Guid
GetCommandTypesWrapper - -> "Cmd" CommandDTO
GetCommandTypesWrapper - -> "Result<CommandTypeDTO>" "List`1"
CommandWrapper <|- - SampleCommandWrapper
SampleCommandWrapper - -> "TypeId" Guid
SampleCommandWrapper - -> "Cmd" CommandDTO
SampleCommandWrapper - -> "FirstOne" String
SampleCommandWrapper - -> "SecondOne" Boolean
@enduml

PlantUML version 1.2021.10(Mon Aug 30 15:43:48 CEST 2021)
(GPL source distribution)
Java Runtime: Java(TM) SE Runtime Environment
JVM: Java HotSpot(TM) Client VM
Default Encoding: Cp1252
Language: de
Country: CH
--></g></svg>