<?xml version="1.0" encoding="UTF-8" standalone="no"?><svg xmlns="http://www.w3.org/2000/svg" xmlns:xlink="http://www.w3.org/1999/xlink" contentScriptType="application/ecmascript" contentStyleType="text/css" height="508px" preserveAspectRatio="none" style="width:576px;height:508px;background:#FFFFFF;" version="1.1" viewBox="0 0 576 508" width="576px" zoomAndPan="magnify"><defs><filter height="300%" id="f17174q078j19v" width="300%" x="-1" y="-1"><feGaussianBlur result="blurOut" stdDeviation="2.0"/><feColorMatrix in="blurOut" result="blurOut2" type="matrix" values="0 0 0 0 0 0 0 0 0 0 0 0 0 0 0 0 0 0 .4 0"/><feOffset dx="4.0" dy="4.0" in="blurOut2" result="blurOut3"/><feBlend in="SourceGraphic" in2="blurOut3" mode="normal"/></filter></defs><g><!--MD5=[82aa133a2b4aef49cf9b90dd4c9c4c0f]
class ExampleDTO--><rect codeLine="1" fill="#FEFECE" filter="url(#f17174q078j19v)" height="48" id="ExampleDTO" style="stroke:#A80036;stroke-width:1.5;" width="105" x="343" y="338"/><ellipse cx="358" cy="354" fill="#ADD1B2" rx="11" ry="11" style="stroke:#A80036;stroke-width:1.0;"/><path d="M360.7656,349.875 Q360.9219,349.6563 361.1094,349.5469 Q361.2969,349.4375 361.5156,349.4375 Q361.8906,349.4375 362.125,349.7031 Q362.3594,349.9531 362.3594,350.5625 L362.3594,352.0156 Q362.3594,352.625 362.125,352.8906 Q361.8906,353.1563 361.5156,353.1563 Q361.1719,353.1563 360.9688,352.9531 Q360.7656,352.7656 360.6563,352.25 Q360.6094,351.8906 360.4219,351.7031 Q360.0938,351.3281 359.4844,351.1094 Q358.875,350.8906 358.25,350.8906 Q357.4844,350.8906 356.8438,351.2188 Q356.2188,351.5469 355.7188,352.2969 Q355.2344,353.0469 355.2344,354.0781 L355.2344,355.1719 Q355.2344,356.4063 356.125,357.2344 Q357.0156,358.0469 358.6094,358.0469 Q359.5469,358.0469 360.2031,357.7969 Q360.5938,357.6406 361.0156,357.2031 Q361.2813,356.9375 361.4219,356.8594 Q361.5781,356.7813 361.7813,356.7813 Q362.1094,356.7813 362.3594,357.0469 Q362.625,357.2969 362.625,357.6406 Q362.625,357.9844 362.2813,358.3906 Q361.7813,358.9688 360.9844,359.2969 Q359.9063,359.75 358.6094,359.75 Q357.0938,359.75 355.8906,359.125 Q354.9063,358.625 354.2188,357.5625 Q353.5313,356.4844 353.5313,355.2031 L353.5313,354.0469 Q353.5313,352.7188 354.1406,351.5781 Q354.7656,350.4219 355.8594,349.8125 Q356.9531,349.1875 358.1875,349.1875 Q358.9219,349.1875 359.5625,349.3594 Q360.2188,349.5156 360.7656,349.875 Z " fill="#000000"/><text fill="#000000" font-family="sans-serif" font-size="12" lengthAdjust="spacing" textLength="73" x="372" y="358.9102">ExampleDTO</text><line style="stroke:#A80036;stroke-width:1.5;" x1="344" x2="447" y1="370" y2="370"/><line style="stroke:#A80036;stroke-width:1.5;" x1="344" x2="447" y1="378" y2="378"/><!--MD5=[78ac3bde29313a2fc6f81a80f86c4979]
class ExampleWrapper--><rect codeLine="3" fill="#FEFECE" filter="url(#f17174q078j19v)" height="111.5313" id="ExampleWrapper" style="stroke:#A80036;stroke-width:1.5;" width="283" x="7" y="166"/><ellipse cx="96.75" cy="186.0938" fill="#ADD1B2" rx="11" ry="11" style="stroke:#A80036;stroke-width:1.0;"/><path d="M99.5156,181.9688 Q99.6719,181.75 99.8594,181.6406 Q100.0469,181.5313 100.2656,181.5313 Q100.6406,181.5313 100.875,181.7969 Q101.1094,182.0469 101.1094,182.6563 L101.1094,184.1094 Q101.1094,184.7188 100.875,184.9844 Q100.6406,185.25 100.2656,185.25 Q99.9219,185.25 99.7188,185.0469 Q99.5156,184.8594 99.4063,184.3438 Q99.3594,183.9844 99.1719,183.7969 Q98.8438,183.4219 98.2344,183.2031 Q97.625,182.9844 97,182.9844 Q96.2344,182.9844 95.5938,183.3125 Q94.9688,183.6406 94.4688,184.3906 Q93.9844,185.1406 93.9844,186.1719 L93.9844,187.2656 Q93.9844,188.5 94.875,189.3281 Q95.7656,190.1406 97.3594,190.1406 Q98.2969,190.1406 98.9531,189.8906 Q99.3438,189.7344 99.7656,189.2969 Q100.0313,189.0313 100.1719,188.9531 Q100.3281,188.875 100.5313,188.875 Q100.8594,188.875 101.1094,189.1406 Q101.375,189.3906 101.375,189.7344 Q101.375,190.0781 101.0313,190.4844 Q100.5313,191.0625 99.7344,191.3906 Q98.6563,191.8438 97.3594,191.8438 Q95.8438,191.8438 94.6406,191.2188 Q93.6563,190.7188 92.9688,189.6563 Q92.2813,188.5781 92.2813,187.2969 L92.2813,186.1406 Q92.2813,184.8125 92.8906,183.6719 Q93.5156,182.5156 94.6094,181.9063 Q95.7031,181.2813 96.9375,181.2813 Q97.6719,181.2813 98.3125,181.4531 Q98.9688,181.6094 99.5156,181.9688 Z " fill="#000000"/><text fill="#000000" font-family="sans-serif" font-size="12" font-style="italic" lengthAdjust="spacing" textLength="48" x="140.75" y="183.457">«partial»</text><text fill="#000000" font-family="sans-serif" font-size="12" lengthAdjust="spacing" textLength="95" x="117.25" y="198.5508">ExampleWrapper</text><line style="stroke:#A80036;stroke-width:1.5;" x1="8" x2="289" y1="206.1875" y2="206.1875"/><line style="stroke:#A80036;stroke-width:1.5;" x1="8" x2="289" y1="214.1875" y2="214.1875"/><ellipse cx="18" cy="225.1875" fill="#84BE84" rx="3" ry="3" style="stroke:#038048;stroke-width:1.0;"/><text fill="#000000" font-family="sans-serif" font-size="11" lengthAdjust="spacing" textLength="176" x="27" y="229.6064">ExampleWrapper(dto:CommandDTO)</text><ellipse cx="18" cy="239.0234" fill="#84BE84" rx="3" ry="3" style="stroke:#038048;stroke-width:1.0;"/><text fill="#000000" font-family="sans-serif" font-size="11" lengthAdjust="spacing" text-decoration="underline" textLength="161" x="27" y="243.4424">IsForMe(dto:CommandDTO) : bool</text><ellipse cx="18" cy="252.8594" fill="#84BE84" rx="3" ry="3" style="stroke:#038048;stroke-width:1.0;"/><text fill="#000000" font-family="sans-serif" font-size="11" lengthAdjust="spacing" text-decoration="underline" textLength="257" x="27" y="257.2783">ExecuteCommand(dto:CommandDTO) : CommandDTO</text><ellipse cx="18" cy="266.6953" fill="#84BE84" rx="3" ry="3" style="stroke:#038048;stroke-width:1.0;"/><text fill="#000000" font-family="sans-serif" font-size="11" lengthAdjust="spacing" textLength="195" x="27" y="271.1143">«partial» Example(id:Guid) : ExampleDTO</text><!--MD5=[8ffd3a60d232544015bdf99effc30b1c]
class ExampleTypes--><rect codeLine="12" fill="#FEFECE" filter="url(#f17174q078j19v)" height="98.9531" id="ExampleTypes" style="stroke:#A80036;stroke-width:1.5;" width="310" x="252.5" y="7"/><ellipse cx="362.75" cy="34.6406" fill="#ADD1B2" rx="11" ry="11" style="stroke:#A80036;stroke-width:1.0;"/><path d="M365.5156,30.5156 Q365.6719,30.2969 365.8594,30.1875 Q366.0469,30.0781 366.2656,30.0781 Q366.6406,30.0781 366.875,30.3438 Q367.1094,30.5938 367.1094,31.2031 L367.1094,32.6563 Q367.1094,33.2656 366.875,33.5313 Q366.6406,33.7969 366.2656,33.7969 Q365.9219,33.7969 365.7188,33.5938 Q365.5156,33.4063 365.4063,32.8906 Q365.3594,32.5313 365.1719,32.3438 Q364.8438,31.9688 364.2344,31.75 Q363.625,31.5313 363,31.5313 Q362.2344,31.5313 361.5938,31.8594 Q360.9688,32.1875 360.4688,32.9375 Q359.9844,33.6875 359.9844,34.7188 L359.9844,35.8125 Q359.9844,37.0469 360.875,37.875 Q361.7656,38.6875 363.3594,38.6875 Q364.2969,38.6875 364.9531,38.4375 Q365.3438,38.2813 365.7656,37.8438 Q366.0313,37.5781 366.1719,37.5 Q366.3281,37.4219 366.5313,37.4219 Q366.8594,37.4219 367.1094,37.6875 Q367.375,37.9375 367.375,38.2813 Q367.375,38.625 367.0313,39.0313 Q366.5313,39.6094 365.7344,39.9375 Q364.6563,40.3906 363.3594,40.3906 Q361.8438,40.3906 360.6406,39.7656 Q359.6563,39.2656 358.9688,38.2031 Q358.2813,37.125 358.2813,35.8438 L358.2813,34.6875 Q358.2813,33.3594 358.8906,32.2188 Q359.5156,31.0625 360.6094,30.4531 Q361.7031,29.8281 362.9375,29.8281 Q363.6719,29.8281 364.3125,30 Q364.9688,30.1563 365.5156,30.5156 Z " fill="#000000"/><text fill="#000000" font-family="sans-serif" font-size="12" font-style="italic" lengthAdjust="spacing" textLength="42" x="402.75" y="24.457">«static»</text><text fill="#000000" font-family="sans-serif" font-size="12" font-style="italic" lengthAdjust="spacing" textLength="48" x="399.75" y="39.5508">«partial»</text><text fill="#000000" font-family="sans-serif" font-size="12" lengthAdjust="spacing" textLength="81" x="383.25" y="54.6445">ExampleTypes</text><line style="stroke:#A80036;stroke-width:1.5;" x1="253.5" x2="561.5" y1="62.2813" y2="62.2813"/><line style="stroke:#A80036;stroke-width:1.5;" x1="253.5" x2="561.5" y1="70.2813" y2="70.2813"/><ellipse cx="263.5" cy="81.2813" fill="#84BE84" rx="3" ry="3" style="stroke:#038048;stroke-width:1.0;"/><text fill="#000000" font-family="sans-serif" font-size="11" lengthAdjust="spacing" text-decoration="underline" textLength="213" x="272.5" y="85.7002">Dispatch(dto:CommandDTO) : CommandDTO</text><ellipse cx="263.5" cy="95.1172" fill="#84BE84" rx="3" ry="3" style="stroke:#038048;stroke-width:1.0;"/><text fill="#000000" font-family="sans-serif" font-size="11" lengthAdjust="spacing" text-decoration="underline" textLength="284" x="272.5" y="99.5361">GetTypes(commandTypes:List&lt;CommandTypeDTO&gt;) : void</text><!--MD5=[6b1d3384926f1bc892ee196bbd0d7fce]
class BaseDTO--><rect fill="#FEFECE" filter="url(#f17174q078j19v)" height="48" id="BaseDTO" style="stroke:#A80036;stroke-width:1.5;" width="86" x="352.5" y="198"/><ellipse cx="367.5" cy="214" fill="#ADD1B2" rx="11" ry="11" style="stroke:#A80036;stroke-width:1.0;"/><path d="M370.2656,209.875 Q370.4219,209.6563 370.6094,209.5469 Q370.7969,209.4375 371.0156,209.4375 Q371.3906,209.4375 371.625,209.7031 Q371.8594,209.9531 371.8594,210.5625 L371.8594,212.0156 Q371.8594,212.625 371.625,212.8906 Q371.3906,213.1563 371.0156,213.1563 Q370.6719,213.1563 370.4688,212.9531 Q370.2656,212.7656 370.1563,212.25 Q370.1094,211.8906 369.9219,211.7031 Q369.5938,211.3281 368.9844,211.1094 Q368.375,210.8906 367.75,210.8906 Q366.9844,210.8906 366.3438,211.2188 Q365.7188,211.5469 365.2188,212.2969 Q364.7344,213.0469 364.7344,214.0781 L364.7344,215.1719 Q364.7344,216.4063 365.625,217.2344 Q366.5156,218.0469 368.1094,218.0469 Q369.0469,218.0469 369.7031,217.7969 Q370.0938,217.6406 370.5156,217.2031 Q370.7813,216.9375 370.9219,216.8594 Q371.0781,216.7813 371.2813,216.7813 Q371.6094,216.7813 371.8594,217.0469 Q372.125,217.2969 372.125,217.6406 Q372.125,217.9844 371.7813,218.3906 Q371.2813,218.9688 370.4844,219.2969 Q369.4063,219.75 368.1094,219.75 Q366.5938,219.75 365.3906,219.125 Q364.4063,218.625 363.7188,217.5625 Q363.0313,216.4844 363.0313,215.2031 L363.0313,214.0469 Q363.0313,212.7188 363.6406,211.5781 Q364.2656,210.4219 365.3594,209.8125 Q366.4531,209.1875 367.6875,209.1875 Q368.4219,209.1875 369.0625,209.3594 Q369.7188,209.5156 370.2656,209.875 Z " fill="#000000"/><text fill="#000000" font-family="sans-serif" font-size="12" lengthAdjust="spacing" textLength="54" x="381.5" y="218.9102">BaseDTO</text><line style="stroke:#A80036;stroke-width:1.5;" x1="353.5" x2="437.5" y1="230" y2="230"/><line style="stroke:#A80036;stroke-width:1.5;" x1="353.5" x2="437.5" y1="238" y2="238"/><!--MD5=[b9f3d2915b6b8d0c143f32ccec3f745e]
class Guid--><rect fill="#FEFECE" filter="url(#f17174q078j19v)" height="48" id="Guid" style="stroke:#A80036;stroke-width:1.5;" width="58" x="92.5" y="446"/><ellipse cx="107.5" cy="462" fill="#ADD1B2" rx="11" ry="11" style="stroke:#A80036;stroke-width:1.0;"/><path d="M110.2656,457.875 Q110.4219,457.6563 110.6094,457.5469 Q110.7969,457.4375 111.0156,457.4375 Q111.3906,457.4375 111.625,457.7031 Q111.8594,457.9531 111.8594,458.5625 L111.8594,460.0156 Q111.8594,460.625 111.625,460.8906 Q111.3906,461.1563 111.0156,461.1563 Q110.6719,461.1563 110.4688,460.9531 Q110.2656,460.7656 110.1563,460.25 Q110.1094,459.8906 109.9219,459.7031 Q109.5938,459.3281 108.9844,459.1094 Q108.375,458.8906 107.75,458.8906 Q106.9844,458.8906 106.3438,459.2188 Q105.7188,459.5469 105.2188,460.2969 Q104.7344,461.0469 104.7344,462.0781 L104.7344,463.1719 Q104.7344,464.4063 105.625,465.2344 Q106.5156,466.0469 108.1094,466.0469 Q109.0469,466.0469 109.7031,465.7969 Q110.0938,465.6406 110.5156,465.2031 Q110.7813,464.9375 110.9219,464.8594 Q111.0781,464.7813 111.2813,464.7813 Q111.6094,464.7813 111.8594,465.0469 Q112.125,465.2969 112.125,465.6406 Q112.125,465.9844 111.7813,466.3906 Q111.2813,466.9688 110.4844,467.2969 Q109.4063,467.75 108.1094,467.75 Q106.5938,467.75 105.3906,467.125 Q104.4063,466.625 103.7188,465.5625 Q103.0313,464.4844 103.0313,463.2031 L103.0313,462.0469 Q103.0313,460.7188 103.6406,459.5781 Q104.2656,458.4219 105.3594,457.8125 Q106.4531,457.1875 107.6875,457.1875 Q108.4219,457.1875 109.0625,457.3594 Q109.7188,457.5156 110.2656,457.875 Z " fill="#000000"/><text fill="#000000" font-family="sans-serif" font-size="12" lengthAdjust="spacing" textLength="26" x="121.5" y="466.9102">Guid</text><line style="stroke:#A80036;stroke-width:1.5;" x1="93.5" x2="149.5" y1="478" y2="478"/><line style="stroke:#A80036;stroke-width:1.5;" x1="93.5" x2="149.5" y1="486" y2="486"/><!--MD5=[9df70cf33be424c1b8543b3f439cae89]
class String--><rect fill="#FEFECE" filter="url(#f17174q078j19v)" height="48" id="String" style="stroke:#A80036;stroke-width:1.5;" width="64" x="310.5" y="446"/><ellipse cx="325.5" cy="462" fill="#ADD1B2" rx="11" ry="11" style="stroke:#A80036;stroke-width:1.0;"/><path d="M328.2656,457.875 Q328.4219,457.6563 328.6094,457.5469 Q328.7969,457.4375 329.0156,457.4375 Q329.3906,457.4375 329.625,457.7031 Q329.8594,457.9531 329.8594,458.5625 L329.8594,460.0156 Q329.8594,460.625 329.625,460.8906 Q329.3906,461.1563 329.0156,461.1563 Q328.6719,461.1563 328.4688,460.9531 Q328.2656,460.7656 328.1563,460.25 Q328.1094,459.8906 327.9219,459.7031 Q327.5938,459.3281 326.9844,459.1094 Q326.375,458.8906 325.75,458.8906 Q324.9844,458.8906 324.3438,459.2188 Q323.7188,459.5469 323.2188,460.2969 Q322.7344,461.0469 322.7344,462.0781 L322.7344,463.1719 Q322.7344,464.4063 323.625,465.2344 Q324.5156,466.0469 326.1094,466.0469 Q327.0469,466.0469 327.7031,465.7969 Q328.0938,465.6406 328.5156,465.2031 Q328.7813,464.9375 328.9219,464.8594 Q329.0781,464.7813 329.2813,464.7813 Q329.6094,464.7813 329.8594,465.0469 Q330.125,465.2969 330.125,465.6406 Q330.125,465.9844 329.7813,466.3906 Q329.2813,466.9688 328.4844,467.2969 Q327.4063,467.75 326.1094,467.75 Q324.5938,467.75 323.3906,467.125 Q322.4063,466.625 321.7188,465.5625 Q321.0313,464.4844 321.0313,463.2031 L321.0313,462.0469 Q321.0313,460.7188 321.6406,459.5781 Q322.2656,458.4219 323.3594,457.8125 Q324.4531,457.1875 325.6875,457.1875 Q326.4219,457.1875 327.0625,457.3594 Q327.7188,457.5156 328.2656,457.875 Z " fill="#000000"/><text fill="#000000" font-family="sans-serif" font-size="12" lengthAdjust="spacing" textLength="32" x="339.5" y="466.9102">String</text><line style="stroke:#A80036;stroke-width:1.5;" x1="311.5" x2="373.5" y1="478" y2="478"/><line style="stroke:#A80036;stroke-width:1.5;" x1="311.5" x2="373.5" y1="486" y2="486"/><!--MD5=[31d9d567a1d652152733c83e75189006]
class Boolean--><rect fill="#FEFECE" filter="url(#f17174q078j19v)" height="48" id="Boolean" style="stroke:#A80036;stroke-width:1.5;" width="78" x="409.5" y="446"/><ellipse cx="424.5" cy="462" fill="#ADD1B2" rx="11" ry="11" style="stroke:#A80036;stroke-width:1.0;"/><path d="M427.2656,457.875 Q427.4219,457.6563 427.6094,457.5469 Q427.7969,457.4375 428.0156,457.4375 Q428.3906,457.4375 428.625,457.7031 Q428.8594,457.9531 428.8594,458.5625 L428.8594,460.0156 Q428.8594,460.625 428.625,460.8906 Q428.3906,461.1563 428.0156,461.1563 Q427.6719,461.1563 427.4688,460.9531 Q427.2656,460.7656 427.1563,460.25 Q427.1094,459.8906 426.9219,459.7031 Q426.5938,459.3281 425.9844,459.1094 Q425.375,458.8906 424.75,458.8906 Q423.9844,458.8906 423.3438,459.2188 Q422.7188,459.5469 422.2188,460.2969 Q421.7344,461.0469 421.7344,462.0781 L421.7344,463.1719 Q421.7344,464.4063 422.625,465.2344 Q423.5156,466.0469 425.1094,466.0469 Q426.0469,466.0469 426.7031,465.7969 Q427.0938,465.6406 427.5156,465.2031 Q427.7813,464.9375 427.9219,464.8594 Q428.0781,464.7813 428.2813,464.7813 Q428.6094,464.7813 428.8594,465.0469 Q429.125,465.2969 429.125,465.6406 Q429.125,465.9844 428.7813,466.3906 Q428.2813,466.9688 427.4844,467.2969 Q426.4063,467.75 425.1094,467.75 Q423.5938,467.75 422.3906,467.125 Q421.4063,466.625 420.7188,465.5625 Q420.0313,464.4844 420.0313,463.2031 L420.0313,462.0469 Q420.0313,460.7188 420.6406,459.5781 Q421.2656,458.4219 422.3594,457.8125 Q423.4531,457.1875 424.6875,457.1875 Q425.4219,457.1875 426.0625,457.3594 Q426.7188,457.5156 427.2656,457.875 Z " fill="#000000"/><text fill="#000000" font-family="sans-serif" font-size="12" lengthAdjust="spacing" textLength="46" x="438.5" y="466.9102">Boolean</text><line style="stroke:#A80036;stroke-width:1.5;" x1="410.5" x2="486.5" y1="478" y2="478"/><line style="stroke:#A80036;stroke-width:1.5;" x1="410.5" x2="486.5" y1="486" y2="486"/><!--MD5=[fe6b2754769bc87cf156126798433078]
class CommandWrapper--><rect fill="#FEFECE" filter="url(#f17174q078j19v)" height="48" id="CommandWrapper" style="stroke:#A80036;stroke-width:1.5;" width="138" x="79.5" y="32.5"/><ellipse cx="94.5" cy="48.5" fill="#ADD1B2" rx="11" ry="11" style="stroke:#A80036;stroke-width:1.0;"/><path d="M97.2656,44.375 Q97.4219,44.1563 97.6094,44.0469 Q97.7969,43.9375 98.0156,43.9375 Q98.3906,43.9375 98.625,44.2031 Q98.8594,44.4531 98.8594,45.0625 L98.8594,46.5156 Q98.8594,47.125 98.625,47.3906 Q98.3906,47.6563 98.0156,47.6563 Q97.6719,47.6563 97.4688,47.4531 Q97.2656,47.2656 97.1563,46.75 Q97.1094,46.3906 96.9219,46.2031 Q96.5938,45.8281 95.9844,45.6094 Q95.375,45.3906 94.75,45.3906 Q93.9844,45.3906 93.3438,45.7188 Q92.7188,46.0469 92.2188,46.7969 Q91.7344,47.5469 91.7344,48.5781 L91.7344,49.6719 Q91.7344,50.9063 92.625,51.7344 Q93.5156,52.5469 95.1094,52.5469 Q96.0469,52.5469 96.7031,52.2969 Q97.0938,52.1406 97.5156,51.7031 Q97.7813,51.4375 97.9219,51.3594 Q98.0781,51.2813 98.2813,51.2813 Q98.6094,51.2813 98.8594,51.5469 Q99.125,51.7969 99.125,52.1406 Q99.125,52.4844 98.7813,52.8906 Q98.2813,53.4688 97.4844,53.7969 Q96.4063,54.25 95.1094,54.25 Q93.5938,54.25 92.3906,53.625 Q91.4063,53.125 90.7188,52.0625 Q90.0313,50.9844 90.0313,49.7031 L90.0313,48.5469 Q90.0313,47.2188 90.6406,46.0781 Q91.2656,44.9219 92.3594,44.3125 Q93.4531,43.6875 94.6875,43.6875 Q95.4219,43.6875 96.0625,43.8594 Q96.7188,44.0156 97.2656,44.375 Z " fill="#000000"/><text fill="#000000" font-family="sans-serif" font-size="12" lengthAdjust="spacing" textLength="106" x="108.5" y="53.4102">CommandWrapper</text><line style="stroke:#A80036;stroke-width:1.5;" x1="80.5" x2="216.5" y1="64.5" y2="64.5"/><line style="stroke:#A80036;stroke-width:1.5;" x1="80.5" x2="216.5" y1="72.5" y2="72.5"/><!--MD5=[f5d54f60ec6d089d1cb017027d5a65a8]
class CommandDTO--><rect fill="#FEFECE" filter="url(#f17174q078j19v)" height="48" id="CommandDTO" style="stroke:#A80036;stroke-width:1.5;" width="116" x="191.5" y="338"/><ellipse cx="206.5" cy="354" fill="#ADD1B2" rx="11" ry="11" style="stroke:#A80036;stroke-width:1.0;"/><path d="M209.2656,349.875 Q209.4219,349.6563 209.6094,349.5469 Q209.7969,349.4375 210.0156,349.4375 Q210.3906,349.4375 210.625,349.7031 Q210.8594,349.9531 210.8594,350.5625 L210.8594,352.0156 Q210.8594,352.625 210.625,352.8906 Q210.3906,353.1563 210.0156,353.1563 Q209.6719,353.1563 209.4688,352.9531 Q209.2656,352.7656 209.1563,352.25 Q209.1094,351.8906 208.9219,351.7031 Q208.5938,351.3281 207.9844,351.1094 Q207.375,350.8906 206.75,350.8906 Q205.9844,350.8906 205.3438,351.2188 Q204.7188,351.5469 204.2188,352.2969 Q203.7344,353.0469 203.7344,354.0781 L203.7344,355.1719 Q203.7344,356.4063 204.625,357.2344 Q205.5156,358.0469 207.1094,358.0469 Q208.0469,358.0469 208.7031,357.7969 Q209.0938,357.6406 209.5156,357.2031 Q209.7813,356.9375 209.9219,356.8594 Q210.0781,356.7813 210.2813,356.7813 Q210.6094,356.7813 210.8594,357.0469 Q211.125,357.2969 211.125,357.6406 Q211.125,357.9844 210.7813,358.3906 Q210.2813,358.9688 209.4844,359.2969 Q208.4063,359.75 207.1094,359.75 Q205.5938,359.75 204.3906,359.125 Q203.4063,358.625 202.7188,357.5625 Q202.0313,356.4844 202.0313,355.2031 L202.0313,354.0469 Q202.0313,352.7188 202.6406,351.5781 Q203.2656,350.4219 204.3594,349.8125 Q205.4531,349.1875 206.6875,349.1875 Q207.4219,349.1875 208.0625,349.3594 Q208.7188,349.5156 209.2656,349.875 Z " fill="#000000"/><text fill="#000000" font-family="sans-serif" font-size="12" lengthAdjust="spacing" textLength="84" x="220.5" y="358.9102">CommandDTO</text><line style="stroke:#A80036;stroke-width:1.5;" x1="192.5" x2="306.5" y1="370" y2="370"/><line style="stroke:#A80036;stroke-width:1.5;" x1="192.5" x2="306.5" y1="378" y2="378"/><!--MD5=[55599fb6e110154ffe03d83a19183cd5]
reverse link BaseDTO to ExampleDTO--><path codeLine="15" d="M395.5,266.13 C395.5,289.84 395.5,318.3 395.5,337.83 " fill="none" id="BaseDTO-backto-ExampleDTO" style="stroke:#A80036;stroke-width:1.0;"/><polygon fill="none" points="388.5,266.1,395.5,246.1,402.5,266.1,388.5,266.1" style="stroke:#A80036;stroke-width:1.0;"/><!--MD5=[1465245f1464d8967f5a03f3ced4e362]
link ExampleDTO to Guid--><path codeLine="16" d="M342.99,383.31 C287.71,404.7 202.31,437.74 155.34,455.91 " fill="none" id="ExampleDTO-to-Guid" style="stroke:#A80036;stroke-width:1.0;"/><polygon fill="#A80036" points="150.64,457.73,160.4763,458.2265,155.3056,455.9322,157.5999,450.7615,150.64,457.73" style="stroke:#A80036;stroke-width:1.0;"/><text fill="#000000" font-family="sans-serif" font-size="13" lengthAdjust="spacing" textLength="38" x="158.6132" y="451.897">TypeId</text><!--MD5=[ab671446be33cce44db24724a64af26a]
link ExampleDTO to String--><path codeLine="17" d="M384,386 C375.93,402.14 365.09,423.82 356.52,440.97 " fill="none" id="ExampleDTO-to-String" style="stroke:#A80036;stroke-width:1.0;"/><polygon fill="#A80036" points="354.16,445.68,361.7706,439.4287,356.4018,441.2107,354.6198,435.8419,354.16,445.68" style="stroke:#A80036;stroke-width:1.0;"/><text fill="#000000" font-family="sans-serif" font-size="13" lengthAdjust="spacing" textLength="24" x="330.0771" y="435.34">One</text><!--MD5=[8f98c3c2c799cb926bf1956daa4a9216]
link ExampleDTO to Boolean--><path codeLine="18" d="M407,386 C415.07,402.14 425.91,423.82 434.48,440.97 " fill="none" id="ExampleDTO-to-Boolean" style="stroke:#A80036;stroke-width:1.0;"/><polygon fill="#A80036" points="436.84,445.68,436.3802,435.8419,434.5982,441.2107,429.2294,439.4287,436.84,445.68" style="stroke:#A80036;stroke-width:1.0;"/><text fill="#000000" font-family="sans-serif" font-size="13" lengthAdjust="spacing" textLength="23" x="408.1947" y="435.34">Two</text><!--MD5=[d1855213f8c38c8f18f477ba1188e35a]
reverse link CommandWrapper to ExampleWrapper--><path codeLine="19" d="M148.5,100.74 C148.5,120.73 148.5,144.7 148.5,165.96 " fill="none" id="CommandWrapper-backto-ExampleWrapper" style="stroke:#A80036;stroke-width:1.0;"/><polygon fill="none" points="141.5,100.58,148.5,80.58,155.5,100.58,141.5,100.58" style="stroke:#A80036;stroke-width:1.0;"/><!--MD5=[4d51ae0d7fa5cc385f5eff90bc4de363]
link ExampleWrapper to Guid--><path codeLine="20" d="M131.6,278.21 C122.89,328.64 115.71,401.19 116.11,440.71 " fill="none" id="ExampleWrapper-to-Guid" style="stroke:#A80036;stroke-width:1.0;"/><polygon fill="#A80036" points="116.21,445.83,120.0292,436.7518,116.11,440.831,112.0308,436.9118,116.21,445.83" style="stroke:#A80036;stroke-width:1.0;"/><text fill="#000000" font-family="sans-serif" font-size="13" lengthAdjust="spacing" textLength="38" x="71.9857" y="435.1266">TypeId</text><!--MD5=[4d51ae0d7fa5cc385f5eff90bc4de363]
link ExampleWrapper to Guid--><path codeLine="22" d="M153.92,278.21 C151.74,328.64 142.95,401.19 133.6,440.71 " fill="none" id="ExampleWrapper-to-Guid-1" style="stroke:#A80036;stroke-width:1.0;"/><polygon fill="#A80036" points="132.34,445.83,138.3819,438.0521,133.5392,440.9759,130.6154,436.1333,132.34,445.83" style="stroke:#A80036;stroke-width:1.0;"/><text fill="#000000" font-family="sans-serif" font-size="13" lengthAdjust="spacing" textLength="10" x="123.8365" y="435.1266">Id</text><!--MD5=[30eb33891fac26156922439aaef8e04d]
link ExampleWrapper to CommandDTO--><path codeLine="21" d="M189,278.33 C202.84,297.25 217.73,317.6 229.28,333.37 " fill="none" id="ExampleWrapper-to-CommandDTO" style="stroke:#A80036;stroke-width:1.0;"/><polygon fill="#A80036" points="232.44,337.69,230.3389,328.0679,229.4813,333.6593,223.8899,332.8018,232.44,337.69" style="stroke:#A80036;stroke-width:1.0;"/><text fill="#000000" font-family="sans-serif" font-size="13" lengthAdjust="spacing" textLength="27" x="197.609" y="326.9507">Cmd</text><!--MD5=[e2548be97bf573d64e997d5a989c1a2d]
link ExampleWrapper to ExampleDTO--><path codeLine="23" d="M247.19,278.14 C282.64,297.95 320.95,319.35 349.75,335.44 " fill="none" id="ExampleWrapper-to-ExampleDTO" style="stroke:#A80036;stroke-width:1.0;"/><polygon fill="#A80036" points="354.29,337.97,348.3958,330.0796,349.9287,335.5248,344.4835,337.0577,354.29,337.97" style="stroke:#A80036;stroke-width:1.0;"/><text fill="#000000" font-family="sans-serif" font-size="13" lengthAdjust="spacing" textLength="37" x="302.3221" y="327.1149">Result</text><!--MD5=[a93328346a51b1b3fabb25a97fda24a3]
@startuml
class ExampleDTO {
}
class ExampleWrapper <<partial>> {
    + ExampleWrapper(dto:CommandDTO)
    + {static} IsForMe(dto:CommandDTO) : bool
    + {static} ExecuteCommand(dto:CommandDTO) : CommandDTO
    + <<partial>> Example(id:Guid) : ExampleDTO
}
class ExampleTypes <<static>> <<partial>> {
    + {static} Dispatch(dto:CommandDTO) : CommandDTO
}
class ExampleTypes <<static>> <<partial>> {
    + {static} GetTypes(commandTypes:List<CommandTypeDTO>) : void
}
BaseDTO <|- - ExampleDTO
ExampleDTO - -> "TypeId" Guid
ExampleDTO - -> "One" String
ExampleDTO - -> "Two" Boolean
CommandWrapper <|- - ExampleWrapper
ExampleWrapper - -> "TypeId" Guid
ExampleWrapper - -> "Cmd" CommandDTO
ExampleWrapper - -> "Id" Guid
ExampleWrapper - -> "Result" ExampleDTO
@enduml

PlantUML version 1.2021.10(Mon Aug 30 15:43:48 CEST 2021)
(GPL source distribution)
Java Runtime: Java(TM) SE Runtime Environment
JVM: Java HotSpot(TM) 64-Bit Server VM
Default Encoding: Cp1252
Language: de
Country: CH
--></g></svg>