<?xml version="1.0" encoding="UTF-8" standalone="no"?><svg xmlns="http://www.w3.org/2000/svg" xmlns:xlink="http://www.w3.org/1999/xlink" contentScriptType="application/ecmascript" contentStyleType="text/css" height="516px" preserveAspectRatio="none" style="width:2773px;height:516px;background:#FFFFFF;" version="1.1" viewBox="0 0 2773 516" width="2773px" zoomAndPan="magnify"><defs><filter height="300%" id="f1l7fdur5dtd9x" width="300%" x="-1" y="-1"><feGaussianBlur result="blurOut" stdDeviation="2.0"/><feColorMatrix in="blurOut" result="blurOut2" type="matrix" values="0 0 0 0 0 0 0 0 0 0 0 0 0 0 0 0 0 0 .4 0"/><feOffset dx="4.0" dy="4.0" in="blurOut2" result="blurOut3"/><feBlend in="SourceGraphic" in2="blurOut3" mode="normal"/></filter></defs><g><!--MD5=[a5d4fcdae0bd58dbfa0890c54d6b74e5]
class AdressDTO--><rect codeLine="1" fill="#FEFECE" filter="url(#f1l7fdur5dtd9x)" height="48" id="AdressDTO" style="stroke:#A80036;stroke-width:1.5;" width="96" x="260.5" y="342"/><ellipse cx="275.5" cy="358" fill="#ADD1B2" rx="11" ry="11" style="stroke:#A80036;stroke-width:1.0;"/><path d="M278.2656,353.875 Q278.4219,353.6563 278.6094,353.5469 Q278.7969,353.4375 279.0156,353.4375 Q279.3906,353.4375 279.625,353.6953 Q279.8594,353.9531 279.8594,354.5625 L279.8594,356.0156 Q279.8594,356.625 279.625,356.8906 Q279.3906,357.1563 279.0156,357.1563 Q278.6719,357.1563 278.4688,356.9531 Q278.2656,356.7656 278.1563,356.25 Q278.1094,355.8906 277.9219,355.7031 Q277.5938,355.3281 276.9844,355.1094 Q276.375,354.8906 275.75,354.8906 Q274.9844,354.8906 274.3516,355.2188 Q273.7188,355.5469 273.2266,356.2969 Q272.7344,357.0469 272.7344,358.0781 L272.7344,359.1719 Q272.7344,360.4063 273.625,361.2266 Q274.5156,362.0469 276.1094,362.0469 Q277.0469,362.0469 277.7031,361.7969 Q278.0938,361.6406 278.5156,361.2031 Q278.7813,360.9375 278.9297,360.8594 Q279.0781,360.7813 279.2813,360.7813 Q279.6094,360.7813 279.8672,361.0391 Q280.125,361.2969 280.125,361.6406 Q280.125,361.9844 279.7813,362.3906 Q279.2813,362.9688 278.4844,363.2969 Q277.4063,363.75 276.1094,363.75 Q274.5938,363.75 273.3906,363.125 Q272.4063,362.625 271.7188,361.5547 Q271.0313,360.4844 271.0313,359.2031 L271.0313,358.0469 Q271.0313,356.7188 271.6484,355.5703 Q272.2656,354.4219 273.3594,353.8047 Q274.4531,353.1875 275.6875,353.1875 Q276.4219,353.1875 277.0703,353.3516 Q277.7188,353.5156 278.2656,353.875 Z " fill="#000000"/><text fill="#000000" font-family="sans-serif" font-size="12" lengthAdjust="spacing" textLength="64" x="289.5" y="362.9102">AdressDTO</text><line style="stroke:#A80036;stroke-width:1.5;" x1="261.5" x2="355.5" y1="374" y2="374"/><line style="stroke:#A80036;stroke-width:1.5;" x1="261.5" x2="355.5" y1="382" y2="382"/><!--MD5=[52e7282596a0d0be74e41adb7f2f525a]
class FindAdresses--><rect codeLine="3" fill="#FEFECE" filter="url(#f1l7fdur5dtd9x)" height="111.5313" id="FindAdresses" style="stroke:#A80036;stroke-width:1.5;" width="283" x="1507" y="170"/><ellipse cx="1605.75" cy="190.0938" fill="#ADD1B2" rx="11" ry="11" style="stroke:#A80036;stroke-width:1.0;"/><path d="M1608.5156,185.9688 Q1608.6719,185.75 1608.8594,185.6406 Q1609.0469,185.5313 1609.2656,185.5313 Q1609.6406,185.5313 1609.875,185.7891 Q1610.1094,186.0469 1610.1094,186.6563 L1610.1094,188.1094 Q1610.1094,188.7188 1609.875,188.9844 Q1609.6406,189.25 1609.2656,189.25 Q1608.9219,189.25 1608.7188,189.0469 Q1608.5156,188.8594 1608.4063,188.3438 Q1608.3594,187.9844 1608.1719,187.7969 Q1607.8438,187.4219 1607.2344,187.2031 Q1606.625,186.9844 1606,186.9844 Q1605.2344,186.9844 1604.6016,187.3125 Q1603.9688,187.6406 1603.4766,188.3906 Q1602.9844,189.1406 1602.9844,190.1719 L1602.9844,191.2656 Q1602.9844,192.5 1603.875,193.3203 Q1604.7656,194.1406 1606.3594,194.1406 Q1607.2969,194.1406 1607.9531,193.8906 Q1608.3438,193.7344 1608.7656,193.2969 Q1609.0313,193.0313 1609.1797,192.9531 Q1609.3281,192.875 1609.5313,192.875 Q1609.8594,192.875 1610.1172,193.1328 Q1610.375,193.3906 1610.375,193.7344 Q1610.375,194.0781 1610.0313,194.4844 Q1609.5313,195.0625 1608.7344,195.3906 Q1607.6563,195.8438 1606.3594,195.8438 Q1604.8438,195.8438 1603.6406,195.2188 Q1602.6563,194.7188 1601.9688,193.6484 Q1601.2813,192.5781 1601.2813,191.2969 L1601.2813,190.1406 Q1601.2813,188.8125 1601.8984,187.6641 Q1602.5156,186.5156 1603.6094,185.8984 Q1604.7031,185.2813 1605.9375,185.2813 Q1606.6719,185.2813 1607.3203,185.4453 Q1607.9688,185.6094 1608.5156,185.9688 Z " fill="#000000"/><text fill="#000000" font-family="sans-serif" font-size="12" font-style="italic" lengthAdjust="spacing" textLength="48" x="1640.75" y="187.457">«partial»</text><text fill="#000000" font-family="sans-serif" font-size="12" lengthAdjust="spacing" textLength="77" x="1626.25" y="202.5508">FindAdresses</text><line style="stroke:#A80036;stroke-width:1.5;" x1="1508" x2="1789" y1="210.1875" y2="210.1875"/><line style="stroke:#A80036;stroke-width:1.5;" x1="1508" x2="1789" y1="218.1875" y2="218.1875"/><ellipse cx="1518" cy="229.1875" fill="#84BE84" rx="3" ry="3" style="stroke:#038048;stroke-width:1.0;"/><text fill="#000000" font-family="sans-serif" font-size="11" lengthAdjust="spacing" textLength="162" x="1527" y="233.6064">FindAdresses(dto:CommandDTO)</text><ellipse cx="1518" cy="243.0234" fill="#84BE84" rx="3" ry="3" style="stroke:#038048;stroke-width:1.0;"/><text fill="#000000" font-family="sans-serif" font-size="11" lengthAdjust="spacing" text-decoration="underline" textLength="161" x="1527" y="247.4424">IsForMe(dto:CommandDTO) : bool</text><ellipse cx="1518" cy="256.8594" fill="#84BE84" rx="3" ry="3" style="stroke:#038048;stroke-width:1.0;"/><text fill="#000000" font-family="sans-serif" font-size="11" lengthAdjust="spacing" text-decoration="underline" textLength="257" x="1527" y="261.2783">ExecuteCommand(dto:CommandDTO) : CommandDTO</text><ellipse cx="1518" cy="270.6953" fill="#84BE84" rx="3" ry="3" style="stroke:#038048;stroke-width:1.0;"/><text fill="#000000" font-family="sans-serif" font-size="11" lengthAdjust="spacing" textLength="215" x="1527" y="275.1143">«partial» ExecuteCommand() : CommandDTO</text><!--MD5=[e13a488fb3eda69cf7c1bc4ca3586afc]
class GetAdress--><rect codeLine="9" fill="#FEFECE" filter="url(#f1l7fdur5dtd9x)" height="111.5313" id="GetAdress" style="stroke:#A80036;stroke-width:1.5;" width="283" x="7" y="170"/><ellipse cx="115.25" cy="190.0938" fill="#ADD1B2" rx="11" ry="11" style="stroke:#A80036;stroke-width:1.0;"/><path d="M118.0156,185.9688 Q118.1719,185.75 118.3594,185.6406 Q118.5469,185.5313 118.7656,185.5313 Q119.1406,185.5313 119.375,185.7891 Q119.6094,186.0469 119.6094,186.6563 L119.6094,188.1094 Q119.6094,188.7188 119.375,188.9844 Q119.1406,189.25 118.7656,189.25 Q118.4219,189.25 118.2188,189.0469 Q118.0156,188.8594 117.9063,188.3438 Q117.8594,187.9844 117.6719,187.7969 Q117.3438,187.4219 116.7344,187.2031 Q116.125,186.9844 115.5,186.9844 Q114.7344,186.9844 114.1016,187.3125 Q113.4688,187.6406 112.9766,188.3906 Q112.4844,189.1406 112.4844,190.1719 L112.4844,191.2656 Q112.4844,192.5 113.375,193.3203 Q114.2656,194.1406 115.8594,194.1406 Q116.7969,194.1406 117.4531,193.8906 Q117.8438,193.7344 118.2656,193.2969 Q118.5313,193.0313 118.6797,192.9531 Q118.8281,192.875 119.0313,192.875 Q119.3594,192.875 119.6172,193.1328 Q119.875,193.3906 119.875,193.7344 Q119.875,194.0781 119.5313,194.4844 Q119.0313,195.0625 118.2344,195.3906 Q117.1563,195.8438 115.8594,195.8438 Q114.3438,195.8438 113.1406,195.2188 Q112.1563,194.7188 111.4688,193.6484 Q110.7813,192.5781 110.7813,191.2969 L110.7813,190.1406 Q110.7813,188.8125 111.3984,187.6641 Q112.0156,186.5156 113.1094,185.8984 Q114.2031,185.2813 115.4375,185.2813 Q116.1719,185.2813 116.8203,185.4453 Q117.4688,185.6094 118.0156,185.9688 Z " fill="#000000"/><text fill="#000000" font-family="sans-serif" font-size="12" font-style="italic" lengthAdjust="spacing" textLength="48" x="140.75" y="187.457">«partial»</text><text fill="#000000" font-family="sans-serif" font-size="12" lengthAdjust="spacing" textLength="58" x="135.75" y="202.5508">GetAdress</text><line style="stroke:#A80036;stroke-width:1.5;" x1="8" x2="289" y1="210.1875" y2="210.1875"/><line style="stroke:#A80036;stroke-width:1.5;" x1="8" x2="289" y1="218.1875" y2="218.1875"/><ellipse cx="18" cy="229.1875" fill="#84BE84" rx="3" ry="3" style="stroke:#038048;stroke-width:1.0;"/><text fill="#000000" font-family="sans-serif" font-size="11" lengthAdjust="spacing" textLength="147" x="27" y="233.6064">GetAdress(dto:CommandDTO)</text><ellipse cx="18" cy="243.0234" fill="#84BE84" rx="3" ry="3" style="stroke:#038048;stroke-width:1.0;"/><text fill="#000000" font-family="sans-serif" font-size="11" lengthAdjust="spacing" text-decoration="underline" textLength="161" x="27" y="247.4424">IsForMe(dto:CommandDTO) : bool</text><ellipse cx="18" cy="256.8594" fill="#84BE84" rx="3" ry="3" style="stroke:#038048;stroke-width:1.0;"/><text fill="#000000" font-family="sans-serif" font-size="11" lengthAdjust="spacing" text-decoration="underline" textLength="257" x="27" y="261.2783">ExecuteCommand(dto:CommandDTO) : CommandDTO</text><ellipse cx="18" cy="270.6953" fill="#84BE84" rx="3" ry="3" style="stroke:#038048;stroke-width:1.0;"/><text fill="#000000" font-family="sans-serif" font-size="11" lengthAdjust="spacing" textLength="215" x="27" y="275.1143">«partial» ExecuteCommand() : CommandDTO</text><!--MD5=[5612b83e7a8dad6225856d806bf84e08]
class SetAdress--><rect codeLine="15" fill="#FEFECE" filter="url(#f1l7fdur5dtd9x)" height="111.5313" id="SetAdress" style="stroke:#A80036;stroke-width:1.5;" width="283" x="325" y="170"/><ellipse cx="433.75" cy="190.0938" fill="#ADD1B2" rx="11" ry="11" style="stroke:#A80036;stroke-width:1.0;"/><path d="M436.5156,185.9688 Q436.6719,185.75 436.8594,185.6406 Q437.0469,185.5313 437.2656,185.5313 Q437.6406,185.5313 437.875,185.7891 Q438.1094,186.0469 438.1094,186.6563 L438.1094,188.1094 Q438.1094,188.7188 437.875,188.9844 Q437.6406,189.25 437.2656,189.25 Q436.9219,189.25 436.7188,189.0469 Q436.5156,188.8594 436.4063,188.3438 Q436.3594,187.9844 436.1719,187.7969 Q435.8438,187.4219 435.2344,187.2031 Q434.625,186.9844 434,186.9844 Q433.2344,186.9844 432.6016,187.3125 Q431.9688,187.6406 431.4766,188.3906 Q430.9844,189.1406 430.9844,190.1719 L430.9844,191.2656 Q430.9844,192.5 431.875,193.3203 Q432.7656,194.1406 434.3594,194.1406 Q435.2969,194.1406 435.9531,193.8906 Q436.3438,193.7344 436.7656,193.2969 Q437.0313,193.0313 437.1797,192.9531 Q437.3281,192.875 437.5313,192.875 Q437.8594,192.875 438.1172,193.1328 Q438.375,193.3906 438.375,193.7344 Q438.375,194.0781 438.0313,194.4844 Q437.5313,195.0625 436.7344,195.3906 Q435.6563,195.8438 434.3594,195.8438 Q432.8438,195.8438 431.6406,195.2188 Q430.6563,194.7188 429.9688,193.6484 Q429.2813,192.5781 429.2813,191.2969 L429.2813,190.1406 Q429.2813,188.8125 429.8984,187.6641 Q430.5156,186.5156 431.6094,185.8984 Q432.7031,185.2813 433.9375,185.2813 Q434.6719,185.2813 435.3203,185.4453 Q435.9688,185.6094 436.5156,185.9688 Z " fill="#000000"/><text fill="#000000" font-family="sans-serif" font-size="12" font-style="italic" lengthAdjust="spacing" textLength="48" x="458.75" y="187.457">«partial»</text><text fill="#000000" font-family="sans-serif" font-size="12" lengthAdjust="spacing" textLength="57" x="454.25" y="202.5508">SetAdress</text><line style="stroke:#A80036;stroke-width:1.5;" x1="326" x2="607" y1="210.1875" y2="210.1875"/><line style="stroke:#A80036;stroke-width:1.5;" x1="326" x2="607" y1="218.1875" y2="218.1875"/><ellipse cx="336" cy="229.1875" fill="#84BE84" rx="3" ry="3" style="stroke:#038048;stroke-width:1.0;"/><text fill="#000000" font-family="sans-serif" font-size="11" lengthAdjust="spacing" textLength="146" x="345" y="233.6064">SetAdress(dto:CommandDTO)</text><ellipse cx="336" cy="243.0234" fill="#84BE84" rx="3" ry="3" style="stroke:#038048;stroke-width:1.0;"/><text fill="#000000" font-family="sans-serif" font-size="11" lengthAdjust="spacing" text-decoration="underline" textLength="161" x="345" y="247.4424">IsForMe(dto:CommandDTO) : bool</text><ellipse cx="336" cy="256.8594" fill="#84BE84" rx="3" ry="3" style="stroke:#038048;stroke-width:1.0;"/><text fill="#000000" font-family="sans-serif" font-size="11" lengthAdjust="spacing" text-decoration="underline" textLength="257" x="345" y="261.2783">ExecuteCommand(dto:CommandDTO) : CommandDTO</text><ellipse cx="336" cy="270.6953" fill="#84BE84" rx="3" ry="3" style="stroke:#038048;stroke-width:1.0;"/><text fill="#000000" font-family="sans-serif" font-size="11" lengthAdjust="spacing" textLength="215" x="345" y="275.1143">«partial» ExecuteCommand() : CommandDTO</text><!--MD5=[9445adbca05695301a39cf2527b3960a]
class AdressTypesDispatcher--><rect codeLine="21" fill="#FEFECE" filter="url(#f1l7fdur5dtd9x)" height="70.0234" id="AdressTypesDispatcher" style="stroke:#A80036;stroke-width:1.5;" width="239" x="2037" y="23.5"/><ellipse cx="2086.25" cy="43.5938" fill="#ADD1B2" rx="11" ry="11" style="stroke:#A80036;stroke-width:1.0;"/><path d="M2089.0156,39.4688 Q2089.1719,39.25 2089.3594,39.1406 Q2089.5469,39.0313 2089.7656,39.0313 Q2090.1406,39.0313 2090.375,39.2891 Q2090.6094,39.5469 2090.6094,40.1563 L2090.6094,41.6094 Q2090.6094,42.2188 2090.375,42.4844 Q2090.1406,42.75 2089.7656,42.75 Q2089.4219,42.75 2089.2188,42.5469 Q2089.0156,42.3594 2088.9063,41.8438 Q2088.8594,41.4844 2088.6719,41.2969 Q2088.3438,40.9219 2087.7344,40.7031 Q2087.125,40.4844 2086.5,40.4844 Q2085.7344,40.4844 2085.1016,40.8125 Q2084.4688,41.1406 2083.9766,41.8906 Q2083.4844,42.6406 2083.4844,43.6719 L2083.4844,44.7656 Q2083.4844,46 2084.375,46.8203 Q2085.2656,47.6406 2086.8594,47.6406 Q2087.7969,47.6406 2088.4531,47.3906 Q2088.8438,47.2344 2089.2656,46.7969 Q2089.5313,46.5313 2089.6797,46.4531 Q2089.8281,46.375 2090.0313,46.375 Q2090.3594,46.375 2090.6172,46.6328 Q2090.875,46.8906 2090.875,47.2344 Q2090.875,47.5781 2090.5313,47.9844 Q2090.0313,48.5625 2089.2344,48.8906 Q2088.1563,49.3438 2086.8594,49.3438 Q2085.3438,49.3438 2084.1406,48.7188 Q2083.1563,48.2188 2082.4688,47.1484 Q2081.7813,46.0781 2081.7813,44.7969 L2081.7813,43.6406 Q2081.7813,42.3125 2082.3984,41.1641 Q2083.0156,40.0156 2084.1094,39.3984 Q2085.2031,38.7813 2086.4375,38.7813 Q2087.1719,38.7813 2087.8203,38.9453 Q2088.4688,39.1094 2089.0156,39.4688 Z " fill="#000000"/><text fill="#000000" font-family="sans-serif" font-size="12" font-style="italic" lengthAdjust="spacing" textLength="42" x="2151.75" y="40.957">«static»</text><text fill="#000000" font-family="sans-serif" font-size="12" lengthAdjust="spacing" textLength="132" x="2106.75" y="56.0508">AdressTypesDispatcher</text><line style="stroke:#A80036;stroke-width:1.5;" x1="2038" x2="2275" y1="63.6875" y2="63.6875"/><line style="stroke:#A80036;stroke-width:1.5;" x1="2038" x2="2275" y1="71.6875" y2="71.6875"/><ellipse cx="2048" cy="82.6875" fill="#84BE84" rx="3" ry="3" style="stroke:#038048;stroke-width:1.0;"/><text fill="#000000" font-family="sans-serif" font-size="11" lengthAdjust="spacing" text-decoration="underline" textLength="213" x="2057" y="87.1064">Dispatch(dto:CommandDTO) : CommandDTO</text><!--MD5=[e644022de7dea015dd09463c37421447]
class List`1--><rect codeLine="103" fill="#FEFECE" filter="url(#f1l7fdur5dtd9x)" height="48" id="List`1" style="stroke:#A80036;stroke-width:1.5;" width="74" x="1553.5" y="450"/><ellipse cx="1568.5" cy="466" fill="#ADD1B2" rx="11" ry="11" style="stroke:#A80036;stroke-width:1.0;"/><path d="M1571.2656,461.875 Q1571.4219,461.6563 1571.6094,461.5469 Q1571.7969,461.4375 1572.0156,461.4375 Q1572.3906,461.4375 1572.625,461.6953 Q1572.8594,461.9531 1572.8594,462.5625 L1572.8594,464.0156 Q1572.8594,464.625 1572.625,464.8906 Q1572.3906,465.1563 1572.0156,465.1563 Q1571.6719,465.1563 1571.4688,464.9531 Q1571.2656,464.7656 1571.1563,464.25 Q1571.1094,463.8906 1570.9219,463.7031 Q1570.5938,463.3281 1569.9844,463.1094 Q1569.375,462.8906 1568.75,462.8906 Q1567.9844,462.8906 1567.3516,463.2188 Q1566.7188,463.5469 1566.2266,464.2969 Q1565.7344,465.0469 1565.7344,466.0781 L1565.7344,467.1719 Q1565.7344,468.4063 1566.625,469.2266 Q1567.5156,470.0469 1569.1094,470.0469 Q1570.0469,470.0469 1570.7031,469.7969 Q1571.0938,469.6406 1571.5156,469.2031 Q1571.7813,468.9375 1571.9297,468.8594 Q1572.0781,468.7813 1572.2813,468.7813 Q1572.6094,468.7813 1572.8672,469.0391 Q1573.125,469.2969 1573.125,469.6406 Q1573.125,469.9844 1572.7813,470.3906 Q1572.2813,470.9688 1571.4844,471.2969 Q1570.4063,471.75 1569.1094,471.75 Q1567.5938,471.75 1566.3906,471.125 Q1565.4063,470.625 1564.7188,469.5547 Q1564.0313,468.4844 1564.0313,467.2031 L1564.0313,466.0469 Q1564.0313,464.7188 1564.6484,463.5703 Q1565.2656,462.4219 1566.3594,461.8047 Q1567.4531,461.1875 1568.6875,461.1875 Q1569.4219,461.1875 1570.0703,461.3516 Q1570.7188,461.5156 1571.2656,461.875 Z " fill="#000000"/><text fill="#000000" font-family="sans-serif" font-size="12" lengthAdjust="spacing" textLength="31" x="1582.5" y="470.9102">List`1</text><rect fill="#FFFFFF" height="17.0938" style="stroke:#000000;stroke-width:1.0;stroke-dasharray:2.0,2.0;" width="9" x="1621.5" y="447"/><text fill="#000000" font-family="sans-serif" font-size="12" font-style="italic" lengthAdjust="spacing" textLength="7" x="1622.5" y="460.457">T</text><line style="stroke:#A80036;stroke-width:1.5;" x1="1554.5" x2="1626.5" y1="482" y2="482"/><line style="stroke:#A80036;stroke-width:1.5;" x1="1554.5" x2="1626.5" y1="490" y2="490"/><!--MD5=[6b1d3384926f1bc892ee196bbd0d7fce]
class BaseDTO--><rect codeLine="57" fill="#FEFECE" filter="url(#f1l7fdur5dtd9x)" height="111.5313" id="BaseDTO" style="stroke:#A80036;stroke-width:1.5;" width="439" x="1033" y="170"/><ellipse cx="1221.25" cy="190.0938" fill="#ADD1B2" rx="11" ry="11" style="stroke:#A80036;stroke-width:1.0;"/><path d="M1224.0156,185.9688 Q1224.1719,185.75 1224.3594,185.6406 Q1224.5469,185.5313 1224.7656,185.5313 Q1225.1406,185.5313 1225.375,185.7891 Q1225.6094,186.0469 1225.6094,186.6563 L1225.6094,188.1094 Q1225.6094,188.7188 1225.375,188.9844 Q1225.1406,189.25 1224.7656,189.25 Q1224.4219,189.25 1224.2188,189.0469 Q1224.0156,188.8594 1223.9063,188.3438 Q1223.8594,187.9844 1223.6719,187.7969 Q1223.3438,187.4219 1222.7344,187.2031 Q1222.125,186.9844 1221.5,186.9844 Q1220.7344,186.9844 1220.1016,187.3125 Q1219.4688,187.6406 1218.9766,188.3906 Q1218.4844,189.1406 1218.4844,190.1719 L1218.4844,191.2656 Q1218.4844,192.5 1219.375,193.3203 Q1220.2656,194.1406 1221.8594,194.1406 Q1222.7969,194.1406 1223.4531,193.8906 Q1223.8438,193.7344 1224.2656,193.2969 Q1224.5313,193.0313 1224.6797,192.9531 Q1224.8281,192.875 1225.0313,192.875 Q1225.3594,192.875 1225.6172,193.1328 Q1225.875,193.3906 1225.875,193.7344 Q1225.875,194.0781 1225.5313,194.4844 Q1225.0313,195.0625 1224.2344,195.3906 Q1223.1563,195.8438 1221.8594,195.8438 Q1220.3438,195.8438 1219.1406,195.2188 Q1218.1563,194.7188 1217.4688,193.6484 Q1216.7813,192.5781 1216.7813,191.2969 L1216.7813,190.1406 Q1216.7813,188.8125 1217.3984,187.6641 Q1218.0156,186.5156 1219.1094,185.8984 Q1220.2031,185.2813 1221.4375,185.2813 Q1222.1719,185.2813 1222.8203,185.4453 Q1223.4688,185.6094 1224.0156,185.9688 Z " fill="#000000"/><text fill="#000000" font-family="sans-serif" font-size="12" font-style="italic" lengthAdjust="spacing" textLength="48" x="1244.75" y="187.457">«partial»</text><text fill="#000000" font-family="sans-serif" font-size="12" lengthAdjust="spacing" textLength="54" x="1241.75" y="202.5508">BaseDTO</text><line style="stroke:#A80036;stroke-width:1.5;" x1="1034" x2="1471" y1="210.1875" y2="210.1875"/><line style="stroke:#A80036;stroke-width:1.5;" x1="1034" x2="1471" y1="218.1875" y2="218.1875"/><polygon fill="#FFFF44" points="1044,224.1875,1048,228.1875,1044,232.1875,1040,228.1875" style="stroke:#B38D22;stroke-width:1.0;"/><text fill="#000000" font-family="sans-serif" font-size="11" lengthAdjust="spacing" textLength="323" x="1053" y="233.6064">StringFromPropertyList(list:List&lt;PropertyDTO&gt;, name:string) : string</text><polygon fill="#FFFF44" points="1044,238.0234,1048,242.0234,1044,246.0234,1040,242.0234" style="stroke:#B38D22;stroke-width:1.0;"/><text fill="#000000" font-family="sans-serif" font-size="11" lengthAdjust="spacing" textLength="390" x="1053" y="247.4424">StringToPropertyList(list:List&lt;PropertyDTO&gt;, name:string, newValue:string) : void</text><polygon fill="#FFFF44" points="1044,251.8594,1048,255.8594,1044,259.8594,1040,255.8594" style="stroke:#B38D22;stroke-width:1.0;"/><text fill="#000000" font-family="sans-serif" font-size="11" lengthAdjust="spacing" textLength="346" x="1053" y="261.2783">BooleanFromPropertyList(list:List&lt;PropertyDTO&gt;, name:string) : Boolean</text><polygon fill="#FFFF44" points="1044,265.6953,1048,269.6953,1044,273.6953,1040,269.6953" style="stroke:#B38D22;stroke-width:1.0;"/><text fill="#000000" font-family="sans-serif" font-size="11" lengthAdjust="spacing" textLength="413" x="1053" y="275.1143">BooleanToPropertyList(list:List&lt;PropertyDTO&gt;, name:string, newValue:Boolean) : void</text><!--MD5=[b9f3d2915b6b8d0c143f32ccec3f745e]
class Guid--><rect fill="#FEFECE" filter="url(#f1l7fdur5dtd9x)" height="48" id="Guid" style="stroke:#A80036;stroke-width:1.5;" width="58" x="853.5" y="450"/><ellipse cx="868.5" cy="466" fill="#ADD1B2" rx="11" ry="11" style="stroke:#A80036;stroke-width:1.0;"/><path d="M871.2656,461.875 Q871.4219,461.6563 871.6094,461.5469 Q871.7969,461.4375 872.0156,461.4375 Q872.3906,461.4375 872.625,461.6953 Q872.8594,461.9531 872.8594,462.5625 L872.8594,464.0156 Q872.8594,464.625 872.625,464.8906 Q872.3906,465.1563 872.0156,465.1563 Q871.6719,465.1563 871.4688,464.9531 Q871.2656,464.7656 871.1563,464.25 Q871.1094,463.8906 870.9219,463.7031 Q870.5938,463.3281 869.9844,463.1094 Q869.375,462.8906 868.75,462.8906 Q867.9844,462.8906 867.3516,463.2188 Q866.7188,463.5469 866.2266,464.2969 Q865.7344,465.0469 865.7344,466.0781 L865.7344,467.1719 Q865.7344,468.4063 866.625,469.2266 Q867.5156,470.0469 869.1094,470.0469 Q870.0469,470.0469 870.7031,469.7969 Q871.0938,469.6406 871.5156,469.2031 Q871.7813,468.9375 871.9297,468.8594 Q872.0781,468.7813 872.2813,468.7813 Q872.6094,468.7813 872.8672,469.0391 Q873.125,469.2969 873.125,469.6406 Q873.125,469.9844 872.7813,470.3906 Q872.2813,470.9688 871.4844,471.2969 Q870.4063,471.75 869.1094,471.75 Q867.5938,471.75 866.3906,471.125 Q865.4063,470.625 864.7188,469.5547 Q864.0313,468.4844 864.0313,467.2031 L864.0313,466.0469 Q864.0313,464.7188 864.6484,463.5703 Q865.2656,462.4219 866.3594,461.8047 Q867.4531,461.1875 868.6875,461.1875 Q869.4219,461.1875 870.0703,461.3516 Q870.7188,461.5156 871.2656,461.875 Z " fill="#000000"/><text fill="#000000" font-family="sans-serif" font-size="12" lengthAdjust="spacing" textLength="26" x="882.5" y="470.9102">Guid</text><line style="stroke:#A80036;stroke-width:1.5;" x1="854.5" x2="910.5" y1="482" y2="482"/><line style="stroke:#A80036;stroke-width:1.5;" x1="854.5" x2="910.5" y1="490" y2="490"/><!--MD5=[9df70cf33be424c1b8543b3f439cae89]
class String--><rect fill="#FEFECE" filter="url(#f1l7fdur5dtd9x)" height="48" id="String" style="stroke:#A80036;stroke-width:1.5;" width="64" x="276.5" y="450"/><ellipse cx="291.5" cy="466" fill="#ADD1B2" rx="11" ry="11" style="stroke:#A80036;stroke-width:1.0;"/><path d="M294.2656,461.875 Q294.4219,461.6563 294.6094,461.5469 Q294.7969,461.4375 295.0156,461.4375 Q295.3906,461.4375 295.625,461.6953 Q295.8594,461.9531 295.8594,462.5625 L295.8594,464.0156 Q295.8594,464.625 295.625,464.8906 Q295.3906,465.1563 295.0156,465.1563 Q294.6719,465.1563 294.4688,464.9531 Q294.2656,464.7656 294.1563,464.25 Q294.1094,463.8906 293.9219,463.7031 Q293.5938,463.3281 292.9844,463.1094 Q292.375,462.8906 291.75,462.8906 Q290.9844,462.8906 290.3516,463.2188 Q289.7188,463.5469 289.2266,464.2969 Q288.7344,465.0469 288.7344,466.0781 L288.7344,467.1719 Q288.7344,468.4063 289.625,469.2266 Q290.5156,470.0469 292.1094,470.0469 Q293.0469,470.0469 293.7031,469.7969 Q294.0938,469.6406 294.5156,469.2031 Q294.7813,468.9375 294.9297,468.8594 Q295.0781,468.7813 295.2813,468.7813 Q295.6094,468.7813 295.8672,469.0391 Q296.125,469.2969 296.125,469.6406 Q296.125,469.9844 295.7813,470.3906 Q295.2813,470.9688 294.4844,471.2969 Q293.4063,471.75 292.1094,471.75 Q290.5938,471.75 289.3906,471.125 Q288.4063,470.625 287.7188,469.5547 Q287.0313,468.4844 287.0313,467.2031 L287.0313,466.0469 Q287.0313,464.7188 287.6484,463.5703 Q288.2656,462.4219 289.3594,461.8047 Q290.4531,461.1875 291.6875,461.1875 Q292.4219,461.1875 293.0703,461.3516 Q293.7188,461.5156 294.2656,461.875 Z " fill="#000000"/><text fill="#000000" font-family="sans-serif" font-size="12" lengthAdjust="spacing" textLength="32" x="305.5" y="470.9102">String</text><line style="stroke:#A80036;stroke-width:1.5;" x1="277.5" x2="339.5" y1="482" y2="482"/><line style="stroke:#A80036;stroke-width:1.5;" x1="277.5" x2="339.5" y1="490" y2="490"/><!--MD5=[fe6b2754769bc87cf156126798433078]
class CommandWrapper--><rect codeLine="84" fill="#FEFECE" filter="url(#f1l7fdur5dtd9x)" height="103.3438" id="CommandWrapper" style="stroke:#A80036;stroke-width:1.5;" width="443" x="563" y="7"/><ellipse cx="727.25" cy="23" fill="#ADD1B2" rx="11" ry="11" style="stroke:#A80036;stroke-width:1.0;"/><path d="M730.0156,18.875 Q730.1719,18.6563 730.3594,18.5469 Q730.5469,18.4375 730.7656,18.4375 Q731.1406,18.4375 731.375,18.6953 Q731.6094,18.9531 731.6094,19.5625 L731.6094,21.0156 Q731.6094,21.625 731.375,21.8906 Q731.1406,22.1563 730.7656,22.1563 Q730.4219,22.1563 730.2188,21.9531 Q730.0156,21.7656 729.9063,21.25 Q729.8594,20.8906 729.6719,20.7031 Q729.3438,20.3281 728.7344,20.1094 Q728.125,19.8906 727.5,19.8906 Q726.7344,19.8906 726.1016,20.2188 Q725.4688,20.5469 724.9766,21.2969 Q724.4844,22.0469 724.4844,23.0781 L724.4844,24.1719 Q724.4844,25.4063 725.375,26.2266 Q726.2656,27.0469 727.8594,27.0469 Q728.7969,27.0469 729.4531,26.7969 Q729.8438,26.6406 730.2656,26.2031 Q730.5313,25.9375 730.6797,25.8594 Q730.8281,25.7813 731.0313,25.7813 Q731.3594,25.7813 731.6172,26.0391 Q731.875,26.2969 731.875,26.6406 Q731.875,26.9844 731.5313,27.3906 Q731.0313,27.9688 730.2344,28.2969 Q729.1563,28.75 727.8594,28.75 Q726.3438,28.75 725.1406,28.125 Q724.1563,27.625 723.4688,26.5547 Q722.7813,25.4844 722.7813,24.2031 L722.7813,23.0469 Q722.7813,21.7188 723.3984,20.5703 Q724.0156,19.4219 725.1094,18.8047 Q726.2031,18.1875 727.4375,18.1875 Q728.1719,18.1875 728.8203,18.3516 Q729.4688,18.5156 730.0156,18.875 Z " fill="#000000"/><text fill="#000000" font-family="sans-serif" font-size="12" lengthAdjust="spacing" textLength="106" x="747.75" y="27.9102">CommandWrapper</text><line style="stroke:#A80036;stroke-width:1.5;" x1="564" x2="1005" y1="39" y2="39"/><line style="stroke:#A80036;stroke-width:1.5;" x1="564" x2="1005" y1="47" y2="47"/><ellipse cx="574" cy="58" fill="#84BE84" rx="3" ry="3" style="stroke:#038048;stroke-width:1.0;"/><text fill="#000000" font-family="sans-serif" font-size="11" lengthAdjust="spacing" textLength="183" x="583" y="62.4189">CommandWrapper(dto:CommandDTO)</text><polygon fill="#FFFF44" points="574,66.8359,578,70.8359,574,74.8359,570,70.8359" style="stroke:#B38D22;stroke-width:1.0;"/><text fill="#000000" font-family="sans-serif" font-size="11" lengthAdjust="spacing" textLength="385" x="583" y="76.2549">Get(cmd:CommandDTO, name:string, target:(Func&lt;T&gt; get, Action&lt;T&gt; set)) : void</text><polygon fill="#FFFF44" points="574,80.6719,578,84.6719,574,88.6719,570,84.6719" style="stroke:#B38D22;stroke-width:1.0;"/><text fill="#000000" font-family="sans-serif" font-size="11" lengthAdjust="spacing" textLength="417" x="583" y="90.0908">Get(cmd:CommandDTO, name:string, target:(Func&lt;Guid&gt; get, Action&lt;Guid&gt; set)) : void</text><polygon fill="#FFFF44" points="574,94.5078,578,98.5078,574,102.5078,570,98.5078" style="stroke:#B38D22;stroke-width:1.0;"/><text fill="#000000" font-family="sans-serif" font-size="11" lengthAdjust="spacing" textLength="247" x="583" y="103.9268">Set(cmd:CommandDTO, name:string, value:T) : void</text><!--MD5=[f5d54f60ec6d089d1cb017027d5a65a8]
class CommandDTO--><rect codeLine="92" fill="#FEFECE" filter="url(#f1l7fdur5dtd9x)" height="48" id="CommandDTO" style="stroke:#A80036;stroke-width:1.5;" width="116" x="880.5" y="342"/><ellipse cx="895.5" cy="358" fill="#ADD1B2" rx="11" ry="11" style="stroke:#A80036;stroke-width:1.0;"/><path d="M898.2656,353.875 Q898.4219,353.6563 898.6094,353.5469 Q898.7969,353.4375 899.0156,353.4375 Q899.3906,353.4375 899.625,353.6953 Q899.8594,353.9531 899.8594,354.5625 L899.8594,356.0156 Q899.8594,356.625 899.625,356.8906 Q899.3906,357.1563 899.0156,357.1563 Q898.6719,357.1563 898.4688,356.9531 Q898.2656,356.7656 898.1563,356.25 Q898.1094,355.8906 897.9219,355.7031 Q897.5938,355.3281 896.9844,355.1094 Q896.375,354.8906 895.75,354.8906 Q894.9844,354.8906 894.3516,355.2188 Q893.7188,355.5469 893.2266,356.2969 Q892.7344,357.0469 892.7344,358.0781 L892.7344,359.1719 Q892.7344,360.4063 893.625,361.2266 Q894.5156,362.0469 896.1094,362.0469 Q897.0469,362.0469 897.7031,361.7969 Q898.0938,361.6406 898.5156,361.2031 Q898.7813,360.9375 898.9297,360.8594 Q899.0781,360.7813 899.2813,360.7813 Q899.6094,360.7813 899.8672,361.0391 Q900.125,361.2969 900.125,361.6406 Q900.125,361.9844 899.7813,362.3906 Q899.2813,362.9688 898.4844,363.2969 Q897.4063,363.75 896.1094,363.75 Q894.5938,363.75 893.3906,363.125 Q892.4063,362.625 891.7188,361.5547 Q891.0313,360.4844 891.0313,359.2031 L891.0313,358.0469 Q891.0313,356.7188 891.6484,355.5703 Q892.2656,354.4219 893.3594,353.8047 Q894.4531,353.1875 895.6875,353.1875 Q896.4219,353.1875 897.0703,353.3516 Q897.7188,353.5156 898.2656,353.875 Z " fill="#000000"/><text fill="#000000" font-family="sans-serif" font-size="12" lengthAdjust="spacing" textLength="84" x="909.5" y="362.9102">CommandDTO</text><line style="stroke:#A80036;stroke-width:1.5;" x1="881.5" x2="995.5" y1="374" y2="374"/><line style="stroke:#A80036;stroke-width:1.5;" x1="881.5" x2="995.5" y1="382" y2="382"/><!--MD5=[a8c0967d7b66f43265179b07355379df]
class PropertyDTO--><rect codeLine="59" fill="#FEFECE" filter="url(#f1l7fdur5dtd9x)" height="48" id="PropertyDTO" style="stroke:#A80036;stroke-width:1.5;" width="102" x="462.5" y="342"/><ellipse cx="477.5" cy="358" fill="#ADD1B2" rx="11" ry="11" style="stroke:#A80036;stroke-width:1.0;"/><path d="M480.2656,353.875 Q480.4219,353.6563 480.6094,353.5469 Q480.7969,353.4375 481.0156,353.4375 Q481.3906,353.4375 481.625,353.6953 Q481.8594,353.9531 481.8594,354.5625 L481.8594,356.0156 Q481.8594,356.625 481.625,356.8906 Q481.3906,357.1563 481.0156,357.1563 Q480.6719,357.1563 480.4688,356.9531 Q480.2656,356.7656 480.1563,356.25 Q480.1094,355.8906 479.9219,355.7031 Q479.5938,355.3281 478.9844,355.1094 Q478.375,354.8906 477.75,354.8906 Q476.9844,354.8906 476.3516,355.2188 Q475.7188,355.5469 475.2266,356.2969 Q474.7344,357.0469 474.7344,358.0781 L474.7344,359.1719 Q474.7344,360.4063 475.625,361.2266 Q476.5156,362.0469 478.1094,362.0469 Q479.0469,362.0469 479.7031,361.7969 Q480.0938,361.6406 480.5156,361.2031 Q480.7813,360.9375 480.9297,360.8594 Q481.0781,360.7813 481.2813,360.7813 Q481.6094,360.7813 481.8672,361.0391 Q482.125,361.2969 482.125,361.6406 Q482.125,361.9844 481.7813,362.3906 Q481.2813,362.9688 480.4844,363.2969 Q479.4063,363.75 478.1094,363.75 Q476.5938,363.75 475.3906,363.125 Q474.4063,362.625 473.7188,361.5547 Q473.0313,360.4844 473.0313,359.2031 L473.0313,358.0469 Q473.0313,356.7188 473.6484,355.5703 Q474.2656,354.4219 475.3594,353.8047 Q476.4531,353.1875 477.6875,353.1875 Q478.4219,353.1875 479.0703,353.3516 Q479.7188,353.5156 480.2656,353.875 Z " fill="#000000"/><text fill="#000000" font-family="sans-serif" font-size="12" lengthAdjust="spacing" textLength="70" x="491.5" y="362.9102">PropertyDTO</text><line style="stroke:#A80036;stroke-width:1.5;" x1="463.5" x2="563.5" y1="374" y2="374"/><line style="stroke:#A80036;stroke-width:1.5;" x1="463.5" x2="563.5" y1="382" y2="382"/><!--MD5=[a86c46b503d2a734898010b41f2fcc93]
class ObjectDTO--><rect codeLine="61" fill="#FEFECE" filter="url(#f1l7fdur5dtd9x)" height="48" id="ObjectDTO" style="stroke:#A80036;stroke-width:1.5;" width="92" x="1544.5" y="342"/><ellipse cx="1559.5" cy="358" fill="#ADD1B2" rx="11" ry="11" style="stroke:#A80036;stroke-width:1.0;"/><path d="M1562.2656,353.875 Q1562.4219,353.6563 1562.6094,353.5469 Q1562.7969,353.4375 1563.0156,353.4375 Q1563.3906,353.4375 1563.625,353.6953 Q1563.8594,353.9531 1563.8594,354.5625 L1563.8594,356.0156 Q1563.8594,356.625 1563.625,356.8906 Q1563.3906,357.1563 1563.0156,357.1563 Q1562.6719,357.1563 1562.4688,356.9531 Q1562.2656,356.7656 1562.1563,356.25 Q1562.1094,355.8906 1561.9219,355.7031 Q1561.5938,355.3281 1560.9844,355.1094 Q1560.375,354.8906 1559.75,354.8906 Q1558.9844,354.8906 1558.3516,355.2188 Q1557.7188,355.5469 1557.2266,356.2969 Q1556.7344,357.0469 1556.7344,358.0781 L1556.7344,359.1719 Q1556.7344,360.4063 1557.625,361.2266 Q1558.5156,362.0469 1560.1094,362.0469 Q1561.0469,362.0469 1561.7031,361.7969 Q1562.0938,361.6406 1562.5156,361.2031 Q1562.7813,360.9375 1562.9297,360.8594 Q1563.0781,360.7813 1563.2813,360.7813 Q1563.6094,360.7813 1563.8672,361.0391 Q1564.125,361.2969 1564.125,361.6406 Q1564.125,361.9844 1563.7813,362.3906 Q1563.2813,362.9688 1562.4844,363.2969 Q1561.4063,363.75 1560.1094,363.75 Q1558.5938,363.75 1557.3906,363.125 Q1556.4063,362.625 1555.7188,361.5547 Q1555.0313,360.4844 1555.0313,359.2031 L1555.0313,358.0469 Q1555.0313,356.7188 1555.6484,355.5703 Q1556.2656,354.4219 1557.3594,353.8047 Q1558.4531,353.1875 1559.6875,353.1875 Q1560.4219,353.1875 1561.0703,353.3516 Q1561.7188,353.5156 1562.2656,353.875 Z " fill="#000000"/><text fill="#000000" font-family="sans-serif" font-size="12" lengthAdjust="spacing" textLength="60" x="1573.5" y="362.9102">ObjectDTO</text><line style="stroke:#A80036;stroke-width:1.5;" x1="1545.5" x2="1635.5" y1="374" y2="374"/><line style="stroke:#A80036;stroke-width:1.5;" x1="1545.5" x2="1635.5" y1="382" y2="382"/><!--MD5=[ab65f1b894babecd782f1df810423109]
class TypeDTO--><rect codeLine="63" fill="#FEFECE" filter="url(#f1l7fdur5dtd9x)" height="48" id="TypeDTO" style="stroke:#A80036;stroke-width:1.5;" width="83" x="1355" y="342"/><ellipse cx="1370" cy="358" fill="#ADD1B2" rx="11" ry="11" style="stroke:#A80036;stroke-width:1.0;"/><path d="M1372.7656,353.875 Q1372.9219,353.6563 1373.1094,353.5469 Q1373.2969,353.4375 1373.5156,353.4375 Q1373.8906,353.4375 1374.125,353.6953 Q1374.3594,353.9531 1374.3594,354.5625 L1374.3594,356.0156 Q1374.3594,356.625 1374.125,356.8906 Q1373.8906,357.1563 1373.5156,357.1563 Q1373.1719,357.1563 1372.9688,356.9531 Q1372.7656,356.7656 1372.6563,356.25 Q1372.6094,355.8906 1372.4219,355.7031 Q1372.0938,355.3281 1371.4844,355.1094 Q1370.875,354.8906 1370.25,354.8906 Q1369.4844,354.8906 1368.8516,355.2188 Q1368.2188,355.5469 1367.7266,356.2969 Q1367.2344,357.0469 1367.2344,358.0781 L1367.2344,359.1719 Q1367.2344,360.4063 1368.125,361.2266 Q1369.0156,362.0469 1370.6094,362.0469 Q1371.5469,362.0469 1372.2031,361.7969 Q1372.5938,361.6406 1373.0156,361.2031 Q1373.2813,360.9375 1373.4297,360.8594 Q1373.5781,360.7813 1373.7813,360.7813 Q1374.1094,360.7813 1374.3672,361.0391 Q1374.625,361.2969 1374.625,361.6406 Q1374.625,361.9844 1374.2813,362.3906 Q1373.7813,362.9688 1372.9844,363.2969 Q1371.9063,363.75 1370.6094,363.75 Q1369.0938,363.75 1367.8906,363.125 Q1366.9063,362.625 1366.2188,361.5547 Q1365.5313,360.4844 1365.5313,359.2031 L1365.5313,358.0469 Q1365.5313,356.7188 1366.1484,355.5703 Q1366.7656,354.4219 1367.8594,353.8047 Q1368.9531,353.1875 1370.1875,353.1875 Q1370.9219,353.1875 1371.5703,353.3516 Q1372.2188,353.5156 1372.7656,353.875 Z " fill="#000000"/><text fill="#000000" font-family="sans-serif" font-size="12" lengthAdjust="spacing" textLength="51" x="1384" y="362.9102">TypeDTO</text><line style="stroke:#A80036;stroke-width:1.5;" x1="1356" x2="1437" y1="374" y2="374"/><line style="stroke:#A80036;stroke-width:1.5;" x1="1356" x2="1437" y1="382" y2="382"/><!--MD5=[c1f063b1d619a33d7306ce784b596c98]
class BaseTypesDispatcher--><rect codeLine="65" fill="#FEFECE" filter="url(#f1l7fdur5dtd9x)" height="70.0234" id="BaseTypesDispatcher" style="stroke:#A80036;stroke-width:1.5;" width="239" x="2311" y="23.5"/><ellipse cx="2365.25" cy="43.5938" fill="#ADD1B2" rx="11" ry="11" style="stroke:#A80036;stroke-width:1.0;"/><path d="M2368.0156,39.4688 Q2368.1719,39.25 2368.3594,39.1406 Q2368.5469,39.0313 2368.7656,39.0313 Q2369.1406,39.0313 2369.375,39.2891 Q2369.6094,39.5469 2369.6094,40.1563 L2369.6094,41.6094 Q2369.6094,42.2188 2369.375,42.4844 Q2369.1406,42.75 2368.7656,42.75 Q2368.4219,42.75 2368.2188,42.5469 Q2368.0156,42.3594 2367.9063,41.8438 Q2367.8594,41.4844 2367.6719,41.2969 Q2367.3438,40.9219 2366.7344,40.7031 Q2366.125,40.4844 2365.5,40.4844 Q2364.7344,40.4844 2364.1016,40.8125 Q2363.4688,41.1406 2362.9766,41.8906 Q2362.4844,42.6406 2362.4844,43.6719 L2362.4844,44.7656 Q2362.4844,46 2363.375,46.8203 Q2364.2656,47.6406 2365.8594,47.6406 Q2366.7969,47.6406 2367.4531,47.3906 Q2367.8438,47.2344 2368.2656,46.7969 Q2368.5313,46.5313 2368.6797,46.4531 Q2368.8281,46.375 2369.0313,46.375 Q2369.3594,46.375 2369.6172,46.6328 Q2369.875,46.8906 2369.875,47.2344 Q2369.875,47.5781 2369.5313,47.9844 Q2369.0313,48.5625 2368.2344,48.8906 Q2367.1563,49.3438 2365.8594,49.3438 Q2364.3438,49.3438 2363.1406,48.7188 Q2362.1563,48.2188 2361.4688,47.1484 Q2360.7813,46.0781 2360.7813,44.7969 L2360.7813,43.6406 Q2360.7813,42.3125 2361.3984,41.1641 Q2362.0156,40.0156 2363.1094,39.3984 Q2364.2031,38.7813 2365.4375,38.7813 Q2366.1719,38.7813 2366.8203,38.9453 Q2367.4688,39.1094 2368.0156,39.4688 Z " fill="#000000"/><text fill="#000000" font-family="sans-serif" font-size="12" font-style="italic" lengthAdjust="spacing" textLength="42" x="2425.75" y="40.957">«static»</text><text fill="#000000" font-family="sans-serif" font-size="12" lengthAdjust="spacing" textLength="122" x="2385.75" y="56.0508">BaseTypesDispatcher</text><line style="stroke:#A80036;stroke-width:1.5;" x1="2312" x2="2549" y1="63.6875" y2="63.6875"/><line style="stroke:#A80036;stroke-width:1.5;" x1="2312" x2="2549" y1="71.6875" y2="71.6875"/><ellipse cx="2322" cy="82.6875" fill="#84BE84" rx="3" ry="3" style="stroke:#038048;stroke-width:1.0;"/><text fill="#000000" font-family="sans-serif" font-size="11" lengthAdjust="spacing" text-decoration="underline" textLength="213" x="2331" y="87.1064">Dispatch(dto:CommandDTO) : CommandDTO</text><!--MD5=[2e5eef0b4d63f4248e617bf3425bfdf1]
class ObjectWrapper--><rect codeLine="81" fill="#FEFECE" filter="url(#f1l7fdur5dtd9x)" height="61.8359" id="ObjectWrapper" style="stroke:#A80036;stroke-width:1.5;" width="177" x="1825" y="195"/><ellipse cx="1868.35" cy="211" fill="#ADD1B2" rx="11" ry="11" style="stroke:#A80036;stroke-width:1.0;"/><path d="M1871.1156,206.875 Q1871.2719,206.6563 1871.4594,206.5469 Q1871.6469,206.4375 1871.8656,206.4375 Q1872.2406,206.4375 1872.475,206.6953 Q1872.7094,206.9531 1872.7094,207.5625 L1872.7094,209.0156 Q1872.7094,209.625 1872.475,209.8906 Q1872.2406,210.1563 1871.8656,210.1563 Q1871.5219,210.1563 1871.3188,209.9531 Q1871.1156,209.7656 1871.0063,209.25 Q1870.9594,208.8906 1870.7719,208.7031 Q1870.4438,208.3281 1869.8344,208.1094 Q1869.225,207.8906 1868.6,207.8906 Q1867.8344,207.8906 1867.2016,208.2188 Q1866.5688,208.5469 1866.0766,209.2969 Q1865.5844,210.0469 1865.5844,211.0781 L1865.5844,212.1719 Q1865.5844,213.4063 1866.475,214.2266 Q1867.3656,215.0469 1868.9594,215.0469 Q1869.8969,215.0469 1870.5531,214.7969 Q1870.9438,214.6406 1871.3656,214.2031 Q1871.6313,213.9375 1871.7797,213.8594 Q1871.9281,213.7813 1872.1313,213.7813 Q1872.4594,213.7813 1872.7172,214.0391 Q1872.975,214.2969 1872.975,214.6406 Q1872.975,214.9844 1872.6313,215.3906 Q1872.1313,215.9688 1871.3344,216.2969 Q1870.2563,216.75 1868.9594,216.75 Q1867.4438,216.75 1866.2406,216.125 Q1865.2563,215.625 1864.5688,214.5547 Q1863.8813,213.4844 1863.8813,212.2031 L1863.8813,211.0469 Q1863.8813,209.7188 1864.4984,208.5703 Q1865.1156,207.4219 1866.2094,206.8047 Q1867.3031,206.1875 1868.5375,206.1875 Q1869.2719,206.1875 1869.9203,206.3516 Q1870.5688,206.5156 1871.1156,206.875 Z " fill="#000000"/><text fill="#000000" font-family="sans-serif" font-size="12" lengthAdjust="spacing" textLength="82" x="1888.65" y="215.9102">ObjectWrapper</text><line style="stroke:#A80036;stroke-width:1.5;" x1="1826" x2="2001" y1="227" y2="227"/><line style="stroke:#A80036;stroke-width:1.5;" x1="1826" x2="2001" y1="235" y2="235"/><ellipse cx="1836" cy="246" fill="#84BE84" rx="3" ry="3" style="stroke:#038048;stroke-width:1.0;"/><text fill="#000000" font-family="sans-serif" font-size="11" lengthAdjust="spacing" textLength="151" x="1845" y="250.4189">ObjectWrapper(dto:ObjectDTO)</text><!--MD5=[e1bd7e737a982ea09f66fa1ad831429f]
class SampleCommand--><rect codeLine="94" fill="#FEFECE" filter="url(#f1l7fdur5dtd9x)" height="111.5313" id="SampleCommand" style="stroke:#A80036;stroke-width:1.5;" width="283" x="643" y="170"/><ellipse cx="729.25" cy="190.0938" fill="#ADD1B2" rx="11" ry="11" style="stroke:#A80036;stroke-width:1.0;"/><path d="M732.0156,185.9688 Q732.1719,185.75 732.3594,185.6406 Q732.5469,185.5313 732.7656,185.5313 Q733.1406,185.5313 733.375,185.7891 Q733.6094,186.0469 733.6094,186.6563 L733.6094,188.1094 Q733.6094,188.7188 733.375,188.9844 Q733.1406,189.25 732.7656,189.25 Q732.4219,189.25 732.2188,189.0469 Q732.0156,188.8594 731.9063,188.3438 Q731.8594,187.9844 731.6719,187.7969 Q731.3438,187.4219 730.7344,187.2031 Q730.125,186.9844 729.5,186.9844 Q728.7344,186.9844 728.1016,187.3125 Q727.4688,187.6406 726.9766,188.3906 Q726.4844,189.1406 726.4844,190.1719 L726.4844,191.2656 Q726.4844,192.5 727.375,193.3203 Q728.2656,194.1406 729.8594,194.1406 Q730.7969,194.1406 731.4531,193.8906 Q731.8438,193.7344 732.2656,193.2969 Q732.5313,193.0313 732.6797,192.9531 Q732.8281,192.875 733.0313,192.875 Q733.3594,192.875 733.6172,193.1328 Q733.875,193.3906 733.875,193.7344 Q733.875,194.0781 733.5313,194.4844 Q733.0313,195.0625 732.2344,195.3906 Q731.1563,195.8438 729.8594,195.8438 Q728.3438,195.8438 727.1406,195.2188 Q726.1563,194.7188 725.4688,193.6484 Q724.7813,192.5781 724.7813,191.2969 L724.7813,190.1406 Q724.7813,188.8125 725.3984,187.6641 Q726.0156,186.5156 727.1094,185.8984 Q728.2031,185.2813 729.4375,185.2813 Q730.1719,185.2813 730.8203,185.4453 Q731.4688,185.6094 732.0156,185.9688 Z " fill="#000000"/><text fill="#000000" font-family="sans-serif" font-size="12" font-style="italic" lengthAdjust="spacing" textLength="48" x="776.75" y="187.457">«partial»</text><text fill="#000000" font-family="sans-serif" font-size="12" lengthAdjust="spacing" textLength="102" x="749.75" y="202.5508">SampleCommand</text><line style="stroke:#A80036;stroke-width:1.5;" x1="644" x2="925" y1="210.1875" y2="210.1875"/><line style="stroke:#A80036;stroke-width:1.5;" x1="644" x2="925" y1="218.1875" y2="218.1875"/><ellipse cx="654" cy="229.1875" fill="#84BE84" rx="3" ry="3" style="stroke:#038048;stroke-width:1.0;"/><text fill="#000000" font-family="sans-serif" font-size="11" lengthAdjust="spacing" textLength="176" x="663" y="233.6064">SampleCommand(dto:CommandDTO)</text><ellipse cx="654" cy="243.0234" fill="#84BE84" rx="3" ry="3" style="stroke:#038048;stroke-width:1.0;"/><text fill="#000000" font-family="sans-serif" font-size="11" lengthAdjust="spacing" text-decoration="underline" textLength="161" x="663" y="247.4424">IsForMe(dto:CommandDTO) : bool</text><ellipse cx="654" cy="256.8594" fill="#84BE84" rx="3" ry="3" style="stroke:#038048;stroke-width:1.0;"/><text fill="#000000" font-family="sans-serif" font-size="11" lengthAdjust="spacing" text-decoration="underline" textLength="257" x="663" y="261.2783">ExecuteCommand(dto:CommandDTO) : CommandDTO</text><ellipse cx="654" cy="270.6953" fill="#84BE84" rx="3" ry="3" style="stroke:#038048;stroke-width:1.0;"/><text fill="#000000" font-family="sans-serif" font-size="11" lengthAdjust="spacing" textLength="215" x="663" y="275.1143">«partial» ExecuteCommand() : CommandDTO</text><!--MD5=[ba03fc88c0e35b013a46564b4a2ab72f]
class CommandTypesDispatcher--><rect codeLine="100" fill="#FEFECE" filter="url(#f1l7fdur5dtd9x)" height="70.0234" id="CommandTypesDispatcher" style="stroke:#A80036;stroke-width:1.5;" width="239" x="2037" y="191"/><ellipse cx="2076.75" cy="211.0938" fill="#ADD1B2" rx="11" ry="11" style="stroke:#A80036;stroke-width:1.0;"/><path d="M2079.5156,206.9688 Q2079.6719,206.75 2079.8594,206.6406 Q2080.0469,206.5313 2080.2656,206.5313 Q2080.6406,206.5313 2080.875,206.7891 Q2081.1094,207.0469 2081.1094,207.6563 L2081.1094,209.1094 Q2081.1094,209.7188 2080.875,209.9844 Q2080.6406,210.25 2080.2656,210.25 Q2079.9219,210.25 2079.7188,210.0469 Q2079.5156,209.8594 2079.4063,209.3438 Q2079.3594,208.9844 2079.1719,208.7969 Q2078.8438,208.4219 2078.2344,208.2031 Q2077.625,207.9844 2077,207.9844 Q2076.2344,207.9844 2075.6016,208.3125 Q2074.9688,208.6406 2074.4766,209.3906 Q2073.9844,210.1406 2073.9844,211.1719 L2073.9844,212.2656 Q2073.9844,213.5 2074.875,214.3203 Q2075.7656,215.1406 2077.3594,215.1406 Q2078.2969,215.1406 2078.9531,214.8906 Q2079.3438,214.7344 2079.7656,214.2969 Q2080.0313,214.0313 2080.1797,213.9531 Q2080.3281,213.875 2080.5313,213.875 Q2080.8594,213.875 2081.1172,214.1328 Q2081.375,214.3906 2081.375,214.7344 Q2081.375,215.0781 2081.0313,215.4844 Q2080.5313,216.0625 2079.7344,216.3906 Q2078.6563,216.8438 2077.3594,216.8438 Q2075.8438,216.8438 2074.6406,216.2188 Q2073.6563,215.7188 2072.9688,214.6484 Q2072.2813,213.5781 2072.2813,212.2969 L2072.2813,211.1406 Q2072.2813,209.8125 2072.8984,208.6641 Q2073.5156,207.5156 2074.6094,206.8984 Q2075.7031,206.2813 2076.9375,206.2813 Q2077.6719,206.2813 2078.3203,206.4453 Q2078.9688,206.6094 2079.5156,206.9688 Z " fill="#000000"/><text fill="#000000" font-family="sans-serif" font-size="12" font-style="italic" lengthAdjust="spacing" textLength="42" x="2151.25" y="208.457">«static»</text><text fill="#000000" font-family="sans-serif" font-size="12" lengthAdjust="spacing" textLength="152" x="2096.25" y="223.5508">CommandTypesDispatcher</text><line style="stroke:#A80036;stroke-width:1.5;" x1="2038" x2="2275" y1="231.1875" y2="231.1875"/><line style="stroke:#A80036;stroke-width:1.5;" x1="2038" x2="2275" y1="239.1875" y2="239.1875"/><ellipse cx="2048" cy="250.1875" fill="#84BE84" rx="3" ry="3" style="stroke:#038048;stroke-width:1.0;"/><text fill="#000000" font-family="sans-serif" font-size="11" lengthAdjust="spacing" text-decoration="underline" textLength="213" x="2057" y="254.6064">Dispatch(dto:CommandDTO) : CommandDTO</text><!--MD5=[31d9d567a1d652152733c83e75189006]
class Boolean--><rect fill="#FEFECE" filter="url(#f1l7fdur5dtd9x)" height="48" id="Boolean" style="stroke:#A80036;stroke-width:1.5;" width="78" x="1031.5" y="342"/><ellipse cx="1046.5" cy="358" fill="#ADD1B2" rx="11" ry="11" style="stroke:#A80036;stroke-width:1.0;"/><path d="M1049.2656,353.875 Q1049.4219,353.6563 1049.6094,353.5469 Q1049.7969,353.4375 1050.0156,353.4375 Q1050.3906,353.4375 1050.625,353.6953 Q1050.8594,353.9531 1050.8594,354.5625 L1050.8594,356.0156 Q1050.8594,356.625 1050.625,356.8906 Q1050.3906,357.1563 1050.0156,357.1563 Q1049.6719,357.1563 1049.4688,356.9531 Q1049.2656,356.7656 1049.1563,356.25 Q1049.1094,355.8906 1048.9219,355.7031 Q1048.5938,355.3281 1047.9844,355.1094 Q1047.375,354.8906 1046.75,354.8906 Q1045.9844,354.8906 1045.3516,355.2188 Q1044.7188,355.5469 1044.2266,356.2969 Q1043.7344,357.0469 1043.7344,358.0781 L1043.7344,359.1719 Q1043.7344,360.4063 1044.625,361.2266 Q1045.5156,362.0469 1047.1094,362.0469 Q1048.0469,362.0469 1048.7031,361.7969 Q1049.0938,361.6406 1049.5156,361.2031 Q1049.7813,360.9375 1049.9297,360.8594 Q1050.0781,360.7813 1050.2813,360.7813 Q1050.6094,360.7813 1050.8672,361.0391 Q1051.125,361.2969 1051.125,361.6406 Q1051.125,361.9844 1050.7813,362.3906 Q1050.2813,362.9688 1049.4844,363.2969 Q1048.4063,363.75 1047.1094,363.75 Q1045.5938,363.75 1044.3906,363.125 Q1043.4063,362.625 1042.7188,361.5547 Q1042.0313,360.4844 1042.0313,359.2031 L1042.0313,358.0469 Q1042.0313,356.7188 1042.6484,355.5703 Q1043.2656,354.4219 1044.3594,353.8047 Q1045.4531,353.1875 1046.6875,353.1875 Q1047.4219,353.1875 1048.0703,353.3516 Q1048.7188,353.5156 1049.2656,353.875 Z " fill="#000000"/><text fill="#000000" font-family="sans-serif" font-size="12" lengthAdjust="spacing" textLength="46" x="1060.5" y="362.9102">Boolean</text><line style="stroke:#A80036;stroke-width:1.5;" x1="1032.5" x2="1108.5" y1="374" y2="374"/><line style="stroke:#A80036;stroke-width:1.5;" x1="1032.5" x2="1108.5" y1="382" y2="382"/><!--MD5=[ac77ca89eaf889a9982f78fc59015e29]
class WeatherForecast--><rect codeLine="114" fill="#FEFECE" filter="url(#f1l7fdur5dtd9x)" height="89.5078" id="WeatherForecast" style="stroke:#A80036;stroke-width:1.5;" width="174" x="2585.5" y="13.5"/><ellipse cx="2622.1" cy="29.5" fill="#ADD1B2" rx="11" ry="11" style="stroke:#A80036;stroke-width:1.0;"/><path d="M2624.8656,25.375 Q2625.0219,25.1563 2625.2094,25.0469 Q2625.3969,24.9375 2625.6156,24.9375 Q2625.9906,24.9375 2626.225,25.1953 Q2626.4594,25.4531 2626.4594,26.0625 L2626.4594,27.5156 Q2626.4594,28.125 2626.225,28.3906 Q2625.9906,28.6563 2625.6156,28.6563 Q2625.2719,28.6563 2625.0688,28.4531 Q2624.8656,28.2656 2624.7563,27.75 Q2624.7094,27.3906 2624.5219,27.2031 Q2624.1938,26.8281 2623.5844,26.6094 Q2622.975,26.3906 2622.35,26.3906 Q2621.5844,26.3906 2620.9516,26.7188 Q2620.3188,27.0469 2619.8266,27.7969 Q2619.3344,28.5469 2619.3344,29.5781 L2619.3344,30.6719 Q2619.3344,31.9063 2620.225,32.7266 Q2621.1156,33.5469 2622.7094,33.5469 Q2623.6469,33.5469 2624.3031,33.2969 Q2624.6938,33.1406 2625.1156,32.7031 Q2625.3813,32.4375 2625.5297,32.3594 Q2625.6781,32.2813 2625.8813,32.2813 Q2626.2094,32.2813 2626.4672,32.5391 Q2626.725,32.7969 2626.725,33.1406 Q2626.725,33.4844 2626.3813,33.8906 Q2625.8813,34.4688 2625.0844,34.7969 Q2624.0063,35.25 2622.7094,35.25 Q2621.1938,35.25 2619.9906,34.625 Q2619.0063,34.125 2618.3188,33.0547 Q2617.6313,31.9844 2617.6313,30.7031 L2617.6313,29.5469 Q2617.6313,28.2188 2618.2484,27.0703 Q2618.8656,25.9219 2619.9594,25.3047 Q2621.0531,24.6875 2622.2875,24.6875 Q2623.0219,24.6875 2623.6703,24.8516 Q2624.3188,25.0156 2624.8656,25.375 Z " fill="#000000"/><text fill="#000000" font-family="sans-serif" font-size="12" lengthAdjust="spacing" textLength="94" x="2640.9" y="34.4102">WeatherForecast</text><line style="stroke:#A80036;stroke-width:1.5;" x1="2586.5" x2="2758.5" y1="45.5" y2="45.5"/><ellipse cx="2596.5" cy="56.5" rx="3" ry="3" style="stroke:#038048;stroke-width:1.0;fill:none;"/><text fill="#000000" font-family="sans-serif" font-size="11" lengthAdjust="spacing" textLength="148" x="2605.5" y="60.9189">TemperatureC : int «get» «set»</text><ellipse cx="2596.5" cy="70.3359" rx="3" ry="3" style="stroke:#038048;stroke-width:1.0;fill:none;"/><text fill="#000000" font-family="sans-serif" font-size="11" lengthAdjust="spacing" textLength="117" x="2605.5" y="74.7549">TemperatureF : int «get»</text><ellipse cx="2596.5" cy="84.1719" rx="3" ry="3" style="stroke:#038048;stroke-width:1.0;fill:none;"/><text fill="#000000" font-family="sans-serif" font-size="11" lengthAdjust="spacing" textLength="141" x="2605.5" y="88.5908">Summary : string «get» «set»</text><line style="stroke:#A80036;stroke-width:1.5;" x1="2586.5" x2="2758.5" y1="95.0078" y2="95.0078"/><!--MD5=[20ddef7090025b04fb973268620c0974]
class DateTime--><rect fill="#FEFECE" filter="url(#f1l7fdur5dtd9x)" height="48" id="DateTime" style="stroke:#A80036;stroke-width:1.5;" width="86" x="2629.5" y="202"/><ellipse cx="2644.5" cy="218" fill="#ADD1B2" rx="11" ry="11" style="stroke:#A80036;stroke-width:1.0;"/><path d="M2647.2656,213.875 Q2647.4219,213.6563 2647.6094,213.5469 Q2647.7969,213.4375 2648.0156,213.4375 Q2648.3906,213.4375 2648.625,213.6953 Q2648.8594,213.9531 2648.8594,214.5625 L2648.8594,216.0156 Q2648.8594,216.625 2648.625,216.8906 Q2648.3906,217.1563 2648.0156,217.1563 Q2647.6719,217.1563 2647.4688,216.9531 Q2647.2656,216.7656 2647.1563,216.25 Q2647.1094,215.8906 2646.9219,215.7031 Q2646.5938,215.3281 2645.9844,215.1094 Q2645.375,214.8906 2644.75,214.8906 Q2643.9844,214.8906 2643.3516,215.2188 Q2642.7188,215.5469 2642.2266,216.2969 Q2641.7344,217.0469 2641.7344,218.0781 L2641.7344,219.1719 Q2641.7344,220.4063 2642.625,221.2266 Q2643.5156,222.0469 2645.1094,222.0469 Q2646.0469,222.0469 2646.7031,221.7969 Q2647.0938,221.6406 2647.5156,221.2031 Q2647.7813,220.9375 2647.9297,220.8594 Q2648.0781,220.7813 2648.2813,220.7813 Q2648.6094,220.7813 2648.8672,221.0391 Q2649.125,221.2969 2649.125,221.6406 Q2649.125,221.9844 2648.7813,222.3906 Q2648.2813,222.9688 2647.4844,223.2969 Q2646.4063,223.75 2645.1094,223.75 Q2643.5938,223.75 2642.3906,223.125 Q2641.4063,222.625 2640.7188,221.5547 Q2640.0313,220.4844 2640.0313,219.2031 L2640.0313,218.0469 Q2640.0313,216.7188 2640.6484,215.5703 Q2641.2656,214.4219 2642.3594,213.8047 Q2643.4531,213.1875 2644.6875,213.1875 Q2645.4219,213.1875 2646.0703,213.3516 Q2646.7188,213.5156 2647.2656,213.875 Z " fill="#000000"/><text fill="#000000" font-family="sans-serif" font-size="12" lengthAdjust="spacing" textLength="54" x="2658.5" y="222.9102">DateTime</text><line style="stroke:#A80036;stroke-width:1.5;" x1="2630.5" x2="2714.5" y1="234" y2="234"/><line style="stroke:#A80036;stroke-width:1.5;" x1="2630.5" x2="2714.5" y1="242" y2="242"/><!--MD5=[78563b2dced031dcc99154e54e28d438]
reverse link BaseDTO to AdressDTO--><path codeLine="26" d="M1013.16,270.98 C989.65,274.88 966.13,278.63 943.5,282 C722.56,314.92 665.58,310.03 444.5,342 C415.23,346.23 382.55,351.73 356.56,356.3 " fill="none" id="BaseDTO-backto-AdressDTO" style="stroke:#A80036;stroke-width:1.0;"/><polygon fill="none" points="1012,264.07,1032.89,267.66,1014.32,277.88,1012,264.07" style="stroke:#A80036;stroke-width:1.0;"/><!--MD5=[fbaf78f1916dfdbf30330f0660ca3284]
link AdressDTO to Guid--><path codeLine="27" d="M356.94,375.95 C470.33,396.88 750.72,448.66 848.33,466.69 " fill="none" id="AdressDTO-to-Guid" style="stroke:#A80036;stroke-width:1.0;"/><polygon fill="#A80036" points="853.4,467.63,845.2835,462.0513,848.4843,466.7155,843.8202,469.9163,853.4,467.63" style="stroke:#A80036;stroke-width:1.0;"/><text fill="#000000" font-family="sans-serif" font-size="13" lengthAdjust="spacing" textLength="38" x="807.4334" y="481.4242">TypeId</text><!--MD5=[b2555b513fccde1a3f7f8fb3f3fcdb23]
link AdressDTO to String--><path codeLine="28" d="M260.13,376.97 C216.13,398.93 219.92,450.86 271.5,467.66 " fill="none" id="AdressDTO-to-String" style="stroke:#A80036;stroke-width:1.0;"/><polygon fill="#A80036" points="276.3,469.08,268.8149,462.6789,271.5077,467.6537,266.5329,470.3465,276.3,469.08" style="stroke:#A80036;stroke-width:1.0;"/><text fill="#000000" font-family="sans-serif" font-size="13" lengthAdjust="spacing" textLength="41" x="227.5597" y="464.7033">Name1</text><!--MD5=[b2555b513fccde1a3f7f8fb3f3fcdb23]
link AdressDTO to String--><path codeLine="29" d="M264.33,390 C250.98,411.35 253.67,442.38 272.42,459.82 " fill="none" id="AdressDTO-to-String-1" style="stroke:#A80036;stroke-width:1.0;"/><polygon fill="#A80036" points="276.38,463.12,272.0235,454.287,272.5377,459.9205,266.9043,460.4347,276.38,463.12" style="stroke:#A80036;stroke-width:1.0;"/><text fill="#000000" font-family="sans-serif" font-size="13" lengthAdjust="spacing" textLength="41" x="227.6514" y="476.2179">Name2</text><!--MD5=[b2555b513fccde1a3f7f8fb3f3fcdb23]
link AdressDTO to String--><path codeLine="30" d="M286.42,390 C281.41,406 280.92,427.45 284.93,444.53 " fill="none" id="AdressDTO-to-String-2" style="stroke:#A80036;stroke-width:1.0;"/><polygon fill="#A80036" points="286.32,449.68,287.8355,439.9484,285.0165,444.8529,280.1121,442.034,286.32,449.68" style="stroke:#A80036;stroke-width:1.0;"/><text fill="#000000" font-family="sans-serif" font-size="13" lengthAdjust="spacing" textLength="48" x="227.0636" y="439.34">Adress1</text><!--MD5=[b2555b513fccde1a3f7f8fb3f3fcdb23]
link AdressDTO to String--><path codeLine="31" d="M308.5,390 C308.5,406 308.5,427.45 308.5,444.53 " fill="none" id="AdressDTO-to-String-3" style="stroke:#A80036;stroke-width:1.0;"/><polygon fill="#A80036" points="308.5,449.68,312.5,440.68,308.5,444.68,304.5,440.68,308.5,449.68" style="stroke:#A80036;stroke-width:1.0;"/><text fill="#000000" font-family="sans-serif" font-size="13" lengthAdjust="spacing" textLength="48" x="314.35" y="439.34">Adress2</text><!--MD5=[b2555b513fccde1a3f7f8fb3f3fcdb23]
link AdressDTO to String--><path codeLine="32" d="M330.58,390 C335.59,406 336.08,427.45 332.07,444.53 " fill="none" id="AdressDTO-to-String-4" style="stroke:#A80036;stroke-width:1.0;"/><polygon fill="#A80036" points="330.68,449.68,336.8879,442.034,331.9835,444.8529,329.1645,439.9484,330.68,449.68" style="stroke:#A80036;stroke-width:1.0;"/><text fill="#000000" font-family="sans-serif" font-size="13" lengthAdjust="spacing" textLength="80" x="348.1681" y="458.6346">Housenumber</text><!--MD5=[b2555b513fccde1a3f7f8fb3f3fcdb23]
link AdressDTO to String--><path codeLine="33" d="M352.67,390 C366.02,411.35 363.33,442.38 344.58,459.82 " fill="none" id="AdressDTO-to-String-5" style="stroke:#A80036;stroke-width:1.0;"/><polygon fill="#A80036" points="340.62,463.12,350.0957,460.4347,344.4623,459.9205,344.9765,454.287,340.62,463.12" style="stroke:#A80036;stroke-width:1.0;"/><text fill="#000000" font-family="sans-serif" font-size="13" lengthAdjust="spacing" textLength="23" x="348.3898" y="476.1334">City</text><!--MD5=[b2555b513fccde1a3f7f8fb3f3fcdb23]
link AdressDTO to String--><path codeLine="34" d="M356.87,376.97 C400.87,398.93 397.08,450.86 345.5,467.66 " fill="none" id="AdressDTO-to-String-6" style="stroke:#A80036;stroke-width:1.0;"/><polygon fill="#A80036" points="340.7,469.08,350.4671,470.3465,345.4923,467.6537,348.1851,462.6789,340.7,469.08" style="stroke:#A80036;stroke-width:1.0;"/><text fill="#000000" font-family="sans-serif" font-size="13" lengthAdjust="spacing" textLength="55" x="348.3491" y="482.9923">Postcode</text><!--MD5=[7c8d1df2a42c3b4e3116e71ce809b588]
reverse link CommandWrapper to FindAdresses--><path codeLine="35" d="M1025.98,86.56 C1163.1,104.61 1337.25,132.06 1489.5,170 C1495.17,171.41 1500.92,172.94 1506.71,174.56 " fill="none" id="CommandWrapper-backto-FindAdresses" style="stroke:#A80036;stroke-width:1.0;"/><polygon fill="none" points="1024.95,93.49,1006.02,83.97,1026.76,79.61,1024.95,93.49" style="stroke:#A80036;stroke-width:1.0;"/><!--MD5=[e187aae528dfd0e676953b6de9aafea5]
link FindAdresses to Guid--><path codeLine="36" d="M1590.7,282.02 C1545.39,323.94 1485.2,376.64 1455.5,390 C1357.8,433.94 1025.55,462.25 917.07,470.5 " fill="none" id="FindAdresses-to-Guid" style="stroke:#A80036;stroke-width:1.0;"/><polygon fill="#A80036" points="911.77,470.9,921.0423,474.2203,916.7562,470.5285,920.448,466.2424,911.77,470.9" style="stroke:#A80036;stroke-width:1.0;"/><text fill="#000000" font-family="sans-serif" font-size="13" lengthAdjust="spacing" textLength="38" x="919.463" y="466.6541">TypeId</text><!--MD5=[069b9e7084b24b7673a955ca2189498a]
link FindAdresses to CommandDTO--><path codeLine="37" d="M1506.76,277.66 C1500.96,279.22 1495.19,280.67 1489.5,282 C1281.85,330.45 1221.98,297.24 1013.5,342 C1009.66,342.82 1005.74,343.75 1001.79,344.76 " fill="none" id="FindAdresses-to-CommandDTO" style="stroke:#A80036;stroke-width:1.0;"/><polygon fill="#A80036" points="996.79,346.06,1006.5075,347.6634,1001.6287,344.8002,1004.4918,339.9214,996.79,346.06" style="stroke:#A80036;stroke-width:1.0;"/><text fill="#000000" font-family="sans-serif" font-size="13" lengthAdjust="spacing" textLength="27" x="996.6247" y="335.802">Cmd</text><!--MD5=[d65e62f8b87ab352dddf0d1b29176523]
link FindAdresses to String--><path codeLine="38" d="M1506.87,276.35 C1501.01,278.27 1495.2,280.17 1489.5,282 C1329.26,333.53 1291.63,357.36 1126.5,390 C829.15,448.78 462.29,467.15 345.81,471.71 " fill="none" id="FindAdresses-to-String" style="stroke:#A80036;stroke-width:1.0;"/><polygon fill="#A80036" points="340.78,471.9,349.9327,475.5371,345.776,471.7002,349.6129,467.5435,340.78,471.9" style="stroke:#A80036;stroke-width:1.0;"/><text fill="#000000" font-family="sans-serif" font-size="13" lengthAdjust="spacing" textLength="66" x="348.328" y="468.2476">SearchText</text><!--MD5=[96c8e41dddf12d0fc1381f70183024a4]
link FindAdresses to List`1--><path codeLine="39" d="M1659.62,282.36 C1663.8,314.59 1665.1,355.52 1653.5,390 C1646.43,411.02 1631.68,430.95 1618.23,446 " fill="none" id="FindAdresses-to-List`1" style="stroke:#A80036;stroke-width:1.0;"/><polygon fill="#A80036" points="1614.84,449.72,1623.85,445.7426,1618.1998,446.0171,1617.9253,440.3669,1614.84,449.72" style="stroke:#A80036;stroke-width:1.0;"/><text fill="#000000" font-family="sans-serif" font-size="13" lengthAdjust="spacing" textLength="120" x="1635.3979" y="439.3897">Result&lt;AdressDTO&gt;</text><!--MD5=[2a35218a08f90bcccbf607bfbb9e9a4c]
reverse link CommandWrapper to GetAdress--><path codeLine="40" d="M543.36,110.16 C467.45,127.5 383.59,148.09 307.5,170 C301.89,171.62 296.18,173.32 290.43,175.08 " fill="none" id="CommandWrapper-backto-GetAdress" style="stroke:#A80036;stroke-width:1.0;"/><polygon fill="none" points="541.94,103.31,562.99,105.71,545.03,116.96,541.94,103.31" style="stroke:#A80036;stroke-width:1.0;"/><!--MD5=[9e359c2a3b697cbf2773394e832a2801]
link GetAdress to Guid--><path codeLine="41" d="M290.08,281.88 C290.22,281.92 290.36,281.96 290.5,282 C410.5,315.77 447.32,299.46 564.5,342 C607.85,357.74 614.57,370.8 656.5,390 C722.6,420.27 803.12,450.42 848.65,464.61 " fill="none" id="GetAdress-to-Guid" style="stroke:#A80036;stroke-width:1.0;"/><polygon fill="#A80036" points="853.49,466.09,846.0453,459.642,848.7068,464.6336,843.7151,467.2951,853.49,466.09" style="stroke:#A80036;stroke-width:1.0;"/><text fill="#000000" font-family="sans-serif" font-size="13" lengthAdjust="spacing" textLength="38" x="807.5383" y="460.9791">TypeId</text><!--MD5=[9e359c2a3b697cbf2773394e832a2801]
link GetAdress to Guid--><path codeLine="43" d="M290.1,271.36 C302.06,275.14 313.97,278.76 325.5,282 C445.5,315.77 482.32,299.46 599.5,342 C642.85,357.74 649.57,370.8 691.5,390 C745.51,414.74 809.16,439.39 848.12,455.32 " fill="none" id="GetAdress-to-Guid-1" style="stroke:#A80036;stroke-width:1.0;"/><polygon fill="#A80036" points="853.22,457.41,846.4209,450.2845,848.5966,455.5063,843.3749,457.682,853.22,457.41" style="stroke:#A80036;stroke-width:1.0;"/><text fill="#000000" font-family="sans-serif" font-size="13" lengthAdjust="spacing" textLength="10" x="835.2928" y="449.2593">Id</text><!--MD5=[ab9d71b1cb814c3f12905731567b9912]
link GetAdress to CommandDTO--><path codeLine="42" d="M290.24,277.62 C296.05,279.19 301.81,280.66 307.5,282 C414.66,307.31 737.45,343.52 875.15,358.32 " fill="none" id="GetAdress-to-CommandDTO" style="stroke:#A80036;stroke-width:1.0;"/><polygon fill="#A80036" points="880.36,358.88,871.8333,353.9509,875.388,358.3514,870.9875,361.906,880.36,358.88" style="stroke:#A80036;stroke-width:1.0;"/><text fill="#000000" font-family="sans-serif" font-size="13" lengthAdjust="spacing" textLength="27" x="845.5244" y="354.7406">Cmd</text><!--MD5=[320d96e379c8cc12904cb5534a749e6f]
link GetAdress to AdressDTO--><path codeLine="44" d="M212.66,282.33 C234.96,301.58 258.98,322.29 277.4,338.17 " fill="none" id="GetAdress-to-AdressDTO" style="stroke:#A80036;stroke-width:1.0;"/><polygon fill="#A80036" points="281.48,341.69,277.2664,332.788,277.6898,338.429,272.0488,338.8523,281.48,341.69" style="stroke:#A80036;stroke-width:1.0;"/><text fill="#000000" font-family="sans-serif" font-size="13" lengthAdjust="spacing" textLength="37" x="232.8155" y="330.9507">Result</text><!--MD5=[c3c728e73b8a9d103caadd39ec0772b9]
reverse link CommandWrapper to SetAdress--><path codeLine="45" d="M669.54,119.33 C637.85,135.82 603.61,153.64 572.45,169.86 " fill="none" id="CommandWrapper-backto-SetAdress" style="stroke:#A80036;stroke-width:1.0;"/><polygon fill="none" points="666.39,113.08,687.36,110.05,672.85,125.5,666.39,113.08" style="stroke:#A80036;stroke-width:1.0;"/><!--MD5=[29a617733f0895b8822a619a862d6253]
link SetAdress to Guid--><path codeLine="46" d="M554.75,282.02 C588.13,300.58 626.2,321.73 660.5,342 C727.82,381.79 804.99,432.54 848.98,457.59 " fill="none" id="SetAdress-to-Guid" style="stroke:#A80036;stroke-width:1.0;"/><polygon fill="#A80036" points="853.39,460.08,847.5155,452.1749,849.0348,457.6239,843.5858,459.1433,853.39,460.08" style="stroke:#A80036;stroke-width:1.0;"/><text fill="#000000" font-family="sans-serif" font-size="13" lengthAdjust="spacing" textLength="38" x="845.0493" y="439.6361">TypeId</text><!--MD5=[29a617733f0895b8822a619a862d6253]
link SetAdress to Guid--><path codeLine="48" d="M587.94,282.02 C623.13,300.58 661.2,321.73 695.5,342 C754.02,376.59 819.99,419.47 856.44,446.54 " fill="none" id="SetAdress-to-Guid-1" style="stroke:#A80036;stroke-width:1.0;"/><polygon fill="#A80036" points="860.73,449.76,855.93,441.16,856.73,446.76,851.13,447.56,860.73,449.76" style="stroke:#A80036;stroke-width:1.0;"/><text fill="#000000" font-family="sans-serif" font-size="13" lengthAdjust="spacing" textLength="10" x="843.8702" y="439.0387">Id</text><!--MD5=[0a5c696b50acc773ed377aa35825b43f]
link SetAdress to CommandDTO--><path codeLine="47" d="M608.06,276.56 C613.94,278.43 619.77,280.25 625.5,282 C711.45,308.22 812.08,334.05 875.57,349.76 " fill="none" id="SetAdress-to-CommandDTO" style="stroke:#A80036;stroke-width:1.0;"/><polygon fill="#A80036" points="880.45,350.97,872.6721,344.9281,875.5959,349.7708,870.7533,352.6946,880.45,350.97" style="stroke:#A80036;stroke-width:1.0;"/><text fill="#000000" font-family="sans-serif" font-size="13" lengthAdjust="spacing" textLength="27" x="845.6242" y="345.9654">Cmd</text><!--MD5=[38358ab967c44292a7e3ae1eec2a34b2]
link SetAdress to AdressDTO--><path codeLine="49" d="M390.62,282.33 C368.14,301.41 345.35,321.95 329.28,337.77 " fill="none" id="SetAdress-to-AdressDTO" style="stroke:#A80036;stroke-width:1.0;"/><polygon fill="#A80036" points="325.35,341.69,334.5495,338.173,328.8927,338.1616,328.9041,332.5048,325.35,341.69" style="stroke:#A80036;stroke-width:1.0;"/><text fill="#000000" font-family="sans-serif" font-size="13" lengthAdjust="spacing" textLength="41" x="283.4147" y="330.9507">Adress</text><!--MD5=[38358ab967c44292a7e3ae1eec2a34b2]
link SetAdress to AdressDTO--><path codeLine="50" d="M416.41,282.33 C394.88,301.74 370.15,322.64 349.65,338.57 " fill="none" id="SetAdress-to-AdressDTO-1" style="stroke:#A80036;stroke-width:1.0;"/><polygon fill="#A80036" points="345.6,341.69,355.1676,339.3531,349.5567,338.6332,350.2767,333.0223,345.6,341.69" style="stroke:#A80036;stroke-width:1.0;"/><text fill="#000000" font-family="sans-serif" font-size="13" lengthAdjust="spacing" textLength="37" x="359.8475" y="330.9507">Result</text><!--MD5=[be3a97b884d7bb8890e18b1f911f5268]
link BaseDTO to Guid--><path codeLine="70" d="M1191.74,282.23 C1164.17,317.49 1131.08,361.72 1091.5,390 C1036.63,429.19 961.82,451.01 916.68,462.32 " fill="none" id="BaseDTO-to-Guid" style="stroke:#A80036;stroke-width:1.0;"/><polygon fill="#A80036" points="911.6,463.58,921.2979,465.298,916.4532,462.3774,919.3738,457.5328,911.6,463.58" style="stroke:#A80036;stroke-width:1.0;"/><text fill="#000000" font-family="sans-serif" font-size="13" lengthAdjust="spacing" textLength="38" x="919.5666" y="476.7034">TypeId</text><!--MD5=[be3a97b884d7bb8890e18b1f911f5268]
link BaseDTO to Guid--><path codeLine="71" d="M1221.49,282.23 C1199.17,317.49 1166.08,361.72 1126.5,390 C1060.85,436.9 966.64,458.91 916.66,467.82 " fill="none" id="BaseDTO-to-Guid-1" style="stroke:#A80036;stroke-width:1.0;"/><polygon fill="#A80036" points="911.67,468.69,921.2223,471.0888,916.5961,467.8333,919.8515,463.2071,911.67,468.69" style="stroke:#A80036;stroke-width:1.0;"/><text fill="#000000" font-family="sans-serif" font-size="13" lengthAdjust="spacing" textLength="10" x="919.5718" y="482.8478">Id</text><!--MD5=[be3a97b884d7bb8890e18b1f911f5268]
link BaseDTO to Guid--><path codeLine="72" d="M1251.24,282.23 C1234.17,317.49 1201.08,361.72 1161.5,390 C1087.28,443.02 976.55,464.23 916.84,470.67 " fill="none" id="BaseDTO-to-Guid-2" style="stroke:#A80036;stroke-width:1.0;"/><polygon fill="#A80036" points="911.58,471.21,920.9438,474.2627,916.5535,470.6955,920.1206,466.3051,911.58,471.21" style="stroke:#A80036;stroke-width:1.0;"/><text fill="#000000" font-family="sans-serif" font-size="13" lengthAdjust="spacing" textLength="28" x="919.5229" y="485.6981">Type</text><!--MD5=[2cc8b6df816638932ff19f7ae8e08ba0]
link PropertyDTO to Guid--><path codeLine="73" d="M564.67,382.16 C573.61,384.79 582.82,387.48 591.5,390 C684.13,416.87 793.55,447.88 848.05,463.28 " fill="none" id="PropertyDTO-to-Guid" style="stroke:#A80036;stroke-width:1.0;"/><polygon fill="#A80036" points="853.15,464.72,845.5729,458.4281,848.3376,463.3634,843.4023,466.128,853.15,464.72" style="stroke:#A80036;stroke-width:1.0;"/><text fill="#000000" font-family="sans-serif" font-size="13" lengthAdjust="spacing" textLength="38" x="806.575" y="473.2461">TypeId</text><!--MD5=[d5f4c30c7cb8eb2847647aca0481e46f]
link PropertyDTO to String--><path codeLine="74" d="M462.34,388.07 C425.93,405.39 378.21,429.97 345.42,448.23 " fill="none" id="PropertyDTO-to-String" style="stroke:#A80036;stroke-width:1.0;"/><polygon fill="#A80036" points="340.7,450.88,350.5065,449.9677,345.0613,448.4348,346.5942,442.9896,340.7,450.88" style="stroke:#A80036;stroke-width:1.0;"/><text fill="#000000" font-family="sans-serif" font-size="13" lengthAdjust="spacing" textLength="34" x="348.5413" y="443.4434">Name</text><!--MD5=[d5f4c30c7cb8eb2847647aca0481e46f]
link PropertyDTO to String--><path codeLine="75" d="M480.37,390 C443.13,411.01 383.76,441.39 345.14,458.97 " fill="none" id="PropertyDTO-to-String-1" style="stroke:#A80036;stroke-width:1.0;"/><polygon fill="#A80036" points="340.54,461.05,350.3887,460.9929,345.0972,458.9928,347.0972,453.7013,340.54,461.05" style="stroke:#A80036;stroke-width:1.0;"/><text fill="#000000" font-family="sans-serif" font-size="13" lengthAdjust="spacing" textLength="33" x="321.9145" y="439.329">Value</text><!--MD5=[3920cdde0ef99465ed1599e18a1d09e5]
reverse link BaseDTO to ObjectDTO--><path codeLine="76" d="M1406.25,289.77 C1456.32,310.22 1508.21,331.4 1544.1,346.06 " fill="none" id="BaseDTO-backto-ObjectDTO" style="stroke:#A80036;stroke-width:1.0;"/><polygon fill="none" points="1403.41,296.18,1387.54,282.14,1408.71,283.22,1403.41,296.18" style="stroke:#A80036;stroke-width:1.0;"/><!--MD5=[ae4b2e8b4ef91d484150733ac744b15c]
link ObjectDTO to Guid--><path codeLine="77" d="M1544.49,382.84 C1535.61,385.51 1526.32,388.05 1517.5,390 C1291.36,440 1012.79,463.59 916.85,470.64 " fill="none" id="ObjectDTO-to-Guid" style="stroke:#A80036;stroke-width:1.0;"/><polygon fill="#A80036" points="911.61,471.02,920.8728,474.3667,916.5972,470.6627,920.3012,466.3872,911.61,471.02" style="stroke:#A80036;stroke-width:1.0;"/><text fill="#000000" font-family="sans-serif" font-size="13" lengthAdjust="spacing" textLength="38" x="919.105" y="507.8961">TypeId</text><!--MD5=[044e50fa495cf138e42c0a7a2d101165]
link ObjectDTO to List`1--><path codeLine="78" d="M1590.5,390 C1590.5,406 1590.5,427.45 1590.5,444.53 " fill="none" id="ObjectDTO-to-List`1" style="stroke:#A80036;stroke-width:1.0;"/><polygon fill="#A80036" points="1590.5,449.68,1594.5,440.68,1590.5,444.68,1586.5,440.68,1590.5,449.68" style="stroke:#A80036;stroke-width:1.0;"/><text fill="#000000" font-family="sans-serif" font-size="13" lengthAdjust="spacing" textLength="150" x="1422.2188" y="439.34">Properties&lt;PropertyDTO&gt;</text><!--MD5=[d40922a5f4b5f53a84548686e17be8ce]
reverse link BaseDTO to TypeDTO--><path codeLine="79" d="M1324.84,296.33 C1341.93,312.7 1358.99,329.06 1372.18,341.69 " fill="none" id="BaseDTO-backto-TypeDTO" style="stroke:#A80036;stroke-width:1.0;"/><polygon fill="none" points="1319.84,301.23,1310.24,282.33,1329.52,291.12,1319.84,301.23" style="stroke:#A80036;stroke-width:1.0;"/><!--MD5=[5c447c056dfaa167e42a9155323e8f7a]
link TypeDTO to Guid--><path codeLine="80" d="M1354.81,381.92 C1345.87,384.83 1336.42,387.69 1327.5,390 C1176.48,429.06 992.13,457.44 916.92,468.23 " fill="none" id="TypeDTO-to-Guid" style="stroke:#A80036;stroke-width:1.0;"/><polygon fill="#A80036" points="911.7,468.97,921.172,471.6685,916.6506,468.2689,920.0502,463.7475,911.7,468.97" style="stroke:#A80036;stroke-width:1.0;"/><text fill="#000000" font-family="sans-serif" font-size="13" lengthAdjust="spacing" textLength="38" x="919.3819" y="464.4165">TypeId</text><!--MD5=[219bd3936f376d031e8c298317b20e94]
link ObjectWrapper to ObjectDTO--><path codeLine="90" d="M1858.52,257.03 C1842.27,265.49 1824.33,274.44 1807.5,282 C1751.76,307.02 1686.01,331.49 1641.61,347.31 " fill="none" id="ObjectWrapper-to-ObjectDTO" style="stroke:#A80036;stroke-width:1.0;"/><polygon fill="#A80036" points="1636.84,349,1646.662,349.7267,1641.5464,347.312,1643.9612,342.1964,1636.84,349" style="stroke:#A80036;stroke-width:1.0;"/><text fill="#000000" font-family="sans-serif" font-size="13" lengthAdjust="spacing" textLength="25" x="1644.3789" y="343.3145">_dto</text><!--MD5=[67880a3a229e4f21214e7372b1fe529c]
link CommandWrapper to CommandDTO--><path codeLine="91" d="M888.54,110.28 C910.59,126.19 930.96,146.02 943.5,170 C971.43,223.42 958.1,296.83 947.39,336.61 " fill="none" id="CommandWrapper-to-CommandDTO" style="stroke:#A80036;stroke-width:1.0;"/><polygon fill="#A80036" points="945.96,341.75,952.2101,334.1384,947.2901,336.9302,944.4983,332.0102,945.96,341.75" style="stroke:#A80036;stroke-width:1.0;"/><text fill="#000000" font-family="sans-serif" font-size="13" lengthAdjust="spacing" textLength="27" x="917.4123" y="331.0261">Cmd</text><!--MD5=[9714f00bbee80ca7b140c29ae529c8eb]
reverse link BaseDTO to CommandDTO--><path codeLine="105" d="M1108.52,290.28 C1066.52,308.74 1023.26,327.75 990.89,341.97 " fill="none" id="BaseDTO-backto-CommandDTO" style="stroke:#A80036;stroke-width:1.0;"/><polygon fill="none" points="1105.92,283.77,1127.05,282.14,1111.55,296.59,1105.92,283.77" style="stroke:#A80036;stroke-width:1.0;"/><!--MD5=[748fc960db8404b389e3e2dd41b16478]
link CommandDTO to Guid--><path codeLine="106" d="M926.35,390 C917.82,406.14 906.37,427.82 897.31,444.97 " fill="none" id="CommandDTO-to-Guid" style="stroke:#A80036;stroke-width:1.0;"/><polygon fill="#A80036" points="894.82,449.68,902.5571,443.5859,897.1529,445.2576,895.4812,439.8534,894.82,449.68" style="stroke:#A80036;stroke-width:1.0;"/><text fill="#000000" font-family="sans-serif" font-size="13" lengthAdjust="spacing" textLength="38" x="855.1918" y="439.34">TypeId</text><!--MD5=[7643b4e9f5d3ec841d55a0a29d6a7102]
link CommandDTO to Boolean--><path codeLine="107" d="M1008.51,366 C1008.51,366 1015.31,366 1018.16,366 " fill="none" id="CommandDTO-Boolean" style="stroke:#A80036;stroke-width:1.0;"/><polygon fill="#A80036" points="1031.48,366,1022.48,362,1026.48,366,1022.48,370,1031.48,366" style="stroke:#A80036;stroke-width:1.0;"/><line style="stroke:#A80036;stroke-width:1.0;" x1="1026.48" x2="1018.48" y1="366" y2="366"/><polygon fill="#FFFFFF" points="996.51,366,1002.51,370,1008.51,366,1002.51,362,996.51,366" style="stroke:#A80036;stroke-width:1.0;"/><text fill="#000000" font-family="sans-serif" font-size="13" lengthAdjust="spacing" textLength="58" x="965.0783" y="347.1694">Response</text><!--MD5=[4578dd9431dc4b19b962c6ee8c717b6c]
link CommandDTO to List`1--><path codeLine="108" d="M1008.4376,388.8062 C1008.4376,388.8062 1012.22,389.71 1013.5,390 C1205.88,433.06 1439.57,458.65 1540.32,468.42 " fill="none" id="CommandDTO-List`1" style="stroke:#A80036;stroke-width:1.0;"/><polygon fill="#A80036" points="1553.35,469.67,1544.7683,464.8374,1548.3724,469.1975,1544.0123,472.8016,1553.35,469.67" style="stroke:#A80036;stroke-width:1.0;"/><line style="stroke:#A80036;stroke-width:1.0;" x1="1548.3724" x2="1540.41" y1="469.1975" y2="468.43"/><polygon fill="#FFFFFF" points="996.81,385.84,1001.6351,391.199,1008.4376,388.8062,1003.6126,383.4472,996.81,385.84" style="stroke:#A80036;stroke-width:1.0;"/><text fill="#000000" font-family="sans-serif" font-size="13" lengthAdjust="spacing" textLength="154" x="1391.3238" y="466.3105">Arguments&lt;PropertyDTO&gt;</text><!--MD5=[861763f1dd3357e07ec7e8cd6c3509f1]
reverse link CommandWrapper to SampleCommand--><path codeLine="109" d="M784.5,130.31 C784.5,143.54 784.5,157.19 784.5,169.86 " fill="none" id="CommandWrapper-backto-SampleCommand" style="stroke:#A80036;stroke-width:1.0;"/><polygon fill="none" points="777.5,130.05,784.5,110.05,791.5,130.05,777.5,130.05" style="stroke:#A80036;stroke-width:1.0;"/><!--MD5=[9137f41703ae9a800e4b8694614faaa2]
link SampleCommand to Guid--><path codeLine="110" d="M806.49,282.21 C826.58,332.64 855.48,405.19 871.23,444.71 " fill="none" id="SampleCommand-to-Guid" style="stroke:#A80036;stroke-width:1.0;"/><polygon fill="#A80036" points="873.27,449.83,873.6414,439.9881,871.413,445.1876,866.2136,442.9593,873.27,449.83" style="stroke:#A80036;stroke-width:1.0;"/><text fill="#000000" font-family="sans-serif" font-size="13" lengthAdjust="spacing" textLength="38" x="875.7736" y="439.1266">TypeId</text><!--MD5=[59b1de06953bb07110d8300ca0cb8712]
link SampleCommand to CommandDTO--><path codeLine="111" d="M846.25,282.33 C867.72,301.58 890.84,322.29 908.56,338.17 " fill="none" id="SampleCommand-to-CommandDTO" style="stroke:#A80036;stroke-width:1.0;"/><polygon fill="#A80036" points="912.49,341.69,908.4399,332.7124,908.7601,338.3602,903.1123,338.6803,912.49,341.69" style="stroke:#A80036;stroke-width:1.0;"/><text fill="#000000" font-family="sans-serif" font-size="13" lengthAdjust="spacing" textLength="27" x="875.3656" y="330.9507">Cmd</text><!--MD5=[b3c5570dff77d71e6d8b79c01682e472]
link SampleCommand to String--><path codeLine="112" d="M642.79,276.12 C636.95,278.11 631.17,280.08 625.5,282 C545.23,309.19 517.04,298.18 444.5,342 C398.04,370.06 354.79,416.62 330.03,446.01 " fill="none" id="SampleCommand-to-String" style="stroke:#A80036;stroke-width:1.0;"/><polygon fill="#A80036" points="326.81,449.87,335.643,445.5135,330.0095,446.0277,329.4953,440.3943,326.81,449.87" style="stroke:#A80036;stroke-width:1.0;"/><text fill="#000000" font-family="sans-serif" font-size="13" lengthAdjust="spacing" textLength="50" x="275.0957" y="439.1768">FirstOne</text><!--MD5=[d5ab1b6c2ea41ecb0383324f2cba27fa]
link SampleCommand to Boolean--><path codeLine="113" d="M898.77,282.14 C943.55,303.75 992.26,327.25 1026.33,343.68 " fill="none" id="SampleCommand-to-Boolean" style="stroke:#A80036;stroke-width:1.0;"/><polygon fill="#A80036" points="1031.24,346.06,1024.8727,338.5462,1026.7369,343.8871,1021.396,345.7512,1031.24,346.06" style="stroke:#A80036;stroke-width:1.0;"/><text fill="#000000" font-family="sans-serif" font-size="13" lengthAdjust="spacing" textLength="68" x="1028.9388" y="331.4083">SecondOne</text><!--MD5=[827eb5c776e7d1ef67b59e471f30133b]
link WeatherForecast to DateTime--><path codeLine="119" d="M2672.5,103.85 C2672.5,133.35 2672.5,171.21 2672.5,196.69 " fill="none" id="WeatherForecast-to-DateTime" style="stroke:#A80036;stroke-width:1.0;"/><polygon fill="#A80036" points="2672.5,201.94,2676.5,192.94,2672.5,196.94,2668.5,192.94,2672.5,201.94" style="stroke:#A80036;stroke-width:1.0;"/><text fill="#000000" font-family="sans-serif" font-size="13" lengthAdjust="spacing" textLength="27" x="2642.0406" y="191.2648">Date</text><!--MD5=[61247b6580e3e0ba3bb022f751dd0d27]
link AdressTypesDispatcher to BaseTypesDispatcher--><!--MD5=[f149555ef7b629e3fb0a6057d6b79107]
link AdressTypesDispatcher to CommandTypesDispatcher--><!--MD5=[b25ebdf44f3c99af916f281f12959b9b]
@startuml
class AdressDTO {
}
class FindAdresses <<partial>> {
    + FindAdresses(dto:CommandDTO)
    + {static} IsForMe(dto:CommandDTO) : bool
    + {static} ExecuteCommand(dto:CommandDTO) : CommandDTO
    + <<partial>> ExecuteCommand() : CommandDTO
}
class GetAdress <<partial>> {
    + GetAdress(dto:CommandDTO)
    + {static} IsForMe(dto:CommandDTO) : bool
    + {static} ExecuteCommand(dto:CommandDTO) : CommandDTO
    + <<partial>> ExecuteCommand() : CommandDTO
}
class SetAdress <<partial>> {
    + SetAdress(dto:CommandDTO)
    + {static} IsForMe(dto:CommandDTO) : bool
    + {static} ExecuteCommand(dto:CommandDTO) : CommandDTO
    + <<partial>> ExecuteCommand() : CommandDTO
}
class AdressTypesDispatcher <<static>> {
    + {static} Dispatch(dto:CommandDTO) : CommandDTO
}
class "List`1"<T> {
}
BaseDTO <|- - AdressDTO
AdressDTO - -> "TypeId" Guid
AdressDTO - -> "Name1" String
AdressDTO - -> "Name2" String
AdressDTO - -> "Adress1" String
AdressDTO - -> "Adress2" String
AdressDTO - -> "Housenumber" String
AdressDTO - -> "City" String
AdressDTO - -> "Postcode" String
CommandWrapper <|- - FindAdresses
FindAdresses - -> "TypeId" Guid
FindAdresses - -> "Cmd" CommandDTO
FindAdresses - -> "SearchText" String
FindAdresses - -> "Result<AdressDTO>" "List`1"
CommandWrapper <|- - GetAdress
GetAdress - -> "TypeId" Guid
GetAdress - -> "Cmd" CommandDTO
GetAdress - -> "Id" Guid
GetAdress - -> "Result" AdressDTO
CommandWrapper <|- - SetAdress
SetAdress - -> "TypeId" Guid
SetAdress - -> "Cmd" CommandDTO
SetAdress - -> "Id" Guid
SetAdress - -> "Adress" AdressDTO
SetAdress - -> "Result" AdressDTO
class BaseDTO <<partial>> {
    # StringFromPropertyList(list:List<PropertyDTO>, name:string) : string
    # StringToPropertyList(list:List<PropertyDTO>, name:string, newValue:string) : void
    # BooleanFromPropertyList(list:List<PropertyDTO>, name:string) : Boolean
    # BooleanToPropertyList(list:List<PropertyDTO>, name:string, newValue:Boolean) : void
}
class BaseDTO <<partial>> {
}
class PropertyDTO {
}
class ObjectDTO {
}
class TypeDTO {
}
class BaseTypesDispatcher <<static>> {
    + {static} Dispatch(dto:CommandDTO) : CommandDTO
}
class "List`1"<T> {
}
BaseDTO - -> "TypeId" Guid
BaseDTO - -> "Id" Guid
BaseDTO - -> "Type" Guid
PropertyDTO - -> "TypeId" Guid
PropertyDTO - -> "Name" String
PropertyDTO - -> "Value" String
BaseDTO <|- - ObjectDTO
ObjectDTO - -> "TypeId" Guid
ObjectDTO - -> "Properties<PropertyDTO>" "List`1"
BaseDTO <|- - TypeDTO
TypeDTO - -> "TypeId" Guid
class ObjectWrapper {
    + ObjectWrapper(dto:ObjectDTO)
}
class CommandWrapper {
    + CommandWrapper(dto:CommandDTO)
    # Get(cmd:CommandDTO, name:string, target:(Func<T> get, Action<T> set)) : void
    # Get(cmd:CommandDTO, name:string, target:(Func<Guid> get, Action<Guid> set)) : void
    # Set(cmd:CommandDTO, name:string, value:T) : void
}
ObjectWrapper - -> "_dto" ObjectDTO
CommandWrapper - -> "Cmd" CommandDTO
class CommandDTO {
}
class SampleCommand <<partial>> {
    + SampleCommand(dto:CommandDTO)
    + {static} IsForMe(dto:CommandDTO) : bool
    + {static} ExecuteCommand(dto:CommandDTO) : CommandDTO
    + <<partial>> ExecuteCommand() : CommandDTO
}
class CommandTypesDispatcher <<static>> {
    + {static} Dispatch(dto:CommandDTO) : CommandDTO
}
class "List`1"<T> {
}
BaseDTO <|- - CommandDTO
CommandDTO - -> "TypeId" Guid
CommandDTO o-> "Response" Boolean
CommandDTO o-> "Arguments<PropertyDTO>" "List`1"
CommandWrapper <|- - SampleCommand
SampleCommand - -> "TypeId" Guid
SampleCommand - -> "Cmd" CommandDTO
SampleCommand - -> "FirstOne" String
SampleCommand - -> "SecondOne" Boolean
class WeatherForecast {
    + TemperatureC : int <<get>> <<set>>
    + TemperatureF : int <<get>>
    + Summary : string <<get>> <<set>>
}
WeatherForecast - -> "Date" DateTime
@enduml

PlantUML version 1.2021.10(Mon Aug 30 15:43:48 CEST 2021)
(GPL source distribution)
Java Runtime: Java(TM) SE Runtime Environment
JVM: Java HotSpot(TM) Client VM
Default Encoding: Cp1252
Language: de
Country: CH
--></g></svg>