<?xml version="1.0" encoding="UTF-8" standalone="no"?><svg xmlns="http://www.w3.org/2000/svg" xmlns:xlink="http://www.w3.org/1999/xlink" contentScriptType="application/ecmascript" contentStyleType="text/css" height="512px" preserveAspectRatio="none" style="width:3261px;height:512px;background:#FFFFFF;" version="1.1" viewBox="0 0 3261 512" width="3261px" zoomAndPan="magnify"><defs><filter height="300%" id="f116ihmo3om2wo" width="300%" x="-1" y="-1"><feGaussianBlur result="blurOut" stdDeviation="2.0"/><feColorMatrix in="blurOut" result="blurOut2" type="matrix" values="0 0 0 0 0 0 0 0 0 0 0 0 0 0 0 0 0 0 .4 0"/><feOffset dx="4.0" dy="4.0" in="blurOut2" result="blurOut3"/><feBlend in="SourceGraphic" in2="blurOut3" mode="normal"/></filter></defs><g><!--MD5=[a5d4fcdae0bd58dbfa0890c54d6b74e5]
class AdressDTO--><rect codeLine="1" fill="#FEFECE" filter="url(#f116ihmo3om2wo)" height="48" id="AdressDTO" style="stroke:#A80036;stroke-width:1.5;" width="96" x="445.5" y="342"/><ellipse cx="460.5" cy="358" fill="#ADD1B2" rx="11" ry="11" style="stroke:#A80036;stroke-width:1.0;"/><path d="M463.2656,353.875 Q463.4219,353.6563 463.6094,353.5469 Q463.7969,353.4375 464.0156,353.4375 Q464.3906,353.4375 464.625,353.6953 Q464.8594,353.9531 464.8594,354.5625 L464.8594,356.0156 Q464.8594,356.625 464.625,356.8906 Q464.3906,357.1563 464.0156,357.1563 Q463.6719,357.1563 463.4688,356.9531 Q463.2656,356.7656 463.1563,356.25 Q463.1094,355.8906 462.9219,355.7031 Q462.5938,355.3281 461.9844,355.1094 Q461.375,354.8906 460.75,354.8906 Q459.9844,354.8906 459.3516,355.2188 Q458.7188,355.5469 458.2266,356.2969 Q457.7344,357.0469 457.7344,358.0781 L457.7344,359.1719 Q457.7344,360.4063 458.625,361.2266 Q459.5156,362.0469 461.1094,362.0469 Q462.0469,362.0469 462.7031,361.7969 Q463.0938,361.6406 463.5156,361.2031 Q463.7813,360.9375 463.9297,360.8594 Q464.0781,360.7813 464.2813,360.7813 Q464.6094,360.7813 464.8672,361.0391 Q465.125,361.2969 465.125,361.6406 Q465.125,361.9844 464.7813,362.3906 Q464.2813,362.9688 463.4844,363.2969 Q462.4063,363.75 461.1094,363.75 Q459.5938,363.75 458.3906,363.125 Q457.4063,362.625 456.7188,361.5547 Q456.0313,360.4844 456.0313,359.2031 L456.0313,358.0469 Q456.0313,356.7188 456.6484,355.5703 Q457.2656,354.4219 458.3594,353.8047 Q459.4531,353.1875 460.6875,353.1875 Q461.4219,353.1875 462.0703,353.3516 Q462.7188,353.5156 463.2656,353.875 Z " fill="#000000"/><text fill="#000000" font-family="sans-serif" font-size="12" lengthAdjust="spacing" textLength="64" x="474.5" y="362.9102">AdressDTO</text><line style="stroke:#A80036;stroke-width:1.5;" x1="446.5" x2="540.5" y1="374" y2="374"/><line style="stroke:#A80036;stroke-width:1.5;" x1="446.5" x2="540.5" y1="382" y2="382"/><!--MD5=[b322aadbb9d3c478d9706c2cbb9a3ac5]
class FindAdressesWrapper--><rect codeLine="3" fill="#FEFECE" filter="url(#f116ihmo3om2wo)" height="111.5313" id="FindAdressesWrapper" style="stroke:#A80036;stroke-width:1.5;" width="327" x="1951" y="170"/><ellipse cx="2048.25" cy="190.0938" fill="#ADD1B2" rx="11" ry="11" style="stroke:#A80036;stroke-width:1.0;"/><path d="M2051.0156,185.9688 Q2051.1719,185.75 2051.3594,185.6406 Q2051.5469,185.5313 2051.7656,185.5313 Q2052.1406,185.5313 2052.375,185.7891 Q2052.6094,186.0469 2052.6094,186.6563 L2052.6094,188.1094 Q2052.6094,188.7188 2052.375,188.9844 Q2052.1406,189.25 2051.7656,189.25 Q2051.4219,189.25 2051.2188,189.0469 Q2051.0156,188.8594 2050.9063,188.3438 Q2050.8594,187.9844 2050.6719,187.7969 Q2050.3438,187.4219 2049.7344,187.2031 Q2049.125,186.9844 2048.5,186.9844 Q2047.7344,186.9844 2047.1016,187.3125 Q2046.4688,187.6406 2045.9766,188.3906 Q2045.4844,189.1406 2045.4844,190.1719 L2045.4844,191.2656 Q2045.4844,192.5 2046.375,193.3203 Q2047.2656,194.1406 2048.8594,194.1406 Q2049.7969,194.1406 2050.4531,193.8906 Q2050.8438,193.7344 2051.2656,193.2969 Q2051.5313,193.0313 2051.6797,192.9531 Q2051.8281,192.875 2052.0313,192.875 Q2052.3594,192.875 2052.6172,193.1328 Q2052.875,193.3906 2052.875,193.7344 Q2052.875,194.0781 2052.5313,194.4844 Q2052.0313,195.0625 2051.2344,195.3906 Q2050.1563,195.8438 2048.8594,195.8438 Q2047.3438,195.8438 2046.1406,195.2188 Q2045.1563,194.7188 2044.4688,193.6484 Q2043.7813,192.5781 2043.7813,191.2969 L2043.7813,190.1406 Q2043.7813,188.8125 2044.3984,187.6641 Q2045.0156,186.5156 2046.1094,185.8984 Q2047.2031,185.2813 2048.4375,185.2813 Q2049.1719,185.2813 2049.8203,185.4453 Q2050.4688,185.6094 2051.0156,185.9688 Z " fill="#000000"/><text fill="#000000" font-family="sans-serif" font-size="12" font-style="italic" lengthAdjust="spacing" textLength="48" x="2106.75" y="187.457">«partial»</text><text fill="#000000" font-family="sans-serif" font-size="12" lengthAdjust="spacing" textLength="124" x="2068.75" y="202.5508">FindAdressesWrapper</text><line style="stroke:#A80036;stroke-width:1.5;" x1="1952" x2="2277" y1="210.1875" y2="210.1875"/><line style="stroke:#A80036;stroke-width:1.5;" x1="1952" x2="2277" y1="218.1875" y2="218.1875"/><ellipse cx="1962" cy="229.1875" fill="#84BE84" rx="3" ry="3" style="stroke:#038048;stroke-width:1.0;"/><text fill="#000000" font-family="sans-serif" font-size="11" lengthAdjust="spacing" textLength="204" x="1971" y="233.6064">FindAdressesWrapper(dto:CommandDTO)</text><ellipse cx="1962" cy="243.0234" fill="#84BE84" rx="3" ry="3" style="stroke:#038048;stroke-width:1.0;"/><text fill="#000000" font-family="sans-serif" font-size="11" lengthAdjust="spacing" text-decoration="underline" textLength="161" x="1971" y="247.4424">IsForMe(dto:CommandDTO) : bool</text><ellipse cx="1962" cy="256.8594" fill="#84BE84" rx="3" ry="3" style="stroke:#038048;stroke-width:1.0;"/><text fill="#000000" font-family="sans-serif" font-size="11" lengthAdjust="spacing" text-decoration="underline" textLength="257" x="1971" y="261.2783">ExecuteCommand(dto:CommandDTO) : CommandDTO</text><ellipse cx="1962" cy="270.6953" fill="#84BE84" rx="3" ry="3" style="stroke:#038048;stroke-width:1.0;"/><text fill="#000000" font-family="sans-serif" font-size="11" lengthAdjust="spacing" textLength="301" x="1971" y="275.1143">«partial» FindAdresses(searchText:String) : List&lt;AdressDTO&gt;</text><!--MD5=[6e19dd62a802d136f77541c9a65b5007]
class GetAdressWrapper--><rect codeLine="9" fill="#FEFECE" filter="url(#f116ihmo3om2wo)" height="111.5313" id="GetAdressWrapper" style="stroke:#A80036;stroke-width:1.5;" width="283" x="1159" y="170"/><ellipse cx="1243.75" cy="190.0938" fill="#ADD1B2" rx="11" ry="11" style="stroke:#A80036;stroke-width:1.0;"/><path d="M1246.5156,185.9688 Q1246.6719,185.75 1246.8594,185.6406 Q1247.0469,185.5313 1247.2656,185.5313 Q1247.6406,185.5313 1247.875,185.7891 Q1248.1094,186.0469 1248.1094,186.6563 L1248.1094,188.1094 Q1248.1094,188.7188 1247.875,188.9844 Q1247.6406,189.25 1247.2656,189.25 Q1246.9219,189.25 1246.7188,189.0469 Q1246.5156,188.8594 1246.4063,188.3438 Q1246.3594,187.9844 1246.1719,187.7969 Q1245.8438,187.4219 1245.2344,187.2031 Q1244.625,186.9844 1244,186.9844 Q1243.2344,186.9844 1242.6016,187.3125 Q1241.9688,187.6406 1241.4766,188.3906 Q1240.9844,189.1406 1240.9844,190.1719 L1240.9844,191.2656 Q1240.9844,192.5 1241.875,193.3203 Q1242.7656,194.1406 1244.3594,194.1406 Q1245.2969,194.1406 1245.9531,193.8906 Q1246.3438,193.7344 1246.7656,193.2969 Q1247.0313,193.0313 1247.1797,192.9531 Q1247.3281,192.875 1247.5313,192.875 Q1247.8594,192.875 1248.1172,193.1328 Q1248.375,193.3906 1248.375,193.7344 Q1248.375,194.0781 1248.0313,194.4844 Q1247.5313,195.0625 1246.7344,195.3906 Q1245.6563,195.8438 1244.3594,195.8438 Q1242.8438,195.8438 1241.6406,195.2188 Q1240.6563,194.7188 1239.9688,193.6484 Q1239.2813,192.5781 1239.2813,191.2969 L1239.2813,190.1406 Q1239.2813,188.8125 1239.8984,187.6641 Q1240.5156,186.5156 1241.6094,185.8984 Q1242.7031,185.2813 1243.9375,185.2813 Q1244.6719,185.2813 1245.3203,185.4453 Q1245.9688,185.6094 1246.5156,185.9688 Z " fill="#000000"/><text fill="#000000" font-family="sans-serif" font-size="12" font-style="italic" lengthAdjust="spacing" textLength="48" x="1292.75" y="187.457">«partial»</text><text fill="#000000" font-family="sans-serif" font-size="12" lengthAdjust="spacing" textLength="105" x="1264.25" y="202.5508">GetAdressWrapper</text><line style="stroke:#A80036;stroke-width:1.5;" x1="1160" x2="1441" y1="210.1875" y2="210.1875"/><line style="stroke:#A80036;stroke-width:1.5;" x1="1160" x2="1441" y1="218.1875" y2="218.1875"/><ellipse cx="1170" cy="229.1875" fill="#84BE84" rx="3" ry="3" style="stroke:#038048;stroke-width:1.0;"/><text fill="#000000" font-family="sans-serif" font-size="11" lengthAdjust="spacing" textLength="189" x="1179" y="233.6064">GetAdressWrapper(dto:CommandDTO)</text><ellipse cx="1170" cy="243.0234" fill="#84BE84" rx="3" ry="3" style="stroke:#038048;stroke-width:1.0;"/><text fill="#000000" font-family="sans-serif" font-size="11" lengthAdjust="spacing" text-decoration="underline" textLength="161" x="1179" y="247.4424">IsForMe(dto:CommandDTO) : bool</text><ellipse cx="1170" cy="256.8594" fill="#84BE84" rx="3" ry="3" style="stroke:#038048;stroke-width:1.0;"/><text fill="#000000" font-family="sans-serif" font-size="11" lengthAdjust="spacing" text-decoration="underline" textLength="257" x="1179" y="261.2783">ExecuteCommand(dto:CommandDTO) : CommandDTO</text><ellipse cx="1170" cy="270.6953" fill="#84BE84" rx="3" ry="3" style="stroke:#038048;stroke-width:1.0;"/><text fill="#000000" font-family="sans-serif" font-size="11" lengthAdjust="spacing" textLength="204" x="1179" y="275.1143">«partial» GetAdress(id:Guid) : AdressDTO</text><!--MD5=[d7ea2e2e46638f75b2cef309ef62bd52]
class SetAdressWrapper--><rect codeLine="15" fill="#FEFECE" filter="url(#f116ihmo3om2wo)" height="111.5313" id="SetAdressWrapper" style="stroke:#A80036;stroke-width:1.5;" width="329" x="7" y="170"/><ellipse cx="115.25" cy="190.0938" fill="#ADD1B2" rx="11" ry="11" style="stroke:#A80036;stroke-width:1.0;"/><path d="M118.0156,185.9688 Q118.1719,185.75 118.3594,185.6406 Q118.5469,185.5313 118.7656,185.5313 Q119.1406,185.5313 119.375,185.7891 Q119.6094,186.0469 119.6094,186.6563 L119.6094,188.1094 Q119.6094,188.7188 119.375,188.9844 Q119.1406,189.25 118.7656,189.25 Q118.4219,189.25 118.2188,189.0469 Q118.0156,188.8594 117.9063,188.3438 Q117.8594,187.9844 117.6719,187.7969 Q117.3438,187.4219 116.7344,187.2031 Q116.125,186.9844 115.5,186.9844 Q114.7344,186.9844 114.1016,187.3125 Q113.4688,187.6406 112.9766,188.3906 Q112.4844,189.1406 112.4844,190.1719 L112.4844,191.2656 Q112.4844,192.5 113.375,193.3203 Q114.2656,194.1406 115.8594,194.1406 Q116.7969,194.1406 117.4531,193.8906 Q117.8438,193.7344 118.2656,193.2969 Q118.5313,193.0313 118.6797,192.9531 Q118.8281,192.875 119.0313,192.875 Q119.3594,192.875 119.6172,193.1328 Q119.875,193.3906 119.875,193.7344 Q119.875,194.0781 119.5313,194.4844 Q119.0313,195.0625 118.2344,195.3906 Q117.1563,195.8438 115.8594,195.8438 Q114.3438,195.8438 113.1406,195.2188 Q112.1563,194.7188 111.4688,193.6484 Q110.7813,192.5781 110.7813,191.2969 L110.7813,190.1406 Q110.7813,188.8125 111.3984,187.6641 Q112.0156,186.5156 113.1094,185.8984 Q114.2031,185.2813 115.4375,185.2813 Q116.1719,185.2813 116.8203,185.4453 Q117.4688,185.6094 118.0156,185.9688 Z " fill="#000000"/><text fill="#000000" font-family="sans-serif" font-size="12" font-style="italic" lengthAdjust="spacing" textLength="48" x="163.75" y="187.457">«partial»</text><text fill="#000000" font-family="sans-serif" font-size="12" lengthAdjust="spacing" textLength="104" x="135.75" y="202.5508">SetAdressWrapper</text><line style="stroke:#A80036;stroke-width:1.5;" x1="8" x2="335" y1="210.1875" y2="210.1875"/><line style="stroke:#A80036;stroke-width:1.5;" x1="8" x2="335" y1="218.1875" y2="218.1875"/><ellipse cx="18" cy="229.1875" fill="#84BE84" rx="3" ry="3" style="stroke:#038048;stroke-width:1.0;"/><text fill="#000000" font-family="sans-serif" font-size="11" lengthAdjust="spacing" textLength="188" x="27" y="233.6064">SetAdressWrapper(dto:CommandDTO)</text><ellipse cx="18" cy="243.0234" fill="#84BE84" rx="3" ry="3" style="stroke:#038048;stroke-width:1.0;"/><text fill="#000000" font-family="sans-serif" font-size="11" lengthAdjust="spacing" text-decoration="underline" textLength="161" x="27" y="247.4424">IsForMe(dto:CommandDTO) : bool</text><ellipse cx="18" cy="256.8594" fill="#84BE84" rx="3" ry="3" style="stroke:#038048;stroke-width:1.0;"/><text fill="#000000" font-family="sans-serif" font-size="11" lengthAdjust="spacing" text-decoration="underline" textLength="257" x="27" y="261.2783">ExecuteCommand(dto:CommandDTO) : CommandDTO</text><ellipse cx="18" cy="270.6953" fill="#84BE84" rx="3" ry="3" style="stroke:#038048;stroke-width:1.0;"/><text fill="#000000" font-family="sans-serif" font-size="11" lengthAdjust="spacing" textLength="303" x="27" y="275.1143">«partial» SetAdress(id:Guid, adress:AdressDTO) : AdressDTO</text><!--MD5=[e9948f5ac33029c6d753e81ae40d62cf]
class DeleteAdressWrapper--><rect codeLine="21" fill="#FEFECE" filter="url(#f116ihmo3om2wo)" height="111.5313" id="DeleteAdressWrapper" style="stroke:#A80036;stroke-width:1.5;" width="283" x="371" y="170"/><ellipse cx="447.25" cy="190.0938" fill="#ADD1B2" rx="11" ry="11" style="stroke:#A80036;stroke-width:1.0;"/><path d="M450.0156,185.9688 Q450.1719,185.75 450.3594,185.6406 Q450.5469,185.5313 450.7656,185.5313 Q451.1406,185.5313 451.375,185.7891 Q451.6094,186.0469 451.6094,186.6563 L451.6094,188.1094 Q451.6094,188.7188 451.375,188.9844 Q451.1406,189.25 450.7656,189.25 Q450.4219,189.25 450.2188,189.0469 Q450.0156,188.8594 449.9063,188.3438 Q449.8594,187.9844 449.6719,187.7969 Q449.3438,187.4219 448.7344,187.2031 Q448.125,186.9844 447.5,186.9844 Q446.7344,186.9844 446.1016,187.3125 Q445.4688,187.6406 444.9766,188.3906 Q444.4844,189.1406 444.4844,190.1719 L444.4844,191.2656 Q444.4844,192.5 445.375,193.3203 Q446.2656,194.1406 447.8594,194.1406 Q448.7969,194.1406 449.4531,193.8906 Q449.8438,193.7344 450.2656,193.2969 Q450.5313,193.0313 450.6797,192.9531 Q450.8281,192.875 451.0313,192.875 Q451.3594,192.875 451.6172,193.1328 Q451.875,193.3906 451.875,193.7344 Q451.875,194.0781 451.5313,194.4844 Q451.0313,195.0625 450.2344,195.3906 Q449.1563,195.8438 447.8594,195.8438 Q446.3438,195.8438 445.1406,195.2188 Q444.1563,194.7188 443.4688,193.6484 Q442.7813,192.5781 442.7813,191.2969 L442.7813,190.1406 Q442.7813,188.8125 443.3984,187.6641 Q444.0156,186.5156 445.1094,185.8984 Q446.2031,185.2813 447.4375,185.2813 Q448.1719,185.2813 448.8203,185.4453 Q449.4688,185.6094 450.0156,185.9688 Z " fill="#000000"/><text fill="#000000" font-family="sans-serif" font-size="12" font-style="italic" lengthAdjust="spacing" textLength="48" x="504.75" y="187.457">«partial»</text><text fill="#000000" font-family="sans-serif" font-size="12" lengthAdjust="spacing" textLength="122" x="467.75" y="202.5508">DeleteAdressWrapper</text><line style="stroke:#A80036;stroke-width:1.5;" x1="372" x2="653" y1="210.1875" y2="210.1875"/><line style="stroke:#A80036;stroke-width:1.5;" x1="372" x2="653" y1="218.1875" y2="218.1875"/><ellipse cx="382" cy="229.1875" fill="#84BE84" rx="3" ry="3" style="stroke:#038048;stroke-width:1.0;"/><text fill="#000000" font-family="sans-serif" font-size="11" lengthAdjust="spacing" textLength="202" x="391" y="233.6064">DeleteAdressWrapper(dto:CommandDTO)</text><ellipse cx="382" cy="243.0234" fill="#84BE84" rx="3" ry="3" style="stroke:#038048;stroke-width:1.0;"/><text fill="#000000" font-family="sans-serif" font-size="11" lengthAdjust="spacing" text-decoration="underline" textLength="161" x="391" y="247.4424">IsForMe(dto:CommandDTO) : bool</text><ellipse cx="382" cy="256.8594" fill="#84BE84" rx="3" ry="3" style="stroke:#038048;stroke-width:1.0;"/><text fill="#000000" font-family="sans-serif" font-size="11" lengthAdjust="spacing" text-decoration="underline" textLength="257" x="391" y="261.2783">ExecuteCommand(dto:CommandDTO) : CommandDTO</text><ellipse cx="382" cy="270.6953" fill="#84BE84" rx="3" ry="3" style="stroke:#038048;stroke-width:1.0;"/><text fill="#000000" font-family="sans-serif" font-size="11" lengthAdjust="spacing" textLength="217" x="391" y="275.1143">«partial» DeleteAdress(id:Guid) : AdressDTO</text><!--MD5=[9445adbca05695301a39cf2527b3960a]
class AdressTypesDispatcher--><rect codeLine="27" fill="#FEFECE" filter="url(#f116ihmo3om2wo)" height="70.0234" id="AdressTypesDispatcher" style="stroke:#A80036;stroke-width:1.5;" width="239" x="2525" y="23.5"/><ellipse cx="2574.25" cy="43.5938" fill="#ADD1B2" rx="11" ry="11" style="stroke:#A80036;stroke-width:1.0;"/><path d="M2577.0156,39.4688 Q2577.1719,39.25 2577.3594,39.1406 Q2577.5469,39.0313 2577.7656,39.0313 Q2578.1406,39.0313 2578.375,39.2891 Q2578.6094,39.5469 2578.6094,40.1563 L2578.6094,41.6094 Q2578.6094,42.2188 2578.375,42.4844 Q2578.1406,42.75 2577.7656,42.75 Q2577.4219,42.75 2577.2188,42.5469 Q2577.0156,42.3594 2576.9063,41.8438 Q2576.8594,41.4844 2576.6719,41.2969 Q2576.3438,40.9219 2575.7344,40.7031 Q2575.125,40.4844 2574.5,40.4844 Q2573.7344,40.4844 2573.1016,40.8125 Q2572.4688,41.1406 2571.9766,41.8906 Q2571.4844,42.6406 2571.4844,43.6719 L2571.4844,44.7656 Q2571.4844,46 2572.375,46.8203 Q2573.2656,47.6406 2574.8594,47.6406 Q2575.7969,47.6406 2576.4531,47.3906 Q2576.8438,47.2344 2577.2656,46.7969 Q2577.5313,46.5313 2577.6797,46.4531 Q2577.8281,46.375 2578.0313,46.375 Q2578.3594,46.375 2578.6172,46.6328 Q2578.875,46.8906 2578.875,47.2344 Q2578.875,47.5781 2578.5313,47.9844 Q2578.0313,48.5625 2577.2344,48.8906 Q2576.1563,49.3438 2574.8594,49.3438 Q2573.3438,49.3438 2572.1406,48.7188 Q2571.1563,48.2188 2570.4688,47.1484 Q2569.7813,46.0781 2569.7813,44.7969 L2569.7813,43.6406 Q2569.7813,42.3125 2570.3984,41.1641 Q2571.0156,40.0156 2572.1094,39.3984 Q2573.2031,38.7813 2574.4375,38.7813 Q2575.1719,38.7813 2575.8203,38.9453 Q2576.4688,39.1094 2577.0156,39.4688 Z " fill="#000000"/><text fill="#000000" font-family="sans-serif" font-size="12" font-style="italic" lengthAdjust="spacing" textLength="42" x="2639.75" y="40.957">«static»</text><text fill="#000000" font-family="sans-serif" font-size="12" lengthAdjust="spacing" textLength="132" x="2594.75" y="56.0508">AdressTypesDispatcher</text><line style="stroke:#A80036;stroke-width:1.5;" x1="2526" x2="2763" y1="63.6875" y2="63.6875"/><line style="stroke:#A80036;stroke-width:1.5;" x1="2526" x2="2763" y1="71.6875" y2="71.6875"/><ellipse cx="2536" cy="82.6875" fill="#84BE84" rx="3" ry="3" style="stroke:#038048;stroke-width:1.0;"/><text fill="#000000" font-family="sans-serif" font-size="11" lengthAdjust="spacing" text-decoration="underline" textLength="213" x="2545" y="87.1064">Dispatch(dto:CommandDTO) : CommandDTO</text><!--MD5=[e644022de7dea015dd09463c37421447]
class List`1--><rect codeLine="114" fill="#FEFECE" filter="url(#f116ihmo3om2wo)" height="48" id="List`1" style="stroke:#A80036;stroke-width:1.5;" width="74" x="1843.5" y="450"/><ellipse cx="1858.5" cy="466" fill="#ADD1B2" rx="11" ry="11" style="stroke:#A80036;stroke-width:1.0;"/><path d="M1861.2656,461.875 Q1861.4219,461.6563 1861.6094,461.5469 Q1861.7969,461.4375 1862.0156,461.4375 Q1862.3906,461.4375 1862.625,461.6953 Q1862.8594,461.9531 1862.8594,462.5625 L1862.8594,464.0156 Q1862.8594,464.625 1862.625,464.8906 Q1862.3906,465.1563 1862.0156,465.1563 Q1861.6719,465.1563 1861.4688,464.9531 Q1861.2656,464.7656 1861.1563,464.25 Q1861.1094,463.8906 1860.9219,463.7031 Q1860.5938,463.3281 1859.9844,463.1094 Q1859.375,462.8906 1858.75,462.8906 Q1857.9844,462.8906 1857.3516,463.2188 Q1856.7188,463.5469 1856.2266,464.2969 Q1855.7344,465.0469 1855.7344,466.0781 L1855.7344,467.1719 Q1855.7344,468.4063 1856.625,469.2266 Q1857.5156,470.0469 1859.1094,470.0469 Q1860.0469,470.0469 1860.7031,469.7969 Q1861.0938,469.6406 1861.5156,469.2031 Q1861.7813,468.9375 1861.9297,468.8594 Q1862.0781,468.7813 1862.2813,468.7813 Q1862.6094,468.7813 1862.8672,469.0391 Q1863.125,469.2969 1863.125,469.6406 Q1863.125,469.9844 1862.7813,470.3906 Q1862.2813,470.9688 1861.4844,471.2969 Q1860.4063,471.75 1859.1094,471.75 Q1857.5938,471.75 1856.3906,471.125 Q1855.4063,470.625 1854.7188,469.5547 Q1854.0313,468.4844 1854.0313,467.2031 L1854.0313,466.0469 Q1854.0313,464.7188 1854.6484,463.5703 Q1855.2656,462.4219 1856.3594,461.8047 Q1857.4531,461.1875 1858.6875,461.1875 Q1859.4219,461.1875 1860.0703,461.3516 Q1860.7188,461.5156 1861.2656,461.875 Z " fill="#000000"/><text fill="#000000" font-family="sans-serif" font-size="12" lengthAdjust="spacing" textLength="31" x="1872.5" y="470.9102">List`1</text><rect fill="#FFFFFF" height="17.0938" style="stroke:#000000;stroke-width:1.0;stroke-dasharray:2.0,2.0;" width="9" x="1911.5" y="447"/><text fill="#000000" font-family="sans-serif" font-size="12" font-style="italic" lengthAdjust="spacing" textLength="7" x="1912.5" y="460.457">T</text><line style="stroke:#A80036;stroke-width:1.5;" x1="1844.5" x2="1916.5" y1="482" y2="482"/><line style="stroke:#A80036;stroke-width:1.5;" x1="1844.5" x2="1916.5" y1="490" y2="490"/><!--MD5=[6b1d3384926f1bc892ee196bbd0d7fce]
class BaseDTO--><rect codeLine="68" fill="#FEFECE" filter="url(#f116ihmo3om2wo)" height="111.5313" id="BaseDTO" style="stroke:#A80036;stroke-width:1.5;" width="439" x="1477" y="170"/><ellipse cx="1665.25" cy="190.0938" fill="#ADD1B2" rx="11" ry="11" style="stroke:#A80036;stroke-width:1.0;"/><path d="M1668.0156,185.9688 Q1668.1719,185.75 1668.3594,185.6406 Q1668.5469,185.5313 1668.7656,185.5313 Q1669.1406,185.5313 1669.375,185.7891 Q1669.6094,186.0469 1669.6094,186.6563 L1669.6094,188.1094 Q1669.6094,188.7188 1669.375,188.9844 Q1669.1406,189.25 1668.7656,189.25 Q1668.4219,189.25 1668.2188,189.0469 Q1668.0156,188.8594 1667.9063,188.3438 Q1667.8594,187.9844 1667.6719,187.7969 Q1667.3438,187.4219 1666.7344,187.2031 Q1666.125,186.9844 1665.5,186.9844 Q1664.7344,186.9844 1664.1016,187.3125 Q1663.4688,187.6406 1662.9766,188.3906 Q1662.4844,189.1406 1662.4844,190.1719 L1662.4844,191.2656 Q1662.4844,192.5 1663.375,193.3203 Q1664.2656,194.1406 1665.8594,194.1406 Q1666.7969,194.1406 1667.4531,193.8906 Q1667.8438,193.7344 1668.2656,193.2969 Q1668.5313,193.0313 1668.6797,192.9531 Q1668.8281,192.875 1669.0313,192.875 Q1669.3594,192.875 1669.6172,193.1328 Q1669.875,193.3906 1669.875,193.7344 Q1669.875,194.0781 1669.5313,194.4844 Q1669.0313,195.0625 1668.2344,195.3906 Q1667.1563,195.8438 1665.8594,195.8438 Q1664.3438,195.8438 1663.1406,195.2188 Q1662.1563,194.7188 1661.4688,193.6484 Q1660.7813,192.5781 1660.7813,191.2969 L1660.7813,190.1406 Q1660.7813,188.8125 1661.3984,187.6641 Q1662.0156,186.5156 1663.1094,185.8984 Q1664.2031,185.2813 1665.4375,185.2813 Q1666.1719,185.2813 1666.8203,185.4453 Q1667.4688,185.6094 1668.0156,185.9688 Z " fill="#000000"/><text fill="#000000" font-family="sans-serif" font-size="12" font-style="italic" lengthAdjust="spacing" textLength="48" x="1688.75" y="187.457">«partial»</text><text fill="#000000" font-family="sans-serif" font-size="12" lengthAdjust="spacing" textLength="54" x="1685.75" y="202.5508">BaseDTO</text><line style="stroke:#A80036;stroke-width:1.5;" x1="1478" x2="1915" y1="210.1875" y2="210.1875"/><line style="stroke:#A80036;stroke-width:1.5;" x1="1478" x2="1915" y1="218.1875" y2="218.1875"/><polygon fill="#FFFF44" points="1488,224.1875,1492,228.1875,1488,232.1875,1484,228.1875" style="stroke:#B38D22;stroke-width:1.0;"/><text fill="#000000" font-family="sans-serif" font-size="11" lengthAdjust="spacing" textLength="323" x="1497" y="233.6064">StringFromPropertyList(list:List&lt;PropertyDTO&gt;, name:string) : string</text><polygon fill="#FFFF44" points="1488,238.0234,1492,242.0234,1488,246.0234,1484,242.0234" style="stroke:#B38D22;stroke-width:1.0;"/><text fill="#000000" font-family="sans-serif" font-size="11" lengthAdjust="spacing" textLength="390" x="1497" y="247.4424">StringToPropertyList(list:List&lt;PropertyDTO&gt;, name:string, newValue:string) : void</text><polygon fill="#FFFF44" points="1488,251.8594,1492,255.8594,1488,259.8594,1484,255.8594" style="stroke:#B38D22;stroke-width:1.0;"/><text fill="#000000" font-family="sans-serif" font-size="11" lengthAdjust="spacing" textLength="346" x="1497" y="261.2783">BooleanFromPropertyList(list:List&lt;PropertyDTO&gt;, name:string) : Boolean</text><polygon fill="#FFFF44" points="1488,265.6953,1492,269.6953,1488,273.6953,1484,269.6953" style="stroke:#B38D22;stroke-width:1.0;"/><text fill="#000000" font-family="sans-serif" font-size="11" lengthAdjust="spacing" textLength="413" x="1497" y="275.1143">BooleanToPropertyList(list:List&lt;PropertyDTO&gt;, name:string, newValue:Boolean) : void</text><!--MD5=[b9f3d2915b6b8d0c143f32ccec3f745e]
class Guid--><rect fill="#FEFECE" filter="url(#f116ihmo3om2wo)" height="48" id="Guid" style="stroke:#A80036;stroke-width:1.5;" width="58" x="1214.5" y="450"/><ellipse cx="1229.5" cy="466" fill="#ADD1B2" rx="11" ry="11" style="stroke:#A80036;stroke-width:1.0;"/><path d="M1232.2656,461.875 Q1232.4219,461.6563 1232.6094,461.5469 Q1232.7969,461.4375 1233.0156,461.4375 Q1233.3906,461.4375 1233.625,461.6953 Q1233.8594,461.9531 1233.8594,462.5625 L1233.8594,464.0156 Q1233.8594,464.625 1233.625,464.8906 Q1233.3906,465.1563 1233.0156,465.1563 Q1232.6719,465.1563 1232.4688,464.9531 Q1232.2656,464.7656 1232.1563,464.25 Q1232.1094,463.8906 1231.9219,463.7031 Q1231.5938,463.3281 1230.9844,463.1094 Q1230.375,462.8906 1229.75,462.8906 Q1228.9844,462.8906 1228.3516,463.2188 Q1227.7188,463.5469 1227.2266,464.2969 Q1226.7344,465.0469 1226.7344,466.0781 L1226.7344,467.1719 Q1226.7344,468.4063 1227.625,469.2266 Q1228.5156,470.0469 1230.1094,470.0469 Q1231.0469,470.0469 1231.7031,469.7969 Q1232.0938,469.6406 1232.5156,469.2031 Q1232.7813,468.9375 1232.9297,468.8594 Q1233.0781,468.7813 1233.2813,468.7813 Q1233.6094,468.7813 1233.8672,469.0391 Q1234.125,469.2969 1234.125,469.6406 Q1234.125,469.9844 1233.7813,470.3906 Q1233.2813,470.9688 1232.4844,471.2969 Q1231.4063,471.75 1230.1094,471.75 Q1228.5938,471.75 1227.3906,471.125 Q1226.4063,470.625 1225.7188,469.5547 Q1225.0313,468.4844 1225.0313,467.2031 L1225.0313,466.0469 Q1225.0313,464.7188 1225.6484,463.5703 Q1226.2656,462.4219 1227.3594,461.8047 Q1228.4531,461.1875 1229.6875,461.1875 Q1230.4219,461.1875 1231.0703,461.3516 Q1231.7188,461.5156 1232.2656,461.875 Z " fill="#000000"/><text fill="#000000" font-family="sans-serif" font-size="12" lengthAdjust="spacing" textLength="26" x="1243.5" y="470.9102">Guid</text><line style="stroke:#A80036;stroke-width:1.5;" x1="1215.5" x2="1271.5" y1="482" y2="482"/><line style="stroke:#A80036;stroke-width:1.5;" x1="1215.5" x2="1271.5" y1="490" y2="490"/><!--MD5=[9df70cf33be424c1b8543b3f439cae89]
class String--><rect fill="#FEFECE" filter="url(#f116ihmo3om2wo)" height="48" id="String" style="stroke:#A80036;stroke-width:1.5;" width="64" x="461.5" y="450"/><ellipse cx="476.5" cy="466" fill="#ADD1B2" rx="11" ry="11" style="stroke:#A80036;stroke-width:1.0;"/><path d="M479.2656,461.875 Q479.4219,461.6563 479.6094,461.5469 Q479.7969,461.4375 480.0156,461.4375 Q480.3906,461.4375 480.625,461.6953 Q480.8594,461.9531 480.8594,462.5625 L480.8594,464.0156 Q480.8594,464.625 480.625,464.8906 Q480.3906,465.1563 480.0156,465.1563 Q479.6719,465.1563 479.4688,464.9531 Q479.2656,464.7656 479.1563,464.25 Q479.1094,463.8906 478.9219,463.7031 Q478.5938,463.3281 477.9844,463.1094 Q477.375,462.8906 476.75,462.8906 Q475.9844,462.8906 475.3516,463.2188 Q474.7188,463.5469 474.2266,464.2969 Q473.7344,465.0469 473.7344,466.0781 L473.7344,467.1719 Q473.7344,468.4063 474.625,469.2266 Q475.5156,470.0469 477.1094,470.0469 Q478.0469,470.0469 478.7031,469.7969 Q479.0938,469.6406 479.5156,469.2031 Q479.7813,468.9375 479.9297,468.8594 Q480.0781,468.7813 480.2813,468.7813 Q480.6094,468.7813 480.8672,469.0391 Q481.125,469.2969 481.125,469.6406 Q481.125,469.9844 480.7813,470.3906 Q480.2813,470.9688 479.4844,471.2969 Q478.4063,471.75 477.1094,471.75 Q475.5938,471.75 474.3906,471.125 Q473.4063,470.625 472.7188,469.5547 Q472.0313,468.4844 472.0313,467.2031 L472.0313,466.0469 Q472.0313,464.7188 472.6484,463.5703 Q473.2656,462.4219 474.3594,461.8047 Q475.4531,461.1875 476.6875,461.1875 Q477.4219,461.1875 478.0703,461.3516 Q478.7188,461.5156 479.2656,461.875 Z " fill="#000000"/><text fill="#000000" font-family="sans-serif" font-size="12" lengthAdjust="spacing" textLength="32" x="490.5" y="470.9102">String</text><line style="stroke:#A80036;stroke-width:1.5;" x1="462.5" x2="524.5" y1="482" y2="482"/><line style="stroke:#A80036;stroke-width:1.5;" x1="462.5" x2="524.5" y1="490" y2="490"/><!--MD5=[fe6b2754769bc87cf156126798433078]
class CommandWrapper--><rect codeLine="95" fill="#FEFECE" filter="url(#f116ihmo3om2wo)" height="103.3438" id="CommandWrapper" style="stroke:#A80036;stroke-width:1.5;" width="443" x="767" y="7"/><ellipse cx="931.25" cy="23" fill="#ADD1B2" rx="11" ry="11" style="stroke:#A80036;stroke-width:1.0;"/><path d="M934.0156,18.875 Q934.1719,18.6563 934.3594,18.5469 Q934.5469,18.4375 934.7656,18.4375 Q935.1406,18.4375 935.375,18.6953 Q935.6094,18.9531 935.6094,19.5625 L935.6094,21.0156 Q935.6094,21.625 935.375,21.8906 Q935.1406,22.1563 934.7656,22.1563 Q934.4219,22.1563 934.2188,21.9531 Q934.0156,21.7656 933.9063,21.25 Q933.8594,20.8906 933.6719,20.7031 Q933.3438,20.3281 932.7344,20.1094 Q932.125,19.8906 931.5,19.8906 Q930.7344,19.8906 930.1016,20.2188 Q929.4688,20.5469 928.9766,21.2969 Q928.4844,22.0469 928.4844,23.0781 L928.4844,24.1719 Q928.4844,25.4063 929.375,26.2266 Q930.2656,27.0469 931.8594,27.0469 Q932.7969,27.0469 933.4531,26.7969 Q933.8438,26.6406 934.2656,26.2031 Q934.5313,25.9375 934.6797,25.8594 Q934.8281,25.7813 935.0313,25.7813 Q935.3594,25.7813 935.6172,26.0391 Q935.875,26.2969 935.875,26.6406 Q935.875,26.9844 935.5313,27.3906 Q935.0313,27.9688 934.2344,28.2969 Q933.1563,28.75 931.8594,28.75 Q930.3438,28.75 929.1406,28.125 Q928.1563,27.625 927.4688,26.5547 Q926.7813,25.4844 926.7813,24.2031 L926.7813,23.0469 Q926.7813,21.7188 927.3984,20.5703 Q928.0156,19.4219 929.1094,18.8047 Q930.2031,18.1875 931.4375,18.1875 Q932.1719,18.1875 932.8203,18.3516 Q933.4688,18.5156 934.0156,18.875 Z " fill="#000000"/><text fill="#000000" font-family="sans-serif" font-size="12" lengthAdjust="spacing" textLength="106" x="951.75" y="27.9102">CommandWrapper</text><line style="stroke:#A80036;stroke-width:1.5;" x1="768" x2="1209" y1="39" y2="39"/><line style="stroke:#A80036;stroke-width:1.5;" x1="768" x2="1209" y1="47" y2="47"/><ellipse cx="778" cy="58" fill="#84BE84" rx="3" ry="3" style="stroke:#038048;stroke-width:1.0;"/><text fill="#000000" font-family="sans-serif" font-size="11" lengthAdjust="spacing" textLength="183" x="787" y="62.4189">CommandWrapper(dto:CommandDTO)</text><polygon fill="#FFFF44" points="778,66.8359,782,70.8359,778,74.8359,774,70.8359" style="stroke:#B38D22;stroke-width:1.0;"/><text fill="#000000" font-family="sans-serif" font-size="11" lengthAdjust="spacing" textLength="385" x="787" y="76.2549">Get(cmd:CommandDTO, name:string, target:(Func&lt;T&gt; get, Action&lt;T&gt; set)) : void</text><polygon fill="#FFFF44" points="778,80.6719,782,84.6719,778,88.6719,774,84.6719" style="stroke:#B38D22;stroke-width:1.0;"/><text fill="#000000" font-family="sans-serif" font-size="11" lengthAdjust="spacing" textLength="417" x="787" y="90.0908">Get(cmd:CommandDTO, name:string, target:(Func&lt;Guid&gt; get, Action&lt;Guid&gt; set)) : void</text><polygon fill="#FFFF44" points="778,94.5078,782,98.5078,778,102.5078,774,98.5078" style="stroke:#B38D22;stroke-width:1.0;"/><text fill="#000000" font-family="sans-serif" font-size="11" lengthAdjust="spacing" textLength="247" x="787" y="103.9268">Set(cmd:CommandDTO, name:string, value:T) : void</text><!--MD5=[f5d54f60ec6d089d1cb017027d5a65a8]
class CommandDTO--><rect codeLine="103" fill="#FEFECE" filter="url(#f116ihmo3om2wo)" height="48" id="CommandDTO" style="stroke:#A80036;stroke-width:1.5;" width="116" x="1065.5" y="342"/><ellipse cx="1080.5" cy="358" fill="#ADD1B2" rx="11" ry="11" style="stroke:#A80036;stroke-width:1.0;"/><path d="M1083.2656,353.875 Q1083.4219,353.6563 1083.6094,353.5469 Q1083.7969,353.4375 1084.0156,353.4375 Q1084.3906,353.4375 1084.625,353.6953 Q1084.8594,353.9531 1084.8594,354.5625 L1084.8594,356.0156 Q1084.8594,356.625 1084.625,356.8906 Q1084.3906,357.1563 1084.0156,357.1563 Q1083.6719,357.1563 1083.4688,356.9531 Q1083.2656,356.7656 1083.1563,356.25 Q1083.1094,355.8906 1082.9219,355.7031 Q1082.5938,355.3281 1081.9844,355.1094 Q1081.375,354.8906 1080.75,354.8906 Q1079.9844,354.8906 1079.3516,355.2188 Q1078.7188,355.5469 1078.2266,356.2969 Q1077.7344,357.0469 1077.7344,358.0781 L1077.7344,359.1719 Q1077.7344,360.4063 1078.625,361.2266 Q1079.5156,362.0469 1081.1094,362.0469 Q1082.0469,362.0469 1082.7031,361.7969 Q1083.0938,361.6406 1083.5156,361.2031 Q1083.7813,360.9375 1083.9297,360.8594 Q1084.0781,360.7813 1084.2813,360.7813 Q1084.6094,360.7813 1084.8672,361.0391 Q1085.125,361.2969 1085.125,361.6406 Q1085.125,361.9844 1084.7813,362.3906 Q1084.2813,362.9688 1083.4844,363.2969 Q1082.4063,363.75 1081.1094,363.75 Q1079.5938,363.75 1078.3906,363.125 Q1077.4063,362.625 1076.7188,361.5547 Q1076.0313,360.4844 1076.0313,359.2031 L1076.0313,358.0469 Q1076.0313,356.7188 1076.6484,355.5703 Q1077.2656,354.4219 1078.3594,353.8047 Q1079.4531,353.1875 1080.6875,353.1875 Q1081.4219,353.1875 1082.0703,353.3516 Q1082.7188,353.5156 1083.2656,353.875 Z " fill="#000000"/><text fill="#000000" font-family="sans-serif" font-size="12" lengthAdjust="spacing" textLength="84" x="1094.5" y="362.9102">CommandDTO</text><line style="stroke:#A80036;stroke-width:1.5;" x1="1066.5" x2="1180.5" y1="374" y2="374"/><line style="stroke:#A80036;stroke-width:1.5;" x1="1066.5" x2="1180.5" y1="382" y2="382"/><!--MD5=[a8c0967d7b66f43265179b07355379df]
class PropertyDTO--><rect codeLine="70" fill="#FEFECE" filter="url(#f116ihmo3om2wo)" height="48" id="PropertyDTO" style="stroke:#A80036;stroke-width:1.5;" width="102" x="647.5" y="342"/><ellipse cx="662.5" cy="358" fill="#ADD1B2" rx="11" ry="11" style="stroke:#A80036;stroke-width:1.0;"/><path d="M665.2656,353.875 Q665.4219,353.6563 665.6094,353.5469 Q665.7969,353.4375 666.0156,353.4375 Q666.3906,353.4375 666.625,353.6953 Q666.8594,353.9531 666.8594,354.5625 L666.8594,356.0156 Q666.8594,356.625 666.625,356.8906 Q666.3906,357.1563 666.0156,357.1563 Q665.6719,357.1563 665.4688,356.9531 Q665.2656,356.7656 665.1563,356.25 Q665.1094,355.8906 664.9219,355.7031 Q664.5938,355.3281 663.9844,355.1094 Q663.375,354.8906 662.75,354.8906 Q661.9844,354.8906 661.3516,355.2188 Q660.7188,355.5469 660.2266,356.2969 Q659.7344,357.0469 659.7344,358.0781 L659.7344,359.1719 Q659.7344,360.4063 660.625,361.2266 Q661.5156,362.0469 663.1094,362.0469 Q664.0469,362.0469 664.7031,361.7969 Q665.0938,361.6406 665.5156,361.2031 Q665.7813,360.9375 665.9297,360.8594 Q666.0781,360.7813 666.2813,360.7813 Q666.6094,360.7813 666.8672,361.0391 Q667.125,361.2969 667.125,361.6406 Q667.125,361.9844 666.7813,362.3906 Q666.2813,362.9688 665.4844,363.2969 Q664.4063,363.75 663.1094,363.75 Q661.5938,363.75 660.3906,363.125 Q659.4063,362.625 658.7188,361.5547 Q658.0313,360.4844 658.0313,359.2031 L658.0313,358.0469 Q658.0313,356.7188 658.6484,355.5703 Q659.2656,354.4219 660.3594,353.8047 Q661.4531,353.1875 662.6875,353.1875 Q663.4219,353.1875 664.0703,353.3516 Q664.7188,353.5156 665.2656,353.875 Z " fill="#000000"/><text fill="#000000" font-family="sans-serif" font-size="12" lengthAdjust="spacing" textLength="70" x="676.5" y="362.9102">PropertyDTO</text><line style="stroke:#A80036;stroke-width:1.5;" x1="648.5" x2="748.5" y1="374" y2="374"/><line style="stroke:#A80036;stroke-width:1.5;" x1="648.5" x2="748.5" y1="382" y2="382"/><!--MD5=[a86c46b503d2a734898010b41f2fcc93]
class ObjectDTO--><rect codeLine="72" fill="#FEFECE" filter="url(#f116ihmo3om2wo)" height="48" id="ObjectDTO" style="stroke:#A80036;stroke-width:1.5;" width="92" x="1834.5" y="342"/><ellipse cx="1849.5" cy="358" fill="#ADD1B2" rx="11" ry="11" style="stroke:#A80036;stroke-width:1.0;"/><path d="M1852.2656,353.875 Q1852.4219,353.6563 1852.6094,353.5469 Q1852.7969,353.4375 1853.0156,353.4375 Q1853.3906,353.4375 1853.625,353.6953 Q1853.8594,353.9531 1853.8594,354.5625 L1853.8594,356.0156 Q1853.8594,356.625 1853.625,356.8906 Q1853.3906,357.1563 1853.0156,357.1563 Q1852.6719,357.1563 1852.4688,356.9531 Q1852.2656,356.7656 1852.1563,356.25 Q1852.1094,355.8906 1851.9219,355.7031 Q1851.5938,355.3281 1850.9844,355.1094 Q1850.375,354.8906 1849.75,354.8906 Q1848.9844,354.8906 1848.3516,355.2188 Q1847.7188,355.5469 1847.2266,356.2969 Q1846.7344,357.0469 1846.7344,358.0781 L1846.7344,359.1719 Q1846.7344,360.4063 1847.625,361.2266 Q1848.5156,362.0469 1850.1094,362.0469 Q1851.0469,362.0469 1851.7031,361.7969 Q1852.0938,361.6406 1852.5156,361.2031 Q1852.7813,360.9375 1852.9297,360.8594 Q1853.0781,360.7813 1853.2813,360.7813 Q1853.6094,360.7813 1853.8672,361.0391 Q1854.125,361.2969 1854.125,361.6406 Q1854.125,361.9844 1853.7813,362.3906 Q1853.2813,362.9688 1852.4844,363.2969 Q1851.4063,363.75 1850.1094,363.75 Q1848.5938,363.75 1847.3906,363.125 Q1846.4063,362.625 1845.7188,361.5547 Q1845.0313,360.4844 1845.0313,359.2031 L1845.0313,358.0469 Q1845.0313,356.7188 1845.6484,355.5703 Q1846.2656,354.4219 1847.3594,353.8047 Q1848.4531,353.1875 1849.6875,353.1875 Q1850.4219,353.1875 1851.0703,353.3516 Q1851.7188,353.5156 1852.2656,353.875 Z " fill="#000000"/><text fill="#000000" font-family="sans-serif" font-size="12" lengthAdjust="spacing" textLength="60" x="1863.5" y="362.9102">ObjectDTO</text><line style="stroke:#A80036;stroke-width:1.5;" x1="1835.5" x2="1925.5" y1="374" y2="374"/><line style="stroke:#A80036;stroke-width:1.5;" x1="1835.5" x2="1925.5" y1="382" y2="382"/><!--MD5=[ab65f1b894babecd782f1df810423109]
class TypeDTO--><rect codeLine="74" fill="#FEFECE" filter="url(#f116ihmo3om2wo)" height="48" id="TypeDTO" style="stroke:#A80036;stroke-width:1.5;" width="83" x="1435" y="342"/><ellipse cx="1450" cy="358" fill="#ADD1B2" rx="11" ry="11" style="stroke:#A80036;stroke-width:1.0;"/><path d="M1452.7656,353.875 Q1452.9219,353.6563 1453.1094,353.5469 Q1453.2969,353.4375 1453.5156,353.4375 Q1453.8906,353.4375 1454.125,353.6953 Q1454.3594,353.9531 1454.3594,354.5625 L1454.3594,356.0156 Q1454.3594,356.625 1454.125,356.8906 Q1453.8906,357.1563 1453.5156,357.1563 Q1453.1719,357.1563 1452.9688,356.9531 Q1452.7656,356.7656 1452.6563,356.25 Q1452.6094,355.8906 1452.4219,355.7031 Q1452.0938,355.3281 1451.4844,355.1094 Q1450.875,354.8906 1450.25,354.8906 Q1449.4844,354.8906 1448.8516,355.2188 Q1448.2188,355.5469 1447.7266,356.2969 Q1447.2344,357.0469 1447.2344,358.0781 L1447.2344,359.1719 Q1447.2344,360.4063 1448.125,361.2266 Q1449.0156,362.0469 1450.6094,362.0469 Q1451.5469,362.0469 1452.2031,361.7969 Q1452.5938,361.6406 1453.0156,361.2031 Q1453.2813,360.9375 1453.4297,360.8594 Q1453.5781,360.7813 1453.7813,360.7813 Q1454.1094,360.7813 1454.3672,361.0391 Q1454.625,361.2969 1454.625,361.6406 Q1454.625,361.9844 1454.2813,362.3906 Q1453.7813,362.9688 1452.9844,363.2969 Q1451.9063,363.75 1450.6094,363.75 Q1449.0938,363.75 1447.8906,363.125 Q1446.9063,362.625 1446.2188,361.5547 Q1445.5313,360.4844 1445.5313,359.2031 L1445.5313,358.0469 Q1445.5313,356.7188 1446.1484,355.5703 Q1446.7656,354.4219 1447.8594,353.8047 Q1448.9531,353.1875 1450.1875,353.1875 Q1450.9219,353.1875 1451.5703,353.3516 Q1452.2188,353.5156 1452.7656,353.875 Z " fill="#000000"/><text fill="#000000" font-family="sans-serif" font-size="12" lengthAdjust="spacing" textLength="51" x="1464" y="362.9102">TypeDTO</text><line style="stroke:#A80036;stroke-width:1.5;" x1="1436" x2="1517" y1="374" y2="374"/><line style="stroke:#A80036;stroke-width:1.5;" x1="1436" x2="1517" y1="382" y2="382"/><!--MD5=[c1f063b1d619a33d7306ce784b596c98]
class BaseTypesDispatcher--><rect codeLine="76" fill="#FEFECE" filter="url(#f116ihmo3om2wo)" height="70.0234" id="BaseTypesDispatcher" style="stroke:#A80036;stroke-width:1.5;" width="239" x="2799" y="23.5"/><ellipse cx="2853.25" cy="43.5938" fill="#ADD1B2" rx="11" ry="11" style="stroke:#A80036;stroke-width:1.0;"/><path d="M2856.0156,39.4688 Q2856.1719,39.25 2856.3594,39.1406 Q2856.5469,39.0313 2856.7656,39.0313 Q2857.1406,39.0313 2857.375,39.2891 Q2857.6094,39.5469 2857.6094,40.1563 L2857.6094,41.6094 Q2857.6094,42.2188 2857.375,42.4844 Q2857.1406,42.75 2856.7656,42.75 Q2856.4219,42.75 2856.2188,42.5469 Q2856.0156,42.3594 2855.9063,41.8438 Q2855.8594,41.4844 2855.6719,41.2969 Q2855.3438,40.9219 2854.7344,40.7031 Q2854.125,40.4844 2853.5,40.4844 Q2852.7344,40.4844 2852.1016,40.8125 Q2851.4688,41.1406 2850.9766,41.8906 Q2850.4844,42.6406 2850.4844,43.6719 L2850.4844,44.7656 Q2850.4844,46 2851.375,46.8203 Q2852.2656,47.6406 2853.8594,47.6406 Q2854.7969,47.6406 2855.4531,47.3906 Q2855.8438,47.2344 2856.2656,46.7969 Q2856.5313,46.5313 2856.6797,46.4531 Q2856.8281,46.375 2857.0313,46.375 Q2857.3594,46.375 2857.6172,46.6328 Q2857.875,46.8906 2857.875,47.2344 Q2857.875,47.5781 2857.5313,47.9844 Q2857.0313,48.5625 2856.2344,48.8906 Q2855.1563,49.3438 2853.8594,49.3438 Q2852.3438,49.3438 2851.1406,48.7188 Q2850.1563,48.2188 2849.4688,47.1484 Q2848.7813,46.0781 2848.7813,44.7969 L2848.7813,43.6406 Q2848.7813,42.3125 2849.3984,41.1641 Q2850.0156,40.0156 2851.1094,39.3984 Q2852.2031,38.7813 2853.4375,38.7813 Q2854.1719,38.7813 2854.8203,38.9453 Q2855.4688,39.1094 2856.0156,39.4688 Z " fill="#000000"/><text fill="#000000" font-family="sans-serif" font-size="12" font-style="italic" lengthAdjust="spacing" textLength="42" x="2913.75" y="40.957">«static»</text><text fill="#000000" font-family="sans-serif" font-size="12" lengthAdjust="spacing" textLength="122" x="2873.75" y="56.0508">BaseTypesDispatcher</text><line style="stroke:#A80036;stroke-width:1.5;" x1="2800" x2="3037" y1="63.6875" y2="63.6875"/><line style="stroke:#A80036;stroke-width:1.5;" x1="2800" x2="3037" y1="71.6875" y2="71.6875"/><ellipse cx="2810" cy="82.6875" fill="#84BE84" rx="3" ry="3" style="stroke:#038048;stroke-width:1.0;"/><text fill="#000000" font-family="sans-serif" font-size="11" lengthAdjust="spacing" text-decoration="underline" textLength="213" x="2819" y="87.1064">Dispatch(dto:CommandDTO) : CommandDTO</text><!--MD5=[2e5eef0b4d63f4248e617bf3425bfdf1]
class ObjectWrapper--><rect codeLine="92" fill="#FEFECE" filter="url(#f116ihmo3om2wo)" height="61.8359" id="ObjectWrapper" style="stroke:#A80036;stroke-width:1.5;" width="177" x="2313" y="195"/><ellipse cx="2356.35" cy="211" fill="#ADD1B2" rx="11" ry="11" style="stroke:#A80036;stroke-width:1.0;"/><path d="M2359.1156,206.875 Q2359.2719,206.6563 2359.4594,206.5469 Q2359.6469,206.4375 2359.8656,206.4375 Q2360.2406,206.4375 2360.475,206.6953 Q2360.7094,206.9531 2360.7094,207.5625 L2360.7094,209.0156 Q2360.7094,209.625 2360.475,209.8906 Q2360.2406,210.1563 2359.8656,210.1563 Q2359.5219,210.1563 2359.3188,209.9531 Q2359.1156,209.7656 2359.0063,209.25 Q2358.9594,208.8906 2358.7719,208.7031 Q2358.4438,208.3281 2357.8344,208.1094 Q2357.225,207.8906 2356.6,207.8906 Q2355.8344,207.8906 2355.2016,208.2188 Q2354.5688,208.5469 2354.0766,209.2969 Q2353.5844,210.0469 2353.5844,211.0781 L2353.5844,212.1719 Q2353.5844,213.4063 2354.475,214.2266 Q2355.3656,215.0469 2356.9594,215.0469 Q2357.8969,215.0469 2358.5531,214.7969 Q2358.9438,214.6406 2359.3656,214.2031 Q2359.6313,213.9375 2359.7797,213.8594 Q2359.9281,213.7813 2360.1313,213.7813 Q2360.4594,213.7813 2360.7172,214.0391 Q2360.975,214.2969 2360.975,214.6406 Q2360.975,214.9844 2360.6313,215.3906 Q2360.1313,215.9688 2359.3344,216.2969 Q2358.2563,216.75 2356.9594,216.75 Q2355.4438,216.75 2354.2406,216.125 Q2353.2563,215.625 2352.5688,214.5547 Q2351.8813,213.4844 2351.8813,212.2031 L2351.8813,211.0469 Q2351.8813,209.7188 2352.4984,208.5703 Q2353.1156,207.4219 2354.2094,206.8047 Q2355.3031,206.1875 2356.5375,206.1875 Q2357.2719,206.1875 2357.9203,206.3516 Q2358.5688,206.5156 2359.1156,206.875 Z " fill="#000000"/><text fill="#000000" font-family="sans-serif" font-size="12" lengthAdjust="spacing" textLength="82" x="2376.65" y="215.9102">ObjectWrapper</text><line style="stroke:#A80036;stroke-width:1.5;" x1="2314" x2="2489" y1="227" y2="227"/><line style="stroke:#A80036;stroke-width:1.5;" x1="2314" x2="2489" y1="235" y2="235"/><ellipse cx="2324" cy="246" fill="#84BE84" rx="3" ry="3" style="stroke:#038048;stroke-width:1.0;"/><text fill="#000000" font-family="sans-serif" font-size="11" lengthAdjust="spacing" textLength="151" x="2333" y="250.4189">ObjectWrapper(dto:ObjectDTO)</text><!--MD5=[2f720059ec7752b7edd24ab483589f66]
class SampleCommandWrapper--><rect codeLine="105" fill="#FEFECE" filter="url(#f116ihmo3om2wo)" height="111.5313" id="SampleCommandWrapper" style="stroke:#A80036;stroke-width:1.5;" width="363" x="689" y="170"/><ellipse cx="791.75" cy="190.0938" fill="#ADD1B2" rx="11" ry="11" style="stroke:#A80036;stroke-width:1.0;"/><path d="M794.5156,185.9688 Q794.6719,185.75 794.8594,185.6406 Q795.0469,185.5313 795.2656,185.5313 Q795.6406,185.5313 795.875,185.7891 Q796.1094,186.0469 796.1094,186.6563 L796.1094,188.1094 Q796.1094,188.7188 795.875,188.9844 Q795.6406,189.25 795.2656,189.25 Q794.9219,189.25 794.7188,189.0469 Q794.5156,188.8594 794.4063,188.3438 Q794.3594,187.9844 794.1719,187.7969 Q793.8438,187.4219 793.2344,187.2031 Q792.625,186.9844 792,186.9844 Q791.2344,186.9844 790.6016,187.3125 Q789.9688,187.6406 789.4766,188.3906 Q788.9844,189.1406 788.9844,190.1719 L788.9844,191.2656 Q788.9844,192.5 789.875,193.3203 Q790.7656,194.1406 792.3594,194.1406 Q793.2969,194.1406 793.9531,193.8906 Q794.3438,193.7344 794.7656,193.2969 Q795.0313,193.0313 795.1797,192.9531 Q795.3281,192.875 795.5313,192.875 Q795.8594,192.875 796.1172,193.1328 Q796.375,193.3906 796.375,193.7344 Q796.375,194.0781 796.0313,194.4844 Q795.5313,195.0625 794.7344,195.3906 Q793.6563,195.8438 792.3594,195.8438 Q790.8438,195.8438 789.6406,195.2188 Q788.6563,194.7188 787.9688,193.6484 Q787.2813,192.5781 787.2813,191.2969 L787.2813,190.1406 Q787.2813,188.8125 787.8984,187.6641 Q788.5156,186.5156 789.6094,185.8984 Q790.7031,185.2813 791.9375,185.2813 Q792.6719,185.2813 793.3203,185.4453 Q793.9688,185.6094 794.5156,185.9688 Z " fill="#000000"/><text fill="#000000" font-family="sans-serif" font-size="12" font-style="italic" lengthAdjust="spacing" textLength="48" x="862.75" y="187.457">«partial»</text><text fill="#000000" font-family="sans-serif" font-size="12" lengthAdjust="spacing" textLength="149" x="812.25" y="202.5508">SampleCommandWrapper</text><line style="stroke:#A80036;stroke-width:1.5;" x1="690" x2="1051" y1="210.1875" y2="210.1875"/><line style="stroke:#A80036;stroke-width:1.5;" x1="690" x2="1051" y1="218.1875" y2="218.1875"/><ellipse cx="700" cy="229.1875" fill="#84BE84" rx="3" ry="3" style="stroke:#038048;stroke-width:1.0;"/><text fill="#000000" font-family="sans-serif" font-size="11" lengthAdjust="spacing" textLength="218" x="709" y="233.6064">SampleCommandWrapper(dto:CommandDTO)</text><ellipse cx="700" cy="243.0234" fill="#84BE84" rx="3" ry="3" style="stroke:#038048;stroke-width:1.0;"/><text fill="#000000" font-family="sans-serif" font-size="11" lengthAdjust="spacing" text-decoration="underline" textLength="161" x="709" y="247.4424">IsForMe(dto:CommandDTO) : bool</text><ellipse cx="700" cy="256.8594" fill="#84BE84" rx="3" ry="3" style="stroke:#038048;stroke-width:1.0;"/><text fill="#000000" font-family="sans-serif" font-size="11" lengthAdjust="spacing" text-decoration="underline" textLength="257" x="709" y="261.2783">ExecuteCommand(dto:CommandDTO) : CommandDTO</text><ellipse cx="700" cy="270.6953" fill="#84BE84" rx="3" ry="3" style="stroke:#038048;stroke-width:1.0;"/><text fill="#000000" font-family="sans-serif" font-size="11" lengthAdjust="spacing" textLength="337" x="709" y="275.1143">«partial» SampleCommand(firstOne:String, secondOne:Boolean) : void</text><!--MD5=[ba03fc88c0e35b013a46564b4a2ab72f]
class CommandTypesDispatcher--><rect codeLine="111" fill="#FEFECE" filter="url(#f116ihmo3om2wo)" height="70.0234" id="CommandTypesDispatcher" style="stroke:#A80036;stroke-width:1.5;" width="239" x="2525" y="191"/><ellipse cx="2564.75" cy="211.0938" fill="#ADD1B2" rx="11" ry="11" style="stroke:#A80036;stroke-width:1.0;"/><path d="M2567.5156,206.9688 Q2567.6719,206.75 2567.8594,206.6406 Q2568.0469,206.5313 2568.2656,206.5313 Q2568.6406,206.5313 2568.875,206.7891 Q2569.1094,207.0469 2569.1094,207.6563 L2569.1094,209.1094 Q2569.1094,209.7188 2568.875,209.9844 Q2568.6406,210.25 2568.2656,210.25 Q2567.9219,210.25 2567.7188,210.0469 Q2567.5156,209.8594 2567.4063,209.3438 Q2567.3594,208.9844 2567.1719,208.7969 Q2566.8438,208.4219 2566.2344,208.2031 Q2565.625,207.9844 2565,207.9844 Q2564.2344,207.9844 2563.6016,208.3125 Q2562.9688,208.6406 2562.4766,209.3906 Q2561.9844,210.1406 2561.9844,211.1719 L2561.9844,212.2656 Q2561.9844,213.5 2562.875,214.3203 Q2563.7656,215.1406 2565.3594,215.1406 Q2566.2969,215.1406 2566.9531,214.8906 Q2567.3438,214.7344 2567.7656,214.2969 Q2568.0313,214.0313 2568.1797,213.9531 Q2568.3281,213.875 2568.5313,213.875 Q2568.8594,213.875 2569.1172,214.1328 Q2569.375,214.3906 2569.375,214.7344 Q2569.375,215.0781 2569.0313,215.4844 Q2568.5313,216.0625 2567.7344,216.3906 Q2566.6563,216.8438 2565.3594,216.8438 Q2563.8438,216.8438 2562.6406,216.2188 Q2561.6563,215.7188 2560.9688,214.6484 Q2560.2813,213.5781 2560.2813,212.2969 L2560.2813,211.1406 Q2560.2813,209.8125 2560.8984,208.6641 Q2561.5156,207.5156 2562.6094,206.8984 Q2563.7031,206.2813 2564.9375,206.2813 Q2565.6719,206.2813 2566.3203,206.4453 Q2566.9688,206.6094 2567.5156,206.9688 Z " fill="#000000"/><text fill="#000000" font-family="sans-serif" font-size="12" font-style="italic" lengthAdjust="spacing" textLength="42" x="2639.25" y="208.457">«static»</text><text fill="#000000" font-family="sans-serif" font-size="12" lengthAdjust="spacing" textLength="152" x="2584.25" y="223.5508">CommandTypesDispatcher</text><line style="stroke:#A80036;stroke-width:1.5;" x1="2526" x2="2763" y1="231.1875" y2="231.1875"/><line style="stroke:#A80036;stroke-width:1.5;" x1="2526" x2="2763" y1="239.1875" y2="239.1875"/><ellipse cx="2536" cy="250.1875" fill="#84BE84" rx="3" ry="3" style="stroke:#038048;stroke-width:1.0;"/><text fill="#000000" font-family="sans-serif" font-size="11" lengthAdjust="spacing" text-decoration="underline" textLength="213" x="2545" y="254.6064">Dispatch(dto:CommandDTO) : CommandDTO</text><!--MD5=[31d9d567a1d652152733c83e75189006]
class Boolean--><rect fill="#FEFECE" filter="url(#f116ihmo3om2wo)" height="48" id="Boolean" style="stroke:#A80036;stroke-width:1.5;" width="78" x="1216.5" y="342"/><ellipse cx="1231.5" cy="358" fill="#ADD1B2" rx="11" ry="11" style="stroke:#A80036;stroke-width:1.0;"/><path d="M1234.2656,353.875 Q1234.4219,353.6563 1234.6094,353.5469 Q1234.7969,353.4375 1235.0156,353.4375 Q1235.3906,353.4375 1235.625,353.6953 Q1235.8594,353.9531 1235.8594,354.5625 L1235.8594,356.0156 Q1235.8594,356.625 1235.625,356.8906 Q1235.3906,357.1563 1235.0156,357.1563 Q1234.6719,357.1563 1234.4688,356.9531 Q1234.2656,356.7656 1234.1563,356.25 Q1234.1094,355.8906 1233.9219,355.7031 Q1233.5938,355.3281 1232.9844,355.1094 Q1232.375,354.8906 1231.75,354.8906 Q1230.9844,354.8906 1230.3516,355.2188 Q1229.7188,355.5469 1229.2266,356.2969 Q1228.7344,357.0469 1228.7344,358.0781 L1228.7344,359.1719 Q1228.7344,360.4063 1229.625,361.2266 Q1230.5156,362.0469 1232.1094,362.0469 Q1233.0469,362.0469 1233.7031,361.7969 Q1234.0938,361.6406 1234.5156,361.2031 Q1234.7813,360.9375 1234.9297,360.8594 Q1235.0781,360.7813 1235.2813,360.7813 Q1235.6094,360.7813 1235.8672,361.0391 Q1236.125,361.2969 1236.125,361.6406 Q1236.125,361.9844 1235.7813,362.3906 Q1235.2813,362.9688 1234.4844,363.2969 Q1233.4063,363.75 1232.1094,363.75 Q1230.5938,363.75 1229.3906,363.125 Q1228.4063,362.625 1227.7188,361.5547 Q1227.0313,360.4844 1227.0313,359.2031 L1227.0313,358.0469 Q1227.0313,356.7188 1227.6484,355.5703 Q1228.2656,354.4219 1229.3594,353.8047 Q1230.4531,353.1875 1231.6875,353.1875 Q1232.4219,353.1875 1233.0703,353.3516 Q1233.7188,353.5156 1234.2656,353.875 Z " fill="#000000"/><text fill="#000000" font-family="sans-serif" font-size="12" lengthAdjust="spacing" textLength="46" x="1245.5" y="362.9102">Boolean</text><line style="stroke:#A80036;stroke-width:1.5;" x1="1217.5" x2="1293.5" y1="374" y2="374"/><line style="stroke:#A80036;stroke-width:1.5;" x1="1217.5" x2="1293.5" y1="382" y2="382"/><!--MD5=[ac77ca89eaf889a9982f78fc59015e29]
class WeatherForecast--><rect codeLine="125" fill="#FEFECE" filter="url(#f116ihmo3om2wo)" height="89.5078" id="WeatherForecast" style="stroke:#A80036;stroke-width:1.5;" width="174" x="3073.5" y="13.5"/><ellipse cx="3110.1" cy="29.5" fill="#ADD1B2" rx="11" ry="11" style="stroke:#A80036;stroke-width:1.0;"/><path d="M3112.8656,25.375 Q3113.0219,25.1563 3113.2094,25.0469 Q3113.3969,24.9375 3113.6156,24.9375 Q3113.9906,24.9375 3114.225,25.1953 Q3114.4594,25.4531 3114.4594,26.0625 L3114.4594,27.5156 Q3114.4594,28.125 3114.225,28.3906 Q3113.9906,28.6563 3113.6156,28.6563 Q3113.2719,28.6563 3113.0688,28.4531 Q3112.8656,28.2656 3112.7563,27.75 Q3112.7094,27.3906 3112.5219,27.2031 Q3112.1938,26.8281 3111.5844,26.6094 Q3110.975,26.3906 3110.35,26.3906 Q3109.5844,26.3906 3108.9516,26.7188 Q3108.3188,27.0469 3107.8266,27.7969 Q3107.3344,28.5469 3107.3344,29.5781 L3107.3344,30.6719 Q3107.3344,31.9063 3108.225,32.7266 Q3109.1156,33.5469 3110.7094,33.5469 Q3111.6469,33.5469 3112.3031,33.2969 Q3112.6938,33.1406 3113.1156,32.7031 Q3113.3813,32.4375 3113.5297,32.3594 Q3113.6781,32.2813 3113.8813,32.2813 Q3114.2094,32.2813 3114.4672,32.5391 Q3114.725,32.7969 3114.725,33.1406 Q3114.725,33.4844 3114.3813,33.8906 Q3113.8813,34.4688 3113.0844,34.7969 Q3112.0063,35.25 3110.7094,35.25 Q3109.1938,35.25 3107.9906,34.625 Q3107.0063,34.125 3106.3188,33.0547 Q3105.6313,31.9844 3105.6313,30.7031 L3105.6313,29.5469 Q3105.6313,28.2188 3106.2484,27.0703 Q3106.8656,25.9219 3107.9594,25.3047 Q3109.0531,24.6875 3110.2875,24.6875 Q3111.0219,24.6875 3111.6703,24.8516 Q3112.3188,25.0156 3112.8656,25.375 Z " fill="#000000"/><text fill="#000000" font-family="sans-serif" font-size="12" lengthAdjust="spacing" textLength="94" x="3128.9" y="34.4102">WeatherForecast</text><line style="stroke:#A80036;stroke-width:1.5;" x1="3074.5" x2="3246.5" y1="45.5" y2="45.5"/><ellipse cx="3084.5" cy="56.5" rx="3" ry="3" style="stroke:#038048;stroke-width:1.0;fill:none;"/><text fill="#000000" font-family="sans-serif" font-size="11" lengthAdjust="spacing" textLength="148" x="3093.5" y="60.9189">TemperatureC : int «get» «set»</text><ellipse cx="3084.5" cy="70.3359" rx="3" ry="3" style="stroke:#038048;stroke-width:1.0;fill:none;"/><text fill="#000000" font-family="sans-serif" font-size="11" lengthAdjust="spacing" textLength="117" x="3093.5" y="74.7549">TemperatureF : int «get»</text><ellipse cx="3084.5" cy="84.1719" rx="3" ry="3" style="stroke:#038048;stroke-width:1.0;fill:none;"/><text fill="#000000" font-family="sans-serif" font-size="11" lengthAdjust="spacing" textLength="141" x="3093.5" y="88.5908">Summary : string «get» «set»</text><line style="stroke:#A80036;stroke-width:1.5;" x1="3074.5" x2="3246.5" y1="95.0078" y2="95.0078"/><!--MD5=[20ddef7090025b04fb973268620c0974]
class DateTime--><rect fill="#FEFECE" filter="url(#f116ihmo3om2wo)" height="48" id="DateTime" style="stroke:#A80036;stroke-width:1.5;" width="86" x="3117.5" y="202"/><ellipse cx="3132.5" cy="218" fill="#ADD1B2" rx="11" ry="11" style="stroke:#A80036;stroke-width:1.0;"/><path d="M3135.2656,213.875 Q3135.4219,213.6563 3135.6094,213.5469 Q3135.7969,213.4375 3136.0156,213.4375 Q3136.3906,213.4375 3136.625,213.6953 Q3136.8594,213.9531 3136.8594,214.5625 L3136.8594,216.0156 Q3136.8594,216.625 3136.625,216.8906 Q3136.3906,217.1563 3136.0156,217.1563 Q3135.6719,217.1563 3135.4688,216.9531 Q3135.2656,216.7656 3135.1563,216.25 Q3135.1094,215.8906 3134.9219,215.7031 Q3134.5938,215.3281 3133.9844,215.1094 Q3133.375,214.8906 3132.75,214.8906 Q3131.9844,214.8906 3131.3516,215.2188 Q3130.7188,215.5469 3130.2266,216.2969 Q3129.7344,217.0469 3129.7344,218.0781 L3129.7344,219.1719 Q3129.7344,220.4063 3130.625,221.2266 Q3131.5156,222.0469 3133.1094,222.0469 Q3134.0469,222.0469 3134.7031,221.7969 Q3135.0938,221.6406 3135.5156,221.2031 Q3135.7813,220.9375 3135.9297,220.8594 Q3136.0781,220.7813 3136.2813,220.7813 Q3136.6094,220.7813 3136.8672,221.0391 Q3137.125,221.2969 3137.125,221.6406 Q3137.125,221.9844 3136.7813,222.3906 Q3136.2813,222.9688 3135.4844,223.2969 Q3134.4063,223.75 3133.1094,223.75 Q3131.5938,223.75 3130.3906,223.125 Q3129.4063,222.625 3128.7188,221.5547 Q3128.0313,220.4844 3128.0313,219.2031 L3128.0313,218.0469 Q3128.0313,216.7188 3128.6484,215.5703 Q3129.2656,214.4219 3130.3594,213.8047 Q3131.4531,213.1875 3132.6875,213.1875 Q3133.4219,213.1875 3134.0703,213.3516 Q3134.7188,213.5156 3135.2656,213.875 Z " fill="#000000"/><text fill="#000000" font-family="sans-serif" font-size="12" lengthAdjust="spacing" textLength="54" x="3146.5" y="222.9102">DateTime</text><line style="stroke:#A80036;stroke-width:1.5;" x1="3118.5" x2="3202.5" y1="234" y2="234"/><line style="stroke:#A80036;stroke-width:1.5;" x1="3118.5" x2="3202.5" y1="242" y2="242"/><!--MD5=[78563b2dced031dcc99154e54e28d438]
reverse link BaseDTO to AdressDTO--><path codeLine="32" d="M1456.96,282.18 C1090.31,335.94 990.24,298.56 629.5,342 C600.26,345.52 567.72,350.97 541.8,355.68 " fill="none" id="BaseDTO-backto-AdressDTO" style="stroke:#A80036;stroke-width:1.0;"/><polygon fill="none" points="1456.09,275.24,1476.9,279.21,1458.16,289.08,1456.09,275.24" style="stroke:#A80036;stroke-width:1.0;"/><!--MD5=[fbaf78f1916dfdbf30330f0660ca3284]
link AdressDTO to Guid--><path codeLine="33" d="M541.59,375.53 C567.58,380.04 600.26,385.55 629.5,390 C849.98,423.54 1116.06,457.19 1209.27,468.78 " fill="none" id="AdressDTO-to-Guid" style="stroke:#A80036;stroke-width:1.0;"/><polygon fill="#A80036" points="1214.37,469.41,1205.9302,464.3336,1209.408,468.7951,1204.9464,472.2728,1214.37,469.41" style="stroke:#A80036;stroke-width:1.0;"/><text fill="#000000" font-family="sans-serif" font-size="13" lengthAdjust="spacing" textLength="38" x="1168.3985" y="464.849">TypeId</text><!--MD5=[b2555b513fccde1a3f7f8fb3f3fcdb23]
link AdressDTO to String--><path codeLine="34" d="M445.13,376.97 C401.13,398.93 404.92,450.86 456.5,467.66 " fill="none" id="AdressDTO-to-String" style="stroke:#A80036;stroke-width:1.0;"/><polygon fill="#A80036" points="461.3,469.08,453.8149,462.6789,456.5077,467.6537,451.5329,470.3465,461.3,469.08" style="stroke:#A80036;stroke-width:1.0;"/><text fill="#000000" font-family="sans-serif" font-size="13" lengthAdjust="spacing" textLength="41" x="412.5597" y="464.7033">Name1</text><!--MD5=[b2555b513fccde1a3f7f8fb3f3fcdb23]
link AdressDTO to String--><path codeLine="35" d="M449.33,390 C435.98,411.35 438.67,442.38 457.42,459.82 " fill="none" id="AdressDTO-to-String-1" style="stroke:#A80036;stroke-width:1.0;"/><polygon fill="#A80036" points="461.38,463.12,457.0235,454.287,457.5377,459.9205,451.9043,460.4347,461.38,463.12" style="stroke:#A80036;stroke-width:1.0;"/><text fill="#000000" font-family="sans-serif" font-size="13" lengthAdjust="spacing" textLength="41" x="412.6514" y="476.2179">Name2</text><!--MD5=[b2555b513fccde1a3f7f8fb3f3fcdb23]
link AdressDTO to String--><path codeLine="36" d="M471.42,390 C466.41,406 465.92,427.45 469.93,444.53 " fill="none" id="AdressDTO-to-String-2" style="stroke:#A80036;stroke-width:1.0;"/><polygon fill="#A80036" points="471.32,449.68,472.8355,439.9484,470.0165,444.8529,465.1121,442.034,471.32,449.68" style="stroke:#A80036;stroke-width:1.0;"/><text fill="#000000" font-family="sans-serif" font-size="13" lengthAdjust="spacing" textLength="48" x="412.0636" y="439.34">Adress1</text><!--MD5=[b2555b513fccde1a3f7f8fb3f3fcdb23]
link AdressDTO to String--><path codeLine="37" d="M493.5,390 C493.5,406 493.5,427.45 493.5,444.53 " fill="none" id="AdressDTO-to-String-3" style="stroke:#A80036;stroke-width:1.0;"/><polygon fill="#A80036" points="493.5,449.68,497.5,440.68,493.5,444.68,489.5,440.68,493.5,449.68" style="stroke:#A80036;stroke-width:1.0;"/><text fill="#000000" font-family="sans-serif" font-size="13" lengthAdjust="spacing" textLength="48" x="499.35" y="439.34">Adress2</text><!--MD5=[b2555b513fccde1a3f7f8fb3f3fcdb23]
link AdressDTO to String--><path codeLine="38" d="M515.58,390 C520.59,406 521.08,427.45 517.07,444.53 " fill="none" id="AdressDTO-to-String-4" style="stroke:#A80036;stroke-width:1.0;"/><polygon fill="#A80036" points="515.68,449.68,521.8879,442.034,516.9835,444.8529,514.1645,439.9484,515.68,449.68" style="stroke:#A80036;stroke-width:1.0;"/><text fill="#000000" font-family="sans-serif" font-size="13" lengthAdjust="spacing" textLength="80" x="533.1681" y="458.6346">Housenumber</text><!--MD5=[b2555b513fccde1a3f7f8fb3f3fcdb23]
link AdressDTO to String--><path codeLine="39" d="M537.67,390 C551.02,411.35 548.33,442.38 529.58,459.82 " fill="none" id="AdressDTO-to-String-5" style="stroke:#A80036;stroke-width:1.0;"/><polygon fill="#A80036" points="525.62,463.12,535.0957,460.4347,529.4623,459.9205,529.9765,454.287,525.62,463.12" style="stroke:#A80036;stroke-width:1.0;"/><text fill="#000000" font-family="sans-serif" font-size="13" lengthAdjust="spacing" textLength="23" x="533.3898" y="476.1334">City</text><!--MD5=[b2555b513fccde1a3f7f8fb3f3fcdb23]
link AdressDTO to String--><path codeLine="40" d="M541.87,376.97 C585.87,398.93 582.08,450.86 530.5,467.66 " fill="none" id="AdressDTO-to-String-6" style="stroke:#A80036;stroke-width:1.0;"/><polygon fill="#A80036" points="525.7,469.08,535.4671,470.3465,530.4923,467.6537,533.1851,462.6789,525.7,469.08" style="stroke:#A80036;stroke-width:1.0;"/><text fill="#000000" font-family="sans-serif" font-size="13" lengthAdjust="spacing" textLength="55" x="533.3491" y="482.9923">Postcode</text><!--MD5=[bc3fa4595b76ff57a3597bc204395357]
reverse link CommandWrapper to FindAdressesWrapper--><path codeLine="41" d="M1230.43,75.82 C1422.5,91.65 1697.1,120.67 1933.5,170 C1939.13,171.17 1944.83,172.44 1950.57,173.79 " fill="none" id="CommandWrapper-backto-FindAdressesWrapper" style="stroke:#A80036;stroke-width:1.0;"/><polygon fill="none" points="1229.73,82.79,1210.36,74.19,1230.86,68.83,1229.73,82.79" style="stroke:#A80036;stroke-width:1.0;"/><!--MD5=[606431aec55ec72d298e7cd6b8ef7e35]
link FindAdressesWrapper to Guid--><path codeLine="42" d="M1956.9,282.02 C1910.93,299.61 1861.1,320.22 1816.5,342 C1779.24,360.2 1775.4,375.64 1736.5,390 C1571.77,450.8 1359.51,467.34 1277.72,471.6 " fill="none" id="FindAdressesWrapper-to-Guid" style="stroke:#A80036;stroke-width:1.0;"/><polygon fill="#A80036" points="1272.53,471.87,1281.7236,475.4025,1277.5234,471.6132,1281.3127,467.413,1272.53,471.87" style="stroke:#A80036;stroke-width:1.0;"/><text fill="#000000" font-family="sans-serif" font-size="13" lengthAdjust="spacing" textLength="38" x="1280.485" y="486.3664">TypeId</text><!--MD5=[cce213057d432eb82882cbbb94d45eda]
link FindAdressesWrapper to CommandDTO--><path codeLine="43" d="M1950.62,278.46 C1944.87,279.74 1939.15,280.92 1933.5,282 C1611.54,343.33 1520.39,280.26 1198.5,342 C1194.64,342.74 1190.71,343.6 1186.75,344.56 " fill="none" id="FindAdressesWrapper-to-CommandDTO" style="stroke:#A80036;stroke-width:1.0;"/><polygon fill="#A80036" points="1181.74,345.81,1191.4426,347.501,1186.5899,344.594,1189.4969,339.7412,1181.74,345.81" style="stroke:#A80036;stroke-width:1.0;"/><text fill="#000000" font-family="sans-serif" font-size="13" lengthAdjust="spacing" textLength="27" x="1181.5608" y="335.4822">Cmd</text><!--MD5=[27cf3143032e106437423afc79db652f]
link FindAdressesWrapper to String--><path codeLine="44" d="M1950.79,276.99 C1944.96,278.69 1939.18,280.37 1933.5,282 C1845.43,307.33 1625.79,374.29 1535.5,390 C1146.71,457.63 666.59,470.25 530.81,472.52 " fill="none" id="FindAdressesWrapper-to-String" style="stroke:#A80036;stroke-width:1.0;"/><polygon fill="#A80036" points="525.75,472.6,534.8172,476.4451,530.7493,472.5143,534.6801,468.4463,525.75,472.6" style="stroke:#A80036;stroke-width:1.0;"/><text fill="#000000" font-family="sans-serif" font-size="13" lengthAdjust="spacing" textLength="66" x="533.7023" y="468.9709">SearchText</text><!--MD5=[5a6bab8df4ee897455db558573a747c0]
link FindAdressesWrapper to List`1--><path codeLine="45" d="M2061.99,282.21 C2013.43,333.26 1943.31,406.97 1906.05,446.14 " fill="none" id="FindAdressesWrapper-to-List`1" style="stroke:#A80036;stroke-width:1.0;"/><polygon fill="#A80036" points="1902.54,449.83,1911.6364,446.0544,1905.9815,446.2029,1905.833,440.548,1902.54,449.83" style="stroke:#A80036;stroke-width:1.0;"/><text fill="#000000" font-family="sans-serif" font-size="13" lengthAdjust="spacing" textLength="120" x="1923.5628" y="439.1266">Result&lt;AdressDTO&gt;</text><!--MD5=[abc28d54e4e35ca537f3987bc7e15e70]
reverse link CommandWrapper to GetAdressWrapper--><path codeLine="46" d="M1101.72,119.56 C1132.7,135.99 1166.12,153.72 1196.55,169.86 " fill="none" id="CommandWrapper-backto-GetAdressWrapper" style="stroke:#A80036;stroke-width:1.0;"/><polygon fill="none" points="1098.19,125.61,1083.81,110.05,1104.75,113.24,1098.19,125.61" style="stroke:#A80036;stroke-width:1.0;"/><!--MD5=[4fecfaffadcdb8f999294a6fae315043]
link GetAdressWrapper to Guid--><path codeLine="47" d="M1300.2,282.11 C1303.92,314.43 1306.81,355.55 1294.5,390 C1286.94,411.17 1271.4,430.82 1258.86,445.68 " fill="none" id="GetAdressWrapper-to-Guid" style="stroke:#A80036;stroke-width:1.0;"/><polygon fill="#A80036" points="1255.41,449.74,1264.2777,445.4548,1258.6404,445.9236,1258.1715,440.2862,1255.41,449.74" style="stroke:#A80036;stroke-width:1.0;"/><text fill="#000000" font-family="sans-serif" font-size="13" lengthAdjust="spacing" textLength="38" x="1215.5932" y="439.0135">TypeId</text><!--MD5=[4fecfaffadcdb8f999294a6fae315043]
link GetAdressWrapper to Guid--><path codeLine="49" d="M1330.72,282.11 C1338.92,314.43 1341.81,355.55 1329.5,390 C1319.9,416.86 1297.46,441.28 1277.12,456.57 " fill="none" id="GetAdressWrapper-to-Guid-1" style="stroke:#A80036;stroke-width:1.0;"/><polygon fill="#A80036" points="1272.82,459.69,1282.4552,457.6496,1276.8692,456.7568,1277.7621,451.1709,1272.82,459.69" style="stroke:#A80036;stroke-width:1.0;"/><text fill="#000000" font-family="sans-serif" font-size="13" lengthAdjust="spacing" textLength="10" x="1280.3275" y="452.3433">Id</text><!--MD5=[f7ec91347518850ce83f09c4f315327d]
link GetAdressWrapper to CommandDTO--><path codeLine="48" d="M1229.78,282.14 C1204.69,301.7 1177.6,322.82 1157.05,338.84 " fill="none" id="GetAdressWrapper-to-CommandDTO" style="stroke:#A80036;stroke-width:1.0;"/><polygon fill="#A80036" points="1153.03,341.97,1162.5881,339.5948,1156.9745,338.8973,1157.6719,333.2836,1153.03,341.97" style="stroke:#A80036;stroke-width:1.0;"/><text fill="#000000" font-family="sans-serif" font-size="13" lengthAdjust="spacing" textLength="27" x="1130.1377" y="331.3025">Cmd</text><!--MD5=[abb75d88c1b5c30140cab650c6b382a7]
link GetAdressWrapper to AdressDTO--><path codeLine="50" d="M1158.95,263.02 C1129.5,269.86 1098.58,276.57 1069.5,282 C875.49,318.23 824.6,312.21 629.5,342 C602.09,346.19 571.66,351.29 546.54,355.63 " fill="none" id="GetAdressWrapper-to-AdressDTO" style="stroke:#A80036;stroke-width:1.0;"/><polygon fill="#A80036" points="541.59,356.48,551.1355,358.9057,546.5185,355.6372,549.7869,351.0201,541.59,356.48" style="stroke:#A80036;stroke-width:1.0;"/><text fill="#000000" font-family="sans-serif" font-size="13" lengthAdjust="spacing" textLength="37" x="549.7057" y="351.8613">Result</text><!--MD5=[9cbca43eb24129da06ce5f221e81d34d]
reverse link CommandWrapper to SetAdressWrapper--><path codeLine="51" d="M746.74,94.51 C627.63,113.54 482.29,139.45 353.5,170 C347.88,171.33 342.18,172.74 336.43,174.21 " fill="none" id="CommandWrapper-backto-SetAdressWrapper" style="stroke:#A80036;stroke-width:1.0;"/><polygon fill="none" points="745.91,87.55,766.75,91.33,748.1,101.38,745.91,87.55" style="stroke:#A80036;stroke-width:1.0;"/><!--MD5=[ab67425edc20ab324a0e79a72355eade]
link SetAdressWrapper to Guid--><path codeLine="52" d="M336.02,281.89 C336.18,281.93 336.34,281.96 336.5,282 C517.56,322.27 573.01,284.96 749.5,342 C793.38,356.18 798.12,374.33 841.5,390 C972.13,437.18 1137.85,461.74 1209.22,469.88 " fill="none" id="SetAdressWrapper-to-Guid" style="stroke:#A80036;stroke-width:1.0;"/><polygon fill="#A80036" points="1214.2,470.44,1205.7015,465.4625,1209.2311,469.8831,1204.8105,473.4128,1214.2,470.44" style="stroke:#A80036;stroke-width:1.0;"/><text fill="#000000" font-family="sans-serif" font-size="13" lengthAdjust="spacing" textLength="38" x="1168.5022" y="484.6708">TypeId</text><!--MD5=[ab67425edc20ab324a0e79a72355eade]
link SetAdressWrapper to Guid--><path codeLine="54" d="M336.47,273.46 C348.3,276.56 360.06,279.46 371.5,282 C552.56,322.27 608.01,284.96 784.5,342 C828.38,356.18 833.12,374.33 876.5,390 C995.27,432.9 1143.05,457.1 1209.41,467.25 " fill="none" id="SetAdressWrapper-to-Guid-1" style="stroke:#A80036;stroke-width:1.0;"/><polygon fill="#A80036" points="1214.43,468.02,1206.1394,462.7034,1209.4876,467.2629,1204.9281,470.6112,1214.43,468.02" style="stroke:#A80036;stroke-width:1.0;"/><text fill="#000000" font-family="sans-serif" font-size="13" lengthAdjust="spacing" textLength="10" x="1196.5513" y="462.3229">Id</text><!--MD5=[64be510668cf52f4c15ed6243423dac0]
link SetAdressWrapper to CommandDTO--><path codeLine="53" d="M336.32,278.27 C342.1,279.6 347.84,280.85 353.5,282 C422.12,295.94 888.95,342.15 1060.46,358.89 " fill="none" id="SetAdressWrapper-to-CommandDTO" style="stroke:#A80036;stroke-width:1.0;"/><polygon fill="#A80036" points="1065.45,359.37,1056.8816,354.5138,1060.4737,358.8838,1056.1037,362.4759,1065.45,359.37" style="stroke:#A80036;stroke-width:1.0;"/><text fill="#000000" font-family="sans-serif" font-size="13" lengthAdjust="spacing" textLength="27" x="1030.6242" y="373.0342">Cmd</text><!--MD5=[94a885cca7ba0d929ad0698c9a0e22a6]
link SetAdressWrapper to AdressDTO--><path codeLine="55" d="M287.63,282.14 C340,304.91 399.18,329.78 440.73,346.27 " fill="none" id="SetAdressWrapper-to-AdressDTO" style="stroke:#A80036;stroke-width:1.0;"/><polygon fill="#A80036" points="445.46,348.14,438.5445,341.1274,440.8059,346.3126,435.6207,348.574,445.46,348.14" style="stroke:#A80036;stroke-width:1.0;"/><text fill="#000000" font-family="sans-serif" font-size="13" lengthAdjust="spacing" textLength="41" x="396.5351" y="342.6654">Adress</text><!--MD5=[94a885cca7ba0d929ad0698c9a0e22a6]
link SetAdressWrapper to AdressDTO--><path codeLine="56" d="M313.41,282.14 C360.73,302.11 410.26,323.7 445.49,339.83 " fill="none" id="SetAdressWrapper-to-AdressDTO-1" style="stroke:#A80036;stroke-width:1.0;"/><polygon fill="#A80036" points="450.14,341.97,443.6298,334.5796,445.596,339.8838,440.2919,341.85,450.14,341.97" style="stroke:#A80036;stroke-width:1.0;"/><text fill="#000000" font-family="sans-serif" font-size="13" lengthAdjust="spacing" textLength="37" x="443.7696" y="331.3025">Result</text><!--MD5=[9b08d2a45fc0a2255361495ba25c3e76]
reverse link CommandWrapper to DeleteAdressWrapper--><path codeLine="57" d="M824.18,116.63 C768.84,135.87 707.6,157.17 654.15,175.75 " fill="none" id="CommandWrapper-backto-DeleteAdressWrapper" style="stroke:#A80036;stroke-width:1.0;"/><polygon fill="none" points="821.91,110.01,843.1,110.05,826.51,123.23,821.91,110.01" style="stroke:#A80036;stroke-width:1.0;"/><!--MD5=[7ec9028265da5144379fbe690513b73e]
link DeleteAdressWrapper to Guid--><path codeLine="58" d="M654.08,281.86 C654.22,281.91 654.36,281.95 654.5,282 C739,309.88 761.96,311.37 845.5,342 C897.11,360.93 907.86,371.15 959.5,390 C1047.41,422.08 1154.33,452.91 1209.04,466.18 " fill="none" id="DeleteAdressWrapper-to-Guid" style="stroke:#A80036;stroke-width:1.0;"/><polygon fill="#A80036" points="1214.17,467.41,1206.342,461.4332,1209.3061,466.2513,1204.488,469.2154,1214.17,467.41" style="stroke:#A80036;stroke-width:1.0;"/><text fill="#000000" font-family="sans-serif" font-size="13" lengthAdjust="spacing" textLength="38" x="1196.0925" y="439.6802">TypeId</text><!--MD5=[7ec9028265da5144379fbe690513b73e]
link DeleteAdressWrapper to Guid--><path codeLine="60" d="M654.43,270.28 C666.32,274.29 678.13,278.25 689.5,282 C774,309.88 796.96,311.37 880.5,342 C932.11,360.93 942.86,371.15 994.5,390 C1070.55,417.76 1160.83,444.57 1209.54,459.9 " fill="none" id="DeleteAdressWrapper-to-Guid-1" style="stroke:#A80036;stroke-width:1.0;"/><polygon fill="#A80036" points="1214.41,461.43,1207.0239,454.915,1209.6401,459.9305,1204.6247,462.5468,1214.41,461.43" style="stroke:#A80036;stroke-width:1.0;"/><text fill="#000000" font-family="sans-serif" font-size="13" lengthAdjust="spacing" textLength="10" x="1196.5267" y="473.909">Id</text><!--MD5=[68babcd854570148b1daf17688fbb69c]
link DeleteAdressWrapper to CommandDTO--><path codeLine="59" d="M654.34,277.26 C660.11,278.92 665.85,280.51 671.5,282 C744.03,301.09 953.83,336.91 1060.15,354.59 " fill="none" id="DeleteAdressWrapper-to-CommandDTO" style="stroke:#A80036;stroke-width:1.0;"/><polygon fill="#A80036" points="1065.13,355.41,1056.9024,349.9964,1060.1969,354.595,1055.5983,357.8894,1065.13,355.41" style="stroke:#A80036;stroke-width:1.0;"/><text fill="#000000" font-family="sans-serif" font-size="13" lengthAdjust="spacing" textLength="27" x="1030.7184" y="351.0062">Cmd</text><!--MD5=[136bec06811b5527b422fe58fcd88141]
link DeleteAdressWrapper to AdressDTO--><path codeLine="61" d="M504.88,282.33 C502.32,300.93 499.57,320.9 497.42,336.56 " fill="none" id="DeleteAdressWrapper-to-AdressDTO" style="stroke:#A80036;stroke-width:1.0;"/><polygon fill="#A80036" points="496.71,341.69,501.9088,333.325,497.3971,336.7374,493.9847,332.2257,496.71,341.69" style="stroke:#A80036;stroke-width:1.0;"/><text fill="#000000" font-family="sans-serif" font-size="13" lengthAdjust="spacing" textLength="37" x="502.2732" y="330.9507">Result</text><!--MD5=[be3a97b884d7bb8890e18b1f911f5268]
link BaseDTO to Guid--><path codeLine="81" d="M1624.86,282.32 C1589.9,317.85 1547.23,362.35 1500.5,390 C1427.34,433.29 1330.45,454.98 1277.53,465.1 " fill="none" id="BaseDTO-to-Guid" style="stroke:#A80036;stroke-width:1.0;"/><polygon fill="#A80036" points="1272.55,466.04,1282.1362,468.2994,1277.4631,465.1117,1280.6508,460.4385,1272.55,466.04" style="stroke:#A80036;stroke-width:1.0;"/><text fill="#000000" font-family="sans-serif" font-size="13" lengthAdjust="spacing" textLength="38" x="1280.5083" y="460.9209">TypeId</text><!--MD5=[be3a97b884d7bb8890e18b1f911f5268]
link BaseDTO to Guid--><path codeLine="82" d="M1654.55,282.32 C1624.9,317.85 1582.23,362.35 1535.5,390 C1450.96,440.02 1334.75,461.2 1277.79,469.02 " fill="none" id="BaseDTO-to-Guid-1" style="stroke:#A80036;stroke-width:1.0;"/><polygon fill="#A80036" points="1272.8,469.69,1282.2476,472.4726,1277.7566,469.0329,1281.1963,464.542,1272.8,469.69" style="stroke:#A80036;stroke-width:1.0;"/><text fill="#000000" font-family="sans-serif" font-size="13" lengthAdjust="spacing" textLength="10" x="1280.3031" y="484.0308">Id</text><!--MD5=[be3a97b884d7bb8890e18b1f911f5268]
link BaseDTO to Guid--><path codeLine="83" d="M1684.25,282.32 C1659.9,317.85 1617.23,362.35 1570.5,390 C1476.56,445.58 1343.51,465.55 1277.58,471.16 " fill="none" id="BaseDTO-to-Guid-2" style="stroke:#A80036;stroke-width:1.0;"/><polygon fill="#A80036" points="1272.56,471.56,1281.8603,474.801,1277.5428,471.146,1281.1979,466.8285,1272.56,471.56" style="stroke:#A80036;stroke-width:1.0;"/><text fill="#000000" font-family="sans-serif" font-size="13" lengthAdjust="spacing" textLength="28" x="1279.951" y="498.5342">Type</text><!--MD5=[2cc8b6df816638932ff19f7ae8e08ba0]
link PropertyDTO to Guid--><path codeLine="84" d="M749.89,383.03 C758.72,385.53 767.84,387.96 776.5,390 C936.57,427.7 1131.1,457.09 1208.91,468.19 " fill="none" id="PropertyDTO-to-Guid" style="stroke:#A80036;stroke-width:1.0;"/><polygon fill="#A80036" points="1214.31,468.96,1205.9598,463.7375,1209.3594,468.2589,1204.838,471.6585,1214.31,468.96" style="stroke:#A80036;stroke-width:1.0;"/><text fill="#000000" font-family="sans-serif" font-size="13" lengthAdjust="spacing" textLength="38" x="1168.6297" y="482.9549">TypeId</text><!--MD5=[d5f4c30c7cb8eb2847647aca0481e46f]
link PropertyDTO to String--><path codeLine="85" d="M647.34,388.07 C610.93,405.39 563.21,429.97 530.42,448.23 " fill="none" id="PropertyDTO-to-String" style="stroke:#A80036;stroke-width:1.0;"/><polygon fill="#A80036" points="525.7,450.88,535.5065,449.9677,530.0613,448.4348,531.5942,442.9896,525.7,450.88" style="stroke:#A80036;stroke-width:1.0;"/><text fill="#000000" font-family="sans-serif" font-size="13" lengthAdjust="spacing" textLength="34" x="533.5413" y="443.4434">Name</text><!--MD5=[d5f4c30c7cb8eb2847647aca0481e46f]
link PropertyDTO to String--><path codeLine="86" d="M665.37,390 C628.13,411.01 568.76,441.39 530.14,458.97 " fill="none" id="PropertyDTO-to-String-1" style="stroke:#A80036;stroke-width:1.0;"/><polygon fill="#A80036" points="525.54,461.05,535.3887,460.9929,530.0972,458.9928,532.0972,453.7013,525.54,461.05" style="stroke:#A80036;stroke-width:1.0;"/><text fill="#000000" font-family="sans-serif" font-size="13" lengthAdjust="spacing" textLength="33" x="533.5794" y="455.1044">Value</text><!--MD5=[3920cdde0ef99465ed1599e18a1d09e5]
reverse link BaseDTO to ObjectDTO--><path codeLine="87" d="M1786.18,294.26 C1809.09,311.44 1832.19,328.77 1849.8,341.97 " fill="none" id="BaseDTO-backto-ObjectDTO" style="stroke:#A80036;stroke-width:1.0;"/><polygon fill="none" points="1781.81,299.74,1770.01,282.14,1790.21,288.54,1781.81,299.74" style="stroke:#A80036;stroke-width:1.0;"/><!--MD5=[ae4b2e8b4ef91d484150733ac744b15c]
link ObjectDTO to Guid--><path codeLine="88" d="M1834.46,382.72 C1825.59,385.41 1816.31,387.98 1807.5,390 C1609.36,435.49 1366.08,461.42 1277.66,469.89 " fill="none" id="ObjectDTO-to-Guid" style="stroke:#A80036;stroke-width:1.0;"/><polygon fill="#A80036" points="1272.56,470.37,1281.9063,473.4759,1277.5363,469.8838,1281.1284,465.5138,1272.56,470.37" style="stroke:#A80036;stroke-width:1.0;"/><text fill="#000000" font-family="sans-serif" font-size="13" lengthAdjust="spacing" textLength="38" x="1280.5199" y="484.618">TypeId</text><!--MD5=[044e50fa495cf138e42c0a7a2d101165]
link ObjectDTO to List`1--><path codeLine="89" d="M1880.5,390 C1880.5,406 1880.5,427.45 1880.5,444.53 " fill="none" id="ObjectDTO-to-List`1" style="stroke:#A80036;stroke-width:1.0;"/><polygon fill="#A80036" points="1880.5,449.68,1884.5,440.68,1880.5,444.68,1876.5,440.68,1880.5,449.68" style="stroke:#A80036;stroke-width:1.0;"/><text fill="#000000" font-family="sans-serif" font-size="13" lengthAdjust="spacing" textLength="150" x="1712.2188" y="439.34">Properties&lt;PropertyDTO&gt;</text><!--MD5=[d40922a5f4b5f53a84548686e17be8ce]
reverse link BaseDTO to TypeDTO--><path codeLine="90" d="M1591.66,292.76 C1563.49,310.43 1534.87,328.39 1513.21,341.97 " fill="none" id="BaseDTO-backto-TypeDTO" style="stroke:#A80036;stroke-width:1.0;"/><polygon fill="none" points="1587.94,286.83,1608.6,282.14,1595.38,298.69,1587.94,286.83" style="stroke:#A80036;stroke-width:1.0;"/><!--MD5=[5c447c056dfaa167e42a9155323e8f7a]
link TypeDTO to Guid--><path codeLine="91" d="M1434.84,385.95 C1389.85,406.42 1319.02,438.64 1277.33,457.61 " fill="none" id="TypeDTO-to-Guid" style="stroke:#A80036;stroke-width:1.0;"/><polygon fill="#A80036" points="1272.64,459.74,1282.4884,459.6456,1277.1894,457.6656,1279.1694,452.3666,1272.64,459.74" style="stroke:#A80036;stroke-width:1.0;"/><text fill="#000000" font-family="sans-serif" font-size="13" lengthAdjust="spacing" textLength="38" x="1280.6132" y="453.5774">TypeId</text><!--MD5=[219bd3936f376d031e8c298317b20e94]
link ObjectWrapper to ObjectDTO--><path codeLine="101" d="M2350.77,257.01 C2333.67,266.11 2314.18,275.43 2295.5,282 C2168.83,326.52 2011.54,349.78 1931.89,359.44 " fill="none" id="ObjectWrapper-to-ObjectDTO" style="stroke:#A80036;stroke-width:1.0;"/><polygon fill="#A80036" points="1926.76,360.05,1936.1744,362.9428,1931.724,359.4509,1935.2159,355.0004,1926.76,360.05" style="stroke:#A80036;stroke-width:1.0;"/><text fill="#000000" font-family="sans-serif" font-size="13" lengthAdjust="spacing" textLength="25" x="1934.6559" y="355.6942">_dto</text><!--MD5=[67880a3a229e4f21214e7372b1fe529c]
link CommandWrapper to CommandDTO--><path codeLine="102" d="M1031.57,110.12 C1045.22,128.13 1059.38,149.13 1069.5,170 C1096.63,225.97 1112.06,297.79 1119,336.77 " fill="none" id="CommandWrapper-to-CommandDTO" style="stroke:#A80036;stroke-width:1.0;"/><polygon fill="#A80036" points="1119.88,341.82,1122.2788,332.2677,1119.0233,336.8939,1114.3971,333.6385,1119.88,341.82" style="stroke:#A80036;stroke-width:1.0;"/><text fill="#000000" font-family="sans-serif" font-size="13" lengthAdjust="spacing" textLength="27" x="1088.493" y="331.114">Cmd</text><!--MD5=[9714f00bbee80ca7b140c29ae529c8eb]
reverse link BaseDTO to CommandDTO--><path codeLine="116" d="M1457.44,282.44 C1340.26,309.1 1307.63,312.76 1198.5,342 C1192.97,343.48 1187.24,345.09 1181.52,346.76 " fill="none" id="BaseDTO-backto-CommandDTO" style="stroke:#A80036;stroke-width:1.0;"/><polygon fill="none" points="1455.94,275.6,1477,277.96,1459.07,289.25,1455.94,275.6" style="stroke:#A80036;stroke-width:1.0;"/><!--MD5=[748fc960db8404b389e3e2dd41b16478]
link CommandDTO to Guid--><path codeLine="117" d="M1149.54,390 C1168.28,406.55 1193.61,428.93 1213.25,446.28 " fill="none" id="CommandDTO-to-Guid" style="stroke:#A80036;stroke-width:1.0;"/><polygon fill="#A80036" points="1217.1,449.68,1213.0138,440.7188,1213.3567,446.3653,1207.7102,446.7082,1217.1,449.68" style="stroke:#A80036;stroke-width:1.0;"/><text fill="#000000" font-family="sans-serif" font-size="13" lengthAdjust="spacing" textLength="38" x="1168.6013" y="439.7418">TypeId</text><!--MD5=[7643b4e9f5d3ec841d55a0a29d6a7102]
link CommandDTO to Boolean--><path codeLine="118" d="M1193.51,366 C1193.51,366 1200.31,366 1203.16,366 " fill="none" id="CommandDTO-Boolean" style="stroke:#A80036;stroke-width:1.0;"/><polygon fill="#A80036" points="1216.48,366,1207.48,362,1211.48,366,1207.48,370,1216.48,366" style="stroke:#A80036;stroke-width:1.0;"/><line style="stroke:#A80036;stroke-width:1.0;" x1="1211.48" x2="1203.48" y1="366" y2="366"/><polygon fill="#FFFFFF" points="1181.51,366,1187.51,370,1193.51,366,1187.51,362,1181.51,366" style="stroke:#A80036;stroke-width:1.0;"/><text fill="#000000" font-family="sans-serif" font-size="13" lengthAdjust="spacing" textLength="58" x="1150.0783" y="347.1694">Response</text><!--MD5=[4578dd9431dc4b19b962c6ee8c717b6c]
link CommandDTO to List`1--><path codeLine="119" d="M1193.4371,388.8487 C1193.4371,388.8487 1197.22,389.73 1198.5,390 C1431.7,439.54 1716.49,462.32 1830.16,469.92 " fill="none" id="CommandDTO-List`1" style="stroke:#A80036;stroke-width:1.0;"/><polygon fill="#A80036" points="1843.16,470.78,1834.4383,466.2048,1838.1705,470.4558,1833.9196,474.188,1843.16,470.78" style="stroke:#A80036;stroke-width:1.0;"/><line style="stroke:#A80036;stroke-width:1.0;" x1="1838.1705" x2="1830.185" y1="470.4558" y2="469.93"/><polygon fill="#FFFFFF" points="1181.79,385.96,1186.6507,391.2867,1193.4371,388.8487,1188.5765,383.522,1181.79,385.96" style="stroke:#A80036;stroke-width:1.0;"/><text fill="#000000" font-family="sans-serif" font-size="13" lengthAdjust="spacing" textLength="154" x="1681.4778" y="467.5331">Arguments&lt;PropertyDTO&gt;</text><!--MD5=[1dcbafcc1a6e0f16ed85ca39a22f8e0c]
reverse link CommandWrapper to SampleCommandWrapper--><path codeLine="120" d="M940.7,126.54 C930.44,140.93 919.71,155.98 909.82,169.86 " fill="none" id="CommandWrapper-backto-SampleCommandWrapper" style="stroke:#A80036;stroke-width:1.0;"/><polygon fill="none" points="935.14,122.28,952.45,110.05,946.54,130.4,935.14,122.28" style="stroke:#A80036;stroke-width:1.0;"/><!--MD5=[6158de49482057db5420d29be73619ed]
link SampleCommandWrapper to Guid--><path codeLine="121" d="M920.72,282.12 C954.16,316.44 1000.45,359.68 1047.5,390 C1100.18,423.95 1169.09,449.35 1209.6,462.62 " fill="none" id="SampleCommandWrapper-to-Guid" style="stroke:#A80036;stroke-width:1.0;"/><polygon fill="#A80036" points="1214.4,464.18,1207.073,457.5986,1209.6439,462.6375,1204.605,465.2083,1214.4,464.18" style="stroke:#A80036;stroke-width:1.0;"/><text fill="#000000" font-family="sans-serif" font-size="13" lengthAdjust="spacing" textLength="38" x="1168.4334" y="458.7528">TypeId</text><!--MD5=[ec91f5bc263fb467e5451ee323227901]
link SampleCommandWrapper to CommandDTO--><path codeLine="122" d="M971.58,282.14 C1007.9,301.95 1047.14,323.35 1076.64,339.44 " fill="none" id="SampleCommandWrapper-to-CommandDTO" style="stroke:#A80036;stroke-width:1.0;"/><polygon fill="#A80036" points="1081.29,341.97,1075.2848,334.1638,1076.8945,339.5867,1071.4716,341.1965,1081.29,341.97" style="stroke:#A80036;stroke-width:1.0;"/><text fill="#000000" font-family="sans-serif" font-size="13" lengthAdjust="spacing" textLength="27" x="1040.0143" y="331.3025">Cmd</text><!--MD5=[2bc87cbe907fab5bf33e2f1168f28590]
link SampleCommandWrapper to String--><path codeLine="123" d="M735.55,282.04 C699.78,299.1 662.08,319.42 629.5,342 C585.4,372.56 542.11,417.58 516.61,446.09 " fill="none" id="SampleCommandWrapper-to-String" style="stroke:#A80036;stroke-width:1.0;"/><polygon fill="#A80036" points="513.28,449.82,522.2489,445.7508,516.6018,446.083,516.2696,440.4359,513.28,449.82" style="stroke:#A80036;stroke-width:1.0;"/><text fill="#000000" font-family="sans-serif" font-size="13" lengthAdjust="spacing" textLength="50" x="461.9424" y="439.114">FirstOne</text><!--MD5=[261c833e76cba9e885fc18e8a9d80f94]
link SampleCommandWrapper to Boolean--><path codeLine="124" d="M1032.45,282.11 C1085.55,300.63 1144.72,321.73 1198.5,342 C1202.75,343.6 1207.17,345.31 1211.58,347.04 " fill="none" id="SampleCommandWrapper-to-Boolean" style="stroke:#A80036;stroke-width:1.0;"/><polygon fill="#A80036" points="1216.35,348.92,1209.4606,341.8818,1211.7027,347.0754,1206.5092,349.3175,1216.35,348.92" style="stroke:#A80036;stroke-width:1.0;"/><text fill="#000000" font-family="sans-serif" font-size="13" lengthAdjust="spacing" textLength="68" x="1213.1956" y="331.1613">SecondOne</text><!--MD5=[827eb5c776e7d1ef67b59e471f30133b]
link WeatherForecast to DateTime--><path codeLine="130" d="M3160.5,103.85 C3160.5,133.35 3160.5,171.21 3160.5,196.69 " fill="none" id="WeatherForecast-to-DateTime" style="stroke:#A80036;stroke-width:1.0;"/><polygon fill="#A80036" points="3160.5,201.94,3164.5,192.94,3160.5,196.94,3156.5,192.94,3160.5,201.94" style="stroke:#A80036;stroke-width:1.0;"/><text fill="#000000" font-family="sans-serif" font-size="13" lengthAdjust="spacing" textLength="27" x="3130.0406" y="191.2648">Date</text><!--MD5=[61247b6580e3e0ba3bb022f751dd0d27]
link AdressTypesDispatcher to BaseTypesDispatcher--><!--MD5=[f149555ef7b629e3fb0a6057d6b79107]
link AdressTypesDispatcher to CommandTypesDispatcher--><!--MD5=[2bb4e056b00409876e7da4f6eef7ea0f]
@startuml
class AdressDTO {
}
class FindAdressesWrapper <<partial>> {
    + FindAdressesWrapper(dto:CommandDTO)
    + {static} IsForMe(dto:CommandDTO) : bool
    + {static} ExecuteCommand(dto:CommandDTO) : CommandDTO
    + <<partial>> FindAdresses(searchText:String) : List<AdressDTO>
}
class GetAdressWrapper <<partial>> {
    + GetAdressWrapper(dto:CommandDTO)
    + {static} IsForMe(dto:CommandDTO) : bool
    + {static} ExecuteCommand(dto:CommandDTO) : CommandDTO
    + <<partial>> GetAdress(id:Guid) : AdressDTO
}
class SetAdressWrapper <<partial>> {
    + SetAdressWrapper(dto:CommandDTO)
    + {static} IsForMe(dto:CommandDTO) : bool
    + {static} ExecuteCommand(dto:CommandDTO) : CommandDTO
    + <<partial>> SetAdress(id:Guid, adress:AdressDTO) : AdressDTO
}
class DeleteAdressWrapper <<partial>> {
    + DeleteAdressWrapper(dto:CommandDTO)
    + {static} IsForMe(dto:CommandDTO) : bool
    + {static} ExecuteCommand(dto:CommandDTO) : CommandDTO
    + <<partial>> DeleteAdress(id:Guid) : AdressDTO
}
class AdressTypesDispatcher <<static>> {
    + {static} Dispatch(dto:CommandDTO) : CommandDTO
}
class "List`1"<T> {
}
BaseDTO <|- - AdressDTO
AdressDTO - -> "TypeId" Guid
AdressDTO - -> "Name1" String
AdressDTO - -> "Name2" String
AdressDTO - -> "Adress1" String
AdressDTO - -> "Adress2" String
AdressDTO - -> "Housenumber" String
AdressDTO - -> "City" String
AdressDTO - -> "Postcode" String
CommandWrapper <|- - FindAdressesWrapper
FindAdressesWrapper - -> "TypeId" Guid
FindAdressesWrapper - -> "Cmd" CommandDTO
FindAdressesWrapper - -> "SearchText" String
FindAdressesWrapper - -> "Result<AdressDTO>" "List`1"
CommandWrapper <|- - GetAdressWrapper
GetAdressWrapper - -> "TypeId" Guid
GetAdressWrapper - -> "Cmd" CommandDTO
GetAdressWrapper - -> "Id" Guid
GetAdressWrapper - -> "Result" AdressDTO
CommandWrapper <|- - SetAdressWrapper
SetAdressWrapper - -> "TypeId" Guid
SetAdressWrapper - -> "Cmd" CommandDTO
SetAdressWrapper - -> "Id" Guid
SetAdressWrapper - -> "Adress" AdressDTO
SetAdressWrapper - -> "Result" AdressDTO
CommandWrapper <|- - DeleteAdressWrapper
DeleteAdressWrapper - -> "TypeId" Guid
DeleteAdressWrapper - -> "Cmd" CommandDTO
DeleteAdressWrapper - -> "Id" Guid
DeleteAdressWrapper - -> "Result" AdressDTO
class BaseDTO <<partial>> {
    # StringFromPropertyList(list:List<PropertyDTO>, name:string) : string
    # StringToPropertyList(list:List<PropertyDTO>, name:string, newValue:string) : void
    # BooleanFromPropertyList(list:List<PropertyDTO>, name:string) : Boolean
    # BooleanToPropertyList(list:List<PropertyDTO>, name:string, newValue:Boolean) : void
}
class BaseDTO <<partial>> {
}
class PropertyDTO {
}
class ObjectDTO {
}
class TypeDTO {
}
class BaseTypesDispatcher <<static>> {
    + {static} Dispatch(dto:CommandDTO) : CommandDTO
}
class "List`1"<T> {
}
BaseDTO - -> "TypeId" Guid
BaseDTO - -> "Id" Guid
BaseDTO - -> "Type" Guid
PropertyDTO - -> "TypeId" Guid
PropertyDTO - -> "Name" String
PropertyDTO - -> "Value" String
BaseDTO <|- - ObjectDTO
ObjectDTO - -> "TypeId" Guid
ObjectDTO - -> "Properties<PropertyDTO>" "List`1"
BaseDTO <|- - TypeDTO
TypeDTO - -> "TypeId" Guid
class ObjectWrapper {
    + ObjectWrapper(dto:ObjectDTO)
}
class CommandWrapper {
    + CommandWrapper(dto:CommandDTO)
    # Get(cmd:CommandDTO, name:string, target:(Func<T> get, Action<T> set)) : void
    # Get(cmd:CommandDTO, name:string, target:(Func<Guid> get, Action<Guid> set)) : void
    # Set(cmd:CommandDTO, name:string, value:T) : void
}
ObjectWrapper - -> "_dto" ObjectDTO
CommandWrapper - -> "Cmd" CommandDTO
class CommandDTO {
}
class SampleCommandWrapper <<partial>> {
    + SampleCommandWrapper(dto:CommandDTO)
    + {static} IsForMe(dto:CommandDTO) : bool
    + {static} ExecuteCommand(dto:CommandDTO) : CommandDTO
    + <<partial>> SampleCommand(firstOne:String, secondOne:Boolean) : void
}
class CommandTypesDispatcher <<static>> {
    + {static} Dispatch(dto:CommandDTO) : CommandDTO
}
class "List`1"<T> {
}
BaseDTO <|- - CommandDTO
CommandDTO - -> "TypeId" Guid
CommandDTO o-> "Response" Boolean
CommandDTO o-> "Arguments<PropertyDTO>" "List`1"
CommandWrapper <|- - SampleCommandWrapper
SampleCommandWrapper - -> "TypeId" Guid
SampleCommandWrapper - -> "Cmd" CommandDTO
SampleCommandWrapper - -> "FirstOne" String
SampleCommandWrapper - -> "SecondOne" Boolean
class WeatherForecast {
    + TemperatureC : int <<get>> <<set>>
    + TemperatureF : int <<get>>
    + Summary : string <<get>> <<set>>
}
WeatherForecast - -> "Date" DateTime
@enduml

PlantUML version 1.2021.10(Mon Aug 30 15:43:48 CEST 2021)
(GPL source distribution)
Java Runtime: Java(TM) SE Runtime Environment
JVM: Java HotSpot(TM) Client VM
Default Encoding: Cp1252
Language: de
Country: CH
--></g></svg>