<?xml version="1.0" encoding="UTF-8" standalone="no"?><svg xmlns="http://www.w3.org/2000/svg" xmlns:xlink="http://www.w3.org/1999/xlink" contentScriptType="application/ecmascript" contentStyleType="text/css" height="512px" preserveAspectRatio="none" style="width:3181px;height:512px;background:#FFFFFF;" version="1.1" viewBox="0 0 3181 512" width="3181px" zoomAndPan="magnify"><defs><filter height="300%" id="f1xji3gsyr5zm0" width="300%" x="-1" y="-1"><feGaussianBlur result="blurOut" stdDeviation="2.0"/><feColorMatrix in="blurOut" result="blurOut2" type="matrix" values="0 0 0 0 0 0 0 0 0 0 0 0 0 0 0 0 0 0 .4 0"/><feOffset dx="4.0" dy="4.0" in="blurOut2" result="blurOut3"/><feBlend in="SourceGraphic" in2="blurOut3" mode="normal"/></filter></defs><g><!--MD5=[a5d4fcdae0bd58dbfa0890c54d6b74e5]
class AdressDTO--><rect codeLine="1" fill="#FEFECE" filter="url(#f1xji3gsyr5zm0)" height="48" id="AdressDTO" style="stroke:#A80036;stroke-width:1.5;" width="96" x="385.5" y="342"/><ellipse cx="400.5" cy="358" fill="#ADD1B2" rx="11" ry="11" style="stroke:#A80036;stroke-width:1.0;"/><path d="M403.2656,353.875 Q403.4219,353.6563 403.6094,353.5469 Q403.7969,353.4375 404.0156,353.4375 Q404.3906,353.4375 404.625,353.6953 Q404.8594,353.9531 404.8594,354.5625 L404.8594,356.0156 Q404.8594,356.625 404.625,356.8906 Q404.3906,357.1563 404.0156,357.1563 Q403.6719,357.1563 403.4688,356.9531 Q403.2656,356.7656 403.1563,356.25 Q403.1094,355.8906 402.9219,355.7031 Q402.5938,355.3281 401.9844,355.1094 Q401.375,354.8906 400.75,354.8906 Q399.9844,354.8906 399.3516,355.2188 Q398.7188,355.5469 398.2266,356.2969 Q397.7344,357.0469 397.7344,358.0781 L397.7344,359.1719 Q397.7344,360.4063 398.625,361.2266 Q399.5156,362.0469 401.1094,362.0469 Q402.0469,362.0469 402.7031,361.7969 Q403.0938,361.6406 403.5156,361.2031 Q403.7813,360.9375 403.9297,360.8594 Q404.0781,360.7813 404.2813,360.7813 Q404.6094,360.7813 404.8672,361.0391 Q405.125,361.2969 405.125,361.6406 Q405.125,361.9844 404.7813,362.3906 Q404.2813,362.9688 403.4844,363.2969 Q402.4063,363.75 401.1094,363.75 Q399.5938,363.75 398.3906,363.125 Q397.4063,362.625 396.7188,361.5547 Q396.0313,360.4844 396.0313,359.2031 L396.0313,358.0469 Q396.0313,356.7188 396.6484,355.5703 Q397.2656,354.4219 398.3594,353.8047 Q399.4531,353.1875 400.6875,353.1875 Q401.4219,353.1875 402.0703,353.3516 Q402.7188,353.5156 403.2656,353.875 Z " fill="#000000"/><text fill="#000000" font-family="sans-serif" font-size="12" lengthAdjust="spacing" textLength="64" x="414.5" y="362.9102">AdressDTO</text><line style="stroke:#A80036;stroke-width:1.5;" x1="386.5" x2="480.5" y1="374" y2="374"/><line style="stroke:#A80036;stroke-width:1.5;" x1="386.5" x2="480.5" y1="382" y2="382"/><!--MD5=[b322aadbb9d3c478d9706c2cbb9a3ac5]
class FindAdressesWrapper--><rect codeLine="3" fill="#FEFECE" filter="url(#f1xji3gsyr5zm0)" height="111.5313" id="FindAdressesWrapper" style="stroke:#A80036;stroke-width:1.5;" width="327" x="1871" y="170"/><ellipse cx="1968.25" cy="190.0938" fill="#ADD1B2" rx="11" ry="11" style="stroke:#A80036;stroke-width:1.0;"/><path d="M1971.0156,185.9688 Q1971.1719,185.75 1971.3594,185.6406 Q1971.5469,185.5313 1971.7656,185.5313 Q1972.1406,185.5313 1972.375,185.7891 Q1972.6094,186.0469 1972.6094,186.6563 L1972.6094,188.1094 Q1972.6094,188.7188 1972.375,188.9844 Q1972.1406,189.25 1971.7656,189.25 Q1971.4219,189.25 1971.2188,189.0469 Q1971.0156,188.8594 1970.9063,188.3438 Q1970.8594,187.9844 1970.6719,187.7969 Q1970.3438,187.4219 1969.7344,187.2031 Q1969.125,186.9844 1968.5,186.9844 Q1967.7344,186.9844 1967.1016,187.3125 Q1966.4688,187.6406 1965.9766,188.3906 Q1965.4844,189.1406 1965.4844,190.1719 L1965.4844,191.2656 Q1965.4844,192.5 1966.375,193.3203 Q1967.2656,194.1406 1968.8594,194.1406 Q1969.7969,194.1406 1970.4531,193.8906 Q1970.8438,193.7344 1971.2656,193.2969 Q1971.5313,193.0313 1971.6797,192.9531 Q1971.8281,192.875 1972.0313,192.875 Q1972.3594,192.875 1972.6172,193.1328 Q1972.875,193.3906 1972.875,193.7344 Q1972.875,194.0781 1972.5313,194.4844 Q1972.0313,195.0625 1971.2344,195.3906 Q1970.1563,195.8438 1968.8594,195.8438 Q1967.3438,195.8438 1966.1406,195.2188 Q1965.1563,194.7188 1964.4688,193.6484 Q1963.7813,192.5781 1963.7813,191.2969 L1963.7813,190.1406 Q1963.7813,188.8125 1964.3984,187.6641 Q1965.0156,186.5156 1966.1094,185.8984 Q1967.2031,185.2813 1968.4375,185.2813 Q1969.1719,185.2813 1969.8203,185.4453 Q1970.4688,185.6094 1971.0156,185.9688 Z " fill="#000000"/><text fill="#000000" font-family="sans-serif" font-size="12" font-style="italic" lengthAdjust="spacing" textLength="48" x="2026.75" y="187.457">«partial»</text><text fill="#000000" font-family="sans-serif" font-size="12" lengthAdjust="spacing" textLength="124" x="1988.75" y="202.5508">FindAdressesWrapper</text><line style="stroke:#A80036;stroke-width:1.5;" x1="1872" x2="2197" y1="210.1875" y2="210.1875"/><line style="stroke:#A80036;stroke-width:1.5;" x1="1872" x2="2197" y1="218.1875" y2="218.1875"/><ellipse cx="1882" cy="229.1875" fill="#84BE84" rx="3" ry="3" style="stroke:#038048;stroke-width:1.0;"/><text fill="#000000" font-family="sans-serif" font-size="11" lengthAdjust="spacing" textLength="204" x="1891" y="233.6064">FindAdressesWrapper(dto:CommandDTO)</text><ellipse cx="1882" cy="243.0234" fill="#84BE84" rx="3" ry="3" style="stroke:#038048;stroke-width:1.0;"/><text fill="#000000" font-family="sans-serif" font-size="11" lengthAdjust="spacing" text-decoration="underline" textLength="161" x="1891" y="247.4424">IsForMe(dto:CommandDTO) : bool</text><ellipse cx="1882" cy="256.8594" fill="#84BE84" rx="3" ry="3" style="stroke:#038048;stroke-width:1.0;"/><text fill="#000000" font-family="sans-serif" font-size="11" lengthAdjust="spacing" text-decoration="underline" textLength="257" x="1891" y="261.2783">ExecuteCommand(dto:CommandDTO) : CommandDTO</text><ellipse cx="1882" cy="270.6953" fill="#84BE84" rx="3" ry="3" style="stroke:#038048;stroke-width:1.0;"/><text fill="#000000" font-family="sans-serif" font-size="11" lengthAdjust="spacing" textLength="301" x="1891" y="275.1143">«partial» FindAdresses(searchText:String) : List&lt;AdressDTO&gt;</text><!--MD5=[6e19dd62a802d136f77541c9a65b5007]
class GetAdressWrapper--><rect codeLine="9" fill="#FEFECE" filter="url(#f1xji3gsyr5zm0)" height="111.5313" id="GetAdressWrapper" style="stroke:#A80036;stroke-width:1.5;" width="283" x="1079" y="170"/><ellipse cx="1163.75" cy="190.0938" fill="#ADD1B2" rx="11" ry="11" style="stroke:#A80036;stroke-width:1.0;"/><path d="M1166.5156,185.9688 Q1166.6719,185.75 1166.8594,185.6406 Q1167.0469,185.5313 1167.2656,185.5313 Q1167.6406,185.5313 1167.875,185.7891 Q1168.1094,186.0469 1168.1094,186.6563 L1168.1094,188.1094 Q1168.1094,188.7188 1167.875,188.9844 Q1167.6406,189.25 1167.2656,189.25 Q1166.9219,189.25 1166.7188,189.0469 Q1166.5156,188.8594 1166.4063,188.3438 Q1166.3594,187.9844 1166.1719,187.7969 Q1165.8438,187.4219 1165.2344,187.2031 Q1164.625,186.9844 1164,186.9844 Q1163.2344,186.9844 1162.6016,187.3125 Q1161.9688,187.6406 1161.4766,188.3906 Q1160.9844,189.1406 1160.9844,190.1719 L1160.9844,191.2656 Q1160.9844,192.5 1161.875,193.3203 Q1162.7656,194.1406 1164.3594,194.1406 Q1165.2969,194.1406 1165.9531,193.8906 Q1166.3438,193.7344 1166.7656,193.2969 Q1167.0313,193.0313 1167.1797,192.9531 Q1167.3281,192.875 1167.5313,192.875 Q1167.8594,192.875 1168.1172,193.1328 Q1168.375,193.3906 1168.375,193.7344 Q1168.375,194.0781 1168.0313,194.4844 Q1167.5313,195.0625 1166.7344,195.3906 Q1165.6563,195.8438 1164.3594,195.8438 Q1162.8438,195.8438 1161.6406,195.2188 Q1160.6563,194.7188 1159.9688,193.6484 Q1159.2813,192.5781 1159.2813,191.2969 L1159.2813,190.1406 Q1159.2813,188.8125 1159.8984,187.6641 Q1160.5156,186.5156 1161.6094,185.8984 Q1162.7031,185.2813 1163.9375,185.2813 Q1164.6719,185.2813 1165.3203,185.4453 Q1165.9688,185.6094 1166.5156,185.9688 Z " fill="#000000"/><text fill="#000000" font-family="sans-serif" font-size="12" font-style="italic" lengthAdjust="spacing" textLength="48" x="1212.75" y="187.457">«partial»</text><text fill="#000000" font-family="sans-serif" font-size="12" lengthAdjust="spacing" textLength="105" x="1184.25" y="202.5508">GetAdressWrapper</text><line style="stroke:#A80036;stroke-width:1.5;" x1="1080" x2="1361" y1="210.1875" y2="210.1875"/><line style="stroke:#A80036;stroke-width:1.5;" x1="1080" x2="1361" y1="218.1875" y2="218.1875"/><ellipse cx="1090" cy="229.1875" fill="#84BE84" rx="3" ry="3" style="stroke:#038048;stroke-width:1.0;"/><text fill="#000000" font-family="sans-serif" font-size="11" lengthAdjust="spacing" textLength="189" x="1099" y="233.6064">GetAdressWrapper(dto:CommandDTO)</text><ellipse cx="1090" cy="243.0234" fill="#84BE84" rx="3" ry="3" style="stroke:#038048;stroke-width:1.0;"/><text fill="#000000" font-family="sans-serif" font-size="11" lengthAdjust="spacing" text-decoration="underline" textLength="161" x="1099" y="247.4424">IsForMe(dto:CommandDTO) : bool</text><ellipse cx="1090" cy="256.8594" fill="#84BE84" rx="3" ry="3" style="stroke:#038048;stroke-width:1.0;"/><text fill="#000000" font-family="sans-serif" font-size="11" lengthAdjust="spacing" text-decoration="underline" textLength="257" x="1099" y="261.2783">ExecuteCommand(dto:CommandDTO) : CommandDTO</text><ellipse cx="1090" cy="270.6953" fill="#84BE84" rx="3" ry="3" style="stroke:#038048;stroke-width:1.0;"/><text fill="#000000" font-family="sans-serif" font-size="11" lengthAdjust="spacing" textLength="204" x="1099" y="275.1143">«partial» GetAdress(id:Guid) : AdressDTO</text><!--MD5=[d7ea2e2e46638f75b2cef309ef62bd52]
class SetAdressWrapper--><rect codeLine="15" fill="#FEFECE" filter="url(#f1xji3gsyr5zm0)" height="111.5313" id="SetAdressWrapper" style="stroke:#A80036;stroke-width:1.5;" width="329" x="7" y="170"/><ellipse cx="115.25" cy="190.0938" fill="#ADD1B2" rx="11" ry="11" style="stroke:#A80036;stroke-width:1.0;"/><path d="M118.0156,185.9688 Q118.1719,185.75 118.3594,185.6406 Q118.5469,185.5313 118.7656,185.5313 Q119.1406,185.5313 119.375,185.7891 Q119.6094,186.0469 119.6094,186.6563 L119.6094,188.1094 Q119.6094,188.7188 119.375,188.9844 Q119.1406,189.25 118.7656,189.25 Q118.4219,189.25 118.2188,189.0469 Q118.0156,188.8594 117.9063,188.3438 Q117.8594,187.9844 117.6719,187.7969 Q117.3438,187.4219 116.7344,187.2031 Q116.125,186.9844 115.5,186.9844 Q114.7344,186.9844 114.1016,187.3125 Q113.4688,187.6406 112.9766,188.3906 Q112.4844,189.1406 112.4844,190.1719 L112.4844,191.2656 Q112.4844,192.5 113.375,193.3203 Q114.2656,194.1406 115.8594,194.1406 Q116.7969,194.1406 117.4531,193.8906 Q117.8438,193.7344 118.2656,193.2969 Q118.5313,193.0313 118.6797,192.9531 Q118.8281,192.875 119.0313,192.875 Q119.3594,192.875 119.6172,193.1328 Q119.875,193.3906 119.875,193.7344 Q119.875,194.0781 119.5313,194.4844 Q119.0313,195.0625 118.2344,195.3906 Q117.1563,195.8438 115.8594,195.8438 Q114.3438,195.8438 113.1406,195.2188 Q112.1563,194.7188 111.4688,193.6484 Q110.7813,192.5781 110.7813,191.2969 L110.7813,190.1406 Q110.7813,188.8125 111.3984,187.6641 Q112.0156,186.5156 113.1094,185.8984 Q114.2031,185.2813 115.4375,185.2813 Q116.1719,185.2813 116.8203,185.4453 Q117.4688,185.6094 118.0156,185.9688 Z " fill="#000000"/><text fill="#000000" font-family="sans-serif" font-size="12" font-style="italic" lengthAdjust="spacing" textLength="48" x="163.75" y="187.457">«partial»</text><text fill="#000000" font-family="sans-serif" font-size="12" lengthAdjust="spacing" textLength="104" x="135.75" y="202.5508">SetAdressWrapper</text><line style="stroke:#A80036;stroke-width:1.5;" x1="8" x2="335" y1="210.1875" y2="210.1875"/><line style="stroke:#A80036;stroke-width:1.5;" x1="8" x2="335" y1="218.1875" y2="218.1875"/><ellipse cx="18" cy="229.1875" fill="#84BE84" rx="3" ry="3" style="stroke:#038048;stroke-width:1.0;"/><text fill="#000000" font-family="sans-serif" font-size="11" lengthAdjust="spacing" textLength="188" x="27" y="233.6064">SetAdressWrapper(dto:CommandDTO)</text><ellipse cx="18" cy="243.0234" fill="#84BE84" rx="3" ry="3" style="stroke:#038048;stroke-width:1.0;"/><text fill="#000000" font-family="sans-serif" font-size="11" lengthAdjust="spacing" text-decoration="underline" textLength="161" x="27" y="247.4424">IsForMe(dto:CommandDTO) : bool</text><ellipse cx="18" cy="256.8594" fill="#84BE84" rx="3" ry="3" style="stroke:#038048;stroke-width:1.0;"/><text fill="#000000" font-family="sans-serif" font-size="11" lengthAdjust="spacing" text-decoration="underline" textLength="257" x="27" y="261.2783">ExecuteCommand(dto:CommandDTO) : CommandDTO</text><ellipse cx="18" cy="270.6953" fill="#84BE84" rx="3" ry="3" style="stroke:#038048;stroke-width:1.0;"/><text fill="#000000" font-family="sans-serif" font-size="11" lengthAdjust="spacing" textLength="303" x="27" y="275.1143">«partial» SetAdress(id:Guid, adress:AdressDTO) : AdressDTO</text><!--MD5=[e9948f5ac33029c6d753e81ae40d62cf]
class DeleteAdressWrapper--><rect codeLine="21" fill="#FEFECE" filter="url(#f1xji3gsyr5zm0)" height="111.5313" id="DeleteAdressWrapper" style="stroke:#A80036;stroke-width:1.5;" width="283" x="371" y="170"/><ellipse cx="447.25" cy="190.0938" fill="#ADD1B2" rx="11" ry="11" style="stroke:#A80036;stroke-width:1.0;"/><path d="M450.0156,185.9688 Q450.1719,185.75 450.3594,185.6406 Q450.5469,185.5313 450.7656,185.5313 Q451.1406,185.5313 451.375,185.7891 Q451.6094,186.0469 451.6094,186.6563 L451.6094,188.1094 Q451.6094,188.7188 451.375,188.9844 Q451.1406,189.25 450.7656,189.25 Q450.4219,189.25 450.2188,189.0469 Q450.0156,188.8594 449.9063,188.3438 Q449.8594,187.9844 449.6719,187.7969 Q449.3438,187.4219 448.7344,187.2031 Q448.125,186.9844 447.5,186.9844 Q446.7344,186.9844 446.1016,187.3125 Q445.4688,187.6406 444.9766,188.3906 Q444.4844,189.1406 444.4844,190.1719 L444.4844,191.2656 Q444.4844,192.5 445.375,193.3203 Q446.2656,194.1406 447.8594,194.1406 Q448.7969,194.1406 449.4531,193.8906 Q449.8438,193.7344 450.2656,193.2969 Q450.5313,193.0313 450.6797,192.9531 Q450.8281,192.875 451.0313,192.875 Q451.3594,192.875 451.6172,193.1328 Q451.875,193.3906 451.875,193.7344 Q451.875,194.0781 451.5313,194.4844 Q451.0313,195.0625 450.2344,195.3906 Q449.1563,195.8438 447.8594,195.8438 Q446.3438,195.8438 445.1406,195.2188 Q444.1563,194.7188 443.4688,193.6484 Q442.7813,192.5781 442.7813,191.2969 L442.7813,190.1406 Q442.7813,188.8125 443.3984,187.6641 Q444.0156,186.5156 445.1094,185.8984 Q446.2031,185.2813 447.4375,185.2813 Q448.1719,185.2813 448.8203,185.4453 Q449.4688,185.6094 450.0156,185.9688 Z " fill="#000000"/><text fill="#000000" font-family="sans-serif" font-size="12" font-style="italic" lengthAdjust="spacing" textLength="48" x="504.75" y="187.457">«partial»</text><text fill="#000000" font-family="sans-serif" font-size="12" lengthAdjust="spacing" textLength="122" x="467.75" y="202.5508">DeleteAdressWrapper</text><line style="stroke:#A80036;stroke-width:1.5;" x1="372" x2="653" y1="210.1875" y2="210.1875"/><line style="stroke:#A80036;stroke-width:1.5;" x1="372" x2="653" y1="218.1875" y2="218.1875"/><ellipse cx="382" cy="229.1875" fill="#84BE84" rx="3" ry="3" style="stroke:#038048;stroke-width:1.0;"/><text fill="#000000" font-family="sans-serif" font-size="11" lengthAdjust="spacing" textLength="202" x="391" y="233.6064">DeleteAdressWrapper(dto:CommandDTO)</text><ellipse cx="382" cy="243.0234" fill="#84BE84" rx="3" ry="3" style="stroke:#038048;stroke-width:1.0;"/><text fill="#000000" font-family="sans-serif" font-size="11" lengthAdjust="spacing" text-decoration="underline" textLength="161" x="391" y="247.4424">IsForMe(dto:CommandDTO) : bool</text><ellipse cx="382" cy="256.8594" fill="#84BE84" rx="3" ry="3" style="stroke:#038048;stroke-width:1.0;"/><text fill="#000000" font-family="sans-serif" font-size="11" lengthAdjust="spacing" text-decoration="underline" textLength="257" x="391" y="261.2783">ExecuteCommand(dto:CommandDTO) : CommandDTO</text><ellipse cx="382" cy="270.6953" fill="#84BE84" rx="3" ry="3" style="stroke:#038048;stroke-width:1.0;"/><text fill="#000000" font-family="sans-serif" font-size="11" lengthAdjust="spacing" textLength="217" x="391" y="275.1143">«partial» DeleteAdress(id:Guid) : AdressDTO</text><!--MD5=[9445adbca05695301a39cf2527b3960a]
class AdressTypesDispatcher--><rect codeLine="27" fill="#FEFECE" filter="url(#f1xji3gsyr5zm0)" height="70.0234" id="AdressTypesDispatcher" style="stroke:#A80036;stroke-width:1.5;" width="239" x="2445" y="23.5"/><ellipse cx="2494.25" cy="43.5938" fill="#ADD1B2" rx="11" ry="11" style="stroke:#A80036;stroke-width:1.0;"/><path d="M2497.0156,39.4688 Q2497.1719,39.25 2497.3594,39.1406 Q2497.5469,39.0313 2497.7656,39.0313 Q2498.1406,39.0313 2498.375,39.2891 Q2498.6094,39.5469 2498.6094,40.1563 L2498.6094,41.6094 Q2498.6094,42.2188 2498.375,42.4844 Q2498.1406,42.75 2497.7656,42.75 Q2497.4219,42.75 2497.2188,42.5469 Q2497.0156,42.3594 2496.9063,41.8438 Q2496.8594,41.4844 2496.6719,41.2969 Q2496.3438,40.9219 2495.7344,40.7031 Q2495.125,40.4844 2494.5,40.4844 Q2493.7344,40.4844 2493.1016,40.8125 Q2492.4688,41.1406 2491.9766,41.8906 Q2491.4844,42.6406 2491.4844,43.6719 L2491.4844,44.7656 Q2491.4844,46 2492.375,46.8203 Q2493.2656,47.6406 2494.8594,47.6406 Q2495.7969,47.6406 2496.4531,47.3906 Q2496.8438,47.2344 2497.2656,46.7969 Q2497.5313,46.5313 2497.6797,46.4531 Q2497.8281,46.375 2498.0313,46.375 Q2498.3594,46.375 2498.6172,46.6328 Q2498.875,46.8906 2498.875,47.2344 Q2498.875,47.5781 2498.5313,47.9844 Q2498.0313,48.5625 2497.2344,48.8906 Q2496.1563,49.3438 2494.8594,49.3438 Q2493.3438,49.3438 2492.1406,48.7188 Q2491.1563,48.2188 2490.4688,47.1484 Q2489.7813,46.0781 2489.7813,44.7969 L2489.7813,43.6406 Q2489.7813,42.3125 2490.3984,41.1641 Q2491.0156,40.0156 2492.1094,39.3984 Q2493.2031,38.7813 2494.4375,38.7813 Q2495.1719,38.7813 2495.8203,38.9453 Q2496.4688,39.1094 2497.0156,39.4688 Z " fill="#000000"/><text fill="#000000" font-family="sans-serif" font-size="12" font-style="italic" lengthAdjust="spacing" textLength="42" x="2559.75" y="40.957">«static»</text><text fill="#000000" font-family="sans-serif" font-size="12" lengthAdjust="spacing" textLength="132" x="2514.75" y="56.0508">AdressTypesDispatcher</text><line style="stroke:#A80036;stroke-width:1.5;" x1="2446" x2="2683" y1="63.6875" y2="63.6875"/><line style="stroke:#A80036;stroke-width:1.5;" x1="2446" x2="2683" y1="71.6875" y2="71.6875"/><ellipse cx="2456" cy="82.6875" fill="#84BE84" rx="3" ry="3" style="stroke:#038048;stroke-width:1.0;"/><text fill="#000000" font-family="sans-serif" font-size="11" lengthAdjust="spacing" text-decoration="underline" textLength="213" x="2465" y="87.1064">Dispatch(dto:CommandDTO) : CommandDTO</text><!--MD5=[e644022de7dea015dd09463c37421447]
class List`1--><rect codeLine="114" fill="#FEFECE" filter="url(#f1xji3gsyr5zm0)" height="48" id="List`1" style="stroke:#A80036;stroke-width:1.5;" width="74" x="1783.5" y="450"/><ellipse cx="1798.5" cy="466" fill="#ADD1B2" rx="11" ry="11" style="stroke:#A80036;stroke-width:1.0;"/><path d="M1801.2656,461.875 Q1801.4219,461.6563 1801.6094,461.5469 Q1801.7969,461.4375 1802.0156,461.4375 Q1802.3906,461.4375 1802.625,461.6953 Q1802.8594,461.9531 1802.8594,462.5625 L1802.8594,464.0156 Q1802.8594,464.625 1802.625,464.8906 Q1802.3906,465.1563 1802.0156,465.1563 Q1801.6719,465.1563 1801.4688,464.9531 Q1801.2656,464.7656 1801.1563,464.25 Q1801.1094,463.8906 1800.9219,463.7031 Q1800.5938,463.3281 1799.9844,463.1094 Q1799.375,462.8906 1798.75,462.8906 Q1797.9844,462.8906 1797.3516,463.2188 Q1796.7188,463.5469 1796.2266,464.2969 Q1795.7344,465.0469 1795.7344,466.0781 L1795.7344,467.1719 Q1795.7344,468.4063 1796.625,469.2266 Q1797.5156,470.0469 1799.1094,470.0469 Q1800.0469,470.0469 1800.7031,469.7969 Q1801.0938,469.6406 1801.5156,469.2031 Q1801.7813,468.9375 1801.9297,468.8594 Q1802.0781,468.7813 1802.2813,468.7813 Q1802.6094,468.7813 1802.8672,469.0391 Q1803.125,469.2969 1803.125,469.6406 Q1803.125,469.9844 1802.7813,470.3906 Q1802.2813,470.9688 1801.4844,471.2969 Q1800.4063,471.75 1799.1094,471.75 Q1797.5938,471.75 1796.3906,471.125 Q1795.4063,470.625 1794.7188,469.5547 Q1794.0313,468.4844 1794.0313,467.2031 L1794.0313,466.0469 Q1794.0313,464.7188 1794.6484,463.5703 Q1795.2656,462.4219 1796.3594,461.8047 Q1797.4531,461.1875 1798.6875,461.1875 Q1799.4219,461.1875 1800.0703,461.3516 Q1800.7188,461.5156 1801.2656,461.875 Z " fill="#000000"/><text fill="#000000" font-family="sans-serif" font-size="12" lengthAdjust="spacing" textLength="31" x="1812.5" y="470.9102">List`1</text><rect fill="#FFFFFF" height="17.0938" style="stroke:#000000;stroke-width:1.0;stroke-dasharray:2.0,2.0;" width="9" x="1851.5" y="447"/><text fill="#000000" font-family="sans-serif" font-size="12" font-style="italic" lengthAdjust="spacing" textLength="7" x="1852.5" y="460.457">T</text><line style="stroke:#A80036;stroke-width:1.5;" x1="1784.5" x2="1856.5" y1="482" y2="482"/><line style="stroke:#A80036;stroke-width:1.5;" x1="1784.5" x2="1856.5" y1="490" y2="490"/><!--MD5=[6b1d3384926f1bc892ee196bbd0d7fce]
class BaseDTO--><rect codeLine="68" fill="#FEFECE" filter="url(#f1xji3gsyr5zm0)" height="111.5313" id="BaseDTO" style="stroke:#A80036;stroke-width:1.5;" width="439" x="1397" y="170"/><ellipse cx="1585.25" cy="190.0938" fill="#ADD1B2" rx="11" ry="11" style="stroke:#A80036;stroke-width:1.0;"/><path d="M1588.0156,185.9688 Q1588.1719,185.75 1588.3594,185.6406 Q1588.5469,185.5313 1588.7656,185.5313 Q1589.1406,185.5313 1589.375,185.7891 Q1589.6094,186.0469 1589.6094,186.6563 L1589.6094,188.1094 Q1589.6094,188.7188 1589.375,188.9844 Q1589.1406,189.25 1588.7656,189.25 Q1588.4219,189.25 1588.2188,189.0469 Q1588.0156,188.8594 1587.9063,188.3438 Q1587.8594,187.9844 1587.6719,187.7969 Q1587.3438,187.4219 1586.7344,187.2031 Q1586.125,186.9844 1585.5,186.9844 Q1584.7344,186.9844 1584.1016,187.3125 Q1583.4688,187.6406 1582.9766,188.3906 Q1582.4844,189.1406 1582.4844,190.1719 L1582.4844,191.2656 Q1582.4844,192.5 1583.375,193.3203 Q1584.2656,194.1406 1585.8594,194.1406 Q1586.7969,194.1406 1587.4531,193.8906 Q1587.8438,193.7344 1588.2656,193.2969 Q1588.5313,193.0313 1588.6797,192.9531 Q1588.8281,192.875 1589.0313,192.875 Q1589.3594,192.875 1589.6172,193.1328 Q1589.875,193.3906 1589.875,193.7344 Q1589.875,194.0781 1589.5313,194.4844 Q1589.0313,195.0625 1588.2344,195.3906 Q1587.1563,195.8438 1585.8594,195.8438 Q1584.3438,195.8438 1583.1406,195.2188 Q1582.1563,194.7188 1581.4688,193.6484 Q1580.7813,192.5781 1580.7813,191.2969 L1580.7813,190.1406 Q1580.7813,188.8125 1581.3984,187.6641 Q1582.0156,186.5156 1583.1094,185.8984 Q1584.2031,185.2813 1585.4375,185.2813 Q1586.1719,185.2813 1586.8203,185.4453 Q1587.4688,185.6094 1588.0156,185.9688 Z " fill="#000000"/><text fill="#000000" font-family="sans-serif" font-size="12" font-style="italic" lengthAdjust="spacing" textLength="48" x="1608.75" y="187.457">«partial»</text><text fill="#000000" font-family="sans-serif" font-size="12" lengthAdjust="spacing" textLength="54" x="1605.75" y="202.5508">BaseDTO</text><line style="stroke:#A80036;stroke-width:1.5;" x1="1398" x2="1835" y1="210.1875" y2="210.1875"/><line style="stroke:#A80036;stroke-width:1.5;" x1="1398" x2="1835" y1="218.1875" y2="218.1875"/><polygon fill="#FFFF44" points="1408,224.1875,1412,228.1875,1408,232.1875,1404,228.1875" style="stroke:#B38D22;stroke-width:1.0;"/><text fill="#000000" font-family="sans-serif" font-size="11" lengthAdjust="spacing" textLength="323" x="1417" y="233.6064">StringFromPropertyList(list:List&lt;PropertyDTO&gt;, name:string) : string</text><polygon fill="#FFFF44" points="1408,238.0234,1412,242.0234,1408,246.0234,1404,242.0234" style="stroke:#B38D22;stroke-width:1.0;"/><text fill="#000000" font-family="sans-serif" font-size="11" lengthAdjust="spacing" textLength="390" x="1417" y="247.4424">StringToPropertyList(list:List&lt;PropertyDTO&gt;, name:string, newValue:string) : void</text><polygon fill="#FFFF44" points="1408,251.8594,1412,255.8594,1408,259.8594,1404,255.8594" style="stroke:#B38D22;stroke-width:1.0;"/><text fill="#000000" font-family="sans-serif" font-size="11" lengthAdjust="spacing" textLength="346" x="1417" y="261.2783">BooleanFromPropertyList(list:List&lt;PropertyDTO&gt;, name:string) : Boolean</text><polygon fill="#FFFF44" points="1408,265.6953,1412,269.6953,1408,273.6953,1404,269.6953" style="stroke:#B38D22;stroke-width:1.0;"/><text fill="#000000" font-family="sans-serif" font-size="11" lengthAdjust="spacing" textLength="413" x="1417" y="275.1143">BooleanToPropertyList(list:List&lt;PropertyDTO&gt;, name:string, newValue:Boolean) : void</text><!--MD5=[b9f3d2915b6b8d0c143f32ccec3f745e]
class Guid--><rect fill="#FEFECE" filter="url(#f1xji3gsyr5zm0)" height="48" id="Guid" style="stroke:#A80036;stroke-width:1.5;" width="58" x="1154.5" y="450"/><ellipse cx="1169.5" cy="466" fill="#ADD1B2" rx="11" ry="11" style="stroke:#A80036;stroke-width:1.0;"/><path d="M1172.2656,461.875 Q1172.4219,461.6563 1172.6094,461.5469 Q1172.7969,461.4375 1173.0156,461.4375 Q1173.3906,461.4375 1173.625,461.6953 Q1173.8594,461.9531 1173.8594,462.5625 L1173.8594,464.0156 Q1173.8594,464.625 1173.625,464.8906 Q1173.3906,465.1563 1173.0156,465.1563 Q1172.6719,465.1563 1172.4688,464.9531 Q1172.2656,464.7656 1172.1563,464.25 Q1172.1094,463.8906 1171.9219,463.7031 Q1171.5938,463.3281 1170.9844,463.1094 Q1170.375,462.8906 1169.75,462.8906 Q1168.9844,462.8906 1168.3516,463.2188 Q1167.7188,463.5469 1167.2266,464.2969 Q1166.7344,465.0469 1166.7344,466.0781 L1166.7344,467.1719 Q1166.7344,468.4063 1167.625,469.2266 Q1168.5156,470.0469 1170.1094,470.0469 Q1171.0469,470.0469 1171.7031,469.7969 Q1172.0938,469.6406 1172.5156,469.2031 Q1172.7813,468.9375 1172.9297,468.8594 Q1173.0781,468.7813 1173.2813,468.7813 Q1173.6094,468.7813 1173.8672,469.0391 Q1174.125,469.2969 1174.125,469.6406 Q1174.125,469.9844 1173.7813,470.3906 Q1173.2813,470.9688 1172.4844,471.2969 Q1171.4063,471.75 1170.1094,471.75 Q1168.5938,471.75 1167.3906,471.125 Q1166.4063,470.625 1165.7188,469.5547 Q1165.0313,468.4844 1165.0313,467.2031 L1165.0313,466.0469 Q1165.0313,464.7188 1165.6484,463.5703 Q1166.2656,462.4219 1167.3594,461.8047 Q1168.4531,461.1875 1169.6875,461.1875 Q1170.4219,461.1875 1171.0703,461.3516 Q1171.7188,461.5156 1172.2656,461.875 Z " fill="#000000"/><text fill="#000000" font-family="sans-serif" font-size="12" lengthAdjust="spacing" textLength="26" x="1183.5" y="470.9102">Guid</text><line style="stroke:#A80036;stroke-width:1.5;" x1="1155.5" x2="1211.5" y1="482" y2="482"/><line style="stroke:#A80036;stroke-width:1.5;" x1="1155.5" x2="1211.5" y1="490" y2="490"/><!--MD5=[9df70cf33be424c1b8543b3f439cae89]
class String--><rect fill="#FEFECE" filter="url(#f1xji3gsyr5zm0)" height="48" id="String" style="stroke:#A80036;stroke-width:1.5;" width="64" x="401.5" y="450"/><ellipse cx="416.5" cy="466" fill="#ADD1B2" rx="11" ry="11" style="stroke:#A80036;stroke-width:1.0;"/><path d="M419.2656,461.875 Q419.4219,461.6563 419.6094,461.5469 Q419.7969,461.4375 420.0156,461.4375 Q420.3906,461.4375 420.625,461.6953 Q420.8594,461.9531 420.8594,462.5625 L420.8594,464.0156 Q420.8594,464.625 420.625,464.8906 Q420.3906,465.1563 420.0156,465.1563 Q419.6719,465.1563 419.4688,464.9531 Q419.2656,464.7656 419.1563,464.25 Q419.1094,463.8906 418.9219,463.7031 Q418.5938,463.3281 417.9844,463.1094 Q417.375,462.8906 416.75,462.8906 Q415.9844,462.8906 415.3516,463.2188 Q414.7188,463.5469 414.2266,464.2969 Q413.7344,465.0469 413.7344,466.0781 L413.7344,467.1719 Q413.7344,468.4063 414.625,469.2266 Q415.5156,470.0469 417.1094,470.0469 Q418.0469,470.0469 418.7031,469.7969 Q419.0938,469.6406 419.5156,469.2031 Q419.7813,468.9375 419.9297,468.8594 Q420.0781,468.7813 420.2813,468.7813 Q420.6094,468.7813 420.8672,469.0391 Q421.125,469.2969 421.125,469.6406 Q421.125,469.9844 420.7813,470.3906 Q420.2813,470.9688 419.4844,471.2969 Q418.4063,471.75 417.1094,471.75 Q415.5938,471.75 414.3906,471.125 Q413.4063,470.625 412.7188,469.5547 Q412.0313,468.4844 412.0313,467.2031 L412.0313,466.0469 Q412.0313,464.7188 412.6484,463.5703 Q413.2656,462.4219 414.3594,461.8047 Q415.4531,461.1875 416.6875,461.1875 Q417.4219,461.1875 418.0703,461.3516 Q418.7188,461.5156 419.2656,461.875 Z " fill="#000000"/><text fill="#000000" font-family="sans-serif" font-size="12" lengthAdjust="spacing" textLength="32" x="430.5" y="470.9102">String</text><line style="stroke:#A80036;stroke-width:1.5;" x1="402.5" x2="464.5" y1="482" y2="482"/><line style="stroke:#A80036;stroke-width:1.5;" x1="402.5" x2="464.5" y1="490" y2="490"/><!--MD5=[fe6b2754769bc87cf156126798433078]
class CommandWrapper--><rect codeLine="95" fill="#FEFECE" filter="url(#f1xji3gsyr5zm0)" height="103.3438" id="CommandWrapper" style="stroke:#A80036;stroke-width:1.5;" width="443" x="707" y="7"/><ellipse cx="871.25" cy="23" fill="#ADD1B2" rx="11" ry="11" style="stroke:#A80036;stroke-width:1.0;"/><path d="M874.0156,18.875 Q874.1719,18.6563 874.3594,18.5469 Q874.5469,18.4375 874.7656,18.4375 Q875.1406,18.4375 875.375,18.6953 Q875.6094,18.9531 875.6094,19.5625 L875.6094,21.0156 Q875.6094,21.625 875.375,21.8906 Q875.1406,22.1563 874.7656,22.1563 Q874.4219,22.1563 874.2188,21.9531 Q874.0156,21.7656 873.9063,21.25 Q873.8594,20.8906 873.6719,20.7031 Q873.3438,20.3281 872.7344,20.1094 Q872.125,19.8906 871.5,19.8906 Q870.7344,19.8906 870.1016,20.2188 Q869.4688,20.5469 868.9766,21.2969 Q868.4844,22.0469 868.4844,23.0781 L868.4844,24.1719 Q868.4844,25.4063 869.375,26.2266 Q870.2656,27.0469 871.8594,27.0469 Q872.7969,27.0469 873.4531,26.7969 Q873.8438,26.6406 874.2656,26.2031 Q874.5313,25.9375 874.6797,25.8594 Q874.8281,25.7813 875.0313,25.7813 Q875.3594,25.7813 875.6172,26.0391 Q875.875,26.2969 875.875,26.6406 Q875.875,26.9844 875.5313,27.3906 Q875.0313,27.9688 874.2344,28.2969 Q873.1563,28.75 871.8594,28.75 Q870.3438,28.75 869.1406,28.125 Q868.1563,27.625 867.4688,26.5547 Q866.7813,25.4844 866.7813,24.2031 L866.7813,23.0469 Q866.7813,21.7188 867.3984,20.5703 Q868.0156,19.4219 869.1094,18.8047 Q870.2031,18.1875 871.4375,18.1875 Q872.1719,18.1875 872.8203,18.3516 Q873.4688,18.5156 874.0156,18.875 Z " fill="#000000"/><text fill="#000000" font-family="sans-serif" font-size="12" lengthAdjust="spacing" textLength="106" x="891.75" y="27.9102">CommandWrapper</text><line style="stroke:#A80036;stroke-width:1.5;" x1="708" x2="1149" y1="39" y2="39"/><line style="stroke:#A80036;stroke-width:1.5;" x1="708" x2="1149" y1="47" y2="47"/><ellipse cx="718" cy="58" fill="#84BE84" rx="3" ry="3" style="stroke:#038048;stroke-width:1.0;"/><text fill="#000000" font-family="sans-serif" font-size="11" lengthAdjust="spacing" textLength="183" x="727" y="62.4189">CommandWrapper(dto:CommandDTO)</text><polygon fill="#FFFF44" points="718,66.8359,722,70.8359,718,74.8359,714,70.8359" style="stroke:#B38D22;stroke-width:1.0;"/><text fill="#000000" font-family="sans-serif" font-size="11" lengthAdjust="spacing" textLength="385" x="727" y="76.2549">Get(cmd:CommandDTO, name:string, target:(Func&lt;T&gt; get, Action&lt;T&gt; set)) : void</text><polygon fill="#FFFF44" points="718,80.6719,722,84.6719,718,88.6719,714,84.6719" style="stroke:#B38D22;stroke-width:1.0;"/><text fill="#000000" font-family="sans-serif" font-size="11" lengthAdjust="spacing" textLength="417" x="727" y="90.0908">Get(cmd:CommandDTO, name:string, target:(Func&lt;Guid&gt; get, Action&lt;Guid&gt; set)) : void</text><polygon fill="#FFFF44" points="718,94.5078,722,98.5078,718,102.5078,714,98.5078" style="stroke:#B38D22;stroke-width:1.0;"/><text fill="#000000" font-family="sans-serif" font-size="11" lengthAdjust="spacing" textLength="247" x="727" y="103.9268">Set(cmd:CommandDTO, name:string, value:T) : void</text><!--MD5=[f5d54f60ec6d089d1cb017027d5a65a8]
class CommandDTO--><rect codeLine="103" fill="#FEFECE" filter="url(#f1xji3gsyr5zm0)" height="48" id="CommandDTO" style="stroke:#A80036;stroke-width:1.5;" width="116" x="1005.5" y="342"/><ellipse cx="1020.5" cy="358" fill="#ADD1B2" rx="11" ry="11" style="stroke:#A80036;stroke-width:1.0;"/><path d="M1023.2656,353.875 Q1023.4219,353.6563 1023.6094,353.5469 Q1023.7969,353.4375 1024.0156,353.4375 Q1024.3906,353.4375 1024.625,353.6953 Q1024.8594,353.9531 1024.8594,354.5625 L1024.8594,356.0156 Q1024.8594,356.625 1024.625,356.8906 Q1024.3906,357.1563 1024.0156,357.1563 Q1023.6719,357.1563 1023.4688,356.9531 Q1023.2656,356.7656 1023.1563,356.25 Q1023.1094,355.8906 1022.9219,355.7031 Q1022.5938,355.3281 1021.9844,355.1094 Q1021.375,354.8906 1020.75,354.8906 Q1019.9844,354.8906 1019.3516,355.2188 Q1018.7188,355.5469 1018.2266,356.2969 Q1017.7344,357.0469 1017.7344,358.0781 L1017.7344,359.1719 Q1017.7344,360.4063 1018.625,361.2266 Q1019.5156,362.0469 1021.1094,362.0469 Q1022.0469,362.0469 1022.7031,361.7969 Q1023.0938,361.6406 1023.5156,361.2031 Q1023.7813,360.9375 1023.9297,360.8594 Q1024.0781,360.7813 1024.2813,360.7813 Q1024.6094,360.7813 1024.8672,361.0391 Q1025.125,361.2969 1025.125,361.6406 Q1025.125,361.9844 1024.7813,362.3906 Q1024.2813,362.9688 1023.4844,363.2969 Q1022.4063,363.75 1021.1094,363.75 Q1019.5938,363.75 1018.3906,363.125 Q1017.4063,362.625 1016.7188,361.5547 Q1016.0313,360.4844 1016.0313,359.2031 L1016.0313,358.0469 Q1016.0313,356.7188 1016.6484,355.5703 Q1017.2656,354.4219 1018.3594,353.8047 Q1019.4531,353.1875 1020.6875,353.1875 Q1021.4219,353.1875 1022.0703,353.3516 Q1022.7188,353.5156 1023.2656,353.875 Z " fill="#000000"/><text fill="#000000" font-family="sans-serif" font-size="12" lengthAdjust="spacing" textLength="84" x="1034.5" y="362.9102">CommandDTO</text><line style="stroke:#A80036;stroke-width:1.5;" x1="1006.5" x2="1120.5" y1="374" y2="374"/><line style="stroke:#A80036;stroke-width:1.5;" x1="1006.5" x2="1120.5" y1="382" y2="382"/><!--MD5=[a8c0967d7b66f43265179b07355379df]
class PropertyDTO--><rect codeLine="70" fill="#FEFECE" filter="url(#f1xji3gsyr5zm0)" height="48" id="PropertyDTO" style="stroke:#A80036;stroke-width:1.5;" width="102" x="587.5" y="342"/><ellipse cx="602.5" cy="358" fill="#ADD1B2" rx="11" ry="11" style="stroke:#A80036;stroke-width:1.0;"/><path d="M605.2656,353.875 Q605.4219,353.6563 605.6094,353.5469 Q605.7969,353.4375 606.0156,353.4375 Q606.3906,353.4375 606.625,353.6953 Q606.8594,353.9531 606.8594,354.5625 L606.8594,356.0156 Q606.8594,356.625 606.625,356.8906 Q606.3906,357.1563 606.0156,357.1563 Q605.6719,357.1563 605.4688,356.9531 Q605.2656,356.7656 605.1563,356.25 Q605.1094,355.8906 604.9219,355.7031 Q604.5938,355.3281 603.9844,355.1094 Q603.375,354.8906 602.75,354.8906 Q601.9844,354.8906 601.3516,355.2188 Q600.7188,355.5469 600.2266,356.2969 Q599.7344,357.0469 599.7344,358.0781 L599.7344,359.1719 Q599.7344,360.4063 600.625,361.2266 Q601.5156,362.0469 603.1094,362.0469 Q604.0469,362.0469 604.7031,361.7969 Q605.0938,361.6406 605.5156,361.2031 Q605.7813,360.9375 605.9297,360.8594 Q606.0781,360.7813 606.2813,360.7813 Q606.6094,360.7813 606.8672,361.0391 Q607.125,361.2969 607.125,361.6406 Q607.125,361.9844 606.7813,362.3906 Q606.2813,362.9688 605.4844,363.2969 Q604.4063,363.75 603.1094,363.75 Q601.5938,363.75 600.3906,363.125 Q599.4063,362.625 598.7188,361.5547 Q598.0313,360.4844 598.0313,359.2031 L598.0313,358.0469 Q598.0313,356.7188 598.6484,355.5703 Q599.2656,354.4219 600.3594,353.8047 Q601.4531,353.1875 602.6875,353.1875 Q603.4219,353.1875 604.0703,353.3516 Q604.7188,353.5156 605.2656,353.875 Z " fill="#000000"/><text fill="#000000" font-family="sans-serif" font-size="12" lengthAdjust="spacing" textLength="70" x="616.5" y="362.9102">PropertyDTO</text><line style="stroke:#A80036;stroke-width:1.5;" x1="588.5" x2="688.5" y1="374" y2="374"/><line style="stroke:#A80036;stroke-width:1.5;" x1="588.5" x2="688.5" y1="382" y2="382"/><!--MD5=[a86c46b503d2a734898010b41f2fcc93]
class ObjectDTO--><rect codeLine="72" fill="#FEFECE" filter="url(#f1xji3gsyr5zm0)" height="48" id="ObjectDTO" style="stroke:#A80036;stroke-width:1.5;" width="92" x="1774.5" y="342"/><ellipse cx="1789.5" cy="358" fill="#ADD1B2" rx="11" ry="11" style="stroke:#A80036;stroke-width:1.0;"/><path d="M1792.2656,353.875 Q1792.4219,353.6563 1792.6094,353.5469 Q1792.7969,353.4375 1793.0156,353.4375 Q1793.3906,353.4375 1793.625,353.6953 Q1793.8594,353.9531 1793.8594,354.5625 L1793.8594,356.0156 Q1793.8594,356.625 1793.625,356.8906 Q1793.3906,357.1563 1793.0156,357.1563 Q1792.6719,357.1563 1792.4688,356.9531 Q1792.2656,356.7656 1792.1563,356.25 Q1792.1094,355.8906 1791.9219,355.7031 Q1791.5938,355.3281 1790.9844,355.1094 Q1790.375,354.8906 1789.75,354.8906 Q1788.9844,354.8906 1788.3516,355.2188 Q1787.7188,355.5469 1787.2266,356.2969 Q1786.7344,357.0469 1786.7344,358.0781 L1786.7344,359.1719 Q1786.7344,360.4063 1787.625,361.2266 Q1788.5156,362.0469 1790.1094,362.0469 Q1791.0469,362.0469 1791.7031,361.7969 Q1792.0938,361.6406 1792.5156,361.2031 Q1792.7813,360.9375 1792.9297,360.8594 Q1793.0781,360.7813 1793.2813,360.7813 Q1793.6094,360.7813 1793.8672,361.0391 Q1794.125,361.2969 1794.125,361.6406 Q1794.125,361.9844 1793.7813,362.3906 Q1793.2813,362.9688 1792.4844,363.2969 Q1791.4063,363.75 1790.1094,363.75 Q1788.5938,363.75 1787.3906,363.125 Q1786.4063,362.625 1785.7188,361.5547 Q1785.0313,360.4844 1785.0313,359.2031 L1785.0313,358.0469 Q1785.0313,356.7188 1785.6484,355.5703 Q1786.2656,354.4219 1787.3594,353.8047 Q1788.4531,353.1875 1789.6875,353.1875 Q1790.4219,353.1875 1791.0703,353.3516 Q1791.7188,353.5156 1792.2656,353.875 Z " fill="#000000"/><text fill="#000000" font-family="sans-serif" font-size="12" lengthAdjust="spacing" textLength="60" x="1803.5" y="362.9102">ObjectDTO</text><line style="stroke:#A80036;stroke-width:1.5;" x1="1775.5" x2="1865.5" y1="374" y2="374"/><line style="stroke:#A80036;stroke-width:1.5;" x1="1775.5" x2="1865.5" y1="382" y2="382"/><!--MD5=[ab65f1b894babecd782f1df810423109]
class TypeDTO--><rect codeLine="74" fill="#FEFECE" filter="url(#f1xji3gsyr5zm0)" height="48" id="TypeDTO" style="stroke:#A80036;stroke-width:1.5;" width="83" x="1375" y="342"/><ellipse cx="1390" cy="358" fill="#ADD1B2" rx="11" ry="11" style="stroke:#A80036;stroke-width:1.0;"/><path d="M1392.7656,353.875 Q1392.9219,353.6563 1393.1094,353.5469 Q1393.2969,353.4375 1393.5156,353.4375 Q1393.8906,353.4375 1394.125,353.6953 Q1394.3594,353.9531 1394.3594,354.5625 L1394.3594,356.0156 Q1394.3594,356.625 1394.125,356.8906 Q1393.8906,357.1563 1393.5156,357.1563 Q1393.1719,357.1563 1392.9688,356.9531 Q1392.7656,356.7656 1392.6563,356.25 Q1392.6094,355.8906 1392.4219,355.7031 Q1392.0938,355.3281 1391.4844,355.1094 Q1390.875,354.8906 1390.25,354.8906 Q1389.4844,354.8906 1388.8516,355.2188 Q1388.2188,355.5469 1387.7266,356.2969 Q1387.2344,357.0469 1387.2344,358.0781 L1387.2344,359.1719 Q1387.2344,360.4063 1388.125,361.2266 Q1389.0156,362.0469 1390.6094,362.0469 Q1391.5469,362.0469 1392.2031,361.7969 Q1392.5938,361.6406 1393.0156,361.2031 Q1393.2813,360.9375 1393.4297,360.8594 Q1393.5781,360.7813 1393.7813,360.7813 Q1394.1094,360.7813 1394.3672,361.0391 Q1394.625,361.2969 1394.625,361.6406 Q1394.625,361.9844 1394.2813,362.3906 Q1393.7813,362.9688 1392.9844,363.2969 Q1391.9063,363.75 1390.6094,363.75 Q1389.0938,363.75 1387.8906,363.125 Q1386.9063,362.625 1386.2188,361.5547 Q1385.5313,360.4844 1385.5313,359.2031 L1385.5313,358.0469 Q1385.5313,356.7188 1386.1484,355.5703 Q1386.7656,354.4219 1387.8594,353.8047 Q1388.9531,353.1875 1390.1875,353.1875 Q1390.9219,353.1875 1391.5703,353.3516 Q1392.2188,353.5156 1392.7656,353.875 Z " fill="#000000"/><text fill="#000000" font-family="sans-serif" font-size="12" lengthAdjust="spacing" textLength="51" x="1404" y="362.9102">TypeDTO</text><line style="stroke:#A80036;stroke-width:1.5;" x1="1376" x2="1457" y1="374" y2="374"/><line style="stroke:#A80036;stroke-width:1.5;" x1="1376" x2="1457" y1="382" y2="382"/><!--MD5=[c1f063b1d619a33d7306ce784b596c98]
class BaseTypesDispatcher--><rect codeLine="76" fill="#FEFECE" filter="url(#f1xji3gsyr5zm0)" height="70.0234" id="BaseTypesDispatcher" style="stroke:#A80036;stroke-width:1.5;" width="239" x="2719" y="23.5"/><ellipse cx="2773.25" cy="43.5938" fill="#ADD1B2" rx="11" ry="11" style="stroke:#A80036;stroke-width:1.0;"/><path d="M2776.0156,39.4688 Q2776.1719,39.25 2776.3594,39.1406 Q2776.5469,39.0313 2776.7656,39.0313 Q2777.1406,39.0313 2777.375,39.2891 Q2777.6094,39.5469 2777.6094,40.1563 L2777.6094,41.6094 Q2777.6094,42.2188 2777.375,42.4844 Q2777.1406,42.75 2776.7656,42.75 Q2776.4219,42.75 2776.2188,42.5469 Q2776.0156,42.3594 2775.9063,41.8438 Q2775.8594,41.4844 2775.6719,41.2969 Q2775.3438,40.9219 2774.7344,40.7031 Q2774.125,40.4844 2773.5,40.4844 Q2772.7344,40.4844 2772.1016,40.8125 Q2771.4688,41.1406 2770.9766,41.8906 Q2770.4844,42.6406 2770.4844,43.6719 L2770.4844,44.7656 Q2770.4844,46 2771.375,46.8203 Q2772.2656,47.6406 2773.8594,47.6406 Q2774.7969,47.6406 2775.4531,47.3906 Q2775.8438,47.2344 2776.2656,46.7969 Q2776.5313,46.5313 2776.6797,46.4531 Q2776.8281,46.375 2777.0313,46.375 Q2777.3594,46.375 2777.6172,46.6328 Q2777.875,46.8906 2777.875,47.2344 Q2777.875,47.5781 2777.5313,47.9844 Q2777.0313,48.5625 2776.2344,48.8906 Q2775.1563,49.3438 2773.8594,49.3438 Q2772.3438,49.3438 2771.1406,48.7188 Q2770.1563,48.2188 2769.4688,47.1484 Q2768.7813,46.0781 2768.7813,44.7969 L2768.7813,43.6406 Q2768.7813,42.3125 2769.3984,41.1641 Q2770.0156,40.0156 2771.1094,39.3984 Q2772.2031,38.7813 2773.4375,38.7813 Q2774.1719,38.7813 2774.8203,38.9453 Q2775.4688,39.1094 2776.0156,39.4688 Z " fill="#000000"/><text fill="#000000" font-family="sans-serif" font-size="12" font-style="italic" lengthAdjust="spacing" textLength="42" x="2833.75" y="40.957">«static»</text><text fill="#000000" font-family="sans-serif" font-size="12" lengthAdjust="spacing" textLength="122" x="2793.75" y="56.0508">BaseTypesDispatcher</text><line style="stroke:#A80036;stroke-width:1.5;" x1="2720" x2="2957" y1="63.6875" y2="63.6875"/><line style="stroke:#A80036;stroke-width:1.5;" x1="2720" x2="2957" y1="71.6875" y2="71.6875"/><ellipse cx="2730" cy="82.6875" fill="#84BE84" rx="3" ry="3" style="stroke:#038048;stroke-width:1.0;"/><text fill="#000000" font-family="sans-serif" font-size="11" lengthAdjust="spacing" text-decoration="underline" textLength="213" x="2739" y="87.1064">Dispatch(dto:CommandDTO) : CommandDTO</text><!--MD5=[2e5eef0b4d63f4248e617bf3425bfdf1]
class ObjectWrapper--><rect codeLine="92" fill="#FEFECE" filter="url(#f1xji3gsyr5zm0)" height="61.8359" id="ObjectWrapper" style="stroke:#A80036;stroke-width:1.5;" width="177" x="2233" y="195"/><ellipse cx="2276.35" cy="211" fill="#ADD1B2" rx="11" ry="11" style="stroke:#A80036;stroke-width:1.0;"/><path d="M2279.1156,206.875 Q2279.2719,206.6563 2279.4594,206.5469 Q2279.6469,206.4375 2279.8656,206.4375 Q2280.2406,206.4375 2280.475,206.6953 Q2280.7094,206.9531 2280.7094,207.5625 L2280.7094,209.0156 Q2280.7094,209.625 2280.475,209.8906 Q2280.2406,210.1563 2279.8656,210.1563 Q2279.5219,210.1563 2279.3188,209.9531 Q2279.1156,209.7656 2279.0063,209.25 Q2278.9594,208.8906 2278.7719,208.7031 Q2278.4438,208.3281 2277.8344,208.1094 Q2277.225,207.8906 2276.6,207.8906 Q2275.8344,207.8906 2275.2016,208.2188 Q2274.5688,208.5469 2274.0766,209.2969 Q2273.5844,210.0469 2273.5844,211.0781 L2273.5844,212.1719 Q2273.5844,213.4063 2274.475,214.2266 Q2275.3656,215.0469 2276.9594,215.0469 Q2277.8969,215.0469 2278.5531,214.7969 Q2278.9438,214.6406 2279.3656,214.2031 Q2279.6313,213.9375 2279.7797,213.8594 Q2279.9281,213.7813 2280.1313,213.7813 Q2280.4594,213.7813 2280.7172,214.0391 Q2280.975,214.2969 2280.975,214.6406 Q2280.975,214.9844 2280.6313,215.3906 Q2280.1313,215.9688 2279.3344,216.2969 Q2278.2563,216.75 2276.9594,216.75 Q2275.4438,216.75 2274.2406,216.125 Q2273.2563,215.625 2272.5688,214.5547 Q2271.8813,213.4844 2271.8813,212.2031 L2271.8813,211.0469 Q2271.8813,209.7188 2272.4984,208.5703 Q2273.1156,207.4219 2274.2094,206.8047 Q2275.3031,206.1875 2276.5375,206.1875 Q2277.2719,206.1875 2277.9203,206.3516 Q2278.5688,206.5156 2279.1156,206.875 Z " fill="#000000"/><text fill="#000000" font-family="sans-serif" font-size="12" lengthAdjust="spacing" textLength="82" x="2296.65" y="215.9102">ObjectWrapper</text><line style="stroke:#A80036;stroke-width:1.5;" x1="2234" x2="2409" y1="227" y2="227"/><line style="stroke:#A80036;stroke-width:1.5;" x1="2234" x2="2409" y1="235" y2="235"/><ellipse cx="2244" cy="246" fill="#84BE84" rx="3" ry="3" style="stroke:#038048;stroke-width:1.0;"/><text fill="#000000" font-family="sans-serif" font-size="11" lengthAdjust="spacing" textLength="151" x="2253" y="250.4189">ObjectWrapper(dto:ObjectDTO)</text><!--MD5=[2f720059ec7752b7edd24ab483589f66]
class SampleCommandWrapper--><rect codeLine="105" fill="#FEFECE" filter="url(#f1xji3gsyr5zm0)" height="111.5313" id="SampleCommandWrapper" style="stroke:#A80036;stroke-width:1.5;" width="283" x="689" y="170"/><ellipse cx="751.75" cy="190.0938" fill="#ADD1B2" rx="11" ry="11" style="stroke:#A80036;stroke-width:1.0;"/><path d="M754.5156,185.9688 Q754.6719,185.75 754.8594,185.6406 Q755.0469,185.5313 755.2656,185.5313 Q755.6406,185.5313 755.875,185.7891 Q756.1094,186.0469 756.1094,186.6563 L756.1094,188.1094 Q756.1094,188.7188 755.875,188.9844 Q755.6406,189.25 755.2656,189.25 Q754.9219,189.25 754.7188,189.0469 Q754.5156,188.8594 754.4063,188.3438 Q754.3594,187.9844 754.1719,187.7969 Q753.8438,187.4219 753.2344,187.2031 Q752.625,186.9844 752,186.9844 Q751.2344,186.9844 750.6016,187.3125 Q749.9688,187.6406 749.4766,188.3906 Q748.9844,189.1406 748.9844,190.1719 L748.9844,191.2656 Q748.9844,192.5 749.875,193.3203 Q750.7656,194.1406 752.3594,194.1406 Q753.2969,194.1406 753.9531,193.8906 Q754.3438,193.7344 754.7656,193.2969 Q755.0313,193.0313 755.1797,192.9531 Q755.3281,192.875 755.5313,192.875 Q755.8594,192.875 756.1172,193.1328 Q756.375,193.3906 756.375,193.7344 Q756.375,194.0781 756.0313,194.4844 Q755.5313,195.0625 754.7344,195.3906 Q753.6563,195.8438 752.3594,195.8438 Q750.8438,195.8438 749.6406,195.2188 Q748.6563,194.7188 747.9688,193.6484 Q747.2813,192.5781 747.2813,191.2969 L747.2813,190.1406 Q747.2813,188.8125 747.8984,187.6641 Q748.5156,186.5156 749.6094,185.8984 Q750.7031,185.2813 751.9375,185.2813 Q752.6719,185.2813 753.3203,185.4453 Q753.9688,185.6094 754.5156,185.9688 Z " fill="#000000"/><text fill="#000000" font-family="sans-serif" font-size="12" font-style="italic" lengthAdjust="spacing" textLength="48" x="822.75" y="187.457">«partial»</text><text fill="#000000" font-family="sans-serif" font-size="12" lengthAdjust="spacing" textLength="149" x="772.25" y="202.5508">SampleCommandWrapper</text><line style="stroke:#A80036;stroke-width:1.5;" x1="690" x2="971" y1="210.1875" y2="210.1875"/><line style="stroke:#A80036;stroke-width:1.5;" x1="690" x2="971" y1="218.1875" y2="218.1875"/><ellipse cx="700" cy="229.1875" fill="#84BE84" rx="3" ry="3" style="stroke:#038048;stroke-width:1.0;"/><text fill="#000000" font-family="sans-serif" font-size="11" lengthAdjust="spacing" textLength="218" x="709" y="233.6064">SampleCommandWrapper(dto:CommandDTO)</text><ellipse cx="700" cy="243.0234" fill="#84BE84" rx="3" ry="3" style="stroke:#038048;stroke-width:1.0;"/><text fill="#000000" font-family="sans-serif" font-size="11" lengthAdjust="spacing" text-decoration="underline" textLength="161" x="709" y="247.4424">IsForMe(dto:CommandDTO) : bool</text><ellipse cx="700" cy="256.8594" fill="#84BE84" rx="3" ry="3" style="stroke:#038048;stroke-width:1.0;"/><text fill="#000000" font-family="sans-serif" font-size="11" lengthAdjust="spacing" text-decoration="underline" textLength="257" x="709" y="261.2783">ExecuteCommand(dto:CommandDTO) : CommandDTO</text><ellipse cx="700" cy="270.6953" fill="#84BE84" rx="3" ry="3" style="stroke:#038048;stroke-width:1.0;"/><text fill="#000000" font-family="sans-serif" font-size="11" lengthAdjust="spacing" textLength="215" x="709" y="275.1143">«partial» ExecuteCommand() : CommandDTO</text><!--MD5=[ba03fc88c0e35b013a46564b4a2ab72f]
class CommandTypesDispatcher--><rect codeLine="111" fill="#FEFECE" filter="url(#f1xji3gsyr5zm0)" height="70.0234" id="CommandTypesDispatcher" style="stroke:#A80036;stroke-width:1.5;" width="239" x="2445" y="191"/><ellipse cx="2484.75" cy="211.0938" fill="#ADD1B2" rx="11" ry="11" style="stroke:#A80036;stroke-width:1.0;"/><path d="M2487.5156,206.9688 Q2487.6719,206.75 2487.8594,206.6406 Q2488.0469,206.5313 2488.2656,206.5313 Q2488.6406,206.5313 2488.875,206.7891 Q2489.1094,207.0469 2489.1094,207.6563 L2489.1094,209.1094 Q2489.1094,209.7188 2488.875,209.9844 Q2488.6406,210.25 2488.2656,210.25 Q2487.9219,210.25 2487.7188,210.0469 Q2487.5156,209.8594 2487.4063,209.3438 Q2487.3594,208.9844 2487.1719,208.7969 Q2486.8438,208.4219 2486.2344,208.2031 Q2485.625,207.9844 2485,207.9844 Q2484.2344,207.9844 2483.6016,208.3125 Q2482.9688,208.6406 2482.4766,209.3906 Q2481.9844,210.1406 2481.9844,211.1719 L2481.9844,212.2656 Q2481.9844,213.5 2482.875,214.3203 Q2483.7656,215.1406 2485.3594,215.1406 Q2486.2969,215.1406 2486.9531,214.8906 Q2487.3438,214.7344 2487.7656,214.2969 Q2488.0313,214.0313 2488.1797,213.9531 Q2488.3281,213.875 2488.5313,213.875 Q2488.8594,213.875 2489.1172,214.1328 Q2489.375,214.3906 2489.375,214.7344 Q2489.375,215.0781 2489.0313,215.4844 Q2488.5313,216.0625 2487.7344,216.3906 Q2486.6563,216.8438 2485.3594,216.8438 Q2483.8438,216.8438 2482.6406,216.2188 Q2481.6563,215.7188 2480.9688,214.6484 Q2480.2813,213.5781 2480.2813,212.2969 L2480.2813,211.1406 Q2480.2813,209.8125 2480.8984,208.6641 Q2481.5156,207.5156 2482.6094,206.8984 Q2483.7031,206.2813 2484.9375,206.2813 Q2485.6719,206.2813 2486.3203,206.4453 Q2486.9688,206.6094 2487.5156,206.9688 Z " fill="#000000"/><text fill="#000000" font-family="sans-serif" font-size="12" font-style="italic" lengthAdjust="spacing" textLength="42" x="2559.25" y="208.457">«static»</text><text fill="#000000" font-family="sans-serif" font-size="12" lengthAdjust="spacing" textLength="152" x="2504.25" y="223.5508">CommandTypesDispatcher</text><line style="stroke:#A80036;stroke-width:1.5;" x1="2446" x2="2683" y1="231.1875" y2="231.1875"/><line style="stroke:#A80036;stroke-width:1.5;" x1="2446" x2="2683" y1="239.1875" y2="239.1875"/><ellipse cx="2456" cy="250.1875" fill="#84BE84" rx="3" ry="3" style="stroke:#038048;stroke-width:1.0;"/><text fill="#000000" font-family="sans-serif" font-size="11" lengthAdjust="spacing" text-decoration="underline" textLength="213" x="2465" y="254.6064">Dispatch(dto:CommandDTO) : CommandDTO</text><!--MD5=[31d9d567a1d652152733c83e75189006]
class Boolean--><rect fill="#FEFECE" filter="url(#f1xji3gsyr5zm0)" height="48" id="Boolean" style="stroke:#A80036;stroke-width:1.5;" width="78" x="1156.5" y="342"/><ellipse cx="1171.5" cy="358" fill="#ADD1B2" rx="11" ry="11" style="stroke:#A80036;stroke-width:1.0;"/><path d="M1174.2656,353.875 Q1174.4219,353.6563 1174.6094,353.5469 Q1174.7969,353.4375 1175.0156,353.4375 Q1175.3906,353.4375 1175.625,353.6953 Q1175.8594,353.9531 1175.8594,354.5625 L1175.8594,356.0156 Q1175.8594,356.625 1175.625,356.8906 Q1175.3906,357.1563 1175.0156,357.1563 Q1174.6719,357.1563 1174.4688,356.9531 Q1174.2656,356.7656 1174.1563,356.25 Q1174.1094,355.8906 1173.9219,355.7031 Q1173.5938,355.3281 1172.9844,355.1094 Q1172.375,354.8906 1171.75,354.8906 Q1170.9844,354.8906 1170.3516,355.2188 Q1169.7188,355.5469 1169.2266,356.2969 Q1168.7344,357.0469 1168.7344,358.0781 L1168.7344,359.1719 Q1168.7344,360.4063 1169.625,361.2266 Q1170.5156,362.0469 1172.1094,362.0469 Q1173.0469,362.0469 1173.7031,361.7969 Q1174.0938,361.6406 1174.5156,361.2031 Q1174.7813,360.9375 1174.9297,360.8594 Q1175.0781,360.7813 1175.2813,360.7813 Q1175.6094,360.7813 1175.8672,361.0391 Q1176.125,361.2969 1176.125,361.6406 Q1176.125,361.9844 1175.7813,362.3906 Q1175.2813,362.9688 1174.4844,363.2969 Q1173.4063,363.75 1172.1094,363.75 Q1170.5938,363.75 1169.3906,363.125 Q1168.4063,362.625 1167.7188,361.5547 Q1167.0313,360.4844 1167.0313,359.2031 L1167.0313,358.0469 Q1167.0313,356.7188 1167.6484,355.5703 Q1168.2656,354.4219 1169.3594,353.8047 Q1170.4531,353.1875 1171.6875,353.1875 Q1172.4219,353.1875 1173.0703,353.3516 Q1173.7188,353.5156 1174.2656,353.875 Z " fill="#000000"/><text fill="#000000" font-family="sans-serif" font-size="12" lengthAdjust="spacing" textLength="46" x="1185.5" y="362.9102">Boolean</text><line style="stroke:#A80036;stroke-width:1.5;" x1="1157.5" x2="1233.5" y1="374" y2="374"/><line style="stroke:#A80036;stroke-width:1.5;" x1="1157.5" x2="1233.5" y1="382" y2="382"/><!--MD5=[ac77ca89eaf889a9982f78fc59015e29]
class WeatherForecast--><rect codeLine="125" fill="#FEFECE" filter="url(#f1xji3gsyr5zm0)" height="89.5078" id="WeatherForecast" style="stroke:#A80036;stroke-width:1.5;" width="174" x="2993.5" y="13.5"/><ellipse cx="3030.1" cy="29.5" fill="#ADD1B2" rx="11" ry="11" style="stroke:#A80036;stroke-width:1.0;"/><path d="M3032.8656,25.375 Q3033.0219,25.1563 3033.2094,25.0469 Q3033.3969,24.9375 3033.6156,24.9375 Q3033.9906,24.9375 3034.225,25.1953 Q3034.4594,25.4531 3034.4594,26.0625 L3034.4594,27.5156 Q3034.4594,28.125 3034.225,28.3906 Q3033.9906,28.6563 3033.6156,28.6563 Q3033.2719,28.6563 3033.0688,28.4531 Q3032.8656,28.2656 3032.7563,27.75 Q3032.7094,27.3906 3032.5219,27.2031 Q3032.1938,26.8281 3031.5844,26.6094 Q3030.975,26.3906 3030.35,26.3906 Q3029.5844,26.3906 3028.9516,26.7188 Q3028.3188,27.0469 3027.8266,27.7969 Q3027.3344,28.5469 3027.3344,29.5781 L3027.3344,30.6719 Q3027.3344,31.9063 3028.225,32.7266 Q3029.1156,33.5469 3030.7094,33.5469 Q3031.6469,33.5469 3032.3031,33.2969 Q3032.6938,33.1406 3033.1156,32.7031 Q3033.3813,32.4375 3033.5297,32.3594 Q3033.6781,32.2813 3033.8813,32.2813 Q3034.2094,32.2813 3034.4672,32.5391 Q3034.725,32.7969 3034.725,33.1406 Q3034.725,33.4844 3034.3813,33.8906 Q3033.8813,34.4688 3033.0844,34.7969 Q3032.0063,35.25 3030.7094,35.25 Q3029.1938,35.25 3027.9906,34.625 Q3027.0063,34.125 3026.3188,33.0547 Q3025.6313,31.9844 3025.6313,30.7031 L3025.6313,29.5469 Q3025.6313,28.2188 3026.2484,27.0703 Q3026.8656,25.9219 3027.9594,25.3047 Q3029.0531,24.6875 3030.2875,24.6875 Q3031.0219,24.6875 3031.6703,24.8516 Q3032.3188,25.0156 3032.8656,25.375 Z " fill="#000000"/><text fill="#000000" font-family="sans-serif" font-size="12" lengthAdjust="spacing" textLength="94" x="3048.9" y="34.4102">WeatherForecast</text><line style="stroke:#A80036;stroke-width:1.5;" x1="2994.5" x2="3166.5" y1="45.5" y2="45.5"/><ellipse cx="3004.5" cy="56.5" rx="3" ry="3" style="stroke:#038048;stroke-width:1.0;fill:none;"/><text fill="#000000" font-family="sans-serif" font-size="11" lengthAdjust="spacing" textLength="148" x="3013.5" y="60.9189">TemperatureC : int «get» «set»</text><ellipse cx="3004.5" cy="70.3359" rx="3" ry="3" style="stroke:#038048;stroke-width:1.0;fill:none;"/><text fill="#000000" font-family="sans-serif" font-size="11" lengthAdjust="spacing" textLength="117" x="3013.5" y="74.7549">TemperatureF : int «get»</text><ellipse cx="3004.5" cy="84.1719" rx="3" ry="3" style="stroke:#038048;stroke-width:1.0;fill:none;"/><text fill="#000000" font-family="sans-serif" font-size="11" lengthAdjust="spacing" textLength="141" x="3013.5" y="88.5908">Summary : string «get» «set»</text><line style="stroke:#A80036;stroke-width:1.5;" x1="2994.5" x2="3166.5" y1="95.0078" y2="95.0078"/><!--MD5=[20ddef7090025b04fb973268620c0974]
class DateTime--><rect fill="#FEFECE" filter="url(#f1xji3gsyr5zm0)" height="48" id="DateTime" style="stroke:#A80036;stroke-width:1.5;" width="86" x="3037.5" y="202"/><ellipse cx="3052.5" cy="218" fill="#ADD1B2" rx="11" ry="11" style="stroke:#A80036;stroke-width:1.0;"/><path d="M3055.2656,213.875 Q3055.4219,213.6563 3055.6094,213.5469 Q3055.7969,213.4375 3056.0156,213.4375 Q3056.3906,213.4375 3056.625,213.6953 Q3056.8594,213.9531 3056.8594,214.5625 L3056.8594,216.0156 Q3056.8594,216.625 3056.625,216.8906 Q3056.3906,217.1563 3056.0156,217.1563 Q3055.6719,217.1563 3055.4688,216.9531 Q3055.2656,216.7656 3055.1563,216.25 Q3055.1094,215.8906 3054.9219,215.7031 Q3054.5938,215.3281 3053.9844,215.1094 Q3053.375,214.8906 3052.75,214.8906 Q3051.9844,214.8906 3051.3516,215.2188 Q3050.7188,215.5469 3050.2266,216.2969 Q3049.7344,217.0469 3049.7344,218.0781 L3049.7344,219.1719 Q3049.7344,220.4063 3050.625,221.2266 Q3051.5156,222.0469 3053.1094,222.0469 Q3054.0469,222.0469 3054.7031,221.7969 Q3055.0938,221.6406 3055.5156,221.2031 Q3055.7813,220.9375 3055.9297,220.8594 Q3056.0781,220.7813 3056.2813,220.7813 Q3056.6094,220.7813 3056.8672,221.0391 Q3057.125,221.2969 3057.125,221.6406 Q3057.125,221.9844 3056.7813,222.3906 Q3056.2813,222.9688 3055.4844,223.2969 Q3054.4063,223.75 3053.1094,223.75 Q3051.5938,223.75 3050.3906,223.125 Q3049.4063,222.625 3048.7188,221.5547 Q3048.0313,220.4844 3048.0313,219.2031 L3048.0313,218.0469 Q3048.0313,216.7188 3048.6484,215.5703 Q3049.2656,214.4219 3050.3594,213.8047 Q3051.4531,213.1875 3052.6875,213.1875 Q3053.4219,213.1875 3054.0703,213.3516 Q3054.7188,213.5156 3055.2656,213.875 Z " fill="#000000"/><text fill="#000000" font-family="sans-serif" font-size="12" lengthAdjust="spacing" textLength="54" x="3066.5" y="222.9102">DateTime</text><line style="stroke:#A80036;stroke-width:1.5;" x1="3038.5" x2="3122.5" y1="234" y2="234"/><line style="stroke:#A80036;stroke-width:1.5;" x1="3038.5" x2="3122.5" y1="242" y2="242"/><!--MD5=[78563b2dced031dcc99154e54e28d438]
reverse link BaseDTO to AdressDTO--><path codeLine="32" d="M1376.89,282.2 C1019.11,334.96 921.38,299.31 569.5,342 C540.26,345.55 507.72,351 481.81,355.7 " fill="none" id="BaseDTO-backto-AdressDTO" style="stroke:#A80036;stroke-width:1.0;"/><polygon fill="none" points="1376.09,275.24,1396.9,279.19,1378.16,289.08,1376.09,275.24" style="stroke:#A80036;stroke-width:1.0;"/><!--MD5=[fbaf78f1916dfdbf30330f0660ca3284]
link AdressDTO to Guid--><path codeLine="33" d="M481.59,375.53 C507.58,380.04 540.26,385.55 569.5,390 C789.98,423.54 1056.06,457.19 1149.27,468.78 " fill="none" id="AdressDTO-to-Guid" style="stroke:#A80036;stroke-width:1.0;"/><polygon fill="#A80036" points="1154.37,469.41,1145.9302,464.3336,1149.408,468.7951,1144.9464,472.2728,1154.37,469.41" style="stroke:#A80036;stroke-width:1.0;"/><text fill="#000000" font-family="sans-serif" font-size="13" lengthAdjust="spacing" textLength="38" x="1108.3985" y="464.849">TypeId</text><!--MD5=[b2555b513fccde1a3f7f8fb3f3fcdb23]
link AdressDTO to String--><path codeLine="34" d="M385.13,376.97 C341.13,398.93 344.92,450.86 396.5,467.66 " fill="none" id="AdressDTO-to-String" style="stroke:#A80036;stroke-width:1.0;"/><polygon fill="#A80036" points="401.3,469.08,393.8149,462.6789,396.5077,467.6537,391.5329,470.3465,401.3,469.08" style="stroke:#A80036;stroke-width:1.0;"/><text fill="#000000" font-family="sans-serif" font-size="13" lengthAdjust="spacing" textLength="41" x="352.5597" y="464.7033">Name1</text><!--MD5=[b2555b513fccde1a3f7f8fb3f3fcdb23]
link AdressDTO to String--><path codeLine="35" d="M389.33,390 C375.98,411.35 378.67,442.38 397.42,459.82 " fill="none" id="AdressDTO-to-String-1" style="stroke:#A80036;stroke-width:1.0;"/><polygon fill="#A80036" points="401.38,463.12,397.0235,454.287,397.5377,459.9205,391.9043,460.4347,401.38,463.12" style="stroke:#A80036;stroke-width:1.0;"/><text fill="#000000" font-family="sans-serif" font-size="13" lengthAdjust="spacing" textLength="41" x="352.6514" y="476.2179">Name2</text><!--MD5=[b2555b513fccde1a3f7f8fb3f3fcdb23]
link AdressDTO to String--><path codeLine="36" d="M411.42,390 C406.41,406 405.92,427.45 409.93,444.53 " fill="none" id="AdressDTO-to-String-2" style="stroke:#A80036;stroke-width:1.0;"/><polygon fill="#A80036" points="411.32,449.68,412.8355,439.9484,410.0165,444.8529,405.1121,442.034,411.32,449.68" style="stroke:#A80036;stroke-width:1.0;"/><text fill="#000000" font-family="sans-serif" font-size="13" lengthAdjust="spacing" textLength="48" x="352.0636" y="439.34">Adress1</text><!--MD5=[b2555b513fccde1a3f7f8fb3f3fcdb23]
link AdressDTO to String--><path codeLine="37" d="M433.5,390 C433.5,406 433.5,427.45 433.5,444.53 " fill="none" id="AdressDTO-to-String-3" style="stroke:#A80036;stroke-width:1.0;"/><polygon fill="#A80036" points="433.5,449.68,437.5,440.68,433.5,444.68,429.5,440.68,433.5,449.68" style="stroke:#A80036;stroke-width:1.0;"/><text fill="#000000" font-family="sans-serif" font-size="13" lengthAdjust="spacing" textLength="48" x="439.35" y="439.34">Adress2</text><!--MD5=[b2555b513fccde1a3f7f8fb3f3fcdb23]
link AdressDTO to String--><path codeLine="38" d="M455.58,390 C460.59,406 461.08,427.45 457.07,444.53 " fill="none" id="AdressDTO-to-String-4" style="stroke:#A80036;stroke-width:1.0;"/><polygon fill="#A80036" points="455.68,449.68,461.8879,442.034,456.9835,444.8529,454.1645,439.9484,455.68,449.68" style="stroke:#A80036;stroke-width:1.0;"/><text fill="#000000" font-family="sans-serif" font-size="13" lengthAdjust="spacing" textLength="80" x="473.1681" y="458.6346">Housenumber</text><!--MD5=[b2555b513fccde1a3f7f8fb3f3fcdb23]
link AdressDTO to String--><path codeLine="39" d="M477.67,390 C491.02,411.35 488.33,442.38 469.58,459.82 " fill="none" id="AdressDTO-to-String-5" style="stroke:#A80036;stroke-width:1.0;"/><polygon fill="#A80036" points="465.62,463.12,475.0957,460.4347,469.4623,459.9205,469.9765,454.287,465.62,463.12" style="stroke:#A80036;stroke-width:1.0;"/><text fill="#000000" font-family="sans-serif" font-size="13" lengthAdjust="spacing" textLength="23" x="473.3898" y="476.1334">City</text><!--MD5=[b2555b513fccde1a3f7f8fb3f3fcdb23]
link AdressDTO to String--><path codeLine="40" d="M481.87,376.97 C525.87,398.93 522.08,450.86 470.5,467.66 " fill="none" id="AdressDTO-to-String-6" style="stroke:#A80036;stroke-width:1.0;"/><polygon fill="#A80036" points="465.7,469.08,475.4671,470.3465,470.4923,467.6537,473.1851,462.6789,465.7,469.08" style="stroke:#A80036;stroke-width:1.0;"/><text fill="#000000" font-family="sans-serif" font-size="13" lengthAdjust="spacing" textLength="55" x="473.3491" y="482.9923">Postcode</text><!--MD5=[bc3fa4595b76ff57a3597bc204395357]
reverse link CommandWrapper to FindAdressesWrapper--><path codeLine="41" d="M1170.55,76.68 C1358.28,92.82 1624.23,121.86 1853.5,170 C1859.12,171.18 1864.83,172.46 1870.57,173.81 " fill="none" id="CommandWrapper-backto-FindAdressesWrapper" style="stroke:#A80036;stroke-width:1.0;"/><polygon fill="none" points="1169.69,83.63,1150.35,74.97,1170.87,69.68,1169.69,83.63" style="stroke:#A80036;stroke-width:1.0;"/><!--MD5=[606431aec55ec72d298e7cd6b8ef7e35]
link FindAdressesWrapper to Guid--><path codeLine="42" d="M1889.82,282.1 C1846.35,299.92 1798.95,320.63 1756.5,342 C1719.46,360.64 1715.4,375.64 1676.5,390 C1511.77,450.8 1299.51,467.34 1217.72,471.6 " fill="none" id="FindAdressesWrapper-to-Guid" style="stroke:#A80036;stroke-width:1.0;"/><polygon fill="#A80036" points="1212.53,471.87,1221.7236,475.4025,1217.5234,471.6132,1221.3127,467.413,1212.53,471.87" style="stroke:#A80036;stroke-width:1.0;"/><text fill="#000000" font-family="sans-serif" font-size="13" lengthAdjust="spacing" textLength="38" x="1220.485" y="486.3664">TypeId</text><!--MD5=[cce213057d432eb82882cbbb94d45eda]
link FindAdressesWrapper to CommandDTO--><path codeLine="43" d="M1870.62,278.45 C1864.86,279.73 1859.14,280.92 1853.5,282 C1540.31,342.03 1451.62,281.57 1138.5,342 C1134.64,342.74 1130.71,343.61 1126.75,344.57 " fill="none" id="FindAdressesWrapper-to-CommandDTO" style="stroke:#A80036;stroke-width:1.0;"/><polygon fill="#A80036" points="1121.74,345.82,1131.4426,347.511,1126.5899,344.604,1129.4969,339.7512,1121.74,345.82" style="stroke:#A80036;stroke-width:1.0;"/><text fill="#000000" font-family="sans-serif" font-size="13" lengthAdjust="spacing" textLength="27" x="1121.5608" y="335.495">Cmd</text><!--MD5=[27cf3143032e106437423afc79db652f]
link FindAdressesWrapper to String--><path codeLine="44" d="M1870.76,276.89 C1864.94,278.62 1859.17,280.33 1853.5,282 C1685.91,331.4 1647.43,358.91 1475.5,390 C1087.17,460.22 606.72,471.03 470.85,472.7 " fill="none" id="FindAdressesWrapper-to-String" style="stroke:#A80036;stroke-width:1.0;"/><polygon fill="#A80036" points="465.78,472.76,474.8362,476.631,470.7795,472.6886,474.7219,468.6318,465.78,472.76" style="stroke:#A80036;stroke-width:1.0;"/><text fill="#000000" font-family="sans-serif" font-size="13" lengthAdjust="spacing" textLength="66" x="473.328" y="487.0571">SearchText</text><!--MD5=[5a6bab8df4ee897455db558573a747c0]
link FindAdressesWrapper to List`1--><path codeLine="45" d="M1986.47,282.21 C1942.24,333.05 1878.46,406.37 1844.28,445.67 " fill="none" id="FindAdressesWrapper-to-List`1" style="stroke:#A80036;stroke-width:1.0;"/><polygon fill="#A80036" points="1840.66,449.83,1849.5879,445.6716,1843.9444,446.06,1843.556,440.4165,1840.66,449.83" style="stroke:#A80036;stroke-width:1.0;"/><text fill="#000000" font-family="sans-serif" font-size="13" lengthAdjust="spacing" textLength="120" x="1861.201" y="439.1266">Result&lt;AdressDTO&gt;</text><!--MD5=[abc28d54e4e35ca537f3987bc7e15e70]
reverse link CommandWrapper to GetAdressWrapper--><path codeLine="46" d="M1035.28,120.02 C1064.04,136.32 1095,153.87 1123.21,169.86 " fill="none" id="CommandWrapper-backto-GetAdressWrapper" style="stroke:#A80036;stroke-width:1.0;"/><polygon fill="none" points="1031.64,126.01,1017.7,110.05,1038.55,113.83,1031.64,126.01" style="stroke:#A80036;stroke-width:1.0;"/><!--MD5=[4fecfaffadcdb8f999294a6fae315043]
link GetAdressWrapper to Guid--><path codeLine="47" d="M1230.33,282.08 C1239.1,314.21 1246.96,355.14 1234.5,390 C1226.94,411.17 1211.4,430.82 1198.86,445.68 " fill="none" id="GetAdressWrapper-to-Guid" style="stroke:#A80036;stroke-width:1.0;"/><polygon fill="#A80036" points="1195.41,449.74,1204.2777,445.4548,1198.6404,445.9236,1198.1715,440.2862,1195.41,449.74" style="stroke:#A80036;stroke-width:1.0;"/><text fill="#000000" font-family="sans-serif" font-size="13" lengthAdjust="spacing" textLength="38" x="1155.5932" y="439.0135">TypeId</text><!--MD5=[4fecfaffadcdb8f999294a6fae315043]
link GetAdressWrapper to Guid--><path codeLine="49" d="M1260.9,282.08 C1274.1,314.21 1281.96,355.14 1269.5,390 C1259.9,416.86 1237.46,441.28 1217.12,456.57 " fill="none" id="GetAdressWrapper-to-Guid-1" style="stroke:#A80036;stroke-width:1.0;"/><polygon fill="#A80036" points="1212.82,459.69,1222.4552,457.6496,1216.8692,456.7568,1217.7621,451.1709,1212.82,459.69" style="stroke:#A80036;stroke-width:1.0;"/><text fill="#000000" font-family="sans-serif" font-size="13" lengthAdjust="spacing" textLength="10" x="1220.3275" y="452.3433">Id</text><!--MD5=[f7ec91347518850ce83f09c4f315327d]
link GetAdressWrapper to CommandDTO--><path codeLine="48" d="M1157.55,282.33 C1135.66,301.58 1112.09,322.29 1094.02,338.17 " fill="none" id="GetAdressWrapper-to-CommandDTO" style="stroke:#A80036;stroke-width:1.0;"/><polygon fill="#A80036" points="1090.02,341.69,1099.4217,338.7561,1093.7767,338.3904,1094.1424,332.7454,1090.02,341.69" style="stroke:#A80036;stroke-width:1.0;"/><text fill="#000000" font-family="sans-serif" font-size="13" lengthAdjust="spacing" textLength="27" x="1066.3564" y="330.9507">Cmd</text><!--MD5=[abb75d88c1b5c30140cab650c6b382a7]
link GetAdressWrapper to AdressDTO--><path codeLine="50" d="M1078.92,262.88 C1049.47,269.73 1018.56,276.48 989.5,282 C804.25,317.21 755.81,312.94 569.5,342 C542.11,346.27 511.67,351.38 486.55,355.7 " fill="none" id="GetAdressWrapper-to-AdressDTO" style="stroke:#A80036;stroke-width:1.0;"/><polygon fill="#A80036" points="481.6,356.56,491.1523,358.9588,486.5261,355.7033,489.7815,351.0771,481.6,356.56" style="stroke:#A80036;stroke-width:1.0;"/><text fill="#000000" font-family="sans-serif" font-size="13" lengthAdjust="spacing" textLength="37" x="489.3006" y="352.0589">Result</text><!--MD5=[9cbca43eb24129da06ce5f221e81d34d]
reverse link CommandWrapper to SetAdressWrapper--><path codeLine="51" d="M687.12,100.14 C583.83,119.01 462.22,143.2 353.5,170 C347.89,171.38 342.2,172.83 336.46,174.34 " fill="none" id="CommandWrapper-backto-SetAdressWrapper" style="stroke:#A80036;stroke-width:1.0;"/><polygon fill="none" points="685.92,93.24,706.85,96.56,688.42,107.02,685.92,93.24" style="stroke:#A80036;stroke-width:1.0;"/><!--MD5=[ab67425edc20ab324a0e79a72355eade]
link SetAdressWrapper to Guid--><path codeLine="52" d="M336.02,281.89 C336.18,281.92 336.34,281.96 336.5,282 C491.41,318.42 538.67,291.24 689.5,342 C733.21,356.71 738.12,374.33 781.5,390 C912.13,437.18 1077.85,461.74 1149.22,469.88 " fill="none" id="SetAdressWrapper-to-Guid" style="stroke:#A80036;stroke-width:1.0;"/><polygon fill="#A80036" points="1154.2,470.44,1145.7015,465.4625,1149.2311,469.8831,1144.8105,473.4128,1154.2,470.44" style="stroke:#A80036;stroke-width:1.0;"/><text fill="#000000" font-family="sans-serif" font-size="13" lengthAdjust="spacing" textLength="38" x="1108.5022" y="484.6708">TypeId</text><!--MD5=[ab67425edc20ab324a0e79a72355eade]
link SetAdressWrapper to Guid--><path codeLine="54" d="M336.04,273.02 C348.02,276.24 359.93,279.28 371.5,282 C526.41,318.42 573.67,291.24 724.5,342 C768.21,356.71 773.12,374.33 816.5,390 C935.27,432.9 1083.05,457.1 1149.41,467.25 " fill="none" id="SetAdressWrapper-to-Guid-1" style="stroke:#A80036;stroke-width:1.0;"/><polygon fill="#A80036" points="1154.43,468.02,1146.1394,462.7034,1149.4876,467.2629,1144.9281,470.6112,1154.43,468.02" style="stroke:#A80036;stroke-width:1.0;"/><text fill="#000000" font-family="sans-serif" font-size="13" lengthAdjust="spacing" textLength="10" x="1136.5513" y="462.3229">Id</text><!--MD5=[64be510668cf52f4c15ed6243423dac0]
link SetAdressWrapper to CommandDTO--><path codeLine="53" d="M336.34,278.2 C342.11,279.55 347.84,280.82 353.5,282 C476.66,307.6 849.99,344.7 1000.05,359.04 " fill="none" id="SetAdressWrapper-to-CommandDTO" style="stroke:#A80036;stroke-width:1.0;"/><polygon fill="#A80036" points="1005.29,359.54,996.7216,354.6838,1000.3137,359.0538,995.9437,362.6459,1005.29,359.54" style="stroke:#A80036;stroke-width:1.0;"/><text fill="#000000" font-family="sans-serif" font-size="13" lengthAdjust="spacing" textLength="27" x="970.4467" y="373.2228">Cmd</text><!--MD5=[94a885cca7ba0d929ad0698c9a0e22a6]
link SetAdressWrapper to AdressDTO--><path codeLine="55" d="M263.66,282.14 C302.76,303.1 346.86,325.85 380.45,342.2 " fill="none" id="SetAdressWrapper-to-AdressDTO" style="stroke:#A80036;stroke-width:1.0;"/><polygon fill="#A80036" points="385.32,344.56,378.9815,337.0219,380.8252,342.3699,375.4772,344.2136,385.32,344.56" style="stroke:#A80036;stroke-width:1.0;"/><text fill="#000000" font-family="sans-serif" font-size="13" lengthAdjust="spacing" textLength="41" x="336.3789" y="338.6714">Adress</text><!--MD5=[94a885cca7ba0d929ad0698c9a0e22a6]
link SetAdressWrapper to AdressDTO--><path codeLine="56" d="M289.43,282.14 C327.76,301.95 367.56,323.35 395.74,339.44 " fill="none" id="SetAdressWrapper-to-AdressDTO-1" style="stroke:#A80036;stroke-width:1.0;"/><polygon fill="#A80036" points="400.16,341.97,394.3473,334.0194,395.8241,339.4801,390.3634,340.9569,400.16,341.97" style="stroke:#A80036;stroke-width:1.0;"/><text fill="#000000" font-family="sans-serif" font-size="13" lengthAdjust="spacing" textLength="37" x="396.3573" y="331.3025">Result</text><!--MD5=[9b08d2a45fc0a2255361495ba25c3e76]
reverse link CommandWrapper to DeleteAdressWrapper--><path codeLine="57" d="M782.73,117.49 C739.99,134.5 693.39,153.04 651.1,169.86 " fill="none" id="CommandWrapper-backto-DeleteAdressWrapper" style="stroke:#A80036;stroke-width:1.0;"/><polygon fill="none" points="780.25,110.94,801.43,110.05,785.43,123.95,780.25,110.94" style="stroke:#A80036;stroke-width:1.0;"/><!--MD5=[7ec9028265da5144379fbe690513b73e]
link DeleteAdressWrapper to Guid--><path codeLine="58" d="M635.51,282.05 C682.41,301.01 736.31,322.41 785.5,342 C838.87,363.25 851.43,370.62 905.5,390 C991.57,420.85 1095.6,452.19 1149.25,465.87 " fill="none" id="DeleteAdressWrapper-to-Guid" style="stroke:#A80036;stroke-width:1.0;"/><polygon fill="#A80036" points="1154.29,467.14,1146.5331,461.0712,1149.4401,465.924,1144.5874,468.831,1154.29,467.14" style="stroke:#A80036;stroke-width:1.0;"/><text fill="#000000" font-family="sans-serif" font-size="13" lengthAdjust="spacing" textLength="38" x="1136.4225" y="438.9377">TypeId</text><!--MD5=[7ec9028265da5144379fbe690513b73e]
link DeleteAdressWrapper to Guid--><path codeLine="60" d="M654.1,276.45 C706.61,296.73 766.41,320.46 820.5,342 C873.87,363.25 886.43,370.62 940.5,390 C1014.5,416.53 1101.77,443.41 1149.46,459.12 " fill="none" id="DeleteAdressWrapper-to-Guid-1" style="stroke:#A80036;stroke-width:1.0;"/><polygon fill="#A80036" points="1154.24,460.7,1146.9548,454.0724,1149.4937,459.1274,1144.4387,461.6664,1154.24,460.7" style="stroke:#A80036;stroke-width:1.0;"/><text fill="#000000" font-family="sans-serif" font-size="13" lengthAdjust="spacing" textLength="10" x="1136.3174" y="453.3101">Id</text><!--MD5=[68babcd854570148b1daf17688fbb69c]
link DeleteAdressWrapper to CommandDTO--><path codeLine="59" d="M654.39,277.06 C660.15,278.78 665.87,280.44 671.5,282 C785.95,313.78 922.12,340.09 1000.12,354.09 " fill="none" id="DeleteAdressWrapper-to-CommandDTO" style="stroke:#A80036;stroke-width:1.0;"/><polygon fill="#A80036" points="1005.17,354.99,997.0194,349.4612,1000.2488,354.1056,995.6044,357.335,1005.17,354.99" style="stroke:#A80036;stroke-width:1.0;"/><text fill="#000000" font-family="sans-serif" font-size="13" lengthAdjust="spacing" textLength="27" x="970.3136" y="350.4251">Cmd</text><!--MD5=[136bec06811b5527b422fe58fcd88141]
link DeleteAdressWrapper to AdressDTO--><path codeLine="61" d="M480.82,282.33 C470.09,301.09 458.55,321.25 449.55,336.96 " fill="none" id="DeleteAdressWrapper-to-AdressDTO" style="stroke:#A80036;stroke-width:1.0;"/><polygon fill="#A80036" points="446.84,341.69,454.7823,335.866,449.3238,337.3505,447.8392,331.892,446.84,341.69" style="stroke:#A80036;stroke-width:1.0;"/><text fill="#000000" font-family="sans-serif" font-size="13" lengthAdjust="spacing" textLength="37" x="454.999" y="330.9507">Result</text><!--MD5=[be3a97b884d7bb8890e18b1f911f5268]
link BaseDTO to Guid--><path codeLine="81" d="M1551.81,282.06 C1521.07,317.71 1483.73,362.45 1440.5,390 C1368.59,435.82 1270.95,456.87 1217.66,466.17 " fill="none" id="BaseDTO-to-Guid" style="stroke:#A80036;stroke-width:1.0;"/><polygon fill="#A80036" points="1212.64,467.03,1222.1855,469.4557,1217.5685,466.1872,1220.8369,461.5701,1212.64,467.03" style="stroke:#A80036;stroke-width:1.0;"/><text fill="#000000" font-family="sans-serif" font-size="13" lengthAdjust="spacing" textLength="38" x="1220.6132" y="462.0748">TypeId</text><!--MD5=[be3a97b884d7bb8890e18b1f911f5268]
link BaseDTO to Guid--><path codeLine="82" d="M1581.45,282.06 C1556.07,317.71 1518.73,362.45 1475.5,390 C1392.45,442.92 1275.06,462.81 1217.72,469.69 " fill="none" id="BaseDTO-to-Guid-1" style="stroke:#A80036;stroke-width:1.0;"/><polygon fill="#A80036" points="1212.69,470.28,1222.0972,473.1963,1217.6555,469.6933,1221.1585,465.2516,1212.69,470.28" style="stroke:#A80036;stroke-width:1.0;"/><text fill="#000000" font-family="sans-serif" font-size="13" lengthAdjust="spacing" textLength="10" x="1220.2031" y="486.2815">Id</text><!--MD5=[be3a97b884d7bb8890e18b1f911f5268]
link BaseDTO to Guid--><path codeLine="83" d="M1611.08,282.06 C1591.07,317.71 1553.73,362.45 1510.5,390 C1418.45,448.65 1284.23,466.73 1217.78,471.49 " fill="none" id="BaseDTO-to-Guid-2" style="stroke:#A80036;stroke-width:1.0;"/><polygon fill="#A80036" points="1212.73,471.84,1221.9832,475.2131,1217.7182,471.497,1221.4344,467.232,1212.73,471.84" style="stroke:#A80036;stroke-width:1.0;"/><text fill="#000000" font-family="sans-serif" font-size="13" lengthAdjust="spacing" textLength="28" x="1220.0733" y="493.0052">Type</text><!--MD5=[2cc8b6df816638932ff19f7ae8e08ba0]
link PropertyDTO to Guid--><path codeLine="84" d="M689.89,383.03 C698.72,385.53 707.84,387.96 716.5,390 C876.57,427.7 1071.1,457.09 1148.91,468.19 " fill="none" id="PropertyDTO-to-Guid" style="stroke:#A80036;stroke-width:1.0;"/><polygon fill="#A80036" points="1154.31,468.96,1145.9598,463.7375,1149.3594,468.2589,1144.838,471.6585,1154.31,468.96" style="stroke:#A80036;stroke-width:1.0;"/><text fill="#000000" font-family="sans-serif" font-size="13" lengthAdjust="spacing" textLength="38" x="1108.455" y="496.5661">TypeId</text><!--MD5=[d5f4c30c7cb8eb2847647aca0481e46f]
link PropertyDTO to String--><path codeLine="85" d="M587.34,388.07 C550.93,405.39 503.21,429.97 470.42,448.23 " fill="none" id="PropertyDTO-to-String" style="stroke:#A80036;stroke-width:1.0;"/><polygon fill="#A80036" points="465.7,450.88,475.5065,449.9677,470.0613,448.4348,471.5942,442.9896,465.7,450.88" style="stroke:#A80036;stroke-width:1.0;"/><text fill="#000000" font-family="sans-serif" font-size="13" lengthAdjust="spacing" textLength="34" x="473.5413" y="443.4434">Name</text><!--MD5=[d5f4c30c7cb8eb2847647aca0481e46f]
link PropertyDTO to String--><path codeLine="86" d="M605.37,390 C568.13,411.01 508.76,441.39 470.14,458.97 " fill="none" id="PropertyDTO-to-String-1" style="stroke:#A80036;stroke-width:1.0;"/><polygon fill="#A80036" points="465.54,461.05,475.3887,460.9929,470.0972,458.9928,472.0972,453.7013,465.54,461.05" style="stroke:#A80036;stroke-width:1.0;"/><text fill="#000000" font-family="sans-serif" font-size="13" lengthAdjust="spacing" textLength="33" x="446.9145" y="439.329">Value</text><!--MD5=[3920cdde0ef99465ed1599e18a1d09e5]
reverse link BaseDTO to ObjectDTO--><path codeLine="87" d="M1714.82,293.51 C1740.58,310.94 1766.66,328.58 1786.46,341.97 " fill="none" id="BaseDTO-backto-ObjectDTO" style="stroke:#A80036;stroke-width:1.0;"/><polygon fill="none" points="1710.65,299.14,1698.01,282.14,1718.49,287.54,1710.65,299.14" style="stroke:#A80036;stroke-width:1.0;"/><!--MD5=[ae4b2e8b4ef91d484150733ac744b15c]
link ObjectDTO to Guid--><path codeLine="88" d="M1774.46,382.72 C1765.59,385.41 1756.31,387.98 1747.5,390 C1549.36,435.49 1306.08,461.42 1217.66,469.89 " fill="none" id="ObjectDTO-to-Guid" style="stroke:#A80036;stroke-width:1.0;"/><polygon fill="#A80036" points="1212.56,470.37,1221.9063,473.4759,1217.5363,469.8838,1221.1284,465.5138,1212.56,470.37" style="stroke:#A80036;stroke-width:1.0;"/><text fill="#000000" font-family="sans-serif" font-size="13" lengthAdjust="spacing" textLength="38" x="1220.5199" y="465.968">TypeId</text><!--MD5=[044e50fa495cf138e42c0a7a2d101165]
link ObjectDTO to List`1--><path codeLine="89" d="M1820.5,390 C1820.5,406 1820.5,427.45 1820.5,444.53 " fill="none" id="ObjectDTO-to-List`1" style="stroke:#A80036;stroke-width:1.0;"/><polygon fill="#A80036" points="1820.5,449.68,1824.5,440.68,1820.5,444.68,1816.5,440.68,1820.5,449.68" style="stroke:#A80036;stroke-width:1.0;"/><text fill="#000000" font-family="sans-serif" font-size="13" lengthAdjust="spacing" textLength="150" x="1652.2188" y="439.34">Properties&lt;PropertyDTO&gt;</text><!--MD5=[d40922a5f4b5f53a84548686e17be8ce]
reverse link BaseDTO to TypeDTO--><path codeLine="90" d="M1520.11,293.51 C1494.85,310.94 1469.29,328.58 1449.87,341.97 " fill="none" id="BaseDTO-backto-TypeDTO" style="stroke:#A80036;stroke-width:1.0;"/><polygon fill="none" points="1516.16,287.73,1536.59,282.14,1524.11,299.26,1516.16,287.73" style="stroke:#A80036;stroke-width:1.0;"/><!--MD5=[5c447c056dfaa167e42a9155323e8f7a]
link TypeDTO to Guid--><path codeLine="91" d="M1374.84,385.95 C1329.85,406.42 1259.02,438.64 1217.33,457.61 " fill="none" id="TypeDTO-to-Guid" style="stroke:#A80036;stroke-width:1.0;"/><polygon fill="#A80036" points="1212.64,459.74,1222.4884,459.6456,1217.1894,457.6656,1219.1694,452.3666,1212.64,459.74" style="stroke:#A80036;stroke-width:1.0;"/><text fill="#000000" font-family="sans-serif" font-size="13" lengthAdjust="spacing" textLength="38" x="1220.6132" y="453.5774">TypeId</text><!--MD5=[219bd3936f376d031e8c298317b20e94]
link ObjectWrapper to ObjectDTO--><path codeLine="101" d="M2270.47,257.04 C2253.43,266.1 2234.05,275.38 2215.5,282 C2096.27,324.56 1948.6,348.39 1872.01,358.72 " fill="none" id="ObjectWrapper-to-ObjectDTO" style="stroke:#A80036;stroke-width:1.0;"/><polygon fill="#A80036" points="1866.62,359.45,1876.0676,362.2326,1871.5766,358.7929,1875.0163,354.302,1866.62,359.45" style="stroke:#A80036;stroke-width:1.0;"/><text fill="#000000" font-family="sans-serif" font-size="13" lengthAdjust="spacing" textLength="25" x="1874.4971" y="355.0136">_dto</text><!--MD5=[67880a3a229e4f21214e7372b1fe529c]
link CommandWrapper to CommandDTO--><path codeLine="102" d="M958.44,110.16 C968.86,128.69 980.25,150.01 989.5,170 C1016.29,227.86 1041.24,298.39 1054.2,336.78 " fill="none" id="CommandWrapper-to-CommandDTO" style="stroke:#A80036;stroke-width:1.0;"/><polygon fill="#A80036" points="1055.87,341.75,1056.7833,331.9436,1054.2717,337.0123,1049.203,334.5008,1055.87,341.75" style="stroke:#A80036;stroke-width:1.0;"/><text fill="#000000" font-family="sans-serif" font-size="13" lengthAdjust="spacing" textLength="27" x="1023.4554" y="331.0261">Cmd</text><!--MD5=[9714f00bbee80ca7b140c29ae529c8eb]
reverse link BaseDTO to CommandDTO--><path codeLine="116" d="M1377.36,283.1 C1282.32,305.7 1184.72,329.37 1138.5,342 C1132.98,343.51 1127.26,345.14 1121.54,346.82 " fill="none" id="BaseDTO-backto-CommandDTO" style="stroke:#A80036;stroke-width:1.0;"/><polygon fill="none" points="1375.87,276.26,1396.95,278.45,1379.11,289.88,1375.87,276.26" style="stroke:#A80036;stroke-width:1.0;"/><!--MD5=[748fc960db8404b389e3e2dd41b16478]
link CommandDTO to Guid--><path codeLine="117" d="M1089.54,390 C1108.28,406.55 1133.61,428.93 1153.25,446.28 " fill="none" id="CommandDTO-to-Guid" style="stroke:#A80036;stroke-width:1.0;"/><polygon fill="#A80036" points="1157.1,449.68,1153.0138,440.7188,1153.3567,446.3653,1147.7102,446.7082,1157.1,449.68" style="stroke:#A80036;stroke-width:1.0;"/><text fill="#000000" font-family="sans-serif" font-size="13" lengthAdjust="spacing" textLength="38" x="1108.6013" y="439.7418">TypeId</text><!--MD5=[7643b4e9f5d3ec841d55a0a29d6a7102]
link CommandDTO to Boolean--><path codeLine="118" d="M1133.51,366 C1133.51,366 1140.31,366 1143.16,366 " fill="none" id="CommandDTO-Boolean" style="stroke:#A80036;stroke-width:1.0;"/><polygon fill="#A80036" points="1156.48,366,1147.48,362,1151.48,366,1147.48,370,1156.48,366" style="stroke:#A80036;stroke-width:1.0;"/><line style="stroke:#A80036;stroke-width:1.0;" x1="1151.48" x2="1143.48" y1="366" y2="366"/><polygon fill="#FFFFFF" points="1121.51,366,1127.51,370,1133.51,366,1127.51,362,1121.51,366" style="stroke:#A80036;stroke-width:1.0;"/><text fill="#000000" font-family="sans-serif" font-size="13" lengthAdjust="spacing" textLength="58" x="1090.0783" y="347.1694">Response</text><!--MD5=[4578dd9431dc4b19b962c6ee8c717b6c]
link CommandDTO to List`1--><path codeLine="119" d="M1133.4371,388.8487 C1133.4371,388.8487 1137.22,389.73 1138.5,390 C1371.7,439.54 1656.49,462.32 1770.16,469.92 " fill="none" id="CommandDTO-List`1" style="stroke:#A80036;stroke-width:1.0;"/><polygon fill="#A80036" points="1783.16,470.78,1774.4383,466.2048,1778.1705,470.4558,1773.9196,474.188,1783.16,470.78" style="stroke:#A80036;stroke-width:1.0;"/><line style="stroke:#A80036;stroke-width:1.0;" x1="1778.1705" x2="1770.185" y1="470.4558" y2="469.93"/><polygon fill="#FFFFFF" points="1121.79,385.96,1126.6507,391.2867,1133.4371,388.8487,1128.5765,383.522,1121.79,385.96" style="stroke:#A80036;stroke-width:1.0;"/><text fill="#000000" font-family="sans-serif" font-size="13" lengthAdjust="spacing" textLength="154" x="1621.4778" y="467.5331">Arguments&lt;PropertyDTO&gt;</text><!--MD5=[1dcbafcc1a6e0f16ed85ca39a22f8e0c]
reverse link CommandWrapper to SampleCommandWrapper--><path codeLine="120" d="M888.25,127.48 C879.9,141.58 871.19,156.28 863.15,169.86 " fill="none" id="CommandWrapper-backto-SampleCommandWrapper" style="stroke:#A80036;stroke-width:1.0;"/><polygon fill="none" points="882.35,123.7,898.56,110.05,894.4,130.83,882.35,123.7" style="stroke:#A80036;stroke-width:1.0;"/><!--MD5=[6158de49482057db5420d29be73619ed]
link SampleCommandWrapper to Guid--><path codeLine="121" d="M873.6,282.06 C902.83,316.58 943.95,360.06 987.5,390 C1039.29,425.61 1108.78,450.54 1149.59,463.26 " fill="none" id="SampleCommandWrapper-to-Guid" style="stroke:#A80036;stroke-width:1.0;"/><polygon fill="#A80036" points="1154.42,464.75,1146.9984,458.2754,1149.642,463.2766,1144.6409,465.9202,1154.42,464.75" style="stroke:#A80036;stroke-width:1.0;"/><text fill="#000000" font-family="sans-serif" font-size="13" lengthAdjust="spacing" textLength="38" x="1108.4568" y="459.4172">TypeId</text><!--MD5=[ec91f5bc263fb467e5451ee323227901]
link SampleCommandWrapper to CommandDTO--><path codeLine="122" d="M923.59,282.14 C956.9,301.87 992.88,323.17 1020.01,339.24 " fill="none" id="SampleCommandWrapper-to-CommandDTO" style="stroke:#A80036;stroke-width:1.0;"/><polygon fill="#A80036" points="1024.62,341.97,1018.9093,333.9458,1020.3162,339.4249,1014.8371,340.8319,1024.62,341.97" style="stroke:#A80036;stroke-width:1.0;"/><text fill="#000000" font-family="sans-serif" font-size="13" lengthAdjust="spacing" textLength="27" x="984.1976" y="331.3025">Cmd</text><!--MD5=[2bc87cbe907fab5bf33e2f1168f28590]
link SampleCommandWrapper to String--><path codeLine="123" d="M688.93,278.62 C648.79,296.07 606.1,317.45 569.5,342 C524.81,371.97 481.52,417.36 456.21,446.08 " fill="none" id="SampleCommandWrapper-to-String" style="stroke:#A80036;stroke-width:1.0;"/><polygon fill="#A80036" points="452.91,449.84,461.8457,445.6984,456.2015,446.0762,455.8237,440.432,452.91,449.84" style="stroke:#A80036;stroke-width:1.0;"/><text fill="#000000" font-family="sans-serif" font-size="13" lengthAdjust="spacing" textLength="50" x="401.4776" y="439.1392">FirstOne</text><!--MD5=[261c833e76cba9e885fc18e8a9d80f94]
link SampleCommandWrapper to Boolean--><path codeLine="124" d="M972.24,279.04 C1024.6,298.5 1084.36,320.97 1138.5,342 C1142.74,343.65 1147.14,345.38 1151.54,347.13 " fill="none" id="SampleCommandWrapper-to-Boolean" style="stroke:#A80036;stroke-width:1.0;"/><polygon fill="#A80036" points="1156.31,349.03,1149.4393,341.9736,1151.6676,347.173,1146.4681,349.4014,1156.31,349.03" style="stroke:#A80036;stroke-width:1.0;"/><text fill="#000000" font-family="sans-serif" font-size="13" lengthAdjust="spacing" textLength="68" x="1153.1311" y="331.3387">SecondOne</text><!--MD5=[827eb5c776e7d1ef67b59e471f30133b]
link WeatherForecast to DateTime--><path codeLine="130" d="M3080.5,103.85 C3080.5,133.35 3080.5,171.21 3080.5,196.69 " fill="none" id="WeatherForecast-to-DateTime" style="stroke:#A80036;stroke-width:1.0;"/><polygon fill="#A80036" points="3080.5,201.94,3084.5,192.94,3080.5,196.94,3076.5,192.94,3080.5,201.94" style="stroke:#A80036;stroke-width:1.0;"/><text fill="#000000" font-family="sans-serif" font-size="13" lengthAdjust="spacing" textLength="27" x="3050.0406" y="191.2648">Date</text><!--MD5=[61247b6580e3e0ba3bb022f751dd0d27]
link AdressTypesDispatcher to BaseTypesDispatcher--><!--MD5=[f149555ef7b629e3fb0a6057d6b79107]
link AdressTypesDispatcher to CommandTypesDispatcher--><!--MD5=[07b64436c31c29c41caeeb4b0a89e651]
@startuml
class AdressDTO {
}
class FindAdressesWrapper <<partial>> {
    + FindAdressesWrapper(dto:CommandDTO)
    + {static} IsForMe(dto:CommandDTO) : bool
    + {static} ExecuteCommand(dto:CommandDTO) : CommandDTO
    + <<partial>> FindAdresses(searchText:String) : List<AdressDTO>
}
class GetAdressWrapper <<partial>> {
    + GetAdressWrapper(dto:CommandDTO)
    + {static} IsForMe(dto:CommandDTO) : bool
    + {static} ExecuteCommand(dto:CommandDTO) : CommandDTO
    + <<partial>> GetAdress(id:Guid) : AdressDTO
}
class SetAdressWrapper <<partial>> {
    + SetAdressWrapper(dto:CommandDTO)
    + {static} IsForMe(dto:CommandDTO) : bool
    + {static} ExecuteCommand(dto:CommandDTO) : CommandDTO
    + <<partial>> SetAdress(id:Guid, adress:AdressDTO) : AdressDTO
}
class DeleteAdressWrapper <<partial>> {
    + DeleteAdressWrapper(dto:CommandDTO)
    + {static} IsForMe(dto:CommandDTO) : bool
    + {static} ExecuteCommand(dto:CommandDTO) : CommandDTO
    + <<partial>> DeleteAdress(id:Guid) : AdressDTO
}
class AdressTypesDispatcher <<static>> {
    + {static} Dispatch(dto:CommandDTO) : CommandDTO
}
class "List`1"<T> {
}
BaseDTO <|- - AdressDTO
AdressDTO - -> "TypeId" Guid
AdressDTO - -> "Name1" String
AdressDTO - -> "Name2" String
AdressDTO - -> "Adress1" String
AdressDTO - -> "Adress2" String
AdressDTO - -> "Housenumber" String
AdressDTO - -> "City" String
AdressDTO - -> "Postcode" String
CommandWrapper <|- - FindAdressesWrapper
FindAdressesWrapper - -> "TypeId" Guid
FindAdressesWrapper - -> "Cmd" CommandDTO
FindAdressesWrapper - -> "SearchText" String
FindAdressesWrapper - -> "Result<AdressDTO>" "List`1"
CommandWrapper <|- - GetAdressWrapper
GetAdressWrapper - -> "TypeId" Guid
GetAdressWrapper - -> "Cmd" CommandDTO
GetAdressWrapper - -> "Id" Guid
GetAdressWrapper - -> "Result" AdressDTO
CommandWrapper <|- - SetAdressWrapper
SetAdressWrapper - -> "TypeId" Guid
SetAdressWrapper - -> "Cmd" CommandDTO
SetAdressWrapper - -> "Id" Guid
SetAdressWrapper - -> "Adress" AdressDTO
SetAdressWrapper - -> "Result" AdressDTO
CommandWrapper <|- - DeleteAdressWrapper
DeleteAdressWrapper - -> "TypeId" Guid
DeleteAdressWrapper - -> "Cmd" CommandDTO
DeleteAdressWrapper - -> "Id" Guid
DeleteAdressWrapper - -> "Result" AdressDTO
class BaseDTO <<partial>> {
    # StringFromPropertyList(list:List<PropertyDTO>, name:string) : string
    # StringToPropertyList(list:List<PropertyDTO>, name:string, newValue:string) : void
    # BooleanFromPropertyList(list:List<PropertyDTO>, name:string) : Boolean
    # BooleanToPropertyList(list:List<PropertyDTO>, name:string, newValue:Boolean) : void
}
class BaseDTO <<partial>> {
}
class PropertyDTO {
}
class ObjectDTO {
}
class TypeDTO {
}
class BaseTypesDispatcher <<static>> {
    + {static} Dispatch(dto:CommandDTO) : CommandDTO
}
class "List`1"<T> {
}
BaseDTO - -> "TypeId" Guid
BaseDTO - -> "Id" Guid
BaseDTO - -> "Type" Guid
PropertyDTO - -> "TypeId" Guid
PropertyDTO - -> "Name" String
PropertyDTO - -> "Value" String
BaseDTO <|- - ObjectDTO
ObjectDTO - -> "TypeId" Guid
ObjectDTO - -> "Properties<PropertyDTO>" "List`1"
BaseDTO <|- - TypeDTO
TypeDTO - -> "TypeId" Guid
class ObjectWrapper {
    + ObjectWrapper(dto:ObjectDTO)
}
class CommandWrapper {
    + CommandWrapper(dto:CommandDTO)
    # Get(cmd:CommandDTO, name:string, target:(Func<T> get, Action<T> set)) : void
    # Get(cmd:CommandDTO, name:string, target:(Func<Guid> get, Action<Guid> set)) : void
    # Set(cmd:CommandDTO, name:string, value:T) : void
}
ObjectWrapper - -> "_dto" ObjectDTO
CommandWrapper - -> "Cmd" CommandDTO
class CommandDTO {
}
class SampleCommandWrapper <<partial>> {
    + SampleCommandWrapper(dto:CommandDTO)
    + {static} IsForMe(dto:CommandDTO) : bool
    + {static} ExecuteCommand(dto:CommandDTO) : CommandDTO
    + <<partial>> ExecuteCommand() : CommandDTO
}
class CommandTypesDispatcher <<static>> {
    + {static} Dispatch(dto:CommandDTO) : CommandDTO
}
class "List`1"<T> {
}
BaseDTO <|- - CommandDTO
CommandDTO - -> "TypeId" Guid
CommandDTO o-> "Response" Boolean
CommandDTO o-> "Arguments<PropertyDTO>" "List`1"
CommandWrapper <|- - SampleCommandWrapper
SampleCommandWrapper - -> "TypeId" Guid
SampleCommandWrapper - -> "Cmd" CommandDTO
SampleCommandWrapper - -> "FirstOne" String
SampleCommandWrapper - -> "SecondOne" Boolean
class WeatherForecast {
    + TemperatureC : int <<get>> <<set>>
    + TemperatureF : int <<get>>
    + Summary : string <<get>> <<set>>
}
WeatherForecast - -> "Date" DateTime
@enduml

PlantUML version 1.2021.10(Mon Aug 30 15:43:48 CEST 2021)
(GPL source distribution)
Java Runtime: Java(TM) SE Runtime Environment
JVM: Java HotSpot(TM) Client VM
Default Encoding: Cp1252
Language: de
Country: CH
--></g></svg>