<?xml version="1.0" encoding="UTF-8" standalone="no"?><svg xmlns="http://www.w3.org/2000/svg" xmlns:xlink="http://www.w3.org/1999/xlink" contentScriptType="application/ecmascript" contentStyleType="text/css" height="512px" preserveAspectRatio="none" style="width:3091px;height:512px;background:#FFFFFF;" version="1.1" viewBox="0 0 3091 512" width="3091px" zoomAndPan="magnify"><defs><filter height="300%" id="f6gbucznjs70v" width="300%" x="-1" y="-1"><feGaussianBlur result="blurOut" stdDeviation="2.0"/><feColorMatrix in="blurOut" result="blurOut2" type="matrix" values="0 0 0 0 0 0 0 0 0 0 0 0 0 0 0 0 0 0 .4 0"/><feOffset dx="4.0" dy="4.0" in="blurOut2" result="blurOut3"/><feBlend in="SourceGraphic" in2="blurOut3" mode="normal"/></filter></defs><g><!--MD5=[a5d4fcdae0bd58dbfa0890c54d6b74e5]
class AdressDTO--><rect codeLine="1" fill="#FEFECE" filter="url(#f6gbucznjs70v)" height="48" id="AdressDTO" style="stroke:#A80036;stroke-width:1.5;" width="96" x="334.5" y="342"/><ellipse cx="349.5" cy="358" fill="#ADD1B2" rx="11" ry="11" style="stroke:#A80036;stroke-width:1.0;"/><path d="M352.2656,353.875 Q352.4219,353.6563 352.6094,353.5469 Q352.7969,353.4375 353.0156,353.4375 Q353.3906,353.4375 353.625,353.6953 Q353.8594,353.9531 353.8594,354.5625 L353.8594,356.0156 Q353.8594,356.625 353.625,356.8906 Q353.3906,357.1563 353.0156,357.1563 Q352.6719,357.1563 352.4688,356.9531 Q352.2656,356.7656 352.1563,356.25 Q352.1094,355.8906 351.9219,355.7031 Q351.5938,355.3281 350.9844,355.1094 Q350.375,354.8906 349.75,354.8906 Q348.9844,354.8906 348.3516,355.2188 Q347.7188,355.5469 347.2266,356.2969 Q346.7344,357.0469 346.7344,358.0781 L346.7344,359.1719 Q346.7344,360.4063 347.625,361.2266 Q348.5156,362.0469 350.1094,362.0469 Q351.0469,362.0469 351.7031,361.7969 Q352.0938,361.6406 352.5156,361.2031 Q352.7813,360.9375 352.9297,360.8594 Q353.0781,360.7813 353.2813,360.7813 Q353.6094,360.7813 353.8672,361.0391 Q354.125,361.2969 354.125,361.6406 Q354.125,361.9844 353.7813,362.3906 Q353.2813,362.9688 352.4844,363.2969 Q351.4063,363.75 350.1094,363.75 Q348.5938,363.75 347.3906,363.125 Q346.4063,362.625 345.7188,361.5547 Q345.0313,360.4844 345.0313,359.2031 L345.0313,358.0469 Q345.0313,356.7188 345.6484,355.5703 Q346.2656,354.4219 347.3594,353.8047 Q348.4531,353.1875 349.6875,353.1875 Q350.4219,353.1875 351.0703,353.3516 Q351.7188,353.5156 352.2656,353.875 Z " fill="#000000"/><text fill="#000000" font-family="sans-serif" font-size="12" lengthAdjust="spacing" textLength="64" x="363.5" y="362.9102">AdressDTO</text><line style="stroke:#A80036;stroke-width:1.5;" x1="335.5" x2="429.5" y1="374" y2="374"/><line style="stroke:#A80036;stroke-width:1.5;" x1="335.5" x2="429.5" y1="382" y2="382"/><!--MD5=[b322aadbb9d3c478d9706c2cbb9a3ac5]
class FindAdressesWrapper--><rect codeLine="3" fill="#FEFECE" filter="url(#f6gbucznjs70v)" height="111.5313" id="FindAdressesWrapper" style="stroke:#A80036;stroke-width:1.5;" width="283" x="1825" y="170"/><ellipse cx="1900.25" cy="190.0938" fill="#ADD1B2" rx="11" ry="11" style="stroke:#A80036;stroke-width:1.0;"/><path d="M1903.0156,185.9688 Q1903.1719,185.75 1903.3594,185.6406 Q1903.5469,185.5313 1903.7656,185.5313 Q1904.1406,185.5313 1904.375,185.7891 Q1904.6094,186.0469 1904.6094,186.6563 L1904.6094,188.1094 Q1904.6094,188.7188 1904.375,188.9844 Q1904.1406,189.25 1903.7656,189.25 Q1903.4219,189.25 1903.2188,189.0469 Q1903.0156,188.8594 1902.9063,188.3438 Q1902.8594,187.9844 1902.6719,187.7969 Q1902.3438,187.4219 1901.7344,187.2031 Q1901.125,186.9844 1900.5,186.9844 Q1899.7344,186.9844 1899.1016,187.3125 Q1898.4688,187.6406 1897.9766,188.3906 Q1897.4844,189.1406 1897.4844,190.1719 L1897.4844,191.2656 Q1897.4844,192.5 1898.375,193.3203 Q1899.2656,194.1406 1900.8594,194.1406 Q1901.7969,194.1406 1902.4531,193.8906 Q1902.8438,193.7344 1903.2656,193.2969 Q1903.5313,193.0313 1903.6797,192.9531 Q1903.8281,192.875 1904.0313,192.875 Q1904.3594,192.875 1904.6172,193.1328 Q1904.875,193.3906 1904.875,193.7344 Q1904.875,194.0781 1904.5313,194.4844 Q1904.0313,195.0625 1903.2344,195.3906 Q1902.1563,195.8438 1900.8594,195.8438 Q1899.3438,195.8438 1898.1406,195.2188 Q1897.1563,194.7188 1896.4688,193.6484 Q1895.7813,192.5781 1895.7813,191.2969 L1895.7813,190.1406 Q1895.7813,188.8125 1896.3984,187.6641 Q1897.0156,186.5156 1898.1094,185.8984 Q1899.2031,185.2813 1900.4375,185.2813 Q1901.1719,185.2813 1901.8203,185.4453 Q1902.4688,185.6094 1903.0156,185.9688 Z " fill="#000000"/><text fill="#000000" font-family="sans-serif" font-size="12" font-style="italic" lengthAdjust="spacing" textLength="48" x="1958.75" y="187.457">«partial»</text><text fill="#000000" font-family="sans-serif" font-size="12" lengthAdjust="spacing" textLength="124" x="1920.75" y="202.5508">FindAdressesWrapper</text><line style="stroke:#A80036;stroke-width:1.5;" x1="1826" x2="2107" y1="210.1875" y2="210.1875"/><line style="stroke:#A80036;stroke-width:1.5;" x1="1826" x2="2107" y1="218.1875" y2="218.1875"/><ellipse cx="1836" cy="229.1875" fill="#84BE84" rx="3" ry="3" style="stroke:#038048;stroke-width:1.0;"/><text fill="#000000" font-family="sans-serif" font-size="11" lengthAdjust="spacing" textLength="204" x="1845" y="233.6064">FindAdressesWrapper(dto:CommandDTO)</text><ellipse cx="1836" cy="243.0234" fill="#84BE84" rx="3" ry="3" style="stroke:#038048;stroke-width:1.0;"/><text fill="#000000" font-family="sans-serif" font-size="11" lengthAdjust="spacing" text-decoration="underline" textLength="161" x="1845" y="247.4424">IsForMe(dto:CommandDTO) : bool</text><ellipse cx="1836" cy="256.8594" fill="#84BE84" rx="3" ry="3" style="stroke:#038048;stroke-width:1.0;"/><text fill="#000000" font-family="sans-serif" font-size="11" lengthAdjust="spacing" text-decoration="underline" textLength="257" x="1845" y="261.2783">ExecuteCommand(dto:CommandDTO) : CommandDTO</text><ellipse cx="1836" cy="270.6953" fill="#84BE84" rx="3" ry="3" style="stroke:#038048;stroke-width:1.0;"/><text fill="#000000" font-family="sans-serif" font-size="11" lengthAdjust="spacing" textLength="215" x="1845" y="275.1143">«partial» ExecuteCommand() : CommandDTO</text><!--MD5=[6e19dd62a802d136f77541c9a65b5007]
class GetAdressWrapper--><rect codeLine="9" fill="#FEFECE" filter="url(#f6gbucznjs70v)" height="111.5313" id="GetAdressWrapper" style="stroke:#A80036;stroke-width:1.5;" width="283" x="1033" y="170"/><ellipse cx="1117.75" cy="190.0938" fill="#ADD1B2" rx="11" ry="11" style="stroke:#A80036;stroke-width:1.0;"/><path d="M1120.5156,185.9688 Q1120.6719,185.75 1120.8594,185.6406 Q1121.0469,185.5313 1121.2656,185.5313 Q1121.6406,185.5313 1121.875,185.7891 Q1122.1094,186.0469 1122.1094,186.6563 L1122.1094,188.1094 Q1122.1094,188.7188 1121.875,188.9844 Q1121.6406,189.25 1121.2656,189.25 Q1120.9219,189.25 1120.7188,189.0469 Q1120.5156,188.8594 1120.4063,188.3438 Q1120.3594,187.9844 1120.1719,187.7969 Q1119.8438,187.4219 1119.2344,187.2031 Q1118.625,186.9844 1118,186.9844 Q1117.2344,186.9844 1116.6016,187.3125 Q1115.9688,187.6406 1115.4766,188.3906 Q1114.9844,189.1406 1114.9844,190.1719 L1114.9844,191.2656 Q1114.9844,192.5 1115.875,193.3203 Q1116.7656,194.1406 1118.3594,194.1406 Q1119.2969,194.1406 1119.9531,193.8906 Q1120.3438,193.7344 1120.7656,193.2969 Q1121.0313,193.0313 1121.1797,192.9531 Q1121.3281,192.875 1121.5313,192.875 Q1121.8594,192.875 1122.1172,193.1328 Q1122.375,193.3906 1122.375,193.7344 Q1122.375,194.0781 1122.0313,194.4844 Q1121.5313,195.0625 1120.7344,195.3906 Q1119.6563,195.8438 1118.3594,195.8438 Q1116.8438,195.8438 1115.6406,195.2188 Q1114.6563,194.7188 1113.9688,193.6484 Q1113.2813,192.5781 1113.2813,191.2969 L1113.2813,190.1406 Q1113.2813,188.8125 1113.8984,187.6641 Q1114.5156,186.5156 1115.6094,185.8984 Q1116.7031,185.2813 1117.9375,185.2813 Q1118.6719,185.2813 1119.3203,185.4453 Q1119.9688,185.6094 1120.5156,185.9688 Z " fill="#000000"/><text fill="#000000" font-family="sans-serif" font-size="12" font-style="italic" lengthAdjust="spacing" textLength="48" x="1166.75" y="187.457">«partial»</text><text fill="#000000" font-family="sans-serif" font-size="12" lengthAdjust="spacing" textLength="105" x="1138.25" y="202.5508">GetAdressWrapper</text><line style="stroke:#A80036;stroke-width:1.5;" x1="1034" x2="1315" y1="210.1875" y2="210.1875"/><line style="stroke:#A80036;stroke-width:1.5;" x1="1034" x2="1315" y1="218.1875" y2="218.1875"/><ellipse cx="1044" cy="229.1875" fill="#84BE84" rx="3" ry="3" style="stroke:#038048;stroke-width:1.0;"/><text fill="#000000" font-family="sans-serif" font-size="11" lengthAdjust="spacing" textLength="189" x="1053" y="233.6064">GetAdressWrapper(dto:CommandDTO)</text><ellipse cx="1044" cy="243.0234" fill="#84BE84" rx="3" ry="3" style="stroke:#038048;stroke-width:1.0;"/><text fill="#000000" font-family="sans-serif" font-size="11" lengthAdjust="spacing" text-decoration="underline" textLength="161" x="1053" y="247.4424">IsForMe(dto:CommandDTO) : bool</text><ellipse cx="1044" cy="256.8594" fill="#84BE84" rx="3" ry="3" style="stroke:#038048;stroke-width:1.0;"/><text fill="#000000" font-family="sans-serif" font-size="11" lengthAdjust="spacing" text-decoration="underline" textLength="257" x="1053" y="261.2783">ExecuteCommand(dto:CommandDTO) : CommandDTO</text><ellipse cx="1044" cy="270.6953" fill="#84BE84" rx="3" ry="3" style="stroke:#038048;stroke-width:1.0;"/><text fill="#000000" font-family="sans-serif" font-size="11" lengthAdjust="spacing" textLength="215" x="1053" y="275.1143">«partial» ExecuteCommand() : CommandDTO</text><!--MD5=[d7ea2e2e46638f75b2cef309ef62bd52]
class SetAdressWrapper--><rect codeLine="15" fill="#FEFECE" filter="url(#f6gbucznjs70v)" height="111.5313" id="SetAdressWrapper" style="stroke:#A80036;stroke-width:1.5;" width="283" x="7" y="170"/><ellipse cx="92.25" cy="190.0938" fill="#ADD1B2" rx="11" ry="11" style="stroke:#A80036;stroke-width:1.0;"/><path d="M95.0156,185.9688 Q95.1719,185.75 95.3594,185.6406 Q95.5469,185.5313 95.7656,185.5313 Q96.1406,185.5313 96.375,185.7891 Q96.6094,186.0469 96.6094,186.6563 L96.6094,188.1094 Q96.6094,188.7188 96.375,188.9844 Q96.1406,189.25 95.7656,189.25 Q95.4219,189.25 95.2188,189.0469 Q95.0156,188.8594 94.9063,188.3438 Q94.8594,187.9844 94.6719,187.7969 Q94.3438,187.4219 93.7344,187.2031 Q93.125,186.9844 92.5,186.9844 Q91.7344,186.9844 91.1016,187.3125 Q90.4688,187.6406 89.9766,188.3906 Q89.4844,189.1406 89.4844,190.1719 L89.4844,191.2656 Q89.4844,192.5 90.375,193.3203 Q91.2656,194.1406 92.8594,194.1406 Q93.7969,194.1406 94.4531,193.8906 Q94.8438,193.7344 95.2656,193.2969 Q95.5313,193.0313 95.6797,192.9531 Q95.8281,192.875 96.0313,192.875 Q96.3594,192.875 96.6172,193.1328 Q96.875,193.3906 96.875,193.7344 Q96.875,194.0781 96.5313,194.4844 Q96.0313,195.0625 95.2344,195.3906 Q94.1563,195.8438 92.8594,195.8438 Q91.3438,195.8438 90.1406,195.2188 Q89.1563,194.7188 88.4688,193.6484 Q87.7813,192.5781 87.7813,191.2969 L87.7813,190.1406 Q87.7813,188.8125 88.3984,187.6641 Q89.0156,186.5156 90.1094,185.8984 Q91.2031,185.2813 92.4375,185.2813 Q93.1719,185.2813 93.8203,185.4453 Q94.4688,185.6094 95.0156,185.9688 Z " fill="#000000"/><text fill="#000000" font-family="sans-serif" font-size="12" font-style="italic" lengthAdjust="spacing" textLength="48" x="140.75" y="187.457">«partial»</text><text fill="#000000" font-family="sans-serif" font-size="12" lengthAdjust="spacing" textLength="104" x="112.75" y="202.5508">SetAdressWrapper</text><line style="stroke:#A80036;stroke-width:1.5;" x1="8" x2="289" y1="210.1875" y2="210.1875"/><line style="stroke:#A80036;stroke-width:1.5;" x1="8" x2="289" y1="218.1875" y2="218.1875"/><ellipse cx="18" cy="229.1875" fill="#84BE84" rx="3" ry="3" style="stroke:#038048;stroke-width:1.0;"/><text fill="#000000" font-family="sans-serif" font-size="11" lengthAdjust="spacing" textLength="188" x="27" y="233.6064">SetAdressWrapper(dto:CommandDTO)</text><ellipse cx="18" cy="243.0234" fill="#84BE84" rx="3" ry="3" style="stroke:#038048;stroke-width:1.0;"/><text fill="#000000" font-family="sans-serif" font-size="11" lengthAdjust="spacing" text-decoration="underline" textLength="161" x="27" y="247.4424">IsForMe(dto:CommandDTO) : bool</text><ellipse cx="18" cy="256.8594" fill="#84BE84" rx="3" ry="3" style="stroke:#038048;stroke-width:1.0;"/><text fill="#000000" font-family="sans-serif" font-size="11" lengthAdjust="spacing" text-decoration="underline" textLength="257" x="27" y="261.2783">ExecuteCommand(dto:CommandDTO) : CommandDTO</text><ellipse cx="18" cy="270.6953" fill="#84BE84" rx="3" ry="3" style="stroke:#038048;stroke-width:1.0;"/><text fill="#000000" font-family="sans-serif" font-size="11" lengthAdjust="spacing" textLength="215" x="27" y="275.1143">«partial» ExecuteCommand() : CommandDTO</text><!--MD5=[e9948f5ac33029c6d753e81ae40d62cf]
class DeleteAdressWrapper--><rect codeLine="21" fill="#FEFECE" filter="url(#f6gbucznjs70v)" height="111.5313" id="DeleteAdressWrapper" style="stroke:#A80036;stroke-width:1.5;" width="283" x="325" y="170"/><ellipse cx="401.25" cy="190.0938" fill="#ADD1B2" rx="11" ry="11" style="stroke:#A80036;stroke-width:1.0;"/><path d="M404.0156,185.9688 Q404.1719,185.75 404.3594,185.6406 Q404.5469,185.5313 404.7656,185.5313 Q405.1406,185.5313 405.375,185.7891 Q405.6094,186.0469 405.6094,186.6563 L405.6094,188.1094 Q405.6094,188.7188 405.375,188.9844 Q405.1406,189.25 404.7656,189.25 Q404.4219,189.25 404.2188,189.0469 Q404.0156,188.8594 403.9063,188.3438 Q403.8594,187.9844 403.6719,187.7969 Q403.3438,187.4219 402.7344,187.2031 Q402.125,186.9844 401.5,186.9844 Q400.7344,186.9844 400.1016,187.3125 Q399.4688,187.6406 398.9766,188.3906 Q398.4844,189.1406 398.4844,190.1719 L398.4844,191.2656 Q398.4844,192.5 399.375,193.3203 Q400.2656,194.1406 401.8594,194.1406 Q402.7969,194.1406 403.4531,193.8906 Q403.8438,193.7344 404.2656,193.2969 Q404.5313,193.0313 404.6797,192.9531 Q404.8281,192.875 405.0313,192.875 Q405.3594,192.875 405.6172,193.1328 Q405.875,193.3906 405.875,193.7344 Q405.875,194.0781 405.5313,194.4844 Q405.0313,195.0625 404.2344,195.3906 Q403.1563,195.8438 401.8594,195.8438 Q400.3438,195.8438 399.1406,195.2188 Q398.1563,194.7188 397.4688,193.6484 Q396.7813,192.5781 396.7813,191.2969 L396.7813,190.1406 Q396.7813,188.8125 397.3984,187.6641 Q398.0156,186.5156 399.1094,185.8984 Q400.2031,185.2813 401.4375,185.2813 Q402.1719,185.2813 402.8203,185.4453 Q403.4688,185.6094 404.0156,185.9688 Z " fill="#000000"/><text fill="#000000" font-family="sans-serif" font-size="12" font-style="italic" lengthAdjust="spacing" textLength="48" x="458.75" y="187.457">«partial»</text><text fill="#000000" font-family="sans-serif" font-size="12" lengthAdjust="spacing" textLength="122" x="421.75" y="202.5508">DeleteAdressWrapper</text><line style="stroke:#A80036;stroke-width:1.5;" x1="326" x2="607" y1="210.1875" y2="210.1875"/><line style="stroke:#A80036;stroke-width:1.5;" x1="326" x2="607" y1="218.1875" y2="218.1875"/><ellipse cx="336" cy="229.1875" fill="#84BE84" rx="3" ry="3" style="stroke:#038048;stroke-width:1.0;"/><text fill="#000000" font-family="sans-serif" font-size="11" lengthAdjust="spacing" textLength="202" x="345" y="233.6064">DeleteAdressWrapper(dto:CommandDTO)</text><ellipse cx="336" cy="243.0234" fill="#84BE84" rx="3" ry="3" style="stroke:#038048;stroke-width:1.0;"/><text fill="#000000" font-family="sans-serif" font-size="11" lengthAdjust="spacing" text-decoration="underline" textLength="161" x="345" y="247.4424">IsForMe(dto:CommandDTO) : bool</text><ellipse cx="336" cy="256.8594" fill="#84BE84" rx="3" ry="3" style="stroke:#038048;stroke-width:1.0;"/><text fill="#000000" font-family="sans-serif" font-size="11" lengthAdjust="spacing" text-decoration="underline" textLength="257" x="345" y="261.2783">ExecuteCommand(dto:CommandDTO) : CommandDTO</text><ellipse cx="336" cy="270.6953" fill="#84BE84" rx="3" ry="3" style="stroke:#038048;stroke-width:1.0;"/><text fill="#000000" font-family="sans-serif" font-size="11" lengthAdjust="spacing" textLength="215" x="345" y="275.1143">«partial» ExecuteCommand() : CommandDTO</text><!--MD5=[9445adbca05695301a39cf2527b3960a]
class AdressTypesDispatcher--><rect codeLine="27" fill="#FEFECE" filter="url(#f6gbucznjs70v)" height="70.0234" id="AdressTypesDispatcher" style="stroke:#A80036;stroke-width:1.5;" width="239" x="2355" y="23.5"/><ellipse cx="2404.25" cy="43.5938" fill="#ADD1B2" rx="11" ry="11" style="stroke:#A80036;stroke-width:1.0;"/><path d="M2407.0156,39.4688 Q2407.1719,39.25 2407.3594,39.1406 Q2407.5469,39.0313 2407.7656,39.0313 Q2408.1406,39.0313 2408.375,39.2891 Q2408.6094,39.5469 2408.6094,40.1563 L2408.6094,41.6094 Q2408.6094,42.2188 2408.375,42.4844 Q2408.1406,42.75 2407.7656,42.75 Q2407.4219,42.75 2407.2188,42.5469 Q2407.0156,42.3594 2406.9063,41.8438 Q2406.8594,41.4844 2406.6719,41.2969 Q2406.3438,40.9219 2405.7344,40.7031 Q2405.125,40.4844 2404.5,40.4844 Q2403.7344,40.4844 2403.1016,40.8125 Q2402.4688,41.1406 2401.9766,41.8906 Q2401.4844,42.6406 2401.4844,43.6719 L2401.4844,44.7656 Q2401.4844,46 2402.375,46.8203 Q2403.2656,47.6406 2404.8594,47.6406 Q2405.7969,47.6406 2406.4531,47.3906 Q2406.8438,47.2344 2407.2656,46.7969 Q2407.5313,46.5313 2407.6797,46.4531 Q2407.8281,46.375 2408.0313,46.375 Q2408.3594,46.375 2408.6172,46.6328 Q2408.875,46.8906 2408.875,47.2344 Q2408.875,47.5781 2408.5313,47.9844 Q2408.0313,48.5625 2407.2344,48.8906 Q2406.1563,49.3438 2404.8594,49.3438 Q2403.3438,49.3438 2402.1406,48.7188 Q2401.1563,48.2188 2400.4688,47.1484 Q2399.7813,46.0781 2399.7813,44.7969 L2399.7813,43.6406 Q2399.7813,42.3125 2400.3984,41.1641 Q2401.0156,40.0156 2402.1094,39.3984 Q2403.2031,38.7813 2404.4375,38.7813 Q2405.1719,38.7813 2405.8203,38.9453 Q2406.4688,39.1094 2407.0156,39.4688 Z " fill="#000000"/><text fill="#000000" font-family="sans-serif" font-size="12" font-style="italic" lengthAdjust="spacing" textLength="42" x="2469.75" y="40.957">«static»</text><text fill="#000000" font-family="sans-serif" font-size="12" lengthAdjust="spacing" textLength="132" x="2424.75" y="56.0508">AdressTypesDispatcher</text><line style="stroke:#A80036;stroke-width:1.5;" x1="2356" x2="2593" y1="63.6875" y2="63.6875"/><line style="stroke:#A80036;stroke-width:1.5;" x1="2356" x2="2593" y1="71.6875" y2="71.6875"/><ellipse cx="2366" cy="82.6875" fill="#84BE84" rx="3" ry="3" style="stroke:#038048;stroke-width:1.0;"/><text fill="#000000" font-family="sans-serif" font-size="11" lengthAdjust="spacing" text-decoration="underline" textLength="213" x="2375" y="87.1064">Dispatch(dto:CommandDTO) : CommandDTO</text><!--MD5=[e644022de7dea015dd09463c37421447]
class List`1--><rect codeLine="114" fill="#FEFECE" filter="url(#f6gbucznjs70v)" height="48" id="List`1" style="stroke:#A80036;stroke-width:1.5;" width="74" x="1732.5" y="450"/><ellipse cx="1747.5" cy="466" fill="#ADD1B2" rx="11" ry="11" style="stroke:#A80036;stroke-width:1.0;"/><path d="M1750.2656,461.875 Q1750.4219,461.6563 1750.6094,461.5469 Q1750.7969,461.4375 1751.0156,461.4375 Q1751.3906,461.4375 1751.625,461.6953 Q1751.8594,461.9531 1751.8594,462.5625 L1751.8594,464.0156 Q1751.8594,464.625 1751.625,464.8906 Q1751.3906,465.1563 1751.0156,465.1563 Q1750.6719,465.1563 1750.4688,464.9531 Q1750.2656,464.7656 1750.1563,464.25 Q1750.1094,463.8906 1749.9219,463.7031 Q1749.5938,463.3281 1748.9844,463.1094 Q1748.375,462.8906 1747.75,462.8906 Q1746.9844,462.8906 1746.3516,463.2188 Q1745.7188,463.5469 1745.2266,464.2969 Q1744.7344,465.0469 1744.7344,466.0781 L1744.7344,467.1719 Q1744.7344,468.4063 1745.625,469.2266 Q1746.5156,470.0469 1748.1094,470.0469 Q1749.0469,470.0469 1749.7031,469.7969 Q1750.0938,469.6406 1750.5156,469.2031 Q1750.7813,468.9375 1750.9297,468.8594 Q1751.0781,468.7813 1751.2813,468.7813 Q1751.6094,468.7813 1751.8672,469.0391 Q1752.125,469.2969 1752.125,469.6406 Q1752.125,469.9844 1751.7813,470.3906 Q1751.2813,470.9688 1750.4844,471.2969 Q1749.4063,471.75 1748.1094,471.75 Q1746.5938,471.75 1745.3906,471.125 Q1744.4063,470.625 1743.7188,469.5547 Q1743.0313,468.4844 1743.0313,467.2031 L1743.0313,466.0469 Q1743.0313,464.7188 1743.6484,463.5703 Q1744.2656,462.4219 1745.3594,461.8047 Q1746.4531,461.1875 1747.6875,461.1875 Q1748.4219,461.1875 1749.0703,461.3516 Q1749.7188,461.5156 1750.2656,461.875 Z " fill="#000000"/><text fill="#000000" font-family="sans-serif" font-size="12" lengthAdjust="spacing" textLength="31" x="1761.5" y="470.9102">List`1</text><rect fill="#FFFFFF" height="17.0938" style="stroke:#000000;stroke-width:1.0;stroke-dasharray:2.0,2.0;" width="9" x="1800.5" y="447"/><text fill="#000000" font-family="sans-serif" font-size="12" font-style="italic" lengthAdjust="spacing" textLength="7" x="1801.5" y="460.457">T</text><line style="stroke:#A80036;stroke-width:1.5;" x1="1733.5" x2="1805.5" y1="482" y2="482"/><line style="stroke:#A80036;stroke-width:1.5;" x1="1733.5" x2="1805.5" y1="490" y2="490"/><!--MD5=[6b1d3384926f1bc892ee196bbd0d7fce]
class BaseDTO--><rect codeLine="68" fill="#FEFECE" filter="url(#f6gbucznjs70v)" height="111.5313" id="BaseDTO" style="stroke:#A80036;stroke-width:1.5;" width="439" x="1351" y="170"/><ellipse cx="1539.25" cy="190.0938" fill="#ADD1B2" rx="11" ry="11" style="stroke:#A80036;stroke-width:1.0;"/><path d="M1542.0156,185.9688 Q1542.1719,185.75 1542.3594,185.6406 Q1542.5469,185.5313 1542.7656,185.5313 Q1543.1406,185.5313 1543.375,185.7891 Q1543.6094,186.0469 1543.6094,186.6563 L1543.6094,188.1094 Q1543.6094,188.7188 1543.375,188.9844 Q1543.1406,189.25 1542.7656,189.25 Q1542.4219,189.25 1542.2188,189.0469 Q1542.0156,188.8594 1541.9063,188.3438 Q1541.8594,187.9844 1541.6719,187.7969 Q1541.3438,187.4219 1540.7344,187.2031 Q1540.125,186.9844 1539.5,186.9844 Q1538.7344,186.9844 1538.1016,187.3125 Q1537.4688,187.6406 1536.9766,188.3906 Q1536.4844,189.1406 1536.4844,190.1719 L1536.4844,191.2656 Q1536.4844,192.5 1537.375,193.3203 Q1538.2656,194.1406 1539.8594,194.1406 Q1540.7969,194.1406 1541.4531,193.8906 Q1541.8438,193.7344 1542.2656,193.2969 Q1542.5313,193.0313 1542.6797,192.9531 Q1542.8281,192.875 1543.0313,192.875 Q1543.3594,192.875 1543.6172,193.1328 Q1543.875,193.3906 1543.875,193.7344 Q1543.875,194.0781 1543.5313,194.4844 Q1543.0313,195.0625 1542.2344,195.3906 Q1541.1563,195.8438 1539.8594,195.8438 Q1538.3438,195.8438 1537.1406,195.2188 Q1536.1563,194.7188 1535.4688,193.6484 Q1534.7813,192.5781 1534.7813,191.2969 L1534.7813,190.1406 Q1534.7813,188.8125 1535.3984,187.6641 Q1536.0156,186.5156 1537.1094,185.8984 Q1538.2031,185.2813 1539.4375,185.2813 Q1540.1719,185.2813 1540.8203,185.4453 Q1541.4688,185.6094 1542.0156,185.9688 Z " fill="#000000"/><text fill="#000000" font-family="sans-serif" font-size="12" font-style="italic" lengthAdjust="spacing" textLength="48" x="1562.75" y="187.457">«partial»</text><text fill="#000000" font-family="sans-serif" font-size="12" lengthAdjust="spacing" textLength="54" x="1559.75" y="202.5508">BaseDTO</text><line style="stroke:#A80036;stroke-width:1.5;" x1="1352" x2="1789" y1="210.1875" y2="210.1875"/><line style="stroke:#A80036;stroke-width:1.5;" x1="1352" x2="1789" y1="218.1875" y2="218.1875"/><polygon fill="#FFFF44" points="1362,224.1875,1366,228.1875,1362,232.1875,1358,228.1875" style="stroke:#B38D22;stroke-width:1.0;"/><text fill="#000000" font-family="sans-serif" font-size="11" lengthAdjust="spacing" textLength="323" x="1371" y="233.6064">StringFromPropertyList(list:List&lt;PropertyDTO&gt;, name:string) : string</text><polygon fill="#FFFF44" points="1362,238.0234,1366,242.0234,1362,246.0234,1358,242.0234" style="stroke:#B38D22;stroke-width:1.0;"/><text fill="#000000" font-family="sans-serif" font-size="11" lengthAdjust="spacing" textLength="390" x="1371" y="247.4424">StringToPropertyList(list:List&lt;PropertyDTO&gt;, name:string, newValue:string) : void</text><polygon fill="#FFFF44" points="1362,251.8594,1366,255.8594,1362,259.8594,1358,255.8594" style="stroke:#B38D22;stroke-width:1.0;"/><text fill="#000000" font-family="sans-serif" font-size="11" lengthAdjust="spacing" textLength="346" x="1371" y="261.2783">BooleanFromPropertyList(list:List&lt;PropertyDTO&gt;, name:string) : Boolean</text><polygon fill="#FFFF44" points="1362,265.6953,1366,269.6953,1362,273.6953,1358,269.6953" style="stroke:#B38D22;stroke-width:1.0;"/><text fill="#000000" font-family="sans-serif" font-size="11" lengthAdjust="spacing" textLength="413" x="1371" y="275.1143">BooleanToPropertyList(list:List&lt;PropertyDTO&gt;, name:string, newValue:Boolean) : void</text><!--MD5=[b9f3d2915b6b8d0c143f32ccec3f745e]
class Guid--><rect fill="#FEFECE" filter="url(#f6gbucznjs70v)" height="48" id="Guid" style="stroke:#A80036;stroke-width:1.5;" width="58" x="1103.5" y="450"/><ellipse cx="1118.5" cy="466" fill="#ADD1B2" rx="11" ry="11" style="stroke:#A80036;stroke-width:1.0;"/><path d="M1121.2656,461.875 Q1121.4219,461.6563 1121.6094,461.5469 Q1121.7969,461.4375 1122.0156,461.4375 Q1122.3906,461.4375 1122.625,461.6953 Q1122.8594,461.9531 1122.8594,462.5625 L1122.8594,464.0156 Q1122.8594,464.625 1122.625,464.8906 Q1122.3906,465.1563 1122.0156,465.1563 Q1121.6719,465.1563 1121.4688,464.9531 Q1121.2656,464.7656 1121.1563,464.25 Q1121.1094,463.8906 1120.9219,463.7031 Q1120.5938,463.3281 1119.9844,463.1094 Q1119.375,462.8906 1118.75,462.8906 Q1117.9844,462.8906 1117.3516,463.2188 Q1116.7188,463.5469 1116.2266,464.2969 Q1115.7344,465.0469 1115.7344,466.0781 L1115.7344,467.1719 Q1115.7344,468.4063 1116.625,469.2266 Q1117.5156,470.0469 1119.1094,470.0469 Q1120.0469,470.0469 1120.7031,469.7969 Q1121.0938,469.6406 1121.5156,469.2031 Q1121.7813,468.9375 1121.9297,468.8594 Q1122.0781,468.7813 1122.2813,468.7813 Q1122.6094,468.7813 1122.8672,469.0391 Q1123.125,469.2969 1123.125,469.6406 Q1123.125,469.9844 1122.7813,470.3906 Q1122.2813,470.9688 1121.4844,471.2969 Q1120.4063,471.75 1119.1094,471.75 Q1117.5938,471.75 1116.3906,471.125 Q1115.4063,470.625 1114.7188,469.5547 Q1114.0313,468.4844 1114.0313,467.2031 L1114.0313,466.0469 Q1114.0313,464.7188 1114.6484,463.5703 Q1115.2656,462.4219 1116.3594,461.8047 Q1117.4531,461.1875 1118.6875,461.1875 Q1119.4219,461.1875 1120.0703,461.3516 Q1120.7188,461.5156 1121.2656,461.875 Z " fill="#000000"/><text fill="#000000" font-family="sans-serif" font-size="12" lengthAdjust="spacing" textLength="26" x="1132.5" y="470.9102">Guid</text><line style="stroke:#A80036;stroke-width:1.5;" x1="1104.5" x2="1160.5" y1="482" y2="482"/><line style="stroke:#A80036;stroke-width:1.5;" x1="1104.5" x2="1160.5" y1="490" y2="490"/><!--MD5=[9df70cf33be424c1b8543b3f439cae89]
class String--><rect fill="#FEFECE" filter="url(#f6gbucznjs70v)" height="48" id="String" style="stroke:#A80036;stroke-width:1.5;" width="64" x="350.5" y="450"/><ellipse cx="365.5" cy="466" fill="#ADD1B2" rx="11" ry="11" style="stroke:#A80036;stroke-width:1.0;"/><path d="M368.2656,461.875 Q368.4219,461.6563 368.6094,461.5469 Q368.7969,461.4375 369.0156,461.4375 Q369.3906,461.4375 369.625,461.6953 Q369.8594,461.9531 369.8594,462.5625 L369.8594,464.0156 Q369.8594,464.625 369.625,464.8906 Q369.3906,465.1563 369.0156,465.1563 Q368.6719,465.1563 368.4688,464.9531 Q368.2656,464.7656 368.1563,464.25 Q368.1094,463.8906 367.9219,463.7031 Q367.5938,463.3281 366.9844,463.1094 Q366.375,462.8906 365.75,462.8906 Q364.9844,462.8906 364.3516,463.2188 Q363.7188,463.5469 363.2266,464.2969 Q362.7344,465.0469 362.7344,466.0781 L362.7344,467.1719 Q362.7344,468.4063 363.625,469.2266 Q364.5156,470.0469 366.1094,470.0469 Q367.0469,470.0469 367.7031,469.7969 Q368.0938,469.6406 368.5156,469.2031 Q368.7813,468.9375 368.9297,468.8594 Q369.0781,468.7813 369.2813,468.7813 Q369.6094,468.7813 369.8672,469.0391 Q370.125,469.2969 370.125,469.6406 Q370.125,469.9844 369.7813,470.3906 Q369.2813,470.9688 368.4844,471.2969 Q367.4063,471.75 366.1094,471.75 Q364.5938,471.75 363.3906,471.125 Q362.4063,470.625 361.7188,469.5547 Q361.0313,468.4844 361.0313,467.2031 L361.0313,466.0469 Q361.0313,464.7188 361.6484,463.5703 Q362.2656,462.4219 363.3594,461.8047 Q364.4531,461.1875 365.6875,461.1875 Q366.4219,461.1875 367.0703,461.3516 Q367.7188,461.5156 368.2656,461.875 Z " fill="#000000"/><text fill="#000000" font-family="sans-serif" font-size="12" lengthAdjust="spacing" textLength="32" x="379.5" y="470.9102">String</text><line style="stroke:#A80036;stroke-width:1.5;" x1="351.5" x2="413.5" y1="482" y2="482"/><line style="stroke:#A80036;stroke-width:1.5;" x1="351.5" x2="413.5" y1="490" y2="490"/><!--MD5=[fe6b2754769bc87cf156126798433078]
class CommandWrapper--><rect codeLine="95" fill="#FEFECE" filter="url(#f6gbucznjs70v)" height="103.3438" id="CommandWrapper" style="stroke:#A80036;stroke-width:1.5;" width="443" x="661" y="7"/><ellipse cx="825.25" cy="23" fill="#ADD1B2" rx="11" ry="11" style="stroke:#A80036;stroke-width:1.0;"/><path d="M828.0156,18.875 Q828.1719,18.6563 828.3594,18.5469 Q828.5469,18.4375 828.7656,18.4375 Q829.1406,18.4375 829.375,18.6953 Q829.6094,18.9531 829.6094,19.5625 L829.6094,21.0156 Q829.6094,21.625 829.375,21.8906 Q829.1406,22.1563 828.7656,22.1563 Q828.4219,22.1563 828.2188,21.9531 Q828.0156,21.7656 827.9063,21.25 Q827.8594,20.8906 827.6719,20.7031 Q827.3438,20.3281 826.7344,20.1094 Q826.125,19.8906 825.5,19.8906 Q824.7344,19.8906 824.1016,20.2188 Q823.4688,20.5469 822.9766,21.2969 Q822.4844,22.0469 822.4844,23.0781 L822.4844,24.1719 Q822.4844,25.4063 823.375,26.2266 Q824.2656,27.0469 825.8594,27.0469 Q826.7969,27.0469 827.4531,26.7969 Q827.8438,26.6406 828.2656,26.2031 Q828.5313,25.9375 828.6797,25.8594 Q828.8281,25.7813 829.0313,25.7813 Q829.3594,25.7813 829.6172,26.0391 Q829.875,26.2969 829.875,26.6406 Q829.875,26.9844 829.5313,27.3906 Q829.0313,27.9688 828.2344,28.2969 Q827.1563,28.75 825.8594,28.75 Q824.3438,28.75 823.1406,28.125 Q822.1563,27.625 821.4688,26.5547 Q820.7813,25.4844 820.7813,24.2031 L820.7813,23.0469 Q820.7813,21.7188 821.3984,20.5703 Q822.0156,19.4219 823.1094,18.8047 Q824.2031,18.1875 825.4375,18.1875 Q826.1719,18.1875 826.8203,18.3516 Q827.4688,18.5156 828.0156,18.875 Z " fill="#000000"/><text fill="#000000" font-family="sans-serif" font-size="12" lengthAdjust="spacing" textLength="106" x="845.75" y="27.9102">CommandWrapper</text><line style="stroke:#A80036;stroke-width:1.5;" x1="662" x2="1103" y1="39" y2="39"/><line style="stroke:#A80036;stroke-width:1.5;" x1="662" x2="1103" y1="47" y2="47"/><ellipse cx="672" cy="58" fill="#84BE84" rx="3" ry="3" style="stroke:#038048;stroke-width:1.0;"/><text fill="#000000" font-family="sans-serif" font-size="11" lengthAdjust="spacing" textLength="183" x="681" y="62.4189">CommandWrapper(dto:CommandDTO)</text><polygon fill="#FFFF44" points="672,66.8359,676,70.8359,672,74.8359,668,70.8359" style="stroke:#B38D22;stroke-width:1.0;"/><text fill="#000000" font-family="sans-serif" font-size="11" lengthAdjust="spacing" textLength="385" x="681" y="76.2549">Get(cmd:CommandDTO, name:string, target:(Func&lt;T&gt; get, Action&lt;T&gt; set)) : void</text><polygon fill="#FFFF44" points="672,80.6719,676,84.6719,672,88.6719,668,84.6719" style="stroke:#B38D22;stroke-width:1.0;"/><text fill="#000000" font-family="sans-serif" font-size="11" lengthAdjust="spacing" textLength="417" x="681" y="90.0908">Get(cmd:CommandDTO, name:string, target:(Func&lt;Guid&gt; get, Action&lt;Guid&gt; set)) : void</text><polygon fill="#FFFF44" points="672,94.5078,676,98.5078,672,102.5078,668,98.5078" style="stroke:#B38D22;stroke-width:1.0;"/><text fill="#000000" font-family="sans-serif" font-size="11" lengthAdjust="spacing" textLength="247" x="681" y="103.9268">Set(cmd:CommandDTO, name:string, value:T) : void</text><!--MD5=[f5d54f60ec6d089d1cb017027d5a65a8]
class CommandDTO--><rect codeLine="103" fill="#FEFECE" filter="url(#f6gbucznjs70v)" height="48" id="CommandDTO" style="stroke:#A80036;stroke-width:1.5;" width="116" x="954.5" y="342"/><ellipse cx="969.5" cy="358" fill="#ADD1B2" rx="11" ry="11" style="stroke:#A80036;stroke-width:1.0;"/><path d="M972.2656,353.875 Q972.4219,353.6563 972.6094,353.5469 Q972.7969,353.4375 973.0156,353.4375 Q973.3906,353.4375 973.625,353.6953 Q973.8594,353.9531 973.8594,354.5625 L973.8594,356.0156 Q973.8594,356.625 973.625,356.8906 Q973.3906,357.1563 973.0156,357.1563 Q972.6719,357.1563 972.4688,356.9531 Q972.2656,356.7656 972.1563,356.25 Q972.1094,355.8906 971.9219,355.7031 Q971.5938,355.3281 970.9844,355.1094 Q970.375,354.8906 969.75,354.8906 Q968.9844,354.8906 968.3516,355.2188 Q967.7188,355.5469 967.2266,356.2969 Q966.7344,357.0469 966.7344,358.0781 L966.7344,359.1719 Q966.7344,360.4063 967.625,361.2266 Q968.5156,362.0469 970.1094,362.0469 Q971.0469,362.0469 971.7031,361.7969 Q972.0938,361.6406 972.5156,361.2031 Q972.7813,360.9375 972.9297,360.8594 Q973.0781,360.7813 973.2813,360.7813 Q973.6094,360.7813 973.8672,361.0391 Q974.125,361.2969 974.125,361.6406 Q974.125,361.9844 973.7813,362.3906 Q973.2813,362.9688 972.4844,363.2969 Q971.4063,363.75 970.1094,363.75 Q968.5938,363.75 967.3906,363.125 Q966.4063,362.625 965.7188,361.5547 Q965.0313,360.4844 965.0313,359.2031 L965.0313,358.0469 Q965.0313,356.7188 965.6484,355.5703 Q966.2656,354.4219 967.3594,353.8047 Q968.4531,353.1875 969.6875,353.1875 Q970.4219,353.1875 971.0703,353.3516 Q971.7188,353.5156 972.2656,353.875 Z " fill="#000000"/><text fill="#000000" font-family="sans-serif" font-size="12" lengthAdjust="spacing" textLength="84" x="983.5" y="362.9102">CommandDTO</text><line style="stroke:#A80036;stroke-width:1.5;" x1="955.5" x2="1069.5" y1="374" y2="374"/><line style="stroke:#A80036;stroke-width:1.5;" x1="955.5" x2="1069.5" y1="382" y2="382"/><!--MD5=[a8c0967d7b66f43265179b07355379df]
class PropertyDTO--><rect codeLine="70" fill="#FEFECE" filter="url(#f6gbucznjs70v)" height="48" id="PropertyDTO" style="stroke:#A80036;stroke-width:1.5;" width="102" x="536.5" y="342"/><ellipse cx="551.5" cy="358" fill="#ADD1B2" rx="11" ry="11" style="stroke:#A80036;stroke-width:1.0;"/><path d="M554.2656,353.875 Q554.4219,353.6563 554.6094,353.5469 Q554.7969,353.4375 555.0156,353.4375 Q555.3906,353.4375 555.625,353.6953 Q555.8594,353.9531 555.8594,354.5625 L555.8594,356.0156 Q555.8594,356.625 555.625,356.8906 Q555.3906,357.1563 555.0156,357.1563 Q554.6719,357.1563 554.4688,356.9531 Q554.2656,356.7656 554.1563,356.25 Q554.1094,355.8906 553.9219,355.7031 Q553.5938,355.3281 552.9844,355.1094 Q552.375,354.8906 551.75,354.8906 Q550.9844,354.8906 550.3516,355.2188 Q549.7188,355.5469 549.2266,356.2969 Q548.7344,357.0469 548.7344,358.0781 L548.7344,359.1719 Q548.7344,360.4063 549.625,361.2266 Q550.5156,362.0469 552.1094,362.0469 Q553.0469,362.0469 553.7031,361.7969 Q554.0938,361.6406 554.5156,361.2031 Q554.7813,360.9375 554.9297,360.8594 Q555.0781,360.7813 555.2813,360.7813 Q555.6094,360.7813 555.8672,361.0391 Q556.125,361.2969 556.125,361.6406 Q556.125,361.9844 555.7813,362.3906 Q555.2813,362.9688 554.4844,363.2969 Q553.4063,363.75 552.1094,363.75 Q550.5938,363.75 549.3906,363.125 Q548.4063,362.625 547.7188,361.5547 Q547.0313,360.4844 547.0313,359.2031 L547.0313,358.0469 Q547.0313,356.7188 547.6484,355.5703 Q548.2656,354.4219 549.3594,353.8047 Q550.4531,353.1875 551.6875,353.1875 Q552.4219,353.1875 553.0703,353.3516 Q553.7188,353.5156 554.2656,353.875 Z " fill="#000000"/><text fill="#000000" font-family="sans-serif" font-size="12" lengthAdjust="spacing" textLength="70" x="565.5" y="362.9102">PropertyDTO</text><line style="stroke:#A80036;stroke-width:1.5;" x1="537.5" x2="637.5" y1="374" y2="374"/><line style="stroke:#A80036;stroke-width:1.5;" x1="537.5" x2="637.5" y1="382" y2="382"/><!--MD5=[a86c46b503d2a734898010b41f2fcc93]
class ObjectDTO--><rect codeLine="72" fill="#FEFECE" filter="url(#f6gbucznjs70v)" height="48" id="ObjectDTO" style="stroke:#A80036;stroke-width:1.5;" width="92" x="1723.5" y="342"/><ellipse cx="1738.5" cy="358" fill="#ADD1B2" rx="11" ry="11" style="stroke:#A80036;stroke-width:1.0;"/><path d="M1741.2656,353.875 Q1741.4219,353.6563 1741.6094,353.5469 Q1741.7969,353.4375 1742.0156,353.4375 Q1742.3906,353.4375 1742.625,353.6953 Q1742.8594,353.9531 1742.8594,354.5625 L1742.8594,356.0156 Q1742.8594,356.625 1742.625,356.8906 Q1742.3906,357.1563 1742.0156,357.1563 Q1741.6719,357.1563 1741.4688,356.9531 Q1741.2656,356.7656 1741.1563,356.25 Q1741.1094,355.8906 1740.9219,355.7031 Q1740.5938,355.3281 1739.9844,355.1094 Q1739.375,354.8906 1738.75,354.8906 Q1737.9844,354.8906 1737.3516,355.2188 Q1736.7188,355.5469 1736.2266,356.2969 Q1735.7344,357.0469 1735.7344,358.0781 L1735.7344,359.1719 Q1735.7344,360.4063 1736.625,361.2266 Q1737.5156,362.0469 1739.1094,362.0469 Q1740.0469,362.0469 1740.7031,361.7969 Q1741.0938,361.6406 1741.5156,361.2031 Q1741.7813,360.9375 1741.9297,360.8594 Q1742.0781,360.7813 1742.2813,360.7813 Q1742.6094,360.7813 1742.8672,361.0391 Q1743.125,361.2969 1743.125,361.6406 Q1743.125,361.9844 1742.7813,362.3906 Q1742.2813,362.9688 1741.4844,363.2969 Q1740.4063,363.75 1739.1094,363.75 Q1737.5938,363.75 1736.3906,363.125 Q1735.4063,362.625 1734.7188,361.5547 Q1734.0313,360.4844 1734.0313,359.2031 L1734.0313,358.0469 Q1734.0313,356.7188 1734.6484,355.5703 Q1735.2656,354.4219 1736.3594,353.8047 Q1737.4531,353.1875 1738.6875,353.1875 Q1739.4219,353.1875 1740.0703,353.3516 Q1740.7188,353.5156 1741.2656,353.875 Z " fill="#000000"/><text fill="#000000" font-family="sans-serif" font-size="12" lengthAdjust="spacing" textLength="60" x="1752.5" y="362.9102">ObjectDTO</text><line style="stroke:#A80036;stroke-width:1.5;" x1="1724.5" x2="1814.5" y1="374" y2="374"/><line style="stroke:#A80036;stroke-width:1.5;" x1="1724.5" x2="1814.5" y1="382" y2="382"/><!--MD5=[ab65f1b894babecd782f1df810423109]
class TypeDTO--><rect codeLine="74" fill="#FEFECE" filter="url(#f6gbucznjs70v)" height="48" id="TypeDTO" style="stroke:#A80036;stroke-width:1.5;" width="83" x="1324" y="342"/><ellipse cx="1339" cy="358" fill="#ADD1B2" rx="11" ry="11" style="stroke:#A80036;stroke-width:1.0;"/><path d="M1341.7656,353.875 Q1341.9219,353.6563 1342.1094,353.5469 Q1342.2969,353.4375 1342.5156,353.4375 Q1342.8906,353.4375 1343.125,353.6953 Q1343.3594,353.9531 1343.3594,354.5625 L1343.3594,356.0156 Q1343.3594,356.625 1343.125,356.8906 Q1342.8906,357.1563 1342.5156,357.1563 Q1342.1719,357.1563 1341.9688,356.9531 Q1341.7656,356.7656 1341.6563,356.25 Q1341.6094,355.8906 1341.4219,355.7031 Q1341.0938,355.3281 1340.4844,355.1094 Q1339.875,354.8906 1339.25,354.8906 Q1338.4844,354.8906 1337.8516,355.2188 Q1337.2188,355.5469 1336.7266,356.2969 Q1336.2344,357.0469 1336.2344,358.0781 L1336.2344,359.1719 Q1336.2344,360.4063 1337.125,361.2266 Q1338.0156,362.0469 1339.6094,362.0469 Q1340.5469,362.0469 1341.2031,361.7969 Q1341.5938,361.6406 1342.0156,361.2031 Q1342.2813,360.9375 1342.4297,360.8594 Q1342.5781,360.7813 1342.7813,360.7813 Q1343.1094,360.7813 1343.3672,361.0391 Q1343.625,361.2969 1343.625,361.6406 Q1343.625,361.9844 1343.2813,362.3906 Q1342.7813,362.9688 1341.9844,363.2969 Q1340.9063,363.75 1339.6094,363.75 Q1338.0938,363.75 1336.8906,363.125 Q1335.9063,362.625 1335.2188,361.5547 Q1334.5313,360.4844 1334.5313,359.2031 L1334.5313,358.0469 Q1334.5313,356.7188 1335.1484,355.5703 Q1335.7656,354.4219 1336.8594,353.8047 Q1337.9531,353.1875 1339.1875,353.1875 Q1339.9219,353.1875 1340.5703,353.3516 Q1341.2188,353.5156 1341.7656,353.875 Z " fill="#000000"/><text fill="#000000" font-family="sans-serif" font-size="12" lengthAdjust="spacing" textLength="51" x="1353" y="362.9102">TypeDTO</text><line style="stroke:#A80036;stroke-width:1.5;" x1="1325" x2="1406" y1="374" y2="374"/><line style="stroke:#A80036;stroke-width:1.5;" x1="1325" x2="1406" y1="382" y2="382"/><!--MD5=[c1f063b1d619a33d7306ce784b596c98]
class BaseTypesDispatcher--><rect codeLine="76" fill="#FEFECE" filter="url(#f6gbucznjs70v)" height="70.0234" id="BaseTypesDispatcher" style="stroke:#A80036;stroke-width:1.5;" width="239" x="2629" y="23.5"/><ellipse cx="2683.25" cy="43.5938" fill="#ADD1B2" rx="11" ry="11" style="stroke:#A80036;stroke-width:1.0;"/><path d="M2686.0156,39.4688 Q2686.1719,39.25 2686.3594,39.1406 Q2686.5469,39.0313 2686.7656,39.0313 Q2687.1406,39.0313 2687.375,39.2891 Q2687.6094,39.5469 2687.6094,40.1563 L2687.6094,41.6094 Q2687.6094,42.2188 2687.375,42.4844 Q2687.1406,42.75 2686.7656,42.75 Q2686.4219,42.75 2686.2188,42.5469 Q2686.0156,42.3594 2685.9063,41.8438 Q2685.8594,41.4844 2685.6719,41.2969 Q2685.3438,40.9219 2684.7344,40.7031 Q2684.125,40.4844 2683.5,40.4844 Q2682.7344,40.4844 2682.1016,40.8125 Q2681.4688,41.1406 2680.9766,41.8906 Q2680.4844,42.6406 2680.4844,43.6719 L2680.4844,44.7656 Q2680.4844,46 2681.375,46.8203 Q2682.2656,47.6406 2683.8594,47.6406 Q2684.7969,47.6406 2685.4531,47.3906 Q2685.8438,47.2344 2686.2656,46.7969 Q2686.5313,46.5313 2686.6797,46.4531 Q2686.8281,46.375 2687.0313,46.375 Q2687.3594,46.375 2687.6172,46.6328 Q2687.875,46.8906 2687.875,47.2344 Q2687.875,47.5781 2687.5313,47.9844 Q2687.0313,48.5625 2686.2344,48.8906 Q2685.1563,49.3438 2683.8594,49.3438 Q2682.3438,49.3438 2681.1406,48.7188 Q2680.1563,48.2188 2679.4688,47.1484 Q2678.7813,46.0781 2678.7813,44.7969 L2678.7813,43.6406 Q2678.7813,42.3125 2679.3984,41.1641 Q2680.0156,40.0156 2681.1094,39.3984 Q2682.2031,38.7813 2683.4375,38.7813 Q2684.1719,38.7813 2684.8203,38.9453 Q2685.4688,39.1094 2686.0156,39.4688 Z " fill="#000000"/><text fill="#000000" font-family="sans-serif" font-size="12" font-style="italic" lengthAdjust="spacing" textLength="42" x="2743.75" y="40.957">«static»</text><text fill="#000000" font-family="sans-serif" font-size="12" lengthAdjust="spacing" textLength="122" x="2703.75" y="56.0508">BaseTypesDispatcher</text><line style="stroke:#A80036;stroke-width:1.5;" x1="2630" x2="2867" y1="63.6875" y2="63.6875"/><line style="stroke:#A80036;stroke-width:1.5;" x1="2630" x2="2867" y1="71.6875" y2="71.6875"/><ellipse cx="2640" cy="82.6875" fill="#84BE84" rx="3" ry="3" style="stroke:#038048;stroke-width:1.0;"/><text fill="#000000" font-family="sans-serif" font-size="11" lengthAdjust="spacing" text-decoration="underline" textLength="213" x="2649" y="87.1064">Dispatch(dto:CommandDTO) : CommandDTO</text><!--MD5=[2e5eef0b4d63f4248e617bf3425bfdf1]
class ObjectWrapper--><rect codeLine="92" fill="#FEFECE" filter="url(#f6gbucznjs70v)" height="61.8359" id="ObjectWrapper" style="stroke:#A80036;stroke-width:1.5;" width="177" x="2143" y="195"/><ellipse cx="2186.35" cy="211" fill="#ADD1B2" rx="11" ry="11" style="stroke:#A80036;stroke-width:1.0;"/><path d="M2189.1156,206.875 Q2189.2719,206.6563 2189.4594,206.5469 Q2189.6469,206.4375 2189.8656,206.4375 Q2190.2406,206.4375 2190.475,206.6953 Q2190.7094,206.9531 2190.7094,207.5625 L2190.7094,209.0156 Q2190.7094,209.625 2190.475,209.8906 Q2190.2406,210.1563 2189.8656,210.1563 Q2189.5219,210.1563 2189.3188,209.9531 Q2189.1156,209.7656 2189.0063,209.25 Q2188.9594,208.8906 2188.7719,208.7031 Q2188.4438,208.3281 2187.8344,208.1094 Q2187.225,207.8906 2186.6,207.8906 Q2185.8344,207.8906 2185.2016,208.2188 Q2184.5688,208.5469 2184.0766,209.2969 Q2183.5844,210.0469 2183.5844,211.0781 L2183.5844,212.1719 Q2183.5844,213.4063 2184.475,214.2266 Q2185.3656,215.0469 2186.9594,215.0469 Q2187.8969,215.0469 2188.5531,214.7969 Q2188.9438,214.6406 2189.3656,214.2031 Q2189.6313,213.9375 2189.7797,213.8594 Q2189.9281,213.7813 2190.1313,213.7813 Q2190.4594,213.7813 2190.7172,214.0391 Q2190.975,214.2969 2190.975,214.6406 Q2190.975,214.9844 2190.6313,215.3906 Q2190.1313,215.9688 2189.3344,216.2969 Q2188.2563,216.75 2186.9594,216.75 Q2185.4438,216.75 2184.2406,216.125 Q2183.2563,215.625 2182.5688,214.5547 Q2181.8813,213.4844 2181.8813,212.2031 L2181.8813,211.0469 Q2181.8813,209.7188 2182.4984,208.5703 Q2183.1156,207.4219 2184.2094,206.8047 Q2185.3031,206.1875 2186.5375,206.1875 Q2187.2719,206.1875 2187.9203,206.3516 Q2188.5688,206.5156 2189.1156,206.875 Z " fill="#000000"/><text fill="#000000" font-family="sans-serif" font-size="12" lengthAdjust="spacing" textLength="82" x="2206.65" y="215.9102">ObjectWrapper</text><line style="stroke:#A80036;stroke-width:1.5;" x1="2144" x2="2319" y1="227" y2="227"/><line style="stroke:#A80036;stroke-width:1.5;" x1="2144" x2="2319" y1="235" y2="235"/><ellipse cx="2154" cy="246" fill="#84BE84" rx="3" ry="3" style="stroke:#038048;stroke-width:1.0;"/><text fill="#000000" font-family="sans-serif" font-size="11" lengthAdjust="spacing" textLength="151" x="2163" y="250.4189">ObjectWrapper(dto:ObjectDTO)</text><!--MD5=[2f720059ec7752b7edd24ab483589f66]
class SampleCommandWrapper--><rect codeLine="105" fill="#FEFECE" filter="url(#f6gbucznjs70v)" height="111.5313" id="SampleCommandWrapper" style="stroke:#A80036;stroke-width:1.5;" width="283" x="643" y="170"/><ellipse cx="705.75" cy="190.0938" fill="#ADD1B2" rx="11" ry="11" style="stroke:#A80036;stroke-width:1.0;"/><path d="M708.5156,185.9688 Q708.6719,185.75 708.8594,185.6406 Q709.0469,185.5313 709.2656,185.5313 Q709.6406,185.5313 709.875,185.7891 Q710.1094,186.0469 710.1094,186.6563 L710.1094,188.1094 Q710.1094,188.7188 709.875,188.9844 Q709.6406,189.25 709.2656,189.25 Q708.9219,189.25 708.7188,189.0469 Q708.5156,188.8594 708.4063,188.3438 Q708.3594,187.9844 708.1719,187.7969 Q707.8438,187.4219 707.2344,187.2031 Q706.625,186.9844 706,186.9844 Q705.2344,186.9844 704.6016,187.3125 Q703.9688,187.6406 703.4766,188.3906 Q702.9844,189.1406 702.9844,190.1719 L702.9844,191.2656 Q702.9844,192.5 703.875,193.3203 Q704.7656,194.1406 706.3594,194.1406 Q707.2969,194.1406 707.9531,193.8906 Q708.3438,193.7344 708.7656,193.2969 Q709.0313,193.0313 709.1797,192.9531 Q709.3281,192.875 709.5313,192.875 Q709.8594,192.875 710.1172,193.1328 Q710.375,193.3906 710.375,193.7344 Q710.375,194.0781 710.0313,194.4844 Q709.5313,195.0625 708.7344,195.3906 Q707.6563,195.8438 706.3594,195.8438 Q704.8438,195.8438 703.6406,195.2188 Q702.6563,194.7188 701.9688,193.6484 Q701.2813,192.5781 701.2813,191.2969 L701.2813,190.1406 Q701.2813,188.8125 701.8984,187.6641 Q702.5156,186.5156 703.6094,185.8984 Q704.7031,185.2813 705.9375,185.2813 Q706.6719,185.2813 707.3203,185.4453 Q707.9688,185.6094 708.5156,185.9688 Z " fill="#000000"/><text fill="#000000" font-family="sans-serif" font-size="12" font-style="italic" lengthAdjust="spacing" textLength="48" x="776.75" y="187.457">«partial»</text><text fill="#000000" font-family="sans-serif" font-size="12" lengthAdjust="spacing" textLength="149" x="726.25" y="202.5508">SampleCommandWrapper</text><line style="stroke:#A80036;stroke-width:1.5;" x1="644" x2="925" y1="210.1875" y2="210.1875"/><line style="stroke:#A80036;stroke-width:1.5;" x1="644" x2="925" y1="218.1875" y2="218.1875"/><ellipse cx="654" cy="229.1875" fill="#84BE84" rx="3" ry="3" style="stroke:#038048;stroke-width:1.0;"/><text fill="#000000" font-family="sans-serif" font-size="11" lengthAdjust="spacing" textLength="218" x="663" y="233.6064">SampleCommandWrapper(dto:CommandDTO)</text><ellipse cx="654" cy="243.0234" fill="#84BE84" rx="3" ry="3" style="stroke:#038048;stroke-width:1.0;"/><text fill="#000000" font-family="sans-serif" font-size="11" lengthAdjust="spacing" text-decoration="underline" textLength="161" x="663" y="247.4424">IsForMe(dto:CommandDTO) : bool</text><ellipse cx="654" cy="256.8594" fill="#84BE84" rx="3" ry="3" style="stroke:#038048;stroke-width:1.0;"/><text fill="#000000" font-family="sans-serif" font-size="11" lengthAdjust="spacing" text-decoration="underline" textLength="257" x="663" y="261.2783">ExecuteCommand(dto:CommandDTO) : CommandDTO</text><ellipse cx="654" cy="270.6953" fill="#84BE84" rx="3" ry="3" style="stroke:#038048;stroke-width:1.0;"/><text fill="#000000" font-family="sans-serif" font-size="11" lengthAdjust="spacing" textLength="215" x="663" y="275.1143">«partial» ExecuteCommand() : CommandDTO</text><!--MD5=[ba03fc88c0e35b013a46564b4a2ab72f]
class CommandTypesDispatcher--><rect codeLine="111" fill="#FEFECE" filter="url(#f6gbucznjs70v)" height="70.0234" id="CommandTypesDispatcher" style="stroke:#A80036;stroke-width:1.5;" width="239" x="2355" y="191"/><ellipse cx="2394.75" cy="211.0938" fill="#ADD1B2" rx="11" ry="11" style="stroke:#A80036;stroke-width:1.0;"/><path d="M2397.5156,206.9688 Q2397.6719,206.75 2397.8594,206.6406 Q2398.0469,206.5313 2398.2656,206.5313 Q2398.6406,206.5313 2398.875,206.7891 Q2399.1094,207.0469 2399.1094,207.6563 L2399.1094,209.1094 Q2399.1094,209.7188 2398.875,209.9844 Q2398.6406,210.25 2398.2656,210.25 Q2397.9219,210.25 2397.7188,210.0469 Q2397.5156,209.8594 2397.4063,209.3438 Q2397.3594,208.9844 2397.1719,208.7969 Q2396.8438,208.4219 2396.2344,208.2031 Q2395.625,207.9844 2395,207.9844 Q2394.2344,207.9844 2393.6016,208.3125 Q2392.9688,208.6406 2392.4766,209.3906 Q2391.9844,210.1406 2391.9844,211.1719 L2391.9844,212.2656 Q2391.9844,213.5 2392.875,214.3203 Q2393.7656,215.1406 2395.3594,215.1406 Q2396.2969,215.1406 2396.9531,214.8906 Q2397.3438,214.7344 2397.7656,214.2969 Q2398.0313,214.0313 2398.1797,213.9531 Q2398.3281,213.875 2398.5313,213.875 Q2398.8594,213.875 2399.1172,214.1328 Q2399.375,214.3906 2399.375,214.7344 Q2399.375,215.0781 2399.0313,215.4844 Q2398.5313,216.0625 2397.7344,216.3906 Q2396.6563,216.8438 2395.3594,216.8438 Q2393.8438,216.8438 2392.6406,216.2188 Q2391.6563,215.7188 2390.9688,214.6484 Q2390.2813,213.5781 2390.2813,212.2969 L2390.2813,211.1406 Q2390.2813,209.8125 2390.8984,208.6641 Q2391.5156,207.5156 2392.6094,206.8984 Q2393.7031,206.2813 2394.9375,206.2813 Q2395.6719,206.2813 2396.3203,206.4453 Q2396.9688,206.6094 2397.5156,206.9688 Z " fill="#000000"/><text fill="#000000" font-family="sans-serif" font-size="12" font-style="italic" lengthAdjust="spacing" textLength="42" x="2469.25" y="208.457">«static»</text><text fill="#000000" font-family="sans-serif" font-size="12" lengthAdjust="spacing" textLength="152" x="2414.25" y="223.5508">CommandTypesDispatcher</text><line style="stroke:#A80036;stroke-width:1.5;" x1="2356" x2="2593" y1="231.1875" y2="231.1875"/><line style="stroke:#A80036;stroke-width:1.5;" x1="2356" x2="2593" y1="239.1875" y2="239.1875"/><ellipse cx="2366" cy="250.1875" fill="#84BE84" rx="3" ry="3" style="stroke:#038048;stroke-width:1.0;"/><text fill="#000000" font-family="sans-serif" font-size="11" lengthAdjust="spacing" text-decoration="underline" textLength="213" x="2375" y="254.6064">Dispatch(dto:CommandDTO) : CommandDTO</text><!--MD5=[31d9d567a1d652152733c83e75189006]
class Boolean--><rect fill="#FEFECE" filter="url(#f6gbucznjs70v)" height="48" id="Boolean" style="stroke:#A80036;stroke-width:1.5;" width="78" x="1105.5" y="342"/><ellipse cx="1120.5" cy="358" fill="#ADD1B2" rx="11" ry="11" style="stroke:#A80036;stroke-width:1.0;"/><path d="M1123.2656,353.875 Q1123.4219,353.6563 1123.6094,353.5469 Q1123.7969,353.4375 1124.0156,353.4375 Q1124.3906,353.4375 1124.625,353.6953 Q1124.8594,353.9531 1124.8594,354.5625 L1124.8594,356.0156 Q1124.8594,356.625 1124.625,356.8906 Q1124.3906,357.1563 1124.0156,357.1563 Q1123.6719,357.1563 1123.4688,356.9531 Q1123.2656,356.7656 1123.1563,356.25 Q1123.1094,355.8906 1122.9219,355.7031 Q1122.5938,355.3281 1121.9844,355.1094 Q1121.375,354.8906 1120.75,354.8906 Q1119.9844,354.8906 1119.3516,355.2188 Q1118.7188,355.5469 1118.2266,356.2969 Q1117.7344,357.0469 1117.7344,358.0781 L1117.7344,359.1719 Q1117.7344,360.4063 1118.625,361.2266 Q1119.5156,362.0469 1121.1094,362.0469 Q1122.0469,362.0469 1122.7031,361.7969 Q1123.0938,361.6406 1123.5156,361.2031 Q1123.7813,360.9375 1123.9297,360.8594 Q1124.0781,360.7813 1124.2813,360.7813 Q1124.6094,360.7813 1124.8672,361.0391 Q1125.125,361.2969 1125.125,361.6406 Q1125.125,361.9844 1124.7813,362.3906 Q1124.2813,362.9688 1123.4844,363.2969 Q1122.4063,363.75 1121.1094,363.75 Q1119.5938,363.75 1118.3906,363.125 Q1117.4063,362.625 1116.7188,361.5547 Q1116.0313,360.4844 1116.0313,359.2031 L1116.0313,358.0469 Q1116.0313,356.7188 1116.6484,355.5703 Q1117.2656,354.4219 1118.3594,353.8047 Q1119.4531,353.1875 1120.6875,353.1875 Q1121.4219,353.1875 1122.0703,353.3516 Q1122.7188,353.5156 1123.2656,353.875 Z " fill="#000000"/><text fill="#000000" font-family="sans-serif" font-size="12" lengthAdjust="spacing" textLength="46" x="1134.5" y="362.9102">Boolean</text><line style="stroke:#A80036;stroke-width:1.5;" x1="1106.5" x2="1182.5" y1="374" y2="374"/><line style="stroke:#A80036;stroke-width:1.5;" x1="1106.5" x2="1182.5" y1="382" y2="382"/><!--MD5=[ac77ca89eaf889a9982f78fc59015e29]
class WeatherForecast--><rect codeLine="125" fill="#FEFECE" filter="url(#f6gbucznjs70v)" height="89.5078" id="WeatherForecast" style="stroke:#A80036;stroke-width:1.5;" width="174" x="2903.5" y="13.5"/><ellipse cx="2940.1" cy="29.5" fill="#ADD1B2" rx="11" ry="11" style="stroke:#A80036;stroke-width:1.0;"/><path d="M2942.8656,25.375 Q2943.0219,25.1563 2943.2094,25.0469 Q2943.3969,24.9375 2943.6156,24.9375 Q2943.9906,24.9375 2944.225,25.1953 Q2944.4594,25.4531 2944.4594,26.0625 L2944.4594,27.5156 Q2944.4594,28.125 2944.225,28.3906 Q2943.9906,28.6563 2943.6156,28.6563 Q2943.2719,28.6563 2943.0688,28.4531 Q2942.8656,28.2656 2942.7563,27.75 Q2942.7094,27.3906 2942.5219,27.2031 Q2942.1938,26.8281 2941.5844,26.6094 Q2940.975,26.3906 2940.35,26.3906 Q2939.5844,26.3906 2938.9516,26.7188 Q2938.3188,27.0469 2937.8266,27.7969 Q2937.3344,28.5469 2937.3344,29.5781 L2937.3344,30.6719 Q2937.3344,31.9063 2938.225,32.7266 Q2939.1156,33.5469 2940.7094,33.5469 Q2941.6469,33.5469 2942.3031,33.2969 Q2942.6938,33.1406 2943.1156,32.7031 Q2943.3813,32.4375 2943.5297,32.3594 Q2943.6781,32.2813 2943.8813,32.2813 Q2944.2094,32.2813 2944.4672,32.5391 Q2944.725,32.7969 2944.725,33.1406 Q2944.725,33.4844 2944.3813,33.8906 Q2943.8813,34.4688 2943.0844,34.7969 Q2942.0063,35.25 2940.7094,35.25 Q2939.1938,35.25 2937.9906,34.625 Q2937.0063,34.125 2936.3188,33.0547 Q2935.6313,31.9844 2935.6313,30.7031 L2935.6313,29.5469 Q2935.6313,28.2188 2936.2484,27.0703 Q2936.8656,25.9219 2937.9594,25.3047 Q2939.0531,24.6875 2940.2875,24.6875 Q2941.0219,24.6875 2941.6703,24.8516 Q2942.3188,25.0156 2942.8656,25.375 Z " fill="#000000"/><text fill="#000000" font-family="sans-serif" font-size="12" lengthAdjust="spacing" textLength="94" x="2958.9" y="34.4102">WeatherForecast</text><line style="stroke:#A80036;stroke-width:1.5;" x1="2904.5" x2="3076.5" y1="45.5" y2="45.5"/><ellipse cx="2914.5" cy="56.5" rx="3" ry="3" style="stroke:#038048;stroke-width:1.0;fill:none;"/><text fill="#000000" font-family="sans-serif" font-size="11" lengthAdjust="spacing" textLength="148" x="2923.5" y="60.9189">TemperatureC : int «get» «set»</text><ellipse cx="2914.5" cy="70.3359" rx="3" ry="3" style="stroke:#038048;stroke-width:1.0;fill:none;"/><text fill="#000000" font-family="sans-serif" font-size="11" lengthAdjust="spacing" textLength="117" x="2923.5" y="74.7549">TemperatureF : int «get»</text><ellipse cx="2914.5" cy="84.1719" rx="3" ry="3" style="stroke:#038048;stroke-width:1.0;fill:none;"/><text fill="#000000" font-family="sans-serif" font-size="11" lengthAdjust="spacing" textLength="141" x="2923.5" y="88.5908">Summary : string «get» «set»</text><line style="stroke:#A80036;stroke-width:1.5;" x1="2904.5" x2="3076.5" y1="95.0078" y2="95.0078"/><!--MD5=[20ddef7090025b04fb973268620c0974]
class DateTime--><rect fill="#FEFECE" filter="url(#f6gbucznjs70v)" height="48" id="DateTime" style="stroke:#A80036;stroke-width:1.5;" width="86" x="2947.5" y="202"/><ellipse cx="2962.5" cy="218" fill="#ADD1B2" rx="11" ry="11" style="stroke:#A80036;stroke-width:1.0;"/><path d="M2965.2656,213.875 Q2965.4219,213.6563 2965.6094,213.5469 Q2965.7969,213.4375 2966.0156,213.4375 Q2966.3906,213.4375 2966.625,213.6953 Q2966.8594,213.9531 2966.8594,214.5625 L2966.8594,216.0156 Q2966.8594,216.625 2966.625,216.8906 Q2966.3906,217.1563 2966.0156,217.1563 Q2965.6719,217.1563 2965.4688,216.9531 Q2965.2656,216.7656 2965.1563,216.25 Q2965.1094,215.8906 2964.9219,215.7031 Q2964.5938,215.3281 2963.9844,215.1094 Q2963.375,214.8906 2962.75,214.8906 Q2961.9844,214.8906 2961.3516,215.2188 Q2960.7188,215.5469 2960.2266,216.2969 Q2959.7344,217.0469 2959.7344,218.0781 L2959.7344,219.1719 Q2959.7344,220.4063 2960.625,221.2266 Q2961.5156,222.0469 2963.1094,222.0469 Q2964.0469,222.0469 2964.7031,221.7969 Q2965.0938,221.6406 2965.5156,221.2031 Q2965.7813,220.9375 2965.9297,220.8594 Q2966.0781,220.7813 2966.2813,220.7813 Q2966.6094,220.7813 2966.8672,221.0391 Q2967.125,221.2969 2967.125,221.6406 Q2967.125,221.9844 2966.7813,222.3906 Q2966.2813,222.9688 2965.4844,223.2969 Q2964.4063,223.75 2963.1094,223.75 Q2961.5938,223.75 2960.3906,223.125 Q2959.4063,222.625 2958.7188,221.5547 Q2958.0313,220.4844 2958.0313,219.2031 L2958.0313,218.0469 Q2958.0313,216.7188 2958.6484,215.5703 Q2959.2656,214.4219 2960.3594,213.8047 Q2961.4531,213.1875 2962.6875,213.1875 Q2963.4219,213.1875 2964.0703,213.3516 Q2964.7188,213.5156 2965.2656,213.875 Z " fill="#000000"/><text fill="#000000" font-family="sans-serif" font-size="12" lengthAdjust="spacing" textLength="54" x="2976.5" y="222.9102">DateTime</text><line style="stroke:#A80036;stroke-width:1.5;" x1="2948.5" x2="3032.5" y1="234" y2="234"/><line style="stroke:#A80036;stroke-width:1.5;" x1="2948.5" x2="3032.5" y1="242" y2="242"/><!--MD5=[78563b2dced031dcc99154e54e28d438]
reverse link BaseDTO to AdressDTO--><path codeLine="32" d="M1331.04,282.17 C970.93,335.21 872.64,299.11 518.5,342 C489.26,345.54 456.72,350.99 430.81,355.69 " fill="none" id="BaseDTO-backto-AdressDTO" style="stroke:#A80036;stroke-width:1.0;"/><polygon fill="none" points="1330.09,275.24,1350.9,279.2,1332.16,289.08,1330.09,275.24" style="stroke:#A80036;stroke-width:1.0;"/><!--MD5=[fbaf78f1916dfdbf30330f0660ca3284]
link AdressDTO to Guid--><path codeLine="33" d="M430.59,375.53 C456.58,380.04 489.26,385.55 518.5,390 C738.98,423.54 1005.06,457.19 1098.27,468.78 " fill="none" id="AdressDTO-to-Guid" style="stroke:#A80036;stroke-width:1.0;"/><polygon fill="#A80036" points="1103.37,469.41,1094.9302,464.3336,1098.408,468.7951,1093.9464,472.2728,1103.37,469.41" style="stroke:#A80036;stroke-width:1.0;"/><text fill="#000000" font-family="sans-serif" font-size="13" lengthAdjust="spacing" textLength="38" x="1057.3985" y="464.849">TypeId</text><!--MD5=[b2555b513fccde1a3f7f8fb3f3fcdb23]
link AdressDTO to String--><path codeLine="34" d="M334.13,376.97 C290.13,398.93 293.92,450.86 345.5,467.66 " fill="none" id="AdressDTO-to-String" style="stroke:#A80036;stroke-width:1.0;"/><polygon fill="#A80036" points="350.3,469.08,342.8149,462.6789,345.5077,467.6537,340.5329,470.3465,350.3,469.08" style="stroke:#A80036;stroke-width:1.0;"/><text fill="#000000" font-family="sans-serif" font-size="13" lengthAdjust="spacing" textLength="41" x="301.5597" y="464.7033">Name1</text><!--MD5=[b2555b513fccde1a3f7f8fb3f3fcdb23]
link AdressDTO to String--><path codeLine="35" d="M338.33,390 C324.98,411.35 327.67,442.38 346.42,459.82 " fill="none" id="AdressDTO-to-String-1" style="stroke:#A80036;stroke-width:1.0;"/><polygon fill="#A80036" points="350.38,463.12,346.0235,454.287,346.5377,459.9205,340.9043,460.4347,350.38,463.12" style="stroke:#A80036;stroke-width:1.0;"/><text fill="#000000" font-family="sans-serif" font-size="13" lengthAdjust="spacing" textLength="41" x="301.6514" y="476.2179">Name2</text><!--MD5=[b2555b513fccde1a3f7f8fb3f3fcdb23]
link AdressDTO to String--><path codeLine="36" d="M360.42,390 C355.41,406 354.92,427.45 358.93,444.53 " fill="none" id="AdressDTO-to-String-2" style="stroke:#A80036;stroke-width:1.0;"/><polygon fill="#A80036" points="360.32,449.68,361.8355,439.9484,359.0165,444.8529,354.1121,442.034,360.32,449.68" style="stroke:#A80036;stroke-width:1.0;"/><text fill="#000000" font-family="sans-serif" font-size="13" lengthAdjust="spacing" textLength="48" x="301.0636" y="439.34">Adress1</text><!--MD5=[b2555b513fccde1a3f7f8fb3f3fcdb23]
link AdressDTO to String--><path codeLine="37" d="M382.5,390 C382.5,406 382.5,427.45 382.5,444.53 " fill="none" id="AdressDTO-to-String-3" style="stroke:#A80036;stroke-width:1.0;"/><polygon fill="#A80036" points="382.5,449.68,386.5,440.68,382.5,444.68,378.5,440.68,382.5,449.68" style="stroke:#A80036;stroke-width:1.0;"/><text fill="#000000" font-family="sans-serif" font-size="13" lengthAdjust="spacing" textLength="48" x="388.35" y="439.34">Adress2</text><!--MD5=[b2555b513fccde1a3f7f8fb3f3fcdb23]
link AdressDTO to String--><path codeLine="38" d="M404.58,390 C409.59,406 410.08,427.45 406.07,444.53 " fill="none" id="AdressDTO-to-String-4" style="stroke:#A80036;stroke-width:1.0;"/><polygon fill="#A80036" points="404.68,449.68,410.8879,442.034,405.9835,444.8529,403.1645,439.9484,404.68,449.68" style="stroke:#A80036;stroke-width:1.0;"/><text fill="#000000" font-family="sans-serif" font-size="13" lengthAdjust="spacing" textLength="80" x="422.1681" y="458.6346">Housenumber</text><!--MD5=[b2555b513fccde1a3f7f8fb3f3fcdb23]
link AdressDTO to String--><path codeLine="39" d="M426.67,390 C440.02,411.35 437.33,442.38 418.58,459.82 " fill="none" id="AdressDTO-to-String-5" style="stroke:#A80036;stroke-width:1.0;"/><polygon fill="#A80036" points="414.62,463.12,424.0957,460.4347,418.4623,459.9205,418.9765,454.287,414.62,463.12" style="stroke:#A80036;stroke-width:1.0;"/><text fill="#000000" font-family="sans-serif" font-size="13" lengthAdjust="spacing" textLength="23" x="422.3898" y="476.1334">City</text><!--MD5=[b2555b513fccde1a3f7f8fb3f3fcdb23]
link AdressDTO to String--><path codeLine="40" d="M430.87,376.97 C474.87,398.93 471.08,450.86 419.5,467.66 " fill="none" id="AdressDTO-to-String-6" style="stroke:#A80036;stroke-width:1.0;"/><polygon fill="#A80036" points="414.7,469.08,424.4671,470.3465,419.4923,467.6537,422.1851,462.6789,414.7,469.08" style="stroke:#A80036;stroke-width:1.0;"/><text fill="#000000" font-family="sans-serif" font-size="13" lengthAdjust="spacing" textLength="55" x="422.3491" y="482.9923">Postcode</text><!--MD5=[bc3fa4595b76ff57a3597bc204395357]
reverse link CommandWrapper to FindAdressesWrapper--><path codeLine="41" d="M1124.34,74.16 C1312.4,88.97 1578.89,117.44 1807.5,170 C1813.19,171.31 1818.97,172.75 1824.78,174.29 " fill="none" id="CommandWrapper-backto-FindAdressesWrapper" style="stroke:#A80036;stroke-width:1.0;"/><polygon fill="none" points="1123.79,81.14,1104.39,72.62,1124.87,67.18,1123.79,81.14" style="stroke:#A80036;stroke-width:1.0;"/><!--MD5=[606431aec55ec72d298e7cd6b8ef7e35]
link FindAdressesWrapper to Guid--><path codeLine="42" d="M1832.88,282.04 C1791.53,300.09 1746.17,320.94 1705.5,342 C1668.68,361.06 1664.4,375.64 1625.5,390 C1460.77,450.8 1248.51,467.34 1166.72,471.6 " fill="none" id="FindAdressesWrapper-to-Guid" style="stroke:#A80036;stroke-width:1.0;"/><polygon fill="#A80036" points="1161.53,471.87,1170.7236,475.4025,1166.5234,471.6132,1170.3127,467.413,1161.53,471.87" style="stroke:#A80036;stroke-width:1.0;"/><text fill="#000000" font-family="sans-serif" font-size="13" lengthAdjust="spacing" textLength="38" x="1169.485" y="486.3664">TypeId</text><!--MD5=[cce213057d432eb82882cbbb94d45eda]
link FindAdressesWrapper to CommandDTO--><path codeLine="43" d="M1824.83,277.97 C1819.01,279.44 1813.22,280.79 1807.5,282 C1493.32,348.34 1402.81,281.24 1087.5,342 C1083.64,342.74 1079.71,343.61 1075.75,344.56 " fill="none" id="FindAdressesWrapper-to-CommandDTO" style="stroke:#A80036;stroke-width:1.0;"/><polygon fill="#A80036" points="1070.74,345.82,1080.4426,347.511,1075.5899,344.604,1078.4969,339.7512,1070.74,345.82" style="stroke:#A80036;stroke-width:1.0;"/><text fill="#000000" font-family="sans-serif" font-size="13" lengthAdjust="spacing" textLength="27" x="1070.5608" y="335.495">Cmd</text><!--MD5=[27cf3143032e106437423afc79db652f]
link FindAdressesWrapper to String--><path codeLine="44" d="M1824.9,276.45 C1819.03,278.35 1813.21,280.21 1807.5,282 C1723.12,308.47 1511.55,374.41 1424.5,390 C1036.05,459.55 555.69,470.83 419.84,472.65 " fill="none" id="FindAdressesWrapper-to-String" style="stroke:#A80036;stroke-width:1.0;"/><polygon fill="#A80036" points="414.77,472.72,423.8151,476.6169,419.7697,472.6629,423.7237,468.6174,414.77,472.72" style="stroke:#A80036;stroke-width:1.0;"/><text fill="#000000" font-family="sans-serif" font-size="13" lengthAdjust="spacing" textLength="66" x="422.3168" y="469.1624">SearchText</text><!--MD5=[5a6bab8df4ee897455db558573a747c0]
link FindAdressesWrapper to List`1--><path codeLine="45" d="M1922.29,282.21 C1881.57,333.05 1822.86,406.37 1791.39,445.67 " fill="none" id="FindAdressesWrapper-to-List`1" style="stroke:#A80036;stroke-width:1.0;"/><polygon fill="#A80036" points="1788.06,449.83,1796.8118,445.3127,1791.1887,445.9298,1790.5715,440.3068,1788.06,449.83" style="stroke:#A80036;stroke-width:1.0;"/><text fill="#000000" font-family="sans-serif" font-size="13" lengthAdjust="spacing" textLength="120" x="1808.191" y="439.1266">Result&lt;AdressDTO&gt;</text><!--MD5=[abc28d54e4e35ca537f3987bc7e15e70]
reverse link CommandWrapper to GetAdressWrapper--><path codeLine="46" d="M989.28,120.02 C1018.04,136.32 1049,153.87 1077.21,169.86 " fill="none" id="CommandWrapper-backto-GetAdressWrapper" style="stroke:#A80036;stroke-width:1.0;"/><polygon fill="none" points="985.64,126.01,971.7,110.05,992.55,113.83,985.64,126.01" style="stroke:#A80036;stroke-width:1.0;"/><!--MD5=[4fecfaffadcdb8f999294a6fae315043]
link GetAdressWrapper to Guid--><path codeLine="47" d="M1181.79,282.22 C1189.29,314.39 1195.89,355.32 1183.5,390 C1175.94,411.17 1160.4,430.82 1147.86,445.68 " fill="none" id="GetAdressWrapper-to-Guid" style="stroke:#A80036;stroke-width:1.0;"/><polygon fill="#A80036" points="1144.41,449.74,1153.2777,445.4548,1147.6404,445.9236,1147.1715,440.2862,1144.41,449.74" style="stroke:#A80036;stroke-width:1.0;"/><text fill="#000000" font-family="sans-serif" font-size="13" lengthAdjust="spacing" textLength="38" x="1104.5932" y="439.0135">TypeId</text><!--MD5=[4fecfaffadcdb8f999294a6fae315043]
link GetAdressWrapper to Guid--><path codeLine="49" d="M1212.37,282.22 C1224.29,314.39 1230.89,355.32 1218.5,390 C1208.9,416.86 1186.46,441.28 1166.12,456.57 " fill="none" id="GetAdressWrapper-to-Guid-1" style="stroke:#A80036;stroke-width:1.0;"/><polygon fill="#A80036" points="1161.82,459.69,1171.4552,457.6496,1165.8692,456.7568,1166.7621,451.1709,1161.82,459.69" style="stroke:#A80036;stroke-width:1.0;"/><text fill="#000000" font-family="sans-serif" font-size="13" lengthAdjust="spacing" textLength="10" x="1169.3275" y="452.3433">Id</text><!--MD5=[f7ec91347518850ce83f09c4f315327d]
link GetAdressWrapper to CommandDTO--><path codeLine="48" d="M1109.54,282.33 C1086.95,301.58 1062.63,322.29 1043.99,338.17 " fill="none" id="GetAdressWrapper-to-CommandDTO" style="stroke:#A80036;stroke-width:1.0;"/><polygon fill="#A80036" points="1039.86,341.69,1049.3026,338.8904,1043.6633,338.4443,1044.1094,332.8051,1039.86,341.69" style="stroke:#A80036;stroke-width:1.0;"/><text fill="#000000" font-family="sans-serif" font-size="13" lengthAdjust="spacing" textLength="27" x="1016.4116" y="330.9507">Cmd</text><!--MD5=[abb75d88c1b5c30140cab650c6b382a7]
link GetAdressWrapper to AdressDTO--><path codeLine="50" d="M1032.93,262.91 C1003.48,269.76 972.56,276.5 943.5,282 C756.06,317.46 707.01,312.76 518.5,342 C491.1,346.25 460.67,351.36 435.55,355.68 " fill="none" id="GetAdressWrapper-to-AdressDTO" style="stroke:#A80036;stroke-width:1.0;"/><polygon fill="#A80036" points="430.6,356.54,440.1455,358.9657,435.5285,355.6972,438.7969,351.0801,430.6,356.54" style="stroke:#A80036;stroke-width:1.0;"/><text fill="#000000" font-family="sans-serif" font-size="13" lengthAdjust="spacing" textLength="37" x="438.3006" y="352.0366">Result</text><!--MD5=[9cbca43eb24129da06ce5f221e81d34d]
reverse link CommandWrapper to SetAdressWrapper--><path codeLine="51" d="M640.91,97.99 C537.46,116.51 415.78,141.03 307.5,170 C301.86,171.51 296.12,173.12 290.35,174.8 " fill="none" id="CommandWrapper-backto-SetAdressWrapper" style="stroke:#A80036;stroke-width:1.0;"/><polygon fill="none" points="639.76,91.08,660.68,94.48,642.21,104.87,639.76,91.08" style="stroke:#A80036;stroke-width:1.0;"/><!--MD5=[ab67425edc20ab324a0e79a72355eade]
link SetAdressWrapper to Guid--><path codeLine="52" d="M290.08,281.89 C290.22,281.93 290.36,281.96 290.5,282 C442.5,321.12 489.81,291.76 638.5,342 C682.19,356.76 687.12,374.33 730.5,390 C861.13,437.18 1026.85,461.74 1098.22,469.88 " fill="none" id="SetAdressWrapper-to-Guid" style="stroke:#A80036;stroke-width:1.0;"/><polygon fill="#A80036" points="1103.2,470.44,1094.7015,465.4625,1098.2311,469.8831,1093.8105,473.4128,1103.2,470.44" style="stroke:#A80036;stroke-width:1.0;"/><text fill="#000000" font-family="sans-serif" font-size="13" lengthAdjust="spacing" textLength="38" x="1057.5022" y="484.6708">TypeId</text><!--MD5=[ab67425edc20ab324a0e79a72355eade]
link SetAdressWrapper to Guid--><path codeLine="54" d="M290.39,272.04 C302.23,275.66 314.04,279.05 325.5,282 C477.5,321.12 524.81,291.76 673.5,342 C717.19,356.76 722.12,374.33 765.5,390 C884.27,432.9 1032.05,457.1 1098.41,467.25 " fill="none" id="SetAdressWrapper-to-Guid-1" style="stroke:#A80036;stroke-width:1.0;"/><polygon fill="#A80036" points="1103.43,468.02,1095.1394,462.7034,1098.4876,467.2629,1093.9281,470.6112,1103.43,468.02" style="stroke:#A80036;stroke-width:1.0;"/><text fill="#000000" font-family="sans-serif" font-size="13" lengthAdjust="spacing" textLength="10" x="1085.5513" y="462.3229">Id</text><!--MD5=[64be510668cf52f4c15ed6243423dac0]
link SetAdressWrapper to CommandDTO--><path codeLine="53" d="M290.22,277.72 C296.03,279.26 301.81,280.7 307.5,282 C429.19,309.87 799.82,345.61 949.15,359.31 " fill="none" id="SetAdressWrapper-to-CommandDTO" style="stroke:#A80036;stroke-width:1.0;"/><polygon fill="#A80036" points="954.37,359.79,945.7741,354.9827,949.391,359.3322,945.0415,362.9491,954.37,359.79" style="stroke:#A80036;stroke-width:1.0;"/><text fill="#000000" font-family="sans-serif" font-size="13" lengthAdjust="spacing" textLength="27" x="919.5355" y="373.5001">Cmd</text><!--MD5=[94a885cca7ba0d929ad0698c9a0e22a6]
link SetAdressWrapper to AdressDTO--><path codeLine="55" d="M229.47,282.14 C262.63,302.09 300,323.66 329.63,339.78 " fill="none" id="SetAdressWrapper-to-AdressDTO" style="stroke:#A80036;stroke-width:1.0;"/><polygon fill="#A80036" points="334.31,342.33,328.3048,334.5238,329.9145,339.9467,324.4916,341.5565,334.31,342.33" style="stroke:#A80036;stroke-width:1.0;"/><text fill="#000000" font-family="sans-serif" font-size="13" lengthAdjust="spacing" textLength="41" x="285.3677" y="336.1836">Adress</text><!--MD5=[94a885cca7ba0d929ad0698c9a0e22a6]
link SetAdressWrapper to AdressDTO--><path codeLine="56" d="M255.25,282.14 C289.41,301.87 324.72,323.17 349.61,339.24 " fill="none" id="SetAdressWrapper-to-AdressDTO-1" style="stroke:#A80036;stroke-width:1.0;"/><polygon fill="#A80036" points="353.83,341.97,348.462,333.7126,349.6371,339.2461,344.1037,340.4212,353.83,341.97" style="stroke:#A80036;stroke-width:1.0;"/><text fill="#000000" font-family="sans-serif" font-size="13" lengthAdjust="spacing" textLength="37" x="351.2239" y="331.3025">Result</text><!--MD5=[9b08d2a45fc0a2255361495ba25c3e76]
reverse link CommandWrapper to DeleteAdressWrapper--><path codeLine="57" d="M736.73,117.49 C693.99,134.5 647.39,153.04 605.1,169.86 " fill="none" id="CommandWrapper-backto-DeleteAdressWrapper" style="stroke:#A80036;stroke-width:1.0;"/><polygon fill="none" points="734.25,110.94,755.43,110.05,739.43,123.95,734.25,110.94" style="stroke:#A80036;stroke-width:1.0;"/><!--MD5=[7ec9028265da5144379fbe690513b73e]
link DeleteAdressWrapper to Guid--><path codeLine="58" d="M589.1,282.07 C693.17,325.49 829.51,380.28 856.5,390 C941.93,420.75 1045.16,452.14 1098.44,465.85 " fill="none" id="DeleteAdressWrapper-to-Guid" style="stroke:#A80036;stroke-width:1.0;"/><polygon fill="#A80036" points="1103.44,467.12,1095.6957,461.0352,1098.5927,465.8939,1093.7339,468.7909,1103.44,467.12" style="stroke:#A80036;stroke-width:1.0;"/><text fill="#000000" font-family="sans-serif" font-size="13" lengthAdjust="spacing" textLength="38" x="1085.835" y="438.8827">TypeId</text><!--MD5=[7ec9028265da5144379fbe690513b73e]
link DeleteAdressWrapper to Guid--><path codeLine="60" d="M608.16,278.64 C720.86,322.55 863.79,380.03 891.5,390 C964.59,416.31 1050.69,443.08 1098.13,458.85 " fill="none" id="DeleteAdressWrapper-to-Guid-1" style="stroke:#A80036;stroke-width:1.0;"/><polygon fill="#A80036" points="1103.16,460.53,1095.8928,453.8826,1098.418,458.9446,1093.3561,461.4698,1103.16,460.53" style="stroke:#A80036;stroke-width:1.0;"/><text fill="#000000" font-family="sans-serif" font-size="13" lengthAdjust="spacing" textLength="10" x="1085.6481" y="453.367">Id</text><!--MD5=[68babcd854570148b1daf17688fbb69c]
link DeleteAdressWrapper to CommandDTO--><path codeLine="59" d="M608.39,277.04 C614.16,278.77 619.87,280.43 625.5,282 C738.19,313.45 872.17,339.78 949.27,353.89 " fill="none" id="DeleteAdressWrapper-to-CommandDTO" style="stroke:#A80036;stroke-width:1.0;"/><polygon fill="#A80036" points="954.27,354.8,946.1378,349.2441,949.3518,353.8993,944.6967,357.1133,954.27,354.8" style="stroke:#A80036;stroke-width:1.0;"/><text fill="#000000" font-family="sans-serif" font-size="13" lengthAdjust="spacing" textLength="27" x="919.4245" y="350.2143">Cmd</text><!--MD5=[136bec06811b5527b422fe58fcd88141]
link DeleteAdressWrapper to AdressDTO--><path codeLine="61" d="M432.82,282.33 C421.3,301.25 408.92,321.6 399.32,337.37 " fill="none" id="DeleteAdressWrapper-to-AdressDTO" style="stroke:#A80036;stroke-width:1.0;"/><polygon fill="#A80036" points="396.69,341.69,404.7863,336.082,399.2897,337.419,397.9527,331.9224,396.69,341.69" style="stroke:#A80036;stroke-width:1.0;"/><text fill="#000000" font-family="sans-serif" font-size="13" lengthAdjust="spacing" textLength="37" x="405.0668" y="330.9507">Result</text><!--MD5=[be3a97b884d7bb8890e18b1f911f5268]
link BaseDTO to Guid--><path codeLine="81" d="M1504.16,282.04 C1472.34,317.67 1433.63,362.41 1389.5,390 C1317.42,435.06 1220.25,456.29 1166.98,465.83 " fill="none" id="BaseDTO-to-Guid" style="stroke:#A80036;stroke-width:1.0;"/><polygon fill="#A80036" points="1161.96,466.71,1171.519,469.0819,1166.8836,465.8394,1170.1261,461.2041,1161.96,466.71" style="stroke:#A80036;stroke-width:1.0;"/><text fill="#000000" font-family="sans-serif" font-size="13" lengthAdjust="spacing" textLength="38" x="1169.3804" y="461.8908">TypeId</text><!--MD5=[be3a97b884d7bb8890e18b1f911f5268]
link BaseDTO to Guid--><path codeLine="82" d="M1533.8,282.04 C1507.34,317.67 1468.63,362.41 1424.5,390 C1340.99,442.2 1223.82,462.42 1166.62,469.53 " fill="none" id="BaseDTO-to-Guid-1" style="stroke:#A80036;stroke-width:1.0;"/><polygon fill="#A80036" points="1161.61,470.14,1171.0254,473.0296,1166.5738,469.5392,1170.0641,465.0875,1161.61,470.14" style="stroke:#A80036;stroke-width:1.0;"/><text fill="#000000" font-family="sans-serif" font-size="13" lengthAdjust="spacing" textLength="10" x="1169.7434" y="486.1706">Id</text><!--MD5=[be3a97b884d7bb8890e18b1f911f5268]
link BaseDTO to Guid--><path codeLine="83" d="M1563.43,282.04 C1542.34,317.67 1503.63,362.41 1459.5,390 C1366.94,447.85 1233.03,466.42 1166.73,471.4 " fill="none" id="BaseDTO-to-Guid-2" style="stroke:#A80036;stroke-width:1.0;"/><polygon fill="#A80036" points="1161.68,471.77,1170.9428,475.1167,1166.6672,471.4127,1170.3712,467.1372,1161.68,471.77" style="stroke:#A80036;stroke-width:1.0;"/><text fill="#000000" font-family="sans-serif" font-size="13" lengthAdjust="spacing" textLength="28" x="1169.3714" y="486.3242">Type</text><!--MD5=[2cc8b6df816638932ff19f7ae8e08ba0]
link PropertyDTO to Guid--><path codeLine="84" d="M638.89,383.03 C647.72,385.53 656.84,387.96 665.5,390 C825.57,427.7 1020.1,457.09 1097.91,468.19 " fill="none" id="PropertyDTO-to-Guid" style="stroke:#A80036;stroke-width:1.0;"/><polygon fill="#A80036" points="1103.31,468.96,1094.9598,463.7375,1098.3594,468.2589,1093.838,471.6585,1103.31,468.96" style="stroke:#A80036;stroke-width:1.0;"/><text fill="#000000" font-family="sans-serif" font-size="13" lengthAdjust="spacing" textLength="38" x="1057.6297" y="482.9549">TypeId</text><!--MD5=[d5f4c30c7cb8eb2847647aca0481e46f]
link PropertyDTO to String--><path codeLine="85" d="M536.34,388.07 C499.93,405.39 452.21,429.97 419.42,448.23 " fill="none" id="PropertyDTO-to-String" style="stroke:#A80036;stroke-width:1.0;"/><polygon fill="#A80036" points="414.7,450.88,424.5065,449.9677,419.0613,448.4348,420.5942,442.9896,414.7,450.88" style="stroke:#A80036;stroke-width:1.0;"/><text fill="#000000" font-family="sans-serif" font-size="13" lengthAdjust="spacing" textLength="34" x="422.5413" y="443.4434">Name</text><!--MD5=[d5f4c30c7cb8eb2847647aca0481e46f]
link PropertyDTO to String--><path codeLine="86" d="M554.37,390 C517.13,411.01 457.76,441.39 419.14,458.97 " fill="none" id="PropertyDTO-to-String-1" style="stroke:#A80036;stroke-width:1.0;"/><polygon fill="#A80036" points="414.54,461.05,424.3887,460.9929,419.0972,458.9928,421.0972,453.7013,414.54,461.05" style="stroke:#A80036;stroke-width:1.0;"/><text fill="#000000" font-family="sans-serif" font-size="13" lengthAdjust="spacing" textLength="33" x="395.9145" y="439.329">Value</text><!--MD5=[3920cdde0ef99465ed1599e18a1d09e5]
reverse link BaseDTO to ObjectDTO--><path codeLine="87" d="M1666.77,293.76 C1691.78,311.11 1717.07,328.64 1736.3,341.97 " fill="none" id="BaseDTO-backto-ObjectDTO" style="stroke:#A80036;stroke-width:1.0;"/><polygon fill="none" points="1662.45,299.29,1650.01,282.14,1670.43,287.78,1662.45,299.29" style="stroke:#A80036;stroke-width:1.0;"/><!--MD5=[ae4b2e8b4ef91d484150733ac744b15c]
link ObjectDTO to Guid--><path codeLine="88" d="M1723.46,382.72 C1714.59,385.41 1705.31,387.98 1696.5,390 C1498.36,435.49 1255.08,461.42 1166.66,469.89 " fill="none" id="ObjectDTO-to-Guid" style="stroke:#A80036;stroke-width:1.0;"/><polygon fill="#A80036" points="1161.56,470.37,1170.9063,473.4759,1166.5363,469.8838,1170.1284,465.5138,1161.56,470.37" style="stroke:#A80036;stroke-width:1.0;"/><text fill="#000000" font-family="sans-serif" font-size="13" lengthAdjust="spacing" textLength="38" x="1149.213" y="438.6569">TypeId</text><!--MD5=[044e50fa495cf138e42c0a7a2d101165]
link ObjectDTO to List`1--><path codeLine="89" d="M1769.5,390 C1769.5,406 1769.5,427.45 1769.5,444.53 " fill="none" id="ObjectDTO-to-List`1" style="stroke:#A80036;stroke-width:1.0;"/><polygon fill="#A80036" points="1769.5,449.68,1773.5,440.68,1769.5,444.68,1765.5,440.68,1769.5,449.68" style="stroke:#A80036;stroke-width:1.0;"/><text fill="#000000" font-family="sans-serif" font-size="13" lengthAdjust="spacing" textLength="150" x="1601.2188" y="439.34">Properties&lt;PropertyDTO&gt;</text><!--MD5=[d40922a5f4b5f53a84548686e17be8ce]
reverse link BaseDTO to TypeDTO--><path codeLine="90" d="M1471.7,293.51 C1445.81,310.94 1419.61,328.58 1399.71,341.97 " fill="none" id="BaseDTO-backto-TypeDTO" style="stroke:#A80036;stroke-width:1.0;"/><polygon fill="none" points="1468.09,287.5,1488.59,282.14,1475.91,299.11,1468.09,287.5" style="stroke:#A80036;stroke-width:1.0;"/><!--MD5=[5c447c056dfaa167e42a9155323e8f7a]
link TypeDTO to Guid--><path codeLine="91" d="M1323.84,385.95 C1278.85,406.42 1208.02,438.64 1166.33,457.61 " fill="none" id="TypeDTO-to-Guid" style="stroke:#A80036;stroke-width:1.0;"/><polygon fill="#A80036" points="1161.64,459.74,1171.4884,459.6456,1166.1894,457.6656,1168.1694,452.3666,1161.64,459.74" style="stroke:#A80036;stroke-width:1.0;"/><text fill="#000000" font-family="sans-serif" font-size="13" lengthAdjust="spacing" textLength="38" x="1169.6132" y="453.5774">TypeId</text><!--MD5=[219bd3936f376d031e8c298317b20e94]
link ObjectWrapper to ObjectDTO--><path codeLine="101" d="M2179.84,257.09 C2162.93,266.04 2143.78,275.25 2125.5,282 C2020.27,320.87 1890.64,345.63 1820.47,357.24 " fill="none" id="ObjectWrapper-to-ObjectDTO" style="stroke:#A80036;stroke-width:1.0;"/><polygon fill="#A80036" points="1815.52,358.05,1825.0505,360.5339,1820.4535,357.2373,1823.7501,352.6403,1815.52,358.05" style="stroke:#A80036;stroke-width:1.0;"/><text fill="#000000" font-family="sans-serif" font-size="13" lengthAdjust="spacing" textLength="25" x="1823.3836" y="353.4255">_dto</text><!--MD5=[67880a3a229e4f21214e7372b1fe529c]
link CommandWrapper to CommandDTO--><path codeLine="102" d="M912.69,110.05 C923.13,128.57 934.47,149.91 943.5,170 C969.42,227.68 992.33,298.28 1004.1,336.72 " fill="none" id="CommandWrapper-to-CommandDTO" style="stroke:#A80036;stroke-width:1.0;"/><polygon fill="#A80036" points="1005.62,341.71,1006.8251,331.9351,1004.1636,336.9268,999.172,334.2653,1005.62,341.71" style="stroke:#A80036;stroke-width:1.0;"/><text fill="#000000" font-family="sans-serif" font-size="13" lengthAdjust="spacing" textLength="27" x="973.3976" y="330.9758">Cmd</text><!--MD5=[9714f00bbee80ca7b140c29ae529c8eb]
reverse link BaseDTO to CommandDTO--><path codeLine="116" d="M1331.43,283.21 C1222.77,308.89 1112.76,335.13 1087.5,342 C1081.98,343.5 1076.25,345.13 1070.54,346.8 " fill="none" id="BaseDTO-backto-CommandDTO" style="stroke:#A80036;stroke-width:1.0;"/><polygon fill="none" points="1329.89,276.38,1350.97,278.6,1333.11,290.01,1329.89,276.38" style="stroke:#A80036;stroke-width:1.0;"/><!--MD5=[748fc960db8404b389e3e2dd41b16478]
link CommandDTO to Guid--><path codeLine="117" d="M1038.54,390 C1057.28,406.55 1082.61,428.93 1102.25,446.28 " fill="none" id="CommandDTO-to-Guid" style="stroke:#A80036;stroke-width:1.0;"/><polygon fill="#A80036" points="1106.1,449.68,1102.0138,440.7188,1102.3567,446.3653,1096.7102,446.7082,1106.1,449.68" style="stroke:#A80036;stroke-width:1.0;"/><text fill="#000000" font-family="sans-serif" font-size="13" lengthAdjust="spacing" textLength="38" x="1057.6013" y="439.7418">TypeId</text><!--MD5=[7643b4e9f5d3ec841d55a0a29d6a7102]
link CommandDTO to Boolean--><path codeLine="118" d="M1082.51,366 C1082.51,366 1089.31,366 1092.16,366 " fill="none" id="CommandDTO-Boolean" style="stroke:#A80036;stroke-width:1.0;"/><polygon fill="#A80036" points="1105.48,366,1096.48,362,1100.48,366,1096.48,370,1105.48,366" style="stroke:#A80036;stroke-width:1.0;"/><line style="stroke:#A80036;stroke-width:1.0;" x1="1100.48" x2="1092.48" y1="366" y2="366"/><polygon fill="#FFFFFF" points="1070.51,366,1076.51,370,1082.51,366,1076.51,362,1070.51,366" style="stroke:#A80036;stroke-width:1.0;"/><text fill="#000000" font-family="sans-serif" font-size="13" lengthAdjust="spacing" textLength="58" x="1039.0783" y="347.1694">Response</text><!--MD5=[4578dd9431dc4b19b962c6ee8c717b6c]
link CommandDTO to List`1--><path codeLine="119" d="M1082.4371,388.8487 C1082.4371,388.8487 1086.22,389.73 1087.5,390 C1320.7,439.54 1605.49,462.32 1719.16,469.92 " fill="none" id="CommandDTO-List`1" style="stroke:#A80036;stroke-width:1.0;"/><polygon fill="#A80036" points="1732.16,470.78,1723.4383,466.2048,1727.1705,470.4558,1722.9196,474.188,1732.16,470.78" style="stroke:#A80036;stroke-width:1.0;"/><line style="stroke:#A80036;stroke-width:1.0;" x1="1727.1705" x2="1719.185" y1="470.4558" y2="469.93"/><polygon fill="#FFFFFF" points="1070.79,385.96,1075.6507,391.2867,1082.4371,388.8487,1077.5765,383.522,1070.79,385.96" style="stroke:#A80036;stroke-width:1.0;"/><text fill="#000000" font-family="sans-serif" font-size="13" lengthAdjust="spacing" textLength="154" x="1570.4778" y="467.5331">Arguments&lt;PropertyDTO&gt;</text><!--MD5=[1dcbafcc1a6e0f16ed85ca39a22f8e0c]
reverse link CommandWrapper to SampleCommandWrapper--><path codeLine="120" d="M842.25,127.48 C833.9,141.58 825.19,156.28 817.15,169.86 " fill="none" id="CommandWrapper-backto-SampleCommandWrapper" style="stroke:#A80036;stroke-width:1.0;"/><polygon fill="none" points="836.35,123.7,852.56,110.05,848.4,130.83,836.35,123.7" style="stroke:#A80036;stroke-width:1.0;"/><!--MD5=[6158de49482057db5420d29be73619ed]
link SampleCommandWrapper to Guid--><path codeLine="121" d="M825.9,282.14 C854.06,316.69 893.86,360.17 936.5,390 C988,426.03 1057.59,450.82 1098.49,463.4 " fill="none" id="SampleCommandWrapper-to-Guid" style="stroke:#A80036;stroke-width:1.0;"/><polygon fill="#A80036" points="1103.34,464.88,1095.8953,458.432,1098.5568,463.4236,1093.5651,466.0851,1103.34,464.88" style="stroke:#A80036;stroke-width:1.0;"/><text fill="#000000" font-family="sans-serif" font-size="13" lengthAdjust="spacing" textLength="38" x="1057.3635" y="459.5687">TypeId</text><!--MD5=[ec91f5bc263fb467e5451ee323227901]
link SampleCommandWrapper to CommandDTO--><path codeLine="122" d="M875.59,282.14 C908.19,301.87 943.39,323.17 969.94,339.24 " fill="none" id="SampleCommandWrapper-to-CommandDTO" style="stroke:#A80036;stroke-width:1.0;"/><polygon fill="#A80036" points="974.46,341.97,968.852,333.8737,970.189,339.3703,964.6924,340.7073,974.46,341.97" style="stroke:#A80036;stroke-width:1.0;"/><text fill="#000000" font-family="sans-serif" font-size="13" lengthAdjust="spacing" textLength="27" x="934.2529" y="331.3025">Cmd</text><!--MD5=[2bc87cbe907fab5bf33e2f1168f28590]
link SampleCommandWrapper to String--><path codeLine="123" d="M642.93,277.12 C601.24,294.76 556.61,316.63 518.5,342 C473.71,371.82 430.45,417.25 405.17,446.02 " fill="none" id="SampleCommandWrapper-to-String" style="stroke:#A80036;stroke-width:1.0;"/><polygon fill="#A80036" points="401.87,449.79,410.8057,445.6484,405.1615,446.0262,404.7837,440.382,401.87,449.79" style="stroke:#A80036;stroke-width:1.0;"/><text fill="#000000" font-family="sans-serif" font-size="13" lengthAdjust="spacing" textLength="50" x="350.4273" y="439.0763">FirstOne</text><!--MD5=[261c833e76cba9e885fc18e8a9d80f94]
link SampleCommandWrapper to Boolean--><path codeLine="124" d="M926.17,280.07 C977.12,299.34 1034.98,321.44 1087.5,342 C1091.73,343.66 1096.13,345.4 1100.53,347.15 " fill="none" id="SampleCommandWrapper-to-Boolean" style="stroke:#A80036;stroke-width:1.0;"/><polygon fill="#A80036" points="1105.29,349.06,1098.4193,342.0036,1100.6476,347.203,1095.4481,349.4314,1105.29,349.06" style="stroke:#A80036;stroke-width:1.0;"/><text fill="#000000" font-family="sans-serif" font-size="13" lengthAdjust="spacing" textLength="68" x="1102.0989" y="331.387">SecondOne</text><!--MD5=[827eb5c776e7d1ef67b59e471f30133b]
link WeatherForecast to DateTime--><path codeLine="130" d="M2990.5,103.85 C2990.5,133.35 2990.5,171.21 2990.5,196.69 " fill="none" id="WeatherForecast-to-DateTime" style="stroke:#A80036;stroke-width:1.0;"/><polygon fill="#A80036" points="2990.5,201.94,2994.5,192.94,2990.5,196.94,2986.5,192.94,2990.5,201.94" style="stroke:#A80036;stroke-width:1.0;"/><text fill="#000000" font-family="sans-serif" font-size="13" lengthAdjust="spacing" textLength="27" x="2960.0406" y="191.2648">Date</text><!--MD5=[61247b6580e3e0ba3bb022f751dd0d27]
link AdressTypesDispatcher to BaseTypesDispatcher--><!--MD5=[f149555ef7b629e3fb0a6057d6b79107]
link AdressTypesDispatcher to CommandTypesDispatcher--><!--MD5=[4b7df7e0d4797112d86385d83d46187c]
@startuml
class AdressDTO {
}
class FindAdressesWrapper <<partial>> {
    + FindAdressesWrapper(dto:CommandDTO)
    + {static} IsForMe(dto:CommandDTO) : bool
    + {static} ExecuteCommand(dto:CommandDTO) : CommandDTO
    + <<partial>> ExecuteCommand() : CommandDTO
}
class GetAdressWrapper <<partial>> {
    + GetAdressWrapper(dto:CommandDTO)
    + {static} IsForMe(dto:CommandDTO) : bool
    + {static} ExecuteCommand(dto:CommandDTO) : CommandDTO
    + <<partial>> ExecuteCommand() : CommandDTO
}
class SetAdressWrapper <<partial>> {
    + SetAdressWrapper(dto:CommandDTO)
    + {static} IsForMe(dto:CommandDTO) : bool
    + {static} ExecuteCommand(dto:CommandDTO) : CommandDTO
    + <<partial>> ExecuteCommand() : CommandDTO
}
class DeleteAdressWrapper <<partial>> {
    + DeleteAdressWrapper(dto:CommandDTO)
    + {static} IsForMe(dto:CommandDTO) : bool
    + {static} ExecuteCommand(dto:CommandDTO) : CommandDTO
    + <<partial>> ExecuteCommand() : CommandDTO
}
class AdressTypesDispatcher <<static>> {
    + {static} Dispatch(dto:CommandDTO) : CommandDTO
}
class "List`1"<T> {
}
BaseDTO <|- - AdressDTO
AdressDTO - -> "TypeId" Guid
AdressDTO - -> "Name1" String
AdressDTO - -> "Name2" String
AdressDTO - -> "Adress1" String
AdressDTO - -> "Adress2" String
AdressDTO - -> "Housenumber" String
AdressDTO - -> "City" String
AdressDTO - -> "Postcode" String
CommandWrapper <|- - FindAdressesWrapper
FindAdressesWrapper - -> "TypeId" Guid
FindAdressesWrapper - -> "Cmd" CommandDTO
FindAdressesWrapper - -> "SearchText" String
FindAdressesWrapper - -> "Result<AdressDTO>" "List`1"
CommandWrapper <|- - GetAdressWrapper
GetAdressWrapper - -> "TypeId" Guid
GetAdressWrapper - -> "Cmd" CommandDTO
GetAdressWrapper - -> "Id" Guid
GetAdressWrapper - -> "Result" AdressDTO
CommandWrapper <|- - SetAdressWrapper
SetAdressWrapper - -> "TypeId" Guid
SetAdressWrapper - -> "Cmd" CommandDTO
SetAdressWrapper - -> "Id" Guid
SetAdressWrapper - -> "Adress" AdressDTO
SetAdressWrapper - -> "Result" AdressDTO
CommandWrapper <|- - DeleteAdressWrapper
DeleteAdressWrapper - -> "TypeId" Guid
DeleteAdressWrapper - -> "Cmd" CommandDTO
DeleteAdressWrapper - -> "Id" Guid
DeleteAdressWrapper - -> "Result" AdressDTO
class BaseDTO <<partial>> {
    # StringFromPropertyList(list:List<PropertyDTO>, name:string) : string
    # StringToPropertyList(list:List<PropertyDTO>, name:string, newValue:string) : void
    # BooleanFromPropertyList(list:List<PropertyDTO>, name:string) : Boolean
    # BooleanToPropertyList(list:List<PropertyDTO>, name:string, newValue:Boolean) : void
}
class BaseDTO <<partial>> {
}
class PropertyDTO {
}
class ObjectDTO {
}
class TypeDTO {
}
class BaseTypesDispatcher <<static>> {
    + {static} Dispatch(dto:CommandDTO) : CommandDTO
}
class "List`1"<T> {
}
BaseDTO - -> "TypeId" Guid
BaseDTO - -> "Id" Guid
BaseDTO - -> "Type" Guid
PropertyDTO - -> "TypeId" Guid
PropertyDTO - -> "Name" String
PropertyDTO - -> "Value" String
BaseDTO <|- - ObjectDTO
ObjectDTO - -> "TypeId" Guid
ObjectDTO - -> "Properties<PropertyDTO>" "List`1"
BaseDTO <|- - TypeDTO
TypeDTO - -> "TypeId" Guid
class ObjectWrapper {
    + ObjectWrapper(dto:ObjectDTO)
}
class CommandWrapper {
    + CommandWrapper(dto:CommandDTO)
    # Get(cmd:CommandDTO, name:string, target:(Func<T> get, Action<T> set)) : void
    # Get(cmd:CommandDTO, name:string, target:(Func<Guid> get, Action<Guid> set)) : void
    # Set(cmd:CommandDTO, name:string, value:T) : void
}
ObjectWrapper - -> "_dto" ObjectDTO
CommandWrapper - -> "Cmd" CommandDTO
class CommandDTO {
}
class SampleCommandWrapper <<partial>> {
    + SampleCommandWrapper(dto:CommandDTO)
    + {static} IsForMe(dto:CommandDTO) : bool
    + {static} ExecuteCommand(dto:CommandDTO) : CommandDTO
    + <<partial>> ExecuteCommand() : CommandDTO
}
class CommandTypesDispatcher <<static>> {
    + {static} Dispatch(dto:CommandDTO) : CommandDTO
}
class "List`1"<T> {
}
BaseDTO <|- - CommandDTO
CommandDTO - -> "TypeId" Guid
CommandDTO o-> "Response" Boolean
CommandDTO o-> "Arguments<PropertyDTO>" "List`1"
CommandWrapper <|- - SampleCommandWrapper
SampleCommandWrapper - -> "TypeId" Guid
SampleCommandWrapper - -> "Cmd" CommandDTO
SampleCommandWrapper - -> "FirstOne" String
SampleCommandWrapper - -> "SecondOne" Boolean
class WeatherForecast {
    + TemperatureC : int <<get>> <<set>>
    + TemperatureF : int <<get>>
    + Summary : string <<get>> <<set>>
}
WeatherForecast - -> "Date" DateTime
@enduml

PlantUML version 1.2021.10(Mon Aug 30 15:43:48 CEST 2021)
(GPL source distribution)
Java Runtime: Java(TM) SE Runtime Environment
JVM: Java HotSpot(TM) Client VM
Default Encoding: Cp1252
Language: de
Country: CH
--></g></svg>