<?xml version="1.0" encoding="UTF-8" standalone="no"?><svg xmlns="http://www.w3.org/2000/svg" xmlns:xlink="http://www.w3.org/1999/xlink" contentScriptType="application/ecmascript" contentStyleType="text/css" height="400px" preserveAspectRatio="none" style="width:893px;height:400px;background:#FFFFFF;" version="1.1" viewBox="0 0 893 400" width="893px" zoomAndPan="magnify"><defs><filter height="300%" id="f3qmba2xx3h2y" width="300%" x="-1" y="-1"><feGaussianBlur result="blurOut" stdDeviation="2.0"/><feColorMatrix in="blurOut" result="blurOut2" type="matrix" values="0 0 0 0 0 0 0 0 0 0 0 0 0 0 0 0 0 0 .4 0"/><feOffset dx="4.0" dy="4.0" in="blurOut2" result="blurOut3"/><feBlend in="SourceGraphic" in2="blurOut3" mode="normal"/></filter></defs><g><!--MD5=[adcaf87a0f7899a1769dae0aaa630dd2]
class PropertyTypeDTO--><rect codeLine="1" fill="#FEFECE" filter="url(#f3qmba2xx3h2y)" height="48" id="PropertyTypeDTO" style="stroke:#A80036;stroke-width:1.5;" width="128" x="7" y="198"/><ellipse cx="22" cy="214" fill="#ADD1B2" rx="11" ry="11" style="stroke:#A80036;stroke-width:1.0;"/><path d="M24.7656,209.875 Q24.9219,209.6563 25.1094,209.5469 Q25.2969,209.4375 25.5156,209.4375 Q25.8906,209.4375 26.125,209.6953 Q26.3594,209.9531 26.3594,210.5625 L26.3594,212.0156 Q26.3594,212.625 26.125,212.8906 Q25.8906,213.1563 25.5156,213.1563 Q25.1719,213.1563 24.9688,212.9531 Q24.7656,212.7656 24.6563,212.25 Q24.6094,211.8906 24.4219,211.7031 Q24.0938,211.3281 23.4844,211.1094 Q22.875,210.8906 22.25,210.8906 Q21.4844,210.8906 20.8516,211.2188 Q20.2188,211.5469 19.7266,212.2969 Q19.2344,213.0469 19.2344,214.0781 L19.2344,215.1719 Q19.2344,216.4063 20.125,217.2266 Q21.0156,218.0469 22.6094,218.0469 Q23.5469,218.0469 24.2031,217.7969 Q24.5938,217.6406 25.0156,217.2031 Q25.2813,216.9375 25.4297,216.8594 Q25.5781,216.7813 25.7813,216.7813 Q26.1094,216.7813 26.3672,217.0391 Q26.625,217.2969 26.625,217.6406 Q26.625,217.9844 26.2813,218.3906 Q25.7813,218.9688 24.9844,219.2969 Q23.9063,219.75 22.6094,219.75 Q21.0938,219.75 19.8906,219.125 Q18.9063,218.625 18.2188,217.5547 Q17.5313,216.4844 17.5313,215.2031 L17.5313,214.0469 Q17.5313,212.7188 18.1484,211.5703 Q18.7656,210.4219 19.8594,209.8047 Q20.9531,209.1875 22.1875,209.1875 Q22.9219,209.1875 23.5703,209.3516 Q24.2188,209.5156 24.7656,209.875 Z " fill="#000000"/><text fill="#000000" font-family="sans-serif" font-size="12" lengthAdjust="spacing" textLength="96" x="36" y="218.9102">PropertyTypeDTO</text><line style="stroke:#A80036;stroke-width:1.5;" x1="8" x2="134" y1="230" y2="230"/><line style="stroke:#A80036;stroke-width:1.5;" x1="8" x2="134" y1="238" y2="238"/><!--MD5=[8060d30fa6f79f6c54fa345adc431432]
class ObjectTypeDTO--><rect codeLine="3" fill="#FEFECE" filter="url(#f3qmba2xx3h2y)" height="48" id="ObjectTypeDTO" style="stroke:#A80036;stroke-width:1.5;" width="118" x="170" y="198"/><ellipse cx="185" cy="214" fill="#ADD1B2" rx="11" ry="11" style="stroke:#A80036;stroke-width:1.0;"/><path d="M187.7656,209.875 Q187.9219,209.6563 188.1094,209.5469 Q188.2969,209.4375 188.5156,209.4375 Q188.8906,209.4375 189.125,209.6953 Q189.3594,209.9531 189.3594,210.5625 L189.3594,212.0156 Q189.3594,212.625 189.125,212.8906 Q188.8906,213.1563 188.5156,213.1563 Q188.1719,213.1563 187.9688,212.9531 Q187.7656,212.7656 187.6563,212.25 Q187.6094,211.8906 187.4219,211.7031 Q187.0938,211.3281 186.4844,211.1094 Q185.875,210.8906 185.25,210.8906 Q184.4844,210.8906 183.8516,211.2188 Q183.2188,211.5469 182.7266,212.2969 Q182.2344,213.0469 182.2344,214.0781 L182.2344,215.1719 Q182.2344,216.4063 183.125,217.2266 Q184.0156,218.0469 185.6094,218.0469 Q186.5469,218.0469 187.2031,217.7969 Q187.5938,217.6406 188.0156,217.2031 Q188.2813,216.9375 188.4297,216.8594 Q188.5781,216.7813 188.7813,216.7813 Q189.1094,216.7813 189.3672,217.0391 Q189.625,217.2969 189.625,217.6406 Q189.625,217.9844 189.2813,218.3906 Q188.7813,218.9688 187.9844,219.2969 Q186.9063,219.75 185.6094,219.75 Q184.0938,219.75 182.8906,219.125 Q181.9063,218.625 181.2188,217.5547 Q180.5313,216.4844 180.5313,215.2031 L180.5313,214.0469 Q180.5313,212.7188 181.1484,211.5703 Q181.7656,210.4219 182.8594,209.8047 Q183.9531,209.1875 185.1875,209.1875 Q185.9219,209.1875 186.5703,209.3516 Q187.2188,209.5156 187.7656,209.875 Z " fill="#000000"/><text fill="#000000" font-family="sans-serif" font-size="12" lengthAdjust="spacing" textLength="86" x="199" y="218.9102">ObjectTypeDTO</text><line style="stroke:#A80036;stroke-width:1.5;" x1="171" x2="287" y1="230" y2="230"/><line style="stroke:#A80036;stroke-width:1.5;" x1="171" x2="287" y1="238" y2="238"/><!--MD5=[82ff55f41af68b0b77ca957cf83e52bc]
class GetObjectTypesWrapper--><rect codeLine="5" fill="#FEFECE" filter="url(#f3qmba2xx3h2y)" height="111.5313" id="GetObjectTypesWrapper" style="stroke:#A80036;stroke-width:1.5;" width="283" x="323.5" y="166"/><ellipse cx="393.75" cy="186.0938" fill="#ADD1B2" rx="11" ry="11" style="stroke:#A80036;stroke-width:1.0;"/><path d="M396.5156,181.9688 Q396.6719,181.75 396.8594,181.6406 Q397.0469,181.5313 397.2656,181.5313 Q397.6406,181.5313 397.875,181.7891 Q398.1094,182.0469 398.1094,182.6563 L398.1094,184.1094 Q398.1094,184.7188 397.875,184.9844 Q397.6406,185.25 397.2656,185.25 Q396.9219,185.25 396.7188,185.0469 Q396.5156,184.8594 396.4063,184.3438 Q396.3594,183.9844 396.1719,183.7969 Q395.8438,183.4219 395.2344,183.2031 Q394.625,182.9844 394,182.9844 Q393.2344,182.9844 392.6016,183.3125 Q391.9688,183.6406 391.4766,184.3906 Q390.9844,185.1406 390.9844,186.1719 L390.9844,187.2656 Q390.9844,188.5 391.875,189.3203 Q392.7656,190.1406 394.3594,190.1406 Q395.2969,190.1406 395.9531,189.8906 Q396.3438,189.7344 396.7656,189.2969 Q397.0313,189.0313 397.1797,188.9531 Q397.3281,188.875 397.5313,188.875 Q397.8594,188.875 398.1172,189.1328 Q398.375,189.3906 398.375,189.7344 Q398.375,190.0781 398.0313,190.4844 Q397.5313,191.0625 396.7344,191.3906 Q395.6563,191.8438 394.3594,191.8438 Q392.8438,191.8438 391.6406,191.2188 Q390.6563,190.7188 389.9688,189.6484 Q389.2813,188.5781 389.2813,187.2969 L389.2813,186.1406 Q389.2813,184.8125 389.8984,183.6641 Q390.5156,182.5156 391.6094,181.8984 Q392.7031,181.2813 393.9375,181.2813 Q394.6719,181.2813 395.3203,181.4453 Q395.9688,181.6094 396.5156,181.9688 Z " fill="#000000"/><text fill="#000000" font-family="sans-serif" font-size="12" font-style="italic" lengthAdjust="spacing" textLength="48" x="457.25" y="183.457">«partial»</text><text fill="#000000" font-family="sans-serif" font-size="12" lengthAdjust="spacing" textLength="134" x="414.25" y="198.5508">GetObjectTypesWrapper</text><line style="stroke:#A80036;stroke-width:1.5;" x1="324.5" x2="605.5" y1="206.1875" y2="206.1875"/><line style="stroke:#A80036;stroke-width:1.5;" x1="324.5" x2="605.5" y1="214.1875" y2="214.1875"/><ellipse cx="334.5" cy="225.1875" fill="#84BE84" rx="3" ry="3" style="stroke:#038048;stroke-width:1.0;"/><text fill="#000000" font-family="sans-serif" font-size="11" lengthAdjust="spacing" textLength="214" x="343.5" y="229.6064">GetObjectTypesWrapper(dto:CommandDTO)</text><ellipse cx="334.5" cy="239.0234" fill="#84BE84" rx="3" ry="3" style="stroke:#038048;stroke-width:1.0;"/><text fill="#000000" font-family="sans-serif" font-size="11" lengthAdjust="spacing" text-decoration="underline" textLength="161" x="343.5" y="243.4424">IsForMe(dto:CommandDTO) : bool</text><ellipse cx="334.5" cy="252.8594" fill="#84BE84" rx="3" ry="3" style="stroke:#038048;stroke-width:1.0;"/><text fill="#000000" font-family="sans-serif" font-size="11" lengthAdjust="spacing" text-decoration="underline" textLength="257" x="343.5" y="257.2783">ExecuteCommand(dto:CommandDTO) : CommandDTO</text><ellipse cx="334.5" cy="266.6953" fill="#84BE84" rx="3" ry="3" style="stroke:#038048;stroke-width:1.0;"/><text fill="#000000" font-family="sans-serif" font-size="11" lengthAdjust="spacing" textLength="244" x="343.5" y="271.1143">«partial» GetObjectTypes() : List&lt;ObjectTypeDTO&gt;</text><!--MD5=[18be599807b93b935820a60f9257064f]
class ObjectTypes--><rect codeLine="14" fill="#FEFECE" filter="url(#f3qmba2xx3h2y)" height="98.9531" id="ObjectTypes" style="stroke:#A80036;stroke-width:1.5;" width="310" x="569" y="7"/><ellipse cx="685.75" cy="34.6406" fill="#ADD1B2" rx="11" ry="11" style="stroke:#A80036;stroke-width:1.0;"/><path d="M688.5156,30.5156 Q688.6719,30.2969 688.8594,30.1875 Q689.0469,30.0781 689.2656,30.0781 Q689.6406,30.0781 689.875,30.3359 Q690.1094,30.5938 690.1094,31.2031 L690.1094,32.6563 Q690.1094,33.2656 689.875,33.5313 Q689.6406,33.7969 689.2656,33.7969 Q688.9219,33.7969 688.7188,33.5938 Q688.5156,33.4063 688.4063,32.8906 Q688.3594,32.5313 688.1719,32.3438 Q687.8438,31.9688 687.2344,31.75 Q686.625,31.5313 686,31.5313 Q685.2344,31.5313 684.6016,31.8594 Q683.9688,32.1875 683.4766,32.9375 Q682.9844,33.6875 682.9844,34.7188 L682.9844,35.8125 Q682.9844,37.0469 683.875,37.8672 Q684.7656,38.6875 686.3594,38.6875 Q687.2969,38.6875 687.9531,38.4375 Q688.3438,38.2813 688.7656,37.8438 Q689.0313,37.5781 689.1797,37.5 Q689.3281,37.4219 689.5313,37.4219 Q689.8594,37.4219 690.1172,37.6797 Q690.375,37.9375 690.375,38.2813 Q690.375,38.625 690.0313,39.0313 Q689.5313,39.6094 688.7344,39.9375 Q687.6563,40.3906 686.3594,40.3906 Q684.8438,40.3906 683.6406,39.7656 Q682.6563,39.2656 681.9688,38.1953 Q681.2813,37.125 681.2813,35.8438 L681.2813,34.6875 Q681.2813,33.3594 681.8984,32.2109 Q682.5156,31.0625 683.6094,30.4453 Q684.7031,29.8281 685.9375,29.8281 Q686.6719,29.8281 687.3203,29.9922 Q687.9688,30.1563 688.5156,30.5156 Z " fill="#000000"/><text fill="#000000" font-family="sans-serif" font-size="12" font-style="italic" lengthAdjust="spacing" textLength="42" x="719.25" y="24.457">«static»</text><text fill="#000000" font-family="sans-serif" font-size="12" font-style="italic" lengthAdjust="spacing" textLength="48" x="716.25" y="39.5508">«partial»</text><text fill="#000000" font-family="sans-serif" font-size="12" lengthAdjust="spacing" textLength="68" x="706.25" y="54.6445">ObjectTypes</text><line style="stroke:#A80036;stroke-width:1.5;" x1="570" x2="878" y1="62.2813" y2="62.2813"/><line style="stroke:#A80036;stroke-width:1.5;" x1="570" x2="878" y1="70.2813" y2="70.2813"/><ellipse cx="580" cy="81.2813" fill="#84BE84" rx="3" ry="3" style="stroke:#038048;stroke-width:1.0;"/><text fill="#000000" font-family="sans-serif" font-size="11" lengthAdjust="spacing" text-decoration="underline" textLength="213" x="589" y="85.7002">Dispatch(dto:CommandDTO) : CommandDTO</text><ellipse cx="580" cy="95.1172" fill="#84BE84" rx="3" ry="3" style="stroke:#038048;stroke-width:1.0;"/><text fill="#000000" font-family="sans-serif" font-size="11" lengthAdjust="spacing" text-decoration="underline" textLength="284" x="589" y="99.5361">GetTypes(commandTypes:List&lt;CommandTypeDTO&gt;) : void</text><!--MD5=[e644022de7dea015dd09463c37421447]
class List`1--><rect codeLine="17" fill="#FEFECE" filter="url(#f3qmba2xx3h2y)" height="48" id="List`1" style="stroke:#A80036;stroke-width:1.5;" width="74" x="296" y="338"/><ellipse cx="311" cy="354" fill="#ADD1B2" rx="11" ry="11" style="stroke:#A80036;stroke-width:1.0;"/><path d="M313.7656,349.875 Q313.9219,349.6563 314.1094,349.5469 Q314.2969,349.4375 314.5156,349.4375 Q314.8906,349.4375 315.125,349.6953 Q315.3594,349.9531 315.3594,350.5625 L315.3594,352.0156 Q315.3594,352.625 315.125,352.8906 Q314.8906,353.1563 314.5156,353.1563 Q314.1719,353.1563 313.9688,352.9531 Q313.7656,352.7656 313.6563,352.25 Q313.6094,351.8906 313.4219,351.7031 Q313.0938,351.3281 312.4844,351.1094 Q311.875,350.8906 311.25,350.8906 Q310.4844,350.8906 309.8516,351.2188 Q309.2188,351.5469 308.7266,352.2969 Q308.2344,353.0469 308.2344,354.0781 L308.2344,355.1719 Q308.2344,356.4063 309.125,357.2266 Q310.0156,358.0469 311.6094,358.0469 Q312.5469,358.0469 313.2031,357.7969 Q313.5938,357.6406 314.0156,357.2031 Q314.2813,356.9375 314.4297,356.8594 Q314.5781,356.7813 314.7813,356.7813 Q315.1094,356.7813 315.3672,357.0391 Q315.625,357.2969 315.625,357.6406 Q315.625,357.9844 315.2813,358.3906 Q314.7813,358.9688 313.9844,359.2969 Q312.9063,359.75 311.6094,359.75 Q310.0938,359.75 308.8906,359.125 Q307.9063,358.625 307.2188,357.5547 Q306.5313,356.4844 306.5313,355.2031 L306.5313,354.0469 Q306.5313,352.7188 307.1484,351.5703 Q307.7656,350.4219 308.8594,349.8047 Q309.9531,349.1875 311.1875,349.1875 Q311.9219,349.1875 312.5703,349.3516 Q313.2188,349.5156 313.7656,349.875 Z " fill="#000000"/><text fill="#000000" font-family="sans-serif" font-size="12" lengthAdjust="spacing" textLength="31" x="325" y="358.9102">List`1</text><rect fill="#FFFFFF" height="17.0938" style="stroke:#000000;stroke-width:1.0;stroke-dasharray:2.0,2.0;" width="9" x="364" y="335"/><text fill="#000000" font-family="sans-serif" font-size="12" font-style="italic" lengthAdjust="spacing" textLength="7" x="365" y="348.457">T</text><line style="stroke:#A80036;stroke-width:1.5;" x1="297" x2="369" y1="370" y2="370"/><line style="stroke:#A80036;stroke-width:1.5;" x1="297" x2="369" y1="378" y2="378"/><!--MD5=[b9f3d2915b6b8d0c143f32ccec3f745e]
class Guid--><rect fill="#FEFECE" filter="url(#f3qmba2xx3h2y)" height="48" id="Guid" style="stroke:#A80036;stroke-width:1.5;" width="58" x="200" y="338"/><ellipse cx="215" cy="354" fill="#ADD1B2" rx="11" ry="11" style="stroke:#A80036;stroke-width:1.0;"/><path d="M217.7656,349.875 Q217.9219,349.6563 218.1094,349.5469 Q218.2969,349.4375 218.5156,349.4375 Q218.8906,349.4375 219.125,349.6953 Q219.3594,349.9531 219.3594,350.5625 L219.3594,352.0156 Q219.3594,352.625 219.125,352.8906 Q218.8906,353.1563 218.5156,353.1563 Q218.1719,353.1563 217.9688,352.9531 Q217.7656,352.7656 217.6563,352.25 Q217.6094,351.8906 217.4219,351.7031 Q217.0938,351.3281 216.4844,351.1094 Q215.875,350.8906 215.25,350.8906 Q214.4844,350.8906 213.8516,351.2188 Q213.2188,351.5469 212.7266,352.2969 Q212.2344,353.0469 212.2344,354.0781 L212.2344,355.1719 Q212.2344,356.4063 213.125,357.2266 Q214.0156,358.0469 215.6094,358.0469 Q216.5469,358.0469 217.2031,357.7969 Q217.5938,357.6406 218.0156,357.2031 Q218.2813,356.9375 218.4297,356.8594 Q218.5781,356.7813 218.7813,356.7813 Q219.1094,356.7813 219.3672,357.0391 Q219.625,357.2969 219.625,357.6406 Q219.625,357.9844 219.2813,358.3906 Q218.7813,358.9688 217.9844,359.2969 Q216.9063,359.75 215.6094,359.75 Q214.0938,359.75 212.8906,359.125 Q211.9063,358.625 211.2188,357.5547 Q210.5313,356.4844 210.5313,355.2031 L210.5313,354.0469 Q210.5313,352.7188 211.1484,351.5703 Q211.7656,350.4219 212.8594,349.8047 Q213.9531,349.1875 215.1875,349.1875 Q215.9219,349.1875 216.5703,349.3516 Q217.2188,349.5156 217.7656,349.875 Z " fill="#000000"/><text fill="#000000" font-family="sans-serif" font-size="12" lengthAdjust="spacing" textLength="26" x="229" y="358.9102">Guid</text><line style="stroke:#A80036;stroke-width:1.5;" x1="201" x2="257" y1="370" y2="370"/><line style="stroke:#A80036;stroke-width:1.5;" x1="201" x2="257" y1="378" y2="378"/><!--MD5=[9df70cf33be424c1b8543b3f439cae89]
class String--><rect fill="#FEFECE" filter="url(#f3qmba2xx3h2y)" height="48" id="String" style="stroke:#A80036;stroke-width:1.5;" width="64" x="39" y="338"/><ellipse cx="54" cy="354" fill="#ADD1B2" rx="11" ry="11" style="stroke:#A80036;stroke-width:1.0;"/><path d="M56.7656,349.875 Q56.9219,349.6563 57.1094,349.5469 Q57.2969,349.4375 57.5156,349.4375 Q57.8906,349.4375 58.125,349.6953 Q58.3594,349.9531 58.3594,350.5625 L58.3594,352.0156 Q58.3594,352.625 58.125,352.8906 Q57.8906,353.1563 57.5156,353.1563 Q57.1719,353.1563 56.9688,352.9531 Q56.7656,352.7656 56.6563,352.25 Q56.6094,351.8906 56.4219,351.7031 Q56.0938,351.3281 55.4844,351.1094 Q54.875,350.8906 54.25,350.8906 Q53.4844,350.8906 52.8516,351.2188 Q52.2188,351.5469 51.7266,352.2969 Q51.2344,353.0469 51.2344,354.0781 L51.2344,355.1719 Q51.2344,356.4063 52.125,357.2266 Q53.0156,358.0469 54.6094,358.0469 Q55.5469,358.0469 56.2031,357.7969 Q56.5938,357.6406 57.0156,357.2031 Q57.2813,356.9375 57.4297,356.8594 Q57.5781,356.7813 57.7813,356.7813 Q58.1094,356.7813 58.3672,357.0391 Q58.625,357.2969 58.625,357.6406 Q58.625,357.9844 58.2813,358.3906 Q57.7813,358.9688 56.9844,359.2969 Q55.9063,359.75 54.6094,359.75 Q53.0938,359.75 51.8906,359.125 Q50.9063,358.625 50.2188,357.5547 Q49.5313,356.4844 49.5313,355.2031 L49.5313,354.0469 Q49.5313,352.7188 50.1484,351.5703 Q50.7656,350.4219 51.8594,349.8047 Q52.9531,349.1875 54.1875,349.1875 Q54.9219,349.1875 55.5703,349.3516 Q56.2188,349.5156 56.7656,349.875 Z " fill="#000000"/><text fill="#000000" font-family="sans-serif" font-size="12" lengthAdjust="spacing" textLength="32" x="68" y="358.9102">String</text><line style="stroke:#A80036;stroke-width:1.5;" x1="40" x2="102" y1="370" y2="370"/><line style="stroke:#A80036;stroke-width:1.5;" x1="40" x2="102" y1="378" y2="378"/><!--MD5=[ab65f1b894babecd782f1df810423109]
class TypeDTO--><rect fill="#FEFECE" filter="url(#f3qmba2xx3h2y)" height="48" id="TypeDTO" style="stroke:#A80036;stroke-width:1.5;" width="83" x="187.5" y="32.5"/><ellipse cx="202.5" cy="48.5" fill="#ADD1B2" rx="11" ry="11" style="stroke:#A80036;stroke-width:1.0;"/><path d="M205.2656,44.375 Q205.4219,44.1563 205.6094,44.0469 Q205.7969,43.9375 206.0156,43.9375 Q206.3906,43.9375 206.625,44.1953 Q206.8594,44.4531 206.8594,45.0625 L206.8594,46.5156 Q206.8594,47.125 206.625,47.3906 Q206.3906,47.6563 206.0156,47.6563 Q205.6719,47.6563 205.4688,47.4531 Q205.2656,47.2656 205.1563,46.75 Q205.1094,46.3906 204.9219,46.2031 Q204.5938,45.8281 203.9844,45.6094 Q203.375,45.3906 202.75,45.3906 Q201.9844,45.3906 201.3516,45.7188 Q200.7188,46.0469 200.2266,46.7969 Q199.7344,47.5469 199.7344,48.5781 L199.7344,49.6719 Q199.7344,50.9063 200.625,51.7266 Q201.5156,52.5469 203.1094,52.5469 Q204.0469,52.5469 204.7031,52.2969 Q205.0938,52.1406 205.5156,51.7031 Q205.7813,51.4375 205.9297,51.3594 Q206.0781,51.2813 206.2813,51.2813 Q206.6094,51.2813 206.8672,51.5391 Q207.125,51.7969 207.125,52.1406 Q207.125,52.4844 206.7813,52.8906 Q206.2813,53.4688 205.4844,53.7969 Q204.4063,54.25 203.1094,54.25 Q201.5938,54.25 200.3906,53.625 Q199.4063,53.125 198.7188,52.0547 Q198.0313,50.9844 198.0313,49.7031 L198.0313,48.5469 Q198.0313,47.2188 198.6484,46.0703 Q199.2656,44.9219 200.3594,44.3047 Q201.4531,43.6875 202.6875,43.6875 Q203.4219,43.6875 204.0703,43.8516 Q204.7188,44.0156 205.2656,44.375 Z " fill="#000000"/><text fill="#000000" font-family="sans-serif" font-size="12" lengthAdjust="spacing" textLength="51" x="216.5" y="53.4102">TypeDTO</text><line style="stroke:#A80036;stroke-width:1.5;" x1="188.5" x2="269.5" y1="64.5" y2="64.5"/><line style="stroke:#A80036;stroke-width:1.5;" x1="188.5" x2="269.5" y1="72.5" y2="72.5"/><!--MD5=[fe6b2754769bc87cf156126798433078]
class CommandWrapper--><rect fill="#FEFECE" filter="url(#f3qmba2xx3h2y)" height="48" id="CommandWrapper" style="stroke:#A80036;stroke-width:1.5;" width="138" x="396" y="32.5"/><ellipse cx="411" cy="48.5" fill="#ADD1B2" rx="11" ry="11" style="stroke:#A80036;stroke-width:1.0;"/><path d="M413.7656,44.375 Q413.9219,44.1563 414.1094,44.0469 Q414.2969,43.9375 414.5156,43.9375 Q414.8906,43.9375 415.125,44.1953 Q415.3594,44.4531 415.3594,45.0625 L415.3594,46.5156 Q415.3594,47.125 415.125,47.3906 Q414.8906,47.6563 414.5156,47.6563 Q414.1719,47.6563 413.9688,47.4531 Q413.7656,47.2656 413.6563,46.75 Q413.6094,46.3906 413.4219,46.2031 Q413.0938,45.8281 412.4844,45.6094 Q411.875,45.3906 411.25,45.3906 Q410.4844,45.3906 409.8516,45.7188 Q409.2188,46.0469 408.7266,46.7969 Q408.2344,47.5469 408.2344,48.5781 L408.2344,49.6719 Q408.2344,50.9063 409.125,51.7266 Q410.0156,52.5469 411.6094,52.5469 Q412.5469,52.5469 413.2031,52.2969 Q413.5938,52.1406 414.0156,51.7031 Q414.2813,51.4375 414.4297,51.3594 Q414.5781,51.2813 414.7813,51.2813 Q415.1094,51.2813 415.3672,51.5391 Q415.625,51.7969 415.625,52.1406 Q415.625,52.4844 415.2813,52.8906 Q414.7813,53.4688 413.9844,53.7969 Q412.9063,54.25 411.6094,54.25 Q410.0938,54.25 408.8906,53.625 Q407.9063,53.125 407.2188,52.0547 Q406.5313,50.9844 406.5313,49.7031 L406.5313,48.5469 Q406.5313,47.2188 407.1484,46.0703 Q407.7656,44.9219 408.8594,44.3047 Q409.9531,43.6875 411.1875,43.6875 Q411.9219,43.6875 412.5703,43.8516 Q413.2188,44.0156 413.7656,44.375 Z " fill="#000000"/><text fill="#000000" font-family="sans-serif" font-size="12" lengthAdjust="spacing" textLength="106" x="425" y="53.4102">CommandWrapper</text><line style="stroke:#A80036;stroke-width:1.5;" x1="397" x2="533" y1="64.5" y2="64.5"/><line style="stroke:#A80036;stroke-width:1.5;" x1="397" x2="533" y1="72.5" y2="72.5"/><!--MD5=[f5d54f60ec6d089d1cb017027d5a65a8]
class CommandDTO--><rect fill="#FEFECE" filter="url(#f3qmba2xx3h2y)" height="48" id="CommandDTO" style="stroke:#A80036;stroke-width:1.5;" width="116" x="407" y="338"/><ellipse cx="422" cy="354" fill="#ADD1B2" rx="11" ry="11" style="stroke:#A80036;stroke-width:1.0;"/><path d="M424.7656,349.875 Q424.9219,349.6563 425.1094,349.5469 Q425.2969,349.4375 425.5156,349.4375 Q425.8906,349.4375 426.125,349.6953 Q426.3594,349.9531 426.3594,350.5625 L426.3594,352.0156 Q426.3594,352.625 426.125,352.8906 Q425.8906,353.1563 425.5156,353.1563 Q425.1719,353.1563 424.9688,352.9531 Q424.7656,352.7656 424.6563,352.25 Q424.6094,351.8906 424.4219,351.7031 Q424.0938,351.3281 423.4844,351.1094 Q422.875,350.8906 422.25,350.8906 Q421.4844,350.8906 420.8516,351.2188 Q420.2188,351.5469 419.7266,352.2969 Q419.2344,353.0469 419.2344,354.0781 L419.2344,355.1719 Q419.2344,356.4063 420.125,357.2266 Q421.0156,358.0469 422.6094,358.0469 Q423.5469,358.0469 424.2031,357.7969 Q424.5938,357.6406 425.0156,357.2031 Q425.2813,356.9375 425.4297,356.8594 Q425.5781,356.7813 425.7813,356.7813 Q426.1094,356.7813 426.3672,357.0391 Q426.625,357.2969 426.625,357.6406 Q426.625,357.9844 426.2813,358.3906 Q425.7813,358.9688 424.9844,359.2969 Q423.9063,359.75 422.6094,359.75 Q421.0938,359.75 419.8906,359.125 Q418.9063,358.625 418.2188,357.5547 Q417.5313,356.4844 417.5313,355.2031 L417.5313,354.0469 Q417.5313,352.7188 418.1484,351.5703 Q418.7656,350.4219 419.8594,349.8047 Q420.9531,349.1875 422.1875,349.1875 Q422.9219,349.1875 423.5703,349.3516 Q424.2188,349.5156 424.7656,349.875 Z " fill="#000000"/><text fill="#000000" font-family="sans-serif" font-size="12" lengthAdjust="spacing" textLength="84" x="436" y="358.9102">CommandDTO</text><line style="stroke:#A80036;stroke-width:1.5;" x1="408" x2="522" y1="370" y2="370"/><line style="stroke:#A80036;stroke-width:1.5;" x1="408" x2="522" y1="378" y2="378"/><!--MD5=[172cbcb7e4a8b4315a0564b6777d59de]
link PropertyTypeDTO to Guid--><path codeLine="19" d="M97.45,246.1 C125.36,270.48 169.29,308.85 198.61,334.46 " fill="none" id="PropertyTypeDTO-to-Guid" style="stroke:#A80036;stroke-width:1.0;"/><polygon fill="#A80036" points="202.47,337.83,198.3116,328.9021,198.7,334.5456,193.0565,334.934,202.47,337.83" style="stroke:#A80036;stroke-width:1.0;"/><text fill="#000000" font-family="sans-serif" font-size="13" lengthAdjust="spacing" textLength="38" x="153.9412" y="327.9265">TypeId</text><!--MD5=[07fba0fd85bc2b8d2588556dafd4ff44]
link PropertyTypeDTO to String--><path codeLine="20" d="M61.19,246.1 C57.52,269.98 57.28,307.29 60.49,332.87 " fill="none" id="PropertyTypeDTO-to-String" style="stroke:#A80036;stroke-width:1.0;"/><polygon fill="#A80036" points="61.18,337.83,63.9091,328.3668,60.4949,332.8772,55.9845,329.463,61.18,337.83" style="stroke:#A80036;stroke-width:1.0;"/><text fill="#000000" font-family="sans-serif" font-size="13" lengthAdjust="spacing" textLength="34" x="20.3074" y="327.1266">Name</text><!--MD5=[07fba0fd85bc2b8d2588556dafd4ff44]
link PropertyTypeDTO to String--><path codeLine="21" d="M81.38,246.1 C85.28,269.98 85.52,307.29 82.12,332.87 " fill="none" id="PropertyTypeDTO-to-String-1" style="stroke:#A80036;stroke-width:1.0;"/><polygon fill="#A80036" points="81.4,337.83,86.6461,329.4946,82.1151,332.8814,78.7283,328.3504,81.4,337.83" style="stroke:#A80036;stroke-width:1.0;"/><text fill="#000000" font-family="sans-serif" font-size="13" lengthAdjust="spacing" textLength="28" x="87.6525" y="327.1266">Type</text><!--MD5=[c0afaa7853e5f3f34d21476f739d0cf7]
reverse link TypeDTO to ObjectTypeDTO--><path codeLine="22" d="M229,100.71 C229,131.82 229,172.59 229,197.77 " fill="none" id="TypeDTO-backto-ObjectTypeDTO" style="stroke:#A80036;stroke-width:1.0;"/><polygon fill="none" points="222,100.58,229,80.58,236,100.58,222,100.58" style="stroke:#A80036;stroke-width:1.0;"/><!--MD5=[80b86818dbbf408325f95cf46db891f8]
link ObjectTypeDTO to Guid--><path codeLine="23" d="M229,246.1 C229,269.88 229,306.98 229,332.55 " fill="none" id="ObjectTypeDTO-to-Guid" style="stroke:#A80036;stroke-width:1.0;"/><polygon fill="#A80036" points="229,337.83,233,328.83,229,332.83,225,328.83,229,337.83" style="stroke:#A80036;stroke-width:1.0;"/><text fill="#000000" font-family="sans-serif" font-size="13" lengthAdjust="spacing" textLength="38" x="233.8688" y="327.1266">TypeId</text><!--MD5=[3462ae03d253c5c936f77bde4f849c5b]
link ObjectTypeDTO to List`1--><path codeLine="24" d="M246.41,246.1 C264.63,270.28 293.23,308.22 312.52,333.83 " fill="none" id="ObjectTypeDTO-to-List`1" style="stroke:#A80036;stroke-width:1.0;"/><polygon fill="#A80036" points="315.54,337.83,313.3016,328.2389,312.524,333.842,306.9209,333.0645,315.54,337.83" style="stroke:#A80036;stroke-width:1.0;"/><text fill="#000000" font-family="sans-serif" font-size="13" lengthAdjust="spacing" textLength="203" x="337.0753" y="327.1266">PropertyTypes&lt;PropertyTypeDTO&gt;</text><!--MD5=[1eb8744123353b3eacc330b3b2e741c7]
reverse link CommandWrapper to GetObjectTypesWrapper--><path codeLine="25" d="M465,100.74 C465,120.73 465,144.7 465,165.96 " fill="none" id="CommandWrapper-backto-GetObjectTypesWrapper" style="stroke:#A80036;stroke-width:1.0;"/><polygon fill="none" points="458,100.58,465,80.58,472,100.58,458,100.58" style="stroke:#A80036;stroke-width:1.0;"/><!--MD5=[b8be02eee7a9642caaa5b3e70269395b]
link GetObjectTypesWrapper to Guid--><path codeLine="26" d="M370.71,278.14 C332.44,300.51 290.71,324.92 262.51,341.41 " fill="none" id="GetObjectTypesWrapper-to-Guid" style="stroke:#A80036;stroke-width:1.0;"/><polygon fill="#A80036" points="258.1,343.98,267.8873,342.8801,262.4137,341.4518,263.8421,335.9782,258.1,343.98" style="stroke:#A80036;stroke-width:1.0;"/><text fill="#000000" font-family="sans-serif" font-size="13" lengthAdjust="spacing" textLength="38" x="266.3442" y="351.3721">TypeId</text><!--MD5=[7c4004fd7a3a9136a9d7e855287e1f7a]
link GetObjectTypesWrapper to CommandDTO--><path codeLine="27" d="M465,278.33 C465,296.93 465,316.9 465,332.56 " fill="none" id="GetObjectTypesWrapper-to-CommandDTO" style="stroke:#A80036;stroke-width:1.0;"/><polygon fill="#A80036" points="465,337.69,469,328.69,465,332.69,461,328.69,465,337.69" style="stroke:#A80036;stroke-width:1.0;"/><text fill="#000000" font-family="sans-serif" font-size="13" lengthAdjust="spacing" textLength="27" x="434.5406" y="326.9507">Cmd</text><!--MD5=[4879f41562aa32c1043ee7e35c17be84]
link GetObjectTypesWrapper to List`1--><path codeLine="28" d="M412.07,278.33 C393.82,297.41 374.18,317.95 359.04,333.77 " fill="none" id="GetObjectTypesWrapper-to-List`1" style="stroke:#A80036;stroke-width:1.0;"/><polygon fill="#A80036" points="355.29,337.69,364.409,333.9691,358.7533,334.0836,358.6388,328.4279,355.29,337.69" style="stroke:#A80036;stroke-width:1.0;"/><text fill="#000000" font-family="sans-serif" font-size="13" lengthAdjust="spacing" textLength="145" x="197.4237" y="326.9507">Result&lt;ObjectTypeDTO&gt;</text><!--MD5=[7b7c8ebd85c517f28ca9b7b6db978939]
@startuml
class PropertyTypeDTO {
}
class ObjectTypeDTO {
}
class GetObjectTypesWrapper <<partial>> {
    + GetObjectTypesWrapper(dto:CommandDTO)
    + {static} IsForMe(dto:CommandDTO) : bool
    + {static} ExecuteCommand(dto:CommandDTO) : CommandDTO
    + <<partial>> GetObjectTypes() : List<ObjectTypeDTO>
}
class ObjectTypes <<static>> <<partial>> {
    + {static} Dispatch(dto:CommandDTO) : CommandDTO
}
class ObjectTypes <<static>> <<partial>> {
    + {static} GetTypes(commandTypes:List<CommandTypeDTO>) : void
}
class "List`1"<T> {
}
PropertyTypeDTO - -> "TypeId" Guid
PropertyTypeDTO - -> "Name" String
PropertyTypeDTO - -> "Type" String
TypeDTO <|- - ObjectTypeDTO
ObjectTypeDTO - -> "TypeId" Guid
ObjectTypeDTO - -> "PropertyTypes<PropertyTypeDTO>" "List`1"
CommandWrapper <|- - GetObjectTypesWrapper
GetObjectTypesWrapper - -> "TypeId" Guid
GetObjectTypesWrapper - -> "Cmd" CommandDTO
GetObjectTypesWrapper - -> "Result<ObjectTypeDTO>" "List`1"
@enduml

PlantUML version 1.2021.10(Mon Aug 30 15:43:48 CEST 2021)
(GPL source distribution)
Java Runtime: Java(TM) SE Runtime Environment
JVM: Java HotSpot(TM) Client VM
Default Encoding: Cp1252
Language: de
Country: CH
--></g></svg>