<?xml version="1.0" encoding="UTF-8" standalone="no"?><svg xmlns="http://www.w3.org/2000/svg" xmlns:xlink="http://www.w3.org/1999/xlink" contentScriptType="application/ecmascript" contentStyleType="text/css" height="219px" preserveAspectRatio="none" style="width:195px;height:219px;background:#FFFFFF;" version="1.1" viewBox="0 0 195 219" width="195px" zoomAndPan="magnify"><defs><filter height="300%" id="f6duj6xpehh1k" width="300%" x="-1" y="-1"><feGaussianBlur result="blurOut" stdDeviation="2.0"/><feColorMatrix in="blurOut" result="blurOut2" type="matrix" values="0 0 0 0 0 0 0 0 0 0 0 0 0 0 0 0 0 0 .4 0"/><feOffset dx="4.0" dy="4.0" in="blurOut2" result="blurOut3"/><feBlend in="SourceGraphic" in2="blurOut3" mode="normal"/></filter></defs><g><!--MD5=[ac77ca89eaf889a9982f78fc59015e29]
class WeatherForecast--><rect codeLine="1" fill="#FEFECE" filter="url(#f6duj6xpehh1k)" height="89.5078" id="WeatherForecast" style="stroke:#A80036;stroke-width:1.5;" width="174" x="7" y="7"/><ellipse cx="43.6" cy="23" fill="#ADD1B2" rx="11" ry="11" style="stroke:#A80036;stroke-width:1.0;"/><path d="M46.3656,18.875 Q46.5219,18.6563 46.7094,18.5469 Q46.8969,18.4375 47.1156,18.4375 Q47.4906,18.4375 47.725,18.6953 Q47.9594,18.9531 47.9594,19.5625 L47.9594,21.0156 Q47.9594,21.625 47.725,21.8906 Q47.4906,22.1563 47.1156,22.1563 Q46.7719,22.1563 46.5688,21.9531 Q46.3656,21.7656 46.2563,21.25 Q46.2094,20.8906 46.0219,20.7031 Q45.6938,20.3281 45.0844,20.1094 Q44.475,19.8906 43.85,19.8906 Q43.0844,19.8906 42.4516,20.2188 Q41.8188,20.5469 41.3266,21.2969 Q40.8344,22.0469 40.8344,23.0781 L40.8344,24.1719 Q40.8344,25.4063 41.725,26.2266 Q42.6156,27.0469 44.2094,27.0469 Q45.1469,27.0469 45.8031,26.7969 Q46.1938,26.6406 46.6156,26.2031 Q46.8813,25.9375 47.0297,25.8594 Q47.1781,25.7813 47.3813,25.7813 Q47.7094,25.7813 47.9672,26.0391 Q48.225,26.2969 48.225,26.6406 Q48.225,26.9844 47.8813,27.3906 Q47.3813,27.9688 46.5844,28.2969 Q45.5063,28.75 44.2094,28.75 Q42.6938,28.75 41.4906,28.125 Q40.5063,27.625 39.8188,26.5547 Q39.1313,25.4844 39.1313,24.2031 L39.1313,23.0469 Q39.1313,21.7188 39.7484,20.5703 Q40.3656,19.4219 41.4594,18.8047 Q42.5531,18.1875 43.7875,18.1875 Q44.5219,18.1875 45.1703,18.3516 Q45.8188,18.5156 46.3656,18.875 Z " fill="#000000"/><text fill="#000000" font-family="sans-serif" font-size="12" lengthAdjust="spacing" textLength="94" x="62.4" y="27.9102">WeatherForecast</text><line style="stroke:#A80036;stroke-width:1.5;" x1="8" x2="180" y1="39" y2="39"/><ellipse cx="18" cy="50" rx="3" ry="3" style="stroke:#038048;stroke-width:1.0;fill:none;"/><text fill="#000000" font-family="sans-serif" font-size="11" lengthAdjust="spacing" textLength="148" x="27" y="54.4189">TemperatureC : int «get» «set»</text><ellipse cx="18" cy="63.8359" rx="3" ry="3" style="stroke:#038048;stroke-width:1.0;fill:none;"/><text fill="#000000" font-family="sans-serif" font-size="11" lengthAdjust="spacing" textLength="117" x="27" y="68.2549">TemperatureF : int «get»</text><ellipse cx="18" cy="77.6719" rx="3" ry="3" style="stroke:#038048;stroke-width:1.0;fill:none;"/><text fill="#000000" font-family="sans-serif" font-size="11" lengthAdjust="spacing" textLength="141" x="27" y="82.0908">Summary : string «get» «set»</text><line style="stroke:#A80036;stroke-width:1.5;" x1="8" x2="180" y1="88.5078" y2="88.5078"/><!--MD5=[20ddef7090025b04fb973268620c0974]
class DateTime--><rect fill="#FEFECE" filter="url(#f6duj6xpehh1k)" height="48" id="DateTime" style="stroke:#A80036;stroke-width:1.5;" width="86" x="51" y="157"/><ellipse cx="66" cy="173" fill="#ADD1B2" rx="11" ry="11" style="stroke:#A80036;stroke-width:1.0;"/><path d="M68.7656,168.875 Q68.9219,168.6563 69.1094,168.5469 Q69.2969,168.4375 69.5156,168.4375 Q69.8906,168.4375 70.125,168.6953 Q70.3594,168.9531 70.3594,169.5625 L70.3594,171.0156 Q70.3594,171.625 70.125,171.8906 Q69.8906,172.1563 69.5156,172.1563 Q69.1719,172.1563 68.9688,171.9531 Q68.7656,171.7656 68.6563,171.25 Q68.6094,170.8906 68.4219,170.7031 Q68.0938,170.3281 67.4844,170.1094 Q66.875,169.8906 66.25,169.8906 Q65.4844,169.8906 64.8516,170.2188 Q64.2188,170.5469 63.7266,171.2969 Q63.2344,172.0469 63.2344,173.0781 L63.2344,174.1719 Q63.2344,175.4063 64.125,176.2266 Q65.0156,177.0469 66.6094,177.0469 Q67.5469,177.0469 68.2031,176.7969 Q68.5938,176.6406 69.0156,176.2031 Q69.2813,175.9375 69.4297,175.8594 Q69.5781,175.7813 69.7813,175.7813 Q70.1094,175.7813 70.3672,176.0391 Q70.625,176.2969 70.625,176.6406 Q70.625,176.9844 70.2813,177.3906 Q69.7813,177.9688 68.9844,178.2969 Q67.9063,178.75 66.6094,178.75 Q65.0938,178.75 63.8906,178.125 Q62.9063,177.625 62.2188,176.5547 Q61.5313,175.4844 61.5313,174.2031 L61.5313,173.0469 Q61.5313,171.7188 62.1484,170.5703 Q62.7656,169.4219 63.8594,168.8047 Q64.9531,168.1875 66.1875,168.1875 Q66.9219,168.1875 67.5703,168.3516 Q68.2188,168.5156 68.7656,168.875 Z " fill="#000000"/><text fill="#000000" font-family="sans-serif" font-size="12" lengthAdjust="spacing" textLength="54" x="80" y="177.9102">DateTime</text><line style="stroke:#A80036;stroke-width:1.5;" x1="52" x2="136" y1="189" y2="189"/><line style="stroke:#A80036;stroke-width:1.5;" x1="52" x2="136" y1="197" y2="197"/><!--MD5=[827eb5c776e7d1ef67b59e471f30133b]
link WeatherForecast to DateTime--><path codeLine="6" d="M94,97.06 C94,115.08 94,135.42 94,151.44 " fill="none" id="WeatherForecast-to-DateTime" style="stroke:#A80036;stroke-width:1.0;"/><polygon fill="#A80036" points="94,156.7,98,147.7,94,151.7,90,147.7,94,156.7" style="stroke:#A80036;stroke-width:1.0;"/><text fill="#000000" font-family="sans-serif" font-size="13" lengthAdjust="spacing" textLength="27" x="63.5406" y="145.9633">Date</text><!--MD5=[cce0023e231d7a2d68ae56e566124c0f]
@startuml
class WeatherForecast {
    + TemperatureC : int <<get>> <<set>>
    + TemperatureF : int <<get>>
    + Summary : string <<get>> <<set>>
}
WeatherForecast - -> "Date" DateTime
@enduml

PlantUML version 1.2021.10(Mon Aug 30 15:43:48 CEST 2021)
(GPL source distribution)
Java Runtime: Java(TM) SE Runtime Environment
JVM: Java HotSpot(TM) Client VM
Default Encoding: Cp1252
Language: de
Country: CH
--></g></svg>