<?xml version="1.0" encoding="UTF-8" standalone="no"?><svg xmlns="http://www.w3.org/2000/svg" xmlns:xlink="http://www.w3.org/1999/xlink" contentScriptType="application/ecmascript" contentStyleType="text/css" height="808px" preserveAspectRatio="none" style="width:436px;height:808px;background:#FFFFFF;" version="1.1" viewBox="0 0 436 808" width="436px" zoomAndPan="magnify"><defs><filter height="300%" id="fj21iaszgsoda" width="300%" x="-1" y="-1"><feGaussianBlur result="blurOut" stdDeviation="2.0"/><feColorMatrix in="blurOut" result="blurOut2" type="matrix" values="0 0 0 0 0 0 0 0 0 0 0 0 0 0 0 0 0 0 .4 0"/><feOffset dx="4.0" dy="4.0" in="blurOut2" result="blurOut3"/><feBlend in="SourceGraphic" in2="blurOut3" mode="normal"/></filter></defs><g><!--MD5=[6b1d3384926f1bc892ee196bbd0d7fce]
class BaseDTO--><rect codeLine="1" fill="#FEFECE" filter="url(#fj21iaszgsoda)" height="89.5078" id="BaseDTO" style="stroke:#A80036;stroke-width:1.5;" width="89" x="23.5" y="315.5"/><ellipse cx="39.85" cy="331.5" fill="#ADD1B2" rx="11" ry="11" style="stroke:#A80036;stroke-width:1.0;"/><path d="M42.6156,327.375 Q42.7719,327.1563 42.9594,327.0469 Q43.1469,326.9375 43.3656,326.9375 Q43.7406,326.9375 43.975,327.1953 Q44.2094,327.4531 44.2094,328.0625 L44.2094,329.5156 Q44.2094,330.125 43.975,330.3906 Q43.7406,330.6563 43.3656,330.6563 Q43.0219,330.6563 42.8188,330.4531 Q42.6156,330.2656 42.5063,329.75 Q42.4594,329.3906 42.2719,329.2031 Q41.9438,328.8281 41.3344,328.6094 Q40.725,328.3906 40.1,328.3906 Q39.3344,328.3906 38.7016,328.7188 Q38.0688,329.0469 37.5766,329.7969 Q37.0844,330.5469 37.0844,331.5781 L37.0844,332.6719 Q37.0844,333.9063 37.975,334.7266 Q38.8656,335.5469 40.4594,335.5469 Q41.3969,335.5469 42.0531,335.2969 Q42.4438,335.1406 42.8656,334.7031 Q43.1313,334.4375 43.2797,334.3594 Q43.4281,334.2813 43.6313,334.2813 Q43.9594,334.2813 44.2172,334.5391 Q44.475,334.7969 44.475,335.1406 Q44.475,335.4844 44.1313,335.8906 Q43.6313,336.4688 42.8344,336.7969 Q41.7563,337.25 40.4594,337.25 Q38.9438,337.25 37.7406,336.625 Q36.7563,336.125 36.0688,335.0547 Q35.3813,333.9844 35.3813,332.7031 L35.3813,331.5469 Q35.3813,330.2188 35.9984,329.0703 Q36.6156,327.9219 37.7094,327.3047 Q38.8031,326.6875 40.0375,326.6875 Q40.7719,326.6875 41.4203,326.8516 Q42.0688,327.0156 42.6156,327.375 Z " fill="#000000"/><text fill="#000000" font-family="sans-serif" font-size="12" lengthAdjust="spacing" textLength="54" x="54.15" y="336.4102">BaseDTO</text><line style="stroke:#A80036;stroke-width:1.5;" x1="24.5" x2="111.5" y1="347.5" y2="347.5"/><ellipse cx="34.5" cy="358.5" rx="3" ry="3" style="stroke:#038048;stroke-width:1.0;fill:none;"/><text fill="#000000" font-family="sans-serif" font-size="11" lengthAdjust="spacing" textLength="47" x="43.5" y="362.9189">Id?: string</text><ellipse cx="34.5" cy="372.3359" rx="3" ry="3" style="stroke:#038048;stroke-width:1.0;fill:none;"/><text fill="#000000" font-family="sans-serif" font-size="11" lengthAdjust="spacing" textLength="63" x="43.5" y="376.7549">Type?: string</text><ellipse cx="34.5" cy="386.1719" rx="3" ry="3" style="stroke:#038048;stroke-width:1.0;fill:none;"/><text fill="#000000" font-family="sans-serif" font-size="11" lengthAdjust="spacing" text-decoration="underline" textLength="60" x="43.5" y="390.5908">TypeId: Guid</text><line style="stroke:#A80036;stroke-width:1.5;" x1="24.5" x2="111.5" y1="397.0078" y2="397.0078"/><!--MD5=[a5d4fcdae0bd58dbfa0890c54d6b74e5]
class AdressDTO--><rect codeLine="6" fill="#FEFECE" filter="url(#fj21iaszgsoda)" height="158.6875" id="AdressDTO" style="stroke:#A80036;stroke-width:1.5;" width="132" x="7" y="486"/><ellipse cx="38.2" cy="502" fill="#ADD1B2" rx="11" ry="11" style="stroke:#A80036;stroke-width:1.0;"/><path d="M40.9656,497.875 Q41.1219,497.6563 41.3094,497.5469 Q41.4969,497.4375 41.7156,497.4375 Q42.0906,497.4375 42.325,497.6953 Q42.5594,497.9531 42.5594,498.5625 L42.5594,500.0156 Q42.5594,500.625 42.325,500.8906 Q42.0906,501.1563 41.7156,501.1563 Q41.3719,501.1563 41.1688,500.9531 Q40.9656,500.7656 40.8563,500.25 Q40.8094,499.8906 40.6219,499.7031 Q40.2938,499.3281 39.6844,499.1094 Q39.075,498.8906 38.45,498.8906 Q37.6844,498.8906 37.0516,499.2188 Q36.4188,499.5469 35.9266,500.2969 Q35.4344,501.0469 35.4344,502.0781 L35.4344,503.1719 Q35.4344,504.4063 36.325,505.2266 Q37.2156,506.0469 38.8094,506.0469 Q39.7469,506.0469 40.4031,505.7969 Q40.7938,505.6406 41.2156,505.2031 Q41.4813,504.9375 41.6297,504.8594 Q41.7781,504.7813 41.9813,504.7813 Q42.3094,504.7813 42.5672,505.0391 Q42.825,505.2969 42.825,505.6406 Q42.825,505.9844 42.4813,506.3906 Q41.9813,506.9688 41.1844,507.2969 Q40.1063,507.75 38.8094,507.75 Q37.2938,507.75 36.0906,507.125 Q35.1063,506.625 34.4188,505.5547 Q33.7313,504.4844 33.7313,503.2031 L33.7313,502.0469 Q33.7313,500.7188 34.3484,499.5703 Q34.9656,498.4219 36.0594,497.8047 Q37.1531,497.1875 38.3875,497.1875 Q39.1219,497.1875 39.7703,497.3516 Q40.4188,497.5156 40.9656,497.875 Z " fill="#000000"/><text fill="#000000" font-family="sans-serif" font-size="12" lengthAdjust="spacing" textLength="64" x="55.8" y="506.9102">AdressDTO</text><line style="stroke:#A80036;stroke-width:1.5;" x1="8" x2="138" y1="518" y2="518"/><ellipse cx="18" cy="529" rx="3" ry="3" style="stroke:#038048;stroke-width:1.0;fill:none;"/><text fill="#000000" font-family="sans-serif" font-size="11" lengthAdjust="spacing" textLength="72" x="27" y="533.4189">Name1?: string</text><ellipse cx="18" cy="542.8359" rx="3" ry="3" style="stroke:#038048;stroke-width:1.0;fill:none;"/><text fill="#000000" font-family="sans-serif" font-size="11" lengthAdjust="spacing" textLength="72" x="27" y="547.2549">Name2?: string</text><ellipse cx="18" cy="556.6719" rx="3" ry="3" style="stroke:#038048;stroke-width:1.0;fill:none;"/><text fill="#000000" font-family="sans-serif" font-size="11" lengthAdjust="spacing" textLength="81" x="27" y="561.0908">Adress1?: string</text><ellipse cx="18" cy="570.5078" rx="3" ry="3" style="stroke:#038048;stroke-width:1.0;fill:none;"/><text fill="#000000" font-family="sans-serif" font-size="11" lengthAdjust="spacing" textLength="81" x="27" y="574.9268">Adress2?: string</text><ellipse cx="18" cy="584.3438" rx="3" ry="3" style="stroke:#038048;stroke-width:1.0;fill:none;"/><text fill="#000000" font-family="sans-serif" font-size="11" lengthAdjust="spacing" textLength="106" x="27" y="588.7627">Housenumber?: string</text><ellipse cx="18" cy="598.1797" rx="3" ry="3" style="stroke:#038048;stroke-width:1.0;fill:none;"/><text fill="#000000" font-family="sans-serif" font-size="11" lengthAdjust="spacing" textLength="57" x="27" y="602.5986">City?: string</text><ellipse cx="18" cy="612.0156" rx="3" ry="3" style="stroke:#038048;stroke-width:1.0;fill:none;"/><text fill="#000000" font-family="sans-serif" font-size="11" lengthAdjust="spacing" textLength="84" x="27" y="616.4346">Postcode?: string</text><ellipse cx="18" cy="625.8516" rx="3" ry="3" style="stroke:#038048;stroke-width:1.0;fill:none;"/><text fill="#000000" font-family="sans-serif" font-size="11" lengthAdjust="spacing" text-decoration="underline" textLength="60" x="27" y="630.2705">TypeId: Guid</text><line style="stroke:#A80036;stroke-width:1.5;" x1="8" x2="138" y1="636.6875" y2="636.6875"/><!--MD5=[fe6b2754769bc87cf156126798433078]
class CommandWrapper--><rect codeLine="16" fill="#FEFECE" filter="url(#fj21iaszgsoda)" height="227.8672" id="CommandWrapper" style="stroke:#A80036;stroke-width:1.5;" width="327" x="95.5" y="7"/><ellipse cx="201.75" cy="23" fill="#ADD1B2" rx="11" ry="11" style="stroke:#A80036;stroke-width:1.0;"/><path d="M204.5156,18.875 Q204.6719,18.6563 204.8594,18.5469 Q205.0469,18.4375 205.2656,18.4375 Q205.6406,18.4375 205.875,18.6953 Q206.1094,18.9531 206.1094,19.5625 L206.1094,21.0156 Q206.1094,21.625 205.875,21.8906 Q205.6406,22.1563 205.2656,22.1563 Q204.9219,22.1563 204.7188,21.9531 Q204.5156,21.7656 204.4063,21.25 Q204.3594,20.8906 204.1719,20.7031 Q203.8438,20.3281 203.2344,20.1094 Q202.625,19.8906 202,19.8906 Q201.2344,19.8906 200.6016,20.2188 Q199.9688,20.5469 199.4766,21.2969 Q198.9844,22.0469 198.9844,23.0781 L198.9844,24.1719 Q198.9844,25.4063 199.875,26.2266 Q200.7656,27.0469 202.3594,27.0469 Q203.2969,27.0469 203.9531,26.7969 Q204.3438,26.6406 204.7656,26.2031 Q205.0313,25.9375 205.1797,25.8594 Q205.3281,25.7813 205.5313,25.7813 Q205.8594,25.7813 206.1172,26.0391 Q206.375,26.2969 206.375,26.6406 Q206.375,26.9844 206.0313,27.3906 Q205.5313,27.9688 204.7344,28.2969 Q203.6563,28.75 202.3594,28.75 Q200.8438,28.75 199.6406,28.125 Q198.6563,27.625 197.9688,26.5547 Q197.2813,25.4844 197.2813,24.2031 L197.2813,23.0469 Q197.2813,21.7188 197.8984,20.5703 Q198.5156,19.4219 199.6094,18.8047 Q200.7031,18.1875 201.9375,18.1875 Q202.6719,18.1875 203.3203,18.3516 Q203.9688,18.5156 204.5156,18.875 Z " fill="#000000"/><text fill="#000000" font-family="sans-serif" font-size="12" lengthAdjust="spacing" textLength="106" x="222.25" y="27.9102">CommandWrapper</text><line style="stroke:#A80036;stroke-width:1.5;" x1="96.5" x2="421.5" y1="39" y2="39"/><rect fill="none" height="6" style="stroke:#C82930;stroke-width:1.0;" width="6" x="103.5" y="47"/><text fill="#000000" font-family="sans-serif" font-size="11" lengthAdjust="spacing" textLength="45" x="115.5" y="54.4189">_dto: any</text><rect fill="none" height="6" style="stroke:#C82930;stroke-width:1.0;" width="6" x="103.5" y="60.8359"/><text fill="#000000" font-family="sans-serif" font-size="11" lengthAdjust="spacing" textLength="66" x="115.5" y="68.2549">_service: any</text><ellipse cx="106.5" cy="77.6719" rx="3" ry="3" style="stroke:#038048;stroke-width:1.0;fill:none;"/><text fill="#000000" font-family="sans-serif" font-size="11" lengthAdjust="spacing" textLength="61" x="115.5" y="82.0908">Service: any</text><ellipse cx="106.5" cy="91.5078" rx="3" ry="3" style="stroke:#038048;stroke-width:1.0;fill:none;"/><text fill="#000000" font-family="sans-serif" font-size="11" lengthAdjust="spacing" textLength="45" x="115.5" y="95.9268">DTO: any</text><ellipse cx="106.5" cy="105.3438" rx="3" ry="3" style="stroke:#038048;stroke-width:1.0;fill:none;"/><text fill="#000000" font-family="sans-serif" font-size="11" lengthAdjust="spacing" textLength="93" x="115.5" y="109.7627">Response: boolean</text><ellipse cx="106.5" cy="119.1797" rx="3" ry="3" style="stroke:#038048;stroke-width:1.0;fill:none;"/><text fill="#000000" font-family="sans-serif" font-size="11" lengthAdjust="spacing" textLength="83" x="115.5" y="123.5986">Arguments: any[]</text><ellipse cx="106.5" cy="133.0156" rx="3" ry="3" style="stroke:#038048;stroke-width:1.0;fill:none;"/><text fill="#000000" font-family="sans-serif" font-size="11" lengthAdjust="spacing" textLength="52" x="115.5" y="137.4346">Type: Guid</text><ellipse cx="106.5" cy="146.8516" rx="3" ry="3" style="stroke:#038048;stroke-width:1.0;fill:none;"/><text fill="#000000" font-family="sans-serif" font-size="11" lengthAdjust="spacing" textLength="36" x="115.5" y="151.2705">Id: Guid</text><rect fill="none" height="6" style="stroke:#C82930;stroke-width:1.0;" width="6" x="103.5" y="157.6875"/><text fill="#000000" font-family="sans-serif" font-size="11" lengthAdjust="spacing" text-decoration="underline" textLength="73" x="115.5" y="165.1064">_factories: any</text><line style="stroke:#A80036;stroke-width:1.5;" x1="96.5" x2="421.5" y1="171.5234" y2="171.5234"/><ellipse cx="106.5" cy="182.5234" fill="#84BE84" rx="3" ry="3" style="stroke:#038048;stroke-width:1.0;"/><text fill="#000000" font-family="sans-serif" font-size="11" lengthAdjust="spacing" textLength="153" x="115.5" y="186.9424">getArgument(name: string): any</text><ellipse cx="106.5" cy="196.3594" fill="#84BE84" rx="3" ry="3" style="stroke:#038048;stroke-width:1.0;"/><text fill="#000000" font-family="sans-serif" font-size="11" lengthAdjust="spacing" textLength="220" x="115.5" y="200.7783">setArgument(name: string, value: string): void</text><ellipse cx="106.5" cy="210.1953" fill="#84BE84" rx="3" ry="3" style="stroke:#038048;stroke-width:1.0;"/><text fill="#000000" font-family="sans-serif" font-size="11" lengthAdjust="spacing" textLength="142" x="115.5" y="214.6143">executeCmd(): Promise&lt;any&gt;</text><ellipse cx="106.5" cy="224.0313" fill="#84BE84" rx="3" ry="3" style="stroke:#038048;stroke-width:1.0;"/><text fill="#000000" font-family="sans-serif" font-size="11" lengthAdjust="spacing" text-decoration="underline" textLength="301" x="115.5" y="228.4502">register(typeId: Guid, factory: CommandWrapperFactory): void</text><!--MD5=[a8c0967d7b66f43265179b07355379df]
class PropertyDTO--><rect codeLine="31" fill="#FEFECE" filter="url(#fj21iaszgsoda)" height="89.5078" id="PropertyDTO" style="stroke:#A80036;stroke-width:1.5;" width="102" x="205" y="705"/><ellipse cx="220" cy="721" fill="#ADD1B2" rx="11" ry="11" style="stroke:#A80036;stroke-width:1.0;"/><path d="M222.7656,716.875 Q222.9219,716.6563 223.1094,716.5469 Q223.2969,716.4375 223.5156,716.4375 Q223.8906,716.4375 224.125,716.6953 Q224.3594,716.9531 224.3594,717.5625 L224.3594,719.0156 Q224.3594,719.625 224.125,719.8906 Q223.8906,720.1563 223.5156,720.1563 Q223.1719,720.1563 222.9688,719.9531 Q222.7656,719.7656 222.6563,719.25 Q222.6094,718.8906 222.4219,718.7031 Q222.0938,718.3281 221.4844,718.1094 Q220.875,717.8906 220.25,717.8906 Q219.4844,717.8906 218.8516,718.2188 Q218.2188,718.5469 217.7266,719.2969 Q217.2344,720.0469 217.2344,721.0781 L217.2344,722.1719 Q217.2344,723.4063 218.125,724.2266 Q219.0156,725.0469 220.6094,725.0469 Q221.5469,725.0469 222.2031,724.7969 Q222.5938,724.6406 223.0156,724.2031 Q223.2813,723.9375 223.4297,723.8594 Q223.5781,723.7813 223.7813,723.7813 Q224.1094,723.7813 224.3672,724.0391 Q224.625,724.2969 224.625,724.6406 Q224.625,724.9844 224.2813,725.3906 Q223.7813,725.9688 222.9844,726.2969 Q221.9063,726.75 220.6094,726.75 Q219.0938,726.75 217.8906,726.125 Q216.9063,725.625 216.2188,724.5547 Q215.5313,723.4844 215.5313,722.2031 L215.5313,721.0469 Q215.5313,719.7188 216.1484,718.5703 Q216.7656,717.4219 217.8594,716.8047 Q218.9531,716.1875 220.1875,716.1875 Q220.9219,716.1875 221.5703,716.3516 Q222.2188,716.5156 222.7656,716.875 Z " fill="#000000"/><text fill="#000000" font-family="sans-serif" font-size="12" lengthAdjust="spacing" textLength="70" x="234" y="725.9102">PropertyDTO</text><line style="stroke:#A80036;stroke-width:1.5;" x1="206" x2="306" y1="737" y2="737"/><ellipse cx="216" cy="748" rx="3" ry="3" style="stroke:#038048;stroke-width:1.0;fill:none;"/><text fill="#000000" font-family="sans-serif" font-size="11" lengthAdjust="spacing" textLength="66" x="225" y="752.4189">Name?: string</text><ellipse cx="216" cy="761.8359" rx="3" ry="3" style="stroke:#038048;stroke-width:1.0;fill:none;"/><text fill="#000000" font-family="sans-serif" font-size="11" lengthAdjust="spacing" textLength="67" x="225" y="766.2549">Value?: string</text><ellipse cx="216" cy="775.6719" rx="3" ry="3" style="stroke:#038048;stroke-width:1.0;fill:none;"/><text fill="#000000" font-family="sans-serif" font-size="11" lengthAdjust="spacing" text-decoration="underline" textLength="60" x="225" y="780.0908">TypeId: Guid</text><line style="stroke:#A80036;stroke-width:1.5;" x1="206" x2="306" y1="786.5078" y2="786.5078"/><!--MD5=[f5d54f60ec6d089d1cb017027d5a65a8]
class CommandDTO--><rect codeLine="36" fill="#FEFECE" filter="url(#fj21iaszgsoda)" height="89.5078" id="CommandDTO" style="stroke:#A80036;stroke-width:1.5;" width="159" x="176.5" y="520.5"/><ellipse cx="210.85" cy="536.5" fill="#ADD1B2" rx="11" ry="11" style="stroke:#A80036;stroke-width:1.0;"/><path d="M213.6156,532.375 Q213.7719,532.1563 213.9594,532.0469 Q214.1469,531.9375 214.3656,531.9375 Q214.7406,531.9375 214.975,532.1953 Q215.2094,532.4531 215.2094,533.0625 L215.2094,534.5156 Q215.2094,535.125 214.975,535.3906 Q214.7406,535.6563 214.3656,535.6563 Q214.0219,535.6563 213.8188,535.4531 Q213.6156,535.2656 213.5063,534.75 Q213.4594,534.3906 213.2719,534.2031 Q212.9438,533.8281 212.3344,533.6094 Q211.725,533.3906 211.1,533.3906 Q210.3344,533.3906 209.7016,533.7188 Q209.0688,534.0469 208.5766,534.7969 Q208.0844,535.5469 208.0844,536.5781 L208.0844,537.6719 Q208.0844,538.9063 208.975,539.7266 Q209.8656,540.5469 211.4594,540.5469 Q212.3969,540.5469 213.0531,540.2969 Q213.4438,540.1406 213.8656,539.7031 Q214.1313,539.4375 214.2797,539.3594 Q214.4281,539.2813 214.6313,539.2813 Q214.9594,539.2813 215.2172,539.5391 Q215.475,539.7969 215.475,540.1406 Q215.475,540.4844 215.1313,540.8906 Q214.6313,541.4688 213.8344,541.7969 Q212.7563,542.25 211.4594,542.25 Q209.9438,542.25 208.7406,541.625 Q207.7563,541.125 207.0688,540.0547 Q206.3813,538.9844 206.3813,537.7031 L206.3813,536.5469 Q206.3813,535.2188 206.9984,534.0703 Q207.6156,532.9219 208.7094,532.3047 Q209.8031,531.6875 211.0375,531.6875 Q211.7719,531.6875 212.4203,531.8516 Q213.0688,532.0156 213.6156,532.375 Z " fill="#000000"/><text fill="#000000" font-family="sans-serif" font-size="12" lengthAdjust="spacing" textLength="84" x="229.15" y="541.4102">CommandDTO</text><line style="stroke:#A80036;stroke-width:1.5;" x1="177.5" x2="334.5" y1="552.5" y2="552.5"/><ellipse cx="187.5" cy="563.5" rx="3" ry="3" style="stroke:#038048;stroke-width:1.0;fill:none;"/><text fill="#000000" font-family="sans-serif" font-size="11" lengthAdjust="spacing" textLength="99" x="196.5" y="567.9189">Response?: boolean</text><ellipse cx="187.5" cy="577.3359" rx="3" ry="3" style="stroke:#038048;stroke-width:1.0;fill:none;"/><text fill="#000000" font-family="sans-serif" font-size="11" lengthAdjust="spacing" textLength="133" x="196.5" y="581.7549">Arguments?: PropertyDTO[]</text><ellipse cx="187.5" cy="591.1719" rx="3" ry="3" style="stroke:#038048;stroke-width:1.0;fill:none;"/><text fill="#000000" font-family="sans-serif" font-size="11" lengthAdjust="spacing" text-decoration="underline" textLength="60" x="196.5" y="595.5908">TypeId: Guid</text><line style="stroke:#A80036;stroke-width:1.5;" x1="177.5" x2="334.5" y1="602.0078" y2="602.0078"/><!--MD5=[43b8063d7ffc9b3f4cc5f181073a746c]
class DeleteAdressBase--><rect codeLine="41" fill="#FEFECE" filter="url(#fj21iaszgsoda)" height="131.0156" id="DeleteAdressBase" style="stroke:#A80036;stroke-width:1.5;" width="222" x="148" y="295"/><ellipse cx="202.75" cy="311" fill="#ADD1B2" rx="11" ry="11" style="stroke:#A80036;stroke-width:1.0;"/><path d="M205.5156,306.875 Q205.6719,306.6563 205.8594,306.5469 Q206.0469,306.4375 206.2656,306.4375 Q206.6406,306.4375 206.875,306.6953 Q207.1094,306.9531 207.1094,307.5625 L207.1094,309.0156 Q207.1094,309.625 206.875,309.8906 Q206.6406,310.1563 206.2656,310.1563 Q205.9219,310.1563 205.7188,309.9531 Q205.5156,309.7656 205.4063,309.25 Q205.3594,308.8906 205.1719,308.7031 Q204.8438,308.3281 204.2344,308.1094 Q203.625,307.8906 203,307.8906 Q202.2344,307.8906 201.6016,308.2188 Q200.9688,308.5469 200.4766,309.2969 Q199.9844,310.0469 199.9844,311.0781 L199.9844,312.1719 Q199.9844,313.4063 200.875,314.2266 Q201.7656,315.0469 203.3594,315.0469 Q204.2969,315.0469 204.9531,314.7969 Q205.3438,314.6406 205.7656,314.2031 Q206.0313,313.9375 206.1797,313.8594 Q206.3281,313.7813 206.5313,313.7813 Q206.8594,313.7813 207.1172,314.0391 Q207.375,314.2969 207.375,314.6406 Q207.375,314.9844 207.0313,315.3906 Q206.5313,315.9688 205.7344,316.2969 Q204.6563,316.75 203.3594,316.75 Q201.8438,316.75 200.6406,316.125 Q199.6563,315.625 198.9688,314.5547 Q198.2813,313.4844 198.2813,312.2031 L198.2813,311.0469 Q198.2813,309.7188 198.8984,308.5703 Q199.5156,307.4219 200.6094,306.8047 Q201.7031,306.1875 202.9375,306.1875 Q203.6719,306.1875 204.3203,306.3516 Q204.9688,306.5156 205.5156,306.875 Z " fill="#000000"/><text fill="#000000" font-family="sans-serif" font-size="12" lengthAdjust="spacing" textLength="104" x="223.25" y="315.9102">DeleteAdressBase</text><line style="stroke:#A80036;stroke-width:1.5;" x1="149" x2="369" y1="327" y2="327"/><ellipse cx="159" cy="338" rx="3" ry="3" style="stroke:#038048;stroke-width:1.0;fill:none;"/><text fill="#000000" font-family="sans-serif" font-size="11" lengthAdjust="spacing" textLength="36" x="168" y="342.4189">Id: Guid</text><ellipse cx="159" cy="351.8359" rx="3" ry="3" style="stroke:#038048;stroke-width:1.0;fill:none;"/><text fill="#000000" font-family="sans-serif" font-size="11" lengthAdjust="spacing" textLength="36" x="168" y="356.2549">Id: Guid</text><ellipse cx="159" cy="365.6719" rx="3" ry="3" style="stroke:#038048;stroke-width:1.0;fill:none;"/><text fill="#000000" font-family="sans-serif" font-size="11" lengthAdjust="spacing" textLength="93" x="168" y="370.0908">Result: AdressDTO</text><ellipse cx="159" cy="379.5078" rx="3" ry="3" style="stroke:#038048;stroke-width:1.0;fill:none;"/><text fill="#000000" font-family="sans-serif" font-size="11" lengthAdjust="spacing" text-decoration="underline" textLength="60" x="168" y="383.9268">TypeId: Guid</text><line style="stroke:#A80036;stroke-width:1.5;" x1="149" x2="369" y1="390.3438" y2="390.3438"/><ellipse cx="159" cy="401.3438" fill="#84BE84" rx="3" ry="3" style="stroke:#038048;stroke-width:1.0;"/><text fill="#000000" font-family="sans-serif" font-size="11" lengthAdjust="spacing" textLength="196" x="168" y="405.7627">execute(id: Guid): Promise&lt;AdressDTO&gt;</text><ellipse cx="159" cy="415.1797" fill="#84BE84" rx="3" ry="3" style="stroke:#038048;stroke-width:1.0;"/><text fill="#000000" font-family="sans-serif" font-size="11" lengthAdjust="spacing" text-decoration="underline" textLength="159" x="168" y="419.5986">IsForMe(dto: CommandDTO): any</text><!--MD5=[78563b2dced031dcc99154e54e28d438]
reverse link BaseDTO to AdressDTO--><path d="M69.58,425.66 C70.05,444.74 70.57,465.86 71.06,485.75 " fill="none" id="BaseDTO-backto-AdressDTO" style="stroke:#A80036;stroke-width:1.0;"/><polygon fill="none" points="62.58,425.71,69.08,405.55,76.58,425.37,62.58,425.71" style="stroke:#A80036;stroke-width:1.0;"/><!--MD5=[9714f00bbee80ca7b140c29ae529c8eb]
reverse link BaseDTO to CommandDTO--><path d="M122.69,420.55 C152.15,452.37 187.9,490.97 214.96,520.19 " fill="none" id="BaseDTO-backto-CommandDTO" style="stroke:#A80036;stroke-width:1.0;"/><polygon fill="none" points="117.25,424.98,108.79,405.55,127.52,415.47,117.25,424.98" style="stroke:#A80036;stroke-width:1.0;"/><!--MD5=[3f5aa5f3aa1b864156710f66f3941789]
reverse link CommandWrapper to DeleteAdressBase--><path d="M259,255.28 C259,268.93 259,282.32 259,294.71 " fill="none" id="CommandWrapper-backto-DeleteAdressBase" style="stroke:#A80036;stroke-width:1.0;"/><polygon fill="none" points="252,255.19,259,235.19,266,255.19,252,255.19" style="stroke:#A80036;stroke-width:1.0;"/><!--MD5=[92fdb8409966ab8b3f648f5668444010]
link CommandDTO to PropertyDTO--><path codeLine="49" d="M256,610.68 C256,637.59 256,672.03 256,699.81 " fill="none" id="CommandDTO-to-PropertyDTO" style="stroke:#A80036;stroke-width:1.0;"/><polygon fill="#A80036" points="256,704.91,260,695.91,256,699.91,252,695.91,256,704.91" style="stroke:#A80036;stroke-width:1.0;"/><text fill="#000000" font-family="sans-serif" font-size="13" lengthAdjust="spacing" textLength="5" x="250.6016" y="694.0111">*</text><!--MD5=[26cc0b97d072adf60e47a53179432921]
link DeleteAdressBase to AdressDTO--><path codeLine="50" d="M199.89,426.01 C181.67,445.9 161.43,467.99 142.57,488.57 " fill="none" id="DeleteAdressBase-to-AdressDTO" style="stroke:#A80036;stroke-width:1.0;"/><polygon fill="#A80036" points="139.06,492.4,148.0943,488.478,142.4425,488.7178,142.2027,483.066,139.06,492.4" style="stroke:#A80036;stroke-width:1.0;"/><text fill="#000000" font-family="sans-serif" font-size="13" lengthAdjust="spacing" textLength="7" x="147.1029" y="480.5563">1</text><!--MD5=[76ae8747d7bca6a993203787d4c7a1c4]
link DeleteAdressBase to CommandDTO--><path codeLine="51" d="M258.05,426.01 C257.62,454.85 257.13,488.31 256.73,515.12 " fill="none" id="DeleteAdressBase-to-CommandDTO" style="stroke:#A80036;stroke-width:1.0;"/><polygon fill="#A80036" points="256.65,520.39,260.7782,511.4481,256.7214,515.3905,252.779,511.3338,256.65,520.39" style="stroke:#A80036;stroke-width:1.0;"/><text fill="#000000" font-family="sans-serif" font-size="13" lengthAdjust="spacing" textLength="7" x="249.1958" y="509.4879">1</text><!--MD5=[7dd8ef252daa128096882661cc9a2dda]
@startuml
class BaseDTO {
    +Id?: string
    +Type?: string
    +{static} TypeId: Guid
}
class AdressDTO extends BaseDTO {
    +Name1?: string
    +Name2?: string
    +Adress1?: string
    +Adress2?: string
    +Housenumber?: string
    +City?: string
    +Postcode?: string
    +{static} TypeId: Guid
}
class CommandWrapper {
    -_dto: any
    -_service: any
    +Service: any
    +DTO: any
    +Response: boolean
    +Arguments: any[]
    +Type: Guid
    +Id: Guid
    +getArgument(name: string): any
    +setArgument(name: string, value: string): void
    +executeCmd(): Promise<any>
    -{static} _factories: any
    +{static} register(typeId: Guid, factory: CommandWrapperFactory): void
}
class PropertyDTO {
    +Name?: string
    +Value?: string
    +{static} TypeId: Guid
}
class CommandDTO extends BaseDTO {
    +Response?: boolean
    +Arguments?: PropertyDTO[]
    +{static} TypeId: Guid
}
class DeleteAdressBase extends CommandWrapper {
    +Id: Guid
    +Id: Guid
    +Result: AdressDTO
    +execute(id: Guid): Promise<AdressDTO>
    +{static} TypeId: Guid
    +{static} IsForMe(dto: CommandDTO): any
}
CommandDTO - -> "*" PropertyDTO
DeleteAdressBase - -> "1" AdressDTO
DeleteAdressBase - -> "1" CommandDTO
@enduml

PlantUML version 1.2021.10(Mon Aug 30 15:43:48 CEST 2021)
(GPL source distribution)
Java Runtime: Java(TM) SE Runtime Environment
JVM: Java HotSpot(TM) Client VM
Default Encoding: Cp1252
Language: de
Country: CH
--></g></svg>