<?xml version="1.0" encoding="UTF-8" standalone="no"?><svg xmlns="http://www.w3.org/2000/svg" xmlns:xlink="http://www.w3.org/1999/xlink" contentScriptType="application/ecmascript" contentStyleType="text/css" height="739px" preserveAspectRatio="none" style="width:422px;height:739px;background:#FFFFFF;" version="1.1" viewBox="0 0 422 739" width="422px" zoomAndPan="magnify"><defs><filter height="300%" id="f1fvgfg8sjl4ua" width="300%" x="-1" y="-1"><feGaussianBlur result="blurOut" stdDeviation="2.0"/><feColorMatrix in="blurOut" result="blurOut2" type="matrix" values="0 0 0 0 0 0 0 0 0 0 0 0 0 0 0 0 0 0 .4 0"/><feOffset dx="4.0" dy="4.0" in="blurOut2" result="blurOut3"/><feBlend in="SourceGraphic" in2="blurOut3" mode="normal"/></filter></defs><g><!--MD5=[6b1d3384926f1bc892ee196bbd0d7fce]
class BaseDTO--><rect codeLine="1" fill="#FEFECE" filter="url(#f1fvgfg8sjl4ua)" height="89.5078" id="BaseDTO" style="stroke:#A80036;stroke-width:1.5;" width="89" x="7" y="315.5"/><ellipse cx="23.35" cy="331.5" fill="#ADD1B2" rx="11" ry="11" style="stroke:#A80036;stroke-width:1.0;"/><path d="M26.1156,327.375 Q26.2719,327.1563 26.4594,327.0469 Q26.6469,326.9375 26.8656,326.9375 Q27.2406,326.9375 27.475,327.1953 Q27.7094,327.4531 27.7094,328.0625 L27.7094,329.5156 Q27.7094,330.125 27.475,330.3906 Q27.2406,330.6563 26.8656,330.6563 Q26.5219,330.6563 26.3188,330.4531 Q26.1156,330.2656 26.0063,329.75 Q25.9594,329.3906 25.7719,329.2031 Q25.4438,328.8281 24.8344,328.6094 Q24.225,328.3906 23.6,328.3906 Q22.8344,328.3906 22.2016,328.7188 Q21.5688,329.0469 21.0766,329.7969 Q20.5844,330.5469 20.5844,331.5781 L20.5844,332.6719 Q20.5844,333.9063 21.475,334.7266 Q22.3656,335.5469 23.9594,335.5469 Q24.8969,335.5469 25.5531,335.2969 Q25.9438,335.1406 26.3656,334.7031 Q26.6313,334.4375 26.7797,334.3594 Q26.9281,334.2813 27.1313,334.2813 Q27.4594,334.2813 27.7172,334.5391 Q27.975,334.7969 27.975,335.1406 Q27.975,335.4844 27.6313,335.8906 Q27.1313,336.4688 26.3344,336.7969 Q25.2563,337.25 23.9594,337.25 Q22.4438,337.25 21.2406,336.625 Q20.2563,336.125 19.5688,335.0547 Q18.8813,333.9844 18.8813,332.7031 L18.8813,331.5469 Q18.8813,330.2188 19.4984,329.0703 Q20.1156,327.9219 21.2094,327.3047 Q22.3031,326.6875 23.5375,326.6875 Q24.2719,326.6875 24.9203,326.8516 Q25.5688,327.0156 26.1156,327.375 Z " fill="#000000"/><text fill="#000000" font-family="sans-serif" font-size="12" lengthAdjust="spacing" textLength="54" x="37.65" y="336.4102">BaseDTO</text><line style="stroke:#A80036;stroke-width:1.5;" x1="8" x2="95" y1="347.5" y2="347.5"/><ellipse cx="18" cy="358.5" rx="3" ry="3" style="stroke:#038048;stroke-width:1.0;fill:none;"/><text fill="#000000" font-family="sans-serif" font-size="11" lengthAdjust="spacing" textLength="47" x="27" y="362.9189">Id?: string</text><ellipse cx="18" cy="372.3359" rx="3" ry="3" style="stroke:#038048;stroke-width:1.0;fill:none;"/><text fill="#000000" font-family="sans-serif" font-size="11" lengthAdjust="spacing" textLength="63" x="27" y="376.7549">Type?: string</text><ellipse cx="18" cy="386.1719" rx="3" ry="3" style="stroke:#038048;stroke-width:1.0;fill:none;"/><text fill="#000000" font-family="sans-serif" font-size="11" lengthAdjust="spacing" text-decoration="underline" textLength="60" x="27" y="390.5908">TypeId: Guid</text><line style="stroke:#A80036;stroke-width:1.5;" x1="8" x2="95" y1="397.0078" y2="397.0078"/><!--MD5=[82aa133a2b4aef49cf9b90dd4c9c4c0f]
class ExampleDTO--><rect codeLine="6" fill="#FEFECE" filter="url(#f1fvgfg8sjl4ua)" height="89.5078" id="ExampleDTO" style="stroke:#A80036;stroke-width:1.5;" width="105" x="12" y="486"/><ellipse cx="27" cy="502" fill="#ADD1B2" rx="11" ry="11" style="stroke:#A80036;stroke-width:1.0;"/><path d="M29.7656,497.875 Q29.9219,497.6563 30.1094,497.5469 Q30.2969,497.4375 30.5156,497.4375 Q30.8906,497.4375 31.125,497.6953 Q31.3594,497.9531 31.3594,498.5625 L31.3594,500.0156 Q31.3594,500.625 31.125,500.8906 Q30.8906,501.1563 30.5156,501.1563 Q30.1719,501.1563 29.9688,500.9531 Q29.7656,500.7656 29.6563,500.25 Q29.6094,499.8906 29.4219,499.7031 Q29.0938,499.3281 28.4844,499.1094 Q27.875,498.8906 27.25,498.8906 Q26.4844,498.8906 25.8516,499.2188 Q25.2188,499.5469 24.7266,500.2969 Q24.2344,501.0469 24.2344,502.0781 L24.2344,503.1719 Q24.2344,504.4063 25.125,505.2266 Q26.0156,506.0469 27.6094,506.0469 Q28.5469,506.0469 29.2031,505.7969 Q29.5938,505.6406 30.0156,505.2031 Q30.2813,504.9375 30.4297,504.8594 Q30.5781,504.7813 30.7813,504.7813 Q31.1094,504.7813 31.3672,505.0391 Q31.625,505.2969 31.625,505.6406 Q31.625,505.9844 31.2813,506.3906 Q30.7813,506.9688 29.9844,507.2969 Q28.9063,507.75 27.6094,507.75 Q26.0938,507.75 24.8906,507.125 Q23.9063,506.625 23.2188,505.5547 Q22.5313,504.4844 22.5313,503.2031 L22.5313,502.0469 Q22.5313,500.7188 23.1484,499.5703 Q23.7656,498.4219 24.8594,497.8047 Q25.9531,497.1875 27.1875,497.1875 Q27.9219,497.1875 28.5703,497.3516 Q29.2188,497.5156 29.7656,497.875 Z " fill="#000000"/><text fill="#000000" font-family="sans-serif" font-size="12" lengthAdjust="spacing" textLength="73" x="41" y="506.9102">ExampleDTO</text><line style="stroke:#A80036;stroke-width:1.5;" x1="13" x2="116" y1="518" y2="518"/><ellipse cx="23" cy="529" rx="3" ry="3" style="stroke:#038048;stroke-width:1.0;fill:none;"/><text fill="#000000" font-family="sans-serif" font-size="11" lengthAdjust="spacing" textLength="59" x="32" y="533.4189">One?: string</text><ellipse cx="23" cy="542.8359" rx="3" ry="3" style="stroke:#038048;stroke-width:1.0;fill:none;"/><text fill="#000000" font-family="sans-serif" font-size="11" lengthAdjust="spacing" textLength="72" x="32" y="547.2549">Two?: boolean</text><ellipse cx="23" cy="556.6719" rx="3" ry="3" style="stroke:#038048;stroke-width:1.0;fill:none;"/><text fill="#000000" font-family="sans-serif" font-size="11" lengthAdjust="spacing" text-decoration="underline" textLength="60" x="32" y="561.0908">TypeId: Guid</text><line style="stroke:#A80036;stroke-width:1.5;" x1="13" x2="116" y1="567.5078" y2="567.5078"/><!--MD5=[fe6b2754769bc87cf156126798433078]
class CommandWrapper--><rect codeLine="11" fill="#FEFECE" filter="url(#f1fvgfg8sjl4ua)" height="227.8672" id="CommandWrapper" style="stroke:#A80036;stroke-width:1.5;" width="327" x="81" y="7"/><ellipse cx="187.25" cy="23" fill="#ADD1B2" rx="11" ry="11" style="stroke:#A80036;stroke-width:1.0;"/><path d="M190.0156,18.875 Q190.1719,18.6563 190.3594,18.5469 Q190.5469,18.4375 190.7656,18.4375 Q191.1406,18.4375 191.375,18.6953 Q191.6094,18.9531 191.6094,19.5625 L191.6094,21.0156 Q191.6094,21.625 191.375,21.8906 Q191.1406,22.1563 190.7656,22.1563 Q190.4219,22.1563 190.2188,21.9531 Q190.0156,21.7656 189.9063,21.25 Q189.8594,20.8906 189.6719,20.7031 Q189.3438,20.3281 188.7344,20.1094 Q188.125,19.8906 187.5,19.8906 Q186.7344,19.8906 186.1016,20.2188 Q185.4688,20.5469 184.9766,21.2969 Q184.4844,22.0469 184.4844,23.0781 L184.4844,24.1719 Q184.4844,25.4063 185.375,26.2266 Q186.2656,27.0469 187.8594,27.0469 Q188.7969,27.0469 189.4531,26.7969 Q189.8438,26.6406 190.2656,26.2031 Q190.5313,25.9375 190.6797,25.8594 Q190.8281,25.7813 191.0313,25.7813 Q191.3594,25.7813 191.6172,26.0391 Q191.875,26.2969 191.875,26.6406 Q191.875,26.9844 191.5313,27.3906 Q191.0313,27.9688 190.2344,28.2969 Q189.1563,28.75 187.8594,28.75 Q186.3438,28.75 185.1406,28.125 Q184.1563,27.625 183.4688,26.5547 Q182.7813,25.4844 182.7813,24.2031 L182.7813,23.0469 Q182.7813,21.7188 183.3984,20.5703 Q184.0156,19.4219 185.1094,18.8047 Q186.2031,18.1875 187.4375,18.1875 Q188.1719,18.1875 188.8203,18.3516 Q189.4688,18.5156 190.0156,18.875 Z " fill="#000000"/><text fill="#000000" font-family="sans-serif" font-size="12" lengthAdjust="spacing" textLength="106" x="207.75" y="27.9102">CommandWrapper</text><line style="stroke:#A80036;stroke-width:1.5;" x1="82" x2="407" y1="39" y2="39"/><rect fill="none" height="6" style="stroke:#C82930;stroke-width:1.0;" width="6" x="89" y="47"/><text fill="#000000" font-family="sans-serif" font-size="11" lengthAdjust="spacing" textLength="45" x="101" y="54.4189">_dto: any</text><rect fill="none" height="6" style="stroke:#C82930;stroke-width:1.0;" width="6" x="89" y="60.8359"/><text fill="#000000" font-family="sans-serif" font-size="11" lengthAdjust="spacing" textLength="66" x="101" y="68.2549">_service: any</text><ellipse cx="92" cy="77.6719" rx="3" ry="3" style="stroke:#038048;stroke-width:1.0;fill:none;"/><text fill="#000000" font-family="sans-serif" font-size="11" lengthAdjust="spacing" textLength="61" x="101" y="82.0908">Service: any</text><ellipse cx="92" cy="91.5078" rx="3" ry="3" style="stroke:#038048;stroke-width:1.0;fill:none;"/><text fill="#000000" font-family="sans-serif" font-size="11" lengthAdjust="spacing" textLength="45" x="101" y="95.9268">DTO: any</text><ellipse cx="92" cy="105.3438" rx="3" ry="3" style="stroke:#038048;stroke-width:1.0;fill:none;"/><text fill="#000000" font-family="sans-serif" font-size="11" lengthAdjust="spacing" textLength="93" x="101" y="109.7627">Response: boolean</text><ellipse cx="92" cy="119.1797" rx="3" ry="3" style="stroke:#038048;stroke-width:1.0;fill:none;"/><text fill="#000000" font-family="sans-serif" font-size="11" lengthAdjust="spacing" textLength="83" x="101" y="123.5986">Arguments: any[]</text><ellipse cx="92" cy="133.0156" rx="3" ry="3" style="stroke:#038048;stroke-width:1.0;fill:none;"/><text fill="#000000" font-family="sans-serif" font-size="11" lengthAdjust="spacing" textLength="52" x="101" y="137.4346">Type: Guid</text><ellipse cx="92" cy="146.8516" rx="3" ry="3" style="stroke:#038048;stroke-width:1.0;fill:none;"/><text fill="#000000" font-family="sans-serif" font-size="11" lengthAdjust="spacing" textLength="36" x="101" y="151.2705">Id: Guid</text><rect fill="none" height="6" style="stroke:#C82930;stroke-width:1.0;" width="6" x="89" y="157.6875"/><text fill="#000000" font-family="sans-serif" font-size="11" lengthAdjust="spacing" text-decoration="underline" textLength="73" x="101" y="165.1064">_factories: any</text><line style="stroke:#A80036;stroke-width:1.5;" x1="82" x2="407" y1="171.5234" y2="171.5234"/><ellipse cx="92" cy="182.5234" fill="#84BE84" rx="3" ry="3" style="stroke:#038048;stroke-width:1.0;"/><text fill="#000000" font-family="sans-serif" font-size="11" lengthAdjust="spacing" textLength="153" x="101" y="186.9424">getArgument(name: string): any</text><ellipse cx="92" cy="196.3594" fill="#84BE84" rx="3" ry="3" style="stroke:#038048;stroke-width:1.0;"/><text fill="#000000" font-family="sans-serif" font-size="11" lengthAdjust="spacing" textLength="220" x="101" y="200.7783">setArgument(name: string, value: string): void</text><ellipse cx="92" cy="210.1953" fill="#84BE84" rx="3" ry="3" style="stroke:#038048;stroke-width:1.0;"/><text fill="#000000" font-family="sans-serif" font-size="11" lengthAdjust="spacing" textLength="142" x="101" y="214.6143">executeCmd(): Promise&lt;any&gt;</text><ellipse cx="92" cy="224.0313" fill="#84BE84" rx="3" ry="3" style="stroke:#038048;stroke-width:1.0;"/><text fill="#000000" font-family="sans-serif" font-size="11" lengthAdjust="spacing" text-decoration="underline" textLength="301" x="101" y="228.4502">register(typeId: Guid, factory: CommandWrapperFactory): void</text><!--MD5=[a8c0967d7b66f43265179b07355379df]
class PropertyDTO--><rect codeLine="26" fill="#FEFECE" filter="url(#f1fvgfg8sjl4ua)" height="89.5078" id="PropertyDTO" style="stroke:#A80036;stroke-width:1.5;" width="102" x="186.5" y="636"/><ellipse cx="201.5" cy="652" fill="#ADD1B2" rx="11" ry="11" style="stroke:#A80036;stroke-width:1.0;"/><path d="M204.2656,647.875 Q204.4219,647.6563 204.6094,647.5469 Q204.7969,647.4375 205.0156,647.4375 Q205.3906,647.4375 205.625,647.6953 Q205.8594,647.9531 205.8594,648.5625 L205.8594,650.0156 Q205.8594,650.625 205.625,650.8906 Q205.3906,651.1563 205.0156,651.1563 Q204.6719,651.1563 204.4688,650.9531 Q204.2656,650.7656 204.1563,650.25 Q204.1094,649.8906 203.9219,649.7031 Q203.5938,649.3281 202.9844,649.1094 Q202.375,648.8906 201.75,648.8906 Q200.9844,648.8906 200.3516,649.2188 Q199.7188,649.5469 199.2266,650.2969 Q198.7344,651.0469 198.7344,652.0781 L198.7344,653.1719 Q198.7344,654.4063 199.625,655.2266 Q200.5156,656.0469 202.1094,656.0469 Q203.0469,656.0469 203.7031,655.7969 Q204.0938,655.6406 204.5156,655.2031 Q204.7813,654.9375 204.9297,654.8594 Q205.0781,654.7813 205.2813,654.7813 Q205.6094,654.7813 205.8672,655.0391 Q206.125,655.2969 206.125,655.6406 Q206.125,655.9844 205.7813,656.3906 Q205.2813,656.9688 204.4844,657.2969 Q203.4063,657.75 202.1094,657.75 Q200.5938,657.75 199.3906,657.125 Q198.4063,656.625 197.7188,655.5547 Q197.0313,654.4844 197.0313,653.2031 L197.0313,652.0469 Q197.0313,650.7188 197.6484,649.5703 Q198.2656,648.4219 199.3594,647.8047 Q200.4531,647.1875 201.6875,647.1875 Q202.4219,647.1875 203.0703,647.3516 Q203.7188,647.5156 204.2656,647.875 Z " fill="#000000"/><text fill="#000000" font-family="sans-serif" font-size="12" lengthAdjust="spacing" textLength="70" x="215.5" y="656.9102">PropertyDTO</text><line style="stroke:#A80036;stroke-width:1.5;" x1="187.5" x2="287.5" y1="668" y2="668"/><ellipse cx="197.5" cy="679" rx="3" ry="3" style="stroke:#038048;stroke-width:1.0;fill:none;"/><text fill="#000000" font-family="sans-serif" font-size="11" lengthAdjust="spacing" textLength="66" x="206.5" y="683.4189">Name?: string</text><ellipse cx="197.5" cy="692.8359" rx="3" ry="3" style="stroke:#038048;stroke-width:1.0;fill:none;"/><text fill="#000000" font-family="sans-serif" font-size="11" lengthAdjust="spacing" textLength="58" x="206.5" y="697.2549">Value?: any</text><ellipse cx="197.5" cy="706.6719" rx="3" ry="3" style="stroke:#038048;stroke-width:1.0;fill:none;"/><text fill="#000000" font-family="sans-serif" font-size="11" lengthAdjust="spacing" text-decoration="underline" textLength="60" x="206.5" y="711.0908">TypeId: Guid</text><line style="stroke:#A80036;stroke-width:1.5;" x1="187.5" x2="287.5" y1="717.5078" y2="717.5078"/><!--MD5=[f5d54f60ec6d089d1cb017027d5a65a8]
class CommandDTO--><rect codeLine="31" fill="#FEFECE" filter="url(#f1fvgfg8sjl4ua)" height="89.5078" id="CommandDTO" style="stroke:#A80036;stroke-width:1.5;" width="159" x="158" y="486"/><ellipse cx="192.35" cy="502" fill="#ADD1B2" rx="11" ry="11" style="stroke:#A80036;stroke-width:1.0;"/><path d="M195.1156,497.875 Q195.2719,497.6563 195.4594,497.5469 Q195.6469,497.4375 195.8656,497.4375 Q196.2406,497.4375 196.475,497.6953 Q196.7094,497.9531 196.7094,498.5625 L196.7094,500.0156 Q196.7094,500.625 196.475,500.8906 Q196.2406,501.1563 195.8656,501.1563 Q195.5219,501.1563 195.3188,500.9531 Q195.1156,500.7656 195.0063,500.25 Q194.9594,499.8906 194.7719,499.7031 Q194.4438,499.3281 193.8344,499.1094 Q193.225,498.8906 192.6,498.8906 Q191.8344,498.8906 191.2016,499.2188 Q190.5688,499.5469 190.0766,500.2969 Q189.5844,501.0469 189.5844,502.0781 L189.5844,503.1719 Q189.5844,504.4063 190.475,505.2266 Q191.3656,506.0469 192.9594,506.0469 Q193.8969,506.0469 194.5531,505.7969 Q194.9438,505.6406 195.3656,505.2031 Q195.6313,504.9375 195.7797,504.8594 Q195.9281,504.7813 196.1313,504.7813 Q196.4594,504.7813 196.7172,505.0391 Q196.975,505.2969 196.975,505.6406 Q196.975,505.9844 196.6313,506.3906 Q196.1313,506.9688 195.3344,507.2969 Q194.2563,507.75 192.9594,507.75 Q191.4438,507.75 190.2406,507.125 Q189.2563,506.625 188.5688,505.5547 Q187.8813,504.4844 187.8813,503.2031 L187.8813,502.0469 Q187.8813,500.7188 188.4984,499.5703 Q189.1156,498.4219 190.2094,497.8047 Q191.3031,497.1875 192.5375,497.1875 Q193.2719,497.1875 193.9203,497.3516 Q194.5688,497.5156 195.1156,497.875 Z " fill="#000000"/><text fill="#000000" font-family="sans-serif" font-size="12" lengthAdjust="spacing" textLength="84" x="210.65" y="506.9102">CommandDTO</text><line style="stroke:#A80036;stroke-width:1.5;" x1="159" x2="316" y1="518" y2="518"/><ellipse cx="169" cy="529" rx="3" ry="3" style="stroke:#038048;stroke-width:1.0;fill:none;"/><text fill="#000000" font-family="sans-serif" font-size="11" lengthAdjust="spacing" textLength="99" x="178" y="533.4189">Response?: boolean</text><ellipse cx="169" cy="542.8359" rx="3" ry="3" style="stroke:#038048;stroke-width:1.0;fill:none;"/><text fill="#000000" font-family="sans-serif" font-size="11" lengthAdjust="spacing" textLength="133" x="178" y="547.2549">Arguments?: PropertyDTO[]</text><ellipse cx="169" cy="556.6719" rx="3" ry="3" style="stroke:#038048;stroke-width:1.0;fill:none;"/><text fill="#000000" font-family="sans-serif" font-size="11" lengthAdjust="spacing" text-decoration="underline" textLength="60" x="178" y="561.0908">TypeId: Guid</text><line style="stroke:#A80036;stroke-width:1.5;" x1="159" x2="316" y1="567.5078" y2="567.5078"/><!--MD5=[7a2768e1a9e8c8a1c83080aa1c2cd042]
class ExampleBase--><rect codeLine="36" fill="#FEFECE" filter="url(#f1fvgfg8sjl4ua)" height="131.0156" id="ExampleBase" style="stroke:#A80036;stroke-width:1.5;" width="226" x="131.5" y="295"/><ellipse cx="201.75" cy="311" fill="#ADD1B2" rx="11" ry="11" style="stroke:#A80036;stroke-width:1.0;"/><path d="M204.5156,306.875 Q204.6719,306.6563 204.8594,306.5469 Q205.0469,306.4375 205.2656,306.4375 Q205.6406,306.4375 205.875,306.6953 Q206.1094,306.9531 206.1094,307.5625 L206.1094,309.0156 Q206.1094,309.625 205.875,309.8906 Q205.6406,310.1563 205.2656,310.1563 Q204.9219,310.1563 204.7188,309.9531 Q204.5156,309.7656 204.4063,309.25 Q204.3594,308.8906 204.1719,308.7031 Q203.8438,308.3281 203.2344,308.1094 Q202.625,307.8906 202,307.8906 Q201.2344,307.8906 200.6016,308.2188 Q199.9688,308.5469 199.4766,309.2969 Q198.9844,310.0469 198.9844,311.0781 L198.9844,312.1719 Q198.9844,313.4063 199.875,314.2266 Q200.7656,315.0469 202.3594,315.0469 Q203.2969,315.0469 203.9531,314.7969 Q204.3438,314.6406 204.7656,314.2031 Q205.0313,313.9375 205.1797,313.8594 Q205.3281,313.7813 205.5313,313.7813 Q205.8594,313.7813 206.1172,314.0391 Q206.375,314.2969 206.375,314.6406 Q206.375,314.9844 206.0313,315.3906 Q205.5313,315.9688 204.7344,316.2969 Q203.6563,316.75 202.3594,316.75 Q200.8438,316.75 199.6406,316.125 Q198.6563,315.625 197.9688,314.5547 Q197.2813,313.4844 197.2813,312.2031 L197.2813,311.0469 Q197.2813,309.7188 197.8984,308.5703 Q198.5156,307.4219 199.6094,306.8047 Q200.7031,306.1875 201.9375,306.1875 Q202.6719,306.1875 203.3203,306.3516 Q203.9688,306.5156 204.5156,306.875 Z " fill="#000000"/><text fill="#000000" font-family="sans-serif" font-size="12" lengthAdjust="spacing" textLength="77" x="222.25" y="315.9102">ExampleBase</text><line style="stroke:#A80036;stroke-width:1.5;" x1="132.5" x2="356.5" y1="327" y2="327"/><ellipse cx="142.5" cy="338" rx="3" ry="3" style="stroke:#038048;stroke-width:1.0;fill:none;"/><text fill="#000000" font-family="sans-serif" font-size="11" lengthAdjust="spacing" textLength="36" x="151.5" y="342.4189">Id: Guid</text><ellipse cx="142.5" cy="351.8359" rx="3" ry="3" style="stroke:#038048;stroke-width:1.0;fill:none;"/><text fill="#000000" font-family="sans-serif" font-size="11" lengthAdjust="spacing" textLength="36" x="151.5" y="356.2549">Id: Guid</text><ellipse cx="142.5" cy="365.6719" rx="3" ry="3" style="stroke:#038048;stroke-width:1.0;fill:none;"/><text fill="#000000" font-family="sans-serif" font-size="11" lengthAdjust="spacing" textLength="97" x="151.5" y="370.0908">Result: ExampleDTO</text><ellipse cx="142.5" cy="379.5078" rx="3" ry="3" style="stroke:#038048;stroke-width:1.0;fill:none;"/><text fill="#000000" font-family="sans-serif" font-size="11" lengthAdjust="spacing" text-decoration="underline" textLength="60" x="151.5" y="383.9268">TypeId: Guid</text><line style="stroke:#A80036;stroke-width:1.5;" x1="132.5" x2="356.5" y1="390.3438" y2="390.3438"/><ellipse cx="142.5" cy="401.3438" fill="#84BE84" rx="3" ry="3" style="stroke:#038048;stroke-width:1.0;"/><text fill="#000000" font-family="sans-serif" font-size="11" lengthAdjust="spacing" textLength="200" x="151.5" y="405.7627">execute(id: Guid): Promise&lt;ExampleDTO&gt;</text><ellipse cx="142.5" cy="415.1797" fill="#84BE84" rx="3" ry="3" style="stroke:#038048;stroke-width:1.0;"/><text fill="#000000" font-family="sans-serif" font-size="11" lengthAdjust="spacing" text-decoration="underline" textLength="159" x="151.5" y="419.5986">IsForMe(dto: CommandDTO): any</text><!--MD5=[55599fb6e110154ffe03d83a19183cd5]
reverse link BaseDTO to ExampleDTO--><path d="M56.46,425.83 C58.01,445.83 59.67,467.42 61.08,485.73 " fill="none" id="BaseDTO-backto-ExampleDTO" style="stroke:#A80036;stroke-width:1.0;"/><polygon fill="none" points="49.47,426.25,54.92,405.77,63.43,425.17,49.47,426.25" style="stroke:#A80036;stroke-width:1.0;"/><!--MD5=[9714f00bbee80ca7b140c29ae529c8eb]
reverse link BaseDTO to CommandDTO--><path d="M107.39,420.2 C109.44,422.17 111.48,424.11 113.5,426 C135.36,446.43 160.5,467.86 182.39,485.92 " fill="none" id="BaseDTO-backto-CommandDTO" style="stroke:#A80036;stroke-width:1.0;"/><polygon fill="none" points="102.18,424.89,92.9,405.84,112.04,414.95,102.18,424.89" style="stroke:#A80036;stroke-width:1.0;"/><!--MD5=[82b65595e4406e96e22100c8bed76abf]
reverse link CommandWrapper to ExampleBase--><path d="M244.5,255.28 C244.5,268.93 244.5,282.32 244.5,294.71 " fill="none" id="CommandWrapper-backto-ExampleBase" style="stroke:#A80036;stroke-width:1.0;"/><polygon fill="none" points="237.5,255.19,244.5,235.19,251.5,255.19,237.5,255.19" style="stroke:#A80036;stroke-width:1.0;"/><!--MD5=[92fdb8409966ab8b3f648f5668444010]
link CommandDTO to PropertyDTO--><path codeLine="44" d="M237.5,576 C237.5,593.15 237.5,612.87 237.5,630.51 " fill="none" id="CommandDTO-to-PropertyDTO" style="stroke:#A80036;stroke-width:1.0;"/><polygon fill="#A80036" points="237.5,635.91,241.5,626.91,237.5,630.91,233.5,626.91,237.5,635.91" style="stroke:#A80036;stroke-width:1.0;"/><text fill="#000000" font-family="sans-serif" font-size="13" lengthAdjust="spacing" textLength="5" x="232.1016" y="625.0111">*</text><!--MD5=[0571cdc64be3576fdc6ce233bde83069]
link ExampleBase to ExampleDTO--><path codeLine="45" d="M175.42,426.16 C155.44,444.87 134,464.94 115.35,482.4 " fill="none" id="ExampleBase-to-ExampleDTO" style="stroke:#A80036;stroke-width:1.0;"/><polygon fill="#A80036" points="111.65,485.86,120.9583,482.6421,115.3048,482.4479,115.499,476.7944,111.65,485.86" style="stroke:#A80036;stroke-width:1.0;"/><text fill="#000000" font-family="sans-serif" font-size="13" lengthAdjust="spacing" textLength="7" x="111.3339" y="475.2827">1</text><!--MD5=[ab522edda1358ae89ccb745dd9168f89]
link ExampleBase to CommandDTO--><path codeLine="46" d="M241.81,426.16 C241.06,444.25 240.26,463.61 239.55,480.65 " fill="none" id="ExampleBase-to-CommandDTO" style="stroke:#A80036;stroke-width:1.0;"/><polygon fill="#A80036" points="239.33,485.86,243.7117,477.0395,239.5441,480.8646,235.719,476.697,239.33,485.86" style="stroke:#A80036;stroke-width:1.0;"/><text fill="#000000" font-family="sans-serif" font-size="13" lengthAdjust="spacing" textLength="7" x="232.0743" y="475.2827">1</text><!--MD5=[ec6b5a72b171cb2209e70105789b4487]
@startuml
class BaseDTO {
    +Id?: string
    +Type?: string
    +{static} TypeId: Guid
}
class ExampleDTO extends BaseDTO {
    +One?: string
    +Two?: boolean
    +{static} TypeId: Guid
}
class CommandWrapper {
    -_dto: any
    -_service: any
    +Service: any
    +DTO: any
    +Response: boolean
    +Arguments: any[]
    +Type: Guid
    +Id: Guid
    +getArgument(name: string): any
    +setArgument(name: string, value: string): void
    +executeCmd(): Promise<any>
    -{static} _factories: any
    +{static} register(typeId: Guid, factory: CommandWrapperFactory): void
}
class PropertyDTO {
    +Name?: string
    +Value?: any
    +{static} TypeId: Guid
}
class CommandDTO extends BaseDTO {
    +Response?: boolean
    +Arguments?: PropertyDTO[]
    +{static} TypeId: Guid
}
class ExampleBase extends CommandWrapper {
    +Id: Guid
    +Id: Guid
    +Result: ExampleDTO
    +execute(id: Guid): Promise<ExampleDTO>
    +{static} TypeId: Guid
    +{static} IsForMe(dto: CommandDTO): any
}
CommandDTO - -> "*" PropertyDTO
ExampleBase - -> "1" ExampleDTO
ExampleBase - -> "1" CommandDTO
@enduml

PlantUML version 1.2021.10(Mon Aug 30 09:43:48 EDT 2021)
(GPL source distribution)
Java Runtime: Java(TM) SE Runtime Environment
JVM: Java HotSpot(TM) Client VM
Default Encoding: Cp1252
Language: en
Country: US
--></g></svg>