<?xml version="1.0" encoding="UTF-8" standalone="no"?><svg xmlns="http://www.w3.org/2000/svg" xmlns:xlink="http://www.w3.org/1999/xlink" contentScriptType="application/ecmascript" contentStyleType="text/css" height="794px" preserveAspectRatio="none" style="width:450px;height:794px;background:#FFFFFF;" version="1.1" viewBox="0 0 450 794" width="450px" zoomAndPan="magnify"><defs><filter height="300%" id="fr6uxancfqkps" width="300%" x="-1" y="-1"><feGaussianBlur result="blurOut" stdDeviation="2.0"/><feColorMatrix in="blurOut" result="blurOut2" type="matrix" values="0 0 0 0 0 0 0 0 0 0 0 0 0 0 0 0 0 0 .4 0"/><feOffset dx="4.0" dy="4.0" in="blurOut2" result="blurOut3"/><feBlend in="SourceGraphic" in2="blurOut3" mode="normal"/></filter></defs><g><!--MD5=[6b1d3384926f1bc892ee196bbd0d7fce]
class BaseDTO--><rect codeLine="1" fill="#FEFECE" filter="url(#fr6uxancfqkps)" height="89.5078" id="BaseDTO" style="stroke:#A80036;stroke-width:1.5;" width="86" x="12" y="301.5"/><ellipse cx="27" cy="317.5" fill="#ADD1B2" rx="11" ry="11" style="stroke:#A80036;stroke-width:1.0;"/><path d="M29.7656,313.375 Q29.9219,313.1563 30.1094,313.0469 Q30.2969,312.9375 30.5156,312.9375 Q30.8906,312.9375 31.125,313.1953 Q31.3594,313.4531 31.3594,314.0625 L31.3594,315.5156 Q31.3594,316.125 31.125,316.3906 Q30.8906,316.6563 30.5156,316.6563 Q30.1719,316.6563 29.9688,316.4531 Q29.7656,316.2656 29.6563,315.75 Q29.6094,315.3906 29.4219,315.2031 Q29.0938,314.8281 28.4844,314.6094 Q27.875,314.3906 27.25,314.3906 Q26.4844,314.3906 25.8516,314.7188 Q25.2188,315.0469 24.7266,315.7969 Q24.2344,316.5469 24.2344,317.5781 L24.2344,318.6719 Q24.2344,319.9063 25.125,320.7266 Q26.0156,321.5469 27.6094,321.5469 Q28.5469,321.5469 29.2031,321.2969 Q29.5938,321.1406 30.0156,320.7031 Q30.2813,320.4375 30.4297,320.3594 Q30.5781,320.2813 30.7813,320.2813 Q31.1094,320.2813 31.3672,320.5391 Q31.625,320.7969 31.625,321.1406 Q31.625,321.4844 31.2813,321.8906 Q30.7813,322.4688 29.9844,322.7969 Q28.9063,323.25 27.6094,323.25 Q26.0938,323.25 24.8906,322.625 Q23.9063,322.125 23.2188,321.0547 Q22.5313,319.9844 22.5313,318.7031 L22.5313,317.5469 Q22.5313,316.2188 23.1484,315.0703 Q23.7656,313.9219 24.8594,313.3047 Q25.9531,312.6875 27.1875,312.6875 Q27.9219,312.6875 28.5703,312.8516 Q29.2188,313.0156 29.7656,313.375 Z " fill="#000000"/><text fill="#000000" font-family="sans-serif" font-size="12" lengthAdjust="spacing" textLength="54" x="41" y="322.4102">BaseDTO</text><line style="stroke:#A80036;stroke-width:1.5;" x1="13" x2="97" y1="333.5" y2="333.5"/><ellipse cx="23" cy="344.5" rx="3" ry="3" style="stroke:#038048;stroke-width:1.0;fill:none;"/><text fill="#000000" font-family="sans-serif" font-size="11" lengthAdjust="spacing" textLength="42" x="32" y="348.9189">Id?: Guid</text><ellipse cx="23" cy="358.3359" rx="3" ry="3" style="stroke:#038048;stroke-width:1.0;fill:none;"/><text fill="#000000" font-family="sans-serif" font-size="11" lengthAdjust="spacing" textLength="58" x="32" y="362.7549">Type?: Guid</text><ellipse cx="23" cy="372.1719" rx="3" ry="3" style="stroke:#038048;stroke-width:1.0;fill:none;"/><text fill="#000000" font-family="sans-serif" font-size="11" lengthAdjust="spacing" text-decoration="underline" textLength="60" x="32" y="376.5908">TypeId: Guid</text><line style="stroke:#A80036;stroke-width:1.5;" x1="13" x2="97" y1="383.0078" y2="383.0078"/><!--MD5=[a5d4fcdae0bd58dbfa0890c54d6b74e5]
class AdressDTO--><rect codeLine="6" fill="#FEFECE" filter="url(#fr6uxancfqkps)" height="158.6875" id="AdressDTO" style="stroke:#A80036;stroke-width:1.5;" width="132" x="7" y="472"/><ellipse cx="38.2" cy="488" fill="#ADD1B2" rx="11" ry="11" style="stroke:#A80036;stroke-width:1.0;"/><path d="M40.9656,483.875 Q41.1219,483.6563 41.3094,483.5469 Q41.4969,483.4375 41.7156,483.4375 Q42.0906,483.4375 42.325,483.6953 Q42.5594,483.9531 42.5594,484.5625 L42.5594,486.0156 Q42.5594,486.625 42.325,486.8906 Q42.0906,487.1563 41.7156,487.1563 Q41.3719,487.1563 41.1688,486.9531 Q40.9656,486.7656 40.8563,486.25 Q40.8094,485.8906 40.6219,485.7031 Q40.2938,485.3281 39.6844,485.1094 Q39.075,484.8906 38.45,484.8906 Q37.6844,484.8906 37.0516,485.2188 Q36.4188,485.5469 35.9266,486.2969 Q35.4344,487.0469 35.4344,488.0781 L35.4344,489.1719 Q35.4344,490.4063 36.325,491.2266 Q37.2156,492.0469 38.8094,492.0469 Q39.7469,492.0469 40.4031,491.7969 Q40.7938,491.6406 41.2156,491.2031 Q41.4813,490.9375 41.6297,490.8594 Q41.7781,490.7813 41.9813,490.7813 Q42.3094,490.7813 42.5672,491.0391 Q42.825,491.2969 42.825,491.6406 Q42.825,491.9844 42.4813,492.3906 Q41.9813,492.9688 41.1844,493.2969 Q40.1063,493.75 38.8094,493.75 Q37.2938,493.75 36.0906,493.125 Q35.1063,492.625 34.4188,491.5547 Q33.7313,490.4844 33.7313,489.2031 L33.7313,488.0469 Q33.7313,486.7188 34.3484,485.5703 Q34.9656,484.4219 36.0594,483.8047 Q37.1531,483.1875 38.3875,483.1875 Q39.1219,483.1875 39.7703,483.3516 Q40.4188,483.5156 40.9656,483.875 Z " fill="#000000"/><text fill="#000000" font-family="sans-serif" font-size="12" lengthAdjust="spacing" textLength="64" x="55.8" y="492.9102">AdressDTO</text><line style="stroke:#A80036;stroke-width:1.5;" x1="8" x2="138" y1="504" y2="504"/><ellipse cx="18" cy="515" rx="3" ry="3" style="stroke:#038048;stroke-width:1.0;fill:none;"/><text fill="#000000" font-family="sans-serif" font-size="11" lengthAdjust="spacing" textLength="72" x="27" y="519.4189">Name1?: string</text><ellipse cx="18" cy="528.8359" rx="3" ry="3" style="stroke:#038048;stroke-width:1.0;fill:none;"/><text fill="#000000" font-family="sans-serif" font-size="11" lengthAdjust="spacing" textLength="72" x="27" y="533.2549">Name2?: string</text><ellipse cx="18" cy="542.6719" rx="3" ry="3" style="stroke:#038048;stroke-width:1.0;fill:none;"/><text fill="#000000" font-family="sans-serif" font-size="11" lengthAdjust="spacing" textLength="81" x="27" y="547.0908">Adress1?: string</text><ellipse cx="18" cy="556.5078" rx="3" ry="3" style="stroke:#038048;stroke-width:1.0;fill:none;"/><text fill="#000000" font-family="sans-serif" font-size="11" lengthAdjust="spacing" textLength="81" x="27" y="560.9268">Adress2?: string</text><ellipse cx="18" cy="570.3438" rx="3" ry="3" style="stroke:#038048;stroke-width:1.0;fill:none;"/><text fill="#000000" font-family="sans-serif" font-size="11" lengthAdjust="spacing" textLength="106" x="27" y="574.7627">Housenumber?: string</text><ellipse cx="18" cy="584.1797" rx="3" ry="3" style="stroke:#038048;stroke-width:1.0;fill:none;"/><text fill="#000000" font-family="sans-serif" font-size="11" lengthAdjust="spacing" textLength="57" x="27" y="588.5986">City?: string</text><ellipse cx="18" cy="598.0156" rx="3" ry="3" style="stroke:#038048;stroke-width:1.0;fill:none;"/><text fill="#000000" font-family="sans-serif" font-size="11" lengthAdjust="spacing" textLength="84" x="27" y="602.4346">Postcode?: string</text><ellipse cx="18" cy="611.8516" rx="3" ry="3" style="stroke:#038048;stroke-width:1.0;fill:none;"/><text fill="#000000" font-family="sans-serif" font-size="11" lengthAdjust="spacing" text-decoration="underline" textLength="60" x="27" y="616.2705">TypeId: Guid</text><line style="stroke:#A80036;stroke-width:1.5;" x1="8" x2="138" y1="622.6875" y2="622.6875"/><!--MD5=[fe6b2754769bc87cf156126798433078]
class CommandWrapper--><rect codeLine="16" fill="#FEFECE" filter="url(#fr6uxancfqkps)" height="214.0313" id="CommandWrapper" style="stroke:#A80036;stroke-width:1.5;" width="327" x="109.5" y="7"/><ellipse cx="215.75" cy="23" fill="#ADD1B2" rx="11" ry="11" style="stroke:#A80036;stroke-width:1.0;"/><path d="M218.5156,18.875 Q218.6719,18.6563 218.8594,18.5469 Q219.0469,18.4375 219.2656,18.4375 Q219.6406,18.4375 219.875,18.6953 Q220.1094,18.9531 220.1094,19.5625 L220.1094,21.0156 Q220.1094,21.625 219.875,21.8906 Q219.6406,22.1563 219.2656,22.1563 Q218.9219,22.1563 218.7188,21.9531 Q218.5156,21.7656 218.4063,21.25 Q218.3594,20.8906 218.1719,20.7031 Q217.8438,20.3281 217.2344,20.1094 Q216.625,19.8906 216,19.8906 Q215.2344,19.8906 214.6016,20.2188 Q213.9688,20.5469 213.4766,21.2969 Q212.9844,22.0469 212.9844,23.0781 L212.9844,24.1719 Q212.9844,25.4063 213.875,26.2266 Q214.7656,27.0469 216.3594,27.0469 Q217.2969,27.0469 217.9531,26.7969 Q218.3438,26.6406 218.7656,26.2031 Q219.0313,25.9375 219.1797,25.8594 Q219.3281,25.7813 219.5313,25.7813 Q219.8594,25.7813 220.1172,26.0391 Q220.375,26.2969 220.375,26.6406 Q220.375,26.9844 220.0313,27.3906 Q219.5313,27.9688 218.7344,28.2969 Q217.6563,28.75 216.3594,28.75 Q214.8438,28.75 213.6406,28.125 Q212.6563,27.625 211.9688,26.5547 Q211.2813,25.4844 211.2813,24.2031 L211.2813,23.0469 Q211.2813,21.7188 211.8984,20.5703 Q212.5156,19.4219 213.6094,18.8047 Q214.7031,18.1875 215.9375,18.1875 Q216.6719,18.1875 217.3203,18.3516 Q217.9688,18.5156 218.5156,18.875 Z " fill="#000000"/><text fill="#000000" font-family="sans-serif" font-size="12" lengthAdjust="spacing" textLength="106" x="236.25" y="27.9102">CommandWrapper</text><line style="stroke:#A80036;stroke-width:1.5;" x1="110.5" x2="435.5" y1="39" y2="39"/><rect fill="none" height="6" style="stroke:#C82930;stroke-width:1.0;" width="6" x="117.5" y="47"/><text fill="#000000" font-family="sans-serif" font-size="11" lengthAdjust="spacing" textLength="45" x="129.5" y="54.4189">_dto: any</text><rect fill="none" height="6" style="stroke:#C82930;stroke-width:1.0;" width="6" x="117.5" y="60.8359"/><text fill="#000000" font-family="sans-serif" font-size="11" lengthAdjust="spacing" textLength="66" x="129.5" y="68.2549">_service: any</text><ellipse cx="120.5" cy="77.6719" rx="3" ry="3" style="stroke:#038048;stroke-width:1.0;fill:none;"/><text fill="#000000" font-family="sans-serif" font-size="11" lengthAdjust="spacing" textLength="61" x="129.5" y="82.0908">Service: any</text><ellipse cx="120.5" cy="91.5078" rx="3" ry="3" style="stroke:#038048;stroke-width:1.0;fill:none;"/><text fill="#000000" font-family="sans-serif" font-size="11" lengthAdjust="spacing" textLength="45" x="129.5" y="95.9268">DTO: any</text><ellipse cx="120.5" cy="105.3438" rx="3" ry="3" style="stroke:#038048;stroke-width:1.0;fill:none;"/><text fill="#000000" font-family="sans-serif" font-size="11" lengthAdjust="spacing" textLength="93" x="129.5" y="109.7627">Response: boolean</text><ellipse cx="120.5" cy="119.1797" rx="3" ry="3" style="stroke:#038048;stroke-width:1.0;fill:none;"/><text fill="#000000" font-family="sans-serif" font-size="11" lengthAdjust="spacing" textLength="83" x="129.5" y="123.5986">Arguments: any[]</text><ellipse cx="120.5" cy="133.0156" rx="3" ry="3" style="stroke:#038048;stroke-width:1.0;fill:none;"/><text fill="#000000" font-family="sans-serif" font-size="11" lengthAdjust="spacing" textLength="52" x="129.5" y="137.4346">Type: Guid</text><ellipse cx="120.5" cy="146.8516" rx="3" ry="3" style="stroke:#038048;stroke-width:1.0;fill:none;"/><text fill="#000000" font-family="sans-serif" font-size="11" lengthAdjust="spacing" textLength="36" x="129.5" y="151.2705">Id: Guid</text><rect fill="none" height="6" style="stroke:#C82930;stroke-width:1.0;" width="6" x="117.5" y="157.6875"/><text fill="#000000" font-family="sans-serif" font-size="11" lengthAdjust="spacing" text-decoration="underline" textLength="73" x="129.5" y="165.1064">_factories: any</text><line style="stroke:#A80036;stroke-width:1.5;" x1="110.5" x2="435.5" y1="171.5234" y2="171.5234"/><ellipse cx="120.5" cy="182.5234" fill="#84BE84" rx="3" ry="3" style="stroke:#038048;stroke-width:1.0;"/><text fill="#000000" font-family="sans-serif" font-size="11" lengthAdjust="spacing" textLength="153" x="129.5" y="186.9424">getArgument(name: string): any</text><ellipse cx="120.5" cy="196.3594" fill="#84BE84" rx="3" ry="3" style="stroke:#038048;stroke-width:1.0;"/><text fill="#000000" font-family="sans-serif" font-size="11" lengthAdjust="spacing" textLength="220" x="129.5" y="200.7783">setArgument(name: string, value: string): void</text><ellipse cx="120.5" cy="210.1953" fill="#84BE84" rx="3" ry="3" style="stroke:#038048;stroke-width:1.0;"/><text fill="#000000" font-family="sans-serif" font-size="11" lengthAdjust="spacing" text-decoration="underline" textLength="301" x="129.5" y="214.6143">register(typeId: Guid, factory: CommandWrapperFactory): void</text><!--MD5=[a8c0967d7b66f43265179b07355379df]
class PropertyDTO--><rect codeLine="30" fill="#FEFECE" filter="url(#fr6uxancfqkps)" height="89.5078" id="PropertyDTO" style="stroke:#A80036;stroke-width:1.5;" width="102" x="212" y="691"/><ellipse cx="227" cy="707" fill="#ADD1B2" rx="11" ry="11" style="stroke:#A80036;stroke-width:1.0;"/><path d="M229.7656,702.875 Q229.9219,702.6563 230.1094,702.5469 Q230.2969,702.4375 230.5156,702.4375 Q230.8906,702.4375 231.125,702.6953 Q231.3594,702.9531 231.3594,703.5625 L231.3594,705.0156 Q231.3594,705.625 231.125,705.8906 Q230.8906,706.1563 230.5156,706.1563 Q230.1719,706.1563 229.9688,705.9531 Q229.7656,705.7656 229.6563,705.25 Q229.6094,704.8906 229.4219,704.7031 Q229.0938,704.3281 228.4844,704.1094 Q227.875,703.8906 227.25,703.8906 Q226.4844,703.8906 225.8516,704.2188 Q225.2188,704.5469 224.7266,705.2969 Q224.2344,706.0469 224.2344,707.0781 L224.2344,708.1719 Q224.2344,709.4063 225.125,710.2266 Q226.0156,711.0469 227.6094,711.0469 Q228.5469,711.0469 229.2031,710.7969 Q229.5938,710.6406 230.0156,710.2031 Q230.2813,709.9375 230.4297,709.8594 Q230.5781,709.7813 230.7813,709.7813 Q231.1094,709.7813 231.3672,710.0391 Q231.625,710.2969 231.625,710.6406 Q231.625,710.9844 231.2813,711.3906 Q230.7813,711.9688 229.9844,712.2969 Q228.9063,712.75 227.6094,712.75 Q226.0938,712.75 224.8906,712.125 Q223.9063,711.625 223.2188,710.5547 Q222.5313,709.4844 222.5313,708.2031 L222.5313,707.0469 Q222.5313,705.7188 223.1484,704.5703 Q223.7656,703.4219 224.8594,702.8047 Q225.9531,702.1875 227.1875,702.1875 Q227.9219,702.1875 228.5703,702.3516 Q229.2188,702.5156 229.7656,702.875 Z " fill="#000000"/><text fill="#000000" font-family="sans-serif" font-size="12" lengthAdjust="spacing" textLength="70" x="241" y="711.9102">PropertyDTO</text><line style="stroke:#A80036;stroke-width:1.5;" x1="213" x2="313" y1="723" y2="723"/><ellipse cx="223" cy="734" rx="3" ry="3" style="stroke:#038048;stroke-width:1.0;fill:none;"/><text fill="#000000" font-family="sans-serif" font-size="11" lengthAdjust="spacing" textLength="66" x="232" y="738.4189">Name?: string</text><ellipse cx="223" cy="747.8359" rx="3" ry="3" style="stroke:#038048;stroke-width:1.0;fill:none;"/><text fill="#000000" font-family="sans-serif" font-size="11" lengthAdjust="spacing" textLength="67" x="232" y="752.2549">Value?: string</text><ellipse cx="223" cy="761.6719" rx="3" ry="3" style="stroke:#038048;stroke-width:1.0;fill:none;"/><text fill="#000000" font-family="sans-serif" font-size="11" lengthAdjust="spacing" text-decoration="underline" textLength="60" x="232" y="766.0908">TypeId: Guid</text><line style="stroke:#A80036;stroke-width:1.5;" x1="213" x2="313" y1="772.5078" y2="772.5078"/><!--MD5=[f5d54f60ec6d089d1cb017027d5a65a8]
class CommandDTO--><rect codeLine="35" fill="#FEFECE" filter="url(#fr6uxancfqkps)" height="89.5078" id="CommandDTO" style="stroke:#A80036;stroke-width:1.5;" width="159" x="183.5" y="506.5"/><ellipse cx="217.85" cy="522.5" fill="#ADD1B2" rx="11" ry="11" style="stroke:#A80036;stroke-width:1.0;"/><path d="M220.6156,518.375 Q220.7719,518.1563 220.9594,518.0469 Q221.1469,517.9375 221.3656,517.9375 Q221.7406,517.9375 221.975,518.1953 Q222.2094,518.4531 222.2094,519.0625 L222.2094,520.5156 Q222.2094,521.125 221.975,521.3906 Q221.7406,521.6563 221.3656,521.6563 Q221.0219,521.6563 220.8188,521.4531 Q220.6156,521.2656 220.5063,520.75 Q220.4594,520.3906 220.2719,520.2031 Q219.9438,519.8281 219.3344,519.6094 Q218.725,519.3906 218.1,519.3906 Q217.3344,519.3906 216.7016,519.7188 Q216.0688,520.0469 215.5766,520.7969 Q215.0844,521.5469 215.0844,522.5781 L215.0844,523.6719 Q215.0844,524.9063 215.975,525.7266 Q216.8656,526.5469 218.4594,526.5469 Q219.3969,526.5469 220.0531,526.2969 Q220.4438,526.1406 220.8656,525.7031 Q221.1313,525.4375 221.2797,525.3594 Q221.4281,525.2813 221.6313,525.2813 Q221.9594,525.2813 222.2172,525.5391 Q222.475,525.7969 222.475,526.1406 Q222.475,526.4844 222.1313,526.8906 Q221.6313,527.4688 220.8344,527.7969 Q219.7563,528.25 218.4594,528.25 Q216.9438,528.25 215.7406,527.625 Q214.7563,527.125 214.0688,526.0547 Q213.3813,524.9844 213.3813,523.7031 L213.3813,522.5469 Q213.3813,521.2188 213.9984,520.0703 Q214.6156,518.9219 215.7094,518.3047 Q216.8031,517.6875 218.0375,517.6875 Q218.7719,517.6875 219.4203,517.8516 Q220.0688,518.0156 220.6156,518.375 Z " fill="#000000"/><text fill="#000000" font-family="sans-serif" font-size="12" lengthAdjust="spacing" textLength="84" x="236.15" y="527.4102">CommandDTO</text><line style="stroke:#A80036;stroke-width:1.5;" x1="184.5" x2="341.5" y1="538.5" y2="538.5"/><ellipse cx="194.5" cy="549.5" rx="3" ry="3" style="stroke:#038048;stroke-width:1.0;fill:none;"/><text fill="#000000" font-family="sans-serif" font-size="11" lengthAdjust="spacing" textLength="99" x="203.5" y="553.9189">Response?: boolean</text><ellipse cx="194.5" cy="563.3359" rx="3" ry="3" style="stroke:#038048;stroke-width:1.0;fill:none;"/><text fill="#000000" font-family="sans-serif" font-size="11" lengthAdjust="spacing" textLength="133" x="203.5" y="567.7549">Arguments?: PropertyDTO[]</text><ellipse cx="194.5" cy="577.1719" rx="3" ry="3" style="stroke:#038048;stroke-width:1.0;fill:none;"/><text fill="#000000" font-family="sans-serif" font-size="11" lengthAdjust="spacing" text-decoration="underline" textLength="60" x="203.5" y="581.5908">TypeId: Guid</text><line style="stroke:#A80036;stroke-width:1.5;" x1="184.5" x2="341.5" y1="588.0078" y2="588.0078"/><!--MD5=[89eeb47b17e5cbe88e661845b5a65b87]
class FindAdressesBase--><rect codeLine="40" fill="#FEFECE" filter="url(#fr6uxancfqkps)" height="131.0156" id="FindAdressesBase" style="stroke:#A80036;stroke-width:1.5;" width="280" x="133" y="281"/><ellipse cx="215.75" cy="297" fill="#ADD1B2" rx="11" ry="11" style="stroke:#A80036;stroke-width:1.0;"/><path d="M218.5156,292.875 Q218.6719,292.6563 218.8594,292.5469 Q219.0469,292.4375 219.2656,292.4375 Q219.6406,292.4375 219.875,292.6953 Q220.1094,292.9531 220.1094,293.5625 L220.1094,295.0156 Q220.1094,295.625 219.875,295.8906 Q219.6406,296.1563 219.2656,296.1563 Q218.9219,296.1563 218.7188,295.9531 Q218.5156,295.7656 218.4063,295.25 Q218.3594,294.8906 218.1719,294.7031 Q217.8438,294.3281 217.2344,294.1094 Q216.625,293.8906 216,293.8906 Q215.2344,293.8906 214.6016,294.2188 Q213.9688,294.5469 213.4766,295.2969 Q212.9844,296.0469 212.9844,297.0781 L212.9844,298.1719 Q212.9844,299.4063 213.875,300.2266 Q214.7656,301.0469 216.3594,301.0469 Q217.2969,301.0469 217.9531,300.7969 Q218.3438,300.6406 218.7656,300.2031 Q219.0313,299.9375 219.1797,299.8594 Q219.3281,299.7813 219.5313,299.7813 Q219.8594,299.7813 220.1172,300.0391 Q220.375,300.2969 220.375,300.6406 Q220.375,300.9844 220.0313,301.3906 Q219.5313,301.9688 218.7344,302.2969 Q217.6563,302.75 216.3594,302.75 Q214.8438,302.75 213.6406,302.125 Q212.6563,301.625 211.9688,300.5547 Q211.2813,299.4844 211.2813,298.2031 L211.2813,297.0469 Q211.2813,295.7188 211.8984,294.5703 Q212.5156,293.4219 213.6094,292.8047 Q214.7031,292.1875 215.9375,292.1875 Q216.6719,292.1875 217.3203,292.3516 Q217.9688,292.5156 218.5156,292.875 Z " fill="#000000"/><text fill="#000000" font-family="sans-serif" font-size="12" lengthAdjust="spacing" textLength="106" x="236.25" y="301.9102">FindAdressesBase</text><line style="stroke:#A80036;stroke-width:1.5;" x1="134" x2="412" y1="313" y2="313"/><ellipse cx="144" cy="324" rx="3" ry="3" style="stroke:#038048;stroke-width:1.0;fill:none;"/><text fill="#000000" font-family="sans-serif" font-size="11" lengthAdjust="spacing" textLength="89" x="153" y="328.4189">SearchText: string</text><ellipse cx="144" cy="337.8359" rx="3" ry="3" style="stroke:#038048;stroke-width:1.0;fill:none;"/><text fill="#000000" font-family="sans-serif" font-size="11" lengthAdjust="spacing" textLength="89" x="153" y="342.2549">SearchText: string</text><ellipse cx="144" cy="351.6719" rx="3" ry="3" style="stroke:#038048;stroke-width:1.0;fill:none;"/><text fill="#000000" font-family="sans-serif" font-size="11" lengthAdjust="spacing" textLength="99" x="153" y="356.0908">Result: AdressDTO[]</text><ellipse cx="144" cy="365.5078" rx="3" ry="3" style="stroke:#038048;stroke-width:1.0;fill:none;"/><text fill="#000000" font-family="sans-serif" font-size="11" lengthAdjust="spacing" text-decoration="underline" textLength="60" x="153" y="369.9268">TypeId: Guid</text><line style="stroke:#A80036;stroke-width:1.5;" x1="134" x2="412" y1="376.3438" y2="376.3438"/><ellipse cx="144" cy="387.3438" fill="#84BE84" rx="3" ry="3" style="stroke:#038048;stroke-width:1.0;"/><text fill="#000000" font-family="sans-serif" font-size="11" lengthAdjust="spacing" textLength="254" x="153" y="391.7627">execute(searchText: string): Promise&lt;AdressDTO[]&gt;</text><ellipse cx="144" cy="401.1797" fill="#84BE84" rx="3" ry="3" style="stroke:#038048;stroke-width:1.0;"/><text fill="#000000" font-family="sans-serif" font-size="11" lengthAdjust="spacing" text-decoration="underline" textLength="179" x="153" y="405.5986">IsForMe(dto: CommandDTO): boolean</text><!--MD5=[78563b2dced031dcc99154e54e28d438]
reverse link BaseDTO to AdressDTO--><path d="M60.69,411.66 C62.38,430.74 64.25,451.86 66.02,471.75 " fill="none" id="BaseDTO-backto-AdressDTO" style="stroke:#A80036;stroke-width:1.0;"/><polygon fill="none" points="53.7,412.09,58.91,391.55,67.64,410.85,53.7,412.09" style="stroke:#A80036;stroke-width:1.0;"/><!--MD5=[9714f00bbee80ca7b140c29ae529c8eb]
reverse link BaseDTO to CommandDTO--><path d="M109.17,406.1 C111.13,408.1 113.08,410.07 115,412 C147.3,444.4 184.96,479.61 214.21,506.42 " fill="none" id="BaseDTO-backto-CommandDTO" style="stroke:#A80036;stroke-width:1.0;"/><polygon fill="none" points="104.06,410.88,95.26,391.6,114.16,401.19,104.06,410.88" style="stroke:#A80036;stroke-width:1.0;"/><!--MD5=[67000b85f35a3ac3f1ca08b0c602fe40]
reverse link CommandWrapper to FindAdressesBase--><path d="M273,241.18 C273,254.82 273,268.25 273,280.7 " fill="none" id="CommandWrapper-backto-FindAdressesBase" style="stroke:#A80036;stroke-width:1.0;"/><polygon fill="none" points="266,241.14,273,221.14,280,241.14,266,241.14" style="stroke:#A80036;stroke-width:1.0;"/><!--MD5=[92fdb8409966ab8b3f648f5668444010]
link CommandDTO to PropertyDTO--><path codeLine="48" d="M263,596.68 C263,623.59 263,658.03 263,685.81 " fill="none" id="CommandDTO-to-PropertyDTO" style="stroke:#A80036;stroke-width:1.0;"/><polygon fill="#A80036" points="263,690.91,267,681.91,263,685.91,259,681.91,263,690.91" style="stroke:#A80036;stroke-width:1.0;"/><text fill="#000000" font-family="sans-serif" font-size="13" lengthAdjust="spacing" textLength="5" x="257.6016" y="680.0111">*</text><!--MD5=[a80ee6a01caeba6a1db453fbc77bc84f]
link FindAdressesBase to AdressDTO--><path codeLine="49" d="M209.44,412.01 C188.25,433.52 164.53,457.6 142.88,479.57 " fill="none" id="FindAdressesBase-to-AdressDTO" style="stroke:#A80036;stroke-width:1.0;"/><polygon fill="#A80036" points="139.15,483.36,148.3208,479.7688,142.664,479.8031,142.6298,474.1464,139.15,483.36" style="stroke:#A80036;stroke-width:1.0;"/><text fill="#000000" font-family="sans-serif" font-size="13" lengthAdjust="spacing" textLength="5" x="147.0877" y="472.0898">*</text><!--MD5=[cede573120fbc3fd1d4735210532ccfb]
link FindAdressesBase to CommandDTO--><path codeLine="50" d="M269.82,412.01 C268.4,440.85 266.75,474.31 265.43,501.12 " fill="none" id="FindAdressesBase-to-CommandDTO" style="stroke:#A80036;stroke-width:1.0;"/><polygon fill="#A80036" points="265.17,506.39,269.627,497.6073,265.4268,501.3966,261.6375,497.1964,265.17,506.39" style="stroke:#A80036;stroke-width:1.0;"/><text fill="#000000" font-family="sans-serif" font-size="13" lengthAdjust="spacing" textLength="7" x="257.958" y="495.4879">1</text><!--MD5=[ce2577a1cd66053a7f2d3465ce4a16dc]
@startuml
class BaseDTO {
    +Id?: Guid
    +Type?: Guid
    +{static} TypeId: Guid
}
class AdressDTO extends BaseDTO {
    +Name1?: string
    +Name2?: string
    +Adress1?: string
    +Adress2?: string
    +Housenumber?: string
    +City?: string
    +Postcode?: string
    +{static} TypeId: Guid
}
class CommandWrapper {
    -_dto: any
    -_service: any
    +Service: any
    +DTO: any
    +Response: boolean
    +Arguments: any[]
    +Type: Guid
    +Id: Guid
    +getArgument(name: string): any
    +setArgument(name: string, value: string): void
    -{static} _factories: any
    +{static} register(typeId: Guid, factory: CommandWrapperFactory): void
}
class PropertyDTO {
    +Name?: string
    +Value?: string
    +{static} TypeId: Guid
}
class CommandDTO extends BaseDTO {
    +Response?: boolean
    +Arguments?: PropertyDTO[]
    +{static} TypeId: Guid
}
class FindAdressesBase extends CommandWrapper {
    +SearchText: string
    +SearchText: string
    +Result: AdressDTO[]
    +execute(searchText: string): Promise<AdressDTO[]>
    +{static} TypeId: Guid
    +{static} IsForMe(dto: CommandDTO): boolean
}
CommandDTO - -> "*" PropertyDTO
FindAdressesBase - -> "*" AdressDTO
FindAdressesBase - -> "1" CommandDTO
@enduml

PlantUML version 1.2021.10(Mon Aug 30 15:43:48 CEST 2021)
(GPL source distribution)
Java Runtime: Java(TM) SE Runtime Environment
JVM: Java HotSpot(TM) Client VM
Default Encoding: Cp1252
Language: de
Country: CH
--></g></svg>