<?xml version="1.0" encoding="UTF-8" standalone="no"?><svg xmlns="http://www.w3.org/2000/svg" xmlns:xlink="http://www.w3.org/1999/xlink" contentScriptType="application/ecmascript" contentStyleType="text/css" height="725px" preserveAspectRatio="none" style="width:426px;height:725px;background:#FFFFFF;" version="1.1" viewBox="0 0 426 725" width="426px" zoomAndPan="magnify"><defs><filter height="300%" id="f1xkefserc16dx" width="300%" x="-1" y="-1"><feGaussianBlur result="blurOut" stdDeviation="2.0"/><feColorMatrix in="blurOut" result="blurOut2" type="matrix" values="0 0 0 0 0 0 0 0 0 0 0 0 0 0 0 0 0 0 .4 0"/><feOffset dx="4.0" dy="4.0" in="blurOut2" result="blurOut3"/><feBlend in="SourceGraphic" in2="blurOut3" mode="normal"/></filter></defs><g><!--MD5=[fe6b2754769bc87cf156126798433078]
class CommandWrapper--><rect codeLine="1" fill="#FEFECE" filter="url(#f1xkefserc16dx)" height="214.0313" id="CommandWrapper" style="stroke:#A80036;stroke-width:1.5;" width="327" x="7" y="7"/><ellipse cx="113.25" cy="23" fill="#ADD1B2" rx="11" ry="11" style="stroke:#A80036;stroke-width:1.0;"/><path d="M116.0156,18.875 Q116.1719,18.6563 116.3594,18.5469 Q116.5469,18.4375 116.7656,18.4375 Q117.1406,18.4375 117.375,18.6953 Q117.6094,18.9531 117.6094,19.5625 L117.6094,21.0156 Q117.6094,21.625 117.375,21.8906 Q117.1406,22.1563 116.7656,22.1563 Q116.4219,22.1563 116.2188,21.9531 Q116.0156,21.7656 115.9063,21.25 Q115.8594,20.8906 115.6719,20.7031 Q115.3438,20.3281 114.7344,20.1094 Q114.125,19.8906 113.5,19.8906 Q112.7344,19.8906 112.1016,20.2188 Q111.4688,20.5469 110.9766,21.2969 Q110.4844,22.0469 110.4844,23.0781 L110.4844,24.1719 Q110.4844,25.4063 111.375,26.2266 Q112.2656,27.0469 113.8594,27.0469 Q114.7969,27.0469 115.4531,26.7969 Q115.8438,26.6406 116.2656,26.2031 Q116.5313,25.9375 116.6797,25.8594 Q116.8281,25.7813 117.0313,25.7813 Q117.3594,25.7813 117.6172,26.0391 Q117.875,26.2969 117.875,26.6406 Q117.875,26.9844 117.5313,27.3906 Q117.0313,27.9688 116.2344,28.2969 Q115.1563,28.75 113.8594,28.75 Q112.3438,28.75 111.1406,28.125 Q110.1563,27.625 109.4688,26.5547 Q108.7813,25.4844 108.7813,24.2031 L108.7813,23.0469 Q108.7813,21.7188 109.3984,20.5703 Q110.0156,19.4219 111.1094,18.8047 Q112.2031,18.1875 113.4375,18.1875 Q114.1719,18.1875 114.8203,18.3516 Q115.4688,18.5156 116.0156,18.875 Z " fill="#000000"/><text fill="#000000" font-family="sans-serif" font-size="12" lengthAdjust="spacing" textLength="106" x="133.75" y="27.9102">CommandWrapper</text><line style="stroke:#A80036;stroke-width:1.5;" x1="8" x2="333" y1="39" y2="39"/><rect fill="none" height="6" style="stroke:#C82930;stroke-width:1.0;" width="6" x="15" y="47"/><text fill="#000000" font-family="sans-serif" font-size="11" lengthAdjust="spacing" textLength="45" x="27" y="54.4189">_dto: any</text><rect fill="none" height="6" style="stroke:#C82930;stroke-width:1.0;" width="6" x="15" y="60.8359"/><text fill="#000000" font-family="sans-serif" font-size="11" lengthAdjust="spacing" textLength="66" x="27" y="68.2549">_service: any</text><ellipse cx="18" cy="77.6719" rx="3" ry="3" style="stroke:#038048;stroke-width:1.0;fill:none;"/><text fill="#000000" font-family="sans-serif" font-size="11" lengthAdjust="spacing" textLength="61" x="27" y="82.0908">Service: any</text><ellipse cx="18" cy="91.5078" rx="3" ry="3" style="stroke:#038048;stroke-width:1.0;fill:none;"/><text fill="#000000" font-family="sans-serif" font-size="11" lengthAdjust="spacing" textLength="45" x="27" y="95.9268">DTO: any</text><ellipse cx="18" cy="105.3438" rx="3" ry="3" style="stroke:#038048;stroke-width:1.0;fill:none;"/><text fill="#000000" font-family="sans-serif" font-size="11" lengthAdjust="spacing" textLength="93" x="27" y="109.7627">Response: boolean</text><ellipse cx="18" cy="119.1797" rx="3" ry="3" style="stroke:#038048;stroke-width:1.0;fill:none;"/><text fill="#000000" font-family="sans-serif" font-size="11" lengthAdjust="spacing" textLength="83" x="27" y="123.5986">Arguments: any[]</text><ellipse cx="18" cy="133.0156" rx="3" ry="3" style="stroke:#038048;stroke-width:1.0;fill:none;"/><text fill="#000000" font-family="sans-serif" font-size="11" lengthAdjust="spacing" textLength="52" x="27" y="137.4346">Type: Guid</text><ellipse cx="18" cy="146.8516" rx="3" ry="3" style="stroke:#038048;stroke-width:1.0;fill:none;"/><text fill="#000000" font-family="sans-serif" font-size="11" lengthAdjust="spacing" textLength="36" x="27" y="151.2705">Id: Guid</text><rect fill="none" height="6" style="stroke:#C82930;stroke-width:1.0;" width="6" x="15" y="157.6875"/><text fill="#000000" font-family="sans-serif" font-size="11" lengthAdjust="spacing" text-decoration="underline" textLength="73" x="27" y="165.1064">_factories: any</text><line style="stroke:#A80036;stroke-width:1.5;" x1="8" x2="333" y1="171.5234" y2="171.5234"/><ellipse cx="18" cy="182.5234" fill="#84BE84" rx="3" ry="3" style="stroke:#038048;stroke-width:1.0;"/><text fill="#000000" font-family="sans-serif" font-size="11" lengthAdjust="spacing" textLength="153" x="27" y="186.9424">getArgument(name: string): any</text><ellipse cx="18" cy="196.3594" fill="#84BE84" rx="3" ry="3" style="stroke:#038048;stroke-width:1.0;"/><text fill="#000000" font-family="sans-serif" font-size="11" lengthAdjust="spacing" textLength="220" x="27" y="200.7783">setArgument(name: string, value: string): void</text><ellipse cx="18" cy="210.1953" fill="#84BE84" rx="3" ry="3" style="stroke:#038048;stroke-width:1.0;"/><text fill="#000000" font-family="sans-serif" font-size="11" lengthAdjust="spacing" text-decoration="underline" textLength="301" x="27" y="214.6143">register(typeId: Guid, factory: CommandWrapperFactory): void</text><!--MD5=[a8c0967d7b66f43265179b07355379df]
class PropertyDTO--><rect codeLine="15" fill="#FEFECE" filter="url(#f1xkefserc16dx)" height="89.5078" id="PropertyDTO" style="stroke:#A80036;stroke-width:1.5;" width="102" x="218.5" y="622"/><ellipse cx="233.5" cy="638" fill="#ADD1B2" rx="11" ry="11" style="stroke:#A80036;stroke-width:1.0;"/><path d="M236.2656,633.875 Q236.4219,633.6563 236.6094,633.5469 Q236.7969,633.4375 237.0156,633.4375 Q237.3906,633.4375 237.625,633.6953 Q237.8594,633.9531 237.8594,634.5625 L237.8594,636.0156 Q237.8594,636.625 237.625,636.8906 Q237.3906,637.1563 237.0156,637.1563 Q236.6719,637.1563 236.4688,636.9531 Q236.2656,636.7656 236.1563,636.25 Q236.1094,635.8906 235.9219,635.7031 Q235.5938,635.3281 234.9844,635.1094 Q234.375,634.8906 233.75,634.8906 Q232.9844,634.8906 232.3516,635.2188 Q231.7188,635.5469 231.2266,636.2969 Q230.7344,637.0469 230.7344,638.0781 L230.7344,639.1719 Q230.7344,640.4063 231.625,641.2266 Q232.5156,642.0469 234.1094,642.0469 Q235.0469,642.0469 235.7031,641.7969 Q236.0938,641.6406 236.5156,641.2031 Q236.7813,640.9375 236.9297,640.8594 Q237.0781,640.7813 237.2813,640.7813 Q237.6094,640.7813 237.8672,641.0391 Q238.125,641.2969 238.125,641.6406 Q238.125,641.9844 237.7813,642.3906 Q237.2813,642.9688 236.4844,643.2969 Q235.4063,643.75 234.1094,643.75 Q232.5938,643.75 231.3906,643.125 Q230.4063,642.625 229.7188,641.5547 Q229.0313,640.4844 229.0313,639.2031 L229.0313,638.0469 Q229.0313,636.7188 229.6484,635.5703 Q230.2656,634.4219 231.3594,633.8047 Q232.4531,633.1875 233.6875,633.1875 Q234.4219,633.1875 235.0703,633.3516 Q235.7188,633.5156 236.2656,633.875 Z " fill="#000000"/><text fill="#000000" font-family="sans-serif" font-size="12" lengthAdjust="spacing" textLength="70" x="247.5" y="642.9102">PropertyDTO</text><line style="stroke:#A80036;stroke-width:1.5;" x1="219.5" x2="319.5" y1="654" y2="654"/><ellipse cx="229.5" cy="665" rx="3" ry="3" style="stroke:#038048;stroke-width:1.0;fill:none;"/><text fill="#000000" font-family="sans-serif" font-size="11" lengthAdjust="spacing" textLength="66" x="238.5" y="669.4189">Name?: string</text><ellipse cx="229.5" cy="678.8359" rx="3" ry="3" style="stroke:#038048;stroke-width:1.0;fill:none;"/><text fill="#000000" font-family="sans-serif" font-size="11" lengthAdjust="spacing" textLength="67" x="238.5" y="683.2549">Value?: string</text><ellipse cx="229.5" cy="692.6719" rx="3" ry="3" style="stroke:#038048;stroke-width:1.0;fill:none;"/><text fill="#000000" font-family="sans-serif" font-size="11" lengthAdjust="spacing" text-decoration="underline" textLength="60" x="238.5" y="697.0908">TypeId: Guid</text><line style="stroke:#A80036;stroke-width:1.5;" x1="219.5" x2="319.5" y1="703.5078" y2="703.5078"/><!--MD5=[6b1d3384926f1bc892ee196bbd0d7fce]
class BaseDTO--><rect codeLine="20" fill="#FEFECE" filter="url(#f1xkefserc16dx)" height="89.5078" id="BaseDTO" style="stroke:#A80036;stroke-width:1.5;" width="86" x="326.5" y="301.5"/><ellipse cx="341.5" cy="317.5" fill="#ADD1B2" rx="11" ry="11" style="stroke:#A80036;stroke-width:1.0;"/><path d="M344.2656,313.375 Q344.4219,313.1563 344.6094,313.0469 Q344.7969,312.9375 345.0156,312.9375 Q345.3906,312.9375 345.625,313.1953 Q345.8594,313.4531 345.8594,314.0625 L345.8594,315.5156 Q345.8594,316.125 345.625,316.3906 Q345.3906,316.6563 345.0156,316.6563 Q344.6719,316.6563 344.4688,316.4531 Q344.2656,316.2656 344.1563,315.75 Q344.1094,315.3906 343.9219,315.2031 Q343.5938,314.8281 342.9844,314.6094 Q342.375,314.3906 341.75,314.3906 Q340.9844,314.3906 340.3516,314.7188 Q339.7188,315.0469 339.2266,315.7969 Q338.7344,316.5469 338.7344,317.5781 L338.7344,318.6719 Q338.7344,319.9063 339.625,320.7266 Q340.5156,321.5469 342.1094,321.5469 Q343.0469,321.5469 343.7031,321.2969 Q344.0938,321.1406 344.5156,320.7031 Q344.7813,320.4375 344.9297,320.3594 Q345.0781,320.2813 345.2813,320.2813 Q345.6094,320.2813 345.8672,320.5391 Q346.125,320.7969 346.125,321.1406 Q346.125,321.4844 345.7813,321.8906 Q345.2813,322.4688 344.4844,322.7969 Q343.4063,323.25 342.1094,323.25 Q340.5938,323.25 339.3906,322.625 Q338.4063,322.125 337.7188,321.0547 Q337.0313,319.9844 337.0313,318.7031 L337.0313,317.5469 Q337.0313,316.2188 337.6484,315.0703 Q338.2656,313.9219 339.3594,313.3047 Q340.4531,312.6875 341.6875,312.6875 Q342.4219,312.6875 343.0703,312.8516 Q343.7188,313.0156 344.2656,313.375 Z " fill="#000000"/><text fill="#000000" font-family="sans-serif" font-size="12" lengthAdjust="spacing" textLength="54" x="355.5" y="322.4102">BaseDTO</text><line style="stroke:#A80036;stroke-width:1.5;" x1="327.5" x2="411.5" y1="333.5" y2="333.5"/><ellipse cx="337.5" cy="344.5" rx="3" ry="3" style="stroke:#038048;stroke-width:1.0;fill:none;"/><text fill="#000000" font-family="sans-serif" font-size="11" lengthAdjust="spacing" textLength="42" x="346.5" y="348.9189">Id?: Guid</text><ellipse cx="337.5" cy="358.3359" rx="3" ry="3" style="stroke:#038048;stroke-width:1.0;fill:none;"/><text fill="#000000" font-family="sans-serif" font-size="11" lengthAdjust="spacing" textLength="58" x="346.5" y="362.7549">Type?: Guid</text><ellipse cx="337.5" cy="372.1719" rx="3" ry="3" style="stroke:#038048;stroke-width:1.0;fill:none;"/><text fill="#000000" font-family="sans-serif" font-size="11" lengthAdjust="spacing" text-decoration="underline" textLength="60" x="346.5" y="376.5908">TypeId: Guid</text><line style="stroke:#A80036;stroke-width:1.5;" x1="327.5" x2="411.5" y1="383.0078" y2="383.0078"/><!--MD5=[f5d54f60ec6d089d1cb017027d5a65a8]
class CommandDTO--><rect codeLine="25" fill="#FEFECE" filter="url(#f1xkefserc16dx)" height="89.5078" id="CommandDTO" style="stroke:#A80036;stroke-width:1.5;" width="159" x="190" y="472"/><ellipse cx="224.35" cy="488" fill="#ADD1B2" rx="11" ry="11" style="stroke:#A80036;stroke-width:1.0;"/><path d="M227.1156,483.875 Q227.2719,483.6563 227.4594,483.5469 Q227.6469,483.4375 227.8656,483.4375 Q228.2406,483.4375 228.475,483.6953 Q228.7094,483.9531 228.7094,484.5625 L228.7094,486.0156 Q228.7094,486.625 228.475,486.8906 Q228.2406,487.1563 227.8656,487.1563 Q227.5219,487.1563 227.3188,486.9531 Q227.1156,486.7656 227.0063,486.25 Q226.9594,485.8906 226.7719,485.7031 Q226.4438,485.3281 225.8344,485.1094 Q225.225,484.8906 224.6,484.8906 Q223.8344,484.8906 223.2016,485.2188 Q222.5688,485.5469 222.0766,486.2969 Q221.5844,487.0469 221.5844,488.0781 L221.5844,489.1719 Q221.5844,490.4063 222.475,491.2266 Q223.3656,492.0469 224.9594,492.0469 Q225.8969,492.0469 226.5531,491.7969 Q226.9438,491.6406 227.3656,491.2031 Q227.6313,490.9375 227.7797,490.8594 Q227.9281,490.7813 228.1313,490.7813 Q228.4594,490.7813 228.7172,491.0391 Q228.975,491.2969 228.975,491.6406 Q228.975,491.9844 228.6313,492.3906 Q228.1313,492.9688 227.3344,493.2969 Q226.2563,493.75 224.9594,493.75 Q223.4438,493.75 222.2406,493.125 Q221.2563,492.625 220.5688,491.5547 Q219.8813,490.4844 219.8813,489.2031 L219.8813,488.0469 Q219.8813,486.7188 220.4984,485.5703 Q221.1156,484.4219 222.2094,483.8047 Q223.3031,483.1875 224.5375,483.1875 Q225.2719,483.1875 225.9203,483.3516 Q226.5688,483.5156 227.1156,483.875 Z " fill="#000000"/><text fill="#000000" font-family="sans-serif" font-size="12" lengthAdjust="spacing" textLength="84" x="242.65" y="492.9102">CommandDTO</text><line style="stroke:#A80036;stroke-width:1.5;" x1="191" x2="348" y1="504" y2="504"/><ellipse cx="201" cy="515" rx="3" ry="3" style="stroke:#038048;stroke-width:1.0;fill:none;"/><text fill="#000000" font-family="sans-serif" font-size="11" lengthAdjust="spacing" textLength="99" x="210" y="519.4189">Response?: boolean</text><ellipse cx="201" cy="528.8359" rx="3" ry="3" style="stroke:#038048;stroke-width:1.0;fill:none;"/><text fill="#000000" font-family="sans-serif" font-size="11" lengthAdjust="spacing" textLength="133" x="210" y="533.2549">Arguments?: PropertyDTO[]</text><ellipse cx="201" cy="542.6719" rx="3" ry="3" style="stroke:#038048;stroke-width:1.0;fill:none;"/><text fill="#000000" font-family="sans-serif" font-size="11" lengthAdjust="spacing" text-decoration="underline" textLength="60" x="210" y="547.0908">TypeId: Guid</text><line style="stroke:#A80036;stroke-width:1.5;" x1="191" x2="348" y1="553.5078" y2="553.5078"/><!--MD5=[89eeb47b17e5cbe88e661845b5a65b87]
class FindAdressesBase--><rect codeLine="30" fill="#FEFECE" filter="url(#f1xkefserc16dx)" height="131.0156" id="FindAdressesBase" style="stroke:#A80036;stroke-width:1.5;" width="241" x="50" y="281"/><ellipse cx="113.25" cy="297" fill="#ADD1B2" rx="11" ry="11" style="stroke:#A80036;stroke-width:1.0;"/><path d="M116.0156,292.875 Q116.1719,292.6563 116.3594,292.5469 Q116.5469,292.4375 116.7656,292.4375 Q117.1406,292.4375 117.375,292.6953 Q117.6094,292.9531 117.6094,293.5625 L117.6094,295.0156 Q117.6094,295.625 117.375,295.8906 Q117.1406,296.1563 116.7656,296.1563 Q116.4219,296.1563 116.2188,295.9531 Q116.0156,295.7656 115.9063,295.25 Q115.8594,294.8906 115.6719,294.7031 Q115.3438,294.3281 114.7344,294.1094 Q114.125,293.8906 113.5,293.8906 Q112.7344,293.8906 112.1016,294.2188 Q111.4688,294.5469 110.9766,295.2969 Q110.4844,296.0469 110.4844,297.0781 L110.4844,298.1719 Q110.4844,299.4063 111.375,300.2266 Q112.2656,301.0469 113.8594,301.0469 Q114.7969,301.0469 115.4531,300.7969 Q115.8438,300.6406 116.2656,300.2031 Q116.5313,299.9375 116.6797,299.8594 Q116.8281,299.7813 117.0313,299.7813 Q117.3594,299.7813 117.6172,300.0391 Q117.875,300.2969 117.875,300.6406 Q117.875,300.9844 117.5313,301.3906 Q117.0313,301.9688 116.2344,302.2969 Q115.1563,302.75 113.8594,302.75 Q112.3438,302.75 111.1406,302.125 Q110.1563,301.625 109.4688,300.5547 Q108.7813,299.4844 108.7813,298.2031 L108.7813,297.0469 Q108.7813,295.7188 109.3984,294.5703 Q110.0156,293.4219 111.1094,292.8047 Q112.2031,292.1875 113.4375,292.1875 Q114.1719,292.1875 114.8203,292.3516 Q115.4688,292.5156 116.0156,292.875 Z " fill="#000000"/><text fill="#000000" font-family="sans-serif" font-size="12" lengthAdjust="spacing" textLength="106" x="133.75" y="301.9102">FindAdressesBase</text><line style="stroke:#A80036;stroke-width:1.5;" x1="51" x2="290" y1="313" y2="313"/><ellipse cx="61" cy="324" rx="3" ry="3" style="stroke:#038048;stroke-width:1.0;fill:none;"/><text fill="#000000" font-family="sans-serif" font-size="11" lengthAdjust="spacing" textLength="89" x="70" y="328.4189">SearchText: string</text><ellipse cx="61" cy="337.8359" rx="3" ry="3" style="stroke:#038048;stroke-width:1.0;fill:none;"/><text fill="#000000" font-family="sans-serif" font-size="11" lengthAdjust="spacing" textLength="89" x="70" y="342.2549">SearchText: string</text><ellipse cx="61" cy="351.6719" rx="3" ry="3" style="stroke:#038048;stroke-width:1.0;fill:none;"/><text fill="#000000" font-family="sans-serif" font-size="11" lengthAdjust="spacing" textLength="60" x="70" y="356.0908">Result: any[]</text><ellipse cx="61" cy="365.5078" rx="3" ry="3" style="stroke:#038048;stroke-width:1.0;fill:none;"/><text fill="#000000" font-family="sans-serif" font-size="11" lengthAdjust="spacing" text-decoration="underline" textLength="60" x="70" y="369.9268">TypeId: Guid</text><line style="stroke:#A80036;stroke-width:1.5;" x1="51" x2="290" y1="376.3438" y2="376.3438"/><ellipse cx="61" cy="387.3438" fill="#84BE84" rx="3" ry="3" style="stroke:#038048;stroke-width:1.0;"/><text fill="#000000" font-family="sans-serif" font-size="11" lengthAdjust="spacing" textLength="215" x="70" y="391.7627">execute(searchText: string): Promise&lt;any[]&gt;</text><ellipse cx="61" cy="401.1797" fill="#84BE84" rx="3" ry="3" style="stroke:#038048;stroke-width:1.0;"/><text fill="#000000" font-family="sans-serif" font-size="11" lengthAdjust="spacing" text-decoration="underline" textLength="179" x="70" y="405.5986">IsForMe(dto: CommandDTO): boolean</text><!--MD5=[9714f00bbee80ca7b140c29ae529c8eb]
reverse link BaseDTO to CommandDTO--><path d="M333,409 C320.67,429.78 307.15,452.56 295.77,471.73 " fill="none" id="BaseDTO-backto-CommandDTO" style="stroke:#A80036;stroke-width:1.0;"/><polygon fill="none" points="327,405.4,343.23,391.77,339.04,412.54,327,405.4" style="stroke:#A80036;stroke-width:1.0;"/><!--MD5=[67000b85f35a3ac3f1ca08b0c602fe40]
reverse link CommandWrapper to FindAdressesBase--><path d="M170.5,241.18 C170.5,254.82 170.5,268.25 170.5,280.7 " fill="none" id="CommandWrapper-backto-FindAdressesBase" style="stroke:#A80036;stroke-width:1.0;"/><polygon fill="none" points="163.5,241.14,170.5,221.14,177.5,241.14,163.5,241.14" style="stroke:#A80036;stroke-width:1.0;"/><!--MD5=[92fdb8409966ab8b3f648f5668444010]
link CommandDTO to PropertyDTO--><path codeLine="38" d="M269.5,562 C269.5,579.15 269.5,598.87 269.5,616.51 " fill="none" id="CommandDTO-to-PropertyDTO" style="stroke:#A80036;stroke-width:1.0;"/><polygon fill="#A80036" points="269.5,621.91,273.5,612.91,269.5,616.91,265.5,612.91,269.5,621.91" style="stroke:#A80036;stroke-width:1.0;"/><text fill="#000000" font-family="sans-serif" font-size="13" lengthAdjust="spacing" textLength="5" x="264.1016" y="611.0111">*</text><!--MD5=[cede573120fbc3fd1d4735210532ccfb]
link FindAdressesBase to CommandDTO--><path codeLine="39" d="M208.49,412.16 C219.3,430.56 230.88,450.27 241.02,467.53 " fill="none" id="FindAdressesBase-to-CommandDTO" style="stroke:#A80036;stroke-width:1.0;"/><polygon fill="#A80036" points="243.57,471.86,242.4701,462.0727,241.0418,467.5463,235.5682,466.1179,243.57,471.86" style="stroke:#A80036;stroke-width:1.0;"/><text fill="#000000" font-family="sans-serif" font-size="13" lengthAdjust="spacing" textLength="7" x="232.0635" y="461.2827">1</text><!--MD5=[73dc6944b8959bc3e086f18c4020938f]
@startuml
class CommandWrapper {
    -_dto: any
    -_service: any
    +Service: any
    +DTO: any
    +Response: boolean
    +Arguments: any[]
    +Type: Guid
    +Id: Guid
    +getArgument(name: string): any
    +setArgument(name: string, value: string): void
    -{static} _factories: any
    +{static} register(typeId: Guid, factory: CommandWrapperFactory): void
}
class PropertyDTO {
    +Name?: string
    +Value?: string
    +{static} TypeId: Guid
}
class BaseDTO {
    +Id?: Guid
    +Type?: Guid
    +{static} TypeId: Guid
}
class CommandDTO extends BaseDTO {
    +Response?: boolean
    +Arguments?: PropertyDTO[]
    +{static} TypeId: Guid
}
class FindAdressesBase extends CommandWrapper {
    +SearchText: string
    +SearchText: string
    +Result: any[]
    +execute(searchText: string): Promise<any[]>
    +{static} TypeId: Guid
    +{static} IsForMe(dto: CommandDTO): boolean
}
CommandDTO - -> "*" PropertyDTO
FindAdressesBase - -> "1" CommandDTO
@enduml

PlantUML version 1.2021.10(Mon Aug 30 15:43:48 CEST 2021)
(GPL source distribution)
Java Runtime: Java(TM) SE Runtime Environment
JVM: Java HotSpot(TM) Client VM
Default Encoding: Cp1252
Language: de
Country: CH
--></g></svg>