<?xml version="1.0" encoding="UTF-8" standalone="no"?><svg xmlns="http://www.w3.org/2000/svg" xmlns:xlink="http://www.w3.org/1999/xlink" contentScriptType="application/ecmascript" contentStyleType="text/css" height="808px" preserveAspectRatio="none" style="width:451px;height:808px;background:#FFFFFF;" version="1.1" viewBox="0 0 451 808" width="451px" zoomAndPan="magnify"><defs><filter height="300%" id="f1ccylqwkajcq2" width="300%" x="-1" y="-1"><feGaussianBlur result="blurOut" stdDeviation="2.0"/><feColorMatrix in="blurOut" result="blurOut2" type="matrix" values="0 0 0 0 0 0 0 0 0 0 0 0 0 0 0 0 0 0 .4 0"/><feOffset dx="4.0" dy="4.0" in="blurOut2" result="blurOut3"/><feBlend in="SourceGraphic" in2="blurOut3" mode="normal"/></filter></defs><g><!--MD5=[6b1d3384926f1bc892ee196bbd0d7fce]
class BaseDTO--><rect codeLine="1" fill="#FEFECE" filter="url(#f1ccylqwkajcq2)" height="89.5078" id="BaseDTO" style="stroke:#A80036;stroke-width:1.5;" width="89" x="9.5" y="315.5"/><ellipse cx="25.85" cy="331.5" fill="#ADD1B2" rx="11" ry="11" style="stroke:#A80036;stroke-width:1.0;"/><path d="M28.6156,327.375 Q28.7719,327.1563 28.9594,327.0469 Q29.1469,326.9375 29.3656,326.9375 Q29.7406,326.9375 29.975,327.1953 Q30.2094,327.4531 30.2094,328.0625 L30.2094,329.5156 Q30.2094,330.125 29.975,330.3906 Q29.7406,330.6563 29.3656,330.6563 Q29.0219,330.6563 28.8188,330.4531 Q28.6156,330.2656 28.5063,329.75 Q28.4594,329.3906 28.2719,329.2031 Q27.9438,328.8281 27.3344,328.6094 Q26.725,328.3906 26.1,328.3906 Q25.3344,328.3906 24.7016,328.7188 Q24.0688,329.0469 23.5766,329.7969 Q23.0844,330.5469 23.0844,331.5781 L23.0844,332.6719 Q23.0844,333.9063 23.975,334.7266 Q24.8656,335.5469 26.4594,335.5469 Q27.3969,335.5469 28.0531,335.2969 Q28.4438,335.1406 28.8656,334.7031 Q29.1313,334.4375 29.2797,334.3594 Q29.4281,334.2813 29.6313,334.2813 Q29.9594,334.2813 30.2172,334.5391 Q30.475,334.7969 30.475,335.1406 Q30.475,335.4844 30.1313,335.8906 Q29.6313,336.4688 28.8344,336.7969 Q27.7563,337.25 26.4594,337.25 Q24.9438,337.25 23.7406,336.625 Q22.7563,336.125 22.0688,335.0547 Q21.3813,333.9844 21.3813,332.7031 L21.3813,331.5469 Q21.3813,330.2188 21.9984,329.0703 Q22.6156,327.9219 23.7094,327.3047 Q24.8031,326.6875 26.0375,326.6875 Q26.7719,326.6875 27.4203,326.8516 Q28.0688,327.0156 28.6156,327.375 Z " fill="#000000"/><text fill="#000000" font-family="sans-serif" font-size="12" lengthAdjust="spacing" textLength="54" x="40.15" y="336.4102">BaseDTO</text><line style="stroke:#A80036;stroke-width:1.5;" x1="10.5" x2="97.5" y1="347.5" y2="347.5"/><ellipse cx="20.5" cy="358.5" rx="3" ry="3" style="stroke:#038048;stroke-width:1.0;fill:none;"/><text fill="#000000" font-family="sans-serif" font-size="11" lengthAdjust="spacing" textLength="47" x="29.5" y="362.9189">Id?: string</text><ellipse cx="20.5" cy="372.3359" rx="3" ry="3" style="stroke:#038048;stroke-width:1.0;fill:none;"/><text fill="#000000" font-family="sans-serif" font-size="11" lengthAdjust="spacing" textLength="63" x="29.5" y="376.7549">Type?: string</text><ellipse cx="20.5" cy="386.1719" rx="3" ry="3" style="stroke:#038048;stroke-width:1.0;fill:none;"/><text fill="#000000" font-family="sans-serif" font-size="11" lengthAdjust="spacing" text-decoration="underline" textLength="60" x="29.5" y="390.5908">TypeId: Guid</text><line style="stroke:#A80036;stroke-width:1.5;" x1="10.5" x2="97.5" y1="397.0078" y2="397.0078"/><!--MD5=[a5d4fcdae0bd58dbfa0890c54d6b74e5]
class AdressDTO--><rect codeLine="6" fill="#FEFECE" filter="url(#f1ccylqwkajcq2)" height="158.6875" id="AdressDTO" style="stroke:#A80036;stroke-width:1.5;" width="132" x="7" y="486"/><ellipse cx="38.2" cy="502" fill="#ADD1B2" rx="11" ry="11" style="stroke:#A80036;stroke-width:1.0;"/><path d="M40.9656,497.875 Q41.1219,497.6563 41.3094,497.5469 Q41.4969,497.4375 41.7156,497.4375 Q42.0906,497.4375 42.325,497.6953 Q42.5594,497.9531 42.5594,498.5625 L42.5594,500.0156 Q42.5594,500.625 42.325,500.8906 Q42.0906,501.1563 41.7156,501.1563 Q41.3719,501.1563 41.1688,500.9531 Q40.9656,500.7656 40.8563,500.25 Q40.8094,499.8906 40.6219,499.7031 Q40.2938,499.3281 39.6844,499.1094 Q39.075,498.8906 38.45,498.8906 Q37.6844,498.8906 37.0516,499.2188 Q36.4188,499.5469 35.9266,500.2969 Q35.4344,501.0469 35.4344,502.0781 L35.4344,503.1719 Q35.4344,504.4063 36.325,505.2266 Q37.2156,506.0469 38.8094,506.0469 Q39.7469,506.0469 40.4031,505.7969 Q40.7938,505.6406 41.2156,505.2031 Q41.4813,504.9375 41.6297,504.8594 Q41.7781,504.7813 41.9813,504.7813 Q42.3094,504.7813 42.5672,505.0391 Q42.825,505.2969 42.825,505.6406 Q42.825,505.9844 42.4813,506.3906 Q41.9813,506.9688 41.1844,507.2969 Q40.1063,507.75 38.8094,507.75 Q37.2938,507.75 36.0906,507.125 Q35.1063,506.625 34.4188,505.5547 Q33.7313,504.4844 33.7313,503.2031 L33.7313,502.0469 Q33.7313,500.7188 34.3484,499.5703 Q34.9656,498.4219 36.0594,497.8047 Q37.1531,497.1875 38.3875,497.1875 Q39.1219,497.1875 39.7703,497.3516 Q40.4188,497.5156 40.9656,497.875 Z " fill="#000000"/><text fill="#000000" font-family="sans-serif" font-size="12" lengthAdjust="spacing" textLength="64" x="55.8" y="506.9102">AdressDTO</text><line style="stroke:#A80036;stroke-width:1.5;" x1="8" x2="138" y1="518" y2="518"/><ellipse cx="18" cy="529" rx="3" ry="3" style="stroke:#038048;stroke-width:1.0;fill:none;"/><text fill="#000000" font-family="sans-serif" font-size="11" lengthAdjust="spacing" textLength="72" x="27" y="533.4189">Name1?: string</text><ellipse cx="18" cy="542.8359" rx="3" ry="3" style="stroke:#038048;stroke-width:1.0;fill:none;"/><text fill="#000000" font-family="sans-serif" font-size="11" lengthAdjust="spacing" textLength="72" x="27" y="547.2549">Name2?: string</text><ellipse cx="18" cy="556.6719" rx="3" ry="3" style="stroke:#038048;stroke-width:1.0;fill:none;"/><text fill="#000000" font-family="sans-serif" font-size="11" lengthAdjust="spacing" textLength="81" x="27" y="561.0908">Adress1?: string</text><ellipse cx="18" cy="570.5078" rx="3" ry="3" style="stroke:#038048;stroke-width:1.0;fill:none;"/><text fill="#000000" font-family="sans-serif" font-size="11" lengthAdjust="spacing" textLength="81" x="27" y="574.9268">Adress2?: string</text><ellipse cx="18" cy="584.3438" rx="3" ry="3" style="stroke:#038048;stroke-width:1.0;fill:none;"/><text fill="#000000" font-family="sans-serif" font-size="11" lengthAdjust="spacing" textLength="106" x="27" y="588.7627">Housenumber?: string</text><ellipse cx="18" cy="598.1797" rx="3" ry="3" style="stroke:#038048;stroke-width:1.0;fill:none;"/><text fill="#000000" font-family="sans-serif" font-size="11" lengthAdjust="spacing" textLength="57" x="27" y="602.5986">City?: string</text><ellipse cx="18" cy="612.0156" rx="3" ry="3" style="stroke:#038048;stroke-width:1.0;fill:none;"/><text fill="#000000" font-family="sans-serif" font-size="11" lengthAdjust="spacing" textLength="84" x="27" y="616.4346">Postcode?: string</text><ellipse cx="18" cy="625.8516" rx="3" ry="3" style="stroke:#038048;stroke-width:1.0;fill:none;"/><text fill="#000000" font-family="sans-serif" font-size="11" lengthAdjust="spacing" text-decoration="underline" textLength="60" x="27" y="630.2705">TypeId: Guid</text><line style="stroke:#A80036;stroke-width:1.5;" x1="8" x2="138" y1="636.6875" y2="636.6875"/><!--MD5=[fe6b2754769bc87cf156126798433078]
class CommandWrapper--><rect codeLine="16" fill="#FEFECE" filter="url(#f1ccylqwkajcq2)" height="227.8672" id="CommandWrapper" style="stroke:#A80036;stroke-width:1.5;" width="327" x="110.5" y="7"/><ellipse cx="216.75" cy="23" fill="#ADD1B2" rx="11" ry="11" style="stroke:#A80036;stroke-width:1.0;"/><path d="M219.5156,18.875 Q219.6719,18.6563 219.8594,18.5469 Q220.0469,18.4375 220.2656,18.4375 Q220.6406,18.4375 220.875,18.6953 Q221.1094,18.9531 221.1094,19.5625 L221.1094,21.0156 Q221.1094,21.625 220.875,21.8906 Q220.6406,22.1563 220.2656,22.1563 Q219.9219,22.1563 219.7188,21.9531 Q219.5156,21.7656 219.4063,21.25 Q219.3594,20.8906 219.1719,20.7031 Q218.8438,20.3281 218.2344,20.1094 Q217.625,19.8906 217,19.8906 Q216.2344,19.8906 215.6016,20.2188 Q214.9688,20.5469 214.4766,21.2969 Q213.9844,22.0469 213.9844,23.0781 L213.9844,24.1719 Q213.9844,25.4063 214.875,26.2266 Q215.7656,27.0469 217.3594,27.0469 Q218.2969,27.0469 218.9531,26.7969 Q219.3438,26.6406 219.7656,26.2031 Q220.0313,25.9375 220.1797,25.8594 Q220.3281,25.7813 220.5313,25.7813 Q220.8594,25.7813 221.1172,26.0391 Q221.375,26.2969 221.375,26.6406 Q221.375,26.9844 221.0313,27.3906 Q220.5313,27.9688 219.7344,28.2969 Q218.6563,28.75 217.3594,28.75 Q215.8438,28.75 214.6406,28.125 Q213.6563,27.625 212.9688,26.5547 Q212.2813,25.4844 212.2813,24.2031 L212.2813,23.0469 Q212.2813,21.7188 212.8984,20.5703 Q213.5156,19.4219 214.6094,18.8047 Q215.7031,18.1875 216.9375,18.1875 Q217.6719,18.1875 218.3203,18.3516 Q218.9688,18.5156 219.5156,18.875 Z " fill="#000000"/><text fill="#000000" font-family="sans-serif" font-size="12" lengthAdjust="spacing" textLength="106" x="237.25" y="27.9102">CommandWrapper</text><line style="stroke:#A80036;stroke-width:1.5;" x1="111.5" x2="436.5" y1="39" y2="39"/><rect fill="none" height="6" style="stroke:#C82930;stroke-width:1.0;" width="6" x="118.5" y="47"/><text fill="#000000" font-family="sans-serif" font-size="11" lengthAdjust="spacing" textLength="45" x="130.5" y="54.4189">_dto: any</text><rect fill="none" height="6" style="stroke:#C82930;stroke-width:1.0;" width="6" x="118.5" y="60.8359"/><text fill="#000000" font-family="sans-serif" font-size="11" lengthAdjust="spacing" textLength="66" x="130.5" y="68.2549">_service: any</text><ellipse cx="121.5" cy="77.6719" rx="3" ry="3" style="stroke:#038048;stroke-width:1.0;fill:none;"/><text fill="#000000" font-family="sans-serif" font-size="11" lengthAdjust="spacing" textLength="61" x="130.5" y="82.0908">Service: any</text><ellipse cx="121.5" cy="91.5078" rx="3" ry="3" style="stroke:#038048;stroke-width:1.0;fill:none;"/><text fill="#000000" font-family="sans-serif" font-size="11" lengthAdjust="spacing" textLength="45" x="130.5" y="95.9268">DTO: any</text><ellipse cx="121.5" cy="105.3438" rx="3" ry="3" style="stroke:#038048;stroke-width:1.0;fill:none;"/><text fill="#000000" font-family="sans-serif" font-size="11" lengthAdjust="spacing" textLength="93" x="130.5" y="109.7627">Response: boolean</text><ellipse cx="121.5" cy="119.1797" rx="3" ry="3" style="stroke:#038048;stroke-width:1.0;fill:none;"/><text fill="#000000" font-family="sans-serif" font-size="11" lengthAdjust="spacing" textLength="83" x="130.5" y="123.5986">Arguments: any[]</text><ellipse cx="121.5" cy="133.0156" rx="3" ry="3" style="stroke:#038048;stroke-width:1.0;fill:none;"/><text fill="#000000" font-family="sans-serif" font-size="11" lengthAdjust="spacing" textLength="52" x="130.5" y="137.4346">Type: Guid</text><ellipse cx="121.5" cy="146.8516" rx="3" ry="3" style="stroke:#038048;stroke-width:1.0;fill:none;"/><text fill="#000000" font-family="sans-serif" font-size="11" lengthAdjust="spacing" textLength="36" x="130.5" y="151.2705">Id: Guid</text><rect fill="none" height="6" style="stroke:#C82930;stroke-width:1.0;" width="6" x="118.5" y="157.6875"/><text fill="#000000" font-family="sans-serif" font-size="11" lengthAdjust="spacing" text-decoration="underline" textLength="73" x="130.5" y="165.1064">_factories: any</text><line style="stroke:#A80036;stroke-width:1.5;" x1="111.5" x2="436.5" y1="171.5234" y2="171.5234"/><ellipse cx="121.5" cy="182.5234" fill="#84BE84" rx="3" ry="3" style="stroke:#038048;stroke-width:1.0;"/><text fill="#000000" font-family="sans-serif" font-size="11" lengthAdjust="spacing" textLength="153" x="130.5" y="186.9424">getArgument(name: string): any</text><ellipse cx="121.5" cy="196.3594" fill="#84BE84" rx="3" ry="3" style="stroke:#038048;stroke-width:1.0;"/><text fill="#000000" font-family="sans-serif" font-size="11" lengthAdjust="spacing" textLength="220" x="130.5" y="200.7783">setArgument(name: string, value: string): void</text><ellipse cx="121.5" cy="210.1953" fill="#84BE84" rx="3" ry="3" style="stroke:#038048;stroke-width:1.0;"/><text fill="#000000" font-family="sans-serif" font-size="11" lengthAdjust="spacing" textLength="142" x="130.5" y="214.6143">executeCmd(): Promise&lt;any&gt;</text><ellipse cx="121.5" cy="224.0313" fill="#84BE84" rx="3" ry="3" style="stroke:#038048;stroke-width:1.0;"/><text fill="#000000" font-family="sans-serif" font-size="11" lengthAdjust="spacing" text-decoration="underline" textLength="301" x="130.5" y="228.4502">register(typeId: Guid, factory: CommandWrapperFactory): void</text><!--MD5=[a8c0967d7b66f43265179b07355379df]
class PropertyDTO--><rect codeLine="31" fill="#FEFECE" filter="url(#f1ccylqwkajcq2)" height="89.5078" id="PropertyDTO" style="stroke:#A80036;stroke-width:1.5;" width="102" x="213" y="705"/><ellipse cx="228" cy="721" fill="#ADD1B2" rx="11" ry="11" style="stroke:#A80036;stroke-width:1.0;"/><path d="M230.7656,716.875 Q230.9219,716.6563 231.1094,716.5469 Q231.2969,716.4375 231.5156,716.4375 Q231.8906,716.4375 232.125,716.6953 Q232.3594,716.9531 232.3594,717.5625 L232.3594,719.0156 Q232.3594,719.625 232.125,719.8906 Q231.8906,720.1563 231.5156,720.1563 Q231.1719,720.1563 230.9688,719.9531 Q230.7656,719.7656 230.6563,719.25 Q230.6094,718.8906 230.4219,718.7031 Q230.0938,718.3281 229.4844,718.1094 Q228.875,717.8906 228.25,717.8906 Q227.4844,717.8906 226.8516,718.2188 Q226.2188,718.5469 225.7266,719.2969 Q225.2344,720.0469 225.2344,721.0781 L225.2344,722.1719 Q225.2344,723.4063 226.125,724.2266 Q227.0156,725.0469 228.6094,725.0469 Q229.5469,725.0469 230.2031,724.7969 Q230.5938,724.6406 231.0156,724.2031 Q231.2813,723.9375 231.4297,723.8594 Q231.5781,723.7813 231.7813,723.7813 Q232.1094,723.7813 232.3672,724.0391 Q232.625,724.2969 232.625,724.6406 Q232.625,724.9844 232.2813,725.3906 Q231.7813,725.9688 230.9844,726.2969 Q229.9063,726.75 228.6094,726.75 Q227.0938,726.75 225.8906,726.125 Q224.9063,725.625 224.2188,724.5547 Q223.5313,723.4844 223.5313,722.2031 L223.5313,721.0469 Q223.5313,719.7188 224.1484,718.5703 Q224.7656,717.4219 225.8594,716.8047 Q226.9531,716.1875 228.1875,716.1875 Q228.9219,716.1875 229.5703,716.3516 Q230.2188,716.5156 230.7656,716.875 Z " fill="#000000"/><text fill="#000000" font-family="sans-serif" font-size="12" lengthAdjust="spacing" textLength="70" x="242" y="725.9102">PropertyDTO</text><line style="stroke:#A80036;stroke-width:1.5;" x1="214" x2="314" y1="737" y2="737"/><ellipse cx="224" cy="748" rx="3" ry="3" style="stroke:#038048;stroke-width:1.0;fill:none;"/><text fill="#000000" font-family="sans-serif" font-size="11" lengthAdjust="spacing" textLength="66" x="233" y="752.4189">Name?: string</text><ellipse cx="224" cy="761.8359" rx="3" ry="3" style="stroke:#038048;stroke-width:1.0;fill:none;"/><text fill="#000000" font-family="sans-serif" font-size="11" lengthAdjust="spacing" textLength="58" x="233" y="766.2549">Value?: any</text><ellipse cx="224" cy="775.6719" rx="3" ry="3" style="stroke:#038048;stroke-width:1.0;fill:none;"/><text fill="#000000" font-family="sans-serif" font-size="11" lengthAdjust="spacing" text-decoration="underline" textLength="60" x="233" y="780.0908">TypeId: Guid</text><line style="stroke:#A80036;stroke-width:1.5;" x1="214" x2="314" y1="786.5078" y2="786.5078"/><!--MD5=[f5d54f60ec6d089d1cb017027d5a65a8]
class CommandDTO--><rect codeLine="36" fill="#FEFECE" filter="url(#f1ccylqwkajcq2)" height="89.5078" id="CommandDTO" style="stroke:#A80036;stroke-width:1.5;" width="159" x="184.5" y="520.5"/><ellipse cx="218.85" cy="536.5" fill="#ADD1B2" rx="11" ry="11" style="stroke:#A80036;stroke-width:1.0;"/><path d="M221.6156,532.375 Q221.7719,532.1563 221.9594,532.0469 Q222.1469,531.9375 222.3656,531.9375 Q222.7406,531.9375 222.975,532.1953 Q223.2094,532.4531 223.2094,533.0625 L223.2094,534.5156 Q223.2094,535.125 222.975,535.3906 Q222.7406,535.6563 222.3656,535.6563 Q222.0219,535.6563 221.8188,535.4531 Q221.6156,535.2656 221.5063,534.75 Q221.4594,534.3906 221.2719,534.2031 Q220.9438,533.8281 220.3344,533.6094 Q219.725,533.3906 219.1,533.3906 Q218.3344,533.3906 217.7016,533.7188 Q217.0688,534.0469 216.5766,534.7969 Q216.0844,535.5469 216.0844,536.5781 L216.0844,537.6719 Q216.0844,538.9063 216.975,539.7266 Q217.8656,540.5469 219.4594,540.5469 Q220.3969,540.5469 221.0531,540.2969 Q221.4438,540.1406 221.8656,539.7031 Q222.1313,539.4375 222.2797,539.3594 Q222.4281,539.2813 222.6313,539.2813 Q222.9594,539.2813 223.2172,539.5391 Q223.475,539.7969 223.475,540.1406 Q223.475,540.4844 223.1313,540.8906 Q222.6313,541.4688 221.8344,541.7969 Q220.7563,542.25 219.4594,542.25 Q217.9438,542.25 216.7406,541.625 Q215.7563,541.125 215.0688,540.0547 Q214.3813,538.9844 214.3813,537.7031 L214.3813,536.5469 Q214.3813,535.2188 214.9984,534.0703 Q215.6156,532.9219 216.7094,532.3047 Q217.8031,531.6875 219.0375,531.6875 Q219.7719,531.6875 220.4203,531.8516 Q221.0688,532.0156 221.6156,532.375 Z " fill="#000000"/><text fill="#000000" font-family="sans-serif" font-size="12" lengthAdjust="spacing" textLength="84" x="237.15" y="541.4102">CommandDTO</text><line style="stroke:#A80036;stroke-width:1.5;" x1="185.5" x2="342.5" y1="552.5" y2="552.5"/><ellipse cx="195.5" cy="563.5" rx="3" ry="3" style="stroke:#038048;stroke-width:1.0;fill:none;"/><text fill="#000000" font-family="sans-serif" font-size="11" lengthAdjust="spacing" textLength="99" x="204.5" y="567.9189">Response?: boolean</text><ellipse cx="195.5" cy="577.3359" rx="3" ry="3" style="stroke:#038048;stroke-width:1.0;fill:none;"/><text fill="#000000" font-family="sans-serif" font-size="11" lengthAdjust="spacing" textLength="133" x="204.5" y="581.7549">Arguments?: PropertyDTO[]</text><ellipse cx="195.5" cy="591.1719" rx="3" ry="3" style="stroke:#038048;stroke-width:1.0;fill:none;"/><text fill="#000000" font-family="sans-serif" font-size="11" lengthAdjust="spacing" text-decoration="underline" textLength="60" x="204.5" y="595.5908">TypeId: Guid</text><line style="stroke:#A80036;stroke-width:1.5;" x1="185.5" x2="342.5" y1="602.0078" y2="602.0078"/><!--MD5=[89eeb47b17e5cbe88e661845b5a65b87]
class FindAdressesBase--><rect codeLine="41" fill="#FEFECE" filter="url(#f1ccylqwkajcq2)" height="131.0156" id="FindAdressesBase" style="stroke:#A80036;stroke-width:1.5;" width="280" x="134" y="295"/><ellipse cx="216.75" cy="311" fill="#ADD1B2" rx="11" ry="11" style="stroke:#A80036;stroke-width:1.0;"/><path d="M219.5156,306.875 Q219.6719,306.6563 219.8594,306.5469 Q220.0469,306.4375 220.2656,306.4375 Q220.6406,306.4375 220.875,306.6953 Q221.1094,306.9531 221.1094,307.5625 L221.1094,309.0156 Q221.1094,309.625 220.875,309.8906 Q220.6406,310.1563 220.2656,310.1563 Q219.9219,310.1563 219.7188,309.9531 Q219.5156,309.7656 219.4063,309.25 Q219.3594,308.8906 219.1719,308.7031 Q218.8438,308.3281 218.2344,308.1094 Q217.625,307.8906 217,307.8906 Q216.2344,307.8906 215.6016,308.2188 Q214.9688,308.5469 214.4766,309.2969 Q213.9844,310.0469 213.9844,311.0781 L213.9844,312.1719 Q213.9844,313.4063 214.875,314.2266 Q215.7656,315.0469 217.3594,315.0469 Q218.2969,315.0469 218.9531,314.7969 Q219.3438,314.6406 219.7656,314.2031 Q220.0313,313.9375 220.1797,313.8594 Q220.3281,313.7813 220.5313,313.7813 Q220.8594,313.7813 221.1172,314.0391 Q221.375,314.2969 221.375,314.6406 Q221.375,314.9844 221.0313,315.3906 Q220.5313,315.9688 219.7344,316.2969 Q218.6563,316.75 217.3594,316.75 Q215.8438,316.75 214.6406,316.125 Q213.6563,315.625 212.9688,314.5547 Q212.2813,313.4844 212.2813,312.2031 L212.2813,311.0469 Q212.2813,309.7188 212.8984,308.5703 Q213.5156,307.4219 214.6094,306.8047 Q215.7031,306.1875 216.9375,306.1875 Q217.6719,306.1875 218.3203,306.3516 Q218.9688,306.5156 219.5156,306.875 Z " fill="#000000"/><text fill="#000000" font-family="sans-serif" font-size="12" lengthAdjust="spacing" textLength="106" x="237.25" y="315.9102">FindAdressesBase</text><line style="stroke:#A80036;stroke-width:1.5;" x1="135" x2="413" y1="327" y2="327"/><ellipse cx="145" cy="338" rx="3" ry="3" style="stroke:#038048;stroke-width:1.0;fill:none;"/><text fill="#000000" font-family="sans-serif" font-size="11" lengthAdjust="spacing" textLength="89" x="154" y="342.4189">SearchText: string</text><ellipse cx="145" cy="351.8359" rx="3" ry="3" style="stroke:#038048;stroke-width:1.0;fill:none;"/><text fill="#000000" font-family="sans-serif" font-size="11" lengthAdjust="spacing" textLength="89" x="154" y="356.2549">SearchText: string</text><ellipse cx="145" cy="365.6719" rx="3" ry="3" style="stroke:#038048;stroke-width:1.0;fill:none;"/><text fill="#000000" font-family="sans-serif" font-size="11" lengthAdjust="spacing" textLength="99" x="154" y="370.0908">Result: AdressDTO[]</text><ellipse cx="145" cy="379.5078" rx="3" ry="3" style="stroke:#038048;stroke-width:1.0;fill:none;"/><text fill="#000000" font-family="sans-serif" font-size="11" lengthAdjust="spacing" text-decoration="underline" textLength="60" x="154" y="383.9268">TypeId: Guid</text><line style="stroke:#A80036;stroke-width:1.5;" x1="135" x2="413" y1="390.3438" y2="390.3438"/><ellipse cx="145" cy="401.3438" fill="#84BE84" rx="3" ry="3" style="stroke:#038048;stroke-width:1.0;"/><text fill="#000000" font-family="sans-serif" font-size="11" lengthAdjust="spacing" textLength="254" x="154" y="405.7627">execute(searchText: string): Promise&lt;AdressDTO[]&gt;</text><ellipse cx="145" cy="415.1797" fill="#84BE84" rx="3" ry="3" style="stroke:#038048;stroke-width:1.0;"/><text fill="#000000" font-family="sans-serif" font-size="11" lengthAdjust="spacing" text-decoration="underline" textLength="159" x="154" y="419.5986">IsForMe(dto: CommandDTO): any</text><!--MD5=[78563b2dced031dcc99154e54e28d438]
reverse link BaseDTO to AdressDTO--><path d="M60.01,425.66 C61.79,444.74 63.77,465.86 65.63,485.75 " fill="none" id="BaseDTO-backto-AdressDTO" style="stroke:#A80036;stroke-width:1.0;"/><polygon fill="none" points="53.02,426.11,58.12,405.55,66.96,424.81,53.02,426.11" style="stroke:#A80036;stroke-width:1.0;"/><!--MD5=[9714f00bbee80ca7b140c29ae529c8eb]
reverse link BaseDTO to CommandDTO--><path d="M110.03,420.06 C112.04,422.07 114.03,424.06 116,426 C148.56,458.13 186.22,493.34 215.4,520.22 " fill="none" id="BaseDTO-backto-CommandDTO" style="stroke:#A80036;stroke-width:1.0;"/><polygon fill="none" points="104.76,424.68,95.71,405.52,114.73,414.86,104.76,424.68" style="stroke:#A80036;stroke-width:1.0;"/><!--MD5=[67000b85f35a3ac3f1ca08b0c602fe40]
reverse link CommandWrapper to FindAdressesBase--><path d="M274,255.28 C274,268.93 274,282.32 274,294.71 " fill="none" id="CommandWrapper-backto-FindAdressesBase" style="stroke:#A80036;stroke-width:1.0;"/><polygon fill="none" points="267,255.19,274,235.19,281,255.19,267,255.19" style="stroke:#A80036;stroke-width:1.0;"/><!--MD5=[92fdb8409966ab8b3f648f5668444010]
link CommandDTO to PropertyDTO--><path codeLine="49" d="M264,610.68 C264,637.59 264,672.03 264,699.81 " fill="none" id="CommandDTO-to-PropertyDTO" style="stroke:#A80036;stroke-width:1.0;"/><polygon fill="#A80036" points="264,704.91,268,695.91,264,699.91,260,695.91,264,704.91" style="stroke:#A80036;stroke-width:1.0;"/><text fill="#000000" font-family="sans-serif" font-size="13" lengthAdjust="spacing" textLength="5" x="258.6016" y="694.0111">*</text><!--MD5=[a80ee6a01caeba6a1db453fbc77bc84f]
link FindAdressesBase to AdressDTO--><path codeLine="50" d="M210.13,426.01 C188.72,447.63 164.74,471.84 142.9,493.9 " fill="none" id="FindAdressesBase-to-AdressDTO" style="stroke:#A80036;stroke-width:1.0;"/><polygon fill="#A80036" points="139.13,497.71,148.308,494.1373,142.6512,494.1602,142.6283,488.5034,139.13,497.71" style="stroke:#A80036;stroke-width:1.0;"/><text fill="#000000" font-family="sans-serif" font-size="13" lengthAdjust="spacing" textLength="5" x="147.0653" y="486.4803">*</text><!--MD5=[cede573120fbc3fd1d4735210532ccfb]
link FindAdressesBase to CommandDTO--><path codeLine="51" d="M270.82,426.01 C269.4,454.85 267.75,488.31 266.43,515.12 " fill="none" id="FindAdressesBase-to-CommandDTO" style="stroke:#A80036;stroke-width:1.0;"/><polygon fill="#A80036" points="266.17,520.39,270.627,511.6073,266.4268,515.3966,262.6375,511.1964,266.17,520.39" style="stroke:#A80036;stroke-width:1.0;"/><text fill="#000000" font-family="sans-serif" font-size="13" lengthAdjust="spacing" textLength="7" x="258.958" y="509.4879">1</text><!--MD5=[827a4f0bc363b47fa564da3f0a188bf0]
@startuml
class BaseDTO {
    +Id?: string
    +Type?: string
    +{static} TypeId: Guid
}
class AdressDTO extends BaseDTO {
    +Name1?: string
    +Name2?: string
    +Adress1?: string
    +Adress2?: string
    +Housenumber?: string
    +City?: string
    +Postcode?: string
    +{static} TypeId: Guid
}
class CommandWrapper {
    -_dto: any
    -_service: any
    +Service: any
    +DTO: any
    +Response: boolean
    +Arguments: any[]
    +Type: Guid
    +Id: Guid
    +getArgument(name: string): any
    +setArgument(name: string, value: string): void
    +executeCmd(): Promise<any>
    -{static} _factories: any
    +{static} register(typeId: Guid, factory: CommandWrapperFactory): void
}
class PropertyDTO {
    +Name?: string
    +Value?: any
    +{static} TypeId: Guid
}
class CommandDTO extends BaseDTO {
    +Response?: boolean
    +Arguments?: PropertyDTO[]
    +{static} TypeId: Guid
}
class FindAdressesBase extends CommandWrapper {
    +SearchText: string
    +SearchText: string
    +Result: AdressDTO[]
    +execute(searchText: string): Promise<AdressDTO[]>
    +{static} TypeId: Guid
    +{static} IsForMe(dto: CommandDTO): any
}
CommandDTO - -> "*" PropertyDTO
FindAdressesBase - -> "*" AdressDTO
FindAdressesBase - -> "1" CommandDTO
@enduml

PlantUML version 1.2021.10(Mon Aug 30 09:43:48 EDT 2021)
(GPL source distribution)
Java Runtime: Java(TM) SE Runtime Environment
JVM: Java HotSpot(TM) Client VM
Default Encoding: Cp1252
Language: en
Country: US
--></g></svg>