<?xml version="1.0" encoding="UTF-8" standalone="no"?><svg xmlns="http://www.w3.org/2000/svg" xmlns:xlink="http://www.w3.org/1999/xlink" contentScriptType="application/ecmascript" contentStyleType="text/css" height="725px" preserveAspectRatio="none" style="width:408px;height:725px;background:#FFFFFF;" version="1.1" viewBox="0 0 408 725" width="408px" zoomAndPan="magnify"><defs><filter height="300%" id="f2s2omlsx6vu9" width="300%" x="-1" y="-1"><feGaussianBlur result="blurOut" stdDeviation="2.0"/><feColorMatrix in="blurOut" result="blurOut2" type="matrix" values="0 0 0 0 0 0 0 0 0 0 0 0 0 0 0 0 0 0 .4 0"/><feOffset dx="4.0" dy="4.0" in="blurOut2" result="blurOut3"/><feBlend in="SourceGraphic" in2="blurOut3" mode="normal"/></filter></defs><g><!--MD5=[fe6b2754769bc87cf156126798433078]
class CommandWrapper--><rect codeLine="1" fill="#FEFECE" filter="url(#f2s2omlsx6vu9)" height="214.0313" id="CommandWrapper" style="stroke:#A80036;stroke-width:1.5;" width="327" x="7" y="7"/><ellipse cx="113.25" cy="23" fill="#ADD1B2" rx="11" ry="11" style="stroke:#A80036;stroke-width:1.0;"/><path d="M116.0156,18.875 Q116.1719,18.6563 116.3594,18.5469 Q116.5469,18.4375 116.7656,18.4375 Q117.1406,18.4375 117.375,18.6953 Q117.6094,18.9531 117.6094,19.5625 L117.6094,21.0156 Q117.6094,21.625 117.375,21.8906 Q117.1406,22.1563 116.7656,22.1563 Q116.4219,22.1563 116.2188,21.9531 Q116.0156,21.7656 115.9063,21.25 Q115.8594,20.8906 115.6719,20.7031 Q115.3438,20.3281 114.7344,20.1094 Q114.125,19.8906 113.5,19.8906 Q112.7344,19.8906 112.1016,20.2188 Q111.4688,20.5469 110.9766,21.2969 Q110.4844,22.0469 110.4844,23.0781 L110.4844,24.1719 Q110.4844,25.4063 111.375,26.2266 Q112.2656,27.0469 113.8594,27.0469 Q114.7969,27.0469 115.4531,26.7969 Q115.8438,26.6406 116.2656,26.2031 Q116.5313,25.9375 116.6797,25.8594 Q116.8281,25.7813 117.0313,25.7813 Q117.3594,25.7813 117.6172,26.0391 Q117.875,26.2969 117.875,26.6406 Q117.875,26.9844 117.5313,27.3906 Q117.0313,27.9688 116.2344,28.2969 Q115.1563,28.75 113.8594,28.75 Q112.3438,28.75 111.1406,28.125 Q110.1563,27.625 109.4688,26.5547 Q108.7813,25.4844 108.7813,24.2031 L108.7813,23.0469 Q108.7813,21.7188 109.3984,20.5703 Q110.0156,19.4219 111.1094,18.8047 Q112.2031,18.1875 113.4375,18.1875 Q114.1719,18.1875 114.8203,18.3516 Q115.4688,18.5156 116.0156,18.875 Z " fill="#000000"/><text fill="#000000" font-family="sans-serif" font-size="12" lengthAdjust="spacing" textLength="106" x="133.75" y="27.9102">CommandWrapper</text><line style="stroke:#A80036;stroke-width:1.5;" x1="8" x2="333" y1="39" y2="39"/><rect fill="none" height="6" style="stroke:#C82930;stroke-width:1.0;" width="6" x="15" y="47"/><text fill="#000000" font-family="sans-serif" font-size="11" lengthAdjust="spacing" textLength="45" x="27" y="54.4189">_dto: any</text><rect fill="none" height="6" style="stroke:#C82930;stroke-width:1.0;" width="6" x="15" y="60.8359"/><text fill="#000000" font-family="sans-serif" font-size="11" lengthAdjust="spacing" textLength="66" x="27" y="68.2549">_service: any</text><ellipse cx="18" cy="77.6719" rx="3" ry="3" style="stroke:#038048;stroke-width:1.0;fill:none;"/><text fill="#000000" font-family="sans-serif" font-size="11" lengthAdjust="spacing" textLength="61" x="27" y="82.0908">Service: any</text><ellipse cx="18" cy="91.5078" rx="3" ry="3" style="stroke:#038048;stroke-width:1.0;fill:none;"/><text fill="#000000" font-family="sans-serif" font-size="11" lengthAdjust="spacing" textLength="45" x="27" y="95.9268">DTO: any</text><ellipse cx="18" cy="105.3438" rx="3" ry="3" style="stroke:#038048;stroke-width:1.0;fill:none;"/><text fill="#000000" font-family="sans-serif" font-size="11" lengthAdjust="spacing" textLength="93" x="27" y="109.7627">Response: boolean</text><ellipse cx="18" cy="119.1797" rx="3" ry="3" style="stroke:#038048;stroke-width:1.0;fill:none;"/><text fill="#000000" font-family="sans-serif" font-size="11" lengthAdjust="spacing" textLength="83" x="27" y="123.5986">Arguments: any[]</text><ellipse cx="18" cy="133.0156" rx="3" ry="3" style="stroke:#038048;stroke-width:1.0;fill:none;"/><text fill="#000000" font-family="sans-serif" font-size="11" lengthAdjust="spacing" textLength="52" x="27" y="137.4346">Type: Guid</text><ellipse cx="18" cy="146.8516" rx="3" ry="3" style="stroke:#038048;stroke-width:1.0;fill:none;"/><text fill="#000000" font-family="sans-serif" font-size="11" lengthAdjust="spacing" textLength="36" x="27" y="151.2705">Id: Guid</text><rect fill="none" height="6" style="stroke:#C82930;stroke-width:1.0;" width="6" x="15" y="157.6875"/><text fill="#000000" font-family="sans-serif" font-size="11" lengthAdjust="spacing" text-decoration="underline" textLength="73" x="27" y="165.1064">_factories: any</text><line style="stroke:#A80036;stroke-width:1.5;" x1="8" x2="333" y1="171.5234" y2="171.5234"/><ellipse cx="18" cy="182.5234" fill="#84BE84" rx="3" ry="3" style="stroke:#038048;stroke-width:1.0;"/><text fill="#000000" font-family="sans-serif" font-size="11" lengthAdjust="spacing" textLength="153" x="27" y="186.9424">getArgument(name: string): any</text><ellipse cx="18" cy="196.3594" fill="#84BE84" rx="3" ry="3" style="stroke:#038048;stroke-width:1.0;"/><text fill="#000000" font-family="sans-serif" font-size="11" lengthAdjust="spacing" textLength="220" x="27" y="200.7783">setArgument(name: string, value: string): void</text><ellipse cx="18" cy="210.1953" fill="#84BE84" rx="3" ry="3" style="stroke:#038048;stroke-width:1.0;"/><text fill="#000000" font-family="sans-serif" font-size="11" lengthAdjust="spacing" text-decoration="underline" textLength="301" x="27" y="214.6143">register(typeId: Guid, factory: CommandWrapperFactory): void</text><!--MD5=[a8c0967d7b66f43265179b07355379df]
class PropertyDTO--><rect codeLine="15" fill="#FEFECE" filter="url(#f2s2omlsx6vu9)" height="89.5078" id="PropertyDTO" style="stroke:#A80036;stroke-width:1.5;" width="102" x="209.5" y="622"/><ellipse cx="224.5" cy="638" fill="#ADD1B2" rx="11" ry="11" style="stroke:#A80036;stroke-width:1.0;"/><path d="M227.2656,633.875 Q227.4219,633.6563 227.6094,633.5469 Q227.7969,633.4375 228.0156,633.4375 Q228.3906,633.4375 228.625,633.6953 Q228.8594,633.9531 228.8594,634.5625 L228.8594,636.0156 Q228.8594,636.625 228.625,636.8906 Q228.3906,637.1563 228.0156,637.1563 Q227.6719,637.1563 227.4688,636.9531 Q227.2656,636.7656 227.1563,636.25 Q227.1094,635.8906 226.9219,635.7031 Q226.5938,635.3281 225.9844,635.1094 Q225.375,634.8906 224.75,634.8906 Q223.9844,634.8906 223.3516,635.2188 Q222.7188,635.5469 222.2266,636.2969 Q221.7344,637.0469 221.7344,638.0781 L221.7344,639.1719 Q221.7344,640.4063 222.625,641.2266 Q223.5156,642.0469 225.1094,642.0469 Q226.0469,642.0469 226.7031,641.7969 Q227.0938,641.6406 227.5156,641.2031 Q227.7813,640.9375 227.9297,640.8594 Q228.0781,640.7813 228.2813,640.7813 Q228.6094,640.7813 228.8672,641.0391 Q229.125,641.2969 229.125,641.6406 Q229.125,641.9844 228.7813,642.3906 Q228.2813,642.9688 227.4844,643.2969 Q226.4063,643.75 225.1094,643.75 Q223.5938,643.75 222.3906,643.125 Q221.4063,642.625 220.7188,641.5547 Q220.0313,640.4844 220.0313,639.2031 L220.0313,638.0469 Q220.0313,636.7188 220.6484,635.5703 Q221.2656,634.4219 222.3594,633.8047 Q223.4531,633.1875 224.6875,633.1875 Q225.4219,633.1875 226.0703,633.3516 Q226.7188,633.5156 227.2656,633.875 Z " fill="#000000"/><text fill="#000000" font-family="sans-serif" font-size="12" lengthAdjust="spacing" textLength="70" x="238.5" y="642.9102">PropertyDTO</text><line style="stroke:#A80036;stroke-width:1.5;" x1="210.5" x2="310.5" y1="654" y2="654"/><ellipse cx="220.5" cy="665" rx="3" ry="3" style="stroke:#038048;stroke-width:1.0;fill:none;"/><text fill="#000000" font-family="sans-serif" font-size="11" lengthAdjust="spacing" textLength="66" x="229.5" y="669.4189">Name?: string</text><ellipse cx="220.5" cy="678.8359" rx="3" ry="3" style="stroke:#038048;stroke-width:1.0;fill:none;"/><text fill="#000000" font-family="sans-serif" font-size="11" lengthAdjust="spacing" textLength="67" x="229.5" y="683.2549">Value?: string</text><ellipse cx="220.5" cy="692.6719" rx="3" ry="3" style="stroke:#038048;stroke-width:1.0;fill:none;"/><text fill="#000000" font-family="sans-serif" font-size="11" lengthAdjust="spacing" text-decoration="underline" textLength="60" x="229.5" y="697.0908">TypeId: Guid</text><line style="stroke:#A80036;stroke-width:1.5;" x1="210.5" x2="310.5" y1="703.5078" y2="703.5078"/><!--MD5=[6b1d3384926f1bc892ee196bbd0d7fce]
class BaseDTO--><rect codeLine="20" fill="#FEFECE" filter="url(#f2s2omlsx6vu9)" height="89.5078" id="BaseDTO" style="stroke:#A80036;stroke-width:1.5;" width="86" x="308.5" y="301.5"/><ellipse cx="323.5" cy="317.5" fill="#ADD1B2" rx="11" ry="11" style="stroke:#A80036;stroke-width:1.0;"/><path d="M326.2656,313.375 Q326.4219,313.1563 326.6094,313.0469 Q326.7969,312.9375 327.0156,312.9375 Q327.3906,312.9375 327.625,313.1953 Q327.8594,313.4531 327.8594,314.0625 L327.8594,315.5156 Q327.8594,316.125 327.625,316.3906 Q327.3906,316.6563 327.0156,316.6563 Q326.6719,316.6563 326.4688,316.4531 Q326.2656,316.2656 326.1563,315.75 Q326.1094,315.3906 325.9219,315.2031 Q325.5938,314.8281 324.9844,314.6094 Q324.375,314.3906 323.75,314.3906 Q322.9844,314.3906 322.3516,314.7188 Q321.7188,315.0469 321.2266,315.7969 Q320.7344,316.5469 320.7344,317.5781 L320.7344,318.6719 Q320.7344,319.9063 321.625,320.7266 Q322.5156,321.5469 324.1094,321.5469 Q325.0469,321.5469 325.7031,321.2969 Q326.0938,321.1406 326.5156,320.7031 Q326.7813,320.4375 326.9297,320.3594 Q327.0781,320.2813 327.2813,320.2813 Q327.6094,320.2813 327.8672,320.5391 Q328.125,320.7969 328.125,321.1406 Q328.125,321.4844 327.7813,321.8906 Q327.2813,322.4688 326.4844,322.7969 Q325.4063,323.25 324.1094,323.25 Q322.5938,323.25 321.3906,322.625 Q320.4063,322.125 319.7188,321.0547 Q319.0313,319.9844 319.0313,318.7031 L319.0313,317.5469 Q319.0313,316.2188 319.6484,315.0703 Q320.2656,313.9219 321.3594,313.3047 Q322.4531,312.6875 323.6875,312.6875 Q324.4219,312.6875 325.0703,312.8516 Q325.7188,313.0156 326.2656,313.375 Z " fill="#000000"/><text fill="#000000" font-family="sans-serif" font-size="12" lengthAdjust="spacing" textLength="54" x="337.5" y="322.4102">BaseDTO</text><line style="stroke:#A80036;stroke-width:1.5;" x1="309.5" x2="393.5" y1="333.5" y2="333.5"/><ellipse cx="319.5" cy="344.5" rx="3" ry="3" style="stroke:#038048;stroke-width:1.0;fill:none;"/><text fill="#000000" font-family="sans-serif" font-size="11" lengthAdjust="spacing" textLength="42" x="328.5" y="348.9189">Id?: Guid</text><ellipse cx="319.5" cy="358.3359" rx="3" ry="3" style="stroke:#038048;stroke-width:1.0;fill:none;"/><text fill="#000000" font-family="sans-serif" font-size="11" lengthAdjust="spacing" textLength="58" x="328.5" y="362.7549">Type?: Guid</text><ellipse cx="319.5" cy="372.1719" rx="3" ry="3" style="stroke:#038048;stroke-width:1.0;fill:none;"/><text fill="#000000" font-family="sans-serif" font-size="11" lengthAdjust="spacing" text-decoration="underline" textLength="60" x="328.5" y="376.5908">TypeId: Guid</text><line style="stroke:#A80036;stroke-width:1.5;" x1="309.5" x2="393.5" y1="383.0078" y2="383.0078"/><!--MD5=[f5d54f60ec6d089d1cb017027d5a65a8]
class CommandDTO--><rect codeLine="25" fill="#FEFECE" filter="url(#f2s2omlsx6vu9)" height="89.5078" id="CommandDTO" style="stroke:#A80036;stroke-width:1.5;" width="159" x="181" y="472"/><ellipse cx="215.35" cy="488" fill="#ADD1B2" rx="11" ry="11" style="stroke:#A80036;stroke-width:1.0;"/><path d="M218.1156,483.875 Q218.2719,483.6563 218.4594,483.5469 Q218.6469,483.4375 218.8656,483.4375 Q219.2406,483.4375 219.475,483.6953 Q219.7094,483.9531 219.7094,484.5625 L219.7094,486.0156 Q219.7094,486.625 219.475,486.8906 Q219.2406,487.1563 218.8656,487.1563 Q218.5219,487.1563 218.3188,486.9531 Q218.1156,486.7656 218.0063,486.25 Q217.9594,485.8906 217.7719,485.7031 Q217.4438,485.3281 216.8344,485.1094 Q216.225,484.8906 215.6,484.8906 Q214.8344,484.8906 214.2016,485.2188 Q213.5688,485.5469 213.0766,486.2969 Q212.5844,487.0469 212.5844,488.0781 L212.5844,489.1719 Q212.5844,490.4063 213.475,491.2266 Q214.3656,492.0469 215.9594,492.0469 Q216.8969,492.0469 217.5531,491.7969 Q217.9438,491.6406 218.3656,491.2031 Q218.6313,490.9375 218.7797,490.8594 Q218.9281,490.7813 219.1313,490.7813 Q219.4594,490.7813 219.7172,491.0391 Q219.975,491.2969 219.975,491.6406 Q219.975,491.9844 219.6313,492.3906 Q219.1313,492.9688 218.3344,493.2969 Q217.2563,493.75 215.9594,493.75 Q214.4438,493.75 213.2406,493.125 Q212.2563,492.625 211.5688,491.5547 Q210.8813,490.4844 210.8813,489.2031 L210.8813,488.0469 Q210.8813,486.7188 211.4984,485.5703 Q212.1156,484.4219 213.2094,483.8047 Q214.3031,483.1875 215.5375,483.1875 Q216.2719,483.1875 216.9203,483.3516 Q217.5688,483.5156 218.1156,483.875 Z " fill="#000000"/><text fill="#000000" font-family="sans-serif" font-size="12" lengthAdjust="spacing" textLength="84" x="233.65" y="492.9102">CommandDTO</text><line style="stroke:#A80036;stroke-width:1.5;" x1="182" x2="339" y1="504" y2="504"/><ellipse cx="192" cy="515" rx="3" ry="3" style="stroke:#038048;stroke-width:1.0;fill:none;"/><text fill="#000000" font-family="sans-serif" font-size="11" lengthAdjust="spacing" textLength="99" x="201" y="519.4189">Response?: boolean</text><ellipse cx="192" cy="528.8359" rx="3" ry="3" style="stroke:#038048;stroke-width:1.0;fill:none;"/><text fill="#000000" font-family="sans-serif" font-size="11" lengthAdjust="spacing" textLength="133" x="201" y="533.2549">Arguments?: PropertyDTO[]</text><ellipse cx="192" cy="542.6719" rx="3" ry="3" style="stroke:#038048;stroke-width:1.0;fill:none;"/><text fill="#000000" font-family="sans-serif" font-size="11" lengthAdjust="spacing" text-decoration="underline" textLength="60" x="201" y="547.0908">TypeId: Guid</text><line style="stroke:#A80036;stroke-width:1.5;" x1="182" x2="339" y1="553.5078" y2="553.5078"/><!--MD5=[514f3e96a1038b6ef2436fd479da5eac]
class GetAdressBase--><rect codeLine="30" fill="#FEFECE" filter="url(#f2s2omlsx6vu9)" height="131.0156" id="GetAdressBase" style="stroke:#A80036;stroke-width:1.5;" width="205" x="68" y="281"/><ellipse cx="122.75" cy="297" fill="#ADD1B2" rx="11" ry="11" style="stroke:#A80036;stroke-width:1.0;"/><path d="M125.5156,292.875 Q125.6719,292.6563 125.8594,292.5469 Q126.0469,292.4375 126.2656,292.4375 Q126.6406,292.4375 126.875,292.6953 Q127.1094,292.9531 127.1094,293.5625 L127.1094,295.0156 Q127.1094,295.625 126.875,295.8906 Q126.6406,296.1563 126.2656,296.1563 Q125.9219,296.1563 125.7188,295.9531 Q125.5156,295.7656 125.4063,295.25 Q125.3594,294.8906 125.1719,294.7031 Q124.8438,294.3281 124.2344,294.1094 Q123.625,293.8906 123,293.8906 Q122.2344,293.8906 121.6016,294.2188 Q120.9688,294.5469 120.4766,295.2969 Q119.9844,296.0469 119.9844,297.0781 L119.9844,298.1719 Q119.9844,299.4063 120.875,300.2266 Q121.7656,301.0469 123.3594,301.0469 Q124.2969,301.0469 124.9531,300.7969 Q125.3438,300.6406 125.7656,300.2031 Q126.0313,299.9375 126.1797,299.8594 Q126.3281,299.7813 126.5313,299.7813 Q126.8594,299.7813 127.1172,300.0391 Q127.375,300.2969 127.375,300.6406 Q127.375,300.9844 127.0313,301.3906 Q126.5313,301.9688 125.7344,302.2969 Q124.6563,302.75 123.3594,302.75 Q121.8438,302.75 120.6406,302.125 Q119.6563,301.625 118.9688,300.5547 Q118.2813,299.4844 118.2813,298.2031 L118.2813,297.0469 Q118.2813,295.7188 118.8984,294.5703 Q119.5156,293.4219 120.6094,292.8047 Q121.7031,292.1875 122.9375,292.1875 Q123.6719,292.1875 124.3203,292.3516 Q124.9688,292.5156 125.5156,292.875 Z " fill="#000000"/><text fill="#000000" font-family="sans-serif" font-size="12" lengthAdjust="spacing" textLength="87" x="143.25" y="301.9102">GetAdressBase</text><line style="stroke:#A80036;stroke-width:1.5;" x1="69" x2="272" y1="313" y2="313"/><ellipse cx="79" cy="324" rx="3" ry="3" style="stroke:#038048;stroke-width:1.0;fill:none;"/><text fill="#000000" font-family="sans-serif" font-size="11" lengthAdjust="spacing" textLength="36" x="88" y="328.4189">Id: Guid</text><ellipse cx="79" cy="337.8359" rx="3" ry="3" style="stroke:#038048;stroke-width:1.0;fill:none;"/><text fill="#000000" font-family="sans-serif" font-size="11" lengthAdjust="spacing" textLength="36" x="88" y="342.2549">Id: Guid</text><ellipse cx="79" cy="351.6719" rx="3" ry="3" style="stroke:#038048;stroke-width:1.0;fill:none;"/><text fill="#000000" font-family="sans-serif" font-size="11" lengthAdjust="spacing" textLength="54" x="88" y="356.0908">Result: any</text><ellipse cx="79" cy="365.5078" rx="3" ry="3" style="stroke:#038048;stroke-width:1.0;fill:none;"/><text fill="#000000" font-family="sans-serif" font-size="11" lengthAdjust="spacing" text-decoration="underline" textLength="60" x="88" y="369.9268">TypeId: Guid</text><line style="stroke:#A80036;stroke-width:1.5;" x1="69" x2="272" y1="376.3438" y2="376.3438"/><ellipse cx="79" cy="387.3438" fill="#84BE84" rx="3" ry="3" style="stroke:#038048;stroke-width:1.0;"/><text fill="#000000" font-family="sans-serif" font-size="11" lengthAdjust="spacing" textLength="157" x="88" y="391.7627">execute(id: Guid): Promise&lt;any&gt;</text><ellipse cx="79" cy="401.1797" fill="#84BE84" rx="3" ry="3" style="stroke:#038048;stroke-width:1.0;"/><text fill="#000000" font-family="sans-serif" font-size="11" lengthAdjust="spacing" text-decoration="underline" textLength="179" x="88" y="405.5986">IsForMe(dto: CommandDTO): boolean</text><!--MD5=[9714f00bbee80ca7b140c29ae529c8eb]
reverse link BaseDTO to CommandDTO--><path d="M317.95,409.63 C306.82,430.24 294.66,452.75 284.41,471.73 " fill="none" id="BaseDTO-backto-CommandDTO" style="stroke:#A80036;stroke-width:1.0;"/><polygon fill="none" points="311.93,406.04,327.59,391.77,324.25,412.7,311.93,406.04" style="stroke:#A80036;stroke-width:1.0;"/><!--MD5=[0b3f2887546b54e085effb332645c7d1]
reverse link CommandWrapper to GetAdressBase--><path d="M170.5,241.18 C170.5,254.82 170.5,268.25 170.5,280.7 " fill="none" id="CommandWrapper-backto-GetAdressBase" style="stroke:#A80036;stroke-width:1.0;"/><polygon fill="none" points="163.5,241.14,170.5,221.14,177.5,241.14,163.5,241.14" style="stroke:#A80036;stroke-width:1.0;"/><!--MD5=[92fdb8409966ab8b3f648f5668444010]
link CommandDTO to PropertyDTO--><path codeLine="38" d="M260.5,562 C260.5,579.15 260.5,598.87 260.5,616.51 " fill="none" id="CommandDTO-to-PropertyDTO" style="stroke:#A80036;stroke-width:1.0;"/><polygon fill="#A80036" points="260.5,621.91,264.5,612.91,260.5,616.91,256.5,612.91,260.5,621.91" style="stroke:#A80036;stroke-width:1.0;"/><text fill="#000000" font-family="sans-serif" font-size="13" lengthAdjust="spacing" textLength="5" x="255.1016" y="611.0111">*</text><!--MD5=[037609807379b986b2c235f82357b20c]
link GetAdressBase to CommandDTO--><path codeLine="39" d="M205.04,412.16 C214.78,430.4 225.22,449.94 234.38,467.09 " fill="none" id="GetAdressBase-to-CommandDTO" style="stroke:#A80036;stroke-width:1.0;"/><polygon fill="#A80036" points="236.92,471.86,236.2092,462.0368,234.5648,467.4494,229.1522,465.8051,236.92,471.86" style="stroke:#A80036;stroke-width:1.0;"/><text fill="#000000" font-family="sans-serif" font-size="13" lengthAdjust="spacing" textLength="7" x="225.7734" y="461.2827">1</text><!--MD5=[8932da4118f3dc8630a27f2e76987710]
@startuml
class CommandWrapper {
    -_dto: any
    -_service: any
    +Service: any
    +DTO: any
    +Response: boolean
    +Arguments: any[]
    +Type: Guid
    +Id: Guid
    +getArgument(name: string): any
    +setArgument(name: string, value: string): void
    -{static} _factories: any
    +{static} register(typeId: Guid, factory: CommandWrapperFactory): void
}
class PropertyDTO {
    +Name?: string
    +Value?: string
    +{static} TypeId: Guid
}
class BaseDTO {
    +Id?: Guid
    +Type?: Guid
    +{static} TypeId: Guid
}
class CommandDTO extends BaseDTO {
    +Response?: boolean
    +Arguments?: PropertyDTO[]
    +{static} TypeId: Guid
}
class GetAdressBase extends CommandWrapper {
    +Id: Guid
    +Id: Guid
    +Result: any
    +execute(id: Guid): Promise<any>
    +{static} TypeId: Guid
    +{static} IsForMe(dto: CommandDTO): boolean
}
CommandDTO - -> "*" PropertyDTO
GetAdressBase - -> "1" CommandDTO
@enduml

PlantUML version 1.2021.10(Mon Aug 30 15:43:48 CEST 2021)
(GPL source distribution)
Java Runtime: Java(TM) SE Runtime Environment
JVM: Java HotSpot(TM) Client VM
Default Encoding: Cp1252
Language: de
Country: CH
--></g></svg>