<?xml version="1.0" encoding="UTF-8" standalone="no"?><svg xmlns="http://www.w3.org/2000/svg" xmlns:xlink="http://www.w3.org/1999/xlink" contentScriptType="application/ecmascript" contentStyleType="text/css" height="794px" preserveAspectRatio="none" style="width:435px;height:794px;background:#FFFFFF;" version="1.1" viewBox="0 0 435 794" width="435px" zoomAndPan="magnify"><defs><filter height="300%" id="fr0xad8qmk3bs" width="300%" x="-1" y="-1"><feGaussianBlur result="blurOut" stdDeviation="2.0"/><feColorMatrix in="blurOut" result="blurOut2" type="matrix" values="0 0 0 0 0 0 0 0 0 0 0 0 0 0 0 0 0 0 .4 0"/><feOffset dx="4.0" dy="4.0" in="blurOut2" result="blurOut3"/><feBlend in="SourceGraphic" in2="blurOut3" mode="normal"/></filter></defs><g><!--MD5=[6b1d3384926f1bc892ee196bbd0d7fce]
class BaseDTO--><rect codeLine="1" fill="#FEFECE" filter="url(#fr0xad8qmk3bs)" height="89.5078" id="BaseDTO" style="stroke:#A80036;stroke-width:1.5;" width="86" x="26" y="301.5"/><ellipse cx="41" cy="317.5" fill="#ADD1B2" rx="11" ry="11" style="stroke:#A80036;stroke-width:1.0;"/><path d="M43.7656,313.375 Q43.9219,313.1563 44.1094,313.0469 Q44.2969,312.9375 44.5156,312.9375 Q44.8906,312.9375 45.125,313.1953 Q45.3594,313.4531 45.3594,314.0625 L45.3594,315.5156 Q45.3594,316.125 45.125,316.3906 Q44.8906,316.6563 44.5156,316.6563 Q44.1719,316.6563 43.9688,316.4531 Q43.7656,316.2656 43.6563,315.75 Q43.6094,315.3906 43.4219,315.2031 Q43.0938,314.8281 42.4844,314.6094 Q41.875,314.3906 41.25,314.3906 Q40.4844,314.3906 39.8516,314.7188 Q39.2188,315.0469 38.7266,315.7969 Q38.2344,316.5469 38.2344,317.5781 L38.2344,318.6719 Q38.2344,319.9063 39.125,320.7266 Q40.0156,321.5469 41.6094,321.5469 Q42.5469,321.5469 43.2031,321.2969 Q43.5938,321.1406 44.0156,320.7031 Q44.2813,320.4375 44.4297,320.3594 Q44.5781,320.2813 44.7813,320.2813 Q45.1094,320.2813 45.3672,320.5391 Q45.625,320.7969 45.625,321.1406 Q45.625,321.4844 45.2813,321.8906 Q44.7813,322.4688 43.9844,322.7969 Q42.9063,323.25 41.6094,323.25 Q40.0938,323.25 38.8906,322.625 Q37.9063,322.125 37.2188,321.0547 Q36.5313,319.9844 36.5313,318.7031 L36.5313,317.5469 Q36.5313,316.2188 37.1484,315.0703 Q37.7656,313.9219 38.8594,313.3047 Q39.9531,312.6875 41.1875,312.6875 Q41.9219,312.6875 42.5703,312.8516 Q43.2188,313.0156 43.7656,313.375 Z " fill="#000000"/><text fill="#000000" font-family="sans-serif" font-size="12" lengthAdjust="spacing" textLength="54" x="55" y="322.4102">BaseDTO</text><line style="stroke:#A80036;stroke-width:1.5;" x1="27" x2="111" y1="333.5" y2="333.5"/><ellipse cx="37" cy="344.5" rx="3" ry="3" style="stroke:#038048;stroke-width:1.0;fill:none;"/><text fill="#000000" font-family="sans-serif" font-size="11" lengthAdjust="spacing" textLength="42" x="46" y="348.9189">Id?: Guid</text><ellipse cx="37" cy="358.3359" rx="3" ry="3" style="stroke:#038048;stroke-width:1.0;fill:none;"/><text fill="#000000" font-family="sans-serif" font-size="11" lengthAdjust="spacing" textLength="58" x="46" y="362.7549">Type?: Guid</text><ellipse cx="37" cy="372.1719" rx="3" ry="3" style="stroke:#038048;stroke-width:1.0;fill:none;"/><text fill="#000000" font-family="sans-serif" font-size="11" lengthAdjust="spacing" text-decoration="underline" textLength="60" x="46" y="376.5908">TypeId: Guid</text><line style="stroke:#A80036;stroke-width:1.5;" x1="27" x2="111" y1="383.0078" y2="383.0078"/><!--MD5=[a5d4fcdae0bd58dbfa0890c54d6b74e5]
class AdressDTO--><rect codeLine="6" fill="#FEFECE" filter="url(#fr0xad8qmk3bs)" height="158.6875" id="AdressDTO" style="stroke:#A80036;stroke-width:1.5;" width="132" x="7" y="472"/><ellipse cx="38.2" cy="488" fill="#ADD1B2" rx="11" ry="11" style="stroke:#A80036;stroke-width:1.0;"/><path d="M40.9656,483.875 Q41.1219,483.6563 41.3094,483.5469 Q41.4969,483.4375 41.7156,483.4375 Q42.0906,483.4375 42.325,483.6953 Q42.5594,483.9531 42.5594,484.5625 L42.5594,486.0156 Q42.5594,486.625 42.325,486.8906 Q42.0906,487.1563 41.7156,487.1563 Q41.3719,487.1563 41.1688,486.9531 Q40.9656,486.7656 40.8563,486.25 Q40.8094,485.8906 40.6219,485.7031 Q40.2938,485.3281 39.6844,485.1094 Q39.075,484.8906 38.45,484.8906 Q37.6844,484.8906 37.0516,485.2188 Q36.4188,485.5469 35.9266,486.2969 Q35.4344,487.0469 35.4344,488.0781 L35.4344,489.1719 Q35.4344,490.4063 36.325,491.2266 Q37.2156,492.0469 38.8094,492.0469 Q39.7469,492.0469 40.4031,491.7969 Q40.7938,491.6406 41.2156,491.2031 Q41.4813,490.9375 41.6297,490.8594 Q41.7781,490.7813 41.9813,490.7813 Q42.3094,490.7813 42.5672,491.0391 Q42.825,491.2969 42.825,491.6406 Q42.825,491.9844 42.4813,492.3906 Q41.9813,492.9688 41.1844,493.2969 Q40.1063,493.75 38.8094,493.75 Q37.2938,493.75 36.0906,493.125 Q35.1063,492.625 34.4188,491.5547 Q33.7313,490.4844 33.7313,489.2031 L33.7313,488.0469 Q33.7313,486.7188 34.3484,485.5703 Q34.9656,484.4219 36.0594,483.8047 Q37.1531,483.1875 38.3875,483.1875 Q39.1219,483.1875 39.7703,483.3516 Q40.4188,483.5156 40.9656,483.875 Z " fill="#000000"/><text fill="#000000" font-family="sans-serif" font-size="12" lengthAdjust="spacing" textLength="64" x="55.8" y="492.9102">AdressDTO</text><line style="stroke:#A80036;stroke-width:1.5;" x1="8" x2="138" y1="504" y2="504"/><ellipse cx="18" cy="515" rx="3" ry="3" style="stroke:#038048;stroke-width:1.0;fill:none;"/><text fill="#000000" font-family="sans-serif" font-size="11" lengthAdjust="spacing" textLength="72" x="27" y="519.4189">Name1?: string</text><ellipse cx="18" cy="528.8359" rx="3" ry="3" style="stroke:#038048;stroke-width:1.0;fill:none;"/><text fill="#000000" font-family="sans-serif" font-size="11" lengthAdjust="spacing" textLength="72" x="27" y="533.2549">Name2?: string</text><ellipse cx="18" cy="542.6719" rx="3" ry="3" style="stroke:#038048;stroke-width:1.0;fill:none;"/><text fill="#000000" font-family="sans-serif" font-size="11" lengthAdjust="spacing" textLength="81" x="27" y="547.0908">Adress1?: string</text><ellipse cx="18" cy="556.5078" rx="3" ry="3" style="stroke:#038048;stroke-width:1.0;fill:none;"/><text fill="#000000" font-family="sans-serif" font-size="11" lengthAdjust="spacing" textLength="81" x="27" y="560.9268">Adress2?: string</text><ellipse cx="18" cy="570.3438" rx="3" ry="3" style="stroke:#038048;stroke-width:1.0;fill:none;"/><text fill="#000000" font-family="sans-serif" font-size="11" lengthAdjust="spacing" textLength="106" x="27" y="574.7627">Housenumber?: string</text><ellipse cx="18" cy="584.1797" rx="3" ry="3" style="stroke:#038048;stroke-width:1.0;fill:none;"/><text fill="#000000" font-family="sans-serif" font-size="11" lengthAdjust="spacing" textLength="57" x="27" y="588.5986">City?: string</text><ellipse cx="18" cy="598.0156" rx="3" ry="3" style="stroke:#038048;stroke-width:1.0;fill:none;"/><text fill="#000000" font-family="sans-serif" font-size="11" lengthAdjust="spacing" textLength="84" x="27" y="602.4346">Postcode?: string</text><ellipse cx="18" cy="611.8516" rx="3" ry="3" style="stroke:#038048;stroke-width:1.0;fill:none;"/><text fill="#000000" font-family="sans-serif" font-size="11" lengthAdjust="spacing" text-decoration="underline" textLength="60" x="27" y="616.2705">TypeId: Guid</text><line style="stroke:#A80036;stroke-width:1.5;" x1="8" x2="138" y1="622.6875" y2="622.6875"/><!--MD5=[fe6b2754769bc87cf156126798433078]
class CommandWrapper--><rect codeLine="16" fill="#FEFECE" filter="url(#fr0xad8qmk3bs)" height="214.0313" id="CommandWrapper" style="stroke:#A80036;stroke-width:1.5;" width="327" x="94.5" y="7"/><ellipse cx="200.75" cy="23" fill="#ADD1B2" rx="11" ry="11" style="stroke:#A80036;stroke-width:1.0;"/><path d="M203.5156,18.875 Q203.6719,18.6563 203.8594,18.5469 Q204.0469,18.4375 204.2656,18.4375 Q204.6406,18.4375 204.875,18.6953 Q205.1094,18.9531 205.1094,19.5625 L205.1094,21.0156 Q205.1094,21.625 204.875,21.8906 Q204.6406,22.1563 204.2656,22.1563 Q203.9219,22.1563 203.7188,21.9531 Q203.5156,21.7656 203.4063,21.25 Q203.3594,20.8906 203.1719,20.7031 Q202.8438,20.3281 202.2344,20.1094 Q201.625,19.8906 201,19.8906 Q200.2344,19.8906 199.6016,20.2188 Q198.9688,20.5469 198.4766,21.2969 Q197.9844,22.0469 197.9844,23.0781 L197.9844,24.1719 Q197.9844,25.4063 198.875,26.2266 Q199.7656,27.0469 201.3594,27.0469 Q202.2969,27.0469 202.9531,26.7969 Q203.3438,26.6406 203.7656,26.2031 Q204.0313,25.9375 204.1797,25.8594 Q204.3281,25.7813 204.5313,25.7813 Q204.8594,25.7813 205.1172,26.0391 Q205.375,26.2969 205.375,26.6406 Q205.375,26.9844 205.0313,27.3906 Q204.5313,27.9688 203.7344,28.2969 Q202.6563,28.75 201.3594,28.75 Q199.8438,28.75 198.6406,28.125 Q197.6563,27.625 196.9688,26.5547 Q196.2813,25.4844 196.2813,24.2031 L196.2813,23.0469 Q196.2813,21.7188 196.8984,20.5703 Q197.5156,19.4219 198.6094,18.8047 Q199.7031,18.1875 200.9375,18.1875 Q201.6719,18.1875 202.3203,18.3516 Q202.9688,18.5156 203.5156,18.875 Z " fill="#000000"/><text fill="#000000" font-family="sans-serif" font-size="12" lengthAdjust="spacing" textLength="106" x="221.25" y="27.9102">CommandWrapper</text><line style="stroke:#A80036;stroke-width:1.5;" x1="95.5" x2="420.5" y1="39" y2="39"/><rect fill="none" height="6" style="stroke:#C82930;stroke-width:1.0;" width="6" x="102.5" y="47"/><text fill="#000000" font-family="sans-serif" font-size="11" lengthAdjust="spacing" textLength="45" x="114.5" y="54.4189">_dto: any</text><rect fill="none" height="6" style="stroke:#C82930;stroke-width:1.0;" width="6" x="102.5" y="60.8359"/><text fill="#000000" font-family="sans-serif" font-size="11" lengthAdjust="spacing" textLength="66" x="114.5" y="68.2549">_service: any</text><ellipse cx="105.5" cy="77.6719" rx="3" ry="3" style="stroke:#038048;stroke-width:1.0;fill:none;"/><text fill="#000000" font-family="sans-serif" font-size="11" lengthAdjust="spacing" textLength="61" x="114.5" y="82.0908">Service: any</text><ellipse cx="105.5" cy="91.5078" rx="3" ry="3" style="stroke:#038048;stroke-width:1.0;fill:none;"/><text fill="#000000" font-family="sans-serif" font-size="11" lengthAdjust="spacing" textLength="45" x="114.5" y="95.9268">DTO: any</text><ellipse cx="105.5" cy="105.3438" rx="3" ry="3" style="stroke:#038048;stroke-width:1.0;fill:none;"/><text fill="#000000" font-family="sans-serif" font-size="11" lengthAdjust="spacing" textLength="93" x="114.5" y="109.7627">Response: boolean</text><ellipse cx="105.5" cy="119.1797" rx="3" ry="3" style="stroke:#038048;stroke-width:1.0;fill:none;"/><text fill="#000000" font-family="sans-serif" font-size="11" lengthAdjust="spacing" textLength="83" x="114.5" y="123.5986">Arguments: any[]</text><ellipse cx="105.5" cy="133.0156" rx="3" ry="3" style="stroke:#038048;stroke-width:1.0;fill:none;"/><text fill="#000000" font-family="sans-serif" font-size="11" lengthAdjust="spacing" textLength="52" x="114.5" y="137.4346">Type: Guid</text><ellipse cx="105.5" cy="146.8516" rx="3" ry="3" style="stroke:#038048;stroke-width:1.0;fill:none;"/><text fill="#000000" font-family="sans-serif" font-size="11" lengthAdjust="spacing" textLength="36" x="114.5" y="151.2705">Id: Guid</text><rect fill="none" height="6" style="stroke:#C82930;stroke-width:1.0;" width="6" x="102.5" y="157.6875"/><text fill="#000000" font-family="sans-serif" font-size="11" lengthAdjust="spacing" text-decoration="underline" textLength="73" x="114.5" y="165.1064">_factories: any</text><line style="stroke:#A80036;stroke-width:1.5;" x1="95.5" x2="420.5" y1="171.5234" y2="171.5234"/><ellipse cx="105.5" cy="182.5234" fill="#84BE84" rx="3" ry="3" style="stroke:#038048;stroke-width:1.0;"/><text fill="#000000" font-family="sans-serif" font-size="11" lengthAdjust="spacing" textLength="153" x="114.5" y="186.9424">getArgument(name: string): any</text><ellipse cx="105.5" cy="196.3594" fill="#84BE84" rx="3" ry="3" style="stroke:#038048;stroke-width:1.0;"/><text fill="#000000" font-family="sans-serif" font-size="11" lengthAdjust="spacing" textLength="220" x="114.5" y="200.7783">setArgument(name: string, value: string): void</text><ellipse cx="105.5" cy="210.1953" fill="#84BE84" rx="3" ry="3" style="stroke:#038048;stroke-width:1.0;"/><text fill="#000000" font-family="sans-serif" font-size="11" lengthAdjust="spacing" text-decoration="underline" textLength="301" x="114.5" y="214.6143">register(typeId: Guid, factory: CommandWrapperFactory): void</text><!--MD5=[a8c0967d7b66f43265179b07355379df]
class PropertyDTO--><rect codeLine="30" fill="#FEFECE" filter="url(#fr0xad8qmk3bs)" height="89.5078" id="PropertyDTO" style="stroke:#A80036;stroke-width:1.5;" width="102" x="205" y="691"/><ellipse cx="220" cy="707" fill="#ADD1B2" rx="11" ry="11" style="stroke:#A80036;stroke-width:1.0;"/><path d="M222.7656,702.875 Q222.9219,702.6563 223.1094,702.5469 Q223.2969,702.4375 223.5156,702.4375 Q223.8906,702.4375 224.125,702.6953 Q224.3594,702.9531 224.3594,703.5625 L224.3594,705.0156 Q224.3594,705.625 224.125,705.8906 Q223.8906,706.1563 223.5156,706.1563 Q223.1719,706.1563 222.9688,705.9531 Q222.7656,705.7656 222.6563,705.25 Q222.6094,704.8906 222.4219,704.7031 Q222.0938,704.3281 221.4844,704.1094 Q220.875,703.8906 220.25,703.8906 Q219.4844,703.8906 218.8516,704.2188 Q218.2188,704.5469 217.7266,705.2969 Q217.2344,706.0469 217.2344,707.0781 L217.2344,708.1719 Q217.2344,709.4063 218.125,710.2266 Q219.0156,711.0469 220.6094,711.0469 Q221.5469,711.0469 222.2031,710.7969 Q222.5938,710.6406 223.0156,710.2031 Q223.2813,709.9375 223.4297,709.8594 Q223.5781,709.7813 223.7813,709.7813 Q224.1094,709.7813 224.3672,710.0391 Q224.625,710.2969 224.625,710.6406 Q224.625,710.9844 224.2813,711.3906 Q223.7813,711.9688 222.9844,712.2969 Q221.9063,712.75 220.6094,712.75 Q219.0938,712.75 217.8906,712.125 Q216.9063,711.625 216.2188,710.5547 Q215.5313,709.4844 215.5313,708.2031 L215.5313,707.0469 Q215.5313,705.7188 216.1484,704.5703 Q216.7656,703.4219 217.8594,702.8047 Q218.9531,702.1875 220.1875,702.1875 Q220.9219,702.1875 221.5703,702.3516 Q222.2188,702.5156 222.7656,702.875 Z " fill="#000000"/><text fill="#000000" font-family="sans-serif" font-size="12" lengthAdjust="spacing" textLength="70" x="234" y="711.9102">PropertyDTO</text><line style="stroke:#A80036;stroke-width:1.5;" x1="206" x2="306" y1="723" y2="723"/><ellipse cx="216" cy="734" rx="3" ry="3" style="stroke:#038048;stroke-width:1.0;fill:none;"/><text fill="#000000" font-family="sans-serif" font-size="11" lengthAdjust="spacing" textLength="66" x="225" y="738.4189">Name?: string</text><ellipse cx="216" cy="747.8359" rx="3" ry="3" style="stroke:#038048;stroke-width:1.0;fill:none;"/><text fill="#000000" font-family="sans-serif" font-size="11" lengthAdjust="spacing" textLength="67" x="225" y="752.2549">Value?: string</text><ellipse cx="216" cy="761.6719" rx="3" ry="3" style="stroke:#038048;stroke-width:1.0;fill:none;"/><text fill="#000000" font-family="sans-serif" font-size="11" lengthAdjust="spacing" text-decoration="underline" textLength="60" x="225" y="766.0908">TypeId: Guid</text><line style="stroke:#A80036;stroke-width:1.5;" x1="206" x2="306" y1="772.5078" y2="772.5078"/><!--MD5=[f5d54f60ec6d089d1cb017027d5a65a8]
class CommandDTO--><rect codeLine="35" fill="#FEFECE" filter="url(#fr0xad8qmk3bs)" height="89.5078" id="CommandDTO" style="stroke:#A80036;stroke-width:1.5;" width="159" x="176.5" y="506.5"/><ellipse cx="210.85" cy="522.5" fill="#ADD1B2" rx="11" ry="11" style="stroke:#A80036;stroke-width:1.0;"/><path d="M213.6156,518.375 Q213.7719,518.1563 213.9594,518.0469 Q214.1469,517.9375 214.3656,517.9375 Q214.7406,517.9375 214.975,518.1953 Q215.2094,518.4531 215.2094,519.0625 L215.2094,520.5156 Q215.2094,521.125 214.975,521.3906 Q214.7406,521.6563 214.3656,521.6563 Q214.0219,521.6563 213.8188,521.4531 Q213.6156,521.2656 213.5063,520.75 Q213.4594,520.3906 213.2719,520.2031 Q212.9438,519.8281 212.3344,519.6094 Q211.725,519.3906 211.1,519.3906 Q210.3344,519.3906 209.7016,519.7188 Q209.0688,520.0469 208.5766,520.7969 Q208.0844,521.5469 208.0844,522.5781 L208.0844,523.6719 Q208.0844,524.9063 208.975,525.7266 Q209.8656,526.5469 211.4594,526.5469 Q212.3969,526.5469 213.0531,526.2969 Q213.4438,526.1406 213.8656,525.7031 Q214.1313,525.4375 214.2797,525.3594 Q214.4281,525.2813 214.6313,525.2813 Q214.9594,525.2813 215.2172,525.5391 Q215.475,525.7969 215.475,526.1406 Q215.475,526.4844 215.1313,526.8906 Q214.6313,527.4688 213.8344,527.7969 Q212.7563,528.25 211.4594,528.25 Q209.9438,528.25 208.7406,527.625 Q207.7563,527.125 207.0688,526.0547 Q206.3813,524.9844 206.3813,523.7031 L206.3813,522.5469 Q206.3813,521.2188 206.9984,520.0703 Q207.6156,518.9219 208.7094,518.3047 Q209.8031,517.6875 211.0375,517.6875 Q211.7719,517.6875 212.4203,517.8516 Q213.0688,518.0156 213.6156,518.375 Z " fill="#000000"/><text fill="#000000" font-family="sans-serif" font-size="12" lengthAdjust="spacing" textLength="84" x="229.15" y="527.4102">CommandDTO</text><line style="stroke:#A80036;stroke-width:1.5;" x1="177.5" x2="334.5" y1="538.5" y2="538.5"/><ellipse cx="187.5" cy="549.5" rx="3" ry="3" style="stroke:#038048;stroke-width:1.0;fill:none;"/><text fill="#000000" font-family="sans-serif" font-size="11" lengthAdjust="spacing" textLength="99" x="196.5" y="553.9189">Response?: boolean</text><ellipse cx="187.5" cy="563.3359" rx="3" ry="3" style="stroke:#038048;stroke-width:1.0;fill:none;"/><text fill="#000000" font-family="sans-serif" font-size="11" lengthAdjust="spacing" textLength="133" x="196.5" y="567.7549">Arguments?: PropertyDTO[]</text><ellipse cx="187.5" cy="577.1719" rx="3" ry="3" style="stroke:#038048;stroke-width:1.0;fill:none;"/><text fill="#000000" font-family="sans-serif" font-size="11" lengthAdjust="spacing" text-decoration="underline" textLength="60" x="196.5" y="581.5908">TypeId: Guid</text><line style="stroke:#A80036;stroke-width:1.5;" x1="177.5" x2="334.5" y1="588.0078" y2="588.0078"/><!--MD5=[514f3e96a1038b6ef2436fd479da5eac]
class GetAdressBase--><rect codeLine="40" fill="#FEFECE" filter="url(#fr0xad8qmk3bs)" height="131.0156" id="GetAdressBase" style="stroke:#A80036;stroke-width:1.5;" width="222" x="147" y="281"/><ellipse cx="210.25" cy="297" fill="#ADD1B2" rx="11" ry="11" style="stroke:#A80036;stroke-width:1.0;"/><path d="M213.0156,292.875 Q213.1719,292.6563 213.3594,292.5469 Q213.5469,292.4375 213.7656,292.4375 Q214.1406,292.4375 214.375,292.6953 Q214.6094,292.9531 214.6094,293.5625 L214.6094,295.0156 Q214.6094,295.625 214.375,295.8906 Q214.1406,296.1563 213.7656,296.1563 Q213.4219,296.1563 213.2188,295.9531 Q213.0156,295.7656 212.9063,295.25 Q212.8594,294.8906 212.6719,294.7031 Q212.3438,294.3281 211.7344,294.1094 Q211.125,293.8906 210.5,293.8906 Q209.7344,293.8906 209.1016,294.2188 Q208.4688,294.5469 207.9766,295.2969 Q207.4844,296.0469 207.4844,297.0781 L207.4844,298.1719 Q207.4844,299.4063 208.375,300.2266 Q209.2656,301.0469 210.8594,301.0469 Q211.7969,301.0469 212.4531,300.7969 Q212.8438,300.6406 213.2656,300.2031 Q213.5313,299.9375 213.6797,299.8594 Q213.8281,299.7813 214.0313,299.7813 Q214.3594,299.7813 214.6172,300.0391 Q214.875,300.2969 214.875,300.6406 Q214.875,300.9844 214.5313,301.3906 Q214.0313,301.9688 213.2344,302.2969 Q212.1563,302.75 210.8594,302.75 Q209.3438,302.75 208.1406,302.125 Q207.1563,301.625 206.4688,300.5547 Q205.7813,299.4844 205.7813,298.2031 L205.7813,297.0469 Q205.7813,295.7188 206.3984,294.5703 Q207.0156,293.4219 208.1094,292.8047 Q209.2031,292.1875 210.4375,292.1875 Q211.1719,292.1875 211.8203,292.3516 Q212.4688,292.5156 213.0156,292.875 Z " fill="#000000"/><text fill="#000000" font-family="sans-serif" font-size="12" lengthAdjust="spacing" textLength="87" x="230.75" y="301.9102">GetAdressBase</text><line style="stroke:#A80036;stroke-width:1.5;" x1="148" x2="368" y1="313" y2="313"/><ellipse cx="158" cy="324" rx="3" ry="3" style="stroke:#038048;stroke-width:1.0;fill:none;"/><text fill="#000000" font-family="sans-serif" font-size="11" lengthAdjust="spacing" textLength="36" x="167" y="328.4189">Id: Guid</text><ellipse cx="158" cy="337.8359" rx="3" ry="3" style="stroke:#038048;stroke-width:1.0;fill:none;"/><text fill="#000000" font-family="sans-serif" font-size="11" lengthAdjust="spacing" textLength="36" x="167" y="342.2549">Id: Guid</text><ellipse cx="158" cy="351.6719" rx="3" ry="3" style="stroke:#038048;stroke-width:1.0;fill:none;"/><text fill="#000000" font-family="sans-serif" font-size="11" lengthAdjust="spacing" textLength="93" x="167" y="356.0908">Result: AdressDTO</text><ellipse cx="158" cy="365.5078" rx="3" ry="3" style="stroke:#038048;stroke-width:1.0;fill:none;"/><text fill="#000000" font-family="sans-serif" font-size="11" lengthAdjust="spacing" text-decoration="underline" textLength="60" x="167" y="369.9268">TypeId: Guid</text><line style="stroke:#A80036;stroke-width:1.5;" x1="148" x2="368" y1="376.3438" y2="376.3438"/><ellipse cx="158" cy="387.3438" fill="#84BE84" rx="3" ry="3" style="stroke:#038048;stroke-width:1.0;"/><text fill="#000000" font-family="sans-serif" font-size="11" lengthAdjust="spacing" textLength="196" x="167" y="391.7627">execute(id: Guid): Promise&lt;AdressDTO&gt;</text><ellipse cx="158" cy="401.1797" fill="#84BE84" rx="3" ry="3" style="stroke:#038048;stroke-width:1.0;"/><text fill="#000000" font-family="sans-serif" font-size="11" lengthAdjust="spacing" text-decoration="underline" textLength="179" x="167" y="405.5986">IsForMe(dto: CommandDTO): boolean</text><!--MD5=[78563b2dced031dcc99154e54e28d438]
reverse link BaseDTO to AdressDTO--><path d="M70.26,411.66 C70.64,430.74 71.06,451.86 71.45,471.75 " fill="none" id="BaseDTO-backto-AdressDTO" style="stroke:#A80036;stroke-width:1.0;"/><polygon fill="none" points="63.26,411.68,69.87,391.55,77.26,411.41,63.26,411.68" style="stroke:#A80036;stroke-width:1.0;"/><!--MD5=[9714f00bbee80ca7b140c29ae529c8eb]
reverse link BaseDTO to CommandDTO--><path d="M123.4,406.55 C152.7,438.37 188.27,476.97 215.18,506.19 " fill="none" id="BaseDTO-backto-CommandDTO" style="stroke:#A80036;stroke-width:1.0;"/><polygon fill="none" points="117.98,411,109.58,391.55,128.28,401.52,117.98,411" style="stroke:#A80036;stroke-width:1.0;"/><!--MD5=[0b3f2887546b54e085effb332645c7d1]
reverse link CommandWrapper to GetAdressBase--><path d="M258,241.18 C258,254.82 258,268.25 258,280.7 " fill="none" id="CommandWrapper-backto-GetAdressBase" style="stroke:#A80036;stroke-width:1.0;"/><polygon fill="none" points="251,241.14,258,221.14,265,241.14,251,241.14" style="stroke:#A80036;stroke-width:1.0;"/><!--MD5=[92fdb8409966ab8b3f648f5668444010]
link CommandDTO to PropertyDTO--><path codeLine="48" d="M256,596.68 C256,623.59 256,658.03 256,685.81 " fill="none" id="CommandDTO-to-PropertyDTO" style="stroke:#A80036;stroke-width:1.0;"/><polygon fill="#A80036" points="256,690.91,260,681.91,256,685.91,252,681.91,256,690.91" style="stroke:#A80036;stroke-width:1.0;"/><text fill="#000000" font-family="sans-serif" font-size="13" lengthAdjust="spacing" textLength="5" x="250.6016" y="680.0111">*</text><!--MD5=[67d452a0400317eae2baff168ecb372e]
link GetAdressBase to AdressDTO--><path codeLine="49" d="M199.21,412.01 C181.18,431.79 161.18,453.75 142.5,474.23 " fill="none" id="GetAdressBase-to-AdressDTO" style="stroke:#A80036;stroke-width:1.0;"/><polygon fill="#A80036" points="139.03,478.04,148.056,474.099,142.4047,474.3507,142.1531,468.6994,139.03,478.04" style="stroke:#A80036;stroke-width:1.0;"/><text fill="#000000" font-family="sans-serif" font-size="13" lengthAdjust="spacing" textLength="7" x="147.0694" y="466.1547">1</text><!--MD5=[037609807379b986b2c235f82357b20c]
link GetAdressBase to CommandDTO--><path codeLine="50" d="M257.36,412.01 C257.08,440.85 256.75,474.31 256.49,501.12 " fill="none" id="GetAdressBase-to-CommandDTO" style="stroke:#A80036;stroke-width:1.0;"/><polygon fill="#A80036" points="256.43,506.39,260.507,497.4246,256.4729,501.3902,252.5073,497.356,256.43,506.39" style="stroke:#A80036;stroke-width:1.0;"/><text fill="#000000" font-family="sans-serif" font-size="13" lengthAdjust="spacing" textLength="7" x="248.9407" y="495.4879">1</text><!--MD5=[a9d96a0e2a9ba308c7aa3bb5e0400621]
@startuml
class BaseDTO {
    +Id?: Guid
    +Type?: Guid
    +{static} TypeId: Guid
}
class AdressDTO extends BaseDTO {
    +Name1?: string
    +Name2?: string
    +Adress1?: string
    +Adress2?: string
    +Housenumber?: string
    +City?: string
    +Postcode?: string
    +{static} TypeId: Guid
}
class CommandWrapper {
    -_dto: any
    -_service: any
    +Service: any
    +DTO: any
    +Response: boolean
    +Arguments: any[]
    +Type: Guid
    +Id: Guid
    +getArgument(name: string): any
    +setArgument(name: string, value: string): void
    -{static} _factories: any
    +{static} register(typeId: Guid, factory: CommandWrapperFactory): void
}
class PropertyDTO {
    +Name?: string
    +Value?: string
    +{static} TypeId: Guid
}
class CommandDTO extends BaseDTO {
    +Response?: boolean
    +Arguments?: PropertyDTO[]
    +{static} TypeId: Guid
}
class GetAdressBase extends CommandWrapper {
    +Id: Guid
    +Id: Guid
    +Result: AdressDTO
    +execute(id: Guid): Promise<AdressDTO>
    +{static} TypeId: Guid
    +{static} IsForMe(dto: CommandDTO): boolean
}
CommandDTO - -> "*" PropertyDTO
GetAdressBase - -> "1" AdressDTO
GetAdressBase - -> "1" CommandDTO
@enduml

PlantUML version 1.2021.10(Mon Aug 30 15:43:48 CEST 2021)
(GPL source distribution)
Java Runtime: Java(TM) SE Runtime Environment
JVM: Java HotSpot(TM) Client VM
Default Encoding: Cp1252
Language: de
Country: CH
--></g></svg>