<?xml version="1.0" encoding="UTF-8" standalone="no"?><svg xmlns="http://www.w3.org/2000/svg" xmlns:xlink="http://www.w3.org/1999/xlink" contentScriptType="application/ecmascript" contentStyleType="text/css" height="711px" preserveAspectRatio="none" style="width:532px;height:711px;background:#FFFFFF;" version="1.1" viewBox="0 0 532 711" width="532px" zoomAndPan="magnify"><defs><filter height="300%" id="fojk6iv4cc261" width="300%" x="-1" y="-1"><feGaussianBlur result="blurOut" stdDeviation="2.0"/><feColorMatrix in="blurOut" result="blurOut2" type="matrix" values="0 0 0 0 0 0 0 0 0 0 0 0 0 0 0 0 0 0 .4 0"/><feOffset dx="4.0" dy="4.0" in="blurOut2" result="blurOut3"/><feBlend in="SourceGraphic" in2="blurOut3" mode="normal"/></filter></defs><g><!--MD5=[c16293fdc2a349471a916198a6de1464]
class ParamDTO--><rect codeLine="1" fill="#FEFECE" filter="url(#fojk6iv4cc261)" height="89.5078" id="ParamDTO" style="stroke:#A80036;stroke-width:1.5;" width="94" x="175.5" y="608"/><ellipse cx="190.5" cy="624" fill="#ADD1B2" rx="11" ry="11" style="stroke:#A80036;stroke-width:1.0;"/><path d="M193.2656,619.875 Q193.4219,619.6563 193.6094,619.5469 Q193.7969,619.4375 194.0156,619.4375 Q194.3906,619.4375 194.625,619.6953 Q194.8594,619.9531 194.8594,620.5625 L194.8594,622.0156 Q194.8594,622.625 194.625,622.8906 Q194.3906,623.1563 194.0156,623.1563 Q193.6719,623.1563 193.4688,622.9531 Q193.2656,622.7656 193.1563,622.25 Q193.1094,621.8906 192.9219,621.7031 Q192.5938,621.3281 191.9844,621.1094 Q191.375,620.8906 190.75,620.8906 Q189.9844,620.8906 189.3516,621.2188 Q188.7188,621.5469 188.2266,622.2969 Q187.7344,623.0469 187.7344,624.0781 L187.7344,625.1719 Q187.7344,626.4063 188.625,627.2266 Q189.5156,628.0469 191.1094,628.0469 Q192.0469,628.0469 192.7031,627.7969 Q193.0938,627.6406 193.5156,627.2031 Q193.7813,626.9375 193.9297,626.8594 Q194.0781,626.7813 194.2813,626.7813 Q194.6094,626.7813 194.8672,627.0391 Q195.125,627.2969 195.125,627.6406 Q195.125,627.9844 194.7813,628.3906 Q194.2813,628.9688 193.4844,629.2969 Q192.4063,629.75 191.1094,629.75 Q189.5938,629.75 188.3906,629.125 Q187.4063,628.625 186.7188,627.5547 Q186.0313,626.4844 186.0313,625.2031 L186.0313,624.0469 Q186.0313,622.7188 186.6484,621.5703 Q187.2656,620.4219 188.3594,619.8047 Q189.4531,619.1875 190.6875,619.1875 Q191.4219,619.1875 192.0703,619.3516 Q192.7188,619.5156 193.2656,619.875 Z " fill="#000000"/><text fill="#000000" font-family="sans-serif" font-size="12" lengthAdjust="spacing" textLength="62" x="204.5" y="628.9102">ParamDTO</text><line style="stroke:#A80036;stroke-width:1.5;" x1="176.5" x2="268.5" y1="640" y2="640"/><ellipse cx="186.5" cy="651" rx="3" ry="3" style="stroke:#038048;stroke-width:1.0;fill:none;"/><text fill="#000000" font-family="sans-serif" font-size="11" lengthAdjust="spacing" textLength="66" x="195.5" y="655.4189">Name?: string</text><ellipse cx="186.5" cy="664.8359" rx="3" ry="3" style="stroke:#038048;stroke-width:1.0;fill:none;"/><text fill="#000000" font-family="sans-serif" font-size="11" lengthAdjust="spacing" textLength="63" x="195.5" y="669.2549">Type?: string</text><ellipse cx="186.5" cy="678.6719" rx="3" ry="3" style="stroke:#038048;stroke-width:1.0;fill:none;"/><text fill="#000000" font-family="sans-serif" font-size="11" lengthAdjust="spacing" text-decoration="underline" textLength="60" x="195.5" y="683.0908">TypeId: Guid</text><line style="stroke:#A80036;stroke-width:1.5;" x1="176.5" x2="268.5" y1="689.5078" y2="689.5078"/><!--MD5=[6b1d3384926f1bc892ee196bbd0d7fce]
class BaseDTO--><rect codeLine="6" fill="#FEFECE" filter="url(#fojk6iv4cc261)" height="89.5078" id="BaseDTO" style="stroke:#A80036;stroke-width:1.5;" width="89" x="394" y="76"/><ellipse cx="410.35" cy="92" fill="#ADD1B2" rx="11" ry="11" style="stroke:#A80036;stroke-width:1.0;"/><path d="M413.1156,87.875 Q413.2719,87.6563 413.4594,87.5469 Q413.6469,87.4375 413.8656,87.4375 Q414.2406,87.4375 414.475,87.6953 Q414.7094,87.9531 414.7094,88.5625 L414.7094,90.0156 Q414.7094,90.625 414.475,90.8906 Q414.2406,91.1563 413.8656,91.1563 Q413.5219,91.1563 413.3188,90.9531 Q413.1156,90.7656 413.0063,90.25 Q412.9594,89.8906 412.7719,89.7031 Q412.4438,89.3281 411.8344,89.1094 Q411.225,88.8906 410.6,88.8906 Q409.8344,88.8906 409.2016,89.2188 Q408.5688,89.5469 408.0766,90.2969 Q407.5844,91.0469 407.5844,92.0781 L407.5844,93.1719 Q407.5844,94.4063 408.475,95.2266 Q409.3656,96.0469 410.9594,96.0469 Q411.8969,96.0469 412.5531,95.7969 Q412.9438,95.6406 413.3656,95.2031 Q413.6313,94.9375 413.7797,94.8594 Q413.9281,94.7813 414.1313,94.7813 Q414.4594,94.7813 414.7172,95.0391 Q414.975,95.2969 414.975,95.6406 Q414.975,95.9844 414.6313,96.3906 Q414.1313,96.9688 413.3344,97.2969 Q412.2563,97.75 410.9594,97.75 Q409.4438,97.75 408.2406,97.125 Q407.2563,96.625 406.5688,95.5547 Q405.8813,94.4844 405.8813,93.2031 L405.8813,92.0469 Q405.8813,90.7188 406.4984,89.5703 Q407.1156,88.4219 408.2094,87.8047 Q409.3031,87.1875 410.5375,87.1875 Q411.2719,87.1875 411.9203,87.3516 Q412.5688,87.5156 413.1156,87.875 Z " fill="#000000"/><text fill="#000000" font-family="sans-serif" font-size="12" lengthAdjust="spacing" textLength="54" x="424.65" y="96.9102">BaseDTO</text><line style="stroke:#A80036;stroke-width:1.5;" x1="395" x2="482" y1="108" y2="108"/><ellipse cx="405" cy="119" rx="3" ry="3" style="stroke:#038048;stroke-width:1.0;fill:none;"/><text fill="#000000" font-family="sans-serif" font-size="11" lengthAdjust="spacing" textLength="47" x="414" y="123.4189">Id?: string</text><ellipse cx="405" cy="132.8359" rx="3" ry="3" style="stroke:#038048;stroke-width:1.0;fill:none;"/><text fill="#000000" font-family="sans-serif" font-size="11" lengthAdjust="spacing" textLength="63" x="414" y="137.2549">Type?: string</text><ellipse cx="405" cy="146.6719" rx="3" ry="3" style="stroke:#038048;stroke-width:1.0;fill:none;"/><text fill="#000000" font-family="sans-serif" font-size="11" lengthAdjust="spacing" text-decoration="underline" textLength="60" x="414" y="151.0908">TypeId: Guid</text><line style="stroke:#A80036;stroke-width:1.5;" x1="395" x2="482" y1="157.5078" y2="157.5078"/><!--MD5=[ab65f1b894babecd782f1df810423109]
class TypeDTO--><rect codeLine="11" fill="#FEFECE" filter="url(#fojk6iv4cc261)" height="75.6719" id="TypeDTO" style="stroke:#A80036;stroke-width:1.5;" width="92" x="319.5" y="308.5"/><ellipse cx="338.55" cy="324.5" fill="#ADD1B2" rx="11" ry="11" style="stroke:#A80036;stroke-width:1.0;"/><path d="M341.3156,320.375 Q341.4719,320.1563 341.6594,320.0469 Q341.8469,319.9375 342.0656,319.9375 Q342.4406,319.9375 342.675,320.1953 Q342.9094,320.4531 342.9094,321.0625 L342.9094,322.5156 Q342.9094,323.125 342.675,323.3906 Q342.4406,323.6563 342.0656,323.6563 Q341.7219,323.6563 341.5188,323.4531 Q341.3156,323.2656 341.2063,322.75 Q341.1594,322.3906 340.9719,322.2031 Q340.6438,321.8281 340.0344,321.6094 Q339.425,321.3906 338.8,321.3906 Q338.0344,321.3906 337.4016,321.7188 Q336.7688,322.0469 336.2766,322.7969 Q335.7844,323.5469 335.7844,324.5781 L335.7844,325.6719 Q335.7844,326.9063 336.675,327.7266 Q337.5656,328.5469 339.1594,328.5469 Q340.0969,328.5469 340.7531,328.2969 Q341.1438,328.1406 341.5656,327.7031 Q341.8313,327.4375 341.9797,327.3594 Q342.1281,327.2813 342.3313,327.2813 Q342.6594,327.2813 342.9172,327.5391 Q343.175,327.7969 343.175,328.1406 Q343.175,328.4844 342.8313,328.8906 Q342.3313,329.4688 341.5344,329.7969 Q340.4563,330.25 339.1594,330.25 Q337.6438,330.25 336.4406,329.625 Q335.4563,329.125 334.7688,328.0547 Q334.0813,326.9844 334.0813,325.7031 L334.0813,324.5469 Q334.0813,323.2188 334.6984,322.0703 Q335.3156,320.9219 336.4094,320.3047 Q337.5031,319.6875 338.7375,319.6875 Q339.4719,319.6875 340.1203,319.8516 Q340.7688,320.0156 341.3156,320.375 Z " fill="#000000"/><text fill="#000000" font-family="sans-serif" font-size="12" lengthAdjust="spacing" textLength="51" x="353.45" y="329.4102">TypeDTO</text><line style="stroke:#A80036;stroke-width:1.5;" x1="320.5" x2="410.5" y1="340.5" y2="340.5"/><ellipse cx="330.5" cy="351.5" rx="3" ry="3" style="stroke:#038048;stroke-width:1.0;fill:none;"/><text fill="#000000" font-family="sans-serif" font-size="11" lengthAdjust="spacing" textLength="66" x="339.5" y="355.9189">Name?: string</text><ellipse cx="330.5" cy="365.3359" rx="3" ry="3" style="stroke:#038048;stroke-width:1.0;fill:none;"/><text fill="#000000" font-family="sans-serif" font-size="11" lengthAdjust="spacing" text-decoration="underline" textLength="60" x="339.5" y="369.7549">TypeId: Guid</text><line style="stroke:#A80036;stroke-width:1.5;" x1="320.5" x2="410.5" y1="376.1719" y2="376.1719"/><!--MD5=[4c1731f98dfecb78a08a63fd20d14398]
class CommandTypeDTO--><rect codeLine="15" fill="#FEFECE" filter="url(#fojk6iv4cc261)" height="89.5078" id="CommandTypeDTO" style="stroke:#A80036;stroke-width:1.5;" width="150" x="147.5" y="458"/><ellipse cx="166.1" cy="474" fill="#ADD1B2" rx="11" ry="11" style="stroke:#A80036;stroke-width:1.0;"/><path d="M168.8656,469.875 Q169.0219,469.6563 169.2094,469.5469 Q169.3969,469.4375 169.6156,469.4375 Q169.9906,469.4375 170.225,469.6953 Q170.4594,469.9531 170.4594,470.5625 L170.4594,472.0156 Q170.4594,472.625 170.225,472.8906 Q169.9906,473.1563 169.6156,473.1563 Q169.2719,473.1563 169.0688,472.9531 Q168.8656,472.7656 168.7563,472.25 Q168.7094,471.8906 168.5219,471.7031 Q168.1938,471.3281 167.5844,471.1094 Q166.975,470.8906 166.35,470.8906 Q165.5844,470.8906 164.9516,471.2188 Q164.3188,471.5469 163.8266,472.2969 Q163.3344,473.0469 163.3344,474.0781 L163.3344,475.1719 Q163.3344,476.4063 164.225,477.2266 Q165.1156,478.0469 166.7094,478.0469 Q167.6469,478.0469 168.3031,477.7969 Q168.6938,477.6406 169.1156,477.2031 Q169.3813,476.9375 169.5297,476.8594 Q169.6781,476.7813 169.8813,476.7813 Q170.2094,476.7813 170.4672,477.0391 Q170.725,477.2969 170.725,477.6406 Q170.725,477.9844 170.3813,478.3906 Q169.8813,478.9688 169.0844,479.2969 Q168.0063,479.75 166.7094,479.75 Q165.1938,479.75 163.9906,479.125 Q163.0063,478.625 162.3188,477.5547 Q161.6313,476.4844 161.6313,475.2031 L161.6313,474.0469 Q161.6313,472.7188 162.2484,471.5703 Q162.8656,470.4219 163.9594,469.8047 Q165.0531,469.1875 166.2875,469.1875 Q167.0219,469.1875 167.6703,469.3516 Q168.3188,469.5156 168.8656,469.875 Z " fill="#000000"/><text fill="#000000" font-family="sans-serif" font-size="12" lengthAdjust="spacing" textLength="110" x="180.9" y="478.9102">CommandTypeDTO</text><line style="stroke:#A80036;stroke-width:1.5;" x1="148.5" x2="296.5" y1="490" y2="490"/><ellipse cx="158.5" cy="501" rx="3" ry="3" style="stroke:#038048;stroke-width:1.0;fill:none;"/><text fill="#000000" font-family="sans-serif" font-size="11" lengthAdjust="spacing" textLength="69" x="167.5" y="505.4189">Result?: string</text><ellipse cx="158.5" cy="514.8359" rx="3" ry="3" style="stroke:#038048;stroke-width:1.0;fill:none;"/><text fill="#000000" font-family="sans-serif" font-size="11" lengthAdjust="spacing" textLength="124" x="167.5" y="519.2549">Parameters?: ParamDTO[]</text><ellipse cx="158.5" cy="528.6719" rx="3" ry="3" style="stroke:#038048;stroke-width:1.0;fill:none;"/><text fill="#000000" font-family="sans-serif" font-size="11" lengthAdjust="spacing" text-decoration="underline" textLength="60" x="167.5" y="533.0908">TypeId: Guid</text><line style="stroke:#A80036;stroke-width:1.5;" x1="148.5" x2="296.5" y1="539.5078" y2="539.5078"/><!--MD5=[fe6b2754769bc87cf156126798433078]
class CommandWrapper--><rect codeLine="20" fill="#FEFECE" filter="url(#fojk6iv4cc261)" height="227.8672" id="CommandWrapper" style="stroke:#A80036;stroke-width:1.5;" width="327" x="7" y="7"/><ellipse cx="113.25" cy="23" fill="#ADD1B2" rx="11" ry="11" style="stroke:#A80036;stroke-width:1.0;"/><path d="M116.0156,18.875 Q116.1719,18.6563 116.3594,18.5469 Q116.5469,18.4375 116.7656,18.4375 Q117.1406,18.4375 117.375,18.6953 Q117.6094,18.9531 117.6094,19.5625 L117.6094,21.0156 Q117.6094,21.625 117.375,21.8906 Q117.1406,22.1563 116.7656,22.1563 Q116.4219,22.1563 116.2188,21.9531 Q116.0156,21.7656 115.9063,21.25 Q115.8594,20.8906 115.6719,20.7031 Q115.3438,20.3281 114.7344,20.1094 Q114.125,19.8906 113.5,19.8906 Q112.7344,19.8906 112.1016,20.2188 Q111.4688,20.5469 110.9766,21.2969 Q110.4844,22.0469 110.4844,23.0781 L110.4844,24.1719 Q110.4844,25.4063 111.375,26.2266 Q112.2656,27.0469 113.8594,27.0469 Q114.7969,27.0469 115.4531,26.7969 Q115.8438,26.6406 116.2656,26.2031 Q116.5313,25.9375 116.6797,25.8594 Q116.8281,25.7813 117.0313,25.7813 Q117.3594,25.7813 117.6172,26.0391 Q117.875,26.2969 117.875,26.6406 Q117.875,26.9844 117.5313,27.3906 Q117.0313,27.9688 116.2344,28.2969 Q115.1563,28.75 113.8594,28.75 Q112.3438,28.75 111.1406,28.125 Q110.1563,27.625 109.4688,26.5547 Q108.7813,25.4844 108.7813,24.2031 L108.7813,23.0469 Q108.7813,21.7188 109.3984,20.5703 Q110.0156,19.4219 111.1094,18.8047 Q112.2031,18.1875 113.4375,18.1875 Q114.1719,18.1875 114.8203,18.3516 Q115.4688,18.5156 116.0156,18.875 Z " fill="#000000"/><text fill="#000000" font-family="sans-serif" font-size="12" lengthAdjust="spacing" textLength="106" x="133.75" y="27.9102">CommandWrapper</text><line style="stroke:#A80036;stroke-width:1.5;" x1="8" x2="333" y1="39" y2="39"/><rect fill="none" height="6" style="stroke:#C82930;stroke-width:1.0;" width="6" x="15" y="47"/><text fill="#000000" font-family="sans-serif" font-size="11" lengthAdjust="spacing" textLength="45" x="27" y="54.4189">_dto: any</text><rect fill="none" height="6" style="stroke:#C82930;stroke-width:1.0;" width="6" x="15" y="60.8359"/><text fill="#000000" font-family="sans-serif" font-size="11" lengthAdjust="spacing" textLength="66" x="27" y="68.2549">_service: any</text><ellipse cx="18" cy="77.6719" rx="3" ry="3" style="stroke:#038048;stroke-width:1.0;fill:none;"/><text fill="#000000" font-family="sans-serif" font-size="11" lengthAdjust="spacing" textLength="61" x="27" y="82.0908">Service: any</text><ellipse cx="18" cy="91.5078" rx="3" ry="3" style="stroke:#038048;stroke-width:1.0;fill:none;"/><text fill="#000000" font-family="sans-serif" font-size="11" lengthAdjust="spacing" textLength="45" x="27" y="95.9268">DTO: any</text><ellipse cx="18" cy="105.3438" rx="3" ry="3" style="stroke:#038048;stroke-width:1.0;fill:none;"/><text fill="#000000" font-family="sans-serif" font-size="11" lengthAdjust="spacing" textLength="93" x="27" y="109.7627">Response: boolean</text><ellipse cx="18" cy="119.1797" rx="3" ry="3" style="stroke:#038048;stroke-width:1.0;fill:none;"/><text fill="#000000" font-family="sans-serif" font-size="11" lengthAdjust="spacing" textLength="83" x="27" y="123.5986">Arguments: any[]</text><ellipse cx="18" cy="133.0156" rx="3" ry="3" style="stroke:#038048;stroke-width:1.0;fill:none;"/><text fill="#000000" font-family="sans-serif" font-size="11" lengthAdjust="spacing" textLength="52" x="27" y="137.4346">Type: Guid</text><ellipse cx="18" cy="146.8516" rx="3" ry="3" style="stroke:#038048;stroke-width:1.0;fill:none;"/><text fill="#000000" font-family="sans-serif" font-size="11" lengthAdjust="spacing" textLength="36" x="27" y="151.2705">Id: Guid</text><rect fill="none" height="6" style="stroke:#C82930;stroke-width:1.0;" width="6" x="15" y="157.6875"/><text fill="#000000" font-family="sans-serif" font-size="11" lengthAdjust="spacing" text-decoration="underline" textLength="73" x="27" y="165.1064">_factories: any</text><line style="stroke:#A80036;stroke-width:1.5;" x1="8" x2="333" y1="171.5234" y2="171.5234"/><ellipse cx="18" cy="182.5234" fill="#84BE84" rx="3" ry="3" style="stroke:#038048;stroke-width:1.0;"/><text fill="#000000" font-family="sans-serif" font-size="11" lengthAdjust="spacing" textLength="153" x="27" y="186.9424">getArgument(name: string): any</text><ellipse cx="18" cy="196.3594" fill="#84BE84" rx="3" ry="3" style="stroke:#038048;stroke-width:1.0;"/><text fill="#000000" font-family="sans-serif" font-size="11" lengthAdjust="spacing" textLength="220" x="27" y="200.7783">setArgument(name: string, value: string): void</text><ellipse cx="18" cy="210.1953" fill="#84BE84" rx="3" ry="3" style="stroke:#038048;stroke-width:1.0;"/><text fill="#000000" font-family="sans-serif" font-size="11" lengthAdjust="spacing" textLength="142" x="27" y="214.6143">executeCmd(): Promise&lt;any&gt;</text><ellipse cx="18" cy="224.0313" fill="#84BE84" rx="3" ry="3" style="stroke:#038048;stroke-width:1.0;"/><text fill="#000000" font-family="sans-serif" font-size="11" lengthAdjust="spacing" text-decoration="underline" textLength="301" x="27" y="228.4502">register(typeId: Guid, factory: CommandWrapperFactory): void</text><!--MD5=[a8c0967d7b66f43265179b07355379df]
class PropertyDTO--><rect codeLine="35" fill="#FEFECE" filter="url(#fojk6iv4cc261)" height="89.5078" id="PropertyDTO" style="stroke:#A80036;stroke-width:1.5;" width="102" x="387.5" y="608"/><ellipse cx="402.5" cy="624" fill="#ADD1B2" rx="11" ry="11" style="stroke:#A80036;stroke-width:1.0;"/><path d="M405.2656,619.875 Q405.4219,619.6563 405.6094,619.5469 Q405.7969,619.4375 406.0156,619.4375 Q406.3906,619.4375 406.625,619.6953 Q406.8594,619.9531 406.8594,620.5625 L406.8594,622.0156 Q406.8594,622.625 406.625,622.8906 Q406.3906,623.1563 406.0156,623.1563 Q405.6719,623.1563 405.4688,622.9531 Q405.2656,622.7656 405.1563,622.25 Q405.1094,621.8906 404.9219,621.7031 Q404.5938,621.3281 403.9844,621.1094 Q403.375,620.8906 402.75,620.8906 Q401.9844,620.8906 401.3516,621.2188 Q400.7188,621.5469 400.2266,622.2969 Q399.7344,623.0469 399.7344,624.0781 L399.7344,625.1719 Q399.7344,626.4063 400.625,627.2266 Q401.5156,628.0469 403.1094,628.0469 Q404.0469,628.0469 404.7031,627.7969 Q405.0938,627.6406 405.5156,627.2031 Q405.7813,626.9375 405.9297,626.8594 Q406.0781,626.7813 406.2813,626.7813 Q406.6094,626.7813 406.8672,627.0391 Q407.125,627.2969 407.125,627.6406 Q407.125,627.9844 406.7813,628.3906 Q406.2813,628.9688 405.4844,629.2969 Q404.4063,629.75 403.1094,629.75 Q401.5938,629.75 400.3906,629.125 Q399.4063,628.625 398.7188,627.5547 Q398.0313,626.4844 398.0313,625.2031 L398.0313,624.0469 Q398.0313,622.7188 398.6484,621.5703 Q399.2656,620.4219 400.3594,619.8047 Q401.4531,619.1875 402.6875,619.1875 Q403.4219,619.1875 404.0703,619.3516 Q404.7188,619.5156 405.2656,619.875 Z " fill="#000000"/><text fill="#000000" font-family="sans-serif" font-size="12" lengthAdjust="spacing" textLength="70" x="416.5" y="628.9102">PropertyDTO</text><line style="stroke:#A80036;stroke-width:1.5;" x1="388.5" x2="488.5" y1="640" y2="640"/><ellipse cx="398.5" cy="651" rx="3" ry="3" style="stroke:#038048;stroke-width:1.0;fill:none;"/><text fill="#000000" font-family="sans-serif" font-size="11" lengthAdjust="spacing" textLength="66" x="407.5" y="655.4189">Name?: string</text><ellipse cx="398.5" cy="664.8359" rx="3" ry="3" style="stroke:#038048;stroke-width:1.0;fill:none;"/><text fill="#000000" font-family="sans-serif" font-size="11" lengthAdjust="spacing" textLength="67" x="407.5" y="669.2549">Value?: string</text><ellipse cx="398.5" cy="678.6719" rx="3" ry="3" style="stroke:#038048;stroke-width:1.0;fill:none;"/><text fill="#000000" font-family="sans-serif" font-size="11" lengthAdjust="spacing" text-decoration="underline" textLength="60" x="407.5" y="683.0908">TypeId: Guid</text><line style="stroke:#A80036;stroke-width:1.5;" x1="388.5" x2="488.5" y1="689.5078" y2="689.5078"/><!--MD5=[f5d54f60ec6d089d1cb017027d5a65a8]
class CommandDTO--><rect codeLine="40" fill="#FEFECE" filter="url(#fojk6iv4cc261)" height="89.5078" id="CommandDTO" style="stroke:#A80036;stroke-width:1.5;" width="159" x="359" y="458"/><ellipse cx="393.35" cy="474" fill="#ADD1B2" rx="11" ry="11" style="stroke:#A80036;stroke-width:1.0;"/><path d="M396.1156,469.875 Q396.2719,469.6563 396.4594,469.5469 Q396.6469,469.4375 396.8656,469.4375 Q397.2406,469.4375 397.475,469.6953 Q397.7094,469.9531 397.7094,470.5625 L397.7094,472.0156 Q397.7094,472.625 397.475,472.8906 Q397.2406,473.1563 396.8656,473.1563 Q396.5219,473.1563 396.3188,472.9531 Q396.1156,472.7656 396.0063,472.25 Q395.9594,471.8906 395.7719,471.7031 Q395.4438,471.3281 394.8344,471.1094 Q394.225,470.8906 393.6,470.8906 Q392.8344,470.8906 392.2016,471.2188 Q391.5688,471.5469 391.0766,472.2969 Q390.5844,473.0469 390.5844,474.0781 L390.5844,475.1719 Q390.5844,476.4063 391.475,477.2266 Q392.3656,478.0469 393.9594,478.0469 Q394.8969,478.0469 395.5531,477.7969 Q395.9438,477.6406 396.3656,477.2031 Q396.6313,476.9375 396.7797,476.8594 Q396.9281,476.7813 397.1313,476.7813 Q397.4594,476.7813 397.7172,477.0391 Q397.975,477.2969 397.975,477.6406 Q397.975,477.9844 397.6313,478.3906 Q397.1313,478.9688 396.3344,479.2969 Q395.2563,479.75 393.9594,479.75 Q392.4438,479.75 391.2406,479.125 Q390.2563,478.625 389.5688,477.5547 Q388.8813,476.4844 388.8813,475.2031 L388.8813,474.0469 Q388.8813,472.7188 389.4984,471.5703 Q390.1156,470.4219 391.2094,469.8047 Q392.3031,469.1875 393.5375,469.1875 Q394.2719,469.1875 394.9203,469.3516 Q395.5688,469.5156 396.1156,469.875 Z " fill="#000000"/><text fill="#000000" font-family="sans-serif" font-size="12" lengthAdjust="spacing" textLength="84" x="411.65" y="478.9102">CommandDTO</text><line style="stroke:#A80036;stroke-width:1.5;" x1="360" x2="517" y1="490" y2="490"/><ellipse cx="370" cy="501" rx="3" ry="3" style="stroke:#038048;stroke-width:1.0;fill:none;"/><text fill="#000000" font-family="sans-serif" font-size="11" lengthAdjust="spacing" textLength="99" x="379" y="505.4189">Response?: boolean</text><ellipse cx="370" cy="514.8359" rx="3" ry="3" style="stroke:#038048;stroke-width:1.0;fill:none;"/><text fill="#000000" font-family="sans-serif" font-size="11" lengthAdjust="spacing" textLength="133" x="379" y="519.2549">Arguments?: PropertyDTO[]</text><ellipse cx="370" cy="528.6719" rx="3" ry="3" style="stroke:#038048;stroke-width:1.0;fill:none;"/><text fill="#000000" font-family="sans-serif" font-size="11" lengthAdjust="spacing" text-decoration="underline" textLength="60" x="379" y="533.0908">TypeId: Guid</text><line style="stroke:#A80036;stroke-width:1.5;" x1="360" x2="517" y1="539.5078" y2="539.5078"/><!--MD5=[aec03bddd3c7ec28c1659e94fc16014a]
class GetCommandTypesBase--><rect codeLine="45" fill="#FEFECE" filter="url(#fojk6iv4cc261)" height="103.3438" id="GetCommandTypesBase" style="stroke:#A80036;stroke-width:1.5;" width="227" x="57" y="295"/><ellipse cx="96.75" cy="311" fill="#ADD1B2" rx="11" ry="11" style="stroke:#A80036;stroke-width:1.0;"/><path d="M99.5156,306.875 Q99.6719,306.6563 99.8594,306.5469 Q100.0469,306.4375 100.2656,306.4375 Q100.6406,306.4375 100.875,306.6953 Q101.1094,306.9531 101.1094,307.5625 L101.1094,309.0156 Q101.1094,309.625 100.875,309.8906 Q100.6406,310.1563 100.2656,310.1563 Q99.9219,310.1563 99.7188,309.9531 Q99.5156,309.7656 99.4063,309.25 Q99.3594,308.8906 99.1719,308.7031 Q98.8438,308.3281 98.2344,308.1094 Q97.625,307.8906 97,307.8906 Q96.2344,307.8906 95.6016,308.2188 Q94.9688,308.5469 94.4766,309.2969 Q93.9844,310.0469 93.9844,311.0781 L93.9844,312.1719 Q93.9844,313.4063 94.875,314.2266 Q95.7656,315.0469 97.3594,315.0469 Q98.2969,315.0469 98.9531,314.7969 Q99.3438,314.6406 99.7656,314.2031 Q100.0313,313.9375 100.1797,313.8594 Q100.3281,313.7813 100.5313,313.7813 Q100.8594,313.7813 101.1172,314.0391 Q101.375,314.2969 101.375,314.6406 Q101.375,314.9844 101.0313,315.3906 Q100.5313,315.9688 99.7344,316.2969 Q98.6563,316.75 97.3594,316.75 Q95.8438,316.75 94.6406,316.125 Q93.6563,315.625 92.9688,314.5547 Q92.2813,313.4844 92.2813,312.2031 L92.2813,311.0469 Q92.2813,309.7188 92.8984,308.5703 Q93.5156,307.4219 94.6094,306.8047 Q95.7031,306.1875 96.9375,306.1875 Q97.6719,306.1875 98.3203,306.3516 Q98.9688,306.5156 99.5156,306.875 Z " fill="#000000"/><text fill="#000000" font-family="sans-serif" font-size="12" lengthAdjust="spacing" textLength="140" x="116.25" y="315.9102">GetCommandTypesBase</text><line style="stroke:#A80036;stroke-width:1.5;" x1="58" x2="283" y1="327" y2="327"/><ellipse cx="68" cy="338" rx="3" ry="3" style="stroke:#038048;stroke-width:1.0;fill:none;"/><text fill="#000000" font-family="sans-serif" font-size="11" lengthAdjust="spacing" textLength="134" x="77" y="342.4189">Result: CommandTypeDTO[]</text><ellipse cx="68" cy="351.8359" rx="3" ry="3" style="stroke:#038048;stroke-width:1.0;fill:none;"/><text fill="#000000" font-family="sans-serif" font-size="11" lengthAdjust="spacing" text-decoration="underline" textLength="60" x="77" y="356.2549">TypeId: Guid</text><line style="stroke:#A80036;stroke-width:1.5;" x1="58" x2="283" y1="362.6719" y2="362.6719"/><ellipse cx="68" cy="373.6719" fill="#84BE84" rx="3" ry="3" style="stroke:#038048;stroke-width:1.0;"/><text fill="#000000" font-family="sans-serif" font-size="11" lengthAdjust="spacing" textLength="201" x="77" y="378.0908">execute(): Promise&lt;CommandTypeDTO[]&gt;</text><ellipse cx="68" cy="387.5078" fill="#84BE84" rx="3" ry="3" style="stroke:#038048;stroke-width:1.0;"/><text fill="#000000" font-family="sans-serif" font-size="11" lengthAdjust="spacing" text-decoration="underline" textLength="159" x="77" y="391.9268">IsForMe(dto: CommandDTO): any</text><!--MD5=[d40922a5f4b5f53a84548686e17be8ce]
reverse link BaseDTO to TypeDTO--><path d="M417.82,185.32 C404.83,225.1 388.52,275.02 377.59,308.47 " fill="none" id="BaseDTO-backto-TypeDTO" style="stroke:#A80036;stroke-width:1.0;"/><polygon fill="none" points="411.21,182.99,424.08,166.16,424.52,187.34,411.21,182.99" style="stroke:#A80036;stroke-width:1.0;"/><!--MD5=[e1f4ca4f791e2b2a82d1f845c1c82932]
reverse link TypeDTO to CommandTypeDTO--><path d="M317.42,399.45 C299.87,418.41 280.2,439.66 263.34,457.88 " fill="none" id="TypeDTO-backto-CommandTypeDTO" style="stroke:#A80036;stroke-width:1.0;"/><polygon fill="none" points="312.53,394.43,331.25,384.51,322.8,403.94,312.53,394.43" style="stroke:#A80036;stroke-width:1.0;"/><!--MD5=[9714f00bbee80ca7b140c29ae529c8eb]
reverse link BaseDTO to CommandDTO--><path d="M438.5,186.72 C438.5,264.01 438.5,391.19 438.5,457.95 " fill="none" id="BaseDTO-backto-CommandDTO" style="stroke:#A80036;stroke-width:1.0;"/><polygon fill="none" points="431.5,186.33,438.5,166.33,445.5,186.33,431.5,186.33" style="stroke:#A80036;stroke-width:1.0;"/><!--MD5=[367a8f2c140f25a4ef839cb3c4726ee7]
reverse link CommandWrapper to GetCommandTypesBase--><path d="M170.5,255.13 C170.5,269.17 170.5,282.74 170.5,294.92 " fill="none" id="CommandWrapper-backto-GetCommandTypesBase" style="stroke:#A80036;stroke-width:1.0;"/><polygon fill="none" points="163.5,255.06,170.5,235.06,177.5,255.06,163.5,255.06" style="stroke:#A80036;stroke-width:1.0;"/><!--MD5=[db4322eaa4ea5a4e5503248894c2abcf]
link CommandTypeDTO to ParamDTO--><path codeLine="51" d="M222.5,548 C222.5,565.15 222.5,584.87 222.5,602.51 " fill="none" id="CommandTypeDTO-to-ParamDTO" style="stroke:#A80036;stroke-width:1.0;"/><polygon fill="#A80036" points="222.5,607.91,226.5,598.91,222.5,602.91,218.5,598.91,222.5,607.91" style="stroke:#A80036;stroke-width:1.0;"/><text fill="#000000" font-family="sans-serif" font-size="13" lengthAdjust="spacing" textLength="5" x="217.1016" y="597.0111">*</text><!--MD5=[92fdb8409966ab8b3f648f5668444010]
link CommandDTO to PropertyDTO--><path codeLine="52" d="M438.5,548 C438.5,565.15 438.5,584.87 438.5,602.51 " fill="none" id="CommandDTO-to-PropertyDTO" style="stroke:#A80036;stroke-width:1.0;"/><polygon fill="#A80036" points="438.5,607.91,442.5,598.91,438.5,602.91,434.5,598.91,438.5,607.91" style="stroke:#A80036;stroke-width:1.0;"/><text fill="#000000" font-family="sans-serif" font-size="13" lengthAdjust="spacing" textLength="5" x="433.1016" y="597.0111">*</text><!--MD5=[5d4bd14edfcad44f6b9ccddbdca74314]
link GetCommandTypesBase to CommandTypeDTO--><path codeLine="53" d="M187.53,398.09 C193.46,415.71 200.1,435.43 205.98,452.92 " fill="none" id="GetCommandTypesBase-to-CommandTypeDTO" style="stroke:#A80036;stroke-width:1.0;"/><polygon fill="#A80036" points="207.62,457.79,208.5598,447.9861,206.0346,453.048,200.9726,450.5228,207.62,457.79" style="stroke:#A80036;stroke-width:1.0;"/><text fill="#000000" font-family="sans-serif" font-size="13" lengthAdjust="spacing" textLength="5" x="199.9587" y="447.2019">*</text><!--MD5=[c7dea752933930c2bf2b8682093906a6]
link GetCommandTypesBase to CommandDTO--><path codeLine="54" d="M258.25,398.09 C290.12,416.46 325.96,437.12 357.24,455.15 " fill="none" id="GetCommandTypesBase-to-CommandDTO" style="stroke:#A80036;stroke-width:1.0;"/><polygon fill="#A80036" points="361.82,457.79,356.027,449.825,357.4903,455.2893,352.0259,456.7526,361.82,457.79" style="stroke:#A80036;stroke-width:1.0;"/><text fill="#000000" font-family="sans-serif" font-size="13" lengthAdjust="spacing" textLength="7" x="344.0458" y="448.1917">1</text><!--MD5=[818ddb42a529682b44eb43926ae28ea3]
@startuml
class ParamDTO {
    +Name?: string
    +Type?: string
    +{static} TypeId: Guid
}
class BaseDTO {
    +Id?: string
    +Type?: string
    +{static} TypeId: Guid
}
class TypeDTO extends BaseDTO {
    +Name?: string
    +{static} TypeId: Guid
}
class CommandTypeDTO extends TypeDTO {
    +Result?: string
    +Parameters?: ParamDTO[]
    +{static} TypeId: Guid
}
class CommandWrapper {
    -_dto: any
    -_service: any
    +Service: any
    +DTO: any
    +Response: boolean
    +Arguments: any[]
    +Type: Guid
    +Id: Guid
    +getArgument(name: string): any
    +setArgument(name: string, value: string): void
    +executeCmd(): Promise<any>
    -{static} _factories: any
    +{static} register(typeId: Guid, factory: CommandWrapperFactory): void
}
class PropertyDTO {
    +Name?: string
    +Value?: string
    +{static} TypeId: Guid
}
class CommandDTO extends BaseDTO {
    +Response?: boolean
    +Arguments?: PropertyDTO[]
    +{static} TypeId: Guid
}
class GetCommandTypesBase extends CommandWrapper {
    +Result: CommandTypeDTO[]
    +execute(): Promise<CommandTypeDTO[]>
    +{static} TypeId: Guid
    +{static} IsForMe(dto: CommandDTO): any
}
CommandTypeDTO - -> "*" ParamDTO
CommandDTO - -> "*" PropertyDTO
GetCommandTypesBase - -> "*" CommandTypeDTO
GetCommandTypesBase - -> "1" CommandDTO
@enduml

PlantUML version 1.2021.10(Mon Aug 30 15:43:48 CEST 2021)
(GPL source distribution)
Java Runtime: Java(TM) SE Runtime Environment
JVM: Java HotSpot(TM) Client VM
Default Encoding: Cp1252
Language: de
Country: CH
--></g></svg>