<?xml version="1.0" encoding="UTF-8" standalone="no"?><svg xmlns="http://www.w3.org/2000/svg" xmlns:xlink="http://www.w3.org/1999/xlink" contentScriptType="application/ecmascript" contentStyleType="text/css" height="724px" preserveAspectRatio="none" style="width:527px;height:724px;background:#FFFFFF;" version="1.1" viewBox="0 0 527 724" width="527px" zoomAndPan="magnify"><defs><filter height="300%" id="f17zn72fjngja8" width="300%" x="-1" y="-1"><feGaussianBlur result="blurOut" stdDeviation="2.0"/><feColorMatrix in="blurOut" result="blurOut2" type="matrix" values="0 0 0 0 0 0 0 0 0 0 0 0 0 0 0 0 0 0 .4 0"/><feOffset dx="4.0" dy="4.0" in="blurOut2" result="blurOut3"/><feBlend in="SourceGraphic" in2="blurOut3" mode="normal"/></filter></defs><g><!--MD5=[c16293fdc2a349471a916198a6de1464]
class ParamDTO--><rect codeLine="1" fill="#FEFECE" filter="url(#f17zn72fjngja8)" height="89.5078" id="ParamDTO" style="stroke:#A80036;stroke-width:1.5;" width="94" x="172.5" y="621"/><ellipse cx="187.5" cy="637" fill="#ADD1B2" rx="11" ry="11" style="stroke:#A80036;stroke-width:1.0;"/><path d="M190.2656,632.875 Q190.4219,632.6563 190.6094,632.5469 Q190.7969,632.4375 191.0156,632.4375 Q191.3906,632.4375 191.625,632.7031 Q191.8594,632.9531 191.8594,633.5625 L191.8594,635.0156 Q191.8594,635.625 191.625,635.8906 Q191.3906,636.1563 191.0156,636.1563 Q190.6719,636.1563 190.4688,635.9531 Q190.2656,635.7656 190.1563,635.25 Q190.1094,634.8906 189.9219,634.7031 Q189.5938,634.3281 188.9844,634.1094 Q188.375,633.8906 187.75,633.8906 Q186.9844,633.8906 186.3438,634.2188 Q185.7188,634.5469 185.2188,635.2969 Q184.7344,636.0469 184.7344,637.0781 L184.7344,638.1719 Q184.7344,639.4063 185.625,640.2344 Q186.5156,641.0469 188.1094,641.0469 Q189.0469,641.0469 189.7031,640.7969 Q190.0938,640.6406 190.5156,640.2031 Q190.7813,639.9375 190.9219,639.8594 Q191.0781,639.7813 191.2813,639.7813 Q191.6094,639.7813 191.8594,640.0469 Q192.125,640.2969 192.125,640.6406 Q192.125,640.9844 191.7813,641.3906 Q191.2813,641.9688 190.4844,642.2969 Q189.4063,642.75 188.1094,642.75 Q186.5938,642.75 185.3906,642.125 Q184.4063,641.625 183.7188,640.5625 Q183.0313,639.4844 183.0313,638.2031 L183.0313,637.0469 Q183.0313,635.7188 183.6406,634.5781 Q184.2656,633.4219 185.3594,632.8125 Q186.4531,632.1875 187.6875,632.1875 Q188.4219,632.1875 189.0625,632.3594 Q189.7188,632.5156 190.2656,632.875 Z " fill="#000000"/><text fill="#000000" font-family="sans-serif" font-size="12" lengthAdjust="spacing" textLength="62" x="201.5" y="641.9102">ParamDTO</text><line style="stroke:#A80036;stroke-width:1.5;" x1="173.5" x2="265.5" y1="653" y2="653"/><ellipse cx="183.5" cy="664" rx="3" ry="3" style="stroke:#038048;stroke-width:1.0;fill:none;"/><text fill="#000000" font-family="sans-serif" font-size="11" lengthAdjust="spacing" textLength="66" x="192.5" y="668.4189">Name?: string</text><ellipse cx="183.5" cy="677.8359" rx="3" ry="3" style="stroke:#038048;stroke-width:1.0;fill:none;"/><text fill="#000000" font-family="sans-serif" font-size="11" lengthAdjust="spacing" textLength="63" x="192.5" y="682.2549">Type?: string</text><ellipse cx="183.5" cy="691.6719" rx="3" ry="3" style="stroke:#038048;stroke-width:1.0;fill:none;"/><text fill="#000000" font-family="sans-serif" font-size="11" lengthAdjust="spacing" text-decoration="underline" textLength="60" x="192.5" y="696.0908">TypeId: Guid</text><line style="stroke:#A80036;stroke-width:1.5;" x1="173.5" x2="265.5" y1="702.5078" y2="702.5078"/><!--MD5=[6b1d3384926f1bc892ee196bbd0d7fce]
class BaseDTO--><rect codeLine="6" fill="#FEFECE" filter="url(#f17zn72fjngja8)" height="89.5078" id="BaseDTO" style="stroke:#A80036;stroke-width:1.5;" width="89" x="391" y="76"/><ellipse cx="407.35" cy="92" fill="#ADD1B2" rx="11" ry="11" style="stroke:#A80036;stroke-width:1.0;"/><path d="M410.1156,87.875 Q410.2719,87.6563 410.4594,87.5469 Q410.6469,87.4375 410.8656,87.4375 Q411.2406,87.4375 411.475,87.7031 Q411.7094,87.9531 411.7094,88.5625 L411.7094,90.0156 Q411.7094,90.625 411.475,90.8906 Q411.2406,91.1563 410.8656,91.1563 Q410.5219,91.1563 410.3188,90.9531 Q410.1156,90.7656 410.0063,90.25 Q409.9594,89.8906 409.7719,89.7031 Q409.4438,89.3281 408.8344,89.1094 Q408.225,88.8906 407.6,88.8906 Q406.8344,88.8906 406.1938,89.2188 Q405.5688,89.5469 405.0688,90.2969 Q404.5844,91.0469 404.5844,92.0781 L404.5844,93.1719 Q404.5844,94.4063 405.475,95.2344 Q406.3656,96.0469 407.9594,96.0469 Q408.8969,96.0469 409.5531,95.7969 Q409.9438,95.6406 410.3656,95.2031 Q410.6313,94.9375 410.7719,94.8594 Q410.9281,94.7813 411.1313,94.7813 Q411.4594,94.7813 411.7094,95.0469 Q411.975,95.2969 411.975,95.6406 Q411.975,95.9844 411.6313,96.3906 Q411.1313,96.9688 410.3344,97.2969 Q409.2563,97.75 407.9594,97.75 Q406.4438,97.75 405.2406,97.125 Q404.2563,96.625 403.5688,95.5625 Q402.8813,94.4844 402.8813,93.2031 L402.8813,92.0469 Q402.8813,90.7188 403.4906,89.5781 Q404.1156,88.4219 405.2094,87.8125 Q406.3031,87.1875 407.5375,87.1875 Q408.2719,87.1875 408.9125,87.3594 Q409.5688,87.5156 410.1156,87.875 Z " fill="#000000"/><text fill="#000000" font-family="sans-serif" font-size="12" lengthAdjust="spacing" textLength="54" x="421.65" y="96.9102">BaseDTO</text><line style="stroke:#A80036;stroke-width:1.5;" x1="392" x2="479" y1="108" y2="108"/><ellipse cx="402" cy="119" rx="3" ry="3" style="stroke:#038048;stroke-width:1.0;fill:none;"/><text fill="#000000" font-family="sans-serif" font-size="11" lengthAdjust="spacing" textLength="47" x="411" y="123.4189">Id?: string</text><ellipse cx="402" cy="132.8359" rx="3" ry="3" style="stroke:#038048;stroke-width:1.0;fill:none;"/><text fill="#000000" font-family="sans-serif" font-size="11" lengthAdjust="spacing" textLength="63" x="411" y="137.2549">Type?: string</text><ellipse cx="402" cy="146.6719" rx="3" ry="3" style="stroke:#038048;stroke-width:1.0;fill:none;"/><text fill="#000000" font-family="sans-serif" font-size="11" lengthAdjust="spacing" text-decoration="underline" textLength="60" x="411" y="151.0908">TypeId: Guid</text><line style="stroke:#A80036;stroke-width:1.5;" x1="392" x2="479" y1="157.5078" y2="157.5078"/><!--MD5=[ab65f1b894babecd782f1df810423109]
class TypeDTO--><rect codeLine="11" fill="#FEFECE" filter="url(#f17zn72fjngja8)" height="61.8359" id="TypeDTO" style="stroke:#A80036;stroke-width:1.5;" width="86" x="319.5" y="315.5"/><ellipse cx="335.85" cy="331.5" fill="#ADD1B2" rx="11" ry="11" style="stroke:#A80036;stroke-width:1.0;"/><path d="M338.6156,327.375 Q338.7719,327.1563 338.9594,327.0469 Q339.1469,326.9375 339.3656,326.9375 Q339.7406,326.9375 339.975,327.2031 Q340.2094,327.4531 340.2094,328.0625 L340.2094,329.5156 Q340.2094,330.125 339.975,330.3906 Q339.7406,330.6563 339.3656,330.6563 Q339.0219,330.6563 338.8188,330.4531 Q338.6156,330.2656 338.5063,329.75 Q338.4594,329.3906 338.2719,329.2031 Q337.9438,328.8281 337.3344,328.6094 Q336.725,328.3906 336.1,328.3906 Q335.3344,328.3906 334.6938,328.7188 Q334.0688,329.0469 333.5688,329.7969 Q333.0844,330.5469 333.0844,331.5781 L333.0844,332.6719 Q333.0844,333.9063 333.975,334.7344 Q334.8656,335.5469 336.4594,335.5469 Q337.3969,335.5469 338.0531,335.2969 Q338.4438,335.1406 338.8656,334.7031 Q339.1313,334.4375 339.2719,334.3594 Q339.4281,334.2813 339.6313,334.2813 Q339.9594,334.2813 340.2094,334.5469 Q340.475,334.7969 340.475,335.1406 Q340.475,335.4844 340.1313,335.8906 Q339.6313,336.4688 338.8344,336.7969 Q337.7563,337.25 336.4594,337.25 Q334.9438,337.25 333.7406,336.625 Q332.7563,336.125 332.0688,335.0625 Q331.3813,333.9844 331.3813,332.7031 L331.3813,331.5469 Q331.3813,330.2188 331.9906,329.0781 Q332.6156,327.9219 333.7094,327.3125 Q334.8031,326.6875 336.0375,326.6875 Q336.7719,326.6875 337.4125,326.8594 Q338.0688,327.0156 338.6156,327.375 Z " fill="#000000"/><text fill="#000000" font-family="sans-serif" font-size="12" lengthAdjust="spacing" textLength="51" x="350.15" y="336.4102">TypeDTO</text><line style="stroke:#A80036;stroke-width:1.5;" x1="320.5" x2="404.5" y1="347.5" y2="347.5"/><ellipse cx="330.5" cy="358.5" rx="3" ry="3" style="stroke:#038048;stroke-width:1.0;fill:none;"/><text fill="#000000" font-family="sans-serif" font-size="11" lengthAdjust="spacing" text-decoration="underline" textLength="60" x="339.5" y="362.9189">TypeId: Guid</text><line style="stroke:#A80036;stroke-width:1.5;" x1="320.5" x2="404.5" y1="369.3359" y2="369.3359"/><!--MD5=[4c1731f98dfecb78a08a63fd20d14398]
class CommandTypeDTO--><rect codeLine="14" fill="#FEFECE" filter="url(#f17zn72fjngja8)" height="103.3438" id="CommandTypeDTO" style="stroke:#A80036;stroke-width:1.5;" width="150" x="144.5" y="458"/><ellipse cx="163.1" cy="474" fill="#ADD1B2" rx="11" ry="11" style="stroke:#A80036;stroke-width:1.0;"/><path d="M165.8656,469.875 Q166.0219,469.6563 166.2094,469.5469 Q166.3969,469.4375 166.6156,469.4375 Q166.9906,469.4375 167.225,469.7031 Q167.4594,469.9531 167.4594,470.5625 L167.4594,472.0156 Q167.4594,472.625 167.225,472.8906 Q166.9906,473.1563 166.6156,473.1563 Q166.2719,473.1563 166.0688,472.9531 Q165.8656,472.7656 165.7563,472.25 Q165.7094,471.8906 165.5219,471.7031 Q165.1938,471.3281 164.5844,471.1094 Q163.975,470.8906 163.35,470.8906 Q162.5844,470.8906 161.9438,471.2188 Q161.3188,471.5469 160.8188,472.2969 Q160.3344,473.0469 160.3344,474.0781 L160.3344,475.1719 Q160.3344,476.4063 161.225,477.2344 Q162.1156,478.0469 163.7094,478.0469 Q164.6469,478.0469 165.3031,477.7969 Q165.6938,477.6406 166.1156,477.2031 Q166.3813,476.9375 166.5219,476.8594 Q166.6781,476.7813 166.8813,476.7813 Q167.2094,476.7813 167.4594,477.0469 Q167.725,477.2969 167.725,477.6406 Q167.725,477.9844 167.3813,478.3906 Q166.8813,478.9688 166.0844,479.2969 Q165.0063,479.75 163.7094,479.75 Q162.1938,479.75 160.9906,479.125 Q160.0063,478.625 159.3188,477.5625 Q158.6313,476.4844 158.6313,475.2031 L158.6313,474.0469 Q158.6313,472.7188 159.2406,471.5781 Q159.8656,470.4219 160.9594,469.8125 Q162.0531,469.1875 163.2875,469.1875 Q164.0219,469.1875 164.6625,469.3594 Q165.3188,469.5156 165.8656,469.875 Z " fill="#000000"/><text fill="#000000" font-family="sans-serif" font-size="12" lengthAdjust="spacing" textLength="110" x="177.9" y="478.9102">CommandTypeDTO</text><line style="stroke:#A80036;stroke-width:1.5;" x1="145.5" x2="293.5" y1="490" y2="490"/><ellipse cx="155.5" cy="501" rx="3" ry="3" style="stroke:#038048;stroke-width:1.0;fill:none;"/><text fill="#000000" font-family="sans-serif" font-size="11" lengthAdjust="spacing" textLength="66" x="164.5" y="505.4189">Name?: string</text><ellipse cx="155.5" cy="514.8359" rx="3" ry="3" style="stroke:#038048;stroke-width:1.0;fill:none;"/><text fill="#000000" font-family="sans-serif" font-size="11" lengthAdjust="spacing" textLength="69" x="164.5" y="519.2549">Result?: string</text><ellipse cx="155.5" cy="528.6719" rx="3" ry="3" style="stroke:#038048;stroke-width:1.0;fill:none;"/><text fill="#000000" font-family="sans-serif" font-size="11" lengthAdjust="spacing" textLength="124" x="164.5" y="533.0908">Parameters?: ParamDTO[]</text><ellipse cx="155.5" cy="542.5078" rx="3" ry="3" style="stroke:#038048;stroke-width:1.0;fill:none;"/><text fill="#000000" font-family="sans-serif" font-size="11" lengthAdjust="spacing" text-decoration="underline" textLength="60" x="164.5" y="546.9268">TypeId: Guid</text><line style="stroke:#A80036;stroke-width:1.5;" x1="145.5" x2="293.5" y1="553.3438" y2="553.3438"/><!--MD5=[fe6b2754769bc87cf156126798433078]
class CommandWrapper--><rect codeLine="20" fill="#FEFECE" filter="url(#f17zn72fjngja8)" height="227.8672" id="CommandWrapper" style="stroke:#A80036;stroke-width:1.5;" width="327" x="7" y="7"/><ellipse cx="113.25" cy="23" fill="#ADD1B2" rx="11" ry="11" style="stroke:#A80036;stroke-width:1.0;"/><path d="M116.0156,18.875 Q116.1719,18.6563 116.3594,18.5469 Q116.5469,18.4375 116.7656,18.4375 Q117.1406,18.4375 117.375,18.7031 Q117.6094,18.9531 117.6094,19.5625 L117.6094,21.0156 Q117.6094,21.625 117.375,21.8906 Q117.1406,22.1563 116.7656,22.1563 Q116.4219,22.1563 116.2188,21.9531 Q116.0156,21.7656 115.9063,21.25 Q115.8594,20.8906 115.6719,20.7031 Q115.3438,20.3281 114.7344,20.1094 Q114.125,19.8906 113.5,19.8906 Q112.7344,19.8906 112.0938,20.2188 Q111.4688,20.5469 110.9688,21.2969 Q110.4844,22.0469 110.4844,23.0781 L110.4844,24.1719 Q110.4844,25.4063 111.375,26.2344 Q112.2656,27.0469 113.8594,27.0469 Q114.7969,27.0469 115.4531,26.7969 Q115.8438,26.6406 116.2656,26.2031 Q116.5313,25.9375 116.6719,25.8594 Q116.8281,25.7813 117.0313,25.7813 Q117.3594,25.7813 117.6094,26.0469 Q117.875,26.2969 117.875,26.6406 Q117.875,26.9844 117.5313,27.3906 Q117.0313,27.9688 116.2344,28.2969 Q115.1563,28.75 113.8594,28.75 Q112.3438,28.75 111.1406,28.125 Q110.1563,27.625 109.4688,26.5625 Q108.7813,25.4844 108.7813,24.2031 L108.7813,23.0469 Q108.7813,21.7188 109.3906,20.5781 Q110.0156,19.4219 111.1094,18.8125 Q112.2031,18.1875 113.4375,18.1875 Q114.1719,18.1875 114.8125,18.3594 Q115.4688,18.5156 116.0156,18.875 Z " fill="#000000"/><text fill="#000000" font-family="sans-serif" font-size="12" lengthAdjust="spacing" textLength="106" x="133.75" y="27.9102">CommandWrapper</text><line style="stroke:#A80036;stroke-width:1.5;" x1="8" x2="333" y1="39" y2="39"/><rect fill="none" height="6" style="stroke:#C82930;stroke-width:1.0;" width="6" x="15" y="47"/><text fill="#000000" font-family="sans-serif" font-size="11" lengthAdjust="spacing" textLength="45" x="27" y="54.4189">_dto: any</text><rect fill="none" height="6" style="stroke:#C82930;stroke-width:1.0;" width="6" x="15" y="60.8359"/><text fill="#000000" font-family="sans-serif" font-size="11" lengthAdjust="spacing" textLength="66" x="27" y="68.2549">_service: any</text><ellipse cx="18" cy="77.6719" rx="3" ry="3" style="stroke:#038048;stroke-width:1.0;fill:none;"/><text fill="#000000" font-family="sans-serif" font-size="11" lengthAdjust="spacing" textLength="61" x="27" y="82.0908">Service: any</text><ellipse cx="18" cy="91.5078" rx="3" ry="3" style="stroke:#038048;stroke-width:1.0;fill:none;"/><text fill="#000000" font-family="sans-serif" font-size="11" lengthAdjust="spacing" textLength="45" x="27" y="95.9268">DTO: any</text><ellipse cx="18" cy="105.3438" rx="3" ry="3" style="stroke:#038048;stroke-width:1.0;fill:none;"/><text fill="#000000" font-family="sans-serif" font-size="11" lengthAdjust="spacing" textLength="93" x="27" y="109.7627">Response: boolean</text><ellipse cx="18" cy="119.1797" rx="3" ry="3" style="stroke:#038048;stroke-width:1.0;fill:none;"/><text fill="#000000" font-family="sans-serif" font-size="11" lengthAdjust="spacing" textLength="83" x="27" y="123.5986">Arguments: any[]</text><ellipse cx="18" cy="133.0156" rx="3" ry="3" style="stroke:#038048;stroke-width:1.0;fill:none;"/><text fill="#000000" font-family="sans-serif" font-size="11" lengthAdjust="spacing" textLength="52" x="27" y="137.4346">Type: Guid</text><ellipse cx="18" cy="146.8516" rx="3" ry="3" style="stroke:#038048;stroke-width:1.0;fill:none;"/><text fill="#000000" font-family="sans-serif" font-size="11" lengthAdjust="spacing" textLength="36" x="27" y="151.2705">Id: Guid</text><rect fill="none" height="6" style="stroke:#C82930;stroke-width:1.0;" width="6" x="15" y="157.6875"/><text fill="#000000" font-family="sans-serif" font-size="11" lengthAdjust="spacing" text-decoration="underline" textLength="73" x="27" y="165.1064">_factories: any</text><line style="stroke:#A80036;stroke-width:1.5;" x1="8" x2="333" y1="171.5234" y2="171.5234"/><ellipse cx="18" cy="182.5234" fill="#84BE84" rx="3" ry="3" style="stroke:#038048;stroke-width:1.0;"/><text fill="#000000" font-family="sans-serif" font-size="11" lengthAdjust="spacing" textLength="153" x="27" y="186.9424">getArgument(name: string): any</text><ellipse cx="18" cy="196.3594" fill="#84BE84" rx="3" ry="3" style="stroke:#038048;stroke-width:1.0;"/><text fill="#000000" font-family="sans-serif" font-size="11" lengthAdjust="spacing" textLength="220" x="27" y="200.7783">setArgument(name: string, value: string): void</text><ellipse cx="18" cy="210.1953" fill="#84BE84" rx="3" ry="3" style="stroke:#038048;stroke-width:1.0;"/><text fill="#000000" font-family="sans-serif" font-size="11" lengthAdjust="spacing" textLength="142" x="27" y="214.6143">executeCmd(): Promise&lt;any&gt;</text><ellipse cx="18" cy="224.0313" fill="#84BE84" rx="3" ry="3" style="stroke:#038048;stroke-width:1.0;"/><text fill="#000000" font-family="sans-serif" font-size="11" lengthAdjust="spacing" text-decoration="underline" textLength="301" x="27" y="228.4502">register(typeId: Guid, factory: CommandWrapperFactory): void</text><!--MD5=[a8c0967d7b66f43265179b07355379df]
class PropertyDTO--><rect codeLine="35" fill="#FEFECE" filter="url(#f17zn72fjngja8)" height="89.5078" id="PropertyDTO" style="stroke:#A80036;stroke-width:1.5;" width="102" x="382.5" y="621"/><ellipse cx="397.5" cy="637" fill="#ADD1B2" rx="11" ry="11" style="stroke:#A80036;stroke-width:1.0;"/><path d="M400.2656,632.875 Q400.4219,632.6563 400.6094,632.5469 Q400.7969,632.4375 401.0156,632.4375 Q401.3906,632.4375 401.625,632.7031 Q401.8594,632.9531 401.8594,633.5625 L401.8594,635.0156 Q401.8594,635.625 401.625,635.8906 Q401.3906,636.1563 401.0156,636.1563 Q400.6719,636.1563 400.4688,635.9531 Q400.2656,635.7656 400.1563,635.25 Q400.1094,634.8906 399.9219,634.7031 Q399.5938,634.3281 398.9844,634.1094 Q398.375,633.8906 397.75,633.8906 Q396.9844,633.8906 396.3438,634.2188 Q395.7188,634.5469 395.2188,635.2969 Q394.7344,636.0469 394.7344,637.0781 L394.7344,638.1719 Q394.7344,639.4063 395.625,640.2344 Q396.5156,641.0469 398.1094,641.0469 Q399.0469,641.0469 399.7031,640.7969 Q400.0938,640.6406 400.5156,640.2031 Q400.7813,639.9375 400.9219,639.8594 Q401.0781,639.7813 401.2813,639.7813 Q401.6094,639.7813 401.8594,640.0469 Q402.125,640.2969 402.125,640.6406 Q402.125,640.9844 401.7813,641.3906 Q401.2813,641.9688 400.4844,642.2969 Q399.4063,642.75 398.1094,642.75 Q396.5938,642.75 395.3906,642.125 Q394.4063,641.625 393.7188,640.5625 Q393.0313,639.4844 393.0313,638.2031 L393.0313,637.0469 Q393.0313,635.7188 393.6406,634.5781 Q394.2656,633.4219 395.3594,632.8125 Q396.4531,632.1875 397.6875,632.1875 Q398.4219,632.1875 399.0625,632.3594 Q399.7188,632.5156 400.2656,632.875 Z " fill="#000000"/><text fill="#000000" font-family="sans-serif" font-size="12" lengthAdjust="spacing" textLength="70" x="411.5" y="641.9102">PropertyDTO</text><line style="stroke:#A80036;stroke-width:1.5;" x1="383.5" x2="483.5" y1="653" y2="653"/><ellipse cx="393.5" cy="664" rx="3" ry="3" style="stroke:#038048;stroke-width:1.0;fill:none;"/><text fill="#000000" font-family="sans-serif" font-size="11" lengthAdjust="spacing" textLength="66" x="402.5" y="668.4189">Name?: string</text><ellipse cx="393.5" cy="677.8359" rx="3" ry="3" style="stroke:#038048;stroke-width:1.0;fill:none;"/><text fill="#000000" font-family="sans-serif" font-size="11" lengthAdjust="spacing" textLength="58" x="402.5" y="682.2549">Value?: any</text><ellipse cx="393.5" cy="691.6719" rx="3" ry="3" style="stroke:#038048;stroke-width:1.0;fill:none;"/><text fill="#000000" font-family="sans-serif" font-size="11" lengthAdjust="spacing" text-decoration="underline" textLength="60" x="402.5" y="696.0908">TypeId: Guid</text><line style="stroke:#A80036;stroke-width:1.5;" x1="383.5" x2="483.5" y1="702.5078" y2="702.5078"/><!--MD5=[f5d54f60ec6d089d1cb017027d5a65a8]
class CommandDTO--><rect codeLine="40" fill="#FEFECE" filter="url(#f17zn72fjngja8)" height="89.5078" id="CommandDTO" style="stroke:#A80036;stroke-width:1.5;" width="159" x="354" y="464.5"/><ellipse cx="388.35" cy="480.5" fill="#ADD1B2" rx="11" ry="11" style="stroke:#A80036;stroke-width:1.0;"/><path d="M391.1156,476.375 Q391.2719,476.1563 391.4594,476.0469 Q391.6469,475.9375 391.8656,475.9375 Q392.2406,475.9375 392.475,476.2031 Q392.7094,476.4531 392.7094,477.0625 L392.7094,478.5156 Q392.7094,479.125 392.475,479.3906 Q392.2406,479.6563 391.8656,479.6563 Q391.5219,479.6563 391.3188,479.4531 Q391.1156,479.2656 391.0063,478.75 Q390.9594,478.3906 390.7719,478.2031 Q390.4438,477.8281 389.8344,477.6094 Q389.225,477.3906 388.6,477.3906 Q387.8344,477.3906 387.1938,477.7188 Q386.5688,478.0469 386.0688,478.7969 Q385.5844,479.5469 385.5844,480.5781 L385.5844,481.6719 Q385.5844,482.9063 386.475,483.7344 Q387.3656,484.5469 388.9594,484.5469 Q389.8969,484.5469 390.5531,484.2969 Q390.9438,484.1406 391.3656,483.7031 Q391.6313,483.4375 391.7719,483.3594 Q391.9281,483.2813 392.1313,483.2813 Q392.4594,483.2813 392.7094,483.5469 Q392.975,483.7969 392.975,484.1406 Q392.975,484.4844 392.6313,484.8906 Q392.1313,485.4688 391.3344,485.7969 Q390.2563,486.25 388.9594,486.25 Q387.4438,486.25 386.2406,485.625 Q385.2563,485.125 384.5688,484.0625 Q383.8813,482.9844 383.8813,481.7031 L383.8813,480.5469 Q383.8813,479.2188 384.4906,478.0781 Q385.1156,476.9219 386.2094,476.3125 Q387.3031,475.6875 388.5375,475.6875 Q389.2719,475.6875 389.9125,475.8594 Q390.5688,476.0156 391.1156,476.375 Z " fill="#000000"/><text fill="#000000" font-family="sans-serif" font-size="12" lengthAdjust="spacing" textLength="84" x="406.65" y="485.4102">CommandDTO</text><line style="stroke:#A80036;stroke-width:1.5;" x1="355" x2="512" y1="496.5" y2="496.5"/><ellipse cx="365" cy="507.5" rx="3" ry="3" style="stroke:#038048;stroke-width:1.0;fill:none;"/><text fill="#000000" font-family="sans-serif" font-size="11" lengthAdjust="spacing" textLength="99" x="374" y="511.9189">Response?: boolean</text><ellipse cx="365" cy="521.3359" rx="3" ry="3" style="stroke:#038048;stroke-width:1.0;fill:none;"/><text fill="#000000" font-family="sans-serif" font-size="11" lengthAdjust="spacing" textLength="133" x="374" y="525.7549">Arguments?: PropertyDTO[]</text><ellipse cx="365" cy="535.1719" rx="3" ry="3" style="stroke:#038048;stroke-width:1.0;fill:none;"/><text fill="#000000" font-family="sans-serif" font-size="11" lengthAdjust="spacing" text-decoration="underline" textLength="60" x="374" y="539.5908">TypeId: Guid</text><line style="stroke:#A80036;stroke-width:1.5;" x1="355" x2="512" y1="546.0078" y2="546.0078"/><!--MD5=[aec03bddd3c7ec28c1659e94fc16014a]
class GetCommandTypesBase--><rect codeLine="45" fill="#FEFECE" filter="url(#f17zn72fjngja8)" height="103.3438" id="GetCommandTypesBase" style="stroke:#A80036;stroke-width:1.5;" width="227" x="57" y="295"/><ellipse cx="96.75" cy="311" fill="#ADD1B2" rx="11" ry="11" style="stroke:#A80036;stroke-width:1.0;"/><path d="M99.5156,306.875 Q99.6719,306.6563 99.8594,306.5469 Q100.0469,306.4375 100.2656,306.4375 Q100.6406,306.4375 100.875,306.7031 Q101.1094,306.9531 101.1094,307.5625 L101.1094,309.0156 Q101.1094,309.625 100.875,309.8906 Q100.6406,310.1563 100.2656,310.1563 Q99.9219,310.1563 99.7188,309.9531 Q99.5156,309.7656 99.4063,309.25 Q99.3594,308.8906 99.1719,308.7031 Q98.8438,308.3281 98.2344,308.1094 Q97.625,307.8906 97,307.8906 Q96.2344,307.8906 95.5938,308.2188 Q94.9688,308.5469 94.4688,309.2969 Q93.9844,310.0469 93.9844,311.0781 L93.9844,312.1719 Q93.9844,313.4063 94.875,314.2344 Q95.7656,315.0469 97.3594,315.0469 Q98.2969,315.0469 98.9531,314.7969 Q99.3438,314.6406 99.7656,314.2031 Q100.0313,313.9375 100.1719,313.8594 Q100.3281,313.7813 100.5313,313.7813 Q100.8594,313.7813 101.1094,314.0469 Q101.375,314.2969 101.375,314.6406 Q101.375,314.9844 101.0313,315.3906 Q100.5313,315.9688 99.7344,316.2969 Q98.6563,316.75 97.3594,316.75 Q95.8438,316.75 94.6406,316.125 Q93.6563,315.625 92.9688,314.5625 Q92.2813,313.4844 92.2813,312.2031 L92.2813,311.0469 Q92.2813,309.7188 92.8906,308.5781 Q93.5156,307.4219 94.6094,306.8125 Q95.7031,306.1875 96.9375,306.1875 Q97.6719,306.1875 98.3125,306.3594 Q98.9688,306.5156 99.5156,306.875 Z " fill="#000000"/><text fill="#000000" font-family="sans-serif" font-size="12" lengthAdjust="spacing" textLength="140" x="116.25" y="315.9102">GetCommandTypesBase</text><line style="stroke:#A80036;stroke-width:1.5;" x1="58" x2="283" y1="327" y2="327"/><ellipse cx="68" cy="338" rx="3" ry="3" style="stroke:#038048;stroke-width:1.0;fill:none;"/><text fill="#000000" font-family="sans-serif" font-size="11" lengthAdjust="spacing" textLength="134" x="77" y="342.4189">Result: CommandTypeDTO[]</text><ellipse cx="68" cy="351.8359" rx="3" ry="3" style="stroke:#038048;stroke-width:1.0;fill:none;"/><text fill="#000000" font-family="sans-serif" font-size="11" lengthAdjust="spacing" text-decoration="underline" textLength="60" x="77" y="356.2549">TypeId: Guid</text><line style="stroke:#A80036;stroke-width:1.5;" x1="58" x2="283" y1="362.6719" y2="362.6719"/><ellipse cx="68" cy="373.6719" fill="#84BE84" rx="3" ry="3" style="stroke:#038048;stroke-width:1.0;"/><text fill="#000000" font-family="sans-serif" font-size="11" lengthAdjust="spacing" textLength="201" x="77" y="378.0908">execute(): Promise&lt;CommandTypeDTO[]&gt;</text><ellipse cx="68" cy="387.5078" fill="#84BE84" rx="3" ry="3" style="stroke:#038048;stroke-width:1.0;"/><text fill="#000000" font-family="sans-serif" font-size="11" lengthAdjust="spacing" text-decoration="underline" textLength="159" x="77" y="391.9268">IsForMe(dto: CommandDTO): any</text><!--MD5=[d40922a5f4b5f53a84548686e17be8ce]
reverse link BaseDTO to TypeDTO--><path d="M414.79,185.4 C400.88,228.01 383.16,282.23 372.34,315.38 " fill="none" id="BaseDTO-backto-TypeDTO" style="stroke:#A80036;stroke-width:1.0;"/><polygon fill="none" points="408.21,182.99,421.08,166.16,421.52,187.34,408.21,182.99" style="stroke:#A80036;stroke-width:1.0;"/><!--MD5=[e1f4ca4f791e2b2a82d1f845c1c82932]
reverse link TypeDTO to CommandTypeDTO--><path d="M322.3,392.76 C304.33,412.99 283.06,436.94 264.55,457.78 " fill="none" id="TypeDTO-backto-CommandTypeDTO" style="stroke:#A80036;stroke-width:1.0;"/><polygon fill="none" points="317.09,388.09,335.6,377.78,327.55,397.38,317.09,388.09" style="stroke:#A80036;stroke-width:1.0;"/><!--MD5=[9714f00bbee80ca7b140c29ae529c8eb]
reverse link BaseDTO to CommandDTO--><path d="M435.17,186.34 C434.76,265.06 434.08,396.25 433.73,464.38 " fill="none" id="BaseDTO-backto-CommandDTO" style="stroke:#A80036;stroke-width:1.0;"/><polygon fill="none" points="428.17,186.3,435.27,166.34,442.17,186.37,428.17,186.3" style="stroke:#A80036;stroke-width:1.0;"/><!--MD5=[367a8f2c140f25a4ef839cb3c4726ee7]
reverse link CommandWrapper to GetCommandTypesBase--><path d="M170.5,255.13 C170.5,269.17 170.5,282.74 170.5,294.92 " fill="none" id="CommandWrapper-backto-GetCommandTypesBase" style="stroke:#A80036;stroke-width:1.0;"/><polygon fill="none" points="163.5,255.06,170.5,235.06,177.5,255.06,163.5,255.06" style="stroke:#A80036;stroke-width:1.0;"/><!--MD5=[db4322eaa4ea5a4e5503248894c2abcf]
link CommandTypeDTO to ParamDTO--><path codeLine="51" d="M219.5,561.09 C219.5,578.56 219.5,598.09 219.5,615.47 " fill="none" id="CommandTypeDTO-to-ParamDTO" style="stroke:#A80036;stroke-width:1.0;"/><polygon fill="#A80036" points="219.5,620.79,223.5,611.79,219.5,615.79,215.5,611.79,219.5,620.79" style="stroke:#A80036;stroke-width:1.0;"/><text fill="#000000" font-family="sans-serif" font-size="13" lengthAdjust="spacing" textLength="5" x="214.1172" y="610.2019">*</text><!--MD5=[92fdb8409966ab8b3f648f5668444010]
link CommandDTO to PropertyDTO--><path codeLine="52" d="M433.5,554.77 C433.5,573.85 433.5,596.22 433.5,615.81 " fill="none" id="CommandDTO-to-PropertyDTO" style="stroke:#A80036;stroke-width:1.0;"/><polygon fill="#A80036" points="433.5,620.99,437.5,611.99,433.5,615.99,429.5,611.99,433.5,620.99" style="stroke:#A80036;stroke-width:1.0;"/><text fill="#000000" font-family="sans-serif" font-size="13" lengthAdjust="spacing" textLength="5" x="428.1016" y="610.1039">*</text><!--MD5=[5d4bd14edfcad44f6b9ccddbdca74314]
link GetCommandTypesBase to CommandTypeDTO--><path codeLine="53" d="M186,398.44 C191.28,415.79 197.21,435.26 202.59,452.95 " fill="none" id="GetCommandTypesBase-to-CommandTypeDTO" style="stroke:#A80036;stroke-width:1.0;"/><polygon fill="#A80036" points="204.1,457.89,205.3051,448.1151,202.6436,453.1068,197.652,450.4453,204.1,457.89" style="stroke:#A80036;stroke-width:1.0;"/><text fill="#000000" font-family="sans-serif" font-size="13" lengthAdjust="spacing" textLength="5" x="196.5828" y="447.003">*</text><!--MD5=[c7dea752933930c2bf2b8682093906a6]
link GetCommandTypesBase to CommandDTO--><path codeLine="54" d="M253.35,398.22 C286.5,418.51 324.44,441.74 356.93,461.62 " fill="none" id="GetCommandTypesBase-to-CommandDTO" style="stroke:#A80036;stroke-width:1.0;"/><polygon fill="#A80036" points="361.27,464.28,355.6939,456.1617,357.0093,461.6635,351.5075,462.9789,361.27,464.28" style="stroke:#A80036;stroke-width:1.0;"/><text fill="#000000" font-family="sans-serif" font-size="13" lengthAdjust="spacing" textLength="7" x="342.6738" y="453.6904">1</text><!--MD5=[64f9d6a0a3fcda2ce9251178d1e3d7b8]
@startuml
class ParamDTO {
    +Name?: string
    +Type?: string
    +{static} TypeId: Guid
}
class BaseDTO {
    +Id?: string
    +Type?: string
    +{static} TypeId: Guid
}
class TypeDTO extends BaseDTO {
    +{static} TypeId: Guid
}
class CommandTypeDTO extends TypeDTO {
    +Name?: string
    +Result?: string
    +Parameters?: ParamDTO[]
    +{static} TypeId: Guid
}
class CommandWrapper {
    -_dto: any
    -_service: any
    +Service: any
    +DTO: any
    +Response: boolean
    +Arguments: any[]
    +Type: Guid
    +Id: Guid
    +getArgument(name: string): any
    +setArgument(name: string, value: string): void
    +executeCmd(): Promise<any>
    -{static} _factories: any
    +{static} register(typeId: Guid, factory: CommandWrapperFactory): void
}
class PropertyDTO {
    +Name?: string
    +Value?: any
    +{static} TypeId: Guid
}
class CommandDTO extends BaseDTO {
    +Response?: boolean
    +Arguments?: PropertyDTO[]
    +{static} TypeId: Guid
}
class GetCommandTypesBase extends CommandWrapper {
    +Result: CommandTypeDTO[]
    +execute(): Promise<CommandTypeDTO[]>
    +{static} TypeId: Guid
    +{static} IsForMe(dto: CommandDTO): any
}
CommandTypeDTO - -> "*" ParamDTO
CommandDTO - -> "*" PropertyDTO
GetCommandTypesBase - -> "*" CommandTypeDTO
GetCommandTypesBase - -> "1" CommandDTO
@enduml

PlantUML version 1.2021.10(Mon Aug 30 15:43:48 CEST 2021)
(GPL source distribution)
Java Runtime: Java(TM) SE Runtime Environment
JVM: Java HotSpot(TM) 64-Bit Server VM
Default Encoding: Cp1252
Language: de
Country: CH
--></g></svg>