<?xml version="1.0" encoding="UTF-8" standalone="no"?><svg xmlns="http://www.w3.org/2000/svg" xmlns:xlink="http://www.w3.org/1999/xlink" contentScriptType="application/ecmascript" contentStyleType="text/css" height="711px" preserveAspectRatio="none" style="width:532px;height:711px;background:#FFFFFF;" version="1.1" viewBox="0 0 532 711" width="532px" zoomAndPan="magnify"><defs><filter height="300%" id="f1ea2wv3w4qfum" width="300%" x="-1" y="-1"><feGaussianBlur result="blurOut" stdDeviation="2.0"/><feColorMatrix in="blurOut" result="blurOut2" type="matrix" values="0 0 0 0 0 0 0 0 0 0 0 0 0 0 0 0 0 0 .4 0"/><feOffset dx="4.0" dy="4.0" in="blurOut2" result="blurOut3"/><feBlend in="SourceGraphic" in2="blurOut3" mode="normal"/></filter></defs><g><!--MD5=[adcaf87a0f7899a1769dae0aaa630dd2]
class PropertyTypeDTO--><rect codeLine="1" fill="#FEFECE" filter="url(#f1ea2wv3w4qfum)" height="89.5078" id="PropertyTypeDTO" style="stroke:#A80036;stroke-width:1.5;" width="128" x="141.5" y="608"/><ellipse cx="156.5" cy="624" fill="#ADD1B2" rx="11" ry="11" style="stroke:#A80036;stroke-width:1.0;"/><path d="M159.2656,619.875 Q159.4219,619.6563 159.6094,619.5469 Q159.7969,619.4375 160.0156,619.4375 Q160.3906,619.4375 160.625,619.6953 Q160.8594,619.9531 160.8594,620.5625 L160.8594,622.0156 Q160.8594,622.625 160.625,622.8906 Q160.3906,623.1563 160.0156,623.1563 Q159.6719,623.1563 159.4688,622.9531 Q159.2656,622.7656 159.1563,622.25 Q159.1094,621.8906 158.9219,621.7031 Q158.5938,621.3281 157.9844,621.1094 Q157.375,620.8906 156.75,620.8906 Q155.9844,620.8906 155.3516,621.2188 Q154.7188,621.5469 154.2266,622.2969 Q153.7344,623.0469 153.7344,624.0781 L153.7344,625.1719 Q153.7344,626.4063 154.625,627.2266 Q155.5156,628.0469 157.1094,628.0469 Q158.0469,628.0469 158.7031,627.7969 Q159.0938,627.6406 159.5156,627.2031 Q159.7813,626.9375 159.9297,626.8594 Q160.0781,626.7813 160.2813,626.7813 Q160.6094,626.7813 160.8672,627.0391 Q161.125,627.2969 161.125,627.6406 Q161.125,627.9844 160.7813,628.3906 Q160.2813,628.9688 159.4844,629.2969 Q158.4063,629.75 157.1094,629.75 Q155.5938,629.75 154.3906,629.125 Q153.4063,628.625 152.7188,627.5547 Q152.0313,626.4844 152.0313,625.2031 L152.0313,624.0469 Q152.0313,622.7188 152.6484,621.5703 Q153.2656,620.4219 154.3594,619.8047 Q155.4531,619.1875 156.6875,619.1875 Q157.4219,619.1875 158.0703,619.3516 Q158.7188,619.5156 159.2656,619.875 Z " fill="#000000"/><text fill="#000000" font-family="sans-serif" font-size="12" lengthAdjust="spacing" textLength="96" x="170.5" y="628.9102">PropertyTypeDTO</text><line style="stroke:#A80036;stroke-width:1.5;" x1="142.5" x2="268.5" y1="640" y2="640"/><ellipse cx="152.5" cy="651" rx="3" ry="3" style="stroke:#038048;stroke-width:1.0;fill:none;"/><text fill="#000000" font-family="sans-serif" font-size="11" lengthAdjust="spacing" textLength="66" x="161.5" y="655.4189">Name?: string</text><ellipse cx="152.5" cy="664.8359" rx="3" ry="3" style="stroke:#038048;stroke-width:1.0;fill:none;"/><text fill="#000000" font-family="sans-serif" font-size="11" lengthAdjust="spacing" textLength="63" x="161.5" y="669.2549">Type?: string</text><ellipse cx="152.5" cy="678.6719" rx="3" ry="3" style="stroke:#038048;stroke-width:1.0;fill:none;"/><text fill="#000000" font-family="sans-serif" font-size="11" lengthAdjust="spacing" text-decoration="underline" textLength="60" x="161.5" y="683.0908">TypeId: Guid</text><line style="stroke:#A80036;stroke-width:1.5;" x1="142.5" x2="268.5" y1="689.5078" y2="689.5078"/><!--MD5=[6b1d3384926f1bc892ee196bbd0d7fce]
class BaseDTO--><rect codeLine="6" fill="#FEFECE" filter="url(#f1ea2wv3w4qfum)" height="89.5078" id="BaseDTO" style="stroke:#A80036;stroke-width:1.5;" width="89" x="390" y="76"/><ellipse cx="406.35" cy="92" fill="#ADD1B2" rx="11" ry="11" style="stroke:#A80036;stroke-width:1.0;"/><path d="M409.1156,87.875 Q409.2719,87.6563 409.4594,87.5469 Q409.6469,87.4375 409.8656,87.4375 Q410.2406,87.4375 410.475,87.6953 Q410.7094,87.9531 410.7094,88.5625 L410.7094,90.0156 Q410.7094,90.625 410.475,90.8906 Q410.2406,91.1563 409.8656,91.1563 Q409.5219,91.1563 409.3188,90.9531 Q409.1156,90.7656 409.0063,90.25 Q408.9594,89.8906 408.7719,89.7031 Q408.4438,89.3281 407.8344,89.1094 Q407.225,88.8906 406.6,88.8906 Q405.8344,88.8906 405.2016,89.2188 Q404.5688,89.5469 404.0766,90.2969 Q403.5844,91.0469 403.5844,92.0781 L403.5844,93.1719 Q403.5844,94.4063 404.475,95.2266 Q405.3656,96.0469 406.9594,96.0469 Q407.8969,96.0469 408.5531,95.7969 Q408.9438,95.6406 409.3656,95.2031 Q409.6313,94.9375 409.7797,94.8594 Q409.9281,94.7813 410.1313,94.7813 Q410.4594,94.7813 410.7172,95.0391 Q410.975,95.2969 410.975,95.6406 Q410.975,95.9844 410.6313,96.3906 Q410.1313,96.9688 409.3344,97.2969 Q408.2563,97.75 406.9594,97.75 Q405.4438,97.75 404.2406,97.125 Q403.2563,96.625 402.5688,95.5547 Q401.8813,94.4844 401.8813,93.2031 L401.8813,92.0469 Q401.8813,90.7188 402.4984,89.5703 Q403.1156,88.4219 404.2094,87.8047 Q405.3031,87.1875 406.5375,87.1875 Q407.2719,87.1875 407.9203,87.3516 Q408.5688,87.5156 409.1156,87.875 Z " fill="#000000"/><text fill="#000000" font-family="sans-serif" font-size="12" lengthAdjust="spacing" textLength="54" x="420.65" y="96.9102">BaseDTO</text><line style="stroke:#A80036;stroke-width:1.5;" x1="391" x2="478" y1="108" y2="108"/><ellipse cx="401" cy="119" rx="3" ry="3" style="stroke:#038048;stroke-width:1.0;fill:none;"/><text fill="#000000" font-family="sans-serif" font-size="11" lengthAdjust="spacing" textLength="47" x="410" y="123.4189">Id?: string</text><ellipse cx="401" cy="132.8359" rx="3" ry="3" style="stroke:#038048;stroke-width:1.0;fill:none;"/><text fill="#000000" font-family="sans-serif" font-size="11" lengthAdjust="spacing" textLength="63" x="410" y="137.2549">Type?: string</text><ellipse cx="401" cy="146.6719" rx="3" ry="3" style="stroke:#038048;stroke-width:1.0;fill:none;"/><text fill="#000000" font-family="sans-serif" font-size="11" lengthAdjust="spacing" text-decoration="underline" textLength="60" x="410" y="151.0908">TypeId: Guid</text><line style="stroke:#A80036;stroke-width:1.5;" x1="391" x2="478" y1="157.5078" y2="157.5078"/><!--MD5=[ab65f1b894babecd782f1df810423109]
class TypeDTO--><rect codeLine="11" fill="#FEFECE" filter="url(#f1ea2wv3w4qfum)" height="75.6719" id="TypeDTO" style="stroke:#A80036;stroke-width:1.5;" width="92" x="311.5" y="308.5"/><ellipse cx="330.55" cy="324.5" fill="#ADD1B2" rx="11" ry="11" style="stroke:#A80036;stroke-width:1.0;"/><path d="M333.3156,320.375 Q333.4719,320.1563 333.6594,320.0469 Q333.8469,319.9375 334.0656,319.9375 Q334.4406,319.9375 334.675,320.1953 Q334.9094,320.4531 334.9094,321.0625 L334.9094,322.5156 Q334.9094,323.125 334.675,323.3906 Q334.4406,323.6563 334.0656,323.6563 Q333.7219,323.6563 333.5188,323.4531 Q333.3156,323.2656 333.2063,322.75 Q333.1594,322.3906 332.9719,322.2031 Q332.6438,321.8281 332.0344,321.6094 Q331.425,321.3906 330.8,321.3906 Q330.0344,321.3906 329.4016,321.7188 Q328.7688,322.0469 328.2766,322.7969 Q327.7844,323.5469 327.7844,324.5781 L327.7844,325.6719 Q327.7844,326.9063 328.675,327.7266 Q329.5656,328.5469 331.1594,328.5469 Q332.0969,328.5469 332.7531,328.2969 Q333.1438,328.1406 333.5656,327.7031 Q333.8313,327.4375 333.9797,327.3594 Q334.1281,327.2813 334.3313,327.2813 Q334.6594,327.2813 334.9172,327.5391 Q335.175,327.7969 335.175,328.1406 Q335.175,328.4844 334.8313,328.8906 Q334.3313,329.4688 333.5344,329.7969 Q332.4563,330.25 331.1594,330.25 Q329.6438,330.25 328.4406,329.625 Q327.4563,329.125 326.7688,328.0547 Q326.0813,326.9844 326.0813,325.7031 L326.0813,324.5469 Q326.0813,323.2188 326.6984,322.0703 Q327.3156,320.9219 328.4094,320.3047 Q329.5031,319.6875 330.7375,319.6875 Q331.4719,319.6875 332.1203,319.8516 Q332.7688,320.0156 333.3156,320.375 Z " fill="#000000"/><text fill="#000000" font-family="sans-serif" font-size="12" lengthAdjust="spacing" textLength="51" x="345.45" y="329.4102">TypeDTO</text><line style="stroke:#A80036;stroke-width:1.5;" x1="312.5" x2="402.5" y1="340.5" y2="340.5"/><ellipse cx="322.5" cy="351.5" rx="3" ry="3" style="stroke:#038048;stroke-width:1.0;fill:none;"/><text fill="#000000" font-family="sans-serif" font-size="11" lengthAdjust="spacing" textLength="66" x="331.5" y="355.9189">Name?: string</text><ellipse cx="322.5" cy="365.3359" rx="3" ry="3" style="stroke:#038048;stroke-width:1.0;fill:none;"/><text fill="#000000" font-family="sans-serif" font-size="11" lengthAdjust="spacing" text-decoration="underline" textLength="60" x="331.5" y="369.7549">TypeId: Guid</text><line style="stroke:#A80036;stroke-width:1.5;" x1="312.5" x2="402.5" y1="376.1719" y2="376.1719"/><!--MD5=[8060d30fa6f79f6c54fa345adc431432]
class ObjectTypeDTO--><rect codeLine="15" fill="#FEFECE" filter="url(#f1ea2wv3w4qfum)" height="75.6719" id="ObjectTypeDTO" style="stroke:#A80036;stroke-width:1.5;" width="201" x="105" y="465"/><ellipse cx="158.25" cy="481" fill="#ADD1B2" rx="11" ry="11" style="stroke:#A80036;stroke-width:1.0;"/><path d="M161.0156,476.875 Q161.1719,476.6563 161.3594,476.5469 Q161.5469,476.4375 161.7656,476.4375 Q162.1406,476.4375 162.375,476.6953 Q162.6094,476.9531 162.6094,477.5625 L162.6094,479.0156 Q162.6094,479.625 162.375,479.8906 Q162.1406,480.1563 161.7656,480.1563 Q161.4219,480.1563 161.2188,479.9531 Q161.0156,479.7656 160.9063,479.25 Q160.8594,478.8906 160.6719,478.7031 Q160.3438,478.3281 159.7344,478.1094 Q159.125,477.8906 158.5,477.8906 Q157.7344,477.8906 157.1016,478.2188 Q156.4688,478.5469 155.9766,479.2969 Q155.4844,480.0469 155.4844,481.0781 L155.4844,482.1719 Q155.4844,483.4063 156.375,484.2266 Q157.2656,485.0469 158.8594,485.0469 Q159.7969,485.0469 160.4531,484.7969 Q160.8438,484.6406 161.2656,484.2031 Q161.5313,483.9375 161.6797,483.8594 Q161.8281,483.7813 162.0313,483.7813 Q162.3594,483.7813 162.6172,484.0391 Q162.875,484.2969 162.875,484.6406 Q162.875,484.9844 162.5313,485.3906 Q162.0313,485.9688 161.2344,486.2969 Q160.1563,486.75 158.8594,486.75 Q157.3438,486.75 156.1406,486.125 Q155.1563,485.625 154.4688,484.5547 Q153.7813,483.4844 153.7813,482.2031 L153.7813,481.0469 Q153.7813,479.7188 154.3984,478.5703 Q155.0156,477.4219 156.1094,476.8047 Q157.2031,476.1875 158.4375,476.1875 Q159.1719,476.1875 159.8203,476.3516 Q160.4688,476.5156 161.0156,476.875 Z " fill="#000000"/><text fill="#000000" font-family="sans-serif" font-size="12" lengthAdjust="spacing" textLength="86" x="178.75" y="485.9102">ObjectTypeDTO</text><line style="stroke:#A80036;stroke-width:1.5;" x1="106" x2="305" y1="497" y2="497"/><ellipse cx="116" cy="508" rx="3" ry="3" style="stroke:#038048;stroke-width:1.0;fill:none;"/><text fill="#000000" font-family="sans-serif" font-size="11" lengthAdjust="spacing" textLength="175" x="125" y="512.4189">PropertyTypes?: PropertyTypeDTO[]</text><ellipse cx="116" cy="521.8359" rx="3" ry="3" style="stroke:#038048;stroke-width:1.0;fill:none;"/><text fill="#000000" font-family="sans-serif" font-size="11" lengthAdjust="spacing" text-decoration="underline" textLength="60" x="125" y="526.2549">TypeId: Guid</text><line style="stroke:#A80036;stroke-width:1.5;" x1="106" x2="305" y1="532.6719" y2="532.6719"/><!--MD5=[fe6b2754769bc87cf156126798433078]
class CommandWrapper--><rect codeLine="19" fill="#FEFECE" filter="url(#f1ea2wv3w4qfum)" height="227.8672" id="CommandWrapper" style="stroke:#A80036;stroke-width:1.5;" width="327" x="7" y="7"/><ellipse cx="113.25" cy="23" fill="#ADD1B2" rx="11" ry="11" style="stroke:#A80036;stroke-width:1.0;"/><path d="M116.0156,18.875 Q116.1719,18.6563 116.3594,18.5469 Q116.5469,18.4375 116.7656,18.4375 Q117.1406,18.4375 117.375,18.6953 Q117.6094,18.9531 117.6094,19.5625 L117.6094,21.0156 Q117.6094,21.625 117.375,21.8906 Q117.1406,22.1563 116.7656,22.1563 Q116.4219,22.1563 116.2188,21.9531 Q116.0156,21.7656 115.9063,21.25 Q115.8594,20.8906 115.6719,20.7031 Q115.3438,20.3281 114.7344,20.1094 Q114.125,19.8906 113.5,19.8906 Q112.7344,19.8906 112.1016,20.2188 Q111.4688,20.5469 110.9766,21.2969 Q110.4844,22.0469 110.4844,23.0781 L110.4844,24.1719 Q110.4844,25.4063 111.375,26.2266 Q112.2656,27.0469 113.8594,27.0469 Q114.7969,27.0469 115.4531,26.7969 Q115.8438,26.6406 116.2656,26.2031 Q116.5313,25.9375 116.6797,25.8594 Q116.8281,25.7813 117.0313,25.7813 Q117.3594,25.7813 117.6172,26.0391 Q117.875,26.2969 117.875,26.6406 Q117.875,26.9844 117.5313,27.3906 Q117.0313,27.9688 116.2344,28.2969 Q115.1563,28.75 113.8594,28.75 Q112.3438,28.75 111.1406,28.125 Q110.1563,27.625 109.4688,26.5547 Q108.7813,25.4844 108.7813,24.2031 L108.7813,23.0469 Q108.7813,21.7188 109.3984,20.5703 Q110.0156,19.4219 111.1094,18.8047 Q112.2031,18.1875 113.4375,18.1875 Q114.1719,18.1875 114.8203,18.3516 Q115.4688,18.5156 116.0156,18.875 Z " fill="#000000"/><text fill="#000000" font-family="sans-serif" font-size="12" lengthAdjust="spacing" textLength="106" x="133.75" y="27.9102">CommandWrapper</text><line style="stroke:#A80036;stroke-width:1.5;" x1="8" x2="333" y1="39" y2="39"/><rect fill="none" height="6" style="stroke:#C82930;stroke-width:1.0;" width="6" x="15" y="47"/><text fill="#000000" font-family="sans-serif" font-size="11" lengthAdjust="spacing" textLength="45" x="27" y="54.4189">_dto: any</text><rect fill="none" height="6" style="stroke:#C82930;stroke-width:1.0;" width="6" x="15" y="60.8359"/><text fill="#000000" font-family="sans-serif" font-size="11" lengthAdjust="spacing" textLength="66" x="27" y="68.2549">_service: any</text><ellipse cx="18" cy="77.6719" rx="3" ry="3" style="stroke:#038048;stroke-width:1.0;fill:none;"/><text fill="#000000" font-family="sans-serif" font-size="11" lengthAdjust="spacing" textLength="61" x="27" y="82.0908">Service: any</text><ellipse cx="18" cy="91.5078" rx="3" ry="3" style="stroke:#038048;stroke-width:1.0;fill:none;"/><text fill="#000000" font-family="sans-serif" font-size="11" lengthAdjust="spacing" textLength="45" x="27" y="95.9268">DTO: any</text><ellipse cx="18" cy="105.3438" rx="3" ry="3" style="stroke:#038048;stroke-width:1.0;fill:none;"/><text fill="#000000" font-family="sans-serif" font-size="11" lengthAdjust="spacing" textLength="93" x="27" y="109.7627">Response: boolean</text><ellipse cx="18" cy="119.1797" rx="3" ry="3" style="stroke:#038048;stroke-width:1.0;fill:none;"/><text fill="#000000" font-family="sans-serif" font-size="11" lengthAdjust="spacing" textLength="83" x="27" y="123.5986">Arguments: any[]</text><ellipse cx="18" cy="133.0156" rx="3" ry="3" style="stroke:#038048;stroke-width:1.0;fill:none;"/><text fill="#000000" font-family="sans-serif" font-size="11" lengthAdjust="spacing" textLength="52" x="27" y="137.4346">Type: Guid</text><ellipse cx="18" cy="146.8516" rx="3" ry="3" style="stroke:#038048;stroke-width:1.0;fill:none;"/><text fill="#000000" font-family="sans-serif" font-size="11" lengthAdjust="spacing" textLength="36" x="27" y="151.2705">Id: Guid</text><rect fill="none" height="6" style="stroke:#C82930;stroke-width:1.0;" width="6" x="15" y="157.6875"/><text fill="#000000" font-family="sans-serif" font-size="11" lengthAdjust="spacing" text-decoration="underline" textLength="73" x="27" y="165.1064">_factories: any</text><line style="stroke:#A80036;stroke-width:1.5;" x1="8" x2="333" y1="171.5234" y2="171.5234"/><ellipse cx="18" cy="182.5234" fill="#84BE84" rx="3" ry="3" style="stroke:#038048;stroke-width:1.0;"/><text fill="#000000" font-family="sans-serif" font-size="11" lengthAdjust="spacing" textLength="153" x="27" y="186.9424">getArgument(name: string): any</text><ellipse cx="18" cy="196.3594" fill="#84BE84" rx="3" ry="3" style="stroke:#038048;stroke-width:1.0;"/><text fill="#000000" font-family="sans-serif" font-size="11" lengthAdjust="spacing" textLength="220" x="27" y="200.7783">setArgument(name: string, value: string): void</text><ellipse cx="18" cy="210.1953" fill="#84BE84" rx="3" ry="3" style="stroke:#038048;stroke-width:1.0;"/><text fill="#000000" font-family="sans-serif" font-size="11" lengthAdjust="spacing" textLength="142" x="27" y="214.6143">executeCmd(): Promise&lt;any&gt;</text><ellipse cx="18" cy="224.0313" fill="#84BE84" rx="3" ry="3" style="stroke:#038048;stroke-width:1.0;"/><text fill="#000000" font-family="sans-serif" font-size="11" lengthAdjust="spacing" text-decoration="underline" textLength="301" x="27" y="228.4502">register(typeId: Guid, factory: CommandWrapperFactory): void</text><!--MD5=[a8c0967d7b66f43265179b07355379df]
class PropertyDTO--><rect codeLine="34" fill="#FEFECE" filter="url(#f1ea2wv3w4qfum)" height="89.5078" id="PropertyDTO" style="stroke:#A80036;stroke-width:1.5;" width="102" x="387.5" y="608"/><ellipse cx="402.5" cy="624" fill="#ADD1B2" rx="11" ry="11" style="stroke:#A80036;stroke-width:1.0;"/><path d="M405.2656,619.875 Q405.4219,619.6563 405.6094,619.5469 Q405.7969,619.4375 406.0156,619.4375 Q406.3906,619.4375 406.625,619.6953 Q406.8594,619.9531 406.8594,620.5625 L406.8594,622.0156 Q406.8594,622.625 406.625,622.8906 Q406.3906,623.1563 406.0156,623.1563 Q405.6719,623.1563 405.4688,622.9531 Q405.2656,622.7656 405.1563,622.25 Q405.1094,621.8906 404.9219,621.7031 Q404.5938,621.3281 403.9844,621.1094 Q403.375,620.8906 402.75,620.8906 Q401.9844,620.8906 401.3516,621.2188 Q400.7188,621.5469 400.2266,622.2969 Q399.7344,623.0469 399.7344,624.0781 L399.7344,625.1719 Q399.7344,626.4063 400.625,627.2266 Q401.5156,628.0469 403.1094,628.0469 Q404.0469,628.0469 404.7031,627.7969 Q405.0938,627.6406 405.5156,627.2031 Q405.7813,626.9375 405.9297,626.8594 Q406.0781,626.7813 406.2813,626.7813 Q406.6094,626.7813 406.8672,627.0391 Q407.125,627.2969 407.125,627.6406 Q407.125,627.9844 406.7813,628.3906 Q406.2813,628.9688 405.4844,629.2969 Q404.4063,629.75 403.1094,629.75 Q401.5938,629.75 400.3906,629.125 Q399.4063,628.625 398.7188,627.5547 Q398.0313,626.4844 398.0313,625.2031 L398.0313,624.0469 Q398.0313,622.7188 398.6484,621.5703 Q399.2656,620.4219 400.3594,619.8047 Q401.4531,619.1875 402.6875,619.1875 Q403.4219,619.1875 404.0703,619.3516 Q404.7188,619.5156 405.2656,619.875 Z " fill="#000000"/><text fill="#000000" font-family="sans-serif" font-size="12" lengthAdjust="spacing" textLength="70" x="416.5" y="628.9102">PropertyDTO</text><line style="stroke:#A80036;stroke-width:1.5;" x1="388.5" x2="488.5" y1="640" y2="640"/><ellipse cx="398.5" cy="651" rx="3" ry="3" style="stroke:#038048;stroke-width:1.0;fill:none;"/><text fill="#000000" font-family="sans-serif" font-size="11" lengthAdjust="spacing" textLength="66" x="407.5" y="655.4189">Name?: string</text><ellipse cx="398.5" cy="664.8359" rx="3" ry="3" style="stroke:#038048;stroke-width:1.0;fill:none;"/><text fill="#000000" font-family="sans-serif" font-size="11" lengthAdjust="spacing" textLength="67" x="407.5" y="669.2549">Value?: string</text><ellipse cx="398.5" cy="678.6719" rx="3" ry="3" style="stroke:#038048;stroke-width:1.0;fill:none;"/><text fill="#000000" font-family="sans-serif" font-size="11" lengthAdjust="spacing" text-decoration="underline" textLength="60" x="407.5" y="683.0908">TypeId: Guid</text><line style="stroke:#A80036;stroke-width:1.5;" x1="388.5" x2="488.5" y1="689.5078" y2="689.5078"/><!--MD5=[f5d54f60ec6d089d1cb017027d5a65a8]
class CommandDTO--><rect codeLine="39" fill="#FEFECE" filter="url(#f1ea2wv3w4qfum)" height="89.5078" id="CommandDTO" style="stroke:#A80036;stroke-width:1.5;" width="159" x="359" y="458"/><ellipse cx="393.35" cy="474" fill="#ADD1B2" rx="11" ry="11" style="stroke:#A80036;stroke-width:1.0;"/><path d="M396.1156,469.875 Q396.2719,469.6563 396.4594,469.5469 Q396.6469,469.4375 396.8656,469.4375 Q397.2406,469.4375 397.475,469.6953 Q397.7094,469.9531 397.7094,470.5625 L397.7094,472.0156 Q397.7094,472.625 397.475,472.8906 Q397.2406,473.1563 396.8656,473.1563 Q396.5219,473.1563 396.3188,472.9531 Q396.1156,472.7656 396.0063,472.25 Q395.9594,471.8906 395.7719,471.7031 Q395.4438,471.3281 394.8344,471.1094 Q394.225,470.8906 393.6,470.8906 Q392.8344,470.8906 392.2016,471.2188 Q391.5688,471.5469 391.0766,472.2969 Q390.5844,473.0469 390.5844,474.0781 L390.5844,475.1719 Q390.5844,476.4063 391.475,477.2266 Q392.3656,478.0469 393.9594,478.0469 Q394.8969,478.0469 395.5531,477.7969 Q395.9438,477.6406 396.3656,477.2031 Q396.6313,476.9375 396.7797,476.8594 Q396.9281,476.7813 397.1313,476.7813 Q397.4594,476.7813 397.7172,477.0391 Q397.975,477.2969 397.975,477.6406 Q397.975,477.9844 397.6313,478.3906 Q397.1313,478.9688 396.3344,479.2969 Q395.2563,479.75 393.9594,479.75 Q392.4438,479.75 391.2406,479.125 Q390.2563,478.625 389.5688,477.5547 Q388.8813,476.4844 388.8813,475.2031 L388.8813,474.0469 Q388.8813,472.7188 389.4984,471.5703 Q390.1156,470.4219 391.2094,469.8047 Q392.3031,469.1875 393.5375,469.1875 Q394.2719,469.1875 394.9203,469.3516 Q395.5688,469.5156 396.1156,469.875 Z " fill="#000000"/><text fill="#000000" font-family="sans-serif" font-size="12" lengthAdjust="spacing" textLength="84" x="411.65" y="478.9102">CommandDTO</text><line style="stroke:#A80036;stroke-width:1.5;" x1="360" x2="517" y1="490" y2="490"/><ellipse cx="370" cy="501" rx="3" ry="3" style="stroke:#038048;stroke-width:1.0;fill:none;"/><text fill="#000000" font-family="sans-serif" font-size="11" lengthAdjust="spacing" textLength="99" x="379" y="505.4189">Response?: boolean</text><ellipse cx="370" cy="514.8359" rx="3" ry="3" style="stroke:#038048;stroke-width:1.0;fill:none;"/><text fill="#000000" font-family="sans-serif" font-size="11" lengthAdjust="spacing" textLength="133" x="379" y="519.2549">Arguments?: PropertyDTO[]</text><ellipse cx="370" cy="528.6719" rx="3" ry="3" style="stroke:#038048;stroke-width:1.0;fill:none;"/><text fill="#000000" font-family="sans-serif" font-size="11" lengthAdjust="spacing" text-decoration="underline" textLength="60" x="379" y="533.0908">TypeId: Guid</text><line style="stroke:#A80036;stroke-width:1.5;" x1="360" x2="517" y1="539.5078" y2="539.5078"/><!--MD5=[4ffdb160fb7c2cb67a3488971115b57e]
class GetObjectTypesBase--><rect codeLine="44" fill="#FEFECE" filter="url(#f1ea2wv3w4qfum)" height="103.3438" id="GetObjectTypesBase" style="stroke:#A80036;stroke-width:1.5;" width="211" x="65" y="295"/><ellipse cx="108.35" cy="311" fill="#ADD1B2" rx="11" ry="11" style="stroke:#A80036;stroke-width:1.0;"/><path d="M111.1156,306.875 Q111.2719,306.6563 111.4594,306.5469 Q111.6469,306.4375 111.8656,306.4375 Q112.2406,306.4375 112.475,306.6953 Q112.7094,306.9531 112.7094,307.5625 L112.7094,309.0156 Q112.7094,309.625 112.475,309.8906 Q112.2406,310.1563 111.8656,310.1563 Q111.5219,310.1563 111.3188,309.9531 Q111.1156,309.7656 111.0063,309.25 Q110.9594,308.8906 110.7719,308.7031 Q110.4438,308.3281 109.8344,308.1094 Q109.225,307.8906 108.6,307.8906 Q107.8344,307.8906 107.2016,308.2188 Q106.5688,308.5469 106.0766,309.2969 Q105.5844,310.0469 105.5844,311.0781 L105.5844,312.1719 Q105.5844,313.4063 106.475,314.2266 Q107.3656,315.0469 108.9594,315.0469 Q109.8969,315.0469 110.5531,314.7969 Q110.9438,314.6406 111.3656,314.2031 Q111.6313,313.9375 111.7797,313.8594 Q111.9281,313.7813 112.1313,313.7813 Q112.4594,313.7813 112.7172,314.0391 Q112.975,314.2969 112.975,314.6406 Q112.975,314.9844 112.6313,315.3906 Q112.1313,315.9688 111.3344,316.2969 Q110.2563,316.75 108.9594,316.75 Q107.4438,316.75 106.2406,316.125 Q105.2563,315.625 104.5688,314.5547 Q103.8813,313.4844 103.8813,312.2031 L103.8813,311.0469 Q103.8813,309.7188 104.4984,308.5703 Q105.1156,307.4219 106.2094,306.8047 Q107.3031,306.1875 108.5375,306.1875 Q109.2719,306.1875 109.9203,306.3516 Q110.5688,306.5156 111.1156,306.875 Z " fill="#000000"/><text fill="#000000" font-family="sans-serif" font-size="12" lengthAdjust="spacing" textLength="116" x="128.65" y="315.9102">GetObjectTypesBase</text><line style="stroke:#A80036;stroke-width:1.5;" x1="66" x2="275" y1="327" y2="327"/><ellipse cx="76" cy="338" rx="3" ry="3" style="stroke:#038048;stroke-width:1.0;fill:none;"/><text fill="#000000" font-family="sans-serif" font-size="11" lengthAdjust="spacing" textLength="118" x="85" y="342.4189">Result: ObjectTypeDTO[]</text><ellipse cx="76" cy="351.8359" rx="3" ry="3" style="stroke:#038048;stroke-width:1.0;fill:none;"/><text fill="#000000" font-family="sans-serif" font-size="11" lengthAdjust="spacing" text-decoration="underline" textLength="60" x="85" y="356.2549">TypeId: Guid</text><line style="stroke:#A80036;stroke-width:1.5;" x1="66" x2="275" y1="362.6719" y2="362.6719"/><ellipse cx="76" cy="373.6719" fill="#84BE84" rx="3" ry="3" style="stroke:#038048;stroke-width:1.0;"/><text fill="#000000" font-family="sans-serif" font-size="11" lengthAdjust="spacing" textLength="185" x="85" y="378.0908">execute(): Promise&lt;ObjectTypeDTO[]&gt;</text><ellipse cx="76" cy="387.5078" fill="#84BE84" rx="3" ry="3" style="stroke:#038048;stroke-width:1.0;"/><text fill="#000000" font-family="sans-serif" font-size="11" lengthAdjust="spacing" text-decoration="underline" textLength="159" x="85" y="391.9268">IsForMe(dto: CommandDTO): any</text><!--MD5=[d40922a5f4b5f53a84548686e17be8ce]
reverse link BaseDTO to TypeDTO--><path d="M412.69,185.32 C398.98,225.1 381.78,275.02 370.26,308.47 " fill="none" id="BaseDTO-backto-TypeDTO" style="stroke:#A80036;stroke-width:1.0;"/><polygon fill="none" points="406.15,182.79,419.29,166.16,419.39,187.35,406.15,182.79" style="stroke:#A80036;stroke-width:1.0;"/><!--MD5=[c0afaa7853e5f3f34d21476f739d0cf7]
reverse link TypeDTO to ObjectTypeDTO--><path d="M306.99,398.84 C285.78,420.4 261.59,444.99 242.14,464.76 " fill="none" id="TypeDTO-backto-ObjectTypeDTO" style="stroke:#A80036;stroke-width:1.0;"/><polygon fill="none" points="302.08,393.85,321.09,384.51,312.06,403.67,302.08,393.85" style="stroke:#A80036;stroke-width:1.0;"/><!--MD5=[9714f00bbee80ca7b140c29ae529c8eb]
reverse link BaseDTO to CommandDTO--><path d="M435.18,186.72 C435.99,264.01 437.33,391.19 438.04,457.95 " fill="none" id="BaseDTO-backto-CommandDTO" style="stroke:#A80036;stroke-width:1.0;"/><polygon fill="none" points="428.18,186.41,434.97,166.33,442.18,186.26,428.18,186.41" style="stroke:#A80036;stroke-width:1.0;"/><!--MD5=[80db1c5ff0c8d834ee3c7b850efa6681]
reverse link CommandWrapper to GetObjectTypesBase--><path d="M170.5,255.13 C170.5,269.17 170.5,282.74 170.5,294.92 " fill="none" id="CommandWrapper-backto-GetObjectTypesBase" style="stroke:#A80036;stroke-width:1.0;"/><polygon fill="none" points="163.5,255.06,170.5,235.06,177.5,255.06,163.5,255.06" style="stroke:#A80036;stroke-width:1.0;"/><!--MD5=[a04a6e24803ad5ef1dc89e1336b5c6ec]
link ObjectTypeDTO to PropertyTypeDTO--><path codeLine="50" d="M205.5,541.35 C205.5,559.98 205.5,582.75 205.5,602.79 " fill="none" id="ObjectTypeDTO-to-PropertyTypeDTO" style="stroke:#A80036;stroke-width:1.0;"/><polygon fill="#A80036" points="205.5,607.82,209.5,598.82,205.5,602.82,201.5,598.82,205.5,607.82" style="stroke:#A80036;stroke-width:1.0;"/><text fill="#000000" font-family="sans-serif" font-size="13" lengthAdjust="spacing" textLength="5" x="200.1172" y="597.2365">*</text><!--MD5=[92fdb8409966ab8b3f648f5668444010]
link CommandDTO to PropertyDTO--><path codeLine="51" d="M438.5,548 C438.5,565.15 438.5,584.87 438.5,602.51 " fill="none" id="CommandDTO-to-PropertyDTO" style="stroke:#A80036;stroke-width:1.0;"/><polygon fill="#A80036" points="438.5,607.91,442.5,598.91,438.5,602.91,434.5,598.91,438.5,607.91" style="stroke:#A80036;stroke-width:1.0;"/><text fill="#000000" font-family="sans-serif" font-size="13" lengthAdjust="spacing" textLength="5" x="433.1016" y="597.0111">*</text><!--MD5=[9ccc2b97acf8f488c0fe32d1ebbd3bab]
link GetObjectTypesBase to ObjectTypeDTO--><path codeLine="52" d="M181.96,398.09 C186.44,417.88 191.53,440.33 195.82,459.28 " fill="none" id="GetObjectTypesBase-to-ObjectTypeDTO" style="stroke:#A80036;stroke-width:1.0;"/><polygon fill="#A80036" points="197.01,464.53,198.9294,454.87,195.9087,459.6528,191.1259,456.6321,197.01,464.53" style="stroke:#A80036;stroke-width:1.0;"/><text fill="#000000" font-family="sans-serif" font-size="13" lengthAdjust="spacing" textLength="5" x="190.1211" y="454.0965">*</text><!--MD5=[cfdf42a44e6b9e5e5b04e4ea06dcdf82]
link GetObjectTypesBase to CommandDTO--><path codeLine="53" d="M258.25,398.09 C290.12,416.46 325.96,437.12 357.24,455.15 " fill="none" id="GetObjectTypesBase-to-CommandDTO" style="stroke:#A80036;stroke-width:1.0;"/><polygon fill="#A80036" points="361.82,457.79,356.027,449.825,357.4903,455.2893,352.0259,456.7526,361.82,457.79" style="stroke:#A80036;stroke-width:1.0;"/><text fill="#000000" font-family="sans-serif" font-size="13" lengthAdjust="spacing" textLength="7" x="344.0458" y="448.1917">1</text><!--MD5=[020dd4d5c0d4322cb355b5c98cb17e37]
@startuml
class PropertyTypeDTO {
    +Name?: string
    +Type?: string
    +{static} TypeId: Guid
}
class BaseDTO {
    +Id?: string
    +Type?: string
    +{static} TypeId: Guid
}
class TypeDTO extends BaseDTO {
    +Name?: string
    +{static} TypeId: Guid
}
class ObjectTypeDTO extends TypeDTO {
    +PropertyTypes?: PropertyTypeDTO[]
    +{static} TypeId: Guid
}
class CommandWrapper {
    -_dto: any
    -_service: any
    +Service: any
    +DTO: any
    +Response: boolean
    +Arguments: any[]
    +Type: Guid
    +Id: Guid
    +getArgument(name: string): any
    +setArgument(name: string, value: string): void
    +executeCmd(): Promise<any>
    -{static} _factories: any
    +{static} register(typeId: Guid, factory: CommandWrapperFactory): void
}
class PropertyDTO {
    +Name?: string
    +Value?: string
    +{static} TypeId: Guid
}
class CommandDTO extends BaseDTO {
    +Response?: boolean
    +Arguments?: PropertyDTO[]
    +{static} TypeId: Guid
}
class GetObjectTypesBase extends CommandWrapper {
    +Result: ObjectTypeDTO[]
    +execute(): Promise<ObjectTypeDTO[]>
    +{static} TypeId: Guid
    +{static} IsForMe(dto: CommandDTO): any
}
ObjectTypeDTO - -> "*" PropertyTypeDTO
CommandDTO - -> "*" PropertyDTO
GetObjectTypesBase - -> "*" ObjectTypeDTO
GetObjectTypesBase - -> "1" CommandDTO
@enduml

PlantUML version 1.2021.10(Mon Aug 30 15:43:48 CEST 2021)
(GPL source distribution)
Java Runtime: Java(TM) SE Runtime Environment
JVM: Java HotSpot(TM) Client VM
Default Encoding: Cp1252
Language: de
Country: CH
--></g></svg>