<?xml version="1.0" encoding="UTF-8" standalone="no"?><svg xmlns="http://www.w3.org/2000/svg" xmlns:xlink="http://www.w3.org/1999/xlink" contentScriptType="application/ecmascript" contentStyleType="text/css" height="739px" preserveAspectRatio="none" style="width:469px;height:739px;background:#FFFFFF;" version="1.1" viewBox="0 0 469 739" width="469px" zoomAndPan="magnify"><defs><filter height="300%" id="f1gfm1toq1b82h" width="300%" x="-1" y="-1"><feGaussianBlur result="blurOut" stdDeviation="2.0"/><feColorMatrix in="blurOut" result="blurOut2" type="matrix" values="0 0 0 0 0 0 0 0 0 0 0 0 0 0 0 0 0 0 .4 0"/><feOffset dx="4.0" dy="4.0" in="blurOut2" result="blurOut3"/><feBlend in="SourceGraphic" in2="blurOut3" mode="normal"/></filter></defs><g><!--MD5=[fe6b2754769bc87cf156126798433078]
class CommandWrapper--><rect codeLine="1" fill="#FEFECE" filter="url(#f1gfm1toq1b82h)" height="214.0313" id="CommandWrapper" style="stroke:#A80036;stroke-width:1.5;" width="327" x="7" y="7"/><ellipse cx="113.25" cy="23" fill="#ADD1B2" rx="11" ry="11" style="stroke:#A80036;stroke-width:1.0;"/><path d="M116.0156,18.875 Q116.1719,18.6563 116.3594,18.5469 Q116.5469,18.4375 116.7656,18.4375 Q117.1406,18.4375 117.375,18.6953 Q117.6094,18.9531 117.6094,19.5625 L117.6094,21.0156 Q117.6094,21.625 117.375,21.8906 Q117.1406,22.1563 116.7656,22.1563 Q116.4219,22.1563 116.2188,21.9531 Q116.0156,21.7656 115.9063,21.25 Q115.8594,20.8906 115.6719,20.7031 Q115.3438,20.3281 114.7344,20.1094 Q114.125,19.8906 113.5,19.8906 Q112.7344,19.8906 112.1016,20.2188 Q111.4688,20.5469 110.9766,21.2969 Q110.4844,22.0469 110.4844,23.0781 L110.4844,24.1719 Q110.4844,25.4063 111.375,26.2266 Q112.2656,27.0469 113.8594,27.0469 Q114.7969,27.0469 115.4531,26.7969 Q115.8438,26.6406 116.2656,26.2031 Q116.5313,25.9375 116.6797,25.8594 Q116.8281,25.7813 117.0313,25.7813 Q117.3594,25.7813 117.6172,26.0391 Q117.875,26.2969 117.875,26.6406 Q117.875,26.9844 117.5313,27.3906 Q117.0313,27.9688 116.2344,28.2969 Q115.1563,28.75 113.8594,28.75 Q112.3438,28.75 111.1406,28.125 Q110.1563,27.625 109.4688,26.5547 Q108.7813,25.4844 108.7813,24.2031 L108.7813,23.0469 Q108.7813,21.7188 109.3984,20.5703 Q110.0156,19.4219 111.1094,18.8047 Q112.2031,18.1875 113.4375,18.1875 Q114.1719,18.1875 114.8203,18.3516 Q115.4688,18.5156 116.0156,18.875 Z " fill="#000000"/><text fill="#000000" font-family="sans-serif" font-size="12" lengthAdjust="spacing" textLength="106" x="133.75" y="27.9102">CommandWrapper</text><line style="stroke:#A80036;stroke-width:1.5;" x1="8" x2="333" y1="39" y2="39"/><rect fill="none" height="6" style="stroke:#C82930;stroke-width:1.0;" width="6" x="15" y="47"/><text fill="#000000" font-family="sans-serif" font-size="11" lengthAdjust="spacing" textLength="45" x="27" y="54.4189">_dto: any</text><rect fill="none" height="6" style="stroke:#C82930;stroke-width:1.0;" width="6" x="15" y="60.8359"/><text fill="#000000" font-family="sans-serif" font-size="11" lengthAdjust="spacing" textLength="66" x="27" y="68.2549">_service: any</text><ellipse cx="18" cy="77.6719" rx="3" ry="3" style="stroke:#038048;stroke-width:1.0;fill:none;"/><text fill="#000000" font-family="sans-serif" font-size="11" lengthAdjust="spacing" textLength="61" x="27" y="82.0908">Service: any</text><ellipse cx="18" cy="91.5078" rx="3" ry="3" style="stroke:#038048;stroke-width:1.0;fill:none;"/><text fill="#000000" font-family="sans-serif" font-size="11" lengthAdjust="spacing" textLength="45" x="27" y="95.9268">DTO: any</text><ellipse cx="18" cy="105.3438" rx="3" ry="3" style="stroke:#038048;stroke-width:1.0;fill:none;"/><text fill="#000000" font-family="sans-serif" font-size="11" lengthAdjust="spacing" textLength="93" x="27" y="109.7627">Response: boolean</text><ellipse cx="18" cy="119.1797" rx="3" ry="3" style="stroke:#038048;stroke-width:1.0;fill:none;"/><text fill="#000000" font-family="sans-serif" font-size="11" lengthAdjust="spacing" textLength="83" x="27" y="123.5986">Arguments: any[]</text><ellipse cx="18" cy="133.0156" rx="3" ry="3" style="stroke:#038048;stroke-width:1.0;fill:none;"/><text fill="#000000" font-family="sans-serif" font-size="11" lengthAdjust="spacing" textLength="52" x="27" y="137.4346">Type: Guid</text><ellipse cx="18" cy="146.8516" rx="3" ry="3" style="stroke:#038048;stroke-width:1.0;fill:none;"/><text fill="#000000" font-family="sans-serif" font-size="11" lengthAdjust="spacing" textLength="36" x="27" y="151.2705">Id: Guid</text><rect fill="none" height="6" style="stroke:#C82930;stroke-width:1.0;" width="6" x="15" y="157.6875"/><text fill="#000000" font-family="sans-serif" font-size="11" lengthAdjust="spacing" text-decoration="underline" textLength="73" x="27" y="165.1064">_factories: any</text><line style="stroke:#A80036;stroke-width:1.5;" x1="8" x2="333" y1="171.5234" y2="171.5234"/><ellipse cx="18" cy="182.5234" fill="#84BE84" rx="3" ry="3" style="stroke:#038048;stroke-width:1.0;"/><text fill="#000000" font-family="sans-serif" font-size="11" lengthAdjust="spacing" textLength="153" x="27" y="186.9424">getArgument(name: string): any</text><ellipse cx="18" cy="196.3594" fill="#84BE84" rx="3" ry="3" style="stroke:#038048;stroke-width:1.0;"/><text fill="#000000" font-family="sans-serif" font-size="11" lengthAdjust="spacing" textLength="220" x="27" y="200.7783">setArgument(name: string, value: string): void</text><ellipse cx="18" cy="210.1953" fill="#84BE84" rx="3" ry="3" style="stroke:#038048;stroke-width:1.0;"/><text fill="#000000" font-family="sans-serif" font-size="11" lengthAdjust="spacing" text-decoration="underline" textLength="301" x="27" y="214.6143">register(typeId: Guid, factory: CommandWrapperFactory): void</text><!--MD5=[a8c0967d7b66f43265179b07355379df]
class PropertyDTO--><rect codeLine="15" fill="#FEFECE" filter="url(#f1gfm1toq1b82h)" height="89.5078" id="PropertyDTO" style="stroke:#A80036;stroke-width:1.5;" width="102" x="240.5" y="636"/><ellipse cx="255.5" cy="652" fill="#ADD1B2" rx="11" ry="11" style="stroke:#A80036;stroke-width:1.0;"/><path d="M258.2656,647.875 Q258.4219,647.6563 258.6094,647.5469 Q258.7969,647.4375 259.0156,647.4375 Q259.3906,647.4375 259.625,647.6953 Q259.8594,647.9531 259.8594,648.5625 L259.8594,650.0156 Q259.8594,650.625 259.625,650.8906 Q259.3906,651.1563 259.0156,651.1563 Q258.6719,651.1563 258.4688,650.9531 Q258.2656,650.7656 258.1563,650.25 Q258.1094,649.8906 257.9219,649.7031 Q257.5938,649.3281 256.9844,649.1094 Q256.375,648.8906 255.75,648.8906 Q254.9844,648.8906 254.3516,649.2188 Q253.7188,649.5469 253.2266,650.2969 Q252.7344,651.0469 252.7344,652.0781 L252.7344,653.1719 Q252.7344,654.4063 253.625,655.2266 Q254.5156,656.0469 256.1094,656.0469 Q257.0469,656.0469 257.7031,655.7969 Q258.0938,655.6406 258.5156,655.2031 Q258.7813,654.9375 258.9297,654.8594 Q259.0781,654.7813 259.2813,654.7813 Q259.6094,654.7813 259.8672,655.0391 Q260.125,655.2969 260.125,655.6406 Q260.125,655.9844 259.7813,656.3906 Q259.2813,656.9688 258.4844,657.2969 Q257.4063,657.75 256.1094,657.75 Q254.5938,657.75 253.3906,657.125 Q252.4063,656.625 251.7188,655.5547 Q251.0313,654.4844 251.0313,653.2031 L251.0313,652.0469 Q251.0313,650.7188 251.6484,649.5703 Q252.2656,648.4219 253.3594,647.8047 Q254.4531,647.1875 255.6875,647.1875 Q256.4219,647.1875 257.0703,647.3516 Q257.7188,647.5156 258.2656,647.875 Z " fill="#000000"/><text fill="#000000" font-family="sans-serif" font-size="12" lengthAdjust="spacing" textLength="70" x="269.5" y="656.9102">PropertyDTO</text><line style="stroke:#A80036;stroke-width:1.5;" x1="241.5" x2="341.5" y1="668" y2="668"/><ellipse cx="251.5" cy="679" rx="3" ry="3" style="stroke:#038048;stroke-width:1.0;fill:none;"/><text fill="#000000" font-family="sans-serif" font-size="11" lengthAdjust="spacing" textLength="66" x="260.5" y="683.4189">Name?: string</text><ellipse cx="251.5" cy="692.8359" rx="3" ry="3" style="stroke:#038048;stroke-width:1.0;fill:none;"/><text fill="#000000" font-family="sans-serif" font-size="11" lengthAdjust="spacing" textLength="67" x="260.5" y="697.2549">Value?: string</text><ellipse cx="251.5" cy="706.6719" rx="3" ry="3" style="stroke:#038048;stroke-width:1.0;fill:none;"/><text fill="#000000" font-family="sans-serif" font-size="11" lengthAdjust="spacing" text-decoration="underline" textLength="60" x="260.5" y="711.0908">TypeId: Guid</text><line style="stroke:#A80036;stroke-width:1.5;" x1="241.5" x2="341.5" y1="717.5078" y2="717.5078"/><!--MD5=[6b1d3384926f1bc892ee196bbd0d7fce]
class BaseDTO--><rect codeLine="20" fill="#FEFECE" filter="url(#f1gfm1toq1b82h)" height="89.5078" id="BaseDTO" style="stroke:#A80036;stroke-width:1.5;" width="86" x="369.5" y="308.5"/><ellipse cx="384.5" cy="324.5" fill="#ADD1B2" rx="11" ry="11" style="stroke:#A80036;stroke-width:1.0;"/><path d="M387.2656,320.375 Q387.4219,320.1563 387.6094,320.0469 Q387.7969,319.9375 388.0156,319.9375 Q388.3906,319.9375 388.625,320.1953 Q388.8594,320.4531 388.8594,321.0625 L388.8594,322.5156 Q388.8594,323.125 388.625,323.3906 Q388.3906,323.6563 388.0156,323.6563 Q387.6719,323.6563 387.4688,323.4531 Q387.2656,323.2656 387.1563,322.75 Q387.1094,322.3906 386.9219,322.2031 Q386.5938,321.8281 385.9844,321.6094 Q385.375,321.3906 384.75,321.3906 Q383.9844,321.3906 383.3516,321.7188 Q382.7188,322.0469 382.2266,322.7969 Q381.7344,323.5469 381.7344,324.5781 L381.7344,325.6719 Q381.7344,326.9063 382.625,327.7266 Q383.5156,328.5469 385.1094,328.5469 Q386.0469,328.5469 386.7031,328.2969 Q387.0938,328.1406 387.5156,327.7031 Q387.7813,327.4375 387.9297,327.3594 Q388.0781,327.2813 388.2813,327.2813 Q388.6094,327.2813 388.8672,327.5391 Q389.125,327.7969 389.125,328.1406 Q389.125,328.4844 388.7813,328.8906 Q388.2813,329.4688 387.4844,329.7969 Q386.4063,330.25 385.1094,330.25 Q383.5938,330.25 382.3906,329.625 Q381.4063,329.125 380.7188,328.0547 Q380.0313,326.9844 380.0313,325.7031 L380.0313,324.5469 Q380.0313,323.2188 380.6484,322.0703 Q381.2656,320.9219 382.3594,320.3047 Q383.4531,319.6875 384.6875,319.6875 Q385.4219,319.6875 386.0703,319.8516 Q386.7188,320.0156 387.2656,320.375 Z " fill="#000000"/><text fill="#000000" font-family="sans-serif" font-size="12" lengthAdjust="spacing" textLength="54" x="398.5" y="329.4102">BaseDTO</text><line style="stroke:#A80036;stroke-width:1.5;" x1="370.5" x2="454.5" y1="340.5" y2="340.5"/><ellipse cx="380.5" cy="351.5" rx="3" ry="3" style="stroke:#038048;stroke-width:1.0;fill:none;"/><text fill="#000000" font-family="sans-serif" font-size="11" lengthAdjust="spacing" textLength="42" x="389.5" y="355.9189">Id?: Guid</text><ellipse cx="380.5" cy="365.3359" rx="3" ry="3" style="stroke:#038048;stroke-width:1.0;fill:none;"/><text fill="#000000" font-family="sans-serif" font-size="11" lengthAdjust="spacing" textLength="58" x="389.5" y="369.7549">Type?: Guid</text><ellipse cx="380.5" cy="379.1719" rx="3" ry="3" style="stroke:#038048;stroke-width:1.0;fill:none;"/><text fill="#000000" font-family="sans-serif" font-size="11" lengthAdjust="spacing" text-decoration="underline" textLength="60" x="389.5" y="383.5908">TypeId: Guid</text><line style="stroke:#A80036;stroke-width:1.5;" x1="370.5" x2="454.5" y1="390.0078" y2="390.0078"/><!--MD5=[f5d54f60ec6d089d1cb017027d5a65a8]
class CommandDTO--><rect codeLine="25" fill="#FEFECE" filter="url(#f1gfm1toq1b82h)" height="89.5078" id="CommandDTO" style="stroke:#A80036;stroke-width:1.5;" width="159" x="212" y="486"/><ellipse cx="246.35" cy="502" fill="#ADD1B2" rx="11" ry="11" style="stroke:#A80036;stroke-width:1.0;"/><path d="M249.1156,497.875 Q249.2719,497.6563 249.4594,497.5469 Q249.6469,497.4375 249.8656,497.4375 Q250.2406,497.4375 250.475,497.6953 Q250.7094,497.9531 250.7094,498.5625 L250.7094,500.0156 Q250.7094,500.625 250.475,500.8906 Q250.2406,501.1563 249.8656,501.1563 Q249.5219,501.1563 249.3188,500.9531 Q249.1156,500.7656 249.0063,500.25 Q248.9594,499.8906 248.7719,499.7031 Q248.4438,499.3281 247.8344,499.1094 Q247.225,498.8906 246.6,498.8906 Q245.8344,498.8906 245.2016,499.2188 Q244.5688,499.5469 244.0766,500.2969 Q243.5844,501.0469 243.5844,502.0781 L243.5844,503.1719 Q243.5844,504.4063 244.475,505.2266 Q245.3656,506.0469 246.9594,506.0469 Q247.8969,506.0469 248.5531,505.7969 Q248.9438,505.6406 249.3656,505.2031 Q249.6313,504.9375 249.7797,504.8594 Q249.9281,504.7813 250.1313,504.7813 Q250.4594,504.7813 250.7172,505.0391 Q250.975,505.2969 250.975,505.6406 Q250.975,505.9844 250.6313,506.3906 Q250.1313,506.9688 249.3344,507.2969 Q248.2563,507.75 246.9594,507.75 Q245.4438,507.75 244.2406,507.125 Q243.2563,506.625 242.5688,505.5547 Q241.8813,504.4844 241.8813,503.2031 L241.8813,502.0469 Q241.8813,500.7188 242.4984,499.5703 Q243.1156,498.4219 244.2094,497.8047 Q245.3031,497.1875 246.5375,497.1875 Q247.2719,497.1875 247.9203,497.3516 Q248.5688,497.5156 249.1156,497.875 Z " fill="#000000"/><text fill="#000000" font-family="sans-serif" font-size="12" lengthAdjust="spacing" textLength="84" x="264.65" y="506.9102">CommandDTO</text><line style="stroke:#A80036;stroke-width:1.5;" x1="213" x2="370" y1="518" y2="518"/><ellipse cx="223" cy="529" rx="3" ry="3" style="stroke:#038048;stroke-width:1.0;fill:none;"/><text fill="#000000" font-family="sans-serif" font-size="11" lengthAdjust="spacing" textLength="99" x="232" y="533.4189">Response?: boolean</text><ellipse cx="223" cy="542.8359" rx="3" ry="3" style="stroke:#038048;stroke-width:1.0;fill:none;"/><text fill="#000000" font-family="sans-serif" font-size="11" lengthAdjust="spacing" textLength="133" x="232" y="547.2549">Arguments?: PropertyDTO[]</text><ellipse cx="223" cy="556.6719" rx="3" ry="3" style="stroke:#038048;stroke-width:1.0;fill:none;"/><text fill="#000000" font-family="sans-serif" font-size="11" lengthAdjust="spacing" text-decoration="underline" textLength="60" x="232" y="561.0908">TypeId: Guid</text><line style="stroke:#A80036;stroke-width:1.5;" x1="213" x2="370" y1="567.5078" y2="567.5078"/><!--MD5=[5028acb1ad848fe54f3352ddc9da499a]
class SampleCommandBase--><rect codeLine="30" fill="#FEFECE" filter="url(#f1gfm1toq1b82h)" height="144.8516" id="SampleCommandBase" style="stroke:#A80036;stroke-width:1.5;" width="327" x="7" y="281"/><ellipse cx="100.75" cy="297" fill="#ADD1B2" rx="11" ry="11" style="stroke:#A80036;stroke-width:1.0;"/><path d="M103.5156,292.875 Q103.6719,292.6563 103.8594,292.5469 Q104.0469,292.4375 104.2656,292.4375 Q104.6406,292.4375 104.875,292.6953 Q105.1094,292.9531 105.1094,293.5625 L105.1094,295.0156 Q105.1094,295.625 104.875,295.8906 Q104.6406,296.1563 104.2656,296.1563 Q103.9219,296.1563 103.7188,295.9531 Q103.5156,295.7656 103.4063,295.25 Q103.3594,294.8906 103.1719,294.7031 Q102.8438,294.3281 102.2344,294.1094 Q101.625,293.8906 101,293.8906 Q100.2344,293.8906 99.6016,294.2188 Q98.9688,294.5469 98.4766,295.2969 Q97.9844,296.0469 97.9844,297.0781 L97.9844,298.1719 Q97.9844,299.4063 98.875,300.2266 Q99.7656,301.0469 101.3594,301.0469 Q102.2969,301.0469 102.9531,300.7969 Q103.3438,300.6406 103.7656,300.2031 Q104.0313,299.9375 104.1797,299.8594 Q104.3281,299.7813 104.5313,299.7813 Q104.8594,299.7813 105.1172,300.0391 Q105.375,300.2969 105.375,300.6406 Q105.375,300.9844 105.0313,301.3906 Q104.5313,301.9688 103.7344,302.2969 Q102.6563,302.75 101.3594,302.75 Q99.8438,302.75 98.6406,302.125 Q97.6563,301.625 96.9688,300.5547 Q96.2813,299.4844 96.2813,298.2031 L96.2813,297.0469 Q96.2813,295.7188 96.8984,294.5703 Q97.5156,293.4219 98.6094,292.8047 Q99.7031,292.1875 100.9375,292.1875 Q101.6719,292.1875 102.3203,292.3516 Q102.9688,292.5156 103.5156,292.875 Z " fill="#000000"/><text fill="#000000" font-family="sans-serif" font-size="12" lengthAdjust="spacing" textLength="131" x="121.25" y="301.9102">SampleCommandBase</text><line style="stroke:#A80036;stroke-width:1.5;" x1="8" x2="333" y1="313" y2="313"/><ellipse cx="18" cy="324" rx="3" ry="3" style="stroke:#038048;stroke-width:1.0;fill:none;"/><text fill="#000000" font-family="sans-serif" font-size="11" lengthAdjust="spacing" textLength="74" x="27" y="328.4189">FirstOne: string</text><ellipse cx="18" cy="337.8359" rx="3" ry="3" style="stroke:#038048;stroke-width:1.0;fill:none;"/><text fill="#000000" font-family="sans-serif" font-size="11" lengthAdjust="spacing" textLength="74" x="27" y="342.2549">FirstOne: string</text><ellipse cx="18" cy="351.6719" rx="3" ry="3" style="stroke:#038048;stroke-width:1.0;fill:none;"/><text fill="#000000" font-family="sans-serif" font-size="11" lengthAdjust="spacing" textLength="101" x="27" y="356.0908">SecondOne: boolean</text><ellipse cx="18" cy="365.5078" rx="3" ry="3" style="stroke:#038048;stroke-width:1.0;fill:none;"/><text fill="#000000" font-family="sans-serif" font-size="11" lengthAdjust="spacing" textLength="101" x="27" y="369.9268">SecondOne: boolean</text><ellipse cx="18" cy="379.3438" rx="3" ry="3" style="stroke:#038048;stroke-width:1.0;fill:none;"/><text fill="#000000" font-family="sans-serif" font-size="11" lengthAdjust="spacing" text-decoration="underline" textLength="60" x="27" y="383.7627">TypeId: Guid</text><line style="stroke:#A80036;stroke-width:1.5;" x1="8" x2="333" y1="390.1797" y2="390.1797"/><ellipse cx="18" cy="401.1797" fill="#84BE84" rx="3" ry="3" style="stroke:#038048;stroke-width:1.0;"/><text fill="#000000" font-family="sans-serif" font-size="11" lengthAdjust="spacing" textLength="301" x="27" y="405.5986">execute(firstOne: string, secondOne: boolean): Promise&lt;void&gt;</text><ellipse cx="18" cy="415.0156" fill="#84BE84" rx="3" ry="3" style="stroke:#038048;stroke-width:1.0;"/><text fill="#000000" font-family="sans-serif" font-size="11" lengthAdjust="spacing" text-decoration="underline" textLength="179" x="27" y="419.4346">IsForMe(dto: CommandDTO): boolean</text><!--MD5=[9714f00bbee80ca7b140c29ae529c8eb]
reverse link BaseDTO to CommandDTO--><path d="M370.5,415.42 C354.55,438.55 336.71,464.43 322.02,485.73 " fill="none" id="BaseDTO-backto-CommandDTO" style="stroke:#A80036;stroke-width:1.0;"/><polygon fill="none" points="364.85,411.28,381.97,398.79,376.38,419.23,364.85,411.28" style="stroke:#A80036;stroke-width:1.0;"/><!--MD5=[5a1616f8975dc1e2331e346405051b1a]
reverse link CommandWrapper to SampleCommandBase--><path d="M170.5,241.61 C170.5,255.02 170.5,268.29 170.5,280.75 " fill="none" id="CommandWrapper-backto-SampleCommandBase" style="stroke:#A80036;stroke-width:1.0;"/><polygon fill="none" points="163.5,241.25,170.5,221.25,177.5,241.25,163.5,241.25" style="stroke:#A80036;stroke-width:1.0;"/><!--MD5=[92fdb8409966ab8b3f648f5668444010]
link CommandDTO to PropertyDTO--><path codeLine="39" d="M291.5,576 C291.5,593.15 291.5,612.87 291.5,630.51 " fill="none" id="CommandDTO-to-PropertyDTO" style="stroke:#A80036;stroke-width:1.0;"/><polygon fill="#A80036" points="291.5,635.91,295.5,626.91,291.5,630.91,287.5,626.91,291.5,635.91" style="stroke:#A80036;stroke-width:1.0;"/><text fill="#000000" font-family="sans-serif" font-size="13" lengthAdjust="spacing" textLength="5" x="286.1016" y="625.0111">*</text><!--MD5=[a244f601d43a2fbf84040b53f12b791b]
link SampleCommandBase to CommandDTO--><path codeLine="40" d="M219.89,426.14 C232.72,444.75 246.24,464.36 258.04,481.47 " fill="none" id="SampleCommandBase-to-CommandDTO" style="stroke:#A80036;stroke-width:1.0;"/><polygon fill="#A80036" points="261,485.76,259.1746,476.0818,258.1577,481.6465,252.593,480.6295,261,485.76" style="stroke:#A80036;stroke-width:1.0;"/><text fill="#000000" font-family="sans-serif" font-size="13" lengthAdjust="spacing" textLength="7" x="248.7938" y="475.1673">1</text><!--MD5=[ab8f7a0b0de8fbb5938a850259252833]
@startuml
class CommandWrapper {
    -_dto: any
    -_service: any
    +Service: any
    +DTO: any
    +Response: boolean
    +Arguments: any[]
    +Type: Guid
    +Id: Guid
    +getArgument(name: string): any
    +setArgument(name: string, value: string): void
    -{static} _factories: any
    +{static} register(typeId: Guid, factory: CommandWrapperFactory): void
}
class PropertyDTO {
    +Name?: string
    +Value?: string
    +{static} TypeId: Guid
}
class BaseDTO {
    +Id?: Guid
    +Type?: Guid
    +{static} TypeId: Guid
}
class CommandDTO extends BaseDTO {
    +Response?: boolean
    +Arguments?: PropertyDTO[]
    +{static} TypeId: Guid
}
class SampleCommandBase extends CommandWrapper {
    +FirstOne: string
    +FirstOne: string
    +SecondOne: boolean
    +SecondOne: boolean
    +execute(firstOne: string, secondOne: boolean): Promise<void>
    +{static} TypeId: Guid
    +{static} IsForMe(dto: CommandDTO): boolean
}
CommandDTO - -> "*" PropertyDTO
SampleCommandBase - -> "1" CommandDTO
@enduml

PlantUML version 1.2021.10(Mon Aug 30 15:43:48 CEST 2021)
(GPL source distribution)
Java Runtime: Java(TM) SE Runtime Environment
JVM: Java HotSpot(TM) Client VM
Default Encoding: Cp1252
Language: de
Country: CH
--></g></svg>