<?xml version="1.0" encoding="UTF-8" standalone="no"?><svg xmlns="http://www.w3.org/2000/svg" xmlns:xlink="http://www.w3.org/1999/xlink" contentScriptType="application/ecmascript" contentStyleType="text/css" height="836px" preserveAspectRatio="none" style="width:471px;height:836px;background:#FFFFFF;" version="1.1" viewBox="0 0 471 836" width="471px" zoomAndPan="magnify"><defs><filter height="300%" id="foa8d4l9ienyf" width="300%" x="-1" y="-1"><feGaussianBlur result="blurOut" stdDeviation="2.0"/><feColorMatrix in="blurOut" result="blurOut2" type="matrix" values="0 0 0 0 0 0 0 0 0 0 0 0 0 0 0 0 0 0 .4 0"/><feOffset dx="4.0" dy="4.0" in="blurOut2" result="blurOut3"/><feBlend in="SourceGraphic" in2="blurOut3" mode="normal"/></filter></defs><g><!--MD5=[6b1d3384926f1bc892ee196bbd0d7fce]
class BaseDTO--><rect codeLine="1" fill="#FEFECE" filter="url(#foa8d4l9ienyf)" height="89.5078" id="BaseDTO" style="stroke:#A80036;stroke-width:1.5;" width="89" x="7" y="329.5"/><ellipse cx="23.35" cy="345.5" fill="#ADD1B2" rx="11" ry="11" style="stroke:#A80036;stroke-width:1.0;"/><path d="M26.1156,341.375 Q26.2719,341.1563 26.4594,341.0469 Q26.6469,340.9375 26.8656,340.9375 Q27.2406,340.9375 27.475,341.2031 Q27.7094,341.4531 27.7094,342.0625 L27.7094,343.5156 Q27.7094,344.125 27.475,344.3906 Q27.2406,344.6563 26.8656,344.6563 Q26.5219,344.6563 26.3188,344.4531 Q26.1156,344.2656 26.0063,343.75 Q25.9594,343.3906 25.7719,343.2031 Q25.4438,342.8281 24.8344,342.6094 Q24.225,342.3906 23.6,342.3906 Q22.8344,342.3906 22.1938,342.7188 Q21.5688,343.0469 21.0688,343.7969 Q20.5844,344.5469 20.5844,345.5781 L20.5844,346.6719 Q20.5844,347.9063 21.475,348.7344 Q22.3656,349.5469 23.9594,349.5469 Q24.8969,349.5469 25.5531,349.2969 Q25.9438,349.1406 26.3656,348.7031 Q26.6313,348.4375 26.7719,348.3594 Q26.9281,348.2813 27.1313,348.2813 Q27.4594,348.2813 27.7094,348.5469 Q27.975,348.7969 27.975,349.1406 Q27.975,349.4844 27.6313,349.8906 Q27.1313,350.4688 26.3344,350.7969 Q25.2563,351.25 23.9594,351.25 Q22.4438,351.25 21.2406,350.625 Q20.2563,350.125 19.5688,349.0625 Q18.8813,347.9844 18.8813,346.7031 L18.8813,345.5469 Q18.8813,344.2188 19.4906,343.0781 Q20.1156,341.9219 21.2094,341.3125 Q22.3031,340.6875 23.5375,340.6875 Q24.2719,340.6875 24.9125,340.8594 Q25.5688,341.0156 26.1156,341.375 Z " fill="#000000"/><text fill="#000000" font-family="sans-serif" font-size="12" lengthAdjust="spacing" textLength="54" x="37.65" y="350.4102">BaseDTO</text><line style="stroke:#A80036;stroke-width:1.5;" x1="8" x2="95" y1="361.5" y2="361.5"/><ellipse cx="18" cy="372.5" rx="3" ry="3" style="stroke:#038048;stroke-width:1.0;fill:none;"/><text fill="#000000" font-family="sans-serif" font-size="11" lengthAdjust="spacing" textLength="47" x="27" y="376.9189">Id?: string</text><ellipse cx="18" cy="386.3359" rx="3" ry="3" style="stroke:#038048;stroke-width:1.0;fill:none;"/><text fill="#000000" font-family="sans-serif" font-size="11" lengthAdjust="spacing" textLength="63" x="27" y="390.7549">Type?: string</text><ellipse cx="18" cy="400.1719" rx="3" ry="3" style="stroke:#038048;stroke-width:1.0;fill:none;"/><text fill="#000000" font-family="sans-serif" font-size="11" lengthAdjust="spacing" text-decoration="underline" textLength="60" x="27" y="404.5908">TypeId: Guid</text><line style="stroke:#A80036;stroke-width:1.5;" x1="8" x2="95" y1="411.0078" y2="411.0078"/><!--MD5=[a5d4fcdae0bd58dbfa0890c54d6b74e5]
class AdressDTO--><rect codeLine="6" fill="#FEFECE" filter="url(#foa8d4l9ienyf)" height="158.6875" id="AdressDTO" style="stroke:#A80036;stroke-width:1.5;" width="132" x="15.5" y="514"/><ellipse cx="46.7" cy="530" fill="#ADD1B2" rx="11" ry="11" style="stroke:#A80036;stroke-width:1.0;"/><path d="M49.4656,525.875 Q49.6219,525.6563 49.8094,525.5469 Q49.9969,525.4375 50.2156,525.4375 Q50.5906,525.4375 50.825,525.7031 Q51.0594,525.9531 51.0594,526.5625 L51.0594,528.0156 Q51.0594,528.625 50.825,528.8906 Q50.5906,529.1563 50.2156,529.1563 Q49.8719,529.1563 49.6688,528.9531 Q49.4656,528.7656 49.3563,528.25 Q49.3094,527.8906 49.1219,527.7031 Q48.7938,527.3281 48.1844,527.1094 Q47.575,526.8906 46.95,526.8906 Q46.1844,526.8906 45.5438,527.2188 Q44.9188,527.5469 44.4188,528.2969 Q43.9344,529.0469 43.9344,530.0781 L43.9344,531.1719 Q43.9344,532.4063 44.825,533.2344 Q45.7156,534.0469 47.3094,534.0469 Q48.2469,534.0469 48.9031,533.7969 Q49.2938,533.6406 49.7156,533.2031 Q49.9813,532.9375 50.1219,532.8594 Q50.2781,532.7813 50.4813,532.7813 Q50.8094,532.7813 51.0594,533.0469 Q51.325,533.2969 51.325,533.6406 Q51.325,533.9844 50.9813,534.3906 Q50.4813,534.9688 49.6844,535.2969 Q48.6063,535.75 47.3094,535.75 Q45.7938,535.75 44.5906,535.125 Q43.6063,534.625 42.9188,533.5625 Q42.2313,532.4844 42.2313,531.2031 L42.2313,530.0469 Q42.2313,528.7188 42.8406,527.5781 Q43.4656,526.4219 44.5594,525.8125 Q45.6531,525.1875 46.8875,525.1875 Q47.6219,525.1875 48.2625,525.3594 Q48.9188,525.5156 49.4656,525.875 Z " fill="#000000"/><text fill="#000000" font-family="sans-serif" font-size="12" lengthAdjust="spacing" textLength="64" x="64.3" y="534.9102">AdressDTO</text><line style="stroke:#A80036;stroke-width:1.5;" x1="16.5" x2="146.5" y1="546" y2="546"/><ellipse cx="26.5" cy="557" rx="3" ry="3" style="stroke:#038048;stroke-width:1.0;fill:none;"/><text fill="#000000" font-family="sans-serif" font-size="11" lengthAdjust="spacing" textLength="72" x="35.5" y="561.4189">Name1?: string</text><ellipse cx="26.5" cy="570.8359" rx="3" ry="3" style="stroke:#038048;stroke-width:1.0;fill:none;"/><text fill="#000000" font-family="sans-serif" font-size="11" lengthAdjust="spacing" textLength="72" x="35.5" y="575.2549">Name2?: string</text><ellipse cx="26.5" cy="584.6719" rx="3" ry="3" style="stroke:#038048;stroke-width:1.0;fill:none;"/><text fill="#000000" font-family="sans-serif" font-size="11" lengthAdjust="spacing" textLength="81" x="35.5" y="589.0908">Adress1?: string</text><ellipse cx="26.5" cy="598.5078" rx="3" ry="3" style="stroke:#038048;stroke-width:1.0;fill:none;"/><text fill="#000000" font-family="sans-serif" font-size="11" lengthAdjust="spacing" textLength="81" x="35.5" y="602.9268">Adress2?: string</text><ellipse cx="26.5" cy="612.3438" rx="3" ry="3" style="stroke:#038048;stroke-width:1.0;fill:none;"/><text fill="#000000" font-family="sans-serif" font-size="11" lengthAdjust="spacing" textLength="106" x="35.5" y="616.7627">Housenumber?: string</text><ellipse cx="26.5" cy="626.1797" rx="3" ry="3" style="stroke:#038048;stroke-width:1.0;fill:none;"/><text fill="#000000" font-family="sans-serif" font-size="11" lengthAdjust="spacing" textLength="57" x="35.5" y="630.5986">City?: string</text><ellipse cx="26.5" cy="640.0156" rx="3" ry="3" style="stroke:#038048;stroke-width:1.0;fill:none;"/><text fill="#000000" font-family="sans-serif" font-size="11" lengthAdjust="spacing" textLength="84" x="35.5" y="644.4346">Postcode?: string</text><ellipse cx="26.5" cy="653.8516" rx="3" ry="3" style="stroke:#038048;stroke-width:1.0;fill:none;"/><text fill="#000000" font-family="sans-serif" font-size="11" lengthAdjust="spacing" text-decoration="underline" textLength="60" x="35.5" y="658.2705">TypeId: Guid</text><line style="stroke:#A80036;stroke-width:1.5;" x1="16.5" x2="146.5" y1="664.6875" y2="664.6875"/><!--MD5=[fe6b2754769bc87cf156126798433078]
class CommandWrapper--><rect codeLine="16" fill="#FEFECE" filter="url(#foa8d4l9ienyf)" height="227.8672" id="CommandWrapper" style="stroke:#A80036;stroke-width:1.5;" width="327" x="130" y="7"/><ellipse cx="236.25" cy="23" fill="#ADD1B2" rx="11" ry="11" style="stroke:#A80036;stroke-width:1.0;"/><path d="M239.0156,18.875 Q239.1719,18.6563 239.3594,18.5469 Q239.5469,18.4375 239.7656,18.4375 Q240.1406,18.4375 240.375,18.7031 Q240.6094,18.9531 240.6094,19.5625 L240.6094,21.0156 Q240.6094,21.625 240.375,21.8906 Q240.1406,22.1563 239.7656,22.1563 Q239.4219,22.1563 239.2188,21.9531 Q239.0156,21.7656 238.9063,21.25 Q238.8594,20.8906 238.6719,20.7031 Q238.3438,20.3281 237.7344,20.1094 Q237.125,19.8906 236.5,19.8906 Q235.7344,19.8906 235.0938,20.2188 Q234.4688,20.5469 233.9688,21.2969 Q233.4844,22.0469 233.4844,23.0781 L233.4844,24.1719 Q233.4844,25.4063 234.375,26.2344 Q235.2656,27.0469 236.8594,27.0469 Q237.7969,27.0469 238.4531,26.7969 Q238.8438,26.6406 239.2656,26.2031 Q239.5313,25.9375 239.6719,25.8594 Q239.8281,25.7813 240.0313,25.7813 Q240.3594,25.7813 240.6094,26.0469 Q240.875,26.2969 240.875,26.6406 Q240.875,26.9844 240.5313,27.3906 Q240.0313,27.9688 239.2344,28.2969 Q238.1563,28.75 236.8594,28.75 Q235.3438,28.75 234.1406,28.125 Q233.1563,27.625 232.4688,26.5625 Q231.7813,25.4844 231.7813,24.2031 L231.7813,23.0469 Q231.7813,21.7188 232.3906,20.5781 Q233.0156,19.4219 234.1094,18.8125 Q235.2031,18.1875 236.4375,18.1875 Q237.1719,18.1875 237.8125,18.3594 Q238.4688,18.5156 239.0156,18.875 Z " fill="#000000"/><text fill="#000000" font-family="sans-serif" font-size="12" lengthAdjust="spacing" textLength="106" x="256.75" y="27.9102">CommandWrapper</text><line style="stroke:#A80036;stroke-width:1.5;" x1="131" x2="456" y1="39" y2="39"/><rect fill="none" height="6" style="stroke:#C82930;stroke-width:1.0;" width="6" x="138" y="47"/><text fill="#000000" font-family="sans-serif" font-size="11" lengthAdjust="spacing" textLength="45" x="150" y="54.4189">_dto: any</text><rect fill="none" height="6" style="stroke:#C82930;stroke-width:1.0;" width="6" x="138" y="60.8359"/><text fill="#000000" font-family="sans-serif" font-size="11" lengthAdjust="spacing" textLength="66" x="150" y="68.2549">_service: any</text><ellipse cx="141" cy="77.6719" rx="3" ry="3" style="stroke:#038048;stroke-width:1.0;fill:none;"/><text fill="#000000" font-family="sans-serif" font-size="11" lengthAdjust="spacing" textLength="61" x="150" y="82.0908">Service: any</text><ellipse cx="141" cy="91.5078" rx="3" ry="3" style="stroke:#038048;stroke-width:1.0;fill:none;"/><text fill="#000000" font-family="sans-serif" font-size="11" lengthAdjust="spacing" textLength="45" x="150" y="95.9268">DTO: any</text><ellipse cx="141" cy="105.3438" rx="3" ry="3" style="stroke:#038048;stroke-width:1.0;fill:none;"/><text fill="#000000" font-family="sans-serif" font-size="11" lengthAdjust="spacing" textLength="93" x="150" y="109.7627">Response: boolean</text><ellipse cx="141" cy="119.1797" rx="3" ry="3" style="stroke:#038048;stroke-width:1.0;fill:none;"/><text fill="#000000" font-family="sans-serif" font-size="11" lengthAdjust="spacing" textLength="83" x="150" y="123.5986">Arguments: any[]</text><ellipse cx="141" cy="133.0156" rx="3" ry="3" style="stroke:#038048;stroke-width:1.0;fill:none;"/><text fill="#000000" font-family="sans-serif" font-size="11" lengthAdjust="spacing" textLength="52" x="150" y="137.4346">Type: Guid</text><ellipse cx="141" cy="146.8516" rx="3" ry="3" style="stroke:#038048;stroke-width:1.0;fill:none;"/><text fill="#000000" font-family="sans-serif" font-size="11" lengthAdjust="spacing" textLength="36" x="150" y="151.2705">Id: Guid</text><rect fill="none" height="6" style="stroke:#C82930;stroke-width:1.0;" width="6" x="138" y="157.6875"/><text fill="#000000" font-family="sans-serif" font-size="11" lengthAdjust="spacing" text-decoration="underline" textLength="73" x="150" y="165.1064">_factories: any</text><line style="stroke:#A80036;stroke-width:1.5;" x1="131" x2="456" y1="171.5234" y2="171.5234"/><ellipse cx="141" cy="182.5234" fill="#84BE84" rx="3" ry="3" style="stroke:#038048;stroke-width:1.0;"/><text fill="#000000" font-family="sans-serif" font-size="11" lengthAdjust="spacing" textLength="153" x="150" y="186.9424">getArgument(name: string): any</text><ellipse cx="141" cy="196.3594" fill="#84BE84" rx="3" ry="3" style="stroke:#038048;stroke-width:1.0;"/><text fill="#000000" font-family="sans-serif" font-size="11" lengthAdjust="spacing" textLength="220" x="150" y="200.7783">setArgument(name: string, value: string): void</text><ellipse cx="141" cy="210.1953" fill="#84BE84" rx="3" ry="3" style="stroke:#038048;stroke-width:1.0;"/><text fill="#000000" font-family="sans-serif" font-size="11" lengthAdjust="spacing" textLength="142" x="150" y="214.6143">executeCmd(): Promise&lt;any&gt;</text><ellipse cx="141" cy="224.0313" fill="#84BE84" rx="3" ry="3" style="stroke:#038048;stroke-width:1.0;"/><text fill="#000000" font-family="sans-serif" font-size="11" lengthAdjust="spacing" text-decoration="underline" textLength="301" x="150" y="228.4502">register(typeId: Guid, factory: CommandWrapperFactory): void</text><!--MD5=[a8c0967d7b66f43265179b07355379df]
class PropertyDTO--><rect codeLine="31" fill="#FEFECE" filter="url(#foa8d4l9ienyf)" height="89.5078" id="PropertyDTO" style="stroke:#A80036;stroke-width:1.5;" width="102" x="226.5" y="733"/><ellipse cx="241.5" cy="749" fill="#ADD1B2" rx="11" ry="11" style="stroke:#A80036;stroke-width:1.0;"/><path d="M244.2656,744.875 Q244.4219,744.6563 244.6094,744.5469 Q244.7969,744.4375 245.0156,744.4375 Q245.3906,744.4375 245.625,744.7031 Q245.8594,744.9531 245.8594,745.5625 L245.8594,747.0156 Q245.8594,747.625 245.625,747.8906 Q245.3906,748.1563 245.0156,748.1563 Q244.6719,748.1563 244.4688,747.9531 Q244.2656,747.7656 244.1563,747.25 Q244.1094,746.8906 243.9219,746.7031 Q243.5938,746.3281 242.9844,746.1094 Q242.375,745.8906 241.75,745.8906 Q240.9844,745.8906 240.3438,746.2188 Q239.7188,746.5469 239.2188,747.2969 Q238.7344,748.0469 238.7344,749.0781 L238.7344,750.1719 Q238.7344,751.4063 239.625,752.2344 Q240.5156,753.0469 242.1094,753.0469 Q243.0469,753.0469 243.7031,752.7969 Q244.0938,752.6406 244.5156,752.2031 Q244.7813,751.9375 244.9219,751.8594 Q245.0781,751.7813 245.2813,751.7813 Q245.6094,751.7813 245.8594,752.0469 Q246.125,752.2969 246.125,752.6406 Q246.125,752.9844 245.7813,753.3906 Q245.2813,753.9688 244.4844,754.2969 Q243.4063,754.75 242.1094,754.75 Q240.5938,754.75 239.3906,754.125 Q238.4063,753.625 237.7188,752.5625 Q237.0313,751.4844 237.0313,750.2031 L237.0313,749.0469 Q237.0313,747.7188 237.6406,746.5781 Q238.2656,745.4219 239.3594,744.8125 Q240.4531,744.1875 241.6875,744.1875 Q242.4219,744.1875 243.0625,744.3594 Q243.7188,744.5156 244.2656,744.875 Z " fill="#000000"/><text fill="#000000" font-family="sans-serif" font-size="12" lengthAdjust="spacing" textLength="70" x="255.5" y="753.9102">PropertyDTO</text><line style="stroke:#A80036;stroke-width:1.5;" x1="227.5" x2="327.5" y1="765" y2="765"/><ellipse cx="237.5" cy="776" rx="3" ry="3" style="stroke:#038048;stroke-width:1.0;fill:none;"/><text fill="#000000" font-family="sans-serif" font-size="11" lengthAdjust="spacing" textLength="66" x="246.5" y="780.4189">Name?: string</text><ellipse cx="237.5" cy="789.8359" rx="3" ry="3" style="stroke:#038048;stroke-width:1.0;fill:none;"/><text fill="#000000" font-family="sans-serif" font-size="11" lengthAdjust="spacing" textLength="58" x="246.5" y="794.2549">Value?: any</text><ellipse cx="237.5" cy="803.6719" rx="3" ry="3" style="stroke:#038048;stroke-width:1.0;fill:none;"/><text fill="#000000" font-family="sans-serif" font-size="11" lengthAdjust="spacing" text-decoration="underline" textLength="60" x="246.5" y="808.0908">TypeId: Guid</text><line style="stroke:#A80036;stroke-width:1.5;" x1="227.5" x2="327.5" y1="814.5078" y2="814.5078"/><!--MD5=[f5d54f60ec6d089d1cb017027d5a65a8]
class CommandDTO--><rect codeLine="36" fill="#FEFECE" filter="url(#foa8d4l9ienyf)" height="89.5078" id="CommandDTO" style="stroke:#A80036;stroke-width:1.5;" width="159" x="198" y="548.5"/><ellipse cx="232.35" cy="564.5" fill="#ADD1B2" rx="11" ry="11" style="stroke:#A80036;stroke-width:1.0;"/><path d="M235.1156,560.375 Q235.2719,560.1563 235.4594,560.0469 Q235.6469,559.9375 235.8656,559.9375 Q236.2406,559.9375 236.475,560.2031 Q236.7094,560.4531 236.7094,561.0625 L236.7094,562.5156 Q236.7094,563.125 236.475,563.3906 Q236.2406,563.6563 235.8656,563.6563 Q235.5219,563.6563 235.3188,563.4531 Q235.1156,563.2656 235.0063,562.75 Q234.9594,562.3906 234.7719,562.2031 Q234.4438,561.8281 233.8344,561.6094 Q233.225,561.3906 232.6,561.3906 Q231.8344,561.3906 231.1938,561.7188 Q230.5688,562.0469 230.0688,562.7969 Q229.5844,563.5469 229.5844,564.5781 L229.5844,565.6719 Q229.5844,566.9063 230.475,567.7344 Q231.3656,568.5469 232.9594,568.5469 Q233.8969,568.5469 234.5531,568.2969 Q234.9438,568.1406 235.3656,567.7031 Q235.6313,567.4375 235.7719,567.3594 Q235.9281,567.2813 236.1313,567.2813 Q236.4594,567.2813 236.7094,567.5469 Q236.975,567.7969 236.975,568.1406 Q236.975,568.4844 236.6313,568.8906 Q236.1313,569.4688 235.3344,569.7969 Q234.2563,570.25 232.9594,570.25 Q231.4438,570.25 230.2406,569.625 Q229.2563,569.125 228.5688,568.0625 Q227.8813,566.9844 227.8813,565.7031 L227.8813,564.5469 Q227.8813,563.2188 228.4906,562.0781 Q229.1156,560.9219 230.2094,560.3125 Q231.3031,559.6875 232.5375,559.6875 Q233.2719,559.6875 233.9125,559.8594 Q234.5688,560.0156 235.1156,560.375 Z " fill="#000000"/><text fill="#000000" font-family="sans-serif" font-size="12" lengthAdjust="spacing" textLength="84" x="250.65" y="569.4102">CommandDTO</text><line style="stroke:#A80036;stroke-width:1.5;" x1="199" x2="356" y1="580.5" y2="580.5"/><ellipse cx="209" cy="591.5" rx="3" ry="3" style="stroke:#038048;stroke-width:1.0;fill:none;"/><text fill="#000000" font-family="sans-serif" font-size="11" lengthAdjust="spacing" textLength="99" x="218" y="595.9189">Response?: boolean</text><ellipse cx="209" cy="605.3359" rx="3" ry="3" style="stroke:#038048;stroke-width:1.0;fill:none;"/><text fill="#000000" font-family="sans-serif" font-size="11" lengthAdjust="spacing" textLength="133" x="218" y="609.7549">Arguments?: PropertyDTO[]</text><ellipse cx="209" cy="619.1719" rx="3" ry="3" style="stroke:#038048;stroke-width:1.0;fill:none;"/><text fill="#000000" font-family="sans-serif" font-size="11" lengthAdjust="spacing" text-decoration="underline" textLength="60" x="218" y="623.5908">TypeId: Guid</text><line style="stroke:#A80036;stroke-width:1.5;" x1="199" x2="356" y1="630.0078" y2="630.0078"/><!--MD5=[b707d9664f58f8aa822e066429c1a2e9]
class SetAdressBase--><rect codeLine="41" fill="#FEFECE" filter="url(#foa8d4l9ienyf)" height="158.6875" id="SetAdressBase" style="stroke:#A80036;stroke-width:1.5;" width="325" x="131" y="295"/><ellipse cx="246.25" cy="311" fill="#ADD1B2" rx="11" ry="11" style="stroke:#A80036;stroke-width:1.0;"/><path d="M249.0156,306.875 Q249.1719,306.6563 249.3594,306.5469 Q249.5469,306.4375 249.7656,306.4375 Q250.1406,306.4375 250.375,306.7031 Q250.6094,306.9531 250.6094,307.5625 L250.6094,309.0156 Q250.6094,309.625 250.375,309.8906 Q250.1406,310.1563 249.7656,310.1563 Q249.4219,310.1563 249.2188,309.9531 Q249.0156,309.7656 248.9063,309.25 Q248.8594,308.8906 248.6719,308.7031 Q248.3438,308.3281 247.7344,308.1094 Q247.125,307.8906 246.5,307.8906 Q245.7344,307.8906 245.0938,308.2188 Q244.4688,308.5469 243.9688,309.2969 Q243.4844,310.0469 243.4844,311.0781 L243.4844,312.1719 Q243.4844,313.4063 244.375,314.2344 Q245.2656,315.0469 246.8594,315.0469 Q247.7969,315.0469 248.4531,314.7969 Q248.8438,314.6406 249.2656,314.2031 Q249.5313,313.9375 249.6719,313.8594 Q249.8281,313.7813 250.0313,313.7813 Q250.3594,313.7813 250.6094,314.0469 Q250.875,314.2969 250.875,314.6406 Q250.875,314.9844 250.5313,315.3906 Q250.0313,315.9688 249.2344,316.2969 Q248.1563,316.75 246.8594,316.75 Q245.3438,316.75 244.1406,316.125 Q243.1563,315.625 242.4688,314.5625 Q241.7813,313.4844 241.7813,312.2031 L241.7813,311.0469 Q241.7813,309.7188 242.3906,308.5781 Q243.0156,307.4219 244.1094,306.8125 Q245.2031,306.1875 246.4375,306.1875 Q247.1719,306.1875 247.8125,306.3594 Q248.4688,306.5156 249.0156,306.875 Z " fill="#000000"/><text fill="#000000" font-family="sans-serif" font-size="12" lengthAdjust="spacing" textLength="86" x="266.75" y="315.9102">SetAdressBase</text><line style="stroke:#A80036;stroke-width:1.5;" x1="132" x2="455" y1="327" y2="327"/><ellipse cx="142" cy="338" rx="3" ry="3" style="stroke:#038048;stroke-width:1.0;fill:none;"/><text fill="#000000" font-family="sans-serif" font-size="11" lengthAdjust="spacing" textLength="36" x="151" y="342.4189">Id: Guid</text><ellipse cx="142" cy="351.8359" rx="3" ry="3" style="stroke:#038048;stroke-width:1.0;fill:none;"/><text fill="#000000" font-family="sans-serif" font-size="11" lengthAdjust="spacing" textLength="36" x="151" y="356.2549">Id: Guid</text><ellipse cx="142" cy="365.6719" rx="3" ry="3" style="stroke:#038048;stroke-width:1.0;fill:none;"/><text fill="#000000" font-family="sans-serif" font-size="11" lengthAdjust="spacing" textLength="99" x="151" y="370.0908">Adress: AdressDTO</text><ellipse cx="142" cy="379.5078" rx="3" ry="3" style="stroke:#038048;stroke-width:1.0;fill:none;"/><text fill="#000000" font-family="sans-serif" font-size="11" lengthAdjust="spacing" textLength="99" x="151" y="383.9268">Adress: AdressDTO</text><ellipse cx="142" cy="393.3438" rx="3" ry="3" style="stroke:#038048;stroke-width:1.0;fill:none;"/><text fill="#000000" font-family="sans-serif" font-size="11" lengthAdjust="spacing" textLength="93" x="151" y="397.7627">Result: AdressDTO</text><ellipse cx="142" cy="407.1797" rx="3" ry="3" style="stroke:#038048;stroke-width:1.0;fill:none;"/><text fill="#000000" font-family="sans-serif" font-size="11" lengthAdjust="spacing" text-decoration="underline" textLength="60" x="151" y="411.5986">TypeId: Guid</text><line style="stroke:#A80036;stroke-width:1.5;" x1="132" x2="455" y1="418.0156" y2="418.0156"/><ellipse cx="142" cy="429.0156" fill="#84BE84" rx="3" ry="3" style="stroke:#038048;stroke-width:1.0;"/><text fill="#000000" font-family="sans-serif" font-size="11" lengthAdjust="spacing" textLength="299" x="151" y="433.4346">execute(id: Guid, adress: AdressDTO): Promise&lt;AdressDTO&gt;</text><ellipse cx="142" cy="442.8516" fill="#84BE84" rx="3" ry="3" style="stroke:#038048;stroke-width:1.0;"/><text fill="#000000" font-family="sans-serif" font-size="11" lengthAdjust="spacing" text-decoration="underline" textLength="159" x="151" y="447.2705">IsForMe(dto: CommandDTO): any</text><!--MD5=[78563b2dced031dcc99154e54e28d438]
reverse link BaseDTO to AdressDTO--><path d="M60.35,439.53 C63.57,462.79 67.24,489.33 70.61,513.71 " fill="none" id="BaseDTO-backto-AdressDTO" style="stroke:#A80036;stroke-width:1.0;"/><polygon fill="none" points="53.41,440.44,57.61,419.67,67.28,438.53,53.41,440.44" style="stroke:#A80036;stroke-width:1.0;"/><!--MD5=[9714f00bbee80ca7b140c29ae529c8eb]
reverse link BaseDTO to CommandDTO--><path d="M96.6,435.24 C102.11,441.74 107.81,448.12 113.5,454 C146.41,488.01 187.03,522.36 219.61,548.35 " fill="none" id="BaseDTO-backto-CommandDTO" style="stroke:#A80036;stroke-width:1.0;"/><polygon fill="none" points="91.03,439.5,83.79,419.59,101.87,430.64,91.03,439.5" style="stroke:#A80036;stroke-width:1.0;"/><!--MD5=[aa991e4bdd705947fe3afd0a3dc4e768]
reverse link CommandWrapper to SetAdressBase--><path d="M293.5,255.54 C293.5,268.91 293.5,282.17 293.5,294.69 " fill="none" id="CommandWrapper-backto-SetAdressBase" style="stroke:#A80036;stroke-width:1.0;"/><polygon fill="none" points="286.5,255.24,293.5,235.24,300.5,255.24,286.5,255.24" style="stroke:#A80036;stroke-width:1.0;"/><!--MD5=[92fdb8409966ab8b3f648f5668444010]
link CommandDTO to PropertyDTO--><path codeLine="51" d="M277.5,638.68 C277.5,665.59 277.5,700.03 277.5,727.81 " fill="none" id="CommandDTO-to-PropertyDTO" style="stroke:#A80036;stroke-width:1.0;"/><polygon fill="#A80036" points="277.5,732.91,281.5,723.91,277.5,727.91,273.5,723.91,277.5,732.91" style="stroke:#A80036;stroke-width:1.0;"/><text fill="#000000" font-family="sans-serif" font-size="13" lengthAdjust="spacing" textLength="5" x="272.1016" y="722.0111">*</text><!--MD5=[c7097544574a64c1af30733e1d4328b5]
link SetAdressBase to AdressDTO--><path codeLine="52" d="M216.66,454.15 C195.27,476.05 172.15,499.71 151.19,521.16 " fill="none" id="SetAdressBase-to-AdressDTO" style="stroke:#A80036;stroke-width:1.0;"/><polygon fill="#A80036" points="147.58,524.86,156.7362,521.2318,151.0796,521.2889,151.0225,515.6324,147.58,524.86" style="stroke:#A80036;stroke-width:1.0;"/><text fill="#000000" font-family="sans-serif" font-size="13" lengthAdjust="spacing" textLength="7" x="155.6252" y="513.532">1</text><!--MD5=[3d4d0bfff669204a0ca47a582a3872be]
link SetAdressBase to CommandDTO--><path codeLine="53" d="M287.7,454.15 C285.5,483.94 283.07,516.99 281.13,543.31 " fill="none" id="SetAdressBase-to-CommandDTO" style="stroke:#A80036;stroke-width:1.0;"/><polygon fill="#A80036" points="280.75,548.49,285.4076,539.812,281.1215,543.5038,277.4297,539.2177,280.75,548.49" style="stroke:#A80036;stroke-width:1.0;"/><text fill="#000000" font-family="sans-serif" font-size="13" lengthAdjust="spacing" textLength="7" x="273.7102" y="537.6039">1</text><!--MD5=[a9d4c20e40daac1aa2bd62452414c693]
@startuml
class BaseDTO {
    +Id?: string
    +Type?: string
    +{static} TypeId: Guid
}
class AdressDTO extends BaseDTO {
    +Name1?: string
    +Name2?: string
    +Adress1?: string
    +Adress2?: string
    +Housenumber?: string
    +City?: string
    +Postcode?: string
    +{static} TypeId: Guid
}
class CommandWrapper {
    -_dto: any
    -_service: any
    +Service: any
    +DTO: any
    +Response: boolean
    +Arguments: any[]
    +Type: Guid
    +Id: Guid
    +getArgument(name: string): any
    +setArgument(name: string, value: string): void
    +executeCmd(): Promise<any>
    -{static} _factories: any
    +{static} register(typeId: Guid, factory: CommandWrapperFactory): void
}
class PropertyDTO {
    +Name?: string
    +Value?: any
    +{static} TypeId: Guid
}
class CommandDTO extends BaseDTO {
    +Response?: boolean
    +Arguments?: PropertyDTO[]
    +{static} TypeId: Guid
}
class SetAdressBase extends CommandWrapper {
    +Id: Guid
    +Id: Guid
    +Adress: AdressDTO
    +Adress: AdressDTO
    +Result: AdressDTO
    +execute(id: Guid, adress: AdressDTO): Promise<AdressDTO>
    +{static} TypeId: Guid
    +{static} IsForMe(dto: CommandDTO): any
}
CommandDTO - -> "*" PropertyDTO
SetAdressBase - -> "1" AdressDTO
SetAdressBase - -> "1" CommandDTO
@enduml

PlantUML version 1.2021.10(Mon Aug 30 15:43:48 CEST 2021)
(GPL source distribution)
Java Runtime: Java(TM) SE Runtime Environment
JVM: Java HotSpot(TM) 64-Bit Server VM
Default Encoding: Cp1252
Language: de
Country: CH
--></g></svg>