<?xml version="1.0" encoding="UTF-8" standalone="no"?><svg xmlns="http://www.w3.org/2000/svg" xmlns:xlink="http://www.w3.org/1999/xlink" contentScriptType="application/ecmascript" contentStyleType="text/css" height="822px" preserveAspectRatio="none" style="width:468px;height:822px;background:#FFFFFF;" version="1.1" viewBox="0 0 468 822" width="468px" zoomAndPan="magnify"><defs><filter height="300%" id="f1e6i3u11i3rjx" width="300%" x="-1" y="-1"><feGaussianBlur result="blurOut" stdDeviation="2.0"/><feColorMatrix in="blurOut" result="blurOut2" type="matrix" values="0 0 0 0 0 0 0 0 0 0 0 0 0 0 0 0 0 0 .4 0"/><feOffset dx="4.0" dy="4.0" in="blurOut2" result="blurOut3"/><feBlend in="SourceGraphic" in2="blurOut3" mode="normal"/></filter></defs><g><!--MD5=[6b1d3384926f1bc892ee196bbd0d7fce]
class BaseDTO--><rect codeLine="1" fill="#FEFECE" filter="url(#f1e6i3u11i3rjx)" height="89.5078" id="BaseDTO" style="stroke:#A80036;stroke-width:1.5;" width="86" x="7" y="315.5"/><ellipse cx="22" cy="331.5" fill="#ADD1B2" rx="11" ry="11" style="stroke:#A80036;stroke-width:1.0;"/><path d="M24.7656,327.375 Q24.9219,327.1563 25.1094,327.0469 Q25.2969,326.9375 25.5156,326.9375 Q25.8906,326.9375 26.125,327.1953 Q26.3594,327.4531 26.3594,328.0625 L26.3594,329.5156 Q26.3594,330.125 26.125,330.3906 Q25.8906,330.6563 25.5156,330.6563 Q25.1719,330.6563 24.9688,330.4531 Q24.7656,330.2656 24.6563,329.75 Q24.6094,329.3906 24.4219,329.2031 Q24.0938,328.8281 23.4844,328.6094 Q22.875,328.3906 22.25,328.3906 Q21.4844,328.3906 20.8516,328.7188 Q20.2188,329.0469 19.7266,329.7969 Q19.2344,330.5469 19.2344,331.5781 L19.2344,332.6719 Q19.2344,333.9063 20.125,334.7266 Q21.0156,335.5469 22.6094,335.5469 Q23.5469,335.5469 24.2031,335.2969 Q24.5938,335.1406 25.0156,334.7031 Q25.2813,334.4375 25.4297,334.3594 Q25.5781,334.2813 25.7813,334.2813 Q26.1094,334.2813 26.3672,334.5391 Q26.625,334.7969 26.625,335.1406 Q26.625,335.4844 26.2813,335.8906 Q25.7813,336.4688 24.9844,336.7969 Q23.9063,337.25 22.6094,337.25 Q21.0938,337.25 19.8906,336.625 Q18.9063,336.125 18.2188,335.0547 Q17.5313,333.9844 17.5313,332.7031 L17.5313,331.5469 Q17.5313,330.2188 18.1484,329.0703 Q18.7656,327.9219 19.8594,327.3047 Q20.9531,326.6875 22.1875,326.6875 Q22.9219,326.6875 23.5703,326.8516 Q24.2188,327.0156 24.7656,327.375 Z " fill="#000000"/><text fill="#000000" font-family="sans-serif" font-size="12" lengthAdjust="spacing" textLength="54" x="36" y="336.4102">BaseDTO</text><line style="stroke:#A80036;stroke-width:1.5;" x1="8" x2="92" y1="347.5" y2="347.5"/><ellipse cx="18" cy="358.5" rx="3" ry="3" style="stroke:#038048;stroke-width:1.0;fill:none;"/><text fill="#000000" font-family="sans-serif" font-size="11" lengthAdjust="spacing" textLength="42" x="27" y="362.9189">Id?: Guid</text><ellipse cx="18" cy="372.3359" rx="3" ry="3" style="stroke:#038048;stroke-width:1.0;fill:none;"/><text fill="#000000" font-family="sans-serif" font-size="11" lengthAdjust="spacing" textLength="58" x="27" y="376.7549">Type?: Guid</text><ellipse cx="18" cy="386.1719" rx="3" ry="3" style="stroke:#038048;stroke-width:1.0;fill:none;"/><text fill="#000000" font-family="sans-serif" font-size="11" lengthAdjust="spacing" text-decoration="underline" textLength="60" x="27" y="390.5908">TypeId: Guid</text><line style="stroke:#A80036;stroke-width:1.5;" x1="8" x2="92" y1="397.0078" y2="397.0078"/><!--MD5=[a5d4fcdae0bd58dbfa0890c54d6b74e5]
class AdressDTO--><rect codeLine="6" fill="#FEFECE" filter="url(#f1e6i3u11i3rjx)" height="158.6875" id="AdressDTO" style="stroke:#A80036;stroke-width:1.5;" width="132" x="14" y="500"/><ellipse cx="45.2" cy="516" fill="#ADD1B2" rx="11" ry="11" style="stroke:#A80036;stroke-width:1.0;"/><path d="M47.9656,511.875 Q48.1219,511.6563 48.3094,511.5469 Q48.4969,511.4375 48.7156,511.4375 Q49.0906,511.4375 49.325,511.6953 Q49.5594,511.9531 49.5594,512.5625 L49.5594,514.0156 Q49.5594,514.625 49.325,514.8906 Q49.0906,515.1563 48.7156,515.1563 Q48.3719,515.1563 48.1688,514.9531 Q47.9656,514.7656 47.8563,514.25 Q47.8094,513.8906 47.6219,513.7031 Q47.2938,513.3281 46.6844,513.1094 Q46.075,512.8906 45.45,512.8906 Q44.6844,512.8906 44.0516,513.2188 Q43.4188,513.5469 42.9266,514.2969 Q42.4344,515.0469 42.4344,516.0781 L42.4344,517.1719 Q42.4344,518.4063 43.325,519.2266 Q44.2156,520.0469 45.8094,520.0469 Q46.7469,520.0469 47.4031,519.7969 Q47.7938,519.6406 48.2156,519.2031 Q48.4813,518.9375 48.6297,518.8594 Q48.7781,518.7813 48.9813,518.7813 Q49.3094,518.7813 49.5672,519.0391 Q49.825,519.2969 49.825,519.6406 Q49.825,519.9844 49.4813,520.3906 Q48.9813,520.9688 48.1844,521.2969 Q47.1063,521.75 45.8094,521.75 Q44.2938,521.75 43.0906,521.125 Q42.1063,520.625 41.4188,519.5547 Q40.7313,518.4844 40.7313,517.2031 L40.7313,516.0469 Q40.7313,514.7188 41.3484,513.5703 Q41.9656,512.4219 43.0594,511.8047 Q44.1531,511.1875 45.3875,511.1875 Q46.1219,511.1875 46.7703,511.3516 Q47.4188,511.5156 47.9656,511.875 Z " fill="#000000"/><text fill="#000000" font-family="sans-serif" font-size="12" lengthAdjust="spacing" textLength="64" x="62.8" y="520.9102">AdressDTO</text><line style="stroke:#A80036;stroke-width:1.5;" x1="15" x2="145" y1="532" y2="532"/><ellipse cx="25" cy="543" rx="3" ry="3" style="stroke:#038048;stroke-width:1.0;fill:none;"/><text fill="#000000" font-family="sans-serif" font-size="11" lengthAdjust="spacing" textLength="72" x="34" y="547.4189">Name1?: string</text><ellipse cx="25" cy="556.8359" rx="3" ry="3" style="stroke:#038048;stroke-width:1.0;fill:none;"/><text fill="#000000" font-family="sans-serif" font-size="11" lengthAdjust="spacing" textLength="72" x="34" y="561.2549">Name2?: string</text><ellipse cx="25" cy="570.6719" rx="3" ry="3" style="stroke:#038048;stroke-width:1.0;fill:none;"/><text fill="#000000" font-family="sans-serif" font-size="11" lengthAdjust="spacing" textLength="81" x="34" y="575.0908">Adress1?: string</text><ellipse cx="25" cy="584.5078" rx="3" ry="3" style="stroke:#038048;stroke-width:1.0;fill:none;"/><text fill="#000000" font-family="sans-serif" font-size="11" lengthAdjust="spacing" textLength="81" x="34" y="588.9268">Adress2?: string</text><ellipse cx="25" cy="598.3438" rx="3" ry="3" style="stroke:#038048;stroke-width:1.0;fill:none;"/><text fill="#000000" font-family="sans-serif" font-size="11" lengthAdjust="spacing" textLength="106" x="34" y="602.7627">Housenumber?: string</text><ellipse cx="25" cy="612.1797" rx="3" ry="3" style="stroke:#038048;stroke-width:1.0;fill:none;"/><text fill="#000000" font-family="sans-serif" font-size="11" lengthAdjust="spacing" textLength="57" x="34" y="616.5986">City?: string</text><ellipse cx="25" cy="626.0156" rx="3" ry="3" style="stroke:#038048;stroke-width:1.0;fill:none;"/><text fill="#000000" font-family="sans-serif" font-size="11" lengthAdjust="spacing" textLength="84" x="34" y="630.4346">Postcode?: string</text><ellipse cx="25" cy="639.8516" rx="3" ry="3" style="stroke:#038048;stroke-width:1.0;fill:none;"/><text fill="#000000" font-family="sans-serif" font-size="11" lengthAdjust="spacing" text-decoration="underline" textLength="60" x="34" y="644.2705">TypeId: Guid</text><line style="stroke:#A80036;stroke-width:1.5;" x1="15" x2="145" y1="650.6875" y2="650.6875"/><!--MD5=[fe6b2754769bc87cf156126798433078]
class CommandWrapper--><rect codeLine="16" fill="#FEFECE" filter="url(#f1e6i3u11i3rjx)" height="214.0313" id="CommandWrapper" style="stroke:#A80036;stroke-width:1.5;" width="327" x="127.5" y="7"/><ellipse cx="233.75" cy="23" fill="#ADD1B2" rx="11" ry="11" style="stroke:#A80036;stroke-width:1.0;"/><path d="M236.5156,18.875 Q236.6719,18.6563 236.8594,18.5469 Q237.0469,18.4375 237.2656,18.4375 Q237.6406,18.4375 237.875,18.6953 Q238.1094,18.9531 238.1094,19.5625 L238.1094,21.0156 Q238.1094,21.625 237.875,21.8906 Q237.6406,22.1563 237.2656,22.1563 Q236.9219,22.1563 236.7188,21.9531 Q236.5156,21.7656 236.4063,21.25 Q236.3594,20.8906 236.1719,20.7031 Q235.8438,20.3281 235.2344,20.1094 Q234.625,19.8906 234,19.8906 Q233.2344,19.8906 232.6016,20.2188 Q231.9688,20.5469 231.4766,21.2969 Q230.9844,22.0469 230.9844,23.0781 L230.9844,24.1719 Q230.9844,25.4063 231.875,26.2266 Q232.7656,27.0469 234.3594,27.0469 Q235.2969,27.0469 235.9531,26.7969 Q236.3438,26.6406 236.7656,26.2031 Q237.0313,25.9375 237.1797,25.8594 Q237.3281,25.7813 237.5313,25.7813 Q237.8594,25.7813 238.1172,26.0391 Q238.375,26.2969 238.375,26.6406 Q238.375,26.9844 238.0313,27.3906 Q237.5313,27.9688 236.7344,28.2969 Q235.6563,28.75 234.3594,28.75 Q232.8438,28.75 231.6406,28.125 Q230.6563,27.625 229.9688,26.5547 Q229.2813,25.4844 229.2813,24.2031 L229.2813,23.0469 Q229.2813,21.7188 229.8984,20.5703 Q230.5156,19.4219 231.6094,18.8047 Q232.7031,18.1875 233.9375,18.1875 Q234.6719,18.1875 235.3203,18.3516 Q235.9688,18.5156 236.5156,18.875 Z " fill="#000000"/><text fill="#000000" font-family="sans-serif" font-size="12" lengthAdjust="spacing" textLength="106" x="254.25" y="27.9102">CommandWrapper</text><line style="stroke:#A80036;stroke-width:1.5;" x1="128.5" x2="453.5" y1="39" y2="39"/><rect fill="none" height="6" style="stroke:#C82930;stroke-width:1.0;" width="6" x="135.5" y="47"/><text fill="#000000" font-family="sans-serif" font-size="11" lengthAdjust="spacing" textLength="45" x="147.5" y="54.4189">_dto: any</text><rect fill="none" height="6" style="stroke:#C82930;stroke-width:1.0;" width="6" x="135.5" y="60.8359"/><text fill="#000000" font-family="sans-serif" font-size="11" lengthAdjust="spacing" textLength="66" x="147.5" y="68.2549">_service: any</text><ellipse cx="138.5" cy="77.6719" rx="3" ry="3" style="stroke:#038048;stroke-width:1.0;fill:none;"/><text fill="#000000" font-family="sans-serif" font-size="11" lengthAdjust="spacing" textLength="61" x="147.5" y="82.0908">Service: any</text><ellipse cx="138.5" cy="91.5078" rx="3" ry="3" style="stroke:#038048;stroke-width:1.0;fill:none;"/><text fill="#000000" font-family="sans-serif" font-size="11" lengthAdjust="spacing" textLength="45" x="147.5" y="95.9268">DTO: any</text><ellipse cx="138.5" cy="105.3438" rx="3" ry="3" style="stroke:#038048;stroke-width:1.0;fill:none;"/><text fill="#000000" font-family="sans-serif" font-size="11" lengthAdjust="spacing" textLength="93" x="147.5" y="109.7627">Response: boolean</text><ellipse cx="138.5" cy="119.1797" rx="3" ry="3" style="stroke:#038048;stroke-width:1.0;fill:none;"/><text fill="#000000" font-family="sans-serif" font-size="11" lengthAdjust="spacing" textLength="83" x="147.5" y="123.5986">Arguments: any[]</text><ellipse cx="138.5" cy="133.0156" rx="3" ry="3" style="stroke:#038048;stroke-width:1.0;fill:none;"/><text fill="#000000" font-family="sans-serif" font-size="11" lengthAdjust="spacing" textLength="52" x="147.5" y="137.4346">Type: Guid</text><ellipse cx="138.5" cy="146.8516" rx="3" ry="3" style="stroke:#038048;stroke-width:1.0;fill:none;"/><text fill="#000000" font-family="sans-serif" font-size="11" lengthAdjust="spacing" textLength="36" x="147.5" y="151.2705">Id: Guid</text><rect fill="none" height="6" style="stroke:#C82930;stroke-width:1.0;" width="6" x="135.5" y="157.6875"/><text fill="#000000" font-family="sans-serif" font-size="11" lengthAdjust="spacing" text-decoration="underline" textLength="73" x="147.5" y="165.1064">_factories: any</text><line style="stroke:#A80036;stroke-width:1.5;" x1="128.5" x2="453.5" y1="171.5234" y2="171.5234"/><ellipse cx="138.5" cy="182.5234" fill="#84BE84" rx="3" ry="3" style="stroke:#038048;stroke-width:1.0;"/><text fill="#000000" font-family="sans-serif" font-size="11" lengthAdjust="spacing" textLength="153" x="147.5" y="186.9424">getArgument(name: string): any</text><ellipse cx="138.5" cy="196.3594" fill="#84BE84" rx="3" ry="3" style="stroke:#038048;stroke-width:1.0;"/><text fill="#000000" font-family="sans-serif" font-size="11" lengthAdjust="spacing" textLength="220" x="147.5" y="200.7783">setArgument(name: string, value: string): void</text><ellipse cx="138.5" cy="210.1953" fill="#84BE84" rx="3" ry="3" style="stroke:#038048;stroke-width:1.0;"/><text fill="#000000" font-family="sans-serif" font-size="11" lengthAdjust="spacing" text-decoration="underline" textLength="301" x="147.5" y="214.6143">register(typeId: Guid, factory: CommandWrapperFactory): void</text><!--MD5=[a8c0967d7b66f43265179b07355379df]
class PropertyDTO--><rect codeLine="30" fill="#FEFECE" filter="url(#f1e6i3u11i3rjx)" height="89.5078" id="PropertyDTO" style="stroke:#A80036;stroke-width:1.5;" width="102" x="225" y="719"/><ellipse cx="240" cy="735" fill="#ADD1B2" rx="11" ry="11" style="stroke:#A80036;stroke-width:1.0;"/><path d="M242.7656,730.875 Q242.9219,730.6563 243.1094,730.5469 Q243.2969,730.4375 243.5156,730.4375 Q243.8906,730.4375 244.125,730.6953 Q244.3594,730.9531 244.3594,731.5625 L244.3594,733.0156 Q244.3594,733.625 244.125,733.8906 Q243.8906,734.1563 243.5156,734.1563 Q243.1719,734.1563 242.9688,733.9531 Q242.7656,733.7656 242.6563,733.25 Q242.6094,732.8906 242.4219,732.7031 Q242.0938,732.3281 241.4844,732.1094 Q240.875,731.8906 240.25,731.8906 Q239.4844,731.8906 238.8516,732.2188 Q238.2188,732.5469 237.7266,733.2969 Q237.2344,734.0469 237.2344,735.0781 L237.2344,736.1719 Q237.2344,737.4063 238.125,738.2266 Q239.0156,739.0469 240.6094,739.0469 Q241.5469,739.0469 242.2031,738.7969 Q242.5938,738.6406 243.0156,738.2031 Q243.2813,737.9375 243.4297,737.8594 Q243.5781,737.7813 243.7813,737.7813 Q244.1094,737.7813 244.3672,738.0391 Q244.625,738.2969 244.625,738.6406 Q244.625,738.9844 244.2813,739.3906 Q243.7813,739.9688 242.9844,740.2969 Q241.9063,740.75 240.6094,740.75 Q239.0938,740.75 237.8906,740.125 Q236.9063,739.625 236.2188,738.5547 Q235.5313,737.4844 235.5313,736.2031 L235.5313,735.0469 Q235.5313,733.7188 236.1484,732.5703 Q236.7656,731.4219 237.8594,730.8047 Q238.9531,730.1875 240.1875,730.1875 Q240.9219,730.1875 241.5703,730.3516 Q242.2188,730.5156 242.7656,730.875 Z " fill="#000000"/><text fill="#000000" font-family="sans-serif" font-size="12" lengthAdjust="spacing" textLength="70" x="254" y="739.9102">PropertyDTO</text><line style="stroke:#A80036;stroke-width:1.5;" x1="226" x2="326" y1="751" y2="751"/><ellipse cx="236" cy="762" rx="3" ry="3" style="stroke:#038048;stroke-width:1.0;fill:none;"/><text fill="#000000" font-family="sans-serif" font-size="11" lengthAdjust="spacing" textLength="66" x="245" y="766.4189">Name?: string</text><ellipse cx="236" cy="775.8359" rx="3" ry="3" style="stroke:#038048;stroke-width:1.0;fill:none;"/><text fill="#000000" font-family="sans-serif" font-size="11" lengthAdjust="spacing" textLength="67" x="245" y="780.2549">Value?: string</text><ellipse cx="236" cy="789.6719" rx="3" ry="3" style="stroke:#038048;stroke-width:1.0;fill:none;"/><text fill="#000000" font-family="sans-serif" font-size="11" lengthAdjust="spacing" text-decoration="underline" textLength="60" x="245" y="794.0908">TypeId: Guid</text><line style="stroke:#A80036;stroke-width:1.5;" x1="226" x2="326" y1="800.5078" y2="800.5078"/><!--MD5=[f5d54f60ec6d089d1cb017027d5a65a8]
class CommandDTO--><rect codeLine="35" fill="#FEFECE" filter="url(#f1e6i3u11i3rjx)" height="89.5078" id="CommandDTO" style="stroke:#A80036;stroke-width:1.5;" width="159" x="196.5" y="534.5"/><ellipse cx="230.85" cy="550.5" fill="#ADD1B2" rx="11" ry="11" style="stroke:#A80036;stroke-width:1.0;"/><path d="M233.6156,546.375 Q233.7719,546.1563 233.9594,546.0469 Q234.1469,545.9375 234.3656,545.9375 Q234.7406,545.9375 234.975,546.1953 Q235.2094,546.4531 235.2094,547.0625 L235.2094,548.5156 Q235.2094,549.125 234.975,549.3906 Q234.7406,549.6563 234.3656,549.6563 Q234.0219,549.6563 233.8188,549.4531 Q233.6156,549.2656 233.5063,548.75 Q233.4594,548.3906 233.2719,548.2031 Q232.9438,547.8281 232.3344,547.6094 Q231.725,547.3906 231.1,547.3906 Q230.3344,547.3906 229.7016,547.7188 Q229.0688,548.0469 228.5766,548.7969 Q228.0844,549.5469 228.0844,550.5781 L228.0844,551.6719 Q228.0844,552.9063 228.975,553.7266 Q229.8656,554.5469 231.4594,554.5469 Q232.3969,554.5469 233.0531,554.2969 Q233.4438,554.1406 233.8656,553.7031 Q234.1313,553.4375 234.2797,553.3594 Q234.4281,553.2813 234.6313,553.2813 Q234.9594,553.2813 235.2172,553.5391 Q235.475,553.7969 235.475,554.1406 Q235.475,554.4844 235.1313,554.8906 Q234.6313,555.4688 233.8344,555.7969 Q232.7563,556.25 231.4594,556.25 Q229.9438,556.25 228.7406,555.625 Q227.7563,555.125 227.0688,554.0547 Q226.3813,552.9844 226.3813,551.7031 L226.3813,550.5469 Q226.3813,549.2188 226.9984,548.0703 Q227.6156,546.9219 228.7094,546.3047 Q229.8031,545.6875 231.0375,545.6875 Q231.7719,545.6875 232.4203,545.8516 Q233.0688,546.0156 233.6156,546.375 Z " fill="#000000"/><text fill="#000000" font-family="sans-serif" font-size="12" lengthAdjust="spacing" textLength="84" x="249.15" y="555.4102">CommandDTO</text><line style="stroke:#A80036;stroke-width:1.5;" x1="197.5" x2="354.5" y1="566.5" y2="566.5"/><ellipse cx="207.5" cy="577.5" rx="3" ry="3" style="stroke:#038048;stroke-width:1.0;fill:none;"/><text fill="#000000" font-family="sans-serif" font-size="11" lengthAdjust="spacing" textLength="99" x="216.5" y="581.9189">Response?: boolean</text><ellipse cx="207.5" cy="591.3359" rx="3" ry="3" style="stroke:#038048;stroke-width:1.0;fill:none;"/><text fill="#000000" font-family="sans-serif" font-size="11" lengthAdjust="spacing" textLength="133" x="216.5" y="595.7549">Arguments?: PropertyDTO[]</text><ellipse cx="207.5" cy="605.1719" rx="3" ry="3" style="stroke:#038048;stroke-width:1.0;fill:none;"/><text fill="#000000" font-family="sans-serif" font-size="11" lengthAdjust="spacing" text-decoration="underline" textLength="60" x="216.5" y="609.5908">TypeId: Guid</text><line style="stroke:#A80036;stroke-width:1.5;" x1="197.5" x2="354.5" y1="616.0078" y2="616.0078"/><!--MD5=[b707d9664f58f8aa822e066429c1a2e9]
class SetAdressBase--><rect codeLine="40" fill="#FEFECE" filter="url(#f1e6i3u11i3rjx)" height="158.6875" id="SetAdressBase" style="stroke:#A80036;stroke-width:1.5;" width="325" x="128.5" y="281"/><ellipse cx="243.75" cy="297" fill="#ADD1B2" rx="11" ry="11" style="stroke:#A80036;stroke-width:1.0;"/><path d="M246.5156,292.875 Q246.6719,292.6563 246.8594,292.5469 Q247.0469,292.4375 247.2656,292.4375 Q247.6406,292.4375 247.875,292.6953 Q248.1094,292.9531 248.1094,293.5625 L248.1094,295.0156 Q248.1094,295.625 247.875,295.8906 Q247.6406,296.1563 247.2656,296.1563 Q246.9219,296.1563 246.7188,295.9531 Q246.5156,295.7656 246.4063,295.25 Q246.3594,294.8906 246.1719,294.7031 Q245.8438,294.3281 245.2344,294.1094 Q244.625,293.8906 244,293.8906 Q243.2344,293.8906 242.6016,294.2188 Q241.9688,294.5469 241.4766,295.2969 Q240.9844,296.0469 240.9844,297.0781 L240.9844,298.1719 Q240.9844,299.4063 241.875,300.2266 Q242.7656,301.0469 244.3594,301.0469 Q245.2969,301.0469 245.9531,300.7969 Q246.3438,300.6406 246.7656,300.2031 Q247.0313,299.9375 247.1797,299.8594 Q247.3281,299.7813 247.5313,299.7813 Q247.8594,299.7813 248.1172,300.0391 Q248.375,300.2969 248.375,300.6406 Q248.375,300.9844 248.0313,301.3906 Q247.5313,301.9688 246.7344,302.2969 Q245.6563,302.75 244.3594,302.75 Q242.8438,302.75 241.6406,302.125 Q240.6563,301.625 239.9688,300.5547 Q239.2813,299.4844 239.2813,298.2031 L239.2813,297.0469 Q239.2813,295.7188 239.8984,294.5703 Q240.5156,293.4219 241.6094,292.8047 Q242.7031,292.1875 243.9375,292.1875 Q244.6719,292.1875 245.3203,292.3516 Q245.9688,292.5156 246.5156,292.875 Z " fill="#000000"/><text fill="#000000" font-family="sans-serif" font-size="12" lengthAdjust="spacing" textLength="86" x="264.25" y="301.9102">SetAdressBase</text><line style="stroke:#A80036;stroke-width:1.5;" x1="129.5" x2="452.5" y1="313" y2="313"/><ellipse cx="139.5" cy="324" rx="3" ry="3" style="stroke:#038048;stroke-width:1.0;fill:none;"/><text fill="#000000" font-family="sans-serif" font-size="11" lengthAdjust="spacing" textLength="36" x="148.5" y="328.4189">Id: Guid</text><ellipse cx="139.5" cy="337.8359" rx="3" ry="3" style="stroke:#038048;stroke-width:1.0;fill:none;"/><text fill="#000000" font-family="sans-serif" font-size="11" lengthAdjust="spacing" textLength="36" x="148.5" y="342.2549">Id: Guid</text><ellipse cx="139.5" cy="351.6719" rx="3" ry="3" style="stroke:#038048;stroke-width:1.0;fill:none;"/><text fill="#000000" font-family="sans-serif" font-size="11" lengthAdjust="spacing" textLength="99" x="148.5" y="356.0908">Adress: AdressDTO</text><ellipse cx="139.5" cy="365.5078" rx="3" ry="3" style="stroke:#038048;stroke-width:1.0;fill:none;"/><text fill="#000000" font-family="sans-serif" font-size="11" lengthAdjust="spacing" textLength="99" x="148.5" y="369.9268">Adress: AdressDTO</text><ellipse cx="139.5" cy="379.3438" rx="3" ry="3" style="stroke:#038048;stroke-width:1.0;fill:none;"/><text fill="#000000" font-family="sans-serif" font-size="11" lengthAdjust="spacing" textLength="93" x="148.5" y="383.7627">Result: AdressDTO</text><ellipse cx="139.5" cy="393.1797" rx="3" ry="3" style="stroke:#038048;stroke-width:1.0;fill:none;"/><text fill="#000000" font-family="sans-serif" font-size="11" lengthAdjust="spacing" text-decoration="underline" textLength="60" x="148.5" y="397.5986">TypeId: Guid</text><line style="stroke:#A80036;stroke-width:1.5;" x1="129.5" x2="452.5" y1="404.0156" y2="404.0156"/><ellipse cx="139.5" cy="415.0156" fill="#84BE84" rx="3" ry="3" style="stroke:#038048;stroke-width:1.0;"/><text fill="#000000" font-family="sans-serif" font-size="11" lengthAdjust="spacing" textLength="299" x="148.5" y="419.4346">execute(id: Guid, adress: AdressDTO): Promise&lt;AdressDTO&gt;</text><ellipse cx="139.5" cy="428.8516" fill="#84BE84" rx="3" ry="3" style="stroke:#038048;stroke-width:1.0;"/><text fill="#000000" font-family="sans-serif" font-size="11" lengthAdjust="spacing" text-decoration="underline" textLength="179" x="148.5" y="433.2705">IsForMe(dto: CommandDTO): boolean</text><!--MD5=[78563b2dced031dcc99154e54e28d438]
reverse link BaseDTO to AdressDTO--><path d="M58.85,425.53 C62.07,448.79 65.74,475.33 69.11,499.71 " fill="none" id="BaseDTO-backto-AdressDTO" style="stroke:#A80036;stroke-width:1.0;"/><polygon fill="none" points="51.91,426.44,56.11,405.67,65.78,424.53,51.91,426.44" style="stroke:#A80036;stroke-width:1.0;"/><!--MD5=[9714f00bbee80ca7b140c29ae529c8eb]
reverse link BaseDTO to CommandDTO--><path d="M94.28,421.29 C99.72,427.77 105.36,434.14 111,440 C143.82,474.08 184.49,508.3 217.24,534.19 " fill="none" id="BaseDTO-backto-CommandDTO" style="stroke:#A80036;stroke-width:1.0;"/><polygon fill="none" points="88.77,425.6,81.67,405.64,99.67,416.82,88.77,425.6" style="stroke:#A80036;stroke-width:1.0;"/><!--MD5=[aa991e4bdd705947fe3afd0a3dc4e768]
reverse link CommandWrapper to SetAdressBase--><path d="M291,241.42 C291,254.78 291,268.08 291,280.67 " fill="none" id="CommandWrapper-backto-SetAdressBase" style="stroke:#A80036;stroke-width:1.0;"/><polygon fill="none" points="284,241.17,291,221.17,298,241.17,284,241.17" style="stroke:#A80036;stroke-width:1.0;"/><!--MD5=[92fdb8409966ab8b3f648f5668444010]
link CommandDTO to PropertyDTO--><path codeLine="50" d="M276,624.68 C276,651.59 276,686.03 276,713.81 " fill="none" id="CommandDTO-to-PropertyDTO" style="stroke:#A80036;stroke-width:1.0;"/><polygon fill="#A80036" points="276,718.91,280,709.91,276,713.91,272,709.91,276,718.91" style="stroke:#A80036;stroke-width:1.0;"/><text fill="#000000" font-family="sans-serif" font-size="13" lengthAdjust="spacing" textLength="5" x="270.6016" y="708.0111">*</text><!--MD5=[c7097544574a64c1af30733e1d4328b5]
link SetAdressBase to AdressDTO--><path codeLine="51" d="M214.53,440.15 C193.34,461.93 170.47,485.46 149.69,506.83 " fill="none" id="SetAdressBase-to-AdressDTO" style="stroke:#A80036;stroke-width:1.0;"/><polygon fill="#A80036" points="146.11,510.51,155.2515,506.8448,149.5952,506.9248,149.5152,501.2685,146.11,510.51" style="stroke:#A80036;stroke-width:1.0;"/><text fill="#000000" font-family="sans-serif" font-size="13" lengthAdjust="spacing" textLength="7" x="154.1587" y="499.1415">1</text><!--MD5=[3d4d0bfff669204a0ca47a582a3872be]
link SetAdressBase to CommandDTO--><path codeLine="52" d="M285.56,440.15 C283.5,469.94 281.22,502.99 279.4,529.31 " fill="none" id="SetAdressBase-to-CommandDTO" style="stroke:#A80036;stroke-width:1.0;"/><polygon fill="#A80036" points="279.04,534.49,283.648,525.7856,279.383,529.5018,275.6669,525.2368,279.04,534.49" style="stroke:#A80036;stroke-width:1.0;"/><text fill="#000000" font-family="sans-serif" font-size="13" lengthAdjust="spacing" textLength="7" x="271.9667" y="523.6039">1</text><!--MD5=[a87849910f172cfa05e70b26900d3d9b]
@startuml
class BaseDTO {
    +Id?: Guid
    +Type?: Guid
    +{static} TypeId: Guid
}
class AdressDTO extends BaseDTO {
    +Name1?: string
    +Name2?: string
    +Adress1?: string
    +Adress2?: string
    +Housenumber?: string
    +City?: string
    +Postcode?: string
    +{static} TypeId: Guid
}
class CommandWrapper {
    -_dto: any
    -_service: any
    +Service: any
    +DTO: any
    +Response: boolean
    +Arguments: any[]
    +Type: Guid
    +Id: Guid
    +getArgument(name: string): any
    +setArgument(name: string, value: string): void
    -{static} _factories: any
    +{static} register(typeId: Guid, factory: CommandWrapperFactory): void
}
class PropertyDTO {
    +Name?: string
    +Value?: string
    +{static} TypeId: Guid
}
class CommandDTO extends BaseDTO {
    +Response?: boolean
    +Arguments?: PropertyDTO[]
    +{static} TypeId: Guid
}
class SetAdressBase extends CommandWrapper {
    +Id: Guid
    +Id: Guid
    +Adress: AdressDTO
    +Adress: AdressDTO
    +Result: AdressDTO
    +execute(id: Guid, adress: AdressDTO): Promise<AdressDTO>
    +{static} TypeId: Guid
    +{static} IsForMe(dto: CommandDTO): boolean
}
CommandDTO - -> "*" PropertyDTO
SetAdressBase - -> "1" AdressDTO
SetAdressBase - -> "1" CommandDTO
@enduml

PlantUML version 1.2021.10(Mon Aug 30 15:43:48 CEST 2021)
(GPL source distribution)
Java Runtime: Java(TM) SE Runtime Environment
JVM: Java HotSpot(TM) Client VM
Default Encoding: Cp1252
Language: de
Country: CH
--></g></svg>